<?xml version="1.0" encoding="UTF-8"?>
<svg id="Layer_2" data-name="Layer 2" xmlns="http://www.w3.org/2000/svg" viewBox="0 0 181.02 181.22">
  <defs>
    <style>
      .cls-1 {
        fill: #fff;
      }

      .cls-2 {
        fill: #171726;
      }

      .cls-3 {
        fill: #1f1c2f;
      }
    </style>
  </defs>
  <g id="VIDEO_PROD" data-name="VIDEO PROD">
    <g>
      <g>
        <path class="cls-3" d="M181.02,21.4V90.61H0V21.4C0,9.58,9.59,0,21.41,0H159.62c11.82,0,21.4,9.58,21.4,21.4Z"/>
        <path class="cls-2" d="M0,159.82V90.61H181.02v69.21c0,11.82-9.59,21.4-21.41,21.4H21.4c-11.82,0-21.4-9.58-21.4-21.4Z"/>
      </g>
      <g>
        <path class="cls-1" d="M28.91,101.82h-1.73c-.08-.24-.11-25.29-.03-25.85,.1,0,.2-.02,.3-.02,7.85,0,15.69,0,23.54,0,.19,0,.33,.05,.47,.19,.45,.46,.9,.92,1.37,1.37,.14,.14,.19,.28,.19,.47,0,.64-.01,1.29,0,1.93,0,.24-.08,.4-.24,.56-2.29,2.27-4.58,4.55-6.87,6.83-.77,.77-1.53,1.53-2.3,2.3-.05,.05-.09,.11-.16,.18,.47,.44,.92,.87,1.38,1.29,.52,.48,1.05,.96,1.58,1.45,.73,.67,1.46,1.34,2.18,2,.67,.62,1.34,1.25,2.02,1.87,.71,.65,1.42,1.31,2.13,1.96,.18,.17,.3,.34,.29,.61-.02,.56,0,1.12,0,1.68v.29s-.05,.04-.06,.04c-.01,0-.03,0-.03,0-4.03-3.7-8.05-7.41-12.03-11.07,4-4.05,7.97-8.08,11.96-12.13H28.91v24.07Z"/>
        <path class="cls-1" d="M52.19,101.83c-.8,0-1.6,0-2.39,0-.11,0-.24-.09-.34-.17-.37-.32-.72-.66-1.08-.99-.88-.81-1.77-1.63-2.65-2.44-.69-.64-1.38-1.28-2.07-1.92-.84-.77-1.68-1.54-2.52-2.32-.67-.61-1.33-1.23-1.99-1.84-.74-.69-1.49-1.37-2.23-2.05-.06-.06-.11-.12-.21-.22,1.52-1.56,3.11-3.05,4.64-4.6,1.52-1.54,3.06-3.07,4.59-4.59-.02-.04-.02-.05-.03-.06,0,0-.02-.02-.02-.02-.11,0-.21-.01-.32-.01-4.58,0-9.15,0-13.77,0-.04,.9-.01,1.78-.02,2.65,0,.88,0,1.76,0,2.65v15.92h-1.76v-22.99h20.32c-.09,.1-.14,.19-.21,.25-.69,.68-1.38,1.35-2.06,2.03-2.82,2.81-5.63,5.63-8.45,8.44-.09,.09-.18,.19-.29,.3,4.32,3.98,8.61,7.95,12.91,11.91-.01,.02-.02,.05-.04,.07Z"/>
        <path class="cls-1" d="M74.51,101.83c-7.17,.01-13.14-5.88-12.96-13.29,.17-6.86,5.82-12.75,13.25-12.6,6.9,.14,12.65,5.78,12.64,12.96,0,7.21-5.86,12.92-12.94,12.92Zm11.31-12.92c.08-6-4.87-11.28-11.18-11.34-6.35-.07-11.37,5.05-11.46,11.09-.05,3.29,1.13,6.1,3.48,8.38,2.17,2.11,4.82,3.18,7.84,3.17,3.09,0,5.78-1.12,7.99-3.33,2.2-2.21,3.29-4.87,3.33-7.98Z"/>
        <path class="cls-1" d="M131.23,101.82c8.36-8.35,16.68-16.67,25.01-25,.01,.07,.04,.14,.04,.22,0,.66,0,1.31,0,1.97,0,.18-.03,.33-.18,.44-.06,.04-.1,.1-.15,.15-7.31,7.31-14.62,14.61-21.92,21.92-.24,.24-.47,.34-.81,.33-.56-.02-1.12,0-1.68,0-.09,0-.18,0-.31-.02Z"/>
        <path class="cls-1" d="M96.87,75.94c.13,0,.27,0,.41,0,.67,0,1.33,.01,2,.02,.47,.46,.94,.92,1.4,1.38,2.64,2.64,5.28,5.27,7.92,7.91,.1,.1,.17,.23,.27,.36,.16-.15,.25-.23,.34-.32,3.03-3.02,6.06-6.05,9.08-9.08,.2-.2,.4-.3,.69-.28,.57,.02,1.14,0,1.72,0,.11,0,.23,0,.36,0-.15,.26-11.71,11.85-12.06,12.12-4.04-4.04-8.07-8.07-12.12-12.12Z"/>
        <path class="cls-1" d="M143.37,88.08c-4.04-4.04-8.07-8.07-12.11-12.11,.06-.01,.13-.03,.21-.03,.63,0,1.26,0,1.9,0,.23,0,.4,.07,.56,.23,3.03,3.04,6.07,6.07,9.1,9.1,.1,.1,.18,.22,.29,.36,.15-.14,.25-.24,.35-.34,3.03-3.02,6.05-6.05,9.07-9.08,.2-.2,.4-.29,.69-.28,.57,.02,1.14,0,1.72,0h.33c-.15,.26-11.67,11.81-12.09,12.14Z"/>
        <path class="cls-1" d="M109.7,88.92c4.06-4.06,8.09-8.09,12.13-12.13,0,.06,.03,.14,.03,.21,0,.64,0,1.29,0,1.93,0,.23-.07,.4-.23,.56-3.03,3.02-6.06,6.05-9.08,9.07-.1,.1-.2,.2-.31,.32,.1,.11,.19,.2,.28,.29,3.03,3.03,6.05,6.05,9.08,9.07,.18,.18,.27,.36,.26,.62-.02,.69,0,1.38,0,2.06-.03,.01-.04,.02-.05,.02-.01,0-.03,0-.03,0-4.03-4.01-8.05-8.03-12.08-12.04Z"/>
        <path class="cls-1" d="M108.12,88.86c-4.06,4.05-8.09,8.09-12.13,12.12,0-.06-.02-.15-.02-.24,0-.63,0-1.26,0-1.89,0-.22,.07-.38,.22-.53,1.56-1.55,3.11-3.1,4.66-4.65,1.49-1.49,2.98-2.98,4.48-4.47,.09-.09,.2-.17,.33-.28-.13-.14-.22-.24-.32-.33-3.02-3.02-6.03-6.04-9.06-9.05-.22-.22-.33-.43-.32-.74,.03-.56,0-1.12,0-1.68,0-.1,0-.21,0-.33,.26,.14,11.78,11.61,12.15,12.08Z"/>
        <path class="cls-1" d="M96.8,101.83c4.07-4.06,8.1-8.1,12.11-12.1,4.01,4.01,8.05,8.05,12.09,12.09-.07,0-.17,.01-.27,.01-.61,0-1.22,0-1.82,0-.22,0-.37-.06-.53-.22-1.98-1.99-3.98-3.98-5.97-5.97-1.05-1.05-2.11-2.11-3.16-3.16-.09-.09-.16-.21-.25-.34-.17,.16-.27,.25-.37,.35-3.01,3.01-6.02,6.01-9.02,9.03-.23,.23-.46,.33-.78,.32-.67-.02-1.33,0-2.02,0Z"/>
        <path class="cls-1" d="M142.52,88.94c-3.99,3.99-8.01,8-12.05,12.04-.01-.08-.04-.15-.04-.22,0-.63,0-1.26,0-1.89,0-.25,.07-.42,.25-.59,2.78-2.77,5.55-5.54,8.33-8.31,.35-.34,.7-.68,1.08-1.04-.12-.13-.22-.23-.32-.33-3.02-3.02-6.03-6.04-9.06-9.05-.19-.19-.29-.38-.28-.65,.02-.57,0-1.14,0-1.72,0-.11,0-.23,.01-.3,4.02,4.02,8.04,8.04,12.08,12.07Z"/>
        <path class="cls-1" d="M101.81,107.49v.92c0,.64-.01,1.29,0,1.93,0,.21-.05,.36-.22,.48-.12,.09-.24,.19-.37,.28-.07-.28-.1-4.31-.03-4.91h.82c.29,.65,.58,1.32,.86,1.98,.28,.65,.56,1.3,.88,2.03,.61-1.39,1.19-2.7,1.77-4.02h.83v4.99c-.22-.18-.4-.31-.55-.47-.07-.07-.07-.22-.07-.33,0-.87,0-1.74,0-2.61v-.35s-.04-.01-.05-.01c-.01,0-.03,0-.03,0-.55,1.2-1.09,2.4-1.64,3.6h-.56c-.53-1.18-1.05-2.36-1.58-3.54h-.08Z"/>
        <path class="cls-1" d="M78.25,111c-.45,.15-.7-.05-.94-.39-.73-1.04-1.5-2.06-2.25-3.08-.05-.07-.1-.13-.19-.24-.02,.13-.03,.21-.03,.3,0,.92,0,1.83,0,2.75,0,.24-.05,.41-.27,.53-.13,.07-.24,.18-.4,.3v-5.03c.18,0,.37-.03,.55,0,.09,.01,.18,.11,.24,.18,.56,.76,1.11,1.52,1.66,2.28,.31,.42,.61,.84,.97,1.33,.02-.16,.04-.25,.04-.33,0-.86,.01-1.71,0-2.57,0-.24,.08-.41,.26-.55,.12-.09,.23-.2,.35-.3,.08,.26,.1,4.44,.02,4.83Z"/>
        <path class="cls-1" d="M133.66,107.25c-.21,.08-.38,.15-.57,.23-.04-.04-.07-.07-.1-.11-.35-.57-.9-.71-1.51-.67-.21,.01-.42,.07-.62,.13-.32,.11-.48,.34-.48,.64,0,.28,.15,.52,.46,.61,.39,.11,.79,.16,1.18,.25,.3,.07,.61,.12,.9,.22,.28,.1,.53,.27,.68,.54,.31,.54,.17,1.27-.33,1.64-.17,.12-.37,.23-.57,.29-.74,.22-1.48,.19-2.2-.07-.4-.14-.72-.4-.97-.78,.17-.13,.32-.26,.51-.41,.12,.13,.22,.26,.34,.37,.6,.51,1.29,.57,2.01,.38,.17-.05,.36-.16,.47-.3,.31-.36,.16-.91-.3-1.09-.29-.11-.6-.15-.9-.22-.36-.08-.73-.13-1.08-.23-.49-.15-.84-.45-.91-.99-.06-.43,.07-.81,.41-1.08,.17-.14,.38-.26,.59-.32,.68-.19,1.36-.2,2.04,.04,.43,.16,.77,.42,.93,.92Z"/>
        <path class="cls-1" d="M91.5,106.2s-.02,.06-.03,.07q-.53,.51-1.28,.51c-.44,0-.88,0-1.32,0-.02,0-.05,.01-.1,.03v1.46h2.63v.62h-2.64v1.66c.12,0,.24,.02,.35,.02,.52,0,1.05,.01,1.57,0,.24,0,.41,.07,.57,.22,.12,.11,.24,.22,.37,.34-.28,.08-2.81,.1-3.5,.04-.08-.24-.11-4.33-.03-4.96h3.4Z"/>
        <path class="cls-1" d="M117.74,106.18h.73c.71,1.62,1.42,3.26,2.14,4.89-.02,.02-.04,.04-.06,.06-.29-.16-.58-.3-.85-.47-.07-.04-.1-.16-.13-.24-.1-.24-.2-.48-.31-.73h-2.32c-.09,.22-.2,.44-.28,.67-.07,.2-.18,.35-.38,.44-.2,.09-.39,.22-.67,.37,.2-.63,.48-1.15,.7-1.69,.23-.56,.48-1.11,.72-1.67,.24-.54,.48-1.08,.72-1.63Zm.4,.81s-.05,0-.07,0c-.29,.69-.58,1.38-.88,2.09h1.81c-.3-.72-.58-1.4-.86-2.09Z"/>
        <path class="cls-1" d="M53.55,109.46c.13,.22,.26,.43,.39,.66-.18,.38-.46,.66-.85,.82-.75,.32-1.5,.3-2.24-.03-.45-.2-.79-.55-.96-1.01-.35-.89-.35-1.79,.1-2.65,.19-.36,.46-.64,.82-.81,.79-.37,1.58-.4,2.37,0,.31,.15,.54,.38,.7,.71-.12,.21-.25,.42-.4,.67-.09-.17-.15-.3-.22-.42-.25-.42-.61-.63-1.11-.67-1.12-.08-1.62,.65-1.76,1.44-.09,.52-.05,1.04,.18,1.54,.5,1.08,2.02,1.13,2.61,.4,.14-.18,.23-.4,.37-.64Z"/>
        <path class="cls-1" d="M63.75,106.12c.23,.2,.42,.37,.61,.55,.04,.04,.05,.13,.05,.2,0,1.41,0,2.83,0,4.33-.26-.23-.47-.4-.67-.59-.04-.04-.04-.13-.04-.2,0-1.38,0-2.76,0-4.14,0-.02,.01-.04,.05-.14Z"/>
        <path class="cls-1" d="M74.46,99.26c-5.7-.03-10.49-4.68-10.33-10.68,.15-5.51,4.69-10.18,10.62-10.06,5.56,.12,10.13,4.63,10.12,10.38-.02,5.83-4.73,10.35-10.41,10.35Zm8.77-10.35c.08-4.63-3.76-8.76-8.71-8.77-4.88,0-8.73,3.97-8.77,8.65-.04,4.97,4,8.67,8.41,8.83,5.09,.19,9.16-4.03,9.08-8.72Z"/>
      </g>
    </g>
  </g>
</svg>