<?xml version="1.0" encoding="UTF-8"?>
<svg id="Layer_2" data-name="Layer 2" xmlns="http://www.w3.org/2000/svg" viewBox="0 0 181.02 181.22">
  <defs>
    <style>
      .cls-1 {
        fill: #fff;
      }

      .cls-2 {
        fill: #171726;
      }

      .cls-3 {
        fill: #1f1c2f;
      }
    </style>
  </defs>
  <g id="BRANDING">
    <g>
      <g>
        <path class="cls-3" d="M181.02,21.4V90.61H0V21.4C0,9.58,9.59,0,21.41,0H159.62c11.82,0,21.4,9.58,21.4,21.4Z"/>
        <path class="cls-2" d="M0,159.82V90.61H181.02v69.21c0,11.82-9.59,21.4-21.41,21.4H21.4c-11.82,0-21.4-9.58-21.4-21.4Z"/>
      </g>
      <g id="ENG">
        <g>
          <path class="cls-1" d="M26.52,103.95c0-5.84,4.27-9.01,8.64-9.01s9.01,3.17,8.31,10.04h-14.28c.43,3.64,3.2,5.57,6.54,5.57,2.03,0,3.9-.73,5.17-2.1l1.4,1.43c-1.57,1.93-4.07,3.07-6.87,3.07-4.67,0-8.91-3.24-8.91-9.01Zm14.48-1.1c-.2-3.57-2.9-5.47-5.8-5.47s-5.57,1.83-6,5.47h11.81Z"/>
          <path class="cls-1" d="M46.66,103.95c0-5.8,4.5-9.01,9.01-9.01,3,0,5.84,1.43,7.41,4.27l-2.13,1.27c-1.1-1.87-3.07-2.97-5.24-2.97-3.14,0-6.24,2.33-6.24,6.44s3.1,6.44,6.24,6.44c2.17,0,4.14-1.1,5.24-2.97l2.13,1.27c-1.57,2.8-4.4,4.27-7.41,4.27-4.5,0-9.01-3.2-9.01-9.01Z"/>
          <path class="cls-1" d="M65.91,103.95c0-5.8,4.5-9.01,9.01-9.01s9.01,3.2,9.01,9.01-4.5,9.01-9.01,9.01-9.01-3.2-9.01-9.01Zm9.01,6.44c3.2,0,6.2-2.33,6.2-6.44s-3-6.44-6.2-6.44-6.2,2.33-6.2,6.44,3,6.44,6.2,6.44Z"/>
          <path class="cls-1" d="M100.27,98.68l-5.44,13.94h-2.6l-6.54-17.35h2.84l5.04,13.84,5.37-13.84h2.67l5.37,13.84,5.04-13.84h2.84l-6.54,17.35h-2.6l-5.44-13.94Z"/>
          <path class="cls-1" d="M116.61,103.95c0-5.94,4.3-9.01,8.51-9.01,3.24,0,5.67,1.77,6.51,3.6h.1v-3.27h2.8v17.35h-2.8v-3.27h-.1c-.83,1.83-3.27,3.6-6.51,3.6-4.2,0-8.51-3.07-8.51-9.01Zm8.97,6.44c3.14,0,6.24-2.17,6.24-6.44s-3.1-6.44-6.24-6.44-6.17,2.13-6.17,6.44,3.1,6.44,6.17,6.44Z"/>
          <path class="cls-1" d="M145.1,112.45l-7.31-17.18h2.9l5.77,13.88,5.77-13.88h2.9l-7.37,17.35-2.77,6.34h-2.77l2.87-6.5Z"/>
        </g>
        <g>
          <path class="cls-1" d="M98.04,62.47c-2.85-1.92-6.28-2.62-9.66-1.97-2.07,.4-3.97,1.28-5.57,2.56,.11,.06,.25,.14,.41,.22,.05,.03,.11,.06,.16,.09,.3,.17,.63,.35,.86,.5,.01,0,.03,.02,.04,.03,.04,.03,.08,.05,.11,.07h0s.02,.01,.03,.02c0,0,0,0,0,0t0,0h0c1.26-.88,2.7-1.5,4.26-1.8,.25-.05,.5-.09,.75-.12,1.32,.8,2.46,1.86,3.34,3.12h0c.61-.16,1.23-.26,1.85-.33-.63-1.04-1.41-1.97-2.3-2.79,1.18,.16,2.33,.52,3.42,1.06,.44,.22,.88,.47,1.29,.75,.52,.35,1.01,.74,1.44,1.16-1.27-.26-2.57-.32-3.86-.19,.1,.17,.2,.33,.3,.51h0c.04,.07,.08,.15,.12,.23s.08,.15,.12,.23c.06,.12,.12,.25,.18,.37,.03,.06,.06,.12,.08,.19,.02,.03,.03,.07,.04,.1,0,0,0,0,0,0,0,.01,0,.02,.01,.04,1.67-.06,3.35,.24,4.91,.93,1.21,2.05,1.73,4.46,1.48,6.82-1.8-.44-3.77-.54-5.59-.26h0c-.07,.39-.16,.77-.27,1.15-.07,.24-.15,.47-.23,.7,1.9-.44,3.9-.38,5.77,.19-.31,1.15-.82,2.26-1.52,3.3-.64,.95-1.41,1.79-2.29,2.48-1.39-.79-2.95-1.38-4.52-1.66-.5,.56-1.05,1.07-1.64,1.53,.12,0,.23,.02,.35,.03,1.44,.13,2.85,.54,4.13,1.2-.98,.52-2.04,.9-3.16,1.12-1.77,.34-3.55,.26-5.24-.23-.06,.02-.12,.04-.18,.06-.31,.09-1.03,.27-1.83,.39-.06,0-.12,.02-.19,.03-.12,.02-.24,.03-.36,.04-.07,0-.14,.01-.2,.02-.04,0-.08,0-.13,0-.07,0-.14,0-.21,.01,.17,.1,.33,.19,.51,.27,2.52,1.25,5.35,1.64,8.16,1.1,1.69-.33,3.26-.98,4.65-1.9,1.39-.92,2.6-2.11,3.57-3.54,1.15-1.71,1.84-3.59,2.09-5.51,0,0,0,0,0,0,.62-4.69-1.38-9.54-5.55-12.36Z"/>
          <path class="cls-1" d="M87.53,83.9c.37-.12,.88-.33,1.24-.49,3.31-1.43,5.85-4.15,7.04-7.53,.08-.23,.16-.47,.23-.7,.11-.38,.2-.77,.28-1.16,.48-2.5,.21-5.12-.8-7.48,0-.02-.01-.03-.02-.05-.17-.38-.35-.76-.55-1.12h0c-.1-.17-.19-.34-.3-.5-.62,.06-1.24,.17-1.85,.33-.66,.16-1.31,.39-1.94,.66-1.04,.45-2.01,1.03-2.89,1.72-.9-1.38-2.08-2.6-3.52-3.58,0,0,0,0,0,0-.01,0-.03-.01-.04-.02-.37-.24-1.22-.71-1.6-.91-1.01,.8-1.91,1.77-2.65,2.87-1.93,2.85-2.62,6.28-1.97,9.65,.53,2.72,1.88,5.14,3.88,6.98,.48,.45,1,.86,1.56,1.24,.28,.19,.57,.37,.86,.53,.04,.02,.08,.05,.13,.07,1.17-.04,2.47-.38,2.92-.5Zm-7.64-8.65c-.57-2.92,.04-5.89,1.71-8.35,.43-.63,.92-1.22,1.46-1.75,0,0,0,0,0,0,.13,.08,.26,.16,.39,.25,5.09,3.44,6.44,10.38,3,15.47-.18,.27-.38,.53-.58,.78-.14-.17-.27-.34-.4-.51-.06-.08-.12-.16-.18-.25-1.91-2.74-2.23-9.55-2.23-9.55,0,0-1.22,7.36,.72,10.41-2.02-1.64-3.38-3.92-3.88-6.51Zm8.2,6.58c-.09,.04-.19,.08-.28,.11,.03-.03,.05-.07,.07-.1,2.64-3.91,2.84-8.75,.96-12.73,.81-.68,1.72-1.24,2.71-1.66,.71-.3,1.43-.53,2.17-.68,.07,.14,.13,.28,.2,.42,1.02,2.37,1.19,5.04,.47,7.52-.93,3.21-3.23,5.81-6.29,7.13Z"/>
        </g>
      </g>
    </g>
  </g>
</svg>