<?xml version="1.0" encoding="UTF-8"?>
<svg id="Layer_2" data-name="Layer 2" xmlns="http://www.w3.org/2000/svg" xmlns:xlink="http://www.w3.org/1999/xlink" viewBox="0 0 181.02 181.22">
  <defs>
    <style>
      .cls-1 {
        fill: #fff;
      }

      .cls-2 {
        fill: #818181;
      }

      .cls-3 {
        fill: #666;
      }

      .cls-4 {
        fill: #aaa;
      }

      .cls-5 {
        fill: #171726;
      }

      .cls-6 {
        fill: #1f1c2f;
      }

      .cls-7 {
        fill: url(#radial-gradient-5);
      }

      .cls-8 {
        fill: url(#radial-gradient-3);
      }

      .cls-9 {
        fill: url(#radial-gradient-4);
      }

      .cls-10 {
        fill: url(#radial-gradient-2);
      }

      .cls-11 {
        fill: url(#radial-gradient);
      }
    </style>
    <radialGradient id="radial-gradient" cx="43.27" cy="131.9" fx="43.27" fy="131.9" r="16.44" gradientTransform="translate(0 -30.26)" gradientUnits="userSpaceOnUse">
      <stop offset="0" stop-color="#f7f7f7"/>
      <stop offset="1" stop-color="#757575"/>
    </radialGradient>
    <radialGradient id="radial-gradient-2" cx="43.78" cy="106.89" fx="43.78" fy="106.89" r="25.35" gradientTransform="translate(-61.26 133.59) rotate(-80.44) scale(1 .93)" gradientUnits="userSpaceOnUse">
      <stop offset=".12" stop-color="#f7f7f7"/>
      <stop offset=".96" stop-color="#757575"/>
    </radialGradient>
    <radialGradient id="radial-gradient-3" cx="43.49" cy="69.58" fx="43.49" fy="69.58" r="10.91" gradientTransform="translate(150.13 37.37) rotate(96.17) scale(1 1.47)" gradientUnits="userSpaceOnUse">
      <stop offset=".25" stop-color="#f7f7f7"/>
      <stop offset="1" stop-color="#757575"/>
    </radialGradient>
    <radialGradient id="radial-gradient-4" cx="38.54" cy="79.5" fx="38.54" fy="79.5" r="15.86" gradientTransform="translate(159.19 53.78) rotate(96.17) scale(1 1.47)" xlink:href="#radial-gradient-3"/>
    <radialGradient id="radial-gradient-5" cx="50.75" cy="106.74" fx="50.75" fy="106.74" r="0" gradientTransform="translate(212.63 73.19) rotate(96.17) scale(1 1.47)" xlink:href="#radial-gradient-3"/>
  </defs>
  <g id="BRANDING">
    <g>
      <g>
        <path class="cls-6" d="M181.02,21.4V90.61H0V21.4C0,9.58,9.59,0,21.41,0H159.62c11.82,0,21.4,9.58,21.4,21.4Z"/>
        <path class="cls-5" d="M0,159.82V90.61H181.02v69.21c0,11.82-9.59,21.4-21.41,21.4H21.4c-11.82,0-21.4-9.58-21.4-21.4Z"/>
      </g>
      <g>
        <g>
          <path class="cls-1" d="M122.75,89.2c1.1-1.88,2.2-3.75,3.31-5.63,1.82,0,5.81,.24,9.07,2.63,.51,.37,1.34,1,2.13,2.07,1.09,1.48,1.69,3.25,1.88,5.21,.1,1.03,.02,2.07,.19,3.13,.12-.24,.25-.48,.35-.73,1.04-2.57,3.07-3.83,5.7-4.08,1.74-.17,3.5-.03,5.4-.03-.79,1.49-1.54,2.9-2.33,4.39-.09-.06-1.96-1.31-3.82-.43-1.06,.51-1.55,1.44-1.66,1.66-.3,.61-.42,1.31-.35,2.08,.03,.3,.14,1.08,.67,1.89,.66,1,1.56,1.43,1.93,1.59,2.79,0,5.58,0,8.37,0-.02-7.8,0-11.04,.03-11.83,0,0,0-.02,0-.03,0-.23,.02-1.37-.57-2.34-.37-.61-.73-.77-.81-.81-.14-.06-.27-.09-.36-.1-3.22,0-6.44,0-9.65,0-.58,.44-1.15,.89-1.73,1.33,1.08-1.88,2.15-3.75,3.23-5.63,2.5,0,4.99,0,7.49,0,.37,.02,.87,.07,1.45,.2,.43,.1,1.36,.28,2.15,.79,1.28,.83,1.85,2.03,2.19,2.78,.69,1.52,.73,2.94,.67,3.77,0,4.82,0,9.63,0,14.45,.36,.47,.73,.93,1.09,1.4-.42,0-.84,0-1.26,0-3.87,0-7.74-.06-11.61,.02-3.67,.07-6.08-2.34-6.64-5.85-.12-.77-.19-1.55-.31-2.56-.2,.47-.33,.73-.44,1-1.6,3.87-4.51,6.2-8.54,7.11-1.1,.25-2.27,.27-3.41,.27-9.57,.02-19.13,.01-28.7,.01-.82,0-1.65,.03-2.47-.02-2.25-.15-3.92-1.22-4.99-3.21-.12-.22-.22-.45-.34-.67-.09-.19-.19-.37-.35-.66-.22,.26-.41,.45-.56,.66-.8,1.18-1.49,2.12-2.07,3.13-.15,.26-.27,.46-.33,.58-2.11-.01-4.21-.03-6.32-.04-.47-.09-1.19-.3-1.86-.85-1.19-.97-1.67-2.43-1.67-3.86,0-4.26,0-8.53,0-12.79,0-.42,0-.85,0-1.41h-3.65v-4.18c1.21,0,2.42,0,3.63,0,.01-2.08,.02-4.16,.03-6.23,1.82-1.53,3.64-3.06,5.45-4.59v10.75h6.03v4.2h-5.91c-.07,5.77-.09,10.04-.09,11.42,0,.16,.04,.86,.35,1.66,.32,.84,.96,1.29,1.91,1.28,1.61-.03,3.22,0,4.98,0-.05-.43-.09-.8-.14-1.17-.21-1.5-.21-2.99,.24-4.46,.88-2.82,2.98-4.4,5.93-4.67,1.74-.16,3.5-.03,5.39-.03-.79,1.48-1.54,2.89-2.33,4.38-1.19-1.24-2.53-1.11-3.83-.41-1.46,.78-2.1,2.09-1.98,3.75,.07,.88,.41,1.5,.5,1.65,.15,.27,.62,1.07,1.59,1.53,.36,.17,.68,.25,.9,.29,2.61,0,5.21,0,7.82,0,0-6.28,0-10.74,.08-11.89,0-.04,.05-.78-.18-1.59-.23-.8-.66-1.19-.78-1.31-.22-.2-.43-.33-.59-.41-2.69,0-5.38,0-8.07-.01-.56,.01-1.13,.02-1.69,.03-.53,.43-1.06,.86-1.59,1.28,1.02-1.84,2.04-3.68,3.07-5.52h8.88c1.5,.35,2.42,1.07,2.85,1.47,1.45,1.32,1.83,3.01,2.06,4,.24,1,.27,1.86,.26,2.45,0,4.68,0,9.37,.01,14.05,.35,.38,.71,.75,1.06,1.13,.36-.39,.73-.77,1.09-1.16-.01-6.79-.02-13.57-.04-20.36-.42-.49-.84-.97-1.27-1.46h6.88c-.43,.48-.86,.96-1.29,1.45,0,6.8,0,13.59,0,20.39,.31,.36,.62,.71,.93,1.07,.34-.36,.67-.73,1.01-1.09,0-10.37,0-20.75,0-31.12-.42-.51-.85-1.01-1.27-1.52,2.29,0,4.58,0,6.87,0-.43,.51-.87,1.02-1.3,1.54,0,9.52,0,19.04,0,28.56,2.23,0,4.47,0,6.7,0,.88-.05,2.69-.28,4.4-1.54,.36-.27,1.09-.84,1.75-1.79,1.78-2.55,1.85-5.31,.53-8.04-.24-.51-.7-1.34-1.59-2.12-1.64-1.43-3.56-1.59-4.29-1.62-1.13,.01-2.26,.02-3.38,.03-.68,.43-1.37,.86-2.05,1.29Z"/>
          <path class="cls-1" d="M109.56,78.49c0-1.57,1.27-2.85,2.78-2.8,1.58,.05,2.75,1.26,2.74,2.85,0,1.57-1.24,2.81-2.79,2.79-1.56-.02-2.74-1.24-2.74-2.84Z"/>
        </g>
        <g>
          <path class="cls-2" d="M40.64,79.6c.31-.06,.63-.11,.94-.17-.29,.19-.61,.18-.94,.17Z"/>
          <path class="cls-4" d="M43.29,79.06c-.25,.11-.5,.18-.77,.16,.25-.07,.5-.16,.77-.16Z"/>
          <path class="cls-2" d="M44.45,86.06c.08-.19,.2-.35,.32-.51,.02,0,.04,0,.07,0-.1,.19-.19,.4-.39,.51Z"/>
          <path class="cls-11" d="M57.3,85.12c-.31-.8-.69-1.57-1.34-2.16h0c-.71-.83-1.65-1.24-2.67-1.48-1.14-.27-2.29-.25-3.44-.06-.33,.05-.53,.19-.68,.47-.81,1.45-1.35,3.01-1.8,4.61,0,0,0,0,0,0-.26,.73-.42,1.49-.62,2.23-.27,1.03-.49,2.08-.7,3.13-.21,1.08-.4,2.17-.59,3.26-.14,.82-.26,1.64-.39,2.45-.03,.21,.06,.29,.27,.24,.64-.16,1.28-.33,1.9-.54,1.5-.51,2.92-1.18,4.31-1.95,.47-.26,.95-.51,1.38-.84,.47-.26,.92-.54,1.33-.88,.24-.14,.47-.29,.66-.5,0,0,0,0,0,0,.54-.36,1.03-.78,1.41-1.3,.53-.72,.85-1.54,1.04-2.42,.31-1.43,.48-2.85-.06-4.27Z"/>
          <path class="cls-10" d="M64.08,86.72c-.06-1.28-.22-2.57-.46-3.86-.1-.52-.28-1.01-.43-1.52-.01-.04-.08-.24-.1-.28-.09-.14-.07-.04-.07,.03-.11,0-.04,.18-.05,.25,0,.04,0,.07,0,.11,.04,1.03-.24,1.99-.58,2.94-.17,.46-.35,.92-.53,1.38-.89,1.87-1.91,3.65-3.26,5.24-.53,.62-1.02,1.27-1.59,1.86-.43,.32-.75,.76-1.11,1.15-1.09,1.18-2.25,2.3-3.54,3.25-1.52,1.12-3.21,1.95-4.89,2.79-.55,.27-1.12,.49-1.66,.8-.3,.02-.54,.2-.82,.29-.55,.17-.61,.26-.61,.82,0,.24-.07,.43-.28,.55-.35,.22-.58,.56-.88,.83-.09,.02-.16,.08-.23,.15-.58,.6-1.19,1.17-1.81,1.73-.12,.12-.29,.18-.39,.33-.09,.06-.16,.13-.22,.22-.43,.38-.89,.72-1.27,1.15-.1,.05-.16,.22-.29,.17-.15-.06-.08-.22-.1-.34-.06-.36-.03-.73-.06-1.09-.03-.46-.1-.92-.16-1.38,0-.02,0-.03,0-.05,.02-.37-.05-.74-.12-1.1,0-.16,0-.31-.01-.47-.17-1.2-.33-2.39-.52-3.58-.13-.78-.28-1.55-.44-2.32-.18-.85-.35-1.7-.57-2.54-.23-.9-.48-1.8-.74-2.69-.27-.94-.57-1.87-.9-2.79-.39-1.08-.81-2.16-1.29-3.21-.62-1.35-1.28-2.68-2.07-3.94-.12-.2-.23-.36-.39-.46-.03-.03-.07-.05-.12-.05-.12-.04-.27-.03-.45,.03-.45,.15-.93,.17-1.4,.27-.38,.08-.76,.1-1.13,.22-.07,.02-.16,.04-.21-.03-.06-.09,.04-.14,.09-.2,.58-.64,1.16-1.28,1.74-1.91,.16-.17,.15-.32-.02-.47-.88-.85-1.77-1.71-2.65-2.56-.09-.08-.19-.15-.27-.24-.07-.08-.14,0-.24,.13-.07,.1-.18,.25-.24,.35-.54,.95-1.2,1.76-1.64,2.77s-.81,2.11-1.09,3.21c-.55,2.2-.73,4.48-.53,6.74,.03,.34,.07,.68,.12,1.01,.59,4.22,2.56,8.2,5.5,11.28,1.58,1.65,3.44,3.04,5.48,4.08,3.97,2.02,8.61,2.71,12.99,1.87,3.63-.7,7.06-2.39,9.8-4.87,3.08-2.79,5.18-6.51,6.16-10.53,.45-1.84,.58-3.65,.5-5.48Z"/>
          <path class="cls-8" d="M61.08,76.88c-.18-.24-.32-.56-.54-.77-.42-.59-.82-1.19-1.33-1.7-2.48-3.2-6.43-5.46-10.3-6.49-.8-.21-1.61-.37-2.43-.48-4.65-.62-9.5,.44-13.47,2.94-.06,.04-.12,.08-.12,.15,0,.04,.03,.08,.06,.11,.7,.83,1.39,1.67,2.09,2.5,.36,.43,.71,.85,1.07,1.28s.48,.74,1.08,.59c.06-.02,.12-.03,.19-.05,.62-.03,1.22-.19,1.82-.33,.16,0,.31,0,.46-.05,.41-.13,.84-.17,1.26-.26,1.14-.24,2.28-.44,3.43-.65,.91-.17,1.81-.37,2.73-.51,1.17-.19,2.33-.38,3.49-.61,.09-.02,.2-.09,.26,0,.07,.11-.06,.18-.12,.24-.58,.59-1.17,1.17-1.75,1.75-.09,.09-.2,.17-.23,.3-.23,.17-.39,.41-.59,.61-1,1-1.99,2-2.99,3-.07,.07-.14,.15-.24,.17-.61,.12-1.23,.22-1.84,.35-.48,.1-.98,.14-1.45,.32-.19,0-.36,.04-.54,.08-.45,.09-.9,.18-1.35,.25-.32,.05-.37,.15-.18,.43,.16,.24,.3,.48,.44,.73,.5,.94,.89,1.93,1.26,2.92,.38,1.02,.75,2.05,1.05,3.09,.16,.54,.33,1.09,.5,1.63,.04,.12,.06,.28,.2,.3,.15,.02,.15-.16,.2-.26,.29-.64,.63-1.26,1.02-1.85,.06-.07,.13-.13,.17-.21,1.11-1.76,2.46-3.33,3.9-4.82,1.13-1.17,2.33-2.28,3.59-3.32,1.39-1.15,2.91-2.03,4.74-2.25,.32-.04,.63-.09,.96-.05,.67,.08,1.31,.22,1.93,.49,.6,.26,1.2,.51,1.69,.95,.09,.08,.18,.23,.31,.2,.02-.24-.28-.56-.44-.76Z"/>
          <path class="cls-3" d="M27.03,76.29l-1.3,1.93,2.92,2.62-2.58,3.14,4.37-.99s6.13,7.33,8.36,23.78l.09,.55s-.59-17.4-7.34-26.28l-1.37-2.09-2.99-2.85-.17,.18Z"/>
          <path class="cls-1" d="M42.68,107.89c.41,.02,.81,.04,1.23,.04s.81-.01,1.22-.04c-.81,0-1.63,0-2.44,0,0,0,0,0,0,0Z"/>
          <path class="cls-1" d="M49.5,107.14c-.74,.21-1.49,.37-2.25,.51,1.21-.2,2.38-.51,3.5-.91-.41,.15-.83,.28-1.25,.4Z"/>
          <path class="cls-9" d="M45.21,107.89s0,0,0,0c.41,.01,.81-.02,1.22-.09,.27-.05,.54-.1,.81-.15-.7,.12-1.41,.2-2.13,.24,.03,0,.06,0,.09,0Z"/>
          <path class="cls-7" d="M50.76,106.74s0,0,0,0c0,0,0,0,0,0Z"/>
          <path class="cls-1" d="M27.54,76.42c.88,.86,1.77,1.71,2.65,2.57,.16,.16,.17,.3,.02,.48-.58,.63-1.16,1.27-1.74,1.91-.05,.06-.16,.11-.09,.2,.04,.07,.14,.05,.21,.03,.37-.13,.75-.14,1.13-.22,.46-.1,.95-.12,1.4-.27,.19-.06,.33-.07,.45-.03,.05,0,.09,.02,.12,.05,.16,.09,.27,.26,.39,.46,.78,1.27,1.45,2.6,2.07,3.96,.48,1.05,.89,2.14,1.29,3.22,.33,.92,.63,1.86,.9,2.8,.26,.9,.51,1.8,.74,2.7,.21,.84,.39,1.7,.57,2.55,.16,.77,.31,1.55,.44,2.33,.19,1.2,.35,2.4,.52,3.6,.02,.15,.01,.31,.01,.47,.07,.36,.14,.73,.12,1.1,0,.02,0,.03,0,.05,.05,.46,.12,.92,.16,1.39,.03,.36,0,.73,.06,1.09,.02,.12-.05,.29,.1,.34,.13,.05,.19-.12,.29-.17,.32-.38,.72-.68,1.09-1,.39-.34,.77-.7,1.15-1.06l2.44-2.25c.17-.16,.35-.33,.39-.55,.05-.23-.04-.5,.12-.67,.06-.06,.14-.1,.22-.13,1.12-.46,2.24-.9,3.33-1.44s2.07-1.11,3.04-1.76c.29-.19,.58-.4,.87-.6,1.72-1.24,3.31-2.66,4.72-4.24,.65-.73,1.27-1.49,1.91-2.24,1.35-1.59,2.37-3.38,3.26-5.26,.18-.46,.36-.92,.53-1.39,.09-.26,.18-.51,.26-.77s.15-.52,.21-.78,.1-.53,.12-.8c.01-.13,0-.27,.01-.4,0-.12,0-.23,.02-.35,0-.05,.01-.1,.01-.16,0-.06,0-.11,.03-.17,.02-.05-1.56-3.45-1.53-3.38-.16-.1-.24-.11-.3-.16-.5-.44-1.09-.7-1.69-.95-.62-.27-1.27-.41-1.93-.49-.33-.04-.64,.02-.96,.05-1.83,.22-3.35,1.1-4.74,2.26-1.26,1.04-2.46,2.15-3.59,3.33-1.44,1.5-2.79,3.07-3.9,4.83-.05,.08-.12,.14-.17,.21-.38,.59-.73,1.21-1.02,1.86-.04,.1-.04,.28-.2,.26-.15-.01-.17-.18-.2-.3-.17-.54-.35-1.08-.5-1.63-.31-1.05-.68-2.08-1.05-3.1-.37-1-.75-1.99-1.26-2.93-.13-.25-.28-.5-.44-.73-.18-.28-.14-.38,.18-.43,.45-.07,.9-.16,1.35-.25,.18-.04,.36-.08,.54-.08,.46-.18,.96-.22,1.45-.32,.61-.13,1.22-.24,1.84-.35,.11-.02,.17-.1,.24-.17,1-1,2-2.01,2.99-3.01,.2-.2,.36-.44,.59-.61,.03-.14,.14-.22,.23-.31,.58-.59,1.17-1.17,1.75-1.76,.07-.07,.19-.13,.12-.24-.06-.09-.17-.02-.26,0-1.16,.23-2.33,.42-3.49,.61-1.19,.2-2.38,.45-3.57,.68s-2.43,.46-3.64,.69c-.52,.1-1.03,.19-1.55,.29-.26,.05-.52,.1-.78,.14-.12,.02-.24,.05-.37,.06-.1,0-.21,.04-.32,.02-.17-.02-.34-.11-.45-.25-.75-.95-1.51-1.88-2.27-2.82-.18-.22-.39-.41-.58-.61-.21-.22-.41-.44-.64-.64-.05-.05-.08-.09-.09-.13-2.21,1.45-4.13,3.32-5.63,5.5,.02,.01,.05,.03,.07,.05,.09,.08,.18,.15,.27,.24Zm17.53,21.16c.13-.82,.25-1.63,.39-2.45,.19-1.09,.38-2.17,.59-3.25,.2-1.05,.43-2.09,.7-3.12,.19-.75,.36-1.5,.62-2.23,.45-1.59,.99-3.15,1.8-4.6,.16-.28,.36-.42,.68-.47,1.15-.18,2.3-.21,3.44,.06,1.02,.24,1.97,.65,2.67,1.48,.65,.59,1.03,1.35,1.34,2.15,.43,1.1,.4,2.27,.23,3.42-.16,1.03-.43,2.11-1.02,2.98-.56,.82-1.35,1.45-2.15,2.02-1.89,1.33-3.93,2.45-6.07,3.32-.96,.39-1.96,.68-2.96,.93-.21,.05-.3-.03-.27-.24Z"/>
        </g>
      </g>
    </g>
  </g>
</svg>