<?xml version="1.0" encoding="UTF-8"?>
<svg id="Layer_2" data-name="Layer 2" xmlns="http://www.w3.org/2000/svg" viewBox="0 0 181.02 181.22">
  <defs>
    <style>
      .cls-1 {
        fill: #fff;
      }

      .cls-2 {
        fill: #171726;
      }

      .cls-3 {
        fill: #1f1c2f;
      }
    </style>
  </defs>
  <g id="BRANDING">
    <g>
      <g>
        <path class="cls-3" d="M181.02,21.4V90.61H0V21.4C0,9.58,9.59,0,21.41,0H159.62c11.82,0,21.4,9.58,21.4,21.4Z"/>
        <path class="cls-2" d="M0,159.82V90.61H181.02v69.21c0,11.82-9.59,21.4-21.41,21.4H21.4c-11.82,0-21.4-9.58-21.4-21.4Z"/>
      </g>
      <g>
        <circle class="cls-1" cx="158.29" cy="97.37" r="4.36"/>
        <path class="cls-1" d="M25.2,109.35c-.76,0-1.37-.61-1.37-1.37v-24.45c0-1.9,1.69-7.81,7.96-7.81,4.52,0,3.6,0,4.52,0,3.06,0,6.96,2.93,7.27,6.68,.33,4.04,.12,11.02,0,12.79-.24,3.64-3.29,6.42-5.86,6.42h-4.11c-.91,0-2.29-.36-2.75-1.49v7.86c0,.76-.61,1.37-1.37,1.37h-4.29Zm5.64-16.4c0,.82,.84,2.65,2.72,2.65s3.14-1.67,3.14-2.7v-8.65c0-1.13-1.54-2.39-3.06-2.39s-2.8,1.52-2.8,2.44v8.65Z"/>
        <path class="cls-1" d="M52.31,93.54c0,1.03,2.03,2.26,3.57,2.26,2.07,0,3.48-.77,4.32-1.43,.54-.43,1.31-.37,1.76,.14,.03,.04,.06,.08,.08,.12l1.52,2.75c.43,.55,.34,1.34-.2,1.77-1.33,1.07-3.32,2.79-9.02,2.79-6.52,0-8.58-5.1-8.86-7.72-.26-2.37-.22-5.55,0-9.94,.23-4.65,2.26-8.55,10.01-8.55s9.25,5.91,9.25,8.09v5.51c0,.7-.57,1.27-1.27,1.27h-11.13s-.03,1.93-.03,2.95Zm2.8-11.92c-2.31,0-2.8,2.31-2.8,2.82v1.54h5.83v-1.54c0-.51-.72-2.82-3.03-2.82Z"/>
        <path class="cls-1" d="M67.6,69.69h4.83c.56,0,1.01,.45,1.01,1.01v5.52h4.92c.56,0,1.01,.45,1.01,1.01v4.11c0,.56-.45,1.01-1.01,1.01h-4.92v11.6c.13,1.13,1.7,2.08,3.1,2.08,.69,0,1.33-.21,1.86-.56,.42-.28,.98-.05,1.11,.44l1.04,3.94c.08,.31-.08,.68-.36,.83-2.57,1.38-5.72,1.64-8.46,.65-2.73-.99-4.79-3.58-5.11-6.48-.07-.69-.03-1.45-.03-2.16v-21.98c0-.56,.45-1.01,1.01-1.01Z"/>
        <path class="cls-1" d="M92.47,75.72c-3.36,0-4.44,1-4.71,1.33v-9.82c0-.56-.45-1.01-1.01-1.01h-4.83c-.56,0-1.01,.45-1.01,1.01v14.5s0,10.65,0,11.94c0,2.91,2.24,6.23,4.98,7.22,1.36,.49,2.99,.91,4.43,.8,9.01,0,10.09-6.18,10.09-7.1v-12.09c0-3.49-3.93-6.78-7.94-6.78Zm1.11,17.22c0,1.05-.88,2.76-3.14,2.76-1.88,0-2.72-1.87-2.72-2.71v-8.86c0-.95,1.23-2.5,2.8-2.5s3.06,1.29,3.06,2.45v8.86Z"/>
        <path class="cls-1" d="M137.87,75.72h-6.55c-5.34,0-7.86,4.07-7.86,7.76v16.82c0,.73,.59,1.31,1.31,1.31h4.04c.73,0,1.31-.59,1.31-1.31v-15.07c0-1.74,.3-3.57,2.38-3.57h5.36c.73,0,1.31-.36,1.31-1.08v-3.53c0-.73-.59-1.31-1.31-1.31Z"/>
        <path class="cls-1" d="M150.23,75.72h-4.48c-.65,0-1.17,.53-1.17,1.17v15.06c0,1.08-1.54,2.59-2.83,2.59-1.13,0-2.82-.77-2.82-2.59v-7.04c0-.65-.53-1.17-1.17-1.17h-4.2c-.65,0-1.17,.53-1.17,1.17v9.71c0,2.75,2.95,6.11,6.55,6.11,4.37,0,5.65-1.32,5.65-1.32v2.19s-.77,2.26-3.7,2.26c-1.64,0-3.17-.86-4.2-1.61-.74-.54-1.79-.33-2.28,.44l-1.43,2.27c-.4,.63-.31,1.45,.22,1.98,1.1,1.09,3.46,2.65,7.94,2.65,6.5,0,9.66-3.06,10.2-7.25,.05-.42,.07-.83,.07-1.25v-24.21c0-.65-.53-1.17-1.17-1.17Z"/>
        <path class="cls-1" d="M121.8,83.81v5.51c0,.7-.57,1.27-1.27,1.27h-11.13s-.03,1.93-.03,2.95,2.03,2.26,3.57,2.26c2.07,0,3.48-.77,4.32-1.43,.54-.43,1.31-.37,1.76,.14,.03,.04,.06,.08,.08,.12l1.52,2.75c.43,.55,.34,1.34-.2,1.77-1.33,1.07-3.32,2.79-9.02,2.79-6.52,0-8.58-5.1-8.86-7.72-.26-2.37-.22-5.55,0-9.94,.23-4.65,2.26-8.55,10.01-8.55s9.25,5.91,9.25,8.09Zm-9.66-2.17c0,.71,.35,1.77,1.18,1.74,.82-.03,1.4-1.02,1.39-2.03-.02-1.02-.48-1.6-1.35-1.55s-1.21,1.19-1.21,1.84Zm-3.48,1.61c-.52-.66-1-.95-1.6-.79s-.74,.79-.58,1.39,.85,1.8,2.09,1.4c.58-.21,.66-1.26,.08-2Zm1.64,.13c.82,.03,1.18-1.03,1.18-1.74,0-.64-.34-1.79-1.21-1.84s-1.34,.53-1.35,1.55c-.02,1.02,.56,2,1.39,2.03Zm3.73,3.09c-.2-.21-1.16-1.21-1.43-1.6-.05-.06-.1-.12-.16-.17-.37-.32-.95-.32-1.32,0-.06,.05-.11,.11-.16,.17-.27,.39-1.23,1.39-1.43,1.6-.2,.21-.2,1.37,.78,1.5,.99,.13,1.23-.26,1.46-.26s.48,.39,1.46,.26c.99-.13,.99-1.29,.78-1.5Zm2.52-4.01c-.6-.16-1.08,.13-1.6,.79-.58,.74-.5,1.79,.08,2,1.24,.4,1.93-.81,2.09-1.4s.02-1.22-.58-1.39Z"/>
      </g>
    </g>
  </g>
</svg>