<?xml version="1.0" encoding="UTF-8"?>
<svg id="Layer_2" data-name="Layer 2" xmlns="http://www.w3.org/2000/svg" viewBox="0 0 181.02 181.22">
  <defs>
    <style>
      .cls-1 {
        fill: #fff;
      }

      .cls-2 {
        fill: #171726;
      }

      .cls-3 {
        fill: #1f1c2f;
      }
    </style>
  </defs>
  <g id="INFLUENCER_MGNT" data-name="INFLUENCER MGNT">
    <g>
      <g>
        <path class="cls-3" d="M181.02,21.4V90.61H0V21.4C0,9.58,9.59,0,21.41,0H159.62c11.82,0,21.4,9.58,21.4,21.4Z"/>
        <path class="cls-2" d="M0,159.82V90.61H181.02v69.21c0,11.82-9.59,21.4-21.41,21.4H21.4c-11.82,0-21.4-9.58-21.4-21.4Z"/>
      </g>
      <g>
        <path class="cls-1" d="M48.36,87.57c0,3.16,.02,6.32,0,9.47-.02,2.16-.77,4.05-2.34,5.57-1.04,1-2.32,1.54-3.7,1.91-1.3,.35-2.62,.45-3.94,.46-1.15,0-2.3-.08-3.43-.36-1.16-.28-2.26-.63-3.27-1.28-1.32-.85-2.28-1.99-2.77-3.5-.09-.29-.21-.58-.28-.88-.07-.29,.04-.37,.29-.39,.37-.04,.73,.04,1.1,.03,1.29-.02,2.59,.03,3.88-.05,.18-.01,.32,.04,.39,.21,.38,.93,1.08,1.48,2.03,1.76,1.52,.44,3.02,.44,4.49-.18,.96-.4,1.57-1.14,1.89-2.17,.29-.93,.16-1.86,.21-2.79,.01-.21,0-.41,.05-.61,.02-.08,.06-.19-.02-.26-.1-.08-.15,.06-.23,.1-.42,.24-.69,.66-1.08,.94-.88,.64-1.89,.98-2.96,1.13-1.02,.14-2.03,.12-3.04-.07-1.82-.35-3.38-1.2-4.7-2.51-1.11-1.1-1.87-2.4-2.3-3.88-.4-1.38-.53-2.79-.42-4.24,.1-1.31,.37-2.58,.87-3.79,.51-1.22,1.28-2.28,2.28-3.17,1.07-.96,2.32-1.52,3.71-1.85,.85-.2,1.69-.25,2.55-.24,.97,.02,1.89,.25,2.79,.63,.89,.37,1.64,.91,2.22,1.68,.08,.11,.2,.25,.33,.2,.17-.06,.11-.25,.11-.39-.02-.39-.05-.77-.08-1.16-.02-.25,.06-.37,.35-.36,1.51,0,3.02-.01,4.53-.01,.52,0,.51,0,.51,.53,0,3.18,0,6.36,0,9.54Zm-5.26-.68c.03-.31,.02-.61,0-.91-.1-1.16-.5-2.21-1.23-3.11-.86-1.06-2.08-1.46-3.39-1.53-1.07-.06-2.08,.22-2.94,.91-1.22,.98-1.73,2.32-1.86,3.8-.12,1.35,0,2.7,.64,3.94,.51,.98,1.25,1.74,2.31,2.08,.9,.29,1.84,.35,2.8,.17,1.84-.35,3.1-1.7,3.49-3.36,.16-.65,.23-1.33,.18-1.99Z"/>
        <path class="cls-1" d="M148.9,89.3c-2.28,0-4.55,0-6.83,0-.56,0-.55,0-.43,.53,.2,.86,.45,1.7,.96,2.44,.82,1.2,1.92,1.89,3.39,1.98,.45,.03,.89,.05,1.35,.02,1.54-.1,2.59-.85,3.21-2.23,.09-.19,.21-.24,.4-.24,1.34,0,2.68,0,4.02,0,.22,0,.44,0,.65-.02,.33-.02,.38,.13,.33,.42-.11,.67-.42,1.25-.71,1.85-.58,1.19-1.47,2.12-2.54,2.87-.62,.44-1.31,.76-2.05,1.03-1.04,.37-2.11,.51-3.19,.66-.99,.13-1.96-.06-2.93-.21-1.76-.28-3.36-.95-4.73-2.1-1.36-1.14-2.35-2.54-2.93-4.23-.62-1.8-.9-3.64-.7-5.53,.12-1.17,.37-2.34,.83-3.42,.63-1.5,1.57-2.79,2.8-3.88,1.04-.92,2.21-1.55,3.52-1.92,1.71-.48,3.44-.51,5.19-.16,1.63,.33,3.04,1.04,4.27,2.12,1.03,.91,1.76,2.05,2.3,3.31,.88,2.04,1.21,4.18,1.22,6.39,0,.34-.18,.34-.42,.34-2,0-4.01,0-6.01,0-.33,0-.66,0-1,0h0Zm-2.51-3.81c1.07,.02,2.41-.03,3.75,.03,.43,.02,.47-.05,.45-.47-.03-.59-.27-1.11-.52-1.62-.48-.97-1.24-1.67-2.27-2.02-.99-.34-1.99-.32-3-.02-.47,.14-.89,.36-1.27,.65-1.02,.77-1.51,1.86-1.82,3.06-.08,.3,0,.39,.3,.39,1.37,0,2.74,0,4.39,0Z"/>
        <path class="cls-1" d="M97.64,89.3c-2.32,0-4.65,0-6.97,0-.41,0-.43,.02-.35,.42,.28,1.27,.69,2.46,1.69,3.37,.66,.61,1.39,1.01,2.29,1.13,.9,.12,1.8,.15,2.68-.1,1.08-.3,1.81-1.03,2.27-2.04,.1-.22,.2-.28,.43-.28,1.56,0,3.11,0,4.67,0,.29,0,.39,.11,.33,.4-.17,.82-.56,1.54-.95,2.26-.68,1.22-1.69,2.11-2.86,2.82-.87,.53-1.82,.88-2.84,1.05-.39,.07-.79,.14-1.18,.21-1.23,.22-2.43,.05-3.65-.14-1.95-.31-3.66-1.13-5.11-2.46-1.31-1.21-2.18-2.71-2.69-4.42-.33-1.12-.5-2.26-.53-3.41-.03-1.15,.09-2.3,.36-3.43,.25-1.07,.67-2.07,1.22-3,.64-1.07,1.43-2,2.43-2.76,.9-.69,1.89-1.19,2.96-1.54,1.37-.44,2.77-.55,4.2-.41,1.65,.16,3.2,.65,4.57,1.6,.64,.44,1.2,.98,1.7,1.58,1.64,1.97,2.31,4.3,2.61,6.79,.08,.67,.12,1.34,.2,2.01,.04,.36-.17,.37-.42,.37-.8,0-1.6,0-2.4,0-1.56,0-3.11,0-4.67,0h0Zm-2.86-3.79s0,0,0,0c1.4,0,2.79,0,4.19,0,.21,0,.41-.04,.36-.32-.15-.89-.41-1.74-.98-2.45-.67-.85-1.53-1.37-2.63-1.51-1.47-.2-2.77,.13-3.87,1.14-.84,.77-1.17,1.81-1.46,2.86-.06,.22,.05,.29,.25,.29,1.38,0,2.77,0,4.15,0Z"/>
        <path class="cls-1" d="M71.51,87.82c.08,1.27-.2,2.61-.63,3.92-.31,.92-.78,1.78-1.35,2.57-1.17,1.63-2.69,2.8-4.57,3.51-1.37,.52-2.8,.81-4.26,.81-1.25,0-2.49-.23-3.7-.6-1.1-.33-2.1-.84-3.01-1.51-1.27-.93-2.32-2.07-3.03-3.48-1.15-2.3-1.45-4.73-1.06-7.27,.23-1.48,.74-2.85,1.54-4.1,.88-1.38,2.04-2.48,3.47-3.29,2.15-1.22,4.46-1.62,6.9-1.41,1.81,.16,3.5,.69,5.01,1.69,1.58,1.04,2.81,2.4,3.62,4.12,.73,1.56,1.1,3.19,1.06,5.04Zm-5.63-.12c.07-.54-.12-1.15-.2-1.78-.14-1.2-.59-2.28-1.36-3.21-.68-.81-1.57-1.29-2.61-1.51-1.6-.34-3.03,.01-4.27,1.04-1.39,1.15-1.82,2.78-2.02,4.48-.14,1.21-.04,2.42,.27,3.6,.28,1.07,.75,2.04,1.57,2.8,.7,.65,1.52,1.03,2.49,1.19,.99,.16,1.93,.07,2.81-.29,1.55-.63,2.48-1.88,2.92-3.46,.25-.9,.38-1.83,.38-2.87Z"/>
        <path class="cls-1" d="M106.78,87.71c0-3.25,0-6.5,0-9.75,0-.45,0-.45,.45-.45,1.54,0,3.09,0,4.63-.01,.28,0,.38,.07,.36,.36-.05,.66,.02,1.33-.04,1.99-.01,.11-.02,.26,.1,.3,.11,.04,.17-.09,.23-.17,.55-.74,1.14-1.43,1.91-1.95,1-.68,2.13-1,3.31-1.09,.69-.05,1.4-.07,2.09,.07,2.33,.47,4.09,1.69,5.11,3.88,.52,1.12,.74,2.3,.74,3.53,0,4.39,0,8.79,.02,13.18,0,.25-.07,.36-.32,.36-1.68,0-3.36,0-5.05,0-.22,0-.24-.12-.24-.29,0-.45-.02-.89-.02-1.34,0-2.84,.02-5.67,.02-8.51,0-.96,0-1.92-.02-2.88-.04-1.96-1.73-3.4-3.69-3.24-1.38,.11-2.44,.7-3.23,1.81-.55,.77-.77,1.67-.78,2.59-.02,3.68-.01,7.37-.02,11.05,0,.08,0,.16,.02,.24,.06,.56,.06,.56-.49,.56-1.59,0-3.18,0-4.77,.02-.31,0-.3-.17-.3-.37,0-2.21-.01-4.42-.02-6.62,0-1.09,0-2.17,0-3.26,0,0-.01,0-.02,0Z"/>
        <path class="cls-1" d="M134.1,88.9c0,3.4,0,6.79,0,10.19,0,.93-.09,1.84-.43,2.73-.53,1.39-1.57,2.2-2.95,2.58-1.63,.45-3.3,.42-4.96,.16-.02,0-.05,0-.07,0-.65-.09-.65-.09-.65-.74,0-.93,0-1.85,0-2.78,0-.49,.02-.52,.49-.5,.53,.02,1.05-.02,1.57-.13,.94-.21,1.46-.86,1.46-1.8,0-6.53,0-13.06-.01-19.59,0-.42,0-.85-.02-1.27,0-.19,.08-.24,.24-.24,1.66,0,3.32,0,4.97,0,.28,0,.37,.08,.37,.36,0,3.68,0,7.37,0,11.05h0Z"/>
        <path class="cls-1" d="M73.24,87.75c0-3.28,0-6.57,0-9.85,0-.27,.03-.43,.37-.41,1.53,.08,3.06,0,4.6,0,.31,0,.42,.07,.4,.39-.03,.78-.04,1.55-.05,2.33,0,.12-.05,.29,.09,.33,.14,.04,.25-.1,.32-.22,.22-.4,.46-.78,.74-1.15,.43-.58,.99-1.02,1.57-1.41,.37-.25,.87-.35,1.32-.43,.72-.12,1.46-.12,2.19-.03,.22,.02,.32,.1,.32,.34-.02,1.31,.04,2.63-.04,3.94,0,.08,.01,.16,.03,.24,.08,.41,.08,.41-.36,.38-1.25-.1-2.45,.05-3.53,.72-1.68,1.04-2.37,2.65-2.39,4.55-.03,3.23,0,6.45,0,9.68,0,.01,0,.02,0,.03,.01,.78,.01,.78-.79,.78-1.49,0-2.97,0-4.46,.02-.31,0-.32-.14-.32-.37,0-2.13,0-4.26,0-6.38,0-1.16,0-2.31,0-3.47,0,0,0,0,.01,0Z"/>
        <path class="cls-1" d="M131.31,69.44c.82,0,1.65,0,2.47,0,.25,0,.32,.05,.32,.33-.01,1.44,0,2.88,.02,4.31,0,.29-.16,.28-.34,.28-.7,0-1.39,0-2.09,0-.94,0-1.87,0-2.81,0-.26,0-.37-.06-.36-.35,.06-1.39,.04-2.79-.02-4.18-.01-.34,.08-.44,.41-.43,.8,.02,1.6,0,2.4,0h0Z"/>
      </g>
    </g>
  </g>
</svg>