<?xml version="1.0" encoding="UTF-8"?>
<svg id="Layer_2" data-name="Layer 2" xmlns="http://www.w3.org/2000/svg" xmlns:xlink="http://www.w3.org/1999/xlink" viewBox="0 0 181.02 181.22">
  <defs>
    <style>
      .cls-1 {
        clip-path: url(#clippath);
      }

      .cls-2 {
        fill: #fff;
      }

      .cls-3 {
        fill: #171726;
      }

      .cls-4 {
        fill: #1f1c2f;
      }

      .cls-5 {
        clip-path: url(#clippath-1);
      }

      .cls-6 {
        clip-path: url(#clippath-4);
      }

      .cls-7 {
        clip-path: url(#clippath-3);
      }

      .cls-8 {
        clip-path: url(#clippath-2);
      }

      .cls-9 {
        clip-path: url(#clippath-7);
      }

      .cls-10 {
        clip-path: url(#clippath-8);
      }

      .cls-11 {
        clip-path: url(#clippath-6);
      }

      .cls-12 {
        clip-path: url(#clippath-5);
      }

      .cls-13 {
        clip-path: url(#clippath-9);
      }

      .cls-14 {
        clip-path: url(#clippath-20);
      }

      .cls-15 {
        clip-path: url(#clippath-21);
      }

      .cls-16 {
        clip-path: url(#clippath-24);
      }

      .cls-17 {
        clip-path: url(#clippath-23);
      }

      .cls-18 {
        clip-path: url(#clippath-22);
      }

      .cls-19 {
        clip-path: url(#clippath-25);
      }

      .cls-20 {
        clip-path: url(#clippath-40);
      }

      .cls-21 {
        clip-path: url(#clippath-27);
      }

      .cls-22 {
        clip-path: url(#clippath-28);
      }

      .cls-23 {
        clip-path: url(#clippath-26);
      }

      .cls-24 {
        clip-path: url(#clippath-29);
      }

      .cls-25 {
        clip-path: url(#clippath-34);
      }

      .cls-26 {
        clip-path: url(#clippath-35);
      }

      .cls-27 {
        clip-path: url(#clippath-36);
      }

      .cls-28 {
        clip-path: url(#clippath-37);
      }

      .cls-29 {
        clip-path: url(#clippath-39);
      }

      .cls-30 {
        clip-path: url(#clippath-33);
      }

      .cls-31 {
        clip-path: url(#clippath-32);
      }

      .cls-32 {
        clip-path: url(#clippath-30);
      }

      .cls-33 {
        clip-path: url(#clippath-38);
      }

      .cls-34 {
        clip-path: url(#clippath-31);
      }

      .cls-35 {
        clip-path: url(#clippath-14);
      }

      .cls-36 {
        clip-path: url(#clippath-13);
      }

      .cls-37 {
        clip-path: url(#clippath-12);
      }

      .cls-38 {
        clip-path: url(#clippath-10);
      }

      .cls-39 {
        clip-path: url(#clippath-15);
      }

      .cls-40 {
        clip-path: url(#clippath-17);
      }

      .cls-41 {
        clip-path: url(#clippath-16);
      }

      .cls-42 {
        clip-path: url(#clippath-19);
      }

      .cls-43 {
        clip-path: url(#clippath-11);
      }

      .cls-44 {
        clip-path: url(#clippath-18);
      }
    </style>
    <clipPath id="clippath">
      <path class="cls-2" d="M76.63,71.05l-1.21-2.37-1.83-1.27-2.89-.06-1.44,1.66-.52,2.04,.81,2.54,1.73,1.58,1.21,1,3.95,1.87,.54-3.41-.35-3.58Zm-.35,6.51l-1.52-2.74-.6,1.91-.17-.1,.54-1.89-3.08-.81,.17,1.21-.19-.12-.15-1.19-1.73-.82-.05-.15,1.77,.76-.36-2.18-1.45,1.32-.02-.16,1.43-1.37-.33-2.04-.89-.27,.12-.15,.75,.21-.15-.83,.12-.17,.17,1.04,1.5,.44-1.28-1.93,2.5,1.14-.7-1.08h.23l.61,.93,.59-.53,.15,.1-.66,.58,.83,1.46,1.79,.54,.1,.27-.58,1.14,1.06,1.73,.04,.37-1.14-1.83-.79,2.41,1.77,.6-.39,2.2Z"/>
    </clipPath>
    <clipPath id="clippath-1">
      <polygon class="cls-2" points="70.72 69.19 72.24 69.65 70.99 71.03 70.72 69.19"/>
    </clipPath>
    <clipPath id="clippath-2">
      <polygon class="cls-2" points="72.68 69.53 74.26 70.03 73.47 68.82 72.68 69.53"/>
    </clipPath>
    <clipPath id="clippath-3">
      <polygon class="cls-2" points="72.49 69.71 74.47 70.28 75.55 72.19 74.59 74.56 72.49 69.71"/>
    </clipPath>
    <clipPath id="clippath-4">
      <path class="cls-2" d="M67.48,78.97l-.35-1.23-1.46-2.58-1.72-.98-1.62,.07-1.34,.82-.51,2.15,.71,1.55,1.59,1.25,2.26,.75,2.84,.17-.4-1.96Zm-1.8,.25l-1.75,.28,.9,1.01-.25-.08-.93-.94-1.09,.14-.1-.1-.08-1.29-.91-.84-.54,.37v-.14s.47-.35,.47-.35l-.57-.55,.03-.14,.57,.53-.33-1.51,1.15,.82-.06-1.15-.69-.28,.1-.08,.6,.24,.04-.58,.14-.08-.07,.71,1.43,.54,1.19-.79,.11,.11-1.16,.76,1.62,.69-.36-1.44,.47,.19,.97,1.75-.93-.4,.21,2.39,.82-1.79,.08,.14-.21,.69,.69,.97-1.34,.19,1.66,1.54-1.69-.12-.18-1.39Z"/>
    </clipPath>
    <clipPath id="clippath-5">
      <polygon class="cls-2" points="62.41 76.58 63.62 75.82 62.31 75.32 62.41 76.58"/>
    </clipPath>
    <clipPath id="clippath-6">
      <path class="cls-2" d="M61.58,77.28c-.1,.01,.82,.79,.82,.79l-.08-1.29-.73,.5Z"/>
    </clipPath>
    <clipPath id="clippath-7">
      <polygon class="cls-2" points="62.45 76.7 62.51 78.22 63.8 79.37 65.7 79.12 62.45 76.7"/>
    </clipPath>
    <clipPath id="clippath-8">
      <path class="cls-2" d="M59.32,82.02l-1.07-1.66-1.32-1.05-1.35-.24-1.7,.77-.41,1.2,.21,1.32,1.17,1.21,2.38,.71h2.73l-.64-2.25Zm-1.18,2.06l-.06-1.15-2.07,.2,.41,.72-.19-.06-.34-.64-1.11,.06-.14-.1,1.18-.08-.8-1.03-.47,1-.1-.09,.49-.99-.73-1.02-.52,.09,.05-.16,.39-.05-.24-.37,.04-.18,.34,.52,.95-.17-1.2-.64,1.66-.06-.58-.36,.11-.06,.55,.31,.16-.42,.12,.02-.16,.46,.84,.55,1.07-.16,.14,.09,.07,.86,.92,.55,.15,.23-1-.56,.07,1.45,1.14-.09,.08,1.09-1.2-.87,.09,1.13h-.15Z"/>
    </clipPath>
    <clipPath id="clippath-9">
      <polygon class="cls-2" points="55.98 82.99 58.05 82.83 55.35 82.26 55.98 82.99"/>
    </clipPath>
    <clipPath id="clippath-10">
      <polygon class="cls-2" points="54.34 80.82 55 81.77 55.44 80.64 54.34 80.82"/>
    </clipPath>
    <clipPath id="clippath-11">
      <polygon class="cls-2" points="55.57 80.55 56.58 80.39 55.87 79.91 55.57 80.55"/>
    </clipPath>
    <clipPath id="clippath-12">
      <polygon class="cls-2" points="55.61 80.65 56.37 82.42 58.01 81.32 55.61 80.65"/>
    </clipPath>
    <clipPath id="clippath-13">
      <polygon class="cls-2" points="56.9 80.45 57.9 81.05 57.84 80.34 56.9 80.45"/>
    </clipPath>
    <clipPath id="clippath-14">
      <path class="cls-2" d="M103.06,74.64l.54,3.41,3.95-1.87,1.21-1,1.73-1.58,.81-2.54-.52-2.04-1.43-1.66-2.89,.06-1.83,1.27-1.21,2.37-.35,3.58Zm.31,.73l1.77-.6-.79-2.41-1.14,1.83,.04-.37,1.06-1.73-.58-1.14,.1-.27,1.79-.54,.83-1.46-.66-.58,.15-.1,.59,.53,.61-.93h.23l-.7,1.08,2.49-1.14-1.28,1.93,1.5-.44,.17-1.04,.12,.17-.15,.83,.75-.21,.12,.15-.89,.27-.33,2.04,1.44,1.37-.02,.15-1.46-1.32-.36,2.18,1.77-.76-.05,.15-1.73,.82-.15,1.18-.19,.12,.17-1.21-3.08,.81,.54,1.89-.17,.1-.6-1.91-1.52,2.75-.39-2.21Z"/>
    </clipPath>
    <clipPath id="clippath-15">
      <polygon class="cls-2" points="109.32 69.21 107.8 69.67 109.05 71.04 109.32 69.21"/>
    </clipPath>
    <clipPath id="clippath-16">
      <polygon class="cls-2" points="105.79 70.04 107.37 69.54 106.58 68.83 105.79 70.04"/>
    </clipPath>
    <clipPath id="clippath-17">
      <polygon class="cls-2" points="107.55 69.73 105.58 70.29 104.5 72.2 105.45 74.57 107.55 69.73"/>
    </clipPath>
    <clipPath id="clippath-18">
      <path class="cls-2" d="M112.16,80.94l2.84-.17,2.26-.75,1.59-1.25,.71-1.55-.51-2.15-1.35-.82-1.62-.07-1.72,.98-1.46,2.58-.35,1.23-.4,1.95Zm2.02-.32l-1.69,.12,1.66-1.54-1.34-.19,.69-.97-.21-.69,.08-.14,.82,1.79,.21-2.38-.93,.4,.97-1.75,.47-.19-.36,1.44,1.62-.69-1.16-.76,.11-.11,1.19,.79,1.43-.54-.07-.71,.14,.08,.04,.58,.6-.24,.1,.08-.69,.28-.06,1.15,1.15-.82-.33,1.51,.57-.53,.03,.14-.57,.56,.49,.35v.14s-.55-.37-.55-.37l-.92,.85-.08,1.29-.1,.1-1.09-.14-.93,.94-.25,.08,.9-1.01-1.75-.28-.18,1.39Z"/>
    </clipPath>
    <clipPath id="clippath-19">
      <polygon class="cls-2" points="116.43 75.84 117.63 76.6 117.73 75.34 116.43 75.84"/>
    </clipPath>
    <clipPath id="clippath-20">
      <polygon class="cls-2" points="117.59 76.71 117.54 78.23 116.25 79.39 114.35 79.14 117.59 76.71"/>
    </clipPath>
    <clipPath id="clippath-21">
      <path class="cls-2" d="M120.07,84.28h2.73l2.38-.71,1.18-1.21,.21-1.32-.41-1.2-1.71-.77-1.35,.24-1.32,1.05-1.07,1.66-.65,2.25Zm1.68-.2l.09-1.13-1.2,.87,.08-1.09,1.14,.09,.07-1.45-1,.56,.15-.23,.91-.55,.07-.86,.14-.09,1.07,.16,.84-.55-.16-.46,.12-.02,.16,.42,.55-.31,.11,.06-.58,.36,1.66,.06-1.2,.64,.95,.17,.34-.52,.04,.18-.24,.37,.39,.05,.05,.16-.52-.09-.73,1.02,.49,.99-.1,.09-.47-1-.8,1.03,1.17,.08-.13,.1-1.11-.06-.34,.64-.19,.06,.41-.72-2.07-.2-.06,1.16h-.15Z"/>
    </clipPath>
    <clipPath id="clippath-22">
      <polygon class="cls-2" points="122 82.84 124.07 83.01 124.69 82.27 122 82.84"/>
    </clipPath>
    <clipPath id="clippath-23">
      <polygon class="cls-2" points="125.05 81.78 125.7 80.83 124.61 80.66 125.05 81.78"/>
    </clipPath>
    <clipPath id="clippath-24">
      <polygon class="cls-2" points="123.46 80.41 124.47 80.56 124.17 79.93 123.46 80.41"/>
    </clipPath>
    <clipPath id="clippath-25">
      <polygon class="cls-2" points="124.43 80.67 123.67 82.44 122.03 81.33 124.43 80.67"/>
    </clipPath>
    <clipPath id="clippath-26">
      <polygon class="cls-2" points="122.14 81.06 123.14 80.46 122.21 80.36 122.14 81.06"/>
    </clipPath>
    <clipPath id="clippath-27">
      <path class="cls-2" d="M91.14,62.15c-.52,0-1.04,.03-1.56,.07-.44,.03-.89,.08-1.33,.16-1.27,.25-2.48,.67-3.59,1.36-.83,.51-1.49,1.18-1.95,2.04-.62,1.18-.7,2.44-.49,3.71,.21,1.25,.88,2.26,1.85,3.04,1.02,.82,2.22,1.31,3.48,1.61,.57,.14,1.15,.21,1.73,.29,.51,.07,1.03,.14,1.55,.13,.54,0,1.09-.03,1.61-.15,1.25-.26,2.5-.59,3.73-.88,.37-1.28,.73-2.5,1.08-3.72-.02,0-.04-.02-.06-.03-.17,.32-.32,.64-.5,.94-.62,1.01-1.46,1.79-2.5,2.33-1,.52-2.1,.73-3.22,.78-.44,.02-.89-.06-1.33-.14-1.53-.26-2.65-1.09-3.36-2.46-.32-.62-.52-1.27-.65-1.96-.12-.6-.13-1.19-.03-1.78,.13-.8,.39-1.57,.8-2.27,.53-.92,1.27-1.61,2.26-1.99,1.3-.51,2.65-.46,3.99-.18,.7,.15,1.36,.42,1.97,.81,.81,.52,1.51,1.16,2,1.99,.21,.35,.39,.71,.62,1.13-.01-.13-.01-.2-.03-.26-.32-1.12-.63-2.25-.97-3.37-.03-.09-.14-.19-.24-.22-.84-.24-1.68-.49-2.53-.69-.76-.19-1.54-.31-2.33-.31Z"/>
    </clipPath>
    <clipPath id="clippath-28">
      <path class="cls-2" d="M60.94,89s16.33-3.1,29.53-3.1,29.56,3.1,29.56,3.1l-29.48-6.88-29.61,6.88Z"/>
    </clipPath>
    <clipPath id="clippath-29">
      <path class="cls-2" d="M32.58,102.78c0,4.93,6.02,5.77,8.2,5.77s3.92-.64,4.73-.84c.81-.2,.93,1,.93,1l.77-5.01s-1.54,4.24-6.38,4.24-5.09-4.76-5.09-5.16,.2-5.33,5.05-5.33,6.26,4.45,6.26,4.45l-.53-4.75c-.32,1.02-1.29,.58-1.29,.58,0,0-2.22-.84-4.44-.84s-8.2,.96-8.2,5.89"/>
    </clipPath>
    <clipPath id="clippath-30">
      <path class="cls-2" d="M59.48,97.15c1.41,0,1.57,1.54,1.57,1.54v3.52h-7.55v-3.72c0-.96,1.62-1.34,1.62-1.34h-6.1c1.5,0,1.53,1.46,1.53,1.46v8.37c0,1.08-1.57,1.28-1.57,1.28h6.02c-1.45,0-1.54-1.36-1.54-1.36v-4.13h7.55v4.21c0,.84-1.53,1.28-1.53,1.28h6.02c-1.37,0-1.53-1.32-1.53-1.32v-8.25c0-.96,1.53-1.54,1.53-1.54h-6.02Z"/>
    </clipPath>
    <clipPath id="clippath-31">
      <path class="cls-2" d="M73.25,98.82l2.66,5.37h-5.29l2.63-5.37Zm0-1.66s-3.88,7.83-4.69,9.32c-.81,1.48-2.38,1.8-2.38,1.8h5.09c-2.63,0-1.94-1.68-1.94-1.68l1.01-1.84h5.9s.53,1.16,.89,2c.36,.84-1.66,1.52-1.66,1.52h7.23c-1.17,0-2.18-1.48-2.18-1.48l-4.93-9.64h-2.34Z"/>
    </clipPath>
    <clipPath id="clippath-32">
      <path class="cls-2" d="M93.29,97.15s1.62,.1,1.7,1.38v6.25s.08,3.12-4.36,3.12-4.2-3.09-4.2-3.09v-6.21s0-1.46,1.58-1.46h-6.1s1.62,.54,1.62,1.46v5.73s-.08,4.33,6.18,4.33,5.94-3.85,5.94-3.85v-6.21s.12-1.46,1.66-1.46h-4Z"/>
    </clipPath>
    <clipPath id="clippath-33">
      <path class="cls-2" d="M112.35,97.15l-4.85,7.99-4.8-7.99h-4.44c1.62,.3,1.62,1.26,1.62,1.26v8.49c-.04,1.16-1.82,1.36-1.82,1.36h4.08c-1.41,0-1.53-1.4-1.53-1.4v-7.73l5.61,9.54,5.66-9.57v7.81c0,1.08-1.49,1.36-1.49,1.36h6.14c-1.66,0-1.66-1.36-1.66-1.36v-8.41c0-1.04,1.58-1.34,1.58-1.34h-4.08Z"/>
    </clipPath>
    <clipPath id="clippath-34">
      <path class="cls-2" d="M118.37,97.15c1.29,0,1.53,1.42,1.53,1.42v8.37c0,.96-1.7,1.32-1.7,1.32h12.08l.77-3.57c-.65,2.96-4.04,3-4.04,3h-4.12v-4.93h3.07c1.29,0,1.78,2.16,1.78,2.16v-4.93c0,2.04-1.78,2.24-1.78,2.24h-3.03v-4.57h3.8c2.38,.2,3.63,3.12,3.63,3.12l-.89-3.67h-11.11Z"/>
    </clipPath>
    <clipPath id="clippath-35">
      <path class="cls-2" d="M132.59,97.15l-.65,4.27c1.21-3.72,2.83-3.72,2.83-3.72h3.11v9.29c0,.88-1.7,1.28-1.7,1.28h6.3c-1.65,0-1.7-1.36-1.7-1.36v-9.21h3.23c1.41,.2,2.79,3.76,2.79,3.76l-.73-4.31h-13.49Z"/>
    </clipPath>
    <clipPath id="clippath-36">
      <path class="cls-2" d="M77.2,112.51h1.86c.55,0,.82,.32,.82,.78,0,.48-.24,.87-.95,.87h-1.73v-1.64Zm-.72-.62v4.8h.72v-1.92h1.83c1.02,0,1.57-.6,1.57-1.5s-.56-1.38-1.62-1.38h-2.5Z"/>
    </clipPath>
    <clipPath id="clippath-37">
      <path class="cls-2" d="M83.78,112.55l.93,2.12h-1.84l.91-2.12Zm-.38-.66l-2.19,4.8h.77l.62-1.4h2.37l.62,1.4h.82l-2.19-4.8h-.82Z"/>
    </clipPath>
    <clipPath id="clippath-38">
      <path class="cls-2" d="M88.74,112.51h2.03c.58,0,.85,.31,.85,.77,0,.34-.17,.76-.87,.76h-2.01v-1.53Zm-.72-.62v4.8h.72v-2.04h1.88c.6,0,.89,.26,.94,1.12,.03,.58,.03,.78,.15,.91h.76c-.16-.19-.19-.41-.23-1.3-.03-.57-.28-.96-.71-1.02h0c.53-.18,.81-.61,.81-1.2s-.35-1.28-1.32-1.28h-3Z"/>
    </clipPath>
    <clipPath id="clippath-39">
      <rect class="cls-2" x="94.62" y="111.89" width=".72" height="4.8"/>
    </clipPath>
    <clipPath id="clippath-40">
      <path class="cls-2" d="M97.61,113.23c0,.93,.86,1.16,1.44,1.26l1.1,.18c.55,.1,.9,.28,.9,.71,0,.52-.54,.81-1.31,.81s-1.54-.22-1.56-1.08h-.72c0,1.32,1.13,1.7,2.22,1.7,.98,0,2.08-.35,2.08-1.57,0-.98-1.08-1.16-1.46-1.23l-1.19-.2c-.6-.1-.79-.34-.79-.63,0-.57,.6-.79,1.12-.79,1.16,0,1.38,.51,1.44,.89h.72c-.07-1.16-1.09-1.51-2.06-1.51-1.24,0-1.94,.59-1.94,1.46"/>
    </clipPath>
  </defs>
  <g id="AUGMENTED_REALITY" data-name="AUGMENTED REALITY">
    <g>
      <g>
        <path class="cls-4" d="M181.02,21.4V90.61H0V21.4C0,9.58,9.59,0,21.41,0H159.62c11.82,0,21.4,9.58,21.4,21.4Z"/>
        <path class="cls-3" d="M0,159.82V90.61H181.02v69.21c0,11.82-9.59,21.4-21.41,21.4H21.4c-11.82,0-21.4-9.58-21.4-21.4Z"/>
      </g>
      <g>
        <g>
          <path class="cls-2" d="M76.63,71.05l-1.21-2.37-1.83-1.27-2.89-.06-1.44,1.66-.52,2.04,.81,2.54,1.73,1.58,1.21,1,3.95,1.87,.54-3.41-.35-3.58Zm-.35,6.51l-1.52-2.74-.6,1.91-.17-.1,.54-1.89-3.08-.81,.17,1.21-.19-.12-.15-1.19-1.73-.82-.05-.15,1.77,.76-.36-2.18-1.45,1.32-.02-.16,1.43-1.37-.33-2.04-.89-.27,.12-.15,.75,.21-.15-.83,.12-.17,.17,1.04,1.5,.44-1.28-1.93,2.5,1.14-.7-1.08h.23l.61,.93,.59-.53,.15,.1-.66,.58,.83,1.46,1.79,.54,.1,.27-.58,1.14,1.06,1.73,.04,.37-1.14-1.83-.79,2.41,1.77,.6-.39,2.2Z"/>
          <g class="cls-1">
            <rect class="cls-2" x="66.17" y="66" width="13.39" height="13.37" transform="translate(-30.06 73.35) rotate(-45.3)"/>
          </g>
        </g>
        <g>
          <polygon class="cls-2" points="70.72 69.19 72.24 69.65 70.99 71.03 70.72 69.19"/>
          <g class="cls-5">
            <rect class="cls-2" x="70.3" y="68.93" width="2.37" height="2.37" transform="translate(-28.63 71.6) rotate(-45.3)"/>
          </g>
        </g>
        <g>
          <polygon class="cls-2" points="72.68 69.53 74.26 70.03 73.47 68.82 72.68 69.53"/>
          <g class="cls-8">
            <rect class="cls-2" x="72.48" y="68.44" width="1.97" height="1.97" transform="translate(-27.56 72.81) rotate(-45.3)"/>
          </g>
        </g>
        <g>
          <polygon class="cls-2" points="72.49 69.71 74.47 70.28 75.55 72.19 74.59 74.56 72.49 69.71"/>
          <g class="cls-7">
            <rect class="cls-2" x="71.22" y="69.35" width="5.6" height="5.58" transform="translate(-29.32 74.01) rotate(-45.3)"/>
          </g>
        </g>
        <g>
          <path class="cls-2" d="M67.48,78.97l-.35-1.23-1.46-2.58-1.72-.98-1.62,.07-1.34,.82-.51,2.15,.71,1.55,1.59,1.25,2.26,.75,2.84,.17-.4-1.96Zm-1.8,.25l-1.75,.28,.9,1.01-.25-.08-.93-.94-1.09,.14-.1-.1-.08-1.29-.91-.84-.54,.37v-.14s.47-.35,.47-.35l-.57-.55,.03-.14,.57,.53-.33-1.51,1.15,.82-.06-1.15-.69-.28,.1-.08,.6,.24,.04-.58,.14-.08-.07,.71,1.43,.54,1.19-.79,.11,.11-1.16,.76,1.62,.69-.36-1.44,.47,.19,.97,1.75-.93-.4,.21,2.39,.82-1.79,.08,.14-.21,.69,.69,.97-1.34,.19,1.66,1.54-1.69-.12-.18-1.39Z"/>
          <g class="cls-6">
            <rect class="cls-2" x="59.18" y="72.54" width="10.01" height="10.01" transform="translate(-36.08 68.62) rotate(-45.3)"/>
          </g>
        </g>
        <g>
          <polygon class="cls-2" points="62.41 76.58 63.62 75.82 62.31 75.32 62.41 76.58"/>
          <g class="cls-12">
            <rect class="cls-2" x="62.06" y="75.05" width="1.81" height="1.82" transform="translate(-35.31 67.28) rotate(-45.3)"/>
          </g>
        </g>
        <g>
          <path class="cls-2" d="M61.58,77.28c-.1,.01,.82,.79,.82,.79l-.08-1.29-.73,.5Z"/>
          <g class="cls-11">
            <rect class="cls-2" x="61.16" y="76.65" width="1.56" height="1.56" transform="translate(-36.66 66.99) rotate(-45.3)"/>
          </g>
        </g>
        <g>
          <polygon class="cls-2" points="62.45 76.7 62.51 78.22 63.8 79.37 65.7 79.12 62.45 76.7"/>
          <g class="cls-9">
            <rect class="cls-2" x="61.98" y="75.94" width="4.18" height="4.19" transform="translate(-36.46 68.69) rotate(-45.3)"/>
          </g>
        </g>
        <g>
          <path class="cls-2" d="M59.32,82.02l-1.07-1.66-1.32-1.05-1.35-.24-1.7,.77-.41,1.2,.21,1.32,1.17,1.21,2.38,.71h2.73l-.64-2.25Zm-1.18,2.06l-.06-1.15-2.07,.2,.41,.72-.19-.06-.34-.64-1.11,.06-.14-.1,1.18-.08-.8-1.03-.47,1-.1-.09,.49-.99-.73-1.02-.52,.09,.05-.16,.39-.05-.24-.37,.04-.18,.34,.52,.95-.17-1.2-.64,1.66-.06-.58-.36,.11-.06,.55,.31,.16-.42,.12,.02-.16,.46,.84,.55,1.07-.16,.14,.09,.07,.86,.92,.55,.15,.23-1-.56,.07,1.45,1.14-.09,.08,1.09-1.2-.87,.09,1.13h-.15Z"/>
          <g class="cls-10">
            <rect class="cls-2" x="52.59" y="77.52" width="8.27" height="8.28" transform="translate(-41.22 64.54) rotate(-45.3)"/>
          </g>
        </g>
        <g>
          <polygon class="cls-2" points="55.98 82.99 58.05 82.83 55.35 82.26 55.98 82.99"/>
          <g class="cls-13">
            <rect class="cls-2" x="55.49" y="81.41" width="2.42" height="2.43" transform="translate(-41.91 64.81) rotate(-45.3)"/>
          </g>
        </g>
        <g>
          <polygon class="cls-2" points="54.34 80.82 55 81.77 55.44 80.64 54.34 80.82"/>
          <g class="cls-38">
            <rect class="cls-2" x="54.11" y="80.42" width="1.57" height="1.57" transform="translate(-41.44 63.1) rotate(-45.3)"/>
          </g>
        </g>
        <g>
          <polygon class="cls-2" points="55.57 80.55 56.58 80.39 55.87 79.91 55.57 80.55"/>
          <g class="cls-43">
            <rect class="cls-2" x="55.49" y="79.65" width="1.16" height="1.16" transform="translate(-40.4 63.66) rotate(-45.3)"/>
          </g>
        </g>
        <g>
          <polygon class="cls-2" points="55.61 80.65 56.37 82.42 58.01 81.32 55.61 80.65"/>
          <g class="cls-37">
            <rect class="cls-2" x="55.34" y="80.06" width="2.94" height="2.95" transform="translate(-41.11 64.57) rotate(-45.3)"/>
          </g>
        </g>
        <g>
          <polygon class="cls-2" points="56.9 80.45 57.9 81.05 57.84 80.34 56.9 80.45"/>
          <g class="cls-36">
            <rect class="cls-2" x="56.8" y="80.09" width="1.2" height="1.21" transform="translate(-40.33 64.74) rotate(-45.3)"/>
          </g>
        </g>
        <g>
          <path class="cls-2" d="M103.06,74.64l.54,3.41,3.95-1.87,1.21-1,1.73-1.58,.81-2.54-.52-2.04-1.43-1.66-2.89,.06-1.83,1.27-1.21,2.37-.35,3.58Zm.31,.73l1.77-.6-.79-2.41-1.14,1.83,.04-.37,1.06-1.73-.58-1.14,.1-.27,1.79-.54,.83-1.46-.66-.58,.15-.1,.59,.53,.61-.93h.23l-.7,1.08,2.49-1.14-1.28,1.93,1.5-.44,.17-1.04,.12,.17-.15,.83,.75-.21,.12,.15-.89,.27-.33,2.04,1.44,1.37-.02,.15-1.46-1.32-.36,2.18,1.77-.76-.05,.15-1.73,.82-.15,1.18-.19,.12,.17-1.21-3.08,.81,.54,1.89-.17,.1-.6-1.91-1.52,2.75-.39-2.21Z"/>
          <g class="cls-35">
            <rect class="cls-2" x="100.48" y="66.02" width="13.39" height="13.37" transform="translate(-19.89 97.75) rotate(-45.3)"/>
          </g>
        </g>
        <g>
          <polygon class="cls-2" points="109.32 69.21 107.8 69.67 109.05 71.04 109.32 69.21"/>
          <g class="cls-39">
            <rect class="cls-2" x="107.38" y="68.94" width="2.37" height="2.37" transform="translate(-17.64 97.97) rotate(-45.3)"/>
          </g>
        </g>
        <g>
          <polygon class="cls-2" points="105.79 70.04 107.37 69.54 106.58 68.83 105.79 70.04"/>
          <g class="cls-41">
            <rect class="cls-2" x="105.59" y="68.45" width="1.97" height="1.97" transform="translate(-17.75 96.35) rotate(-45.3)"/>
          </g>
        </g>
        <g>
          <polygon class="cls-2" points="107.55 69.73 105.58 70.29 104.5 72.2 105.45 74.57 107.55 69.73"/>
          <g class="cls-40">
            <rect class="cls-2" x="103.23" y="69.36" width="5.59" height="5.58" transform="translate(-19.84 96.76) rotate(-45.3)"/>
          </g>
        </g>
        <g>
          <path class="cls-2" d="M112.16,80.94l2.84-.17,2.26-.75,1.59-1.25,.71-1.55-.51-2.15-1.35-.82-1.62-.07-1.72,.98-1.46,2.58-.35,1.23-.4,1.95Zm2.02-.32l-1.69,.12,1.66-1.54-1.34-.19,.69-.97-.21-.69,.08-.14,.82,1.79,.21-2.38-.93,.4,.97-1.75,.47-.19-.36,1.44,1.62-.69-1.16-.76,.11-.11,1.19,.79,1.43-.54-.07-.71,.14,.08,.04,.58,.6-.24,.1,.08-.69,.28-.06,1.15,1.15-.82-.33,1.51,.57-.53,.03,.14-.57,.56,.49,.35v.14s-.55-.37-.55-.37l-.92,.85-.08,1.29-.1,.1-1.09-.14-.93,.94-.25,.08,.9-1.01-1.75-.28-.18,1.39Z"/>
          <g class="cls-44">
            <rect class="cls-2" x="110.86" y="72.56" width="10.01" height="10.01" transform="translate(-20.77 105.36) rotate(-45.3)"/>
          </g>
        </g>
        <g>
          <polygon class="cls-2" points="116.43 75.84 117.63 76.6 117.73 75.34 116.43 75.84"/>
          <g class="cls-42">
            <rect class="cls-2" x="116.17" y="75.06" width="1.81" height="1.81" transform="translate(-19.27 105.75) rotate(-45.3)"/>
          </g>
        </g>
        <g>
          <polygon class="cls-2" points="117.59 76.71 117.54 78.23 116.25 79.39 114.35 79.14 117.59 76.71"/>
          <g class="cls-14">
            <rect class="cls-2" x="113.88" y="75.95" width="4.18" height="4.19" transform="translate(-21.08 105.58) rotate(-45.3)"/>
          </g>
        </g>
        <g>
          <path class="cls-2" d="M120.07,84.28h2.73l2.38-.71,1.18-1.21,.21-1.32-.41-1.2-1.71-.77-1.35,.24-1.32,1.05-1.07,1.66-.65,2.25Zm1.68-.2l.09-1.13-1.2,.87,.08-1.09,1.14,.09,.07-1.45-1,.56,.15-.23,.91-.55,.07-.86,.14-.09,1.07,.16,.84-.55-.16-.46,.12-.02,.16,.42,.55-.31,.11,.06-.58,.36,1.66,.06-1.2,.64,.95,.17,.34-.52,.04,.18-.24,.37,.39,.05,.05,.16-.52-.09-.73,1.02,.49,.99-.1,.09-.47-1-.8,1.03,1.17,.08-.13,.1-1.11-.06-.34,.64-.19,.06,.41-.72-2.07-.2-.06,1.16h-.15Z"/>
          <g class="cls-15">
            <rect class="cls-2" x="119.19" y="77.54" width="8.27" height="8.28" transform="translate(-21.48 111.88) rotate(-45.3)"/>
          </g>
        </g>
        <g>
          <polygon class="cls-2" points="122 82.84 124.07 83.01 124.69 82.27 122 82.84"/>
          <g class="cls-18">
            <rect class="cls-2" x="122.13" y="81.42" width="2.42" height="2.43" transform="translate(-22.16 112.18) rotate(-45.3)"/>
          </g>
        </g>
        <g>
          <polygon class="cls-2" points="125.05 81.78 125.7 80.83 124.61 80.66 125.05 81.78"/>
          <g class="cls-17">
            <rect class="cls-2" x="124.37" y="80.44" width="1.57" height="1.57" transform="translate(-20.61 113.05) rotate(-45.3)"/>
          </g>
        </g>
        <g>
          <polygon class="cls-2" points="123.46 80.41 124.47 80.56 124.17 79.93 123.46 80.41"/>
          <g class="cls-16">
            <rect class="cls-2" x="123.39" y="79.67" width="1.16" height="1.16" transform="translate(-20.27 111.92) rotate(-45.3)"/>
          </g>
        </g>
        <g>
          <polygon class="cls-2" points="124.43 80.67 123.67 82.44 122.03 81.33 124.43 80.67"/>
          <g class="cls-19">
            <rect class="cls-2" x="121.76" y="80.08" width="2.94" height="2.95" transform="translate(-21.42 111.78) rotate(-45.3)"/>
          </g>
        </g>
        <g>
          <polygon class="cls-2" points="122.14 81.06 123.14 80.46 122.21 80.36 122.14 81.06"/>
          <g class="cls-23">
            <rect class="cls-2" x="122.04" y="80.11" width="1.21" height="1.21" transform="translate(-20.99 111.11) rotate(-45.3)"/>
          </g>
        </g>
        <g>
          <path class="cls-2" d="M91.14,62.15c-.52,0-1.04,.03-1.56,.07-.44,.03-.89,.08-1.33,.16-1.27,.25-2.48,.67-3.59,1.36-.83,.51-1.49,1.18-1.95,2.04-.62,1.18-.7,2.44-.49,3.71,.21,1.25,.88,2.26,1.85,3.04,1.02,.82,2.22,1.31,3.48,1.61,.57,.14,1.15,.21,1.73,.29,.51,.07,1.03,.14,1.55,.13,.54,0,1.09-.03,1.61-.15,1.25-.26,2.5-.59,3.73-.88,.37-1.28,.73-2.5,1.08-3.72-.02,0-.04-.02-.06-.03-.17,.32-.32,.64-.5,.94-.62,1.01-1.46,1.79-2.5,2.33-1,.52-2.1,.73-3.22,.78-.44,.02-.89-.06-1.33-.14-1.53-.26-2.65-1.09-3.36-2.46-.32-.62-.52-1.27-.65-1.96-.12-.6-.13-1.19-.03-1.78,.13-.8,.39-1.57,.8-2.27,.53-.92,1.27-1.61,2.26-1.99,1.3-.51,2.65-.46,3.99-.18,.7,.15,1.36,.42,1.97,.81,.81,.52,1.51,1.16,2,1.99,.21,.35,.39,.71,.62,1.13-.01-.13-.01-.2-.03-.26-.32-1.12-.63-2.25-.97-3.37-.03-.09-.14-.19-.24-.22-.84-.24-1.68-.49-2.53-.69-.76-.19-1.54-.31-2.33-.31Z"/>
          <g class="cls-21">
            <rect class="cls-2" x="79.87" y="58.58" width="19.54" height="19.57" transform="translate(-22 83.99) rotate(-45.3)"/>
          </g>
        </g>
        <g>
          <path class="cls-2" d="M60.94,89s16.33-3.1,29.53-3.1,29.56,3.1,29.56,3.1l-29.48-6.88-29.61,6.88Z"/>
          <g class="cls-22">
            <rect class="cls-2" x="67.25" y="62.14" width="46.45" height="46.84" transform="translate(-33.98 89.69) rotate(-45.3)"/>
          </g>
        </g>
        <g>
          <path class="cls-2" d="M32.58,102.78c0,4.93,6.02,5.77,8.2,5.77s3.92-.64,4.73-.84c.81-.2,.93,1,.93,1l.77-5.01s-1.54,4.24-6.38,4.24-5.09-4.76-5.09-5.16,.2-5.33,5.05-5.33,6.26,4.45,6.26,4.45l-.53-4.75c-.32,1.02-1.29,.58-1.29,.58,0,0-2.22-.84-4.44-.84s-8.2,.96-8.2,5.89"/>
          <g class="cls-24">
            <rect class="cls-2" x="30.55" y="93.45" width="18.69" height="18.71" transform="translate(-61.24 58.84) rotate(-45.3)"/>
          </g>
        </g>
        <g>
          <path class="cls-2" d="M59.48,97.15c1.41,0,1.57,1.54,1.57,1.54v3.52h-7.55v-3.72c0-.96,1.62-1.34,1.62-1.34h-6.1c1.5,0,1.53,1.46,1.53,1.46v8.37c0,1.08-1.57,1.28-1.57,1.28h6.02c-1.45,0-1.54-1.36-1.54-1.36v-4.13h7.55v4.21c0,.84-1.53,1.28-1.53,1.28h6.02c-1.37,0-1.53-1.32-1.53-1.32v-8.25c0-.96,1.53-1.54,1.53-1.54h-6.02Z"/>
          <g class="cls-32">
            <rect class="cls-2" x="47.47" y="92.93" width="19.52" height="19.56" transform="translate(-56.03 71.15) rotate(-45.3)"/>
          </g>
        </g>
        <g>
          <path class="cls-2" d="M73.25,98.82l2.66,5.37h-5.29l2.63-5.37Zm0-1.66s-3.88,7.83-4.69,9.32c-.81,1.48-2.38,1.8-2.38,1.8h5.09c-2.63,0-1.94-1.68-1.94-1.68l1.01-1.84h5.9s.53,1.16,.89,2c.36,.84-1.66,1.52-1.66,1.52h7.23c-1.17,0-2.18-1.48-2.18-1.48l-4.93-9.64h-2.34Z"/>
          <g class="cls-34">
            <rect class="cls-2" x="64.68" y="92.93" width="19.52" height="19.56" transform="translate(-50.93 83.38) rotate(-45.3)"/>
          </g>
        </g>
        <g>
          <path class="cls-2" d="M93.29,97.15s1.62,.1,1.7,1.38v6.25s.08,3.12-4.36,3.12-4.2-3.09-4.2-3.09v-6.21s0-1.46,1.58-1.46h-6.1s1.62,.54,1.62,1.46v5.73s-.08,4.33,6.18,4.33,5.94-3.85,5.94-3.85v-6.21s.12-1.46,1.66-1.46h-4Z"/>
          <g class="cls-31">
            <rect class="cls-2" x="80.08" y="93.39" width="19.01" height="19.04" transform="translate(-46.58 94.21) rotate(-45.3)"/>
          </g>
        </g>
        <g>
          <path class="cls-2" d="M112.35,97.15l-4.85,7.99-4.8-7.99h-4.44c1.62,.3,1.62,1.26,1.62,1.26v8.49c-.04,1.16-1.82,1.36-1.82,1.36h4.08c-1.41,0-1.53-1.4-1.53-1.4v-7.73l5.61,9.54,5.66-9.57v7.81c0,1.08-1.49,1.36-1.49,1.36h6.14c-1.66,0-1.66-1.36-1.66-1.36v-8.41c0-1.04,1.58-1.34,1.58-1.34h-4.08Z"/>
          <g class="cls-30">
            <rect class="cls-2" x="96.7" y="92.3" width="21.17" height="21.22" transform="translate(-41.33 106.78) rotate(-45.3)"/>
          </g>
        </g>
        <g>
          <path class="cls-2" d="M118.37,97.15c1.29,0,1.53,1.42,1.53,1.42v8.37c0,.96-1.7,1.32-1.7,1.32h12.08l.77-3.57c-.65,2.96-4.04,3-4.04,3h-4.12v-4.93h3.07c1.29,0,1.78,2.16,1.78,2.16v-4.93c0,2.04-1.78,2.24-1.78,2.24h-3.03v-4.57h3.8c2.38,.2,3.63,3.12,3.63,3.12l-.89-3.67h-11.11Z"/>
          <g class="cls-25">
            <rect class="cls-2" x="116.16" y="94.24" width="16.94" height="16.95" transform="translate(-36.04 119.05) rotate(-45.3)"/>
          </g>
        </g>
        <g>
          <path class="cls-2" d="M132.59,97.15l-.65,4.27c1.21-3.72,2.83-3.72,2.83-3.72h3.11v9.29c0,.88-1.7,1.28-1.7,1.28h6.3c-1.65,0-1.7-1.36-1.7-1.36v-9.21h3.23c1.41,.2,2.79,3.76,2.79,3.76l-.73-4.31h-13.49Z"/>
          <g class="cls-26">
            <rect class="cls-2" x="130.19" y="93.52" width="18.36" height="18.39" transform="translate(-31.67 129.53) rotate(-45.3)"/>
          </g>
        </g>
        <g>
          <path class="cls-2" d="M77.2,112.51h1.86c.55,0,.82,.32,.82,.78,0,.48-.24,.87-.95,.87h-1.73v-1.64Zm-.72-.62v4.8h.72v-1.92h1.83c1.02,0,1.57-.6,1.57-1.5s-.56-1.38-1.62-1.38h-2.5Z"/>
          <g class="cls-27">
            <rect class="cls-2" x="75.39" y="111.14" width="6.31" height="6.3" transform="translate(-57.95 89.73) rotate(-45.3)"/>
          </g>
        </g>
        <g>
          <path class="cls-2" d="M83.78,112.55l.93,2.12h-1.84l.91-2.12Zm-.38-.66l-2.19,4.8h.77l.62-1.4h2.37l.62,1.4h.82l-2.19-4.8h-.82Z"/>
          <g class="cls-28">
            <rect class="cls-2" x="80.27" y="110.76" width="7.07" height="7.07" transform="translate(-56.38 93.47) rotate(-45.3)"/>
          </g>
        </g>
        <g>
          <path class="cls-2" d="M88.74,112.51h2.03c.58,0,.85,.31,.85,.77,0,.34-.17,.76-.87,.76h-2.01v-1.53Zm-.72-.62v4.8h.72v-2.04h1.88c.6,0,.89,.26,.94,1.12,.03,.58,.03,.78,.15,.91h.76c-.16-.19-.19-.41-.23-1.3-.03-.57-.28-.96-.71-1.02h0c.53-.18,.81-.61,.81-1.2s-.35-1.28-1.32-1.28h-3Z"/>
          <g class="cls-33">
            <rect class="cls-2" x="86.97" y="111.03" width="6.54" height="6.53" transform="translate(-54.48 98.04) rotate(-45.3)"/>
          </g>
        </g>
        <g>
          <rect class="cls-2" x="94.62" y="111.89" width=".72" height="4.8"/>
          <g class="cls-29">
            <rect class="cls-2" x="93.02" y="112.35" width="3.92" height="3.89" transform="translate(-53.07 101.42) rotate(-45.3)"/>
          </g>
        </g>
        <g>
          <path class="cls-2" d="M97.61,113.23c0,.93,.86,1.16,1.44,1.26l1.1,.18c.55,.1,.9,.28,.9,.71,0,.52-.54,.81-1.31,.81s-1.54-.22-1.56-1.08h-.72c0,1.32,1.13,1.7,2.22,1.7,.98,0,2.08-.35,2.08-1.57,0-.98-1.08-1.16-1.46-1.23l-1.19-.2c-.6-.1-.79-.34-.79-.63,0-.57,.6-.79,1.12-.79,1.16,0,1.38,.51,1.44,.89h.72c-.07-1.16-1.09-1.51-2.06-1.51-1.24,0-1.94,.59-1.94,1.46"/>
          <g class="cls-20">
            <rect class="cls-2" x="96.3" y="110.99" width="6.61" height="6.61" transform="translate(-51.7 104.7) rotate(-45.3)"/>
          </g>
        </g>
      </g>
    </g>
  </g>
</svg>