<?xml version="1.0" encoding="UTF-8"?>
<svg id="Layer_2" data-name="Layer 2" xmlns="http://www.w3.org/2000/svg" viewBox="0 0 181.02 181.22">
  <defs>
    <style>
      .cls-1 {
        fill: #fff;
      }

      .cls-2 {
        fill: #171726;
      }

      .cls-3 {
        fill: #1f1c2f;
      }
    </style>
  </defs>
  <g id="DIGITAL_STRATEGY" data-name="DIGITAL STRATEGY">
    <g>
      <g>
        <path class="cls-3" d="M181.02,21.4V90.61H0V21.4C0,9.58,9.59,0,21.41,0H159.62c11.82,0,21.4,9.58,21.4,21.4Z"/>
        <path class="cls-2" d="M0,159.82V90.61H181.02v69.21c0,11.82-9.59,21.4-21.41,21.4H21.4c-11.82,0-21.4-9.58-21.4-21.4Z"/>
      </g>
      <g>
        <path class="cls-1" d="M53.28,80.08c-.1,0-.18,0-.25-.01-.03,0-.06-.02-.08-.03-.23-.21-.44-.45-.51-.52-.03-.03-.04-.07-.04-.11,0-.04,.03-.08,.06-.1,.21-.13,.47-.36,.62-.53-.58-.12-1.99-.38-2-.38h0s-.08-.03-.09-.07c-.02-.04-.02-.08,0-.12l.31-.77c.03-.07,.1-.1,.17-.08,.4,.14,1.1,.39,1.5,.53-.12-.22-.27-.51-.38-.72-.02-.04-.02-.09,0-.13,.02-.04,.06-.07,.1-.08l.8-.13h0c.07,0,.12,.03,.14,.07,0,.01,.4,.91,.61,1.43,.16,.03,.52,.13,.77,.38,.23,.23,.35,.73,.35,.74,.01,.06-.01,.12-.07,.15-.67,.36-1.48,.49-2.01,.49"/>
        <path class="cls-1" d="M56.21,79.06s-.1-.03-.12-.07h0c-.2-.35-.9-1.54-1.66-2.56-.03-.04-.04-.09-.02-.14,.02-.05,.06-.08,.11-.08l.8-.07c.05-.02,.1,.02,.13,.06,.01,.02,1.41,2.25,1.64,2.53,.03,.04,.04,.09,.02,.14-.02,.05-.06,.08-.11,.08-.17,.02-.76,.11-.77,.11,0,0-.01,0-.02,0"/>
        <path class="cls-1" d="M54.61,82.1c-.05,0-.1-.03-.12-.07l-.17-.3s0-.02-.01-.03c-.03-.05-.06-.1-.05-.15,0-.02,.01-.03,.03-.04l.12-.05c-.12-.07-.29-.22-.35-.32-.08-.13-.09-.27-.04-.41,.11-.25,.35-.38,.69-.38,.17,0,.31,.03,.33,.04,.03,0,.06,.03,.08,.06l.19,.29c.02,.05,.02,.11,0,.15-.03,.04-.08,.04-.13,.04-.28-.06-.36,0-.39,.01,0,0-.01,.01-.01,.02,0,.03,.02,.06,.05,.08,.09,.07,.28,.09,.41,.05l.41-.14c.07-.01,.13,0,.16,.05l.23,.34s.03,.06,.02,.11c0,.03-.03,.07-.09,.1-.07,.02-.84,.34-1.3,.53-.02,0-.04,.01-.06,.01"/>
        <path class="cls-1" d="M61.03,79.1c-.55,0-1.04-.06-1.23-.09h-.01c-.14-.02-1.39-.21-1.4-.84-.01-.6,.52-.96,.54-.97,.03-.02,.05-.02,.08-.02h.02c.37,.03,.51,.05,.57,.05,.02,0,.04,.02,.06,.04,.02,.03,.02,.08,.01,.11-.02,.06-.06,.14-.09,.21-.04,.09-.12,.24-.1,.27,.13,.16,1.37,.31,2.31,.28,.02-.17,.05-.48,.06-.73,0-.07,.06-.13,.14-.13h.8s.07,.01,.1,.04c.02,.02,.04,.06,.04,.1,0,.61-.46,1.29-.63,1.5-.02,.02-.04,.04-.06,.04-.31,.1-.71,.15-1.2,.15"/>
        <path class="cls-1" d="M61.12,76.98s-.09-.02-.12-.05l-.26-.28-.58,.27c-.06,.03-.14,.01-.19-.04l-.39-.46s-.05-.09-.03-.14c.01-.05,.05-.09,.09-.11l.75-.32c.06-.03,.13-.01,.18,.03l.27,.26,.53-.23c.07-.03,.14,0,.19,.04l.4,.47s.05,.09,.03,.14c-.01,.05-.05,.09-.1,.11l-.72,.29s-.04,.01-.06,.01"/>
        <path class="cls-1" d="M63.85,81.91c-.06,0-.09,0-.09,0-.05,0-.1-.04-.12-.08,0,0-.3-.7-.39-.89-.02-.04-.02-.09,0-.13,.02-.04,.07-.06,.11-.07,1.36-.04,1.43-.07,1.52-.27,.08-.18-.01-.68-.1-.98-.01-.05,0-.1,.03-.13,.03-.04,.08-.04,.12-.05l.89,.14c.05,0,.09,.04,.11,.09,.08,.24,0,1.18-.37,1.63-.5,.68-1.45,.73-1.72,.73"/>
        <path class="cls-1" d="M63.61,79.88s-.04,0-.05-.01c-.2-.09-.61-.26-.71-.29-.04-.01-.07-.04-.08-.08-.01-.04-.01-.08,0-.11,.06-.11,.61-1.04,.83-1.34,.21-.29,.82-1.28,.82-1.29,.04-.06,.11-.08,.18-.05l.75,.37c.07,.03,.09,.11,.07,.18-.11,.25-1.68,2.55-1.69,2.58-.02,.04-.07,.06-.11,.06"/>
        <path class="cls-1" d="M58.53,98.87c-5.71,0-10.39-4.58-10.5-10.44-.04-1.88,.33-3.67,1.24-5.15,0-.01,.91-1.23,1.06-1.52-.07-.25-.24-1.04,.03-1.62,.21-.37,.49-.59,.78-.62,.2-.02,.49,.04,.79,.43,.26,.33,.46,.92,.3,1.44-.16,.51-.64,.84-1.02,.87,.02,.45-.32,.83-.89,1.67-.91,1.48-1.21,2.89-1.21,4.74,0,5.08,4.33,8.95,9.41,8.95s9.5-4.14,9.5-9.14c0-1.63-.47-3.94-1.84-5.86-.18-.26-.32-.59,.17-1.6,.54-1.12,1.05-2.07,1.05-2.08,.02-.04,.06-.07,.11-.07,.05,0,.09,.01,.12,.05l.61,.79s.04,.11,0,.15c-.56,.95-1.02,1.83-1.03,1.96,1.5,2.37,1.76,4.73,1.76,6.57,0,5.77-4.69,10.46-10.46,10.46"/>
        <path class="cls-1" d="M31.8,107.81s-.07-.01-.1-.04l-.65-.64s-.05-.08-.04-.13c0-.04,.04-.08,.08-.1l2.83-1.16c.05-.02,.11,0,.15,.03l.49,.53s.04,.08,.03,.12c0,.04-.04,.08-.08,.1l-2.67,1.27s-.04,.01-.06,.01"/>
        <path class="cls-1" d="M91.14,93.11s-.1-.02-.13-.06l-.38-.48c-.04-.05-.05-.12-.02-.17l.31-.62-.26-.38c-.04-.06-.04-.13,0-.19l.55-.73s.08-.05,.12-.06h.02s0,0,0,0c.05,0,.1,.03,.13,.08l.31,.52c.03,.05,.03,.12,0,.18l-.35,.48,.27,.38c.04,.05,.04,.12,.01,.17l-.44,.79s-.07,.08-.13,.08h-.01Z"/>
        <path class="cls-1" d="M32.03,104.93c-.59,0-1.1-.41-1.2-.49-.02-.01-.03-.03-.04-.05-.03-.06-.67-1.43,.18-1.89,.52-.29,1-.13,1.35,.44v.02s.62,.96,.44,1.53c-.06,.17-.17,.3-.35,.36-.13,.05-.26,.07-.4,.07"/>
        <path class="cls-1" d="M29.84,105.48c-.05,0-.1-.03-.13-.07l-.41-.7s-.02-.07-.01-.11l.13-.5-.45-.44s-.06-.11-.03-.17l.28-.62s.06-.08,.11-.09c.06,0,.1,.01,.13,.04l.6,.61s.05,.09,.04,.15l-.16,.55,.29,.48s.03,.09,.01,.13l-.25,.65c-.02,.05-.07,.09-.13,.1h-.01Z"/>
        <path class="cls-1" d="M55.16,70.62s-.05,0-.07-.02l-.73-.4s-.06-.06-.07-.1c0-.04,0-.08,.04-.11l.4-.43s.11-.06,.16-.03l.48,.25,.21-.29c.04-.05,.11-.07,.17-.04l.76,.35s.07,.05,.08,.09c0,.04,0,.08-.02,.12l-.36,.47c-.04,.05-.11,.07-.17,.04l-.55-.26-.22,.3s-.07,.06-.11,.06"/>
        <path class="cls-1" d="M35.7,84.39s-.03,0-.05,0c-.04-.01-.07-.05-.09-.09l-.26-.87c-.02-.06,0-.12,.06-.15l.49-.32-.2-.7c-.02-.05,0-.11,.05-.15l.52-.41s.09-.04,.13-.02c.04,.01,.07,.05,.09,.09l.25,.84c.02,.06,0,.12-.05,.15l-.35,.24,.23,.72c.02,.06,0,.12-.05,.15l-.69,.5s-.05,.03-.08,.03"/>
        <path class="cls-1" d="M37.09,85.34c-.21-.22-.31-.58-.24-1.01l.2-.88s.04-.08,.07-.09c.27-.13,1.08-.55,1.25-.75,0,0,.02-.03,.08-.18,1.04-3.67,3.07-6.99,5.88-9.6,2.6-2.41,5.79-4.13,9.23-4.96,.45-.12,1.74-.33,2-.37,.09-.18,.18-.61,.21-.85,0-.07,.07-.12,.13-.12l.83-.02s.07,.01,.1,.04c.03,.03,.04,.07,.04,.11,0,.02-.03,.42-.11,.73,.36-.03,1.64-.03,1.7-.03,4.72,.02,9.14,1.52,12.77,4.34,.13,.1,.33,.23,.41,.25,.04-.03,.17-.28,.44-.86,0,0,0-.02,0-.02,.01-.03,.04-.06,.08-.07,.04-.01,.08,0,.11,0l.84,.4s.06,.05,.07,.09c0,.04,0,.08-.02,.11-.01,.02-1.25,1.71-1.8,1.71-.01,0-.02,0-.03,0-.07,0-.44-.29-1.06-.78-.09-.07-.16-.12-.2-.16-3.33-2.46-7.35-3.77-11.61-3.79-.01,0-1.43,.02-1.63,.02-.33,0-.55-.03-.71-.09-.18,.17-.98,.31-1.63,.43-.26,.05-.49,.09-.63,.12-3.62,.89-6.6,2.43-8.86,4.57-1.39,1.32-2.51,3.07-3.33,4.45-.85,1.43-1.39,2.86-1.76,3.94-.17,.68-.34,.95-.86,1.32-.01,.98-.38,1.81-1.3,2.09-.14,.04-.5,.04-.64-.11"/>
        <path class="cls-1" d="M35.41,88.8s-.06,0-.08-.03c-.04-.03-.06-.08-.06-.13l.1-.98c0-.05,.04-.1,.09-.11l3.21-1.2s.09-.01,.13,.02c.04,.03,.06,.07,.06,.12l-.05,.88c0,.05-.03,.1-.08,.12l-3.26,1.3s-.04,.01-.05,.01"/>
        <path class="cls-1" d="M64.48,109.79h0s-.02,0-.03,0c-.34-.07-.58-.23-.71-.48-.14-.25-.08-.66-.05-.86-.43,.09-3.77,.64-5.19,.64-5.15,0-10.12-1.94-14.15-5.7-3.84-3.58-5.9-7.68-6.38-12.51l-.11-1.2s0-.02-.02-.03c-.01,0-.02,0-.03,0l-2.07,1.02s-.09,.02-.13,0c-.04-.02-.07-.06-.07-.11l-.07-.91c0-.06,.03-.11,.08-.14,0,0,.05-.02,.13-.06,1.4-.63,2.38-1.06,2.91-1.29h.04c.11-.06,.21-.09,.26-.02,.06,.08,.15,.9,.25,1.88l.02,.23c.53,5.14,2.54,9.16,5.97,12.37,3.69,3.45,8.44,5.35,13.35,5.35,.63,0,1.99-.2,3.18-.38,1.23-.18,2.29-.34,2.54-.29,.25-.45,1.63-.89,1.79-.94,3.54-1.37,6.38-3.62,8.67-6.88,2.51-3.56,3.83-7.41,3.83-11.11,0-4.28-1.49-8.32-4.61-12.07,0,0,0-.02,0-.02-.16-.2-.31-.38-.57-.61-.78,.66-1.57,.15-1.79-.02-.04-.03-.06-.07-.05-.12,0,0,.04-.79,.09-1.19,0-.05,.04-.09,.08-.11,.04-.02,.09-.02,.13,.01,.41,.28,.76,.42,1.03,.39,.17-.02,.26-.11,.3-.17,.13-.19,.2-.91,.21-1.32,0-.06,.04-.11,.1-.13,.05-.02,.11,0,.15,.05l.58,.8s.03,.08,.02,.12l-.18,.56c.35,.32,1.04,1.16,1.04,1.16,2.98,3.69,4.4,7.93,4.4,12.65,0,4.27-1.29,8.36-3.73,11.83-2.3,3.27-5.49,5.81-9.22,7.33-.07,.04-.46,.22-.94,.37,.11,.04,.45,.15,.61,.21,0,0,.01,0,.01,0,.03,0,.05,.03,.07,.06,.07,.11,.22,.37,.33,.62,.02,.06,0,.13-.05,.17-.04,.03-.09,.06-.15,.11-.33,.25-1.03,.67-1.87,.71h0Z"/>
        <path class="cls-1" d="M69.77,73.9s-.08-.02-.11-.05l-.49-.64s-.03-.08-.02-.12c.01-.04,.04-.07,.08-.09l.51-.23c.05-.03,.13-.01,.17,.04l.48,.62s.04,.08,.03,.12c0,.04-.04,.07-.07,.09l-.5,.25s-.04,.01-.06,.01"/>
        <path class="cls-1" d="M90.13,92.72s-.42-.3-.71-.52c0-.04,.01-.17,.02-.34,.06-.82,.19-2.75,.19-3.54,0-17.11-13.92-31.04-31.04-31.04-2.35,0-4.52,.22-6.64,.69h0c-.15,.04-.36,.06-.59,.08,.11-.12,.21-.24,.26-.3,.02-.02,.03-.05,.03-.08v-.88s-.03-.09-.07-.12c-.04-.03-.09-.03-.13,0,0,0-.56,.25-.83,.3-.07,.01-.17,.03-.28,.04-.39,.05-.93,.12-1.22,.3-.47,.28-.6,.79-.63,1.2,0,.09,.08,.15,.16,.12l.52-.19c.07-.03,.13-.09,.15-.16,.02-.06,.06-.12,.09-.15,.13-.13,.71-.08,.91-.16-.14,.34-1.07,.67-1.07,.67,0,0-1.53,.58-1.54,.59-5.93,2.21-10.99,6.14-14.61,11.37-3.63,5.24-5.55,11.37-5.55,17.73,0,3.41,.38,6.32,1.48,9.54,0,.02,.02,.09,.13,.45,.06,.21,.15,.49,.24,.8,.04,.15-.4,.98-.96,1.81-.02,.03-.03,.07-.02,.11,0,.04,.03,.07,.06,.09h.01c.32,.2,.57,.32,.72,.4,.06,.03,.13,0,.17-.04,.15-.19,.42-.54,.73-1.16,.38,.53,.6,1.25,.61,1.28,.01,.04,.04,.08,.09,.09,.05,.02,.08,0,.12-.01h0s0,0,0,0c.05-.04,.45-.3,.67-.44,.04-.02,.07-.07,.07-.12-.03-.86-.41-1.47-1.14-1.8,.17-.4-.12-1.22-.13-1.26-.09-.34-.19-.67-.28-.99-1.05-3.7-1.6-5.84-1.63-8.73-.12-12.34,8.09-23.85,20.13-28.11h0s0,0,0,0c.81-.34,1.43-.75,1.88-1.25,.08,.15,.19,.33,.33,.4,.02,0,.03,.01,.04,.01,.22,.03,.6-.01,1.2-.15h.04s.04-.01,.06-.02l.5-.11c1.88-.42,3.82-.86,5.91-.86,7.93,0,15.4,3.16,21.05,8.89,5.63,5.71,8.74,13.25,8.74,21.21,0,.29-.04,.76-.08,1.26-.09,1.18-.2,2.5,.03,2.83-.26,.29-.36,.83-.42,1.19,0,.05-.02,.09-.02,.13-1.31,6.77-4.86,12.91-9.99,17.28-5.53,4.71-12.53,7.29-19.47,7.29-7.39,0-14.18-2.51-20.04-8.1h0s0,0,0,0c-.07-.08-.69-.73-1.03-.6-.06-.72-.56-.99-.99-1,.02-.54-.31-.9-.51-1.12l-.03-.04c-.39-.43-.79-.46-.91-.46h0s-.05,.01-.07,.03l-2.38,1.67s-.05,.06-.06,.09c0,.04,0,.07,.03,.11l.57,.71c.05,.06,.13,.07,.19,.02l1.8-1.38c.12,.12,.31,.35,.34,.58,.02,.15-.06,.3-.15,.46-.1,.18-.21,.39-.21,.64,0,.52,.42,.85,.83,.91,.25,.04,.58-.06,.9-.17h.04c.08-.04,.15-.07,.21-.08,.06,.02,.22,.14,.65,.58,.01,.01,.02,.02,.02,.02h0c5.79,5.49,13,8.18,20.99,8.18,7.11,0,13.98-2.65,19.86-7.65,5.65-4.81,9.32-10.86,10.61-17.48h0s0-.01,0-.01c0-.03,.04-.25,.08-.46,.03-.15,.05-.29,.06-.36,.26,.18,.58,.38,.58,.38,.04,.02,.09,.03,.13,.01,.04-.02,.07-.05,.08-.1,0,0,.15-.67,.18-.8,.01-.05,0-.11-.06-.14"/>
        <path class="cls-1" d="M97.74,91.81v5.28c-.01,1.36,.43,2.01,1.76,2.01,1.34,0,1.78-.65,1.78-2.01v-5.05s2.27-.23,2.27-.23v5.78c-.01,1.77-1.23,3.34-4.05,3.33-2.82,0-4.03-1.6-4.03-3.35v-5.55s2.27-.23,2.27-.23Z"/>
        <path class="cls-1" d="M110.94,99.18h-3.64s-.6,1.64-.6,1.64h-2.32s3.45-8.82,3.45-8.82l2.69-.23,3.31,8.94-2.27,.23-.61-1.76Zm-.64-1.83l-1.16-3.29-1.19,3.29h2.35Z"/>
        <polygon class="cls-1" points="115.32 91.96 121.7 91.97 121.7 93.8 117.58 93.79 117.57 95.4 121.2 95.41 121.43 97.24 117.57 97.23 117.57 99.01 121.82 99.01 121.82 100.84 115.31 100.83 115.32 91.96"/>
        <path class="cls-1" d="M103.03,108.66c0,1.81-1.34,3.02-3.63,3.02h-1.7s0,2.81,0,2.81h-2.26s.02-8.88,.02-8.88h3.95c2.3,.01,3.63,1.23,3.62,3.04m-2.32,0c0-.72-.52-1.2-1.41-1.2h-1.59s0,2.4,0,2.4h1.59c.89,0,1.41-.49,1.41-1.19"/>
        <path class="cls-1" d="M108.9,112.87h-3.64s-.6,1.64-.6,1.64h-2.32s3.45-8.82,3.45-8.82l2.69-.23,3.31,8.94-2.27,.23-.61-1.76Zm-.64-1.83l-1.16-3.29-1.19,3.29h2.35Z"/>
        <polygon class="cls-1" points="113.12 105.53 115.5 112.41 117.9 105.66 120.19 105.66 116.78 114.59 114.08 114.59 110.86 105.76 113.12 105.53"/>
        <polygon class="cls-1" points="121.48 114.54 121.5 105.78 123.75 105.55 123.74 114.54 121.48 114.54"/>
        <polygon class="cls-1" points="125.62 105.79 127.88 105.56 127.87 112.72 132.02 112.73 132.26 114.56 125.61 114.54 125.62 105.79"/>
        <polygon class="cls-1" points="133.97 114.56 133.99 105.8 136.25 105.57 136.23 114.56 133.97 114.56"/>
        <path class="cls-1" d="M137.76,110.13c0-2.48,1.67-4.56,4.81-4.56,3.13,0,4.79,2.1,4.78,4.58,0,2.5-1.67,4.56-4.8,4.56-3.14,0-4.8-2.07-4.79-4.58m2.31,0c0,1.6,.82,2.74,2.47,2.74,1.67,0,2.48-1.13,2.48-2.73,0-1.61-.8-2.74-2.47-2.74-1.66,0-2.48,1.13-2.48,2.74"/>
        <polygon class="cls-1" points="150.89 114.59 148.86 114.58 148.87 105.71 151.08 105.72 155 111.1 155.01 105.84 157.04 105.61 157.03 114.6 154.82 114.6 150.9 109.11 150.89 114.59"/>
      </g>
    </g>
  </g>
</svg>