<?xml version="1.0" encoding="UTF-8"?>
<svg id="Layer_2" data-name="Layer 2" xmlns="http://www.w3.org/2000/svg" viewBox="0 0 181.02 181.22">
  <defs>
    <style>
      .cls-1 {
        fill: #171726;
      }

      .cls-2 {
        fill: #1f1c2f;
      }

      .cls-3 {
        fill: #fff;
        fill-rule: evenodd;
      }
    </style>
  </defs>
  <g id="DIGITAL_STRATEGY" data-name="DIGITAL STRATEGY">
    <g>
      <g>
        <path class="cls-2" d="M181.02,21.4V90.61H0V21.4C0,9.58,9.59,0,21.41,0H159.62c11.82,0,21.4,9.58,21.4,21.4Z"/>
        <path class="cls-1" d="M0,159.82V90.61H181.02v69.21c0,11.82-9.59,21.4-21.41,21.4H21.4c-11.82,0-21.4-9.58-21.4-21.4Z"/>
      </g>
      <path class="cls-3" d="M133.09,71.96c-23.52-2.37-57.88,2.76-81.81,12.56l-1.43,.62c.44-.02,.74,0,.74,0,3.98,.11,3.74,2.62,3.74,2.62v1.53s-3.17,0-3.17,0v-1.04c0-.74-.89-.79-.89-.79-.68,0-.84,.47-.84,.47-.38,.71,.27,1.33,.27,1.33,.33,.37,1.98,1.15,1.98,1.15,.53,.21,1.4,.75,1.4,.75,1.62,.99,1.47,2.86,1.47,2.86v1.23c-.19,3.05-4.35,2.97-4.35,2.97-4.35,0-4.25-2.89-4.25-2.89v-1.51h3.38v1.04c0,.89,.85,.93,.85,.93,.92,.04,1-.87,1-.87,.13-.88-.83-1.43-.83-1.43-.95-.49-2.53-1.36-2.53-1.36-.78-.52-1.09-.99-1.09-.99-.56-.71-.52-1.82-.52-1.82v-.96c0-1.33,.35-1.71,.35-1.71,0,0,.01-.02,.02-.03-23.43,11.11-20.75,22.65,1.07,24.8,23.86,2.34,59.89-2.31,84.11-13.29-.08,0-.14,.02-.22,.02,0,0-4.1,.34-4.19-3.01v-6.48s-.51-3.57,4.08-3.57c0,0,2.99-.1,3.78,1.7,0,0,.39,.48,.29,2.47h-3.18v-1.02s0-.82-.83-.82c0,0-.86,.04-.86,.73v6.7s-.04,.9,.94,.9c0,0,.8-.02,.8-.96v-1.94h-.87v-1.8h4.09v3.81s-.01,.8-.34,1.27c0,0-.24,.37-.39,.53l1.33-.68c21.45-11.15,18.76-21.8-3.06-24h0Zm-69.31,25.83l-1.24-9.49h-.28l-1.24,9.49h-3.38l2.09-12.23h5.34l2.09,12.23h-3.38Zm17.09,.01l-.08-9.22h-.22l-1.64,9.22h-3.3l-1.67-9.22h-.25l-.04,9.22h-3.14l.26-12.24h5.31l1.02,6.7h.25l1.06-6.7h5.25l.34,12.24h-3.16Zm15.56-3.78v1.23c-.19,3.05-4.35,2.97-4.35,2.97-4.35,0-4.25-2.89-4.25-2.89v-1.51h3.38v1.04c0,.89,.85,.93,.85,.93,.92,.04,1-.87,1-.87,.13-.88-.83-1.43-.83-1.43-.95-.49-2.53-1.36-2.53-1.36-.78-.52-1.09-.99-1.09-.99-.56-.71-.52-1.82-.52-1.82v-.96c0-1.33,.35-1.71,.35-1.71,.9-1.71,4.03-1.5,4.03-1.5,3.98,.11,3.74,2.62,3.74,2.62v1.53s-3.17,0-3.17,0v-1.04c0-.74-.89-.79-.89-.79-.68,0-.84,.47-.84,.47-.38,.71,.27,1.33,.27,1.33,.33,.37,1.98,1.15,1.98,1.15,.53,.21,1.4,.75,1.4,.75,1.62,.99,1.47,2.86,1.47,2.86h0Zm12.53,.83c0,3.36-4.2,3.31-4.2,3.31-4.83,0-4.48-3.47-4.48-3.47v-9.18h3.45v9.25c.01,1.04,.98,.98,.98,.98,.92,0,.88-1.01,.88-1.01v-9.22h3.37v9.34h0Zm14.32,2.95h-3.75l-3.35-7.48h-.14l.19,7.48h-3.15v-12.24h3.86l3.23,7.42h.14l-.23-7.42h3.19v12.24h0Z"/>
    </g>
  </g>
</svg>