<?xml version="1.0" encoding="UTF-8"?>
<svg id="Layer_2" data-name="Layer 2" xmlns="http://www.w3.org/2000/svg" viewBox="0 0 181.02 181.22">
  <defs>
    <style>
      .cls-1 {
        fill: #fff;
      }

      .cls-2 {
        fill: #171726;
      }

      .cls-3 {
        fill: #1f1c2f;
      }
    </style>
  </defs>
  <g id="DIGITAL_STRATEGY" data-name="DIGITAL STRATEGY">
    <g>
      <g>
        <path class="cls-3" d="M181.02,21.4V90.61H0V21.4C0,9.58,9.59,0,21.41,0H159.62c11.82,0,21.4,9.58,21.4,21.4Z"/>
        <path class="cls-2" d="M0,159.82V90.61H181.02v69.21c0,11.82-9.59,21.4-21.41,21.4H21.4c-11.82,0-21.4-9.58-21.4-21.4Z"/>
      </g>
      <g>
        <path class="cls-1" d="M36.3,92.93c0,2.34,.91,4.67,2.7,6.45,1.8,1.78,4.09,2.66,6.38,2.65,2.08-.01,4.16-.76,5.86-2.25l-13.79-11.33c-.78,1.39-1.16,2.93-1.16,4.48"/>
        <path class="cls-1" d="M65.88,99.27c1.78-1.79,2.66-4.13,2.65-6.47,0-1.53-.39-3.04-1.15-4.41l-13.7,11.4c1.71,1.47,3.78,2.19,5.85,2.19,2.29-.01,4.57-.91,6.36-2.7"/>
        <path class="cls-1" d="M65.83,86.36l-4.34-4.24-8.11,6.72,.03,8.53,12.77-10.63c-.11-.13-.23-.25-.36-.38"/>
        <polygon class="cls-1" points="53.33 74.13 53.38 86.21 60.04 80.69 53.33 74.13"/>
        <polygon class="cls-1" points="44.72 80.73 51.35 86.14 51.3 74.17 44.72 80.73"/>
        <path class="cls-1" d="M51.36,88.76l-8.09-6.6-4.32,4.3c-.11,.11-.21,.22-.31,.33l12.76,10.49-.03-8.52Z"/>
        <path class="cls-1" d="M69.5,73.02c-4.35-4.31-10.34-6.97-16.95-6.94-6.62,.03-12.58,2.73-16.9,7.08-4.32,4.35-6.97,10.34-6.94,16.95,.03,6.62,2.72,12.58,7.08,16.9,4.07,4.04,9.5,6.43,15.6,6.73l.03-11.53c-1.83,1.23-3.93,1.85-6.03,1.86-2.81,.01-5.63-1.07-7.81-3.24-2.19-2.17-3.29-5.03-3.3-7.88-.01-2.85,1.07-5.72,3.25-7.91l14.81-14.72,14.93,14.61c2.19,2.17,3.29,5.03,3.3,7.88,.01,2.85-1.07,5.72-3.24,7.91-2.16,2.18-4.98,3.29-7.79,3.3-2.12,.01-4.24-.61-6.09-1.84l-.03,11.57c6.31-.22,12.07-2.68,16.22-6.87,4.32-4.35,6.97-10.34,6.94-16.95-.02-6.61-2.73-12.58-7.07-16.9"/>
        <path class="cls-1" d="M136.57,93.42c.77,0,1.4-.61,1.4-1.38s-.63-1.42-1.4-1.42-1.4,.63-1.4,1.42,.63,1.38,1.4,1.38"/>
        <path class="cls-1" d="M136.05,94.16c-.27,0-.53,.07-.77,.18v13.26h2.57v-11.63c0-1-.81-1.81-1.81-1.81"/>
        <path class="cls-1" d="M113.43,100.68c0-.08,0-.15,0-.23,0-4-3.25-7.25-7.25-7.25s-7.25,3.25-7.25,7.25,3.25,7.25,7.25,7.25c1.78,0,3.48-.65,4.81-1.84v.92c0,2.65-2.19,4.53-4.89,4.53h-1.5s-3.2-.06-3.2-.06c-.02,0-.05,0-.07,0-.01,0-.02,0-.03,0-.13,.01-.27,.04-.4,.07-.71,.22-1.18,.86-1.18,1.59,0,.24,.06,.48,.16,.71l.03,.06,6.19,.05c3.99,0,7.32-3.02,7.32-6.96v-6.05s0-.03,0-.04m-7.24,4.58c-2.65,0-4.81-2.16-4.81-4.81s2.16-4.81,4.81-4.81,4.81,2.16,4.81,4.81-2.16,4.81-4.81,4.81"/>
        <path class="cls-1" d="M117.75,93.3v-3.58c0-1-.81-1.81-1.81-1.81-.27,0-.53,.06-.77,.17v19.52h2.57v-11.73h1.47c1,0,1.81-.81,1.81-1.81,0-.28-.06-.53-.17-.77h-3.1Z"/>
        <path class="cls-1" d="M127.85,93.29c-1.25,0-2.35,.29-3.24,.83v-4.4c0-1-.81-1.81-1.81-1.81-.27,0-.53,.06-.77,.17v19.52h2.57v-9.32c.38-2.14,2.14-2.49,3.24-2.49,1.24,0,3.31,.44,3.31,3.36v8.45h2.5v-8.45c0-3.56-2.28-5.86-5.81-5.86"/>
        <path class="cls-1" d="M89.55,91.25c-4.51,0-8.17,3.67-8.17,8.18s3.67,8.18,8.17,8.18c2.17,0,4.14-.85,5.6-2.23v.31c0,1,.81,1.8,1.81,1.8,.27,0,.53-.06,.76-.17v-7.89c0-4.51-3.67-8.18-8.18-8.18m0,13.79c-3.09,0-5.61-2.52-5.61-5.61s2.52-5.62,5.61-5.62,5.62,2.52,5.62,5.62h-.01v.33c-.17,2.94-2.62,5.28-5.6,5.28"/>
        <path class="cls-1" d="M153.54,100.68c0-.08,0-.15,0-.23,0-4-3.25-7.25-7.25-7.25s-7.25,3.25-7.25,7.25,3.25,7.25,7.25,7.25c1.77,0,3.81-.72,5.01-2.06,.07,.88,.61,1.79,1.51,1.79,.26,0,.51-.06,.73-.16v-6.55s0-.03,0-.04m-7.24,4.58c-2.65,0-4.81-2.16-4.81-4.81s2.16-4.81,4.81-4.81,4.81,2.16,4.81,4.81-2.16,4.81-4.81,4.81"/>
        <path class="cls-1" d="M87.84,68.52c.78,0,1.43-.62,1.43-1.41s-.65-1.45-1.43-1.45-1.43,.64-1.43,1.45,.65,1.41,1.43,1.41"/>
        <path class="cls-1" d="M91.53,68.52c.78,0,1.43-.62,1.43-1.41s-.65-1.45-1.43-1.45-1.43,.64-1.43,1.45,.65,1.41,1.43,1.41"/>
        <path class="cls-1" d="M98.61,87.34c-.78,0-1.43,.64-1.43,1.45s.65,1.41,1.43,1.41,1.43-.62,1.43-1.41-.64-1.45-1.43-1.45"/>
        <path class="cls-1" d="M102.35,87.34c-.78,0-1.43,.64-1.43,1.45s.65,1.41,1.43,1.41,1.43-.62,1.43-1.41-.65-1.45-1.43-1.45"/>
        <path class="cls-1" d="M119.79,68.78c.85,0,1.55-.67,1.55-1.53s-.7-1.58-1.55-1.58-1.56,.7-1.56,1.58,.7,1.53,1.56,1.53"/>
        <path class="cls-1" d="M151.88,70.28c-.28,0-.54,.07-.78,.18v15.65h2.63v-13.98c0-1.02-.83-1.85-1.85-1.85"/>
        <path class="cls-1" d="M147.95,83.3h-10.59c-2.89,0-5.25-2.38-5.25-5.3s2.36-5.25,5.25-5.25c2.25,0,4.25,1.44,4.97,3.58,.03,.17,.07,.31,.13,.43,.31,.73,1.02,1.19,1.8,1.19,.4,0,.78-.12,1.11-.34-.06-1.27-.43-2.51-1.05-3.59-1.44-2.49-4.1-4.04-6.96-4.04-4.43,0-8.03,3.61-8.03,8.03,0,1.91,.69,3.77,1.93,5.22l.07,.08h-5.34l.07-.08c1.24-1.46,1.93-3.31,1.93-5.21,0-4.43-3.61-8.05-8.05-8.05-.11,0-.22,0-.33,.01h-.06c-.22,.01-.42,.03-.62,.05-.87,.22-1.48,1-1.48,1.9,0,.43,.15,.85,.43,1.2,1.03-.43,2.14-.54,3.29-.27,2.4,.57,4.07,2.69,4.07,5.15,0,2.89-2.36,5.27-5.25,5.29h-7.56c-1.08,0-1.96,.87-1.96,1.95,0,.27,.06,.54,.18,.8h35.52c1.08,0,1.96-.87,1.96-1.95,0-.27-.06-.54-.18-.8"/>
        <path class="cls-1" d="M109.6,70.49c-.83,0-1.52,.54-1.76,1.3-.04,.14-.07,.29-.08,.44,0,.04-.01,.07-.01,.11v3.52h.01v1.86c0,3.17-2.58,5.75-5.75,5.75h-6.14c1.42-1.5,2.31-3.52,2.31-5.75,0-4.61-3.76-8.37-8.37-8.37s-8.37,3.76-8.37,8.37,3.76,8.37,8.37,8.37c.13,0,.26-.02,.4-.02v.02h11.81c4.61,0,8.37-3.76,8.37-8.37v-7.05c-.24-.11-.5-.18-.78-.18m-19.8,12.98c-3.17,0-5.75-2.58-5.75-5.75s2.58-5.74,5.75-5.74,5.75,2.58,5.75,5.74-2.58,5.75-5.75,5.75"/>
        <path class="cls-1" d="M136.76,68.77c-.85,0-1.55-.68-1.55-1.53s.7-1.58,1.55-1.58,1.56,.7,1.56,1.58-.7,1.53-1.56,1.53"/>
        <path class="cls-1" d="M152.68,66.55h.47c.37,0,.58-.23,.58-.59v-.29h-1.09c-1,0-1.53,.53-1.53,1.43,0,.33,.26,.63,.47,.76h-.22c-.33,0-.56,.2-.56,.61v.27h2.35c.35,0,.58-.19,.58-.6v-.28h-1.02c-.62,0-.83-.36-.83-.63,0-.38,.23-.69,.8-.69"/>
      </g>
    </g>
  </g>
</svg>