<?xml version="1.0" encoding="UTF-8"?>
<svg id="Layer_2" data-name="Layer 2" xmlns="http://www.w3.org/2000/svg" xmlns:xlink="http://www.w3.org/1999/xlink" viewBox="0 0 181.02 181.22">
  <defs>
    <style>
      .cls-1 {
        clip-path: url(#clippath);
      }

      .cls-2 {
        fill: #fff;
      }

      .cls-3 {
        fill: #171726;
      }

      .cls-4 {
        fill: #1f1c2f;
      }
    </style>
    <clipPath id="clippath">
      <path class="cls-2" d="M60.32,98.99c-2.98,1.1-5.95,2.2-8.93,3.3-.12,.04-.23,.13-.32,.22-1.32,1.45-2.64,2.9-3.95,4.35-.17,.19-.35,.39-.52,.58,.1,0,.18-.02,.25-.04,3.71-1.3,7.42-2.61,11.12-3.92,.11-.04,.21-.13,.27-.23,.43-.79,.85-1.6,1.28-2.4,.33-.63,.67-1.26,1.03-1.94-.12,.04-.17,.05-.23,.07m4.4-.89c-.57,1.15-1.15,2.29-1.72,3.43-.03,.06-.05,.12-.1,.23,2.72-1.05,5.39-2.09,8.06-3.13v-.05c-.14-.01-.27-.03-.41-.04-1.84-.2-3.69-.4-5.54-.6-.02,0-.04,0-.06,0-.12,0-.18,.05-.24,.17m-17.34-1.29c1.1,1.6,2.2,3.21,3.29,4.82,.09,.12,.15,.12,.27,.06,2.23-1.1,4.46-2.2,6.69-3.31,.05-.03,.11-.06,.2-.12-3.52-.52-6.98-1.03-10.48-1.55,.02,.06,.02,.08,.03,.1m-6.09,2.51c1.33,2.61,2.65,5.2,3.99,7.82,1.29-1.82,2.56-3.62,3.83-5.42-1.29-1.78-2.57-3.56-3.86-5.33-1.33,.99-2.64,1.96-3.96,2.94m-.51-.71c1.23-.88,2.43-1.75,3.66-2.64-1.73-.87-3.44-1.73-5.21-2.62,.52,1.79,1.03,3.51,1.54,5.26m-7.19-6.41c-.01,.41,0,.83-.04,1.24-.02,.2,.04,.35,.15,.51,2.6,3.59,5.2,7.19,7.8,10.78,.68,.94,1.36,1.89,2.04,2.83,.01,0,.03-.01,.04-.02-.02-.04-.04-.09-.06-.13-.88-1.85-1.77-3.71-2.65-5.56-.21-.43-.37-.9-.65-1.27-1.87-2.5-3.77-4.98-5.65-7.47-.31-.4-.61-.81-.96-1.25-.01,.16-.02,.26-.02,.36m17.83,3.44s0,.03,0,.05c2.65,.38,5.31,.76,8,1.14-.39-1.77-.78-3.5-1.17-5.26-2.29,1.36-4.56,2.71-6.82,4.07m11.5-.37c1.75,.05,3.47,.1,5.19,.16,0-.02,0-.04,.01-.06-1.79-1.35-3.57-2.7-5.4-4.09,.07,1.37,.13,2.67,.2,3.99m-29.29-4.89c1.85,2.43,3.7,4.86,5.56,7.29,.01,0,.02,0,.04-.01,0-.03-.01-.06-.02-.08-.48-1.55-.97-3.1-1.46-4.65-.03-.09-.12-.18-.2-.24-.87-.53-1.75-1.06-2.62-1.59-.42-.25-.84-.51-1.26-.76-.01,.01-.02,.02-.03,.03m6.92,1.94c1.68,.82,3.34,1.64,5,2.46,0-.01,.02-.02,.03-.03-.96-1.86-1.92-3.73-2.9-5.63-.72,1.07-1.41,2.13-2.13,3.2m-6.25-2.88c1.7,.98,3.34,1.93,4.99,2.88,.85-1.25,1.68-2.49,2.55-3.78-2.53,.3-5,.6-7.55,.9m-4.85-.91c.98,1.4,1.95,2.81,2.93,4.22,.02,0,.03,0,.05,0,.02-.51,.04-1.03,.04-1.54,0-.1-.07-.24-.15-.31-.63-.54-1.27-1.07-1.91-1.61-.31-.26-.62-.52-.93-.78-.01,0-.02,.02-.03,.03m15.11-.36c1.16,2.29,2.31,4.55,3.47,6.84,2.11-1.37,4.19-2.72,6.28-4.08-.99-2.09-1.96-4.14-2.95-6.22-2.28,1.16-4.53,2.3-6.81,3.45m-15.7-2.26c1.31,1.04,2.59,2.06,3.92,3.12-.14-1.89-.27-3.72-.4-5.58-1.19,.84-2.34,1.64-3.52,2.46m-.37-3.13c-.64,.07-1.29,.14-1.93,.21v.04c.25,.34,.5,.67,.75,1,.24,.33,.48,.66,.72,1.01,1.05-.84,2.09-1.66,3.17-2.53-.95,.09-1.83,.17-2.71,.27m29.62,5.19c1.16-1.84,2.3-3.64,3.46-5.48-2.21-.16-4.38-.31-6.58-.47,1.04,1.99,2.07,3.95,3.12,5.95m5.94-.44c1.97,1.41,3.92,2.8,5.88,4.21,1.42-2.01,2.84-4.01,4.26-6.01-2.2-1.42-4.39-2.83-6.6-4.25-1.19,2.03-2.36,4.04-3.54,6.06m-29.23-4.78c.07,1.81,.14,3.61,.22,5.43,2.03-.14,4.02-.29,6.04-.43,.19-2.16,.37-4.3,.56-6.49-2.29,.5-4.54,.99-6.81,1.49m9.28,3.06c2.56-1.47,5.08-2.91,7.64-4.38-2.26-.77-4.46-1.53-6.68-2.29-.32,2.23-.64,4.42-.96,6.67m36.55-8.02c.65,1.55,1.31,3.1,1.96,4.65,.03,.06,.11,.12,.18,.13,.48,.1,.97,.2,1.45,.28,.08,.01,.2-.02,.27-.08,.21-.15,.39-.33,.59-.5,.37-.31,.75-.62,1.12-.93v-.04c-1.85-1.19-3.7-2.38-5.57-3.57,0,.04,0,.05,0,.06m-43.78-2.1c-.09,0-.19,.03-.27,.07-2.64,1.38-5.28,2.76-7.92,4.14-.05,.03-.1,.06-.2,.13,1.76-.06,3.45-.12,5.14-.18,.09,0,.18-.06,.25-.11,.7-.51,1.4-1.03,2.1-1.54,1.1-.81,2.2-1.61,3.33-2.44-.06-.02-.08-.03-.1-.03-.78-.01-1.56-.03-2.34-.04h0m.27,3.73s.02,.03,.02,.04c2.29-.53,4.57-1.06,6.89-1.6-.61-.74-1.21-1.46-1.82-2.19-1.71,1.26-3.4,2.5-5.09,3.74m21.07-8.22c-1.11,.15-2.22,.29-3.33,.43-1.43,.18-2.87,.37-4.3,.55-.16,.02-.24,.08-.31,.23-.3,.59-.6,1.18-.91,1.77-.44,.85-.88,1.7-1.33,2.58,.09,.02,.15,.04,.21,.05,2.44,.47,4.87,.94,7.31,1.4,.35,.07,.71,.18,1.04,.12,1.97-.34,3.93-.71,5.89-1.08,.42-.08,.84-.16,1.29-.24-.05-.07-.08-.11-.12-.14-1.67-1.83-3.34-3.66-5-5.49-.11-.12-.21-.17-.35-.17-.04,0-.07,0-.11,0m8.74-.65c1.87,1.28,3.71,2.54,5.56,3.8,.01-.01,.02-.02,.03-.04-.81-1.75-1.62-3.51-2.45-5.28-1.05,.51-2.08,1.01-3.14,1.52m-24.03,.71c1.2,.71,2.39,1.4,3.61,2.12-.15-1.65-.3-3.24-.45-4.88-1.07,.94-2.11,1.84-3.16,2.76m34.31-3.3c.82,1.91,1.64,3.83,2.47,5.74,.03,.07,.11,.14,.18,.18,1.9,1.2,3.8,2.39,5.71,3.58,.05,.03,.11,.06,.2,.1-.05-.1-.08-.17-.12-.23-1.06-2.12-2.12-4.23-3.19-6.35-.06-.12-.15-.24-.26-.32-1.05-.86-2.11-1.71-3.16-2.56-.05-.05-.12-.09-.19-.1-.54-.05-1.09-.09-1.65-.13,.01,.04,.01,.06,.02,.08m-20.41-8.34c.76,2.48,1.53,4.97,2.3,7.47,1.22-.33,2.42-.66,3.61-.98,0-.09,0-.16-.01-.24-.1-.74-.2-1.47-.28-2.21-.02-.2-.1-.33-.27-.44-1.5-1.02-3-2.06-4.5-3.08-.26-.18-.53-.37-.8-.55-.02,0-.03,.02-.04,.03"/>
    </clipPath>
  </defs>
  <g id="DIGITAL_STRATEGY" data-name="DIGITAL STRATEGY">
    <g>
      <g>
        <path class="cls-4" d="M181.02,21.4V90.61H0V21.4C0,9.58,9.59,0,21.41,0H159.62c11.82,0,21.4,9.58,21.4,21.4Z"/>
        <path class="cls-3" d="M0,159.82V90.61H181.02v69.21c0,11.82-9.59,21.4-21.41,21.4H21.4c-11.82,0-21.4-9.58-21.4-21.4Z"/>
      </g>
      <g>
        <g>
          <path class="cls-2" d="M60.32,98.99c-2.98,1.1-5.95,2.2-8.93,3.3-.12,.04-.23,.13-.32,.22-1.32,1.45-2.64,2.9-3.95,4.35-.17,.19-.35,.39-.52,.58,.1,0,.18-.02,.25-.04,3.71-1.3,7.42-2.61,11.12-3.92,.11-.04,.21-.13,.27-.23,.43-.79,.85-1.6,1.28-2.4,.33-.63,.67-1.26,1.03-1.94-.12,.04-.17,.05-.23,.07m4.4-.89c-.57,1.15-1.15,2.29-1.72,3.43-.03,.06-.05,.12-.1,.23,2.72-1.05,5.39-2.09,8.06-3.13v-.05c-.14-.01-.27-.03-.41-.04-1.84-.2-3.69-.4-5.54-.6-.02,0-.04,0-.06,0-.12,0-.18,.05-.24,.17m-17.34-1.29c1.1,1.6,2.2,3.21,3.29,4.82,.09,.12,.15,.12,.27,.06,2.23-1.1,4.46-2.2,6.69-3.31,.05-.03,.11-.06,.2-.12-3.52-.52-6.98-1.03-10.48-1.55,.02,.06,.02,.08,.03,.1m-6.09,2.51c1.33,2.61,2.65,5.2,3.99,7.82,1.29-1.82,2.56-3.62,3.83-5.42-1.29-1.78-2.57-3.56-3.86-5.33-1.33,.99-2.64,1.96-3.96,2.94m-.51-.71c1.23-.88,2.43-1.75,3.66-2.64-1.73-.87-3.44-1.73-5.21-2.62,.52,1.79,1.03,3.51,1.54,5.26m-7.19-6.41c-.01,.41,0,.83-.04,1.24-.02,.2,.04,.35,.15,.51,2.6,3.59,5.2,7.19,7.8,10.78,.68,.94,1.36,1.89,2.04,2.83,.01,0,.03-.01,.04-.02-.02-.04-.04-.09-.06-.13-.88-1.85-1.77-3.71-2.65-5.56-.21-.43-.37-.9-.65-1.27-1.87-2.5-3.77-4.98-5.65-7.47-.31-.4-.61-.81-.96-1.25-.01,.16-.02,.26-.02,.36m17.83,3.44s0,.03,0,.05c2.65,.38,5.31,.76,8,1.14-.39-1.77-.78-3.5-1.17-5.26-2.29,1.36-4.56,2.71-6.82,4.07m11.5-.37c1.75,.05,3.47,.1,5.19,.16,0-.02,0-.04,.01-.06-1.79-1.35-3.57-2.7-5.4-4.09,.07,1.37,.13,2.67,.2,3.99m-29.29-4.89c1.85,2.43,3.7,4.86,5.56,7.29,.01,0,.02,0,.04-.01,0-.03-.01-.06-.02-.08-.48-1.55-.97-3.1-1.46-4.65-.03-.09-.12-.18-.2-.24-.87-.53-1.75-1.06-2.62-1.59-.42-.25-.84-.51-1.26-.76-.01,.01-.02,.02-.03,.03m6.92,1.94c1.68,.82,3.34,1.64,5,2.46,0-.01,.02-.02,.03-.03-.96-1.86-1.92-3.73-2.9-5.63-.72,1.07-1.41,2.13-2.13,3.2m-6.25-2.88c1.7,.98,3.34,1.93,4.99,2.88,.85-1.25,1.68-2.49,2.55-3.78-2.53,.3-5,.6-7.55,.9m-4.85-.91c.98,1.4,1.95,2.81,2.93,4.22,.02,0,.03,0,.05,0,.02-.51,.04-1.03,.04-1.54,0-.1-.07-.24-.15-.31-.63-.54-1.27-1.07-1.91-1.61-.31-.26-.62-.52-.93-.78-.01,0-.02,.02-.03,.03m15.11-.36c1.16,2.29,2.31,4.55,3.47,6.84,2.11-1.37,4.19-2.72,6.28-4.08-.99-2.09-1.96-4.14-2.95-6.22-2.28,1.16-4.53,2.3-6.81,3.45m-15.7-2.26c1.31,1.04,2.59,2.06,3.92,3.12-.14-1.89-.27-3.72-.4-5.58-1.19,.84-2.34,1.64-3.52,2.46m-.37-3.13c-.64,.07-1.29,.14-1.93,.21v.04c.25,.34,.5,.67,.75,1,.24,.33,.48,.66,.72,1.01,1.05-.84,2.09-1.66,3.17-2.53-.95,.09-1.83,.17-2.71,.27m29.62,5.19c1.16-1.84,2.3-3.64,3.46-5.48-2.21-.16-4.38-.31-6.58-.47,1.04,1.99,2.07,3.95,3.12,5.95m5.94-.44c1.97,1.41,3.92,2.8,5.88,4.21,1.42-2.01,2.84-4.01,4.26-6.01-2.2-1.42-4.39-2.83-6.6-4.25-1.19,2.03-2.36,4.04-3.54,6.06m-29.23-4.78c.07,1.81,.14,3.61,.22,5.43,2.03-.14,4.02-.29,6.04-.43,.19-2.16,.37-4.3,.56-6.49-2.29,.5-4.54,.99-6.81,1.49m9.28,3.06c2.56-1.47,5.08-2.91,7.64-4.38-2.26-.77-4.46-1.53-6.68-2.29-.32,2.23-.64,4.42-.96,6.67m36.55-8.02c.65,1.55,1.31,3.1,1.96,4.65,.03,.06,.11,.12,.18,.13,.48,.1,.97,.2,1.45,.28,.08,.01,.2-.02,.27-.08,.21-.15,.39-.33,.59-.5,.37-.31,.75-.62,1.12-.93v-.04c-1.85-1.19-3.7-2.38-5.57-3.57,0,.04,0,.05,0,.06m-43.78-2.1c-.09,0-.19,.03-.27,.07-2.64,1.38-5.28,2.76-7.92,4.14-.05,.03-.1,.06-.2,.13,1.76-.06,3.45-.12,5.14-.18,.09,0,.18-.06,.25-.11,.7-.51,1.4-1.03,2.1-1.54,1.1-.81,2.2-1.61,3.33-2.44-.06-.02-.08-.03-.1-.03-.78-.01-1.56-.03-2.34-.04h0m.27,3.73s.02,.03,.02,.04c2.29-.53,4.57-1.06,6.89-1.6-.61-.74-1.21-1.46-1.82-2.19-1.71,1.26-3.4,2.5-5.09,3.74m21.07-8.22c-1.11,.15-2.22,.29-3.33,.43-1.43,.18-2.87,.37-4.3,.55-.16,.02-.24,.08-.31,.23-.3,.59-.6,1.18-.91,1.77-.44,.85-.88,1.7-1.33,2.58,.09,.02,.15,.04,.21,.05,2.44,.47,4.87,.94,7.31,1.4,.35,.07,.71,.18,1.04,.12,1.97-.34,3.93-.71,5.89-1.08,.42-.08,.84-.16,1.29-.24-.05-.07-.08-.11-.12-.14-1.67-1.83-3.34-3.66-5-5.49-.11-.12-.21-.17-.35-.17-.04,0-.07,0-.11,0m8.74-.65c1.87,1.28,3.71,2.54,5.56,3.8,.01-.01,.02-.02,.03-.04-.81-1.75-1.62-3.51-2.45-5.28-1.05,.51-2.08,1.01-3.14,1.52m-24.03,.71c1.2,.71,2.39,1.4,3.61,2.12-.15-1.65-.3-3.24-.45-4.88-1.07,.94-2.11,1.84-3.16,2.76m34.31-3.3c.82,1.91,1.64,3.83,2.47,5.74,.03,.07,.11,.14,.18,.18,1.9,1.2,3.8,2.39,5.71,3.58,.05,.03,.11,.06,.2,.1-.05-.1-.08-.17-.12-.23-1.06-2.12-2.12-4.23-3.19-6.35-.06-.12-.15-.24-.26-.32-1.05-.86-2.11-1.71-3.16-2.56-.05-.05-.12-.09-.19-.1-.54-.05-1.09-.09-1.65-.13,.01,.04,.01,.06,.02,.08m-20.41-8.34c.76,2.48,1.53,4.97,2.3,7.47,1.22-.33,2.42-.66,3.61-.98,0-.09,0-.16-.01-.24-.1-.74-.2-1.47-.28-2.21-.02-.2-.1-.33-.27-.44-1.5-1.02-3-2.06-4.5-3.08-.26-.18-.53-.37-.8-.55-.02,0-.03,.02-.04,.03"/>
          <g class="cls-1">
            <polygon class="cls-2" points="110 86.9 52.24 137.06 2.78 80.23 60.54 30.07 110 86.9"/>
          </g>
        </g>
        <path class="cls-2" d="M94.09,74.33c.06,.06,.18,.06,.24,0l.57-.55c.15-.15,.15-.39,0-.55l-.57-.57c-.07-.05-.18-.05-.24,0l-.57,.57c-.15,.16-.15,.41,0,.55l.57,.55Z"/>
        <path class="cls-2" d="M97.38,75.07l-.81,.21c-.1,.02-.2,.12-.2,.24v3.44c0,1.29-1.06,2.36-2.35,2.36s-2.36-1.07-2.36-2.34v-1.79c0-.12-.08-.18-.2-.15l-.8,.21c-.12,.02-.2,.12-.2,.23v1.5c0,.95,.37,1.83,1.04,2.49,.67,.65,1.57,.93,2.51,.93,1.94,0,3.54-1.5,3.54-3.44v-3.73c0-.13-.08-.18-.18-.16"/>
        <path class="cls-2" d="M111.72,81.13c-.06-.06-.18-.06-.24,0l-.57,.57c-.15,.15-.15,.39,0,.54l.57,.57c.07,.07,.18,.07,.24,0l.57-.57c.15-.15,.15-.39,0-.54l-.57-.57Z"/>
        <path class="cls-2" d="M116.16,74.86c-.11,0-.28,0-.44-.03-.54-.05-.72-.15-.75-.18l-.3-.31c-.72-.8-1.53-1.73-3.01-1.85-.39-.05-1.03-.05-1.68,.15-.63,.2-1.21,.55-1.66,1.06-.08,.08-.07,.19,.01,.27l.63,.49c.08,.07,.2,.07,.28-.01,.74-.78,1.75-.85,2.3-.78,1.03,.1,1.59,.73,2.26,1.46l.09,.13-.92,2.73c-.08,.24-.28,.4-.49,.4h-11.12c-.49,0-.86-.4-.86-.9v-6.41c0-.13-.08-.18-.2-.15l-.82,.28c-.09,.02-.18,.2-.18,.31v5.49c0,1.14,.91,2.56,2.05,2.56h11.12c1.06,0,1.49-1.03,1.66-1.58,.15-.44,.45-1.4,.66-2.12,.2,.07,.42,.11,.72,.14,.24,.02,.48,.03,.63,.03,.1,.02,.2-.08,.2-.18v-.78c0-.11-.1-.2-.2-.22"/>
        <path class="cls-2" d="M146.49,72.88c-.12,0-.26,.05-.32,.13l-.32,.31c-.08,.08-.14,.23-.14,.34v4.32c0,.22-.18,.41-.39,.41h-8.31c-.73,0-1.45-.05-2.18-.47,1.04-1.21,1.53-2.95,1.06-4.69l-.08-.31-.33-.1c-1.14-.28-2.3-.2-3.07,.15-.01-.47-.01-.98,.02-1.48,.01-.11-.07-.21-.18-.21l-.47-.07c-.11-.01-.23,.08-.23,.22-.06,.7-.06,1.34-.05,1.95-.36,.22-.7,.49-.99,.78-.66,.65-1.13,1.48-1.37,2.36-.15,.61-.2,1.24-.12,1.88h-8.67c-.51,0-.86-.41-.86-.9v-4.21c0-.12-.08-.16-.18-.12l-.83,.32c-.09,.03-.18,.16-.18,.28v5.73c0,.61-.22,1.05-.62,1.37-.24,.18-.54,.3-.9,.38-.1,.01-.15,.11-.1,.21l.46,.73c.07,.09,.18,.13,.28,.09,.38-.13,.69-.28,.97-.47,.73-.55,1.11-1.34,1.11-2.31v-.24c.22,.19,.5,.31,.83,.31h9.48c1.24,0,2.86,0,4.13-.83,.82,.55,1.84,.83,3.1,.83h8.29c.41,0,.8-.16,1.07-.44l1.67,.41c.13,.01,.28,.03,.4,.01,.77-.1,1.37-.75,1.37-1.56v-1.56c0-1.89-1.46-3.44-3.34-3.53m-16.49,5.5c-.16-1.22,.44-2.51,1.32-3.39l.32-.3c.21,1.3,.67,2.38,1.35,3.18-.91,.44-2.07,.51-3,.51m2.55-4.22c.81-.39,1.59-.41,2.28-.3,.2,1.21-.13,2.39-.9,3.3-.66-.73-1.14-1.73-1.38-3.01m16.11,3.81c0,.22-.17,.41-.39,.41l-1.41-.1c.01-.09,.03-.2,.03-.31v-4.04c1.03,.26,1.77,1.37,1.77,2.47v1.56Z"/>
        <path class="cls-2" d="M79.61,88.26c.27,0,.51-.09,.69-.27,.18-.18,.28-.41,.28-.67,0-.14-.03-.27-.07-.38-.05-.12-.12-.22-.21-.31-.09-.09-.19-.16-.31-.2-.23-.1-.53-.1-.76,0-.12,.05-.22,.12-.31,.2-.09,.09-.16,.19-.21,.31-.05,.12-.07,.24-.07,.38,0,.27,.09,.49,.28,.67,.18,.18,.41,.27,.69,.27"/>
        <path class="cls-2" d="M84.17,94.77h-5.01c-.39,0-.71-.05-.95-.14-.24-.1-.43-.22-.57-.38-.13-.16-.23-.34-.28-.55-.05-.21-.08-.44-.08-.68,0-.33,.04-.65,.11-.95,.07-.31,.16-.58,.26-.81l.03-.06-.06-.03c-.26-.13-.5-.25-.71-.37-.21-.11-.46-.24-.73-.39l-.07-.03-.03,.07c-.16,.33-.3,.72-.41,1.16-.11,.44-.17,.91-.17,1.38,0,.43,.06,.86,.19,1.28,.13,.43,.34,.81,.63,1.15,.29,.34,.68,.61,1.15,.82,.47,.2,1.06,.31,1.76,.31h5.8c.25,0,.46-.09,.63-.26,.17-.17,.26-.38,.26-.63v-6.54h-1.78v5.65Z"/>
        <path class="cls-2" d="M82.12,88.26c.14,0,.27-.02,.38-.07,.12-.05,.22-.12,.31-.2,.09-.08,.16-.19,.21-.3,.05-.12,.07-.24,.07-.37,0-.27-.09-.5-.28-.69-.19-.18-.42-.28-.69-.28-.13,0-.26,.03-.37,.07-.12,.05-.22,.12-.31,.21-.08,.09-.15,.19-.2,.31-.05,.12-.07,.24-.07,.38,0,.27,.09,.49,.28,.67,.18,.18,.41,.27,.68,.27"/>
        <rect class="cls-2" x="88.04" y="85.52" width="1.77" height="11.01"/>
        <path class="cls-2" d="M96.41,91.5h0c-.01-.27-.02-.51-.03-.7,0-.19,0-.41,0-.63v-.07s-1.79,0-1.79,0v.07c0,.2,0,.41,0,.62,0,.22,.02,.44,.03,.67,.01,.31,.02,.63,.03,.95,0,.33,0,.66,0,.99,0,.46-.01,.93-.04,1.4-.02,.47-.08,.92-.16,1.35-.08,.43-.2,.84-.36,1.22-.15,.38-.36,.71-.61,.99-.25,.28-.57,.51-.94,.68-.37,.17-.82,.27-1.35,.29h-.07v1.78h.07c.77-.02,1.44-.16,2-.41,.56-.25,1.05-.58,1.45-.99,.4-.41,.72-.89,.97-1.43,.25-.54,.43-1.12,.56-1.72,.1-.51,.17-1.04,.21-1.56,.04-.52,.05-1.04,.05-1.53,0-.35,0-.69-.02-1.02l-.04-.96Z"/>
        <path class="cls-2" d="M121.1,89.11h0c-.08-.08-.17-.14-.28-.19-.11-.05-.23-.07-.34-.07-.47-.01-.95-.02-1.43-.03l-1.43-.02c-.5-.02-.98,.08-1.43,.29-.44,.21-.83,.49-1.15,.83-.32,.34-.58,.73-.77,1.16-.19,.43-.28,.86-.28,1.28v2.39h-14.28v-9.25h-1.78v10.05s0,.06,0,.09c0,.25,.09,.46,.26,.63,.17,.17,.39,.26,.63,.26h21.66c.28,0,.5-.1,.65-.29,.15-.19,.23-.42,.23-.69v-5.84c0-.12-.02-.23-.07-.34-.05-.1-.11-.2-.19-.27m-1.53,1.49v4.17h-3.8v-2.4c0-.22,.05-.44,.15-.66,.1-.22,.24-.41,.41-.57,.17-.17,.37-.3,.58-.41,.21-.1,.44-.15,.66-.15h.06s.12,0,.28,0h.31c.13,0,.28,0,.43,0h.48c.14,.01,.29,.01,.43,.01"/>
        <path class="cls-2" d="M127.28,100.07c-.06-.07-.09-.15-.09-.24,0-.09,.03-.18,.1-.26,.06-.08,.16-.11,.3-.11h1.08s0-.88,0-.88h-1.08c-.19,0-.37,.03-.52,.11-.15,.07-.28,.17-.38,.29-.1,.12-.18,.25-.23,.4-.05,.15-.08,.3-.08,.46,0,.07,0,.15,.01,.23,0,.04,.02,.09,.03,.13h-.32v.89h2.64v-.89h-1.21c-.13-.01-.21-.05-.27-.12"/>
        <path class="cls-2" d="M128.87,92.65c-.03,.49-.15,.93-.36,1.3-.19,.33-.44,.64-.75,.92-.02-.24-.04-.48-.05-.71-.03-.27-.06-.53-.09-.77-.1-.66-.25-1.35-.44-2.03-.2-.68-.44-1.36-.74-2.02-.3-.66-.65-1.31-1.06-1.92-.41-.62-.87-1.2-1.39-1.72l-.05-.05-1.26,1.25,.05,.05c.57,.58,1.07,1.22,1.47,1.9,.41,.68,.75,1.39,1.01,2.13,.26,.73,.46,1.49,.59,2.26,.12,.75,.19,1.52,.21,2.27l-.12,.07c-.28,.07-.59,.13-.92,.2-.33,.07-.69,.12-1.07,.17h-.07s.01,.08,.01,.08c.05,.27,.09,.54,.13,.78,.04,.25,.08,.52,.13,.81v.07s.08,0,.08,0c.63-.1,1.23-.21,1.78-.32,.55-.11,1.06-.24,1.52-.39,.46-.15,.88-.34,1.25-.55,.37-.22,.69-.5,.96-.83,.27-.33,.48-.73,.65-1.19,.16-.46,.27-1.01,.33-1.64v-7.24h-1.77v7.13Z"/>
        <rect class="cls-2" x="132.73" y="85.52" width="1.77" height="11.01"/>
        <path class="cls-2" d="M150.34,89.11h0c-.08-.08-.17-.14-.28-.19s-.22-.07-.34-.07c-.47-.01-.95-.02-1.43-.03l-1.43-.02c-.5-.01-.97,.09-1.41,.3-.44,.21-.82,.49-1.15,.83-.32,.34-.58,.73-.77,1.16-.19,.43-.29,.86-.3,1.27v2.44c-.38,.07-.74,.18-1.07,.32-.35,.15-.65,.36-.91,.62-.26,.26-.46,.58-.6,.95-.14,.37-.21,.8-.21,1.28v3.1h1.79v-3.1c0-.33,.04-.6,.13-.79,.08-.19,.2-.33,.35-.43,.15-.1,.34-.16,.56-.19,.23-.03,.49-.04,.77-.04h5.69c.24,0,.45-.09,.63-.26,.17-.17,.26-.38,.26-.63v-5.93c0-.12-.02-.23-.07-.34-.04-.1-.11-.2-.19-.27m-3.5,1.46h.06s.13,0,.27,0c.14,0,.35,0,.62,.01,.26,0,.6,0,1.02,.01v4.18h-3.8v-2.36c0-.25,.05-.49,.15-.71,.1-.22,.24-.42,.41-.59,.17-.17,.37-.3,.59-.4,.22-.1,.45-.15,.68-.15"/>
        <rect class="cls-2" x="152.54" y="85.52" width="1.78" height="11.01"/>
        <path class="cls-2" d="M153.11,83.57c-.13-.01-.21-.05-.27-.12-.06-.07-.08-.15-.08-.24,0-.09,.03-.18,.1-.26,.06-.08,.16-.11,.3-.11h1.08s0-.88,0-.88h-1.08c-.19,0-.37,.04-.52,.11-.15,.07-.28,.17-.38,.29-.1,.12-.18,.25-.23,.4-.05,.15-.08,.3-.08,.46,0,.08,0,.15,.01,.23,0,.04,.02,.09,.03,.13h-.32v.89h2.64v-.89h-1.21Z"/>
        <path class="cls-2" d="M71.37,105.13c0,1.5-.78,2.34-1.92,2.34s-1.92-.82-1.92-2.34,.78-2.36,1.92-2.36,1.92,.82,1.92,2.35m-3.17,0c0,1.31,.51,1.82,1.25,1.82s1.25-.51,1.25-1.83-.47-1.84-1.25-1.84-1.25,.54-1.25,1.85"/>
        <polygon class="cls-2" points="74.62 103.39 73.36 103.39 73.36 107.4 72.73 107.4 72.73 103.39 71.44 103.39 71.44 102.86 74.68 102.86 74.62 103.39"/>
        <polygon class="cls-2" points="77.68 105.27 75.77 105.27 75.77 107.4 75.14 107.4 75.14 102.86 75.77 102.86 75.77 104.75 77.68 104.75 77.68 102.86 78.31 102.86 78.31 107.4 77.68 107.4 77.68 105.27"/>
        <polygon class="cls-2" points="81.75 103.36 79.99 103.36 79.99 104.84 81.52 104.84 81.52 105.34 79.99 105.34 79.99 106.9 81.88 106.9 81.88 107.4 79.37 107.4 79.37 102.86 81.83 102.86 81.75 103.36"/>
        <path class="cls-2" d="M83.97,105.47h-.71v1.92h-.63v-4.54h1.2c1.13,0,1.73,.44,1.73,1.28,0,.64-.33,1.02-.98,1.22l1.23,2.04h-.74l-1.09-1.92Zm-.07-.48c.63,0,1-.24,1-.85,0-.57-.32-.8-1.07-.8h-.56v1.65h.63Z"/>
        <path class="cls-2" d="M91.39,105.13c0,1.5-.78,2.34-1.92,2.34s-1.92-.82-1.92-2.34,.78-2.36,1.92-2.36,1.92,.82,1.92,2.35m-3.17,0c0,1.31,.51,1.82,1.25,1.82s1.25-.51,1.25-1.83-.47-1.84-1.25-1.84-1.25,.54-1.25,1.85"/>
        <polygon class="cls-2" points="94.49 103.36 92.77 103.36 92.77 104.91 94.26 104.91 94.26 105.4 92.77 105.4 92.77 107.4 92.15 107.4 92.15 102.86 94.56 102.86 94.49 103.36"/>
        <polygon class="cls-2" points="99.23 103.39 97.96 103.39 97.96 107.4 97.34 107.4 97.34 103.39 96.05 103.39 96.05 102.86 99.29 102.86 99.23 103.39"/>
        <polygon class="cls-2" points="102.29 105.27 100.38 105.27 100.38 107.4 99.75 107.4 99.75 102.86 100.38 102.86 100.38 104.75 102.29 104.75 102.29 102.86 102.92 102.86 102.92 107.4 102.29 107.4 102.29 105.27"/>
        <polygon class="cls-2" points="106.36 103.36 104.6 103.36 104.6 104.84 106.13 104.84 106.13 105.34 104.6 105.34 104.6 106.9 106.49 106.9 106.49 107.4 103.98 107.4 103.98 102.86 106.44 102.86 106.36 103.36"/>
        <path class="cls-2" d="M111.91,107.4h-.84l-1.85-3.85c.03,.37,.09,.93,.09,1.77v2.08h-.59v-4.54h.82l1.87,3.86c-.01-.11-.09-.83-.09-1.38v-2.48h.59v4.54Z"/>
        <path class="cls-2" d="M115.05,106.26h-1.72l-.34,1.14h-.63l1.46-4.54h.79l1.45,4.54h-.66l-.34-1.14Zm-.15-.51l-.71-2.37-.71,2.37h1.42Z"/>
        <polygon class="cls-2" points="118.77 103.39 117.51 103.39 117.51 107.4 116.89 107.4 116.89 103.39 115.59 103.39 115.59 102.86 118.84 102.86 118.77 103.39"/>
        <rect class="cls-2" x="119.3" y="102.86" width=".63" height="4.54"/>
        <path class="cls-2" d="M124.52,105.13c0,1.5-.78,2.34-1.92,2.34s-1.92-.82-1.92-2.34,.78-2.36,1.92-2.36,1.92,.82,1.92,2.35m-3.17,0c0,1.31,.51,1.82,1.25,1.82s1.25-.51,1.25-1.83-.47-1.84-1.25-1.84-1.25,.54-1.25,1.85"/>
        <path class="cls-2" d="M128.47,107.4h-.84l-1.85-3.85c.03,.37,.09,.93,.09,1.77v2.08h-.59v-4.54h.82l1.87,3.86c-.01-.11-.09-.83-.09-1.38v-2.48h.59v4.54Z"/>
        <polygon class="cls-2" points="133.35 103.36 131.64 103.36 131.64 104.91 133.12 104.91 133.12 105.4 131.64 105.4 131.64 107.4 131.01 107.4 131.01 102.86 133.42 102.86 133.35 103.36"/>
        <polygon class="cls-2" points="136.38 103.36 134.61 103.36 134.61 104.84 136.14 104.84 136.14 105.34 134.61 105.34 134.61 106.9 136.5 106.9 136.5 107.4 133.99 107.4 133.99 102.86 136.45 102.86 136.38 103.36"/>
        <path class="cls-2" d="M139.78,103.3l-.34,.38c-.34-.28-.66-.4-1.04-.4-.46,0-.82,.21-.82,.65,0,.38,.18,.57,1,.82,.73,.22,1.35,.51,1.35,1.38,0,.79-.6,1.34-1.62,1.34-.65,0-1.17-.22-1.54-.59l.35-.39c.34,.28,.69,.46,1.19,.46,.53,0,.98-.26,.98-.81,0-.44-.21-.64-.98-.88-.88-.27-1.35-.61-1.35-1.31s.59-1.19,1.43-1.19c.63,0,1.02,.18,1.41,.53"/>
        <polygon class="cls-2" points="143.14 103.39 141.88 103.39 141.88 107.4 141.25 107.4 141.25 103.39 139.96 103.39 139.96 102.86 143.2 102.86 143.14 103.39"/>
        <rect class="cls-2" x="143.66" y="102.86" width=".63" height="4.54"/>
        <polygon class="cls-2" points="146.86 107.4 146.19 107.4 144.73 102.86 145.4 102.86 146.54 106.72 147.68 102.86 148.31 102.86 146.86 107.4"/>
        <path class="cls-2" d="M150.53,106.26h-1.72l-.34,1.14h-.63l1.46-4.54h.79l1.45,4.54h-.66l-.34-1.14Zm-.15-.51l-.71-2.37-.71,2.37h1.42Z"/>
        <polygon class="cls-2" points="152.6 106.85 154.46 106.85 154.39 107.4 151.97 107.4 151.97 102.86 152.6 102.86 152.6 106.85"/>
        <polygon class="cls-2" points="62.97 102.84 63.75 102.84 64.97 105.95 64.99 105.95 66.2 102.84 66.98 102.84 66.98 107.39 66.46 107.39 66.46 103.52 66.45 103.52 65.15 106.88 64.8 106.88 63.5 103.52 63.49 103.52 63.49 107.39 62.97 107.39 62.97 102.84"/>
      </g>
    </g>
  </g>
</svg>