<svg xmlns="http://www.w3.org/2000/svg" xmlns:xlink="http://www.w3.org/1999/xlink" viewBox="0 0 1613.42 364.69"><defs><style>.cls-1{fill:none;stroke-linecap:round;stroke-miterlimit:10;stroke-width:2px;stroke:url(#linear-gradient);}.cls-2{fill:#fff;}.cls-3{fill:url(#linear-gradient-2);}.cls-4{fill:url(#linear-gradient-3);}.cls-5{fill:url(#linear-gradient-4);}.cls-6{fill:url(#linear-gradient-5);}.cls-7{fill:url(#linear-gradient-6);}.cls-8{fill:url(#linear-gradient-7);}.cls-9{fill:url(#linear-gradient-8);}</style><linearGradient id="linear-gradient" x1="981.3" y1="-5635.02" x2="1162.62" y2="-5635.02" gradientTransform="translate(6450.32 1193.69) rotate(-90)" gradientUnits="userSpaceOnUse"><stop offset="0" stop-color="#7237bd"/><stop offset="1" stop-color="#fd0988"/></linearGradient><linearGradient id="linear-gradient-2" x1="1034.66" y1="323.47" x2="1082.14" y2="323.47" gradientUnits="userSpaceOnUse"><stop offset="0" stop-color="#fcdc00"/><stop offset="0.11" stop-color="#fcd607"/><stop offset="0.28" stop-color="#fbc51a"/><stop offset="0.47" stop-color="#fba839"/><stop offset="0.68" stop-color="#fa8164"/><stop offset="0.91" stop-color="#f84f9b"/><stop offset="0.99" stop-color="#f83cb0"/><stop offset="1" stop-color="#f83cb0"/></linearGradient><linearGradient id="linear-gradient-3" x1="1439.38" y1="90.36" x2="1494.83" y2="143.13" gradientTransform="matrix(1, 0, 0, 1, 0, 0)" xlink:href="#linear-gradient"/><linearGradient id="linear-gradient-4" x1="1517.48" y1="186.71" x2="1552.66" y2="220.19" gradientTransform="matrix(1, 0, 0, 1, 0, 0)" xlink:href="#linear-gradient"/><linearGradient id="linear-gradient-5" x1="1375.7" y1="243.48" x2="1402.08" y2="268.58" gradientUnits="userSpaceOnUse"><stop offset="0" stop-color="#fcdc00"/><stop offset="0.1" stop-color="#fbc519"/><stop offset="0.32" stop-color="#fa954e"/><stop offset="0.53" stop-color="#f96e79"/><stop offset="0.72" stop-color="#f95397"/><stop offset="0.88" stop-color="#f842a9"/><stop offset="0.99" stop-color="#f83cb0"/><stop offset="1" stop-color="#f83cb0"/></linearGradient><linearGradient id="linear-gradient-6" x1="227.7" y1="101.1" x2="187.61" y2="139.25" gradientTransform="matrix(1, 0, 0, 1, 0, 0)" xlink:href="#linear-gradient"/><linearGradient id="linear-gradient-7" x1="268.4" y1="227.35" x2="228.75" y2="265.08" gradientTransform="matrix(1, 0, 0, 1, 0, 0)" xlink:href="#linear-gradient"/><linearGradient id="linear-gradient-8" x1="148.36" y1="198.73" x2="103.37" y2="241.54" xlink:href="#linear-gradient-5"/></defs><g id="Layer_2" data-name="Layer 2"><g id="CONTACT_US" data-name="CONTACT US"><line class="cls-1" x1="815.3" y1="211.39" x2="815.3" y2="32.07"/><g id="LET_S_TALK" data-name="LET&apos;S TALK"><path class="cls-2" d="M548.46,283.7h16.27v64.83h34.82v14.71H548.46Z"/><path class="cls-2" d="M623.05,338.89c1.92,7.6,8.07,11.81,16.75,11.81a26.9,26.9,0,0,0,16.63-6l6.74,11.09a36.48,36.48,0,0,1-23.86,8.91c-18.43.36-33-14-32.65-31.21a30.77,30.77,0,0,1,31.21-31.21c16.51,0,28.08,12.17,28.08,27.72a38.48,38.48,0,0,1-1.09,8.91Zm27.11-11.44c-.12-7.35-5.78-12.05-12.89-12.05-6.87,0-12.42,4.7-14.22,12.05Z"/><path class="cls-2" d="M716.91,363.24a46.27,46.27,0,0,1-11.2,1.44c-15.07,0-23.86-7.47-23.86-22.41V317.33h-9.4V303.59h9.4V288.53h16.27v15.06H715v13.74H698.12v23.49c0,6.75,3.37,9.28,11.08,9.28,1,0,3.5-.12,7.71-.48Z"/><path class="cls-2" d="M731.49,343.23c5.18,5.43,10.85,8.08,16.75,8.08,4.34,0,7.59-1.69,7.59-4.94,0-2.53-1.68-3.5-6.14-5.43l-6.39-2.65c-11-4.46-16.27-9.4-16.27-18.19,0-11.21,8.92-17.84,21.93-17.84,8.92,0,16,3,21.45,8.92l-8.19,10a19.17,19.17,0,0,0-13.38-5.66c-4,0-6.38,1.44-6.38,4.21,0,2.29,1.56,3.38,6.26,5.31l5.79,2.41c11.57,4.7,16.75,9.4,16.75,18.19,0,5.91-2.17,10.61-6.63,14s-9.88,5.06-16.63,5.06c-10.48,0-19.28-4.34-24.7-11.57Z"/><path class="cls-2" d="M830.3,298.41H804.87V283.7h67.24v14.71H846.57v64.83H830.3Z"/><path class="cls-2" d="M924.29,363.24H909.35v-5.79c-4.34,4.46-10.61,7.23-18.2,7.23-12.65,0-20.6-7.35-20.6-17.83,0-10.73,8.67-17.35,22.53-17.35H908v-2.66c0-6.62-3.85-10.48-11.08-10.48-6.15,0-10.49,2.53-15.79,8.19l-8.44-10q10.31-12.29,26-12.29c15.55,0,25.55,9,25.55,25.55Zm-16.27-23H895.25c-5.3,0-8.32,2-8.32,6s3.38,6.5,8.56,6.5c7.11,0,12.53-4.94,12.53-11.81Z"/><path class="cls-2" d="M940,272.86h16.27v90.38H940Z"/><path class="cls-2" d="M1012.61,363.24l-24-33v33H972.37V272.86h16.26V329l21.45-25.42h19.28L1007,330l24.22,33.26Z"/><path class="cls-3" d="M1058.4,314.67c5.42-4.45,7.11-6.38,7.11-10.12a7.21,7.21,0,0,0-7.59-7.35c-4.34,0-7.71,3-10,9.16l-13.26-5.79c3.38-12,12.17-18.31,23.74-18.31,13.38,0,23.74,8.55,23.74,21.09,0,6.74-2.89,11.44-10,17.59-6.63,5.78-8.44,7.35-8.44,10.6a20.1,20.1,0,0,0,.25,2.53h-13.74a14.27,14.27,0,0,1-1.33-5.78C1048.88,323.83,1052,319.86,1058.4,314.67Zm-.84,27.6a11.21,11.21,0,1,1-11.33,11.21A11,11,0,0,1,1057.56,342.27Z"/></g><g id="METEORS"><path class="cls-4" d="M1322,213.91,1613.42,0,1337.81,233.93a12.76,12.76,0,1,1-16.52-19.46C1321.51,214.28,1321.77,214.08,1322,213.91Z"/><path class="cls-5" d="M1463.66,243.43l144.27-99.83L1479.66,263.29a12.79,12.79,0,0,1-17.45-18.7A13.16,13.16,0,0,1,1463.66,243.43Z"/><path class="cls-6" d="M1318.24,304l141.9-106.67L1327.2,314.93a7.09,7.09,0,1,1-9.4-10.62C1317.94,304.19,1318.09,304.06,1318.24,304Z"/></g><g id="METEORS-2" data-name="METEORS"><path class="cls-7" d="M296.56,202.11,105.48,38.55l203.38,148a9.93,9.93,0,1,1-11.69,16.05C297,202.44,296.75,202.27,296.56,202.11Z"/><path class="cls-8" d="M322.28,320.82,157.56,171.76,338.28,301a12.78,12.78,0,1,1-14.86,20.79C323,321.45,322.64,321.14,322.28,320.82Z"/><path class="cls-9" d="M236.46,324.08,0,116.45,250.8,306.52a11.34,11.34,0,1,1-13.7,18.08A8.06,8.06,0,0,1,236.46,324.08Z"/></g></g></g></svg>