<svg xmlns="http://www.w3.org/2000/svg" width="13.398" height="27.825" viewBox="0 0 13.398 27.825">
  <path id="Path_411" data-name="Path 411" d="M204.44,521.006a4.22,4.22,0,0,0-1.961,2.009,9.892,9.892,0,0,0-.532,3.732v1.49h-2.911v4.126h2.911v15.694h5.244V532.363h3.92v-4.126h-3.92v-1.4a3.072,3.072,0,0,1,.5-2.043,2.151,2.151,0,0,1,1.633-.533,10.426,10.426,0,0,1,2.407.3l.708-3.656a14.512,14.512,0,0,0-4.383-.674,7.528,7.528,0,0,0-3.611.774" transform="translate(-199.036 -520.232)" fill="#fff"/>
</svg>
