<svg xmlns="http://www.w3.org/2000/svg" width="1461.558" height="793.555" viewBox="0 0 1461.558 793.555">
  <g id="SHOWREEL" transform="translate(-229.127 -2291.734)">
    <text id="GLIMPSE_SHOWREEL" data-name="GLIMPSE SHOWREEL" transform="translate(962.355 2747.012)" fill="#fff" font-size="138.877" font-family="SegoeUI, Segoe UI" letter-spacing="0.05em"><tspan x="-689.333" y="0">GLIMPSE SHOWREEL</tspan></text>
    <g id="Group_244" data-name="Group 244">
      <g id="Group_238" data-name="Group 238">
        <text id="GLIMPSE_SHOWREEL-2" data-name="GLIMPSE SHOWREEL" transform="translate(959.355 2442.734)" stroke="#fff" stroke-miterlimit="10" stroke-width="1" font-size="138.877" font-family="SegoeUI, Segoe UI" letter-spacing="0.05em" fill="none"><tspan x="-689.333" y="0">GLIMPSE SHOWREEL</tspan></text>
        <text id="GLIMPSE_SHOWREEL-3" data-name="GLIMPSE SHOWREEL" transform="translate(959.355 2594.373)" stroke="#fff" stroke-miterlimit="10" stroke-width="1" font-size="138.877" font-family="SegoeUI, Segoe UI" letter-spacing="0.05em" fill="none"><tspan x="-689.333" y="0">GLIMPSE SHOWREEL</tspan></text>
        <text id="GLIMPSE_SHOWREEL-4" data-name="GLIMPSE SHOWREEL" transform="translate(959.355 2897.651)" stroke="#fff" stroke-miterlimit="10" stroke-width="1" font-size="138.877" font-family="SegoeUI, Segoe UI" letter-spacing="0.05em" fill="none"><tspan x="-689.333" y="0">GLIMPSE SHOWREEL</tspan></text>
        <text id="GLIMPSE_SHOWREEL-5" data-name="GLIMPSE SHOWREEL" transform="translate(959.355 3049.289)" stroke="#fff" stroke-miterlimit="10" stroke-width="1" font-size="138.877" font-family="SegoeUI, Segoe UI" letter-spacing="0.05em" fill="none"><tspan x="-689.333" y="0">GLIMPSE SHOWREEL</tspan></text>
      </g>
      <g id="Group_243" data-name="Group 243">
        <g id="Group_239" data-name="Group 239">
          <path id="Path_348" data-name="Path 348" d="M279.488,2349.414c16.8,0,30.551,7.221,39.439,20.413l-16.664,14.165c-5.972-8.332-13.192-12.637-23.192-12.637-15.414,0-25,10.138-25,25.552,0,15.693,10.138,26.246,26.386,26.246,8.749,0,15.693-3.054,20.137-8.193v-4.3H279.21V2390.1h45.272v28.885a49.742,49.742,0,0,1-18.33,18.47,52.287,52.287,0,0,1-26.664,6.944c-27.5.416-50.271-20.97-49.854-47.494C229.217,2370.522,251.991,2349,279.488,2349.414Z" fill="none" stroke="#707070" stroke-miterlimit="10" stroke-width="1"/>
          <path id="Path_349" data-name="Path 349" d="M345.039,2351.08h23.886v70.129h37.912v21.525h-61.8Z" fill="none" stroke="#707070" stroke-miterlimit="10" stroke-width="1"/>
          <path id="Path_350" data-name="Path 350" d="M426.28,2351.08h23.886v91.654H426.28Z" fill="none" stroke="#707070" stroke-miterlimit="10" stroke-width="1"/>
          <path id="Path_351" data-name="Path 351" d="M568.762,2349.414v93.32H544.876v-38.467l-19.025,22.22h-7.638l-18.886-22.081v38.328H475.442v-93.32h7.637l39.023,47.632,39.022-47.632Z" fill="none" stroke="#707070" stroke-miterlimit="10" stroke-width="1"/>
          <path id="Path_352" data-name="Path 352" d="M594.04,2351.08h35.967c20.414,0,35.412,12.5,35.412,31.523,0,18.748-15.414,31.663-35.412,31.663H617.926v28.468H594.04Zm36.106,42.355c6.666,0,10.971-4.305,10.971-10.832s-4.3-10.692-10.971-10.692h-12.22v21.524Z" fill="none" stroke="#707070" stroke-miterlimit="10" stroke-width="1"/>
          <path id="Path_353" data-name="Path 353" d="M695.419,2411.627c5.416,7.222,11.11,11.8,20.414,11.8,6.249,0,9.444-2.222,9.444-6.665,0-4.028-2.083-5.278-9.3-8.472l-9.443-4.166c-15.137-6.665-23.192-15.275-23.192-27.635,0-16.248,13.332-27.079,32.079-27.079,15.137,0,25.83,7.221,31.385,18.469l-15.97,12.221c-4.444-6.666-8.61-9.721-15.136-9.721-5,0-8.194,1.944-8.194,5.833,0,3.332,1.944,5.138,7.915,7.5l10.555,4.443c15.97,6.666,23.469,14.721,23.469,27.635,0,17.776-14.581,28.608-33.607,28.608-16.525,0-29.857-7.916-36.523-20.553Z" fill="none" stroke="#707070" stroke-miterlimit="10" stroke-width="1"/>
          <path id="Path_354" data-name="Path 354" d="M770,2351.08h63.6V2372.6H793.882v12.637h28.329v20H793.882v15.97h41.383v21.525H770Z" fill="none" stroke="#707070" stroke-miterlimit="10" stroke-width="1"/>
          <path id="Path_355" data-name="Path 355" d="M913.037,2411.627c5.416,7.222,11.111,11.8,20.414,11.8,6.249,0,9.444-2.222,9.444-6.665,0-4.028-2.083-5.278-9.3-8.472l-9.443-4.166c-15.137-6.665-23.192-15.275-23.192-27.635,0-16.248,13.331-27.079,32.079-27.079,15.137,0,25.83,7.221,31.385,18.469L948.449,2380.1c-4.443-6.666-8.609-9.721-15.136-9.721-5,0-8.194,1.944-8.194,5.833,0,3.332,1.945,5.138,7.916,7.5l10.554,4.443c15.971,6.666,23.469,14.721,23.469,27.635,0,17.776-14.581,28.608-33.607,28.608-16.525,0-29.856-7.916-36.522-20.553Z" fill="none" stroke="#707070" stroke-miterlimit="10" stroke-width="1"/>
          <path id="Path_356" data-name="Path 356" d="M987.615,2351.08H1011.5v33.468h33.468V2351.08h23.885v91.654h-23.885v-36.661H1011.5v36.661H987.615Z" fill="none" stroke="#707070" stroke-miterlimit="10" stroke-width="1"/>
          <path id="Path_357" data-name="Path 357" d="M1138.71,2349.414c26.663-.556,50.132,21.247,49.576,47.493.556,26.524-22.913,47.91-49.576,47.494-26.8.416-49.854-20.97-49.3-47.494C1088.856,2370.661,1111.908,2348.858,1138.71,2349.414Zm.139,21.941c-14.72,0-25,10.415-25,25.552,0,7.638,2.361,13.887,6.944,18.609,4.582,4.583,10.692,6.943,18.053,6.943,14.165,0,25-10.276,25-25.552C1163.846,2381.77,1153.014,2371.355,1138.849,2371.355Z" fill="none" stroke="#707070" stroke-miterlimit="10" stroke-width="1"/>
          <path id="Path_358" data-name="Path 358" d="M1338.964,2351.08l-37.772,93.321h-7.638l-23.33-47.911-23.469,47.911h-7.639l-37.772-93.321h26.663l17.22,44.022,21.108-45.688h7.638l21.108,45.688,17.22-44.022Z" fill="none" stroke="#707070" stroke-miterlimit="10" stroke-width="1"/>
          <path id="Path_359" data-name="Path 359" d="M1411.184,2442.734l-20.692-28.468h-9.859v28.468h-23.886V2351.08h35.967c20.414,0,35.412,12.5,35.412,31.523a29.843,29.843,0,0,1-14.442,26.108l24.163,34.023Zm-30.551-49.3h12.22c6.666,0,10.971-4.305,10.971-10.832s-4.3-10.692-10.971-10.692h-12.22Z" fill="none" stroke="#707070" stroke-miterlimit="10" stroke-width="1"/>
          <path id="Path_360" data-name="Path 360" d="M1454.238,2351.08h63.6V2372.6h-39.717v12.637h28.33v20h-28.33v15.97h41.384v21.525h-65.269Z" fill="none" stroke="#707070" stroke-miterlimit="10" stroke-width="1"/>
          <path id="Path_361" data-name="Path 361" d="M1541.313,2351.08h63.6V2372.6H1565.2v12.637h28.331v20H1565.2v15.97h41.384v21.525h-65.269Z" fill="none" stroke="#707070" stroke-miterlimit="10" stroke-width="1"/>
          <path id="Path_362" data-name="Path 362" d="M1628.388,2351.08h23.886v70.129h37.912v21.525h-61.8Z" fill="none" stroke="#707070" stroke-miterlimit="10" stroke-width="1"/>
        </g>
        <g id="Group_240" data-name="Group 240">
          <path id="Path_363" data-name="Path 363" d="M279.488,2501.052c16.8,0,30.551,7.222,39.439,20.414l-16.664,14.165c-5.972-8.332-13.192-12.637-23.192-12.637-15.414,0-25,10.138-25,25.552,0,15.692,10.138,26.246,26.386,26.246,8.749,0,15.693-3.055,20.137-8.193v-4.305H279.21v-20.553h45.272v28.885a49.742,49.742,0,0,1-18.33,18.47,52.287,52.287,0,0,1-26.664,6.944c-27.5.416-50.271-20.97-49.854-47.494C229.217,2522.161,251.991,2500.636,279.488,2501.052Z" fill="none" stroke="#707070" stroke-miterlimit="10" stroke-width="1"/>
          <path id="Path_364" data-name="Path 364" d="M345.039,2502.719h23.886v70.129h37.912v21.525h-61.8Z" fill="none" stroke="#707070" stroke-miterlimit="10" stroke-width="1"/>
          <path id="Path_365" data-name="Path 365" d="M426.28,2502.719h23.886v91.654H426.28Z" fill="none" stroke="#707070" stroke-miterlimit="10" stroke-width="1"/>
          <path id="Path_366" data-name="Path 366" d="M568.762,2501.052v93.321H544.876v-38.467l-19.025,22.219h-7.638l-18.886-22.08v38.328H475.442v-93.321h7.637l39.023,47.633,39.022-47.633Z" fill="none" stroke="#707070" stroke-miterlimit="10" stroke-width="1"/>
          <path id="Path_367" data-name="Path 367" d="M594.04,2502.719h35.967c20.414,0,35.412,12.5,35.412,31.523,0,18.748-15.414,31.662-35.412,31.662H617.926v28.469H594.04Zm36.106,42.355c6.666,0,10.971-4.3,10.971-10.832s-4.3-10.693-10.971-10.693h-12.22v21.525Z" fill="none" stroke="#707070" stroke-miterlimit="10" stroke-width="1"/>
          <path id="Path_368" data-name="Path 368" d="M695.419,2563.266c5.416,7.221,11.11,11.8,20.414,11.8,6.249,0,9.444-2.222,9.444-6.666,0-4.027-2.083-5.277-9.3-8.471l-9.443-4.166c-15.137-6.666-23.192-15.276-23.192-27.635,0-16.248,13.332-27.08,32.079-27.08,15.137,0,25.83,7.222,31.385,18.47l-15.97,12.221c-4.444-6.666-8.61-9.721-15.136-9.721-5,0-8.194,1.944-8.194,5.832,0,3.333,1.944,5.138,7.915,7.5l10.555,4.444c15.97,6.666,23.469,14.72,23.469,27.635,0,17.776-14.581,28.608-33.607,28.608-16.525,0-29.857-7.916-36.523-20.553Z" fill="none" stroke="#707070" stroke-miterlimit="10" stroke-width="1"/>
          <path id="Path_369" data-name="Path 369" d="M770,2502.719h63.6v21.525H793.882v12.637h28.329v20H793.882v15.97h41.383v21.525H770Z" fill="none" stroke="#707070" stroke-miterlimit="10" stroke-width="1"/>
          <path id="Path_370" data-name="Path 370" d="M913.037,2563.266c5.416,7.221,11.111,11.8,20.414,11.8,6.249,0,9.444-2.222,9.444-6.666,0-4.027-2.083-5.277-9.3-8.471l-9.443-4.166c-15.137-6.666-23.192-15.276-23.192-27.635,0-16.248,13.331-27.08,32.079-27.08,15.137,0,25.83,7.222,31.385,18.47l-15.971,12.221c-4.443-6.666-8.609-9.721-15.136-9.721-5,0-8.194,1.944-8.194,5.832,0,3.333,1.945,5.138,7.916,7.5l10.554,4.444c15.971,6.666,23.469,14.72,23.469,27.635,0,17.776-14.581,28.608-33.607,28.608-16.525,0-29.856-7.916-36.522-20.553Z" fill="none" stroke="#707070" stroke-miterlimit="10" stroke-width="1"/>
          <path id="Path_371" data-name="Path 371" d="M987.615,2502.719H1011.5v33.468h33.468v-33.468h23.885v91.654h-23.885v-36.661H1011.5v36.661H987.615Z" fill="none" stroke="#707070" stroke-miterlimit="10" stroke-width="1"/>
          <path id="Path_372" data-name="Path 372" d="M1138.71,2501.052c26.663-.555,50.132,21.247,49.576,47.494.556,26.524-22.913,47.91-49.576,47.494-26.8.416-49.854-20.97-49.3-47.494C1088.856,2522.3,1111.908,2500.5,1138.71,2501.052Zm.139,21.942c-14.72,0-25,10.415-25,25.552,0,7.638,2.361,13.887,6.944,18.608,4.582,4.583,10.692,6.944,18.053,6.944,14.165,0,25-10.277,25-25.552C1163.846,2533.409,1153.014,2522.994,1138.849,2522.994Z" fill="none" stroke="#707070" stroke-miterlimit="10" stroke-width="1"/>
          <path id="Path_373" data-name="Path 373" d="M1338.964,2502.719l-37.772,93.321h-7.638l-23.33-47.911-23.469,47.911h-7.639l-37.772-93.321h26.663l17.22,44.021,21.108-45.688h7.638l21.108,45.688,17.22-44.021Z" fill="none" stroke="#707070" stroke-miterlimit="10" stroke-width="1"/>
          <path id="Path_374" data-name="Path 374" d="M1411.184,2594.373l-20.692-28.469h-9.859v28.469h-23.886v-91.654h35.967c20.414,0,35.412,12.5,35.412,31.523a29.843,29.843,0,0,1-14.442,26.108l24.163,34.023Zm-30.551-49.3h12.22c6.666,0,10.971-4.3,10.971-10.832s-4.3-10.693-10.971-10.693h-12.22Z" fill="none" stroke="#707070" stroke-miterlimit="10" stroke-width="1"/>
          <path id="Path_375" data-name="Path 375" d="M1454.238,2502.719h63.6v21.525h-39.717v12.637h28.33v20h-28.33v15.97h41.384v21.525h-65.269Z" fill="none" stroke="#707070" stroke-miterlimit="10" stroke-width="1"/>
          <path id="Path_376" data-name="Path 376" d="M1541.313,2502.719h63.6v21.525H1565.2v12.637h28.331v20H1565.2v15.97h41.384v21.525h-65.269Z" fill="none" stroke="#707070" stroke-miterlimit="10" stroke-width="1"/>
          <path id="Path_377" data-name="Path 377" d="M1628.388,2502.719h23.886v70.129h37.912v21.525h-61.8Z" fill="none" stroke="#707070" stroke-miterlimit="10" stroke-width="1"/>
        </g>
        <g id="Group_241" data-name="Group 241">
          <path id="Path_378" data-name="Path 378" d="M279.488,2804.33c16.8,0,30.551,7.221,39.439,20.414l-16.664,14.164c-5.972-8.332-13.192-12.637-23.192-12.637-15.414,0-25,10.138-25,25.552,0,15.693,10.138,26.247,26.386,26.247,8.749,0,15.693-3.055,20.137-8.193v-4.306H279.21v-20.552h45.272V2873.9a49.74,49.74,0,0,1-18.33,18.469,52.287,52.287,0,0,1-26.664,6.944c-27.5.417-50.271-20.969-49.854-47.494C229.217,2825.438,251.991,2803.913,279.488,2804.33Z" fill="none" stroke="#707070" stroke-miterlimit="10" stroke-width="1"/>
          <path id="Path_379" data-name="Path 379" d="M345.039,2806h23.886v70.13h37.912v21.525h-61.8Z" fill="none" stroke="#707070" stroke-miterlimit="10" stroke-width="1"/>
          <path id="Path_380" data-name="Path 380" d="M426.28,2806h23.886v91.655H426.28Z" fill="none" stroke="#707070" stroke-miterlimit="10" stroke-width="1"/>
          <path id="Path_381" data-name="Path 381" d="M568.762,2804.33v93.321H544.876v-38.467L525.851,2881.4h-7.638l-18.886-22.081v38.329H475.442V2804.33h7.637l39.023,47.632,39.022-47.632Z" fill="none" stroke="#707070" stroke-miterlimit="10" stroke-width="1"/>
          <path id="Path_382" data-name="Path 382" d="M594.04,2806h35.967c20.414,0,35.412,12.5,35.412,31.524,0,18.747-15.414,31.662-35.412,31.662H617.926v28.469H594.04Zm36.106,42.356c6.666,0,10.971-4.3,10.971-10.832s-4.3-10.693-10.971-10.693h-12.22v21.525Z" fill="none" stroke="#707070" stroke-miterlimit="10" stroke-width="1"/>
          <path id="Path_383" data-name="Path 383" d="M695.419,2866.544c5.416,7.221,11.11,11.8,20.414,11.8,6.249,0,9.444-2.222,9.444-6.666,0-4.028-2.083-5.277-9.3-8.471l-9.443-4.166c-15.137-6.666-23.192-15.276-23.192-27.636,0-16.247,13.332-27.079,32.079-27.079,15.137,0,25.83,7.221,31.385,18.469l-15.97,12.221c-4.444-6.666-8.61-9.721-15.136-9.721-5,0-8.194,1.944-8.194,5.833,0,3.333,1.944,5.138,7.915,7.5l10.555,4.444c15.97,6.665,23.469,14.72,23.469,27.635,0,17.775-14.581,28.607-33.607,28.607-16.525,0-29.857-7.916-36.523-20.553Z" fill="none" stroke="#707070" stroke-miterlimit="10" stroke-width="1"/>
          <path id="Path_384" data-name="Path 384" d="M770,2806h63.6v21.525H793.882v12.637h28.329v20H793.882v15.97h41.383v21.525H770Z" fill="none" stroke="#707070" stroke-miterlimit="10" stroke-width="1"/>
          <path id="Path_385" data-name="Path 385" d="M913.037,2866.544c5.416,7.221,11.111,11.8,20.414,11.8,6.249,0,9.444-2.222,9.444-6.666,0-4.028-2.083-5.277-9.3-8.471l-9.443-4.166c-15.137-6.666-23.192-15.276-23.192-27.636,0-16.247,13.331-27.079,32.079-27.079,15.137,0,25.83,7.221,31.385,18.469l-15.971,12.221c-4.443-6.666-8.609-9.721-15.136-9.721-5,0-8.194,1.944-8.194,5.833,0,3.333,1.945,5.138,7.916,7.5l10.554,4.444c15.971,6.665,23.469,14.72,23.469,27.635,0,17.775-14.581,28.607-33.607,28.607-16.525,0-29.856-7.916-36.522-20.553Z" fill="none" stroke="#707070" stroke-miterlimit="10" stroke-width="1"/>
          <path id="Path_386" data-name="Path 386" d="M987.615,2806H1011.5v33.468h33.468V2806h23.885v91.655h-23.885v-36.662H1011.5v36.662H987.615Z" fill="none" stroke="#707070" stroke-miterlimit="10" stroke-width="1"/>
          <path id="Path_387" data-name="Path 387" d="M1138.71,2804.33c26.663-.556,50.132,21.247,49.576,47.493.556,26.525-22.913,47.911-49.576,47.494-26.8.417-49.854-20.969-49.3-47.494C1088.856,2825.577,1111.908,2803.774,1138.71,2804.33Zm.139,21.941c-14.72,0-25,10.415-25,25.552,0,7.638,2.361,13.887,6.944,18.609,4.582,4.583,10.692,6.943,18.053,6.943,14.165,0,25-10.276,25-25.552C1163.846,2836.686,1153.014,2826.271,1138.849,2826.271Z" fill="none" stroke="#707070" stroke-miterlimit="10" stroke-width="1"/>
          <path id="Path_388" data-name="Path 388" d="M1338.964,2806l-37.772,93.321h-7.638l-23.33-47.91-23.469,47.91h-7.639L1201.344,2806h26.663l17.22,44.022,21.108-45.688h7.638l21.108,45.688L1312.3,2806Z" fill="none" stroke="#707070" stroke-miterlimit="10" stroke-width="1"/>
          <path id="Path_389" data-name="Path 389" d="M1411.184,2897.651l-20.692-28.469h-9.859v28.469h-23.886V2806h35.967c20.414,0,35.412,12.5,35.412,31.524a29.842,29.842,0,0,1-14.442,26.107l24.163,34.024Zm-30.551-49.3h12.22c6.666,0,10.971-4.3,10.971-10.832s-4.3-10.693-10.971-10.693h-12.22Z" fill="none" stroke="#707070" stroke-miterlimit="10" stroke-width="1"/>
          <path id="Path_390" data-name="Path 390" d="M1454.238,2806h63.6v21.525h-39.717v12.637h28.33v20h-28.33v15.97h41.384v21.525h-65.269Z" fill="none" stroke="#707070" stroke-miterlimit="10" stroke-width="1"/>
          <path id="Path_391" data-name="Path 391" d="M1541.313,2806h63.6v21.525H1565.2v12.637h28.331v20H1565.2v15.97h41.384v21.525h-65.269Z" fill="none" stroke="#707070" stroke-miterlimit="10" stroke-width="1"/>
          <path id="Path_392" data-name="Path 392" d="M1628.388,2806h23.886v70.13h37.912v21.525h-61.8Z" fill="none" stroke="#707070" stroke-miterlimit="10" stroke-width="1"/>
        </g>
        <g id="Group_242" data-name="Group 242">
          <path id="Path_393" data-name="Path 393" d="M279.488,2955.968c16.8,0,30.551,7.222,39.439,20.414l-16.664,14.165c-5.972-8.332-13.192-12.637-23.192-12.637-15.414,0-25,10.138-25,25.552,0,15.692,10.138,26.246,26.386,26.246,8.749,0,15.693-3.055,20.137-8.193v-4.3H279.21v-20.553h45.272v28.885a49.742,49.742,0,0,1-18.33,18.47,52.287,52.287,0,0,1-26.664,6.944c-27.5.416-50.271-20.97-49.854-47.494C229.217,2977.077,251.991,2955.552,279.488,2955.968Z" fill="none" stroke="#707070" stroke-miterlimit="10" stroke-width="1"/>
          <path id="Path_394" data-name="Path 394" d="M345.039,2957.635h23.886v70.129h37.912v21.525h-61.8Z" fill="none" stroke="#707070" stroke-miterlimit="10" stroke-width="1"/>
          <path id="Path_395" data-name="Path 395" d="M426.28,2957.635h23.886v91.654H426.28Z" fill="none" stroke="#707070" stroke-miterlimit="10" stroke-width="1"/>
          <path id="Path_396" data-name="Path 396" d="M568.762,2955.968v93.321H544.876v-38.467l-19.025,22.219h-7.638l-18.886-22.08v38.328H475.442v-93.321h7.637L522.1,3003.6l39.022-47.633Z" fill="none" stroke="#707070" stroke-miterlimit="10" stroke-width="1"/>
          <path id="Path_397" data-name="Path 397" d="M594.04,2957.635h35.967c20.414,0,35.412,12.5,35.412,31.523,0,18.748-15.414,31.663-35.412,31.663H617.926v28.468H594.04Zm36.106,42.355c6.666,0,10.971-4.3,10.971-10.832s-4.3-10.692-10.971-10.692h-12.22v21.524Z" fill="none" stroke="#707070" stroke-miterlimit="10" stroke-width="1"/>
          <path id="Path_398" data-name="Path 398" d="M695.419,3018.182c5.416,7.221,11.11,11.8,20.414,11.8,6.249,0,9.444-2.222,9.444-6.666,0-4.027-2.083-5.277-9.3-8.471l-9.443-4.166c-15.137-6.665-23.192-15.275-23.192-27.635,0-16.248,13.332-27.08,32.079-27.08,15.137,0,25.83,7.222,31.385,18.47l-15.97,12.221c-4.444-6.666-8.61-9.721-15.136-9.721-5,0-8.194,1.944-8.194,5.832,0,3.333,1.944,5.139,7.915,7.5l10.555,4.444c15.97,6.666,23.469,14.721,23.469,27.635,0,17.776-14.581,28.608-33.607,28.608-16.525,0-29.857-7.916-36.523-20.553Z" fill="none" stroke="#707070" stroke-miterlimit="10" stroke-width="1"/>
          <path id="Path_399" data-name="Path 399" d="M770,2957.635h63.6v21.525H793.882V2991.8h28.329v20H793.882v15.97h41.383v21.525H770Z" fill="none" stroke="#707070" stroke-miterlimit="10" stroke-width="1"/>
          <path id="Path_400" data-name="Path 400" d="M913.037,3018.182c5.416,7.221,11.111,11.8,20.414,11.8,6.249,0,9.444-2.222,9.444-6.666,0-4.027-2.083-5.277-9.3-8.471l-9.443-4.166c-15.137-6.665-23.192-15.275-23.192-27.635,0-16.248,13.331-27.08,32.079-27.08,15.137,0,25.83,7.222,31.385,18.47l-15.971,12.221c-4.443-6.666-8.609-9.721-15.136-9.721-5,0-8.194,1.944-8.194,5.832,0,3.333,1.945,5.139,7.916,7.5l10.554,4.444c15.971,6.666,23.469,14.721,23.469,27.635,0,17.776-14.581,28.608-33.607,28.608-16.525,0-29.856-7.916-36.522-20.553Z" fill="none" stroke="#707070" stroke-miterlimit="10" stroke-width="1"/>
          <path id="Path_401" data-name="Path 401" d="M987.615,2957.635H1011.5V2991.1h33.468v-33.468h23.885v91.654h-23.885v-36.661H1011.5v36.661H987.615Z" fill="none" stroke="#707070" stroke-miterlimit="10" stroke-width="1"/>
          <path id="Path_402" data-name="Path 402" d="M1138.71,2955.968c26.663-.555,50.132,21.248,49.576,47.494.556,26.524-22.913,47.91-49.576,47.494-26.8.416-49.854-20.97-49.3-47.494C1088.856,2977.216,1111.908,2955.413,1138.71,2955.968Zm.139,21.942c-14.72,0-25,10.415-25,25.552,0,7.638,2.361,13.887,6.944,18.609,4.582,4.582,10.692,6.943,18.053,6.943,14.165,0,25-10.276,25-25.552C1163.846,2988.325,1153.014,2977.91,1138.849,2977.91Z" fill="none" stroke="#707070" stroke-miterlimit="10" stroke-width="1"/>
          <path id="Path_403" data-name="Path 403" d="M1338.964,2957.635l-37.772,93.321h-7.638l-23.33-47.911-23.469,47.911h-7.639l-37.772-93.321h26.663l17.22,44.022,21.108-45.689h7.638l21.108,45.689,17.22-44.022Z" fill="none" stroke="#707070" stroke-miterlimit="10" stroke-width="1"/>
          <path id="Path_404" data-name="Path 404" d="M1411.184,3049.289l-20.692-28.468h-9.859v28.468h-23.886v-91.654h35.967c20.414,0,35.412,12.5,35.412,31.523a29.843,29.843,0,0,1-14.442,26.108l24.163,34.023Zm-30.551-49.3h12.22c6.666,0,10.971-4.3,10.971-10.832s-4.3-10.692-10.971-10.692h-12.22Z" fill="none" stroke="#707070" stroke-miterlimit="10" stroke-width="1"/>
          <path id="Path_405" data-name="Path 405" d="M1454.238,2957.635h63.6v21.525h-39.717V2991.8h28.33v20h-28.33v15.97h41.384v21.525h-65.269Z" fill="none" stroke="#707070" stroke-miterlimit="10" stroke-width="1"/>
          <path id="Path_406" data-name="Path 406" d="M1541.313,2957.635h63.6v21.525H1565.2V2991.8h28.331v20H1565.2v15.97h41.384v21.525h-65.269Z" fill="none" stroke="#707070" stroke-miterlimit="10" stroke-width="1"/>
          <path id="Path_407" data-name="Path 407" d="M1628.388,2957.635h23.886v70.129h37.912v21.525h-61.8Z" fill="none" stroke="#707070" stroke-miterlimit="10" stroke-width="1"/>
        </g>
      </g>
    </g>
  </g>
</svg>
