<svg xmlns="http://www.w3.org/2000/svg" xmlns:xlink="http://www.w3.org/1999/xlink" viewBox="0 0 1464.06 702.56"><defs><style>.cls-1{fill:#fff;}.cls-2,.cls-3{fill:none;stroke-miterlimit:10;}.cls-2{stroke:#fff;}.cls-3{stroke:url(#linear-gradient);}</style><linearGradient id="linear-gradient" x1="4.44" y1="373.22" x2="1466" y2="373.22" gradientUnits="userSpaceOnUse"><stop offset="0" stop-color="#7237bd"/><stop offset="1" stop-color="#fd0988"/></linearGradient></defs><g id="Layer_2" data-name="Layer 2"><g id="SHOWREEL"><path class="cls-1" d="M57.8,326.72c16.8,0,30.55,7.23,39.44,20.42L80.57,361.3c-6-8.33-13.19-12.63-23.19-12.63-15.41,0-25,10.13-25,25.55,0,15.69,10.14,26.24,26.39,26.24,8.75,0,15.69-3,20.14-8.19V388H57.52V367.41h45.27V396.3a49.65,49.65,0,0,1-18.33,18.47,52.28,52.28,0,0,1-26.66,6.94c-27.5.42-50.27-21-49.86-47.49C7.53,347.83,30.3,326.31,57.8,326.72Z" transform="translate(-4.44 -21.94)"/><path class="cls-1" d="M123.35,328.39h23.89v70.13h37.91v21.53h-61.8Z" transform="translate(-4.44 -21.94)"/><path class="cls-1" d="M204.59,328.39h23.89v91.66H204.59Z" transform="translate(-4.44 -21.94)"/><path class="cls-1" d="M347.07,326.72v93.33H323.19V381.58l-19,22.22h-7.64l-18.88-22.08v38.33H253.75V326.72h7.64l39,47.64,39-47.64Z" transform="translate(-4.44 -21.94)"/><path class="cls-1" d="M372.35,328.39h36c20.41,0,35.41,12.5,35.41,31.52,0,18.75-15.41,31.67-35.41,31.67H396.24v28.47H372.35Zm36.11,42.36c6.66,0,11-4.31,11-10.84s-4.31-10.69-11-10.69H396.24v21.53Z" transform="translate(-4.44 -21.94)"/><path class="cls-1" d="M473.73,388.94c5.42,7.22,11.11,11.8,20.41,11.8,6.25,0,9.45-2.22,9.45-6.66,0-4-2.09-5.28-9.31-8.47l-9.44-4.17c-15.14-6.67-23.19-15.28-23.19-27.64,0-16.24,13.33-27.08,32.08-27.08,15.13,0,25.83,7.23,31.38,18.47l-16,12.23c-4.44-6.67-8.61-9.73-15.14-9.73-5,0-8.19,1.95-8.19,5.84,0,3.33,1.94,5.14,7.92,7.5l10.55,4.44c16,6.67,23.47,14.72,23.47,27.63,0,17.78-14.58,28.61-33.61,28.61-16.52,0-29.85-7.91-36.52-20.55Z" transform="translate(-4.44 -21.94)"/><path class="cls-1" d="M548.31,328.39h63.6v21.53H572.19v12.63h28.33v20H572.19v16h41.39v21.53H548.31Z" transform="translate(-4.44 -21.94)"/><path class="cls-1" d="M691.35,388.94c5.41,7.22,11.11,11.8,20.41,11.8,6.25,0,9.45-2.22,9.45-6.66,0-4-2.09-5.28-9.31-8.47l-9.44-4.17c-15.14-6.67-23.19-15.28-23.19-27.64,0-16.24,13.33-27.08,32.08-27.08,15.13,0,25.83,7.23,31.38,18.47l-16,12.23c-4.44-6.67-8.61-9.73-15.14-9.73-5,0-8.19,1.95-8.19,5.84,0,3.33,1.94,5.14,7.92,7.5l10.55,4.44c16,6.67,23.47,14.72,23.47,27.63,0,17.78-14.58,28.61-33.61,28.61-16.52,0-29.85-7.91-36.52-20.55Z" transform="translate(-4.44 -21.94)"/><path class="cls-1" d="M765.93,328.39h23.88v33.47h33.47V328.39h23.88v91.66H823.28V383.38H789.81v36.67H765.93Z" transform="translate(-4.44 -21.94)"/><path class="cls-1" d="M917,326.72c26.66-.55,50.13,21.25,49.58,47.5.55,26.52-22.92,47.91-49.58,47.49-26.8.42-49.85-21-49.3-47.49C867.17,348,890.22,326.17,917,326.72Zm.14,21.95c-14.72,0-25,10.41-25,25.55,0,7.64,2.36,13.89,7,18.61s10.69,6.94,18,6.94c14.16,0,25-10.28,25-25.55S931.32,348.67,917.16,348.67Z" transform="translate(-4.44 -21.94)"/><path class="cls-1" d="M1117.27,328.39l-37.77,93.32h-7.64l-23.33-47.91-23.46,47.91h-7.64l-37.78-93.32h26.67l17.22,44,21.11-45.69h7.63l21.11,45.69,17.22-44Z" transform="translate(-4.44 -21.94)"/><path class="cls-1" d="M1189.49,420.05l-20.69-28.47h-9.86v28.47h-23.88V328.39h36c20.42,0,35.42,12.5,35.42,31.52A29.84,29.84,0,0,1,1192,386l24.17,34Zm-30.55-49.3h12.22c6.67,0,11-4.31,11-10.84s-4.3-10.69-11-10.69h-12.22Z" transform="translate(-4.44 -21.94)"/><path class="cls-1" d="M1232.55,328.39h63.6v21.53h-39.72v12.63h28.33v20h-28.33v16h41.39v21.53h-65.27Z" transform="translate(-4.44 -21.94)"/><path class="cls-1" d="M1319.62,328.39h63.61v21.53h-39.72v12.63h28.33v20h-28.33v16h41.38v21.53h-65.27Z" transform="translate(-4.44 -21.94)"/><path class="cls-1" d="M1406.7,328.39h23.88v70.13h37.92v21.53h-61.8Z" transform="translate(-4.44 -21.94)"/><path class="cls-2" d="M54.8,22.45c16.8,0,30.55,7.22,39.44,20.41L77.57,57c-6-8.34-13.19-12.64-23.19-12.64-15.41,0-25,10.14-25,25.55,0,15.69,10.14,26.25,26.39,26.25,8.75,0,15.69-3.06,20.14-8.2v-4.3H54.52V63.14H99.79V92a49.65,49.65,0,0,1-18.33,18.47,52.28,52.28,0,0,1-26.66,6.94c-27.5.42-50.27-21-49.86-47.49C4.53,43.56,27.3,22,54.8,22.45Z" transform="translate(-4.44 -21.94)"/><path class="cls-2" d="M120.35,24.11h23.89V94.24h37.91v21.53h-61.8Z" transform="translate(-4.44 -21.94)"/><path class="cls-2" d="M201.59,24.11h23.89v91.66H201.59Z" transform="translate(-4.44 -21.94)"/><path class="cls-2" d="M344.07,22.45v93.32H320.19V77.3l-19,22.22h-7.64L274.64,77.44v38.33H250.75V22.45h7.64l39,47.63,39-47.63Z" transform="translate(-4.44 -21.94)"/><path class="cls-2" d="M369.35,24.11h36c20.41,0,35.41,12.5,35.41,31.53,0,18.74-15.41,31.66-35.41,31.66H393.24v28.47H369.35Zm36.11,42.36c6.66,0,11-4.31,11-10.83s-4.31-10.7-11-10.7H393.24V66.47Z" transform="translate(-4.44 -21.94)"/><path class="cls-2" d="M470.73,84.66c5.42,7.22,11.11,11.81,20.41,11.81,6.25,0,9.45-2.23,9.45-6.67,0-4-2.09-5.28-9.31-8.47l-9.44-4.17c-15.14-6.66-23.19-15.27-23.19-27.63,0-16.25,13.33-27.08,32.08-27.08,15.13,0,25.83,7.22,31.38,18.47l-16,12.22c-4.44-6.67-8.61-9.72-15.14-9.72-5,0-8.19,1.94-8.19,5.83,0,3.33,1.94,5.14,7.92,7.5l10.55,4.44c16,6.67,23.47,14.72,23.47,27.64,0,17.77-14.58,28.6-33.61,28.6-16.52,0-29.85-7.91-36.52-20.55Z" transform="translate(-4.44 -21.94)"/><path class="cls-2" d="M545.31,24.11h63.6V45.64H569.19V58.28h28.33v20H569.19v16h41.39v21.53H545.31Z" transform="translate(-4.44 -21.94)"/><path class="cls-2" d="M688.35,84.66c5.41,7.22,11.11,11.81,20.41,11.81,6.25,0,9.45-2.23,9.45-6.67,0-4-2.09-5.28-9.31-8.47l-9.44-4.17c-15.14-6.66-23.19-15.27-23.19-27.63,0-16.25,13.33-27.08,32.08-27.08,15.13,0,25.83,7.22,31.38,18.47l-16,12.22c-4.44-6.67-8.61-9.72-15.14-9.72-5,0-8.19,1.94-8.19,5.83,0,3.33,1.94,5.14,7.92,7.5l10.55,4.44c16,6.67,23.47,14.72,23.47,27.64,0,17.77-14.58,28.6-33.61,28.6-16.52,0-29.85-7.91-36.52-20.55Z" transform="translate(-4.44 -21.94)"/><path class="cls-2" d="M762.93,24.11h23.88V57.58h33.47V24.11h23.88v91.66H820.28V79.11H786.81v36.66H762.93Z" transform="translate(-4.44 -21.94)"/><path class="cls-2" d="M914,22.45c26.66-.56,50.13,21.24,49.58,47.49.55,26.53-22.92,47.91-49.58,47.49-26.8.42-49.85-21-49.3-47.49C864.17,43.69,887.22,21.89,914,22.45Zm.14,21.94c-14.72,0-25,10.41-25,25.55,0,7.64,2.36,13.89,7,18.61s10.69,6.94,18,6.94c14.16,0,25-10.27,25-25.55S928.32,44.39,914.16,44.39Z" transform="translate(-4.44 -21.94)"/><path class="cls-2" d="M1114.27,24.11l-37.77,93.32h-7.64l-23.33-47.91-23.46,47.91h-7.64L976.65,24.11h26.67l17.22,44,21.11-45.69h7.63l21.11,45.69,17.22-44Z" transform="translate(-4.44 -21.94)"/><path class="cls-2" d="M1186.49,115.77,1165.8,87.3h-9.86v28.47h-23.88V24.11h36c20.42,0,35.42,12.5,35.42,31.53A29.82,29.82,0,0,1,1189,81.74l24.17,34Zm-30.55-49.3h12.22c6.67,0,11-4.31,11-10.83s-4.3-10.7-11-10.7h-12.22Z" transform="translate(-4.44 -21.94)"/><path class="cls-2" d="M1229.55,24.11h63.6V45.64h-39.72V58.28h28.33v20h-28.33v16h41.39v21.53h-65.27Z" transform="translate(-4.44 -21.94)"/><path class="cls-2" d="M1316.62,24.11h63.61V45.64h-39.72V58.28h28.33v20h-28.33v16h41.38v21.53h-65.27Z" transform="translate(-4.44 -21.94)"/><path class="cls-2" d="M1403.7,24.11h23.88V94.24h37.92v21.53h-61.8Z" transform="translate(-4.44 -21.94)"/><path class="cls-2" d="M54.8,174.09c16.8,0,30.55,7.22,39.44,20.41L77.57,208.66C71.6,200.33,64.38,196,54.38,196c-15.41,0-25,10.14-25,25.55,0,15.69,10.14,26.25,26.39,26.25,8.75,0,15.69-3.06,20.14-8.2v-4.3H54.52V214.78H99.79v28.88a49.65,49.65,0,0,1-18.33,18.47,52.28,52.28,0,0,1-26.66,6.94c-27.5.42-50.27-21-49.86-47.49C4.53,195.19,27.3,173.67,54.8,174.09Z" transform="translate(-4.44 -21.94)"/><path class="cls-2" d="M120.35,175.75h23.89v70.13h37.91v21.53h-61.8Z" transform="translate(-4.44 -21.94)"/><path class="cls-2" d="M201.59,175.75h23.89v91.66H201.59Z" transform="translate(-4.44 -21.94)"/><path class="cls-2" d="M344.07,174.09v93.32H320.19V228.94l-19,22.22h-7.64l-18.88-22.08v38.33H250.75V174.09h7.64l39,47.63,39-47.63Z" transform="translate(-4.44 -21.94)"/><path class="cls-2" d="M369.35,175.75h36c20.41,0,35.41,12.5,35.41,31.53,0,18.74-15.41,31.66-35.41,31.66H393.24v28.47H369.35Zm36.11,42.36c6.66,0,11-4.31,11-10.83s-4.31-10.7-11-10.7H393.24v21.53Z" transform="translate(-4.44 -21.94)"/><path class="cls-2" d="M470.73,236.3c5.42,7.22,11.11,11.8,20.41,11.8,6.25,0,9.45-2.22,9.45-6.66,0-4-2.09-5.28-9.31-8.47l-9.44-4.17c-15.14-6.66-23.19-15.27-23.19-27.63,0-16.25,13.33-27.08,32.08-27.08,15.13,0,25.83,7.22,31.38,18.47l-16,12.22c-4.44-6.67-8.61-9.72-15.14-9.72-5,0-8.19,1.94-8.19,5.83,0,3.33,1.94,5.14,7.92,7.5l10.55,4.44c16,6.67,23.47,14.72,23.47,27.64,0,17.77-14.58,28.6-33.61,28.6-16.52,0-29.85-7.91-36.52-20.55Z" transform="translate(-4.44 -21.94)"/><path class="cls-2" d="M545.31,175.75h63.6v21.53H569.19v12.63h28.33v20H569.19v16h41.39v21.53H545.31Z" transform="translate(-4.44 -21.94)"/><path class="cls-2" d="M688.35,236.3c5.41,7.22,11.11,11.8,20.41,11.8,6.25,0,9.45-2.22,9.45-6.66,0-4-2.09-5.28-9.31-8.47l-9.44-4.17c-15.14-6.66-23.19-15.27-23.19-27.63,0-16.25,13.33-27.08,32.08-27.08,15.13,0,25.83,7.22,31.38,18.47l-16,12.22c-4.44-6.67-8.61-9.72-15.14-9.72-5,0-8.19,1.94-8.19,5.83,0,3.33,1.94,5.14,7.92,7.5l10.55,4.44c16,6.67,23.47,14.72,23.47,27.64,0,17.77-14.58,28.6-33.61,28.6-16.52,0-29.85-7.91-36.52-20.55Z" transform="translate(-4.44 -21.94)"/><path class="cls-2" d="M762.93,175.75h23.88v33.47h33.47V175.75h23.88v91.66H820.28V230.75H786.81v36.66H762.93Z" transform="translate(-4.44 -21.94)"/><path class="cls-2" d="M914,174.09c26.66-.56,50.13,21.24,49.58,47.49.55,26.52-22.92,47.91-49.58,47.49-26.8.42-49.85-21-49.3-47.49C864.17,195.33,887.22,173.53,914,174.09Zm.14,21.94c-14.72,0-25,10.41-25,25.55,0,7.64,2.36,13.89,7,18.61s10.69,6.94,18,6.94c14.16,0,25-10.27,25-25.55S928.32,196,914.16,196Z" transform="translate(-4.44 -21.94)"/><path class="cls-2" d="M1114.27,175.75l-37.77,93.32h-7.64l-23.33-47.91-23.46,47.91h-7.64l-37.78-93.32h26.67l17.22,44,21.11-45.68h7.63l21.11,45.68,17.22-44Z" transform="translate(-4.44 -21.94)"/><path class="cls-2" d="M1186.49,267.41l-20.69-28.47h-9.86v28.47h-23.88V175.75h36c20.42,0,35.42,12.5,35.42,31.53a29.83,29.83,0,0,1-14.45,26.1l24.17,34Zm-30.55-49.3h12.22c6.67,0,11-4.31,11-10.83s-4.3-10.7-11-10.7h-12.22Z" transform="translate(-4.44 -21.94)"/><path class="cls-2" d="M1229.55,175.75h63.6v21.53h-39.72v12.63h28.33v20h-28.33v16h41.39v21.53h-65.27Z" transform="translate(-4.44 -21.94)"/><path class="cls-2" d="M1316.62,175.75h63.61v21.53h-39.72v12.63h28.33v20h-28.33v16h41.38v21.53h-65.27Z" transform="translate(-4.44 -21.94)"/><path class="cls-2" d="M1403.7,175.75h23.88v70.13h37.92v21.53h-61.8Z" transform="translate(-4.44 -21.94)"/><path class="cls-2" d="M54.8,477.36c16.8,0,30.55,7.22,39.44,20.42L77.57,511.94c-6-8.33-13.19-12.64-23.19-12.64-15.41,0-25,10.14-25,25.56,0,15.69,10.14,26.24,26.39,26.24,8.75,0,15.69-3.05,20.14-8.19v-4.3H54.52V518.05H99.79v28.89a49.65,49.65,0,0,1-18.33,18.47,52.28,52.28,0,0,1-26.66,6.94c-27.5.42-50.27-21-49.86-47.49C4.53,498.47,27.3,477,54.8,477.36Z" transform="translate(-4.44 -21.94)"/><path class="cls-2" d="M120.35,479h23.89v70.13h37.91v21.52h-61.8Z" transform="translate(-4.44 -21.94)"/><path class="cls-2" d="M201.59,479h23.89v91.65H201.59Z" transform="translate(-4.44 -21.94)"/><path class="cls-2" d="M344.07,477.36v93.32H320.19V532.22l-19,22.22h-7.64l-18.88-22.08v38.32H250.75V477.36h7.64l39,47.64,39-47.64Z" transform="translate(-4.44 -21.94)"/><path class="cls-2" d="M369.35,479h36c20.41,0,35.41,12.5,35.41,31.52,0,18.75-15.41,31.67-35.41,31.67H393.24v28.46H369.35Zm36.11,42.36c6.66,0,11-4.31,11-10.84s-4.31-10.69-11-10.69H393.24v21.53Z" transform="translate(-4.44 -21.94)"/><path class="cls-2" d="M470.73,539.58c5.42,7.22,11.11,11.8,20.41,11.8,6.25,0,9.45-2.22,9.45-6.66,0-4-2.09-5.28-9.31-8.48l-9.44-4.16c-15.14-6.67-23.19-15.28-23.19-27.64,0-16.24,13.33-27.08,32.08-27.08,15.13,0,25.83,7.22,31.38,18.47l-16,12.22c-4.44-6.66-8.61-9.72-15.14-9.72-5,0-8.19,1.95-8.19,5.84,0,3.33,1.94,5.13,7.92,7.49l10.55,4.45c16,6.66,23.47,14.72,23.47,27.63,0,17.78-14.58,28.61-33.61,28.61-16.52,0-29.85-7.91-36.52-20.55Z" transform="translate(-4.44 -21.94)"/><path class="cls-2" d="M545.31,479h63.6v21.52H569.19v12.64h28.33v20H569.19v16h41.39v21.52H545.31Z" transform="translate(-4.44 -21.94)"/><path class="cls-2" d="M688.35,539.58c5.41,7.22,11.11,11.8,20.41,11.8,6.25,0,9.45-2.22,9.45-6.66,0-4-2.09-5.28-9.31-8.48l-9.44-4.16c-15.14-6.67-23.19-15.28-23.19-27.64,0-16.24,13.33-27.08,32.08-27.08,15.13,0,25.83,7.22,31.38,18.47l-16,12.22c-4.44-6.66-8.61-9.72-15.14-9.72-5,0-8.19,1.95-8.19,5.84,0,3.33,1.94,5.13,7.92,7.49l10.55,4.45c16,6.66,23.47,14.72,23.47,27.63,0,17.78-14.58,28.61-33.61,28.61-16.52,0-29.85-7.91-36.52-20.55Z" transform="translate(-4.44 -21.94)"/><path class="cls-2" d="M762.93,479h23.88V512.5h33.47V479h23.88v91.65H820.28V534H786.81v36.66H762.93Z" transform="translate(-4.44 -21.94)"/><path class="cls-2" d="M914,477.36c26.66-.55,50.13,21.25,49.58,47.5.55,26.52-22.92,47.91-49.58,47.49-26.8.42-49.85-21-49.3-47.49C864.17,498.61,887.22,476.81,914,477.36Zm.14,21.94c-14.72,0-25,10.42-25,25.56,0,7.64,2.36,13.88,7,18.61,4.58,4.58,10.69,6.94,18,6.94,14.16,0,25-10.28,25-25.55S928.32,499.3,914.16,499.3Z" transform="translate(-4.44 -21.94)"/><path class="cls-2" d="M1114.27,479l-37.77,93.32h-7.64l-23.33-47.91-23.46,47.91h-7.64L976.65,479h26.67l17.22,44,21.11-45.69h7.63l21.11,45.69,17.22-44Z" transform="translate(-4.44 -21.94)"/><path class="cls-2" d="M1186.49,570.68l-20.69-28.46h-9.86v28.46h-23.88V479h36c20.42,0,35.42,12.5,35.42,31.52A29.84,29.84,0,0,1,1189,536.66l24.17,34Zm-30.55-49.29h12.22c6.67,0,11-4.31,11-10.84s-4.3-10.69-11-10.69h-12.22Z" transform="translate(-4.44 -21.94)"/><path class="cls-2" d="M1229.55,479h63.6v21.52h-39.72v12.64h28.33v20h-28.33v16h41.39v21.52h-65.27Z" transform="translate(-4.44 -21.94)"/><path class="cls-2" d="M1316.62,479h63.61v21.52h-39.72v12.64h28.33v20h-28.33v16h41.38v21.52h-65.27Z" transform="translate(-4.44 -21.94)"/><path class="cls-2" d="M1403.7,479h23.88v70.13h37.92v21.52h-61.8Z" transform="translate(-4.44 -21.94)"/><path class="cls-2" d="M54.8,629c16.8,0,30.55,7.22,39.44,20.42L77.57,663.58c-6-8.33-13.19-12.64-23.19-12.64-15.41,0-25,10.14-25,25.56,0,15.69,10.14,26.24,26.39,26.24,8.75,0,15.69-3,20.14-8.19v-4.31H54.52V669.69H99.79v28.89a49.79,49.79,0,0,1-18.33,18.47A52.28,52.28,0,0,1,54.8,724c-27.5.42-50.27-21-49.86-47.49C4.53,650.11,27.3,628.59,54.8,629Z" transform="translate(-4.44 -21.94)"/><path class="cls-2" d="M120.35,630.67h23.89V700.8h37.91v21.52h-61.8Z" transform="translate(-4.44 -21.94)"/><path class="cls-2" d="M201.59,630.67h23.89v91.65H201.59Z" transform="translate(-4.44 -21.94)"/><path class="cls-2" d="M344.07,629v93.32H320.19V683.86l-19,22.22h-7.64L274.64,684v38.33H250.75V629h7.64l39,47.63,39-47.63Z" transform="translate(-4.44 -21.94)"/><path class="cls-2" d="M369.35,630.67h36c20.41,0,35.41,12.5,35.41,31.52,0,18.75-15.41,31.66-35.41,31.66H393.24v28.47H369.35ZM405.46,673c6.66,0,11-4.3,11-10.83s-4.31-10.69-11-10.69H393.24V673Z" transform="translate(-4.44 -21.94)"/><path class="cls-2" d="M470.73,691.22c5.42,7.22,11.11,11.8,20.41,11.8,6.25,0,9.45-2.22,9.45-6.67,0-4-2.09-5.27-9.31-8.47l-9.44-4.16c-15.14-6.67-23.19-15.28-23.19-27.64,0-16.25,13.33-27.08,32.08-27.08,15.13,0,25.83,7.22,31.38,18.47l-16,12.22C501.7,653,497.53,650,491,650c-5,0-8.19,1.95-8.19,5.83,0,3.34,1.94,5.14,7.92,7.5l10.55,4.45c16,6.66,23.47,14.72,23.47,27.63,0,17.78-14.58,28.61-33.61,28.61-16.52,0-29.85-7.92-36.52-20.55Z" transform="translate(-4.44 -21.94)"/><path class="cls-2" d="M545.31,630.67h63.6v21.52H569.19v12.64h28.33v20H569.19v16h41.39v21.52H545.31Z" transform="translate(-4.44 -21.94)"/><path class="cls-2" d="M688.35,691.22c5.41,7.22,11.11,11.8,20.41,11.8,6.25,0,9.45-2.22,9.45-6.67,0-4-2.09-5.27-9.31-8.47l-9.44-4.16c-15.14-6.67-23.19-15.28-23.19-27.64,0-16.25,13.33-27.08,32.08-27.08,15.13,0,25.83,7.22,31.38,18.47l-16,12.22c-4.44-6.66-8.61-9.72-15.14-9.72-5,0-8.19,1.95-8.19,5.83,0,3.34,1.94,5.14,7.92,7.5l10.55,4.45c16,6.66,23.47,14.72,23.47,27.63,0,17.78-14.58,28.61-33.61,28.61-16.52,0-29.85-7.92-36.52-20.55Z" transform="translate(-4.44 -21.94)"/><path class="cls-2" d="M762.93,630.67h23.88v33.47h33.47V630.67h23.88v91.65H820.28V685.66H786.81v36.66H762.93Z" transform="translate(-4.44 -21.94)"/><path class="cls-2" d="M914,629c26.66-.55,50.13,21.25,49.58,47.5C964.15,703,940.68,724.41,914,724c-26.8.42-49.85-21-49.3-47.49C864.17,650.25,887.22,628.45,914,629Zm.14,21.94c-14.72,0-25,10.42-25,25.56,0,7.63,2.36,13.88,7,18.6s10.69,6.95,18,6.95c14.16,0,25-10.28,25-25.55S928.32,650.94,914.16,650.94Z" transform="translate(-4.44 -21.94)"/><path class="cls-2" d="M1114.27,630.67,1076.5,724h-7.64l-23.33-47.91L1022.07,724h-7.64l-37.78-93.32h26.67l17.22,44L1041.65,629h7.63l21.11,45.69,17.22-44Z" transform="translate(-4.44 -21.94)"/><path class="cls-2" d="M1186.49,722.32l-20.69-28.47h-9.86v28.47h-23.88V630.67h36c20.42,0,35.42,12.5,35.42,31.52A29.85,29.85,0,0,1,1189,688.3l24.17,34ZM1155.94,673h12.22c6.67,0,11-4.3,11-10.83s-4.3-10.69-11-10.69h-12.22Z" transform="translate(-4.44 -21.94)"/><path class="cls-2" d="M1229.55,630.67h63.6v21.52h-39.72v12.64h28.33v20h-28.33v16h41.39v21.52h-65.27Z" transform="translate(-4.44 -21.94)"/><path class="cls-2" d="M1316.62,630.67h63.61v21.52h-39.72v12.64h28.33v20h-28.33v16h41.38v21.52h-65.27Z" transform="translate(-4.44 -21.94)"/><path class="cls-2" d="M1403.7,630.67h23.88V700.8h37.92v21.52h-61.8Z" transform="translate(-4.44 -21.94)"/><path class="cls-3" d="M54.8,22.45c16.8,0,30.55,7.22,39.44,20.41L77.57,57c-6-8.34-13.19-12.64-23.19-12.64-15.41,0-25,10.14-25,25.55,0,15.69,10.14,26.25,26.39,26.25,8.75,0,15.69-3.06,20.14-8.2v-4.3H54.52V63.14H99.79V92a49.65,49.65,0,0,1-18.33,18.47,52.28,52.28,0,0,1-26.66,6.94c-27.5.42-50.27-21-49.86-47.49C4.53,43.56,27.3,22,54.8,22.45Z" transform="translate(-4.44 -21.94)"/><path class="cls-3" d="M120.35,24.11h23.89V94.24h37.91v21.53h-61.8Z" transform="translate(-4.44 -21.94)"/><path class="cls-3" d="M201.59,24.11h23.89v91.66H201.59Z" transform="translate(-4.44 -21.94)"/><path class="cls-3" d="M344.07,22.45v93.32H320.19V77.3l-19,22.22h-7.64L274.64,77.44v38.33H250.75V22.45h7.64l39,47.63,39-47.63Z" transform="translate(-4.44 -21.94)"/><path class="cls-3" d="M369.35,24.11h36c20.41,0,35.41,12.5,35.41,31.53,0,18.74-15.41,31.66-35.41,31.66H393.24v28.47H369.35Zm36.11,42.36c6.66,0,11-4.31,11-10.83s-4.31-10.7-11-10.7H393.24V66.47Z" transform="translate(-4.44 -21.94)"/><path class="cls-3" d="M470.73,84.66c5.42,7.22,11.11,11.81,20.41,11.81,6.25,0,9.45-2.23,9.45-6.67,0-4-2.09-5.28-9.31-8.47l-9.44-4.17c-15.14-6.66-23.19-15.27-23.19-27.63,0-16.25,13.33-27.08,32.08-27.08,15.13,0,25.83,7.22,31.38,18.47l-16,12.22c-4.44-6.67-8.61-9.72-15.14-9.72-5,0-8.19,1.94-8.19,5.83,0,3.33,1.94,5.14,7.92,7.5l10.55,4.44c16,6.67,23.47,14.72,23.47,27.64,0,17.77-14.58,28.6-33.61,28.6-16.52,0-29.85-7.91-36.52-20.55Z" transform="translate(-4.44 -21.94)"/><path class="cls-3" d="M545.31,24.11h63.6V45.64H569.19V58.28h28.33v20H569.19v16h41.39v21.53H545.31Z" transform="translate(-4.44 -21.94)"/><path class="cls-3" d="M688.35,84.66c5.41,7.22,11.11,11.81,20.41,11.81,6.25,0,9.45-2.23,9.45-6.67,0-4-2.09-5.28-9.31-8.47l-9.44-4.17c-15.14-6.66-23.19-15.27-23.19-27.63,0-16.25,13.33-27.08,32.08-27.08,15.13,0,25.83,7.22,31.38,18.47l-16,12.22c-4.44-6.67-8.61-9.72-15.14-9.72-5,0-8.19,1.94-8.19,5.83,0,3.33,1.94,5.14,7.92,7.5l10.55,4.44c16,6.67,23.47,14.72,23.47,27.64,0,17.77-14.58,28.6-33.61,28.6-16.52,0-29.85-7.91-36.52-20.55Z" transform="translate(-4.44 -21.94)"/><path class="cls-3" d="M762.93,24.11h23.88V57.58h33.47V24.11h23.88v91.66H820.28V79.11H786.81v36.66H762.93Z" transform="translate(-4.44 -21.94)"/><path class="cls-3" d="M914,22.45c26.66-.56,50.13,21.24,49.58,47.49.55,26.53-22.92,47.91-49.58,47.49-26.8.42-49.85-21-49.3-47.49C864.17,43.69,887.22,21.89,914,22.45Zm.14,21.94c-14.72,0-25,10.41-25,25.55,0,7.64,2.36,13.89,7,18.61s10.69,6.94,18,6.94c14.16,0,25-10.27,25-25.55S928.32,44.39,914.16,44.39Z" transform="translate(-4.44 -21.94)"/><path class="cls-3" d="M1114.27,24.11l-37.77,93.32h-7.64l-23.33-47.91-23.46,47.91h-7.64L976.65,24.11h26.67l17.22,44,21.11-45.69h7.63l21.11,45.69,17.22-44Z" transform="translate(-4.44 -21.94)"/><path class="cls-3" d="M1186.49,115.77,1165.8,87.3h-9.86v28.47h-23.88V24.11h36c20.42,0,35.42,12.5,35.42,31.53A29.82,29.82,0,0,1,1189,81.74l24.17,34Zm-30.55-49.3h12.22c6.67,0,11-4.31,11-10.83s-4.3-10.7-11-10.7h-12.22Z" transform="translate(-4.44 -21.94)"/><path class="cls-3" d="M1229.55,24.11h63.6V45.64h-39.72V58.28h28.33v20h-28.33v16h41.39v21.53h-65.27Z" transform="translate(-4.44 -21.94)"/><path class="cls-3" d="M1316.62,24.11h63.61V45.64h-39.72V58.28h28.33v20h-28.33v16h41.38v21.53h-65.27Z" transform="translate(-4.44 -21.94)"/><path class="cls-3" d="M1403.7,24.11h23.88V94.24h37.92v21.53h-61.8Z" transform="translate(-4.44 -21.94)"/><path class="cls-3" d="M54.8,174.09c16.8,0,30.55,7.22,39.44,20.41L77.57,208.66C71.6,200.33,64.38,196,54.38,196c-15.41,0-25,10.14-25,25.55,0,15.69,10.14,26.25,26.39,26.25,8.75,0,15.69-3.06,20.14-8.2v-4.3H54.52V214.78H99.79v28.88a49.65,49.65,0,0,1-18.33,18.47,52.28,52.28,0,0,1-26.66,6.94c-27.5.42-50.27-21-49.86-47.49C4.53,195.19,27.3,173.67,54.8,174.09Z" transform="translate(-4.44 -21.94)"/><path class="cls-3" d="M120.35,175.75h23.89v70.13h37.91v21.53h-61.8Z" transform="translate(-4.44 -21.94)"/><path class="cls-3" d="M201.59,175.75h23.89v91.66H201.59Z" transform="translate(-4.44 -21.94)"/><path class="cls-3" d="M344.07,174.09v93.32H320.19V228.94l-19,22.22h-7.64l-18.88-22.08v38.33H250.75V174.09h7.64l39,47.63,39-47.63Z" transform="translate(-4.44 -21.94)"/><path class="cls-3" d="M369.35,175.75h36c20.41,0,35.41,12.5,35.41,31.53,0,18.74-15.41,31.66-35.41,31.66H393.24v28.47H369.35Zm36.11,42.36c6.66,0,11-4.31,11-10.83s-4.31-10.7-11-10.7H393.24v21.53Z" transform="translate(-4.44 -21.94)"/><path class="cls-3" d="M470.73,236.3c5.42,7.22,11.11,11.8,20.41,11.8,6.25,0,9.45-2.22,9.45-6.66,0-4-2.09-5.28-9.31-8.47l-9.44-4.17c-15.14-6.66-23.19-15.27-23.19-27.63,0-16.25,13.33-27.08,32.08-27.08,15.13,0,25.83,7.22,31.38,18.47l-16,12.22c-4.44-6.67-8.61-9.72-15.14-9.72-5,0-8.19,1.94-8.19,5.83,0,3.33,1.94,5.14,7.92,7.5l10.55,4.44c16,6.67,23.47,14.72,23.47,27.64,0,17.77-14.58,28.6-33.61,28.6-16.52,0-29.85-7.91-36.52-20.55Z" transform="translate(-4.44 -21.94)"/><path class="cls-3" d="M545.31,175.75h63.6v21.53H569.19v12.63h28.33v20H569.19v16h41.39v21.53H545.31Z" transform="translate(-4.44 -21.94)"/><path class="cls-3" d="M688.35,236.3c5.41,7.22,11.11,11.8,20.41,11.8,6.25,0,9.45-2.22,9.45-6.66,0-4-2.09-5.28-9.31-8.47l-9.44-4.17c-15.14-6.66-23.19-15.27-23.19-27.63,0-16.25,13.33-27.08,32.08-27.08,15.13,0,25.83,7.22,31.38,18.47l-16,12.22c-4.44-6.67-8.61-9.72-15.14-9.72-5,0-8.19,1.94-8.19,5.83,0,3.33,1.94,5.14,7.92,7.5l10.55,4.44c16,6.67,23.47,14.72,23.47,27.64,0,17.77-14.58,28.6-33.61,28.6-16.52,0-29.85-7.91-36.52-20.55Z" transform="translate(-4.44 -21.94)"/><path class="cls-3" d="M762.93,175.75h23.88v33.47h33.47V175.75h23.88v91.66H820.28V230.75H786.81v36.66H762.93Z" transform="translate(-4.44 -21.94)"/><path class="cls-3" d="M914,174.09c26.66-.56,50.13,21.24,49.58,47.49.55,26.52-22.92,47.91-49.58,47.49-26.8.42-49.85-21-49.3-47.49C864.17,195.33,887.22,173.53,914,174.09Zm.14,21.94c-14.72,0-25,10.41-25,25.55,0,7.64,2.36,13.89,7,18.61s10.69,6.94,18,6.94c14.16,0,25-10.27,25-25.55S928.32,196,914.16,196Z" transform="translate(-4.44 -21.94)"/><path class="cls-3" d="M1114.27,175.75l-37.77,93.32h-7.64l-23.33-47.91-23.46,47.91h-7.64l-37.78-93.32h26.67l17.22,44,21.11-45.68h7.63l21.11,45.68,17.22-44Z" transform="translate(-4.44 -21.94)"/><path class="cls-3" d="M1186.49,267.41l-20.69-28.47h-9.86v28.47h-23.88V175.75h36c20.42,0,35.42,12.5,35.42,31.53a29.83,29.83,0,0,1-14.45,26.1l24.17,34Zm-30.55-49.3h12.22c6.67,0,11-4.31,11-10.83s-4.3-10.7-11-10.7h-12.22Z" transform="translate(-4.44 -21.94)"/><path class="cls-3" d="M1229.55,175.75h63.6v21.53h-39.72v12.63h28.33v20h-28.33v16h41.39v21.53h-65.27Z" transform="translate(-4.44 -21.94)"/><path class="cls-3" d="M1316.62,175.75h63.61v21.53h-39.72v12.63h28.33v20h-28.33v16h41.38v21.53h-65.27Z" transform="translate(-4.44 -21.94)"/><path class="cls-3" d="M1403.7,175.75h23.88v70.13h37.92v21.53h-61.8Z" transform="translate(-4.44 -21.94)"/><path class="cls-3" d="M54.8,477.36c16.8,0,30.55,7.22,39.44,20.42L77.57,511.94c-6-8.33-13.19-12.64-23.19-12.64-15.41,0-25,10.14-25,25.56,0,15.69,10.14,26.24,26.39,26.24,8.75,0,15.69-3.05,20.14-8.19v-4.3H54.52V518.05H99.79v28.89a49.65,49.65,0,0,1-18.33,18.47,52.28,52.28,0,0,1-26.66,6.94c-27.5.42-50.27-21-49.86-47.49C4.53,498.47,27.3,477,54.8,477.36Z" transform="translate(-4.44 -21.94)"/><path class="cls-3" d="M120.35,479h23.89v70.13h37.91v21.52h-61.8Z" transform="translate(-4.44 -21.94)"/><path class="cls-3" d="M201.59,479h23.89v91.65H201.59Z" transform="translate(-4.44 -21.94)"/><path class="cls-3" d="M344.07,477.36v93.32H320.19V532.22l-19,22.22h-7.64l-18.88-22.08v38.32H250.75V477.36h7.64l39,47.64,39-47.64Z" transform="translate(-4.44 -21.94)"/><path class="cls-3" d="M369.35,479h36c20.41,0,35.41,12.5,35.41,31.52,0,18.75-15.41,31.67-35.41,31.67H393.24v28.46H369.35Zm36.11,42.36c6.66,0,11-4.31,11-10.84s-4.31-10.69-11-10.69H393.24v21.53Z" transform="translate(-4.44 -21.94)"/><path class="cls-3" d="M470.73,539.58c5.42,7.22,11.11,11.8,20.41,11.8,6.25,0,9.45-2.22,9.45-6.66,0-4-2.09-5.28-9.31-8.48l-9.44-4.16c-15.14-6.67-23.19-15.28-23.19-27.64,0-16.24,13.33-27.08,32.08-27.08,15.13,0,25.83,7.22,31.38,18.47l-16,12.22c-4.44-6.66-8.61-9.72-15.14-9.72-5,0-8.19,1.95-8.19,5.84,0,3.33,1.94,5.13,7.92,7.49l10.55,4.45c16,6.66,23.47,14.72,23.47,27.63,0,17.78-14.58,28.61-33.61,28.61-16.52,0-29.85-7.91-36.52-20.55Z" transform="translate(-4.44 -21.94)"/><path class="cls-3" d="M545.31,479h63.6v21.52H569.19v12.64h28.33v20H569.19v16h41.39v21.52H545.31Z" transform="translate(-4.44 -21.94)"/><path class="cls-3" d="M688.35,539.58c5.41,7.22,11.11,11.8,20.41,11.8,6.25,0,9.45-2.22,9.45-6.66,0-4-2.09-5.28-9.31-8.48l-9.44-4.16c-15.14-6.67-23.19-15.28-23.19-27.64,0-16.24,13.33-27.08,32.08-27.08,15.13,0,25.83,7.22,31.38,18.47l-16,12.22c-4.44-6.66-8.61-9.72-15.14-9.72-5,0-8.19,1.95-8.19,5.84,0,3.33,1.94,5.13,7.92,7.49l10.55,4.45c16,6.66,23.47,14.72,23.47,27.63,0,17.78-14.58,28.61-33.61,28.61-16.52,0-29.85-7.91-36.52-20.55Z" transform="translate(-4.44 -21.94)"/><path class="cls-3" d="M762.93,479h23.88V512.5h33.47V479h23.88v91.65H820.28V534H786.81v36.66H762.93Z" transform="translate(-4.44 -21.94)"/><path class="cls-3" d="M914,477.36c26.66-.55,50.13,21.25,49.58,47.5.55,26.52-22.92,47.91-49.58,47.49-26.8.42-49.85-21-49.3-47.49C864.17,498.61,887.22,476.81,914,477.36Zm.14,21.94c-14.72,0-25,10.42-25,25.56,0,7.64,2.36,13.88,7,18.61,4.58,4.58,10.69,6.94,18,6.94,14.16,0,25-10.28,25-25.55S928.32,499.3,914.16,499.3Z" transform="translate(-4.44 -21.94)"/><path class="cls-3" d="M1114.27,479l-37.77,93.32h-7.64l-23.33-47.91-23.46,47.91h-7.64L976.65,479h26.67l17.22,44,21.11-45.69h7.63l21.11,45.69,17.22-44Z" transform="translate(-4.44 -21.94)"/><path class="cls-3" d="M1186.49,570.68l-20.69-28.46h-9.86v28.46h-23.88V479h36c20.42,0,35.42,12.5,35.42,31.52A29.84,29.84,0,0,1,1189,536.66l24.17,34Zm-30.55-49.29h12.22c6.67,0,11-4.31,11-10.84s-4.3-10.69-11-10.69h-12.22Z" transform="translate(-4.44 -21.94)"/><path class="cls-3" d="M1229.55,479h63.6v21.52h-39.72v12.64h28.33v20h-28.33v16h41.39v21.52h-65.27Z" transform="translate(-4.44 -21.94)"/><path class="cls-3" d="M1316.62,479h63.61v21.52h-39.72v12.64h28.33v20h-28.33v16h41.38v21.52h-65.27Z" transform="translate(-4.44 -21.94)"/><path class="cls-3" d="M1403.7,479h23.88v70.13h37.92v21.52h-61.8Z" transform="translate(-4.44 -21.94)"/><path class="cls-3" d="M54.8,629c16.8,0,30.55,7.22,39.44,20.42L77.57,663.58c-6-8.33-13.19-12.64-23.19-12.64-15.41,0-25,10.14-25,25.56,0,15.69,10.14,26.24,26.39,26.24,8.75,0,15.69-3,20.14-8.19v-4.31H54.52V669.69H99.79v28.89a49.79,49.79,0,0,1-18.33,18.47A52.28,52.28,0,0,1,54.8,724c-27.5.42-50.27-21-49.86-47.49C4.53,650.11,27.3,628.59,54.8,629Z" transform="translate(-4.44 -21.94)"/><path class="cls-3" d="M120.35,630.67h23.89V700.8h37.91v21.52h-61.8Z" transform="translate(-4.44 -21.94)"/><path class="cls-3" d="M201.59,630.67h23.89v91.65H201.59Z" transform="translate(-4.44 -21.94)"/><path class="cls-3" d="M344.07,629v93.32H320.19V683.86l-19,22.22h-7.64L274.64,684v38.33H250.75V629h7.64l39,47.63,39-47.63Z" transform="translate(-4.44 -21.94)"/><path class="cls-3" d="M369.35,630.67h36c20.41,0,35.41,12.5,35.41,31.52,0,18.75-15.41,31.66-35.41,31.66H393.24v28.47H369.35ZM405.46,673c6.66,0,11-4.3,11-10.83s-4.31-10.69-11-10.69H393.24V673Z" transform="translate(-4.44 -21.94)"/><path class="cls-3" d="M470.73,691.22c5.42,7.22,11.11,11.8,20.41,11.8,6.25,0,9.45-2.22,9.45-6.67,0-4-2.09-5.27-9.31-8.47l-9.44-4.16c-15.14-6.67-23.19-15.28-23.19-27.64,0-16.25,13.33-27.08,32.08-27.08,15.13,0,25.83,7.22,31.38,18.47l-16,12.22C501.7,653,497.53,650,491,650c-5,0-8.19,1.95-8.19,5.83,0,3.34,1.94,5.14,7.92,7.5l10.55,4.45c16,6.66,23.47,14.72,23.47,27.63,0,17.78-14.58,28.61-33.61,28.61-16.52,0-29.85-7.92-36.52-20.55Z" transform="translate(-4.44 -21.94)"/><path class="cls-3" d="M545.31,630.67h63.6v21.52H569.19v12.64h28.33v20H569.19v16h41.39v21.52H545.31Z" transform="translate(-4.44 -21.94)"/><path class="cls-3" d="M688.35,691.22c5.41,7.22,11.11,11.8,20.41,11.8,6.25,0,9.45-2.22,9.45-6.67,0-4-2.09-5.27-9.31-8.47l-9.44-4.16c-15.14-6.67-23.19-15.28-23.19-27.64,0-16.25,13.33-27.08,32.08-27.08,15.13,0,25.83,7.22,31.38,18.47l-16,12.22c-4.44-6.66-8.61-9.72-15.14-9.72-5,0-8.19,1.95-8.19,5.83,0,3.34,1.94,5.14,7.92,7.5l10.55,4.45c16,6.66,23.47,14.72,23.47,27.63,0,17.78-14.58,28.61-33.61,28.61-16.52,0-29.85-7.92-36.52-20.55Z" transform="translate(-4.44 -21.94)"/><path class="cls-3" d="M762.93,630.67h23.88v33.47h33.47V630.67h23.88v91.65H820.28V685.66H786.81v36.66H762.93Z" transform="translate(-4.44 -21.94)"/><path class="cls-3" d="M914,629c26.66-.55,50.13,21.25,49.58,47.5C964.15,703,940.68,724.41,914,724c-26.8.42-49.85-21-49.3-47.49C864.17,650.25,887.22,628.45,914,629Zm.14,21.94c-14.72,0-25,10.42-25,25.56,0,7.63,2.36,13.88,7,18.6s10.69,6.95,18,6.95c14.16,0,25-10.28,25-25.55S928.32,650.94,914.16,650.94Z" transform="translate(-4.44 -21.94)"/><path class="cls-3" d="M1114.27,630.67,1076.5,724h-7.64l-23.33-47.91L1022.07,724h-7.64l-37.78-93.32h26.67l17.22,44L1041.65,629h7.63l21.11,45.69,17.22-44Z" transform="translate(-4.44 -21.94)"/><path class="cls-3" d="M1186.49,722.32l-20.69-28.47h-9.86v28.47h-23.88V630.67h36c20.42,0,35.42,12.5,35.42,31.52A29.85,29.85,0,0,1,1189,688.3l24.17,34ZM1155.94,673h12.22c6.67,0,11-4.3,11-10.83s-4.3-10.69-11-10.69h-12.22Z" transform="translate(-4.44 -21.94)"/><path class="cls-3" d="M1229.55,630.67h63.6v21.52h-39.72v12.64h28.33v20h-28.33v16h41.39v21.52h-65.27Z" transform="translate(-4.44 -21.94)"/><path class="cls-3" d="M1316.62,630.67h63.61v21.52h-39.72v12.64h28.33v20h-28.33v16h41.38v21.52h-65.27Z" transform="translate(-4.44 -21.94)"/><path class="cls-3" d="M1403.7,630.67h23.88V700.8h37.92v21.52h-61.8Z" transform="translate(-4.44 -21.94)"/></g></g></svg>