<svg xmlns="http://www.w3.org/2000/svg" xmlns:xlink="http://www.w3.org/1999/xlink" width="22.793" height="22.793" viewBox="0 0 22.793 22.793">
  <defs>
    <linearGradient id="linear-gradient" x1="0.083" y1="0.5" x2="0.917" y2="0.5" gradientUnits="objectBoundingBox">
      <stop offset="0" stop-color="#fcdc00"/>
      <stop offset="0.096" stop-color="#fbc519"/>
      <stop offset="0.321" stop-color="#fa944e"/>
      <stop offset="0.53" stop-color="#f96e78"/>
      <stop offset="0.719" stop-color="#f85296"/>
      <stop offset="0.879" stop-color="#f841a9"/>
      <stop offset="0.993" stop-color="#f83cb0"/>
      <stop offset="1" stop-color="#f83cb0"/>
    </linearGradient>
  </defs>
  <path id="Path_414" data-name="Path 414" d="M205.727,446.593a3.815,3.815,0,1,1,.006,0h-.006m-5.85-3.88a5.856,5.856,0,1,0,5.853-5.787H205.7a5.852,5.852,0,0,0-5.827,5.787m11.9-7.382a1.351,1.351,0,1,0,.033,0h-.033m-6.038-1.95c1.589.035,3.179.058,4.769.107a5.266,5.266,0,0,1,2.444.6,3.857,3.857,0,0,1,1.912,2.654,9.224,9.224,0,0,1,.2,2.041q.018,4,0,7.992a8.535,8.535,0,0,1-.246,2.227,3.832,3.832,0,0,1-3.223,2.935,10.239,10.239,0,0,1-1.782.167c-2.723.018-5.444.014-8.167,0a8.16,8.16,0,0,1-2.138-.245,3.859,3.859,0,0,1-2.933-3.191,14.616,14.616,0,0,1-.2-2.879c-.01-2.344.007-4.69.027-7.035a8.473,8.473,0,0,1,.252-2.225,3.849,3.849,0,0,1,3.189-2.911,17.736,17.736,0,0,1,3.14-.2c.918-.017,1.835,0,2.752,0v-.035m-3.8-1.981a11.912,11.912,0,0,0-2.6.239,5.869,5.869,0,0,0-4.632,4.277,10.849,10.849,0,0,0-.359,3.084q-.025,3.779,0,7.558a11.914,11.914,0,0,0,.237,2.6,5.881,5.881,0,0,0,4.666,4.747,14.363,14.363,0,0,0,3.185.271c1.1.017,2.194,0,3.291,0s2.218.012,3.327,0a14.782,14.782,0,0,0,3.014-.24,5.879,5.879,0,0,0,4.785-4.69,14.1,14.1,0,0,0,.267-3.2q.021-3.266,0-6.531a14.559,14.559,0,0,0-.243-3.084,5.866,5.866,0,0,0-4.383-4.692,11.057,11.057,0,0,0-2.985-.332q-1.866-.014-3.733-.013-1.92,0-3.841.012" transform="translate(-194.339 -431.388)" fill="url(#linear-gradient)"/>
</svg>
