<svg xmlns="http://www.w3.org/2000/svg" width="22.793" height="21.764" viewBox="0 0 22.793 21.764">
  <path id="Path_410" data-name="Path 410" d="M194.339,715.511h4.172V699.743h-4.172Zm12.295-13.454v-2.314h-3.875v15.768h4.174v-7.14a13.652,13.652,0,0,1,.318-3.626,2.951,2.951,0,0,1,1.18-1.567,3.335,3.335,0,0,1,1.946-.6,2.477,2.477,0,0,1,1.448.414,2.311,2.311,0,0,1,.868,1.169,12.355,12.355,0,0,1,.269,3.3v8.047h4.17v-9.8a12.757,12.757,0,0,0-.231-2.806,4.541,4.541,0,0,0-.814-1.75,4.252,4.252,0,0,0-1.73-1.272,6.454,6.454,0,0,0-7.723,2.171M194.339,697.6h4.172v-3.856h-4.172Z" transform="translate(-194.339 -693.747)" fill="#fff"/>
</svg>
