<svg xmlns="http://www.w3.org/2000/svg" xmlns:xlink="http://www.w3.org/1999/xlink" width="393.318" height="72.726" viewBox="0 0 393.318 72.726">
  <defs>
    <clipPath id="clip-path">
      <path id="Rectangle_130" data-name="Rectangle 130" d="M8.6,0H64.127a8.6,8.6,0,0,1,8.6,8.6V64.129a8.6,8.6,0,0,1-8.6,8.6H8.6a8.6,8.6,0,0,1-8.6-8.6V8.6A8.6,8.6,0,0,1,8.6,0Z" transform="translate(121.626 121.888)" fill="none"/>
    </clipPath>
  </defs>
  <g id="LOGO" transform="translate(-121.625 -121.888)">
    <g id="Group_258" data-name="Group 258">
      <g id="Group_255" data-name="Group 255">
        <path id="Path_417" data-name="Path 417" d="M234.289,155.906h20.266a56.183,56.183,0,0,1-.26,5.678,20.15,20.15,0,0,1-1.042,4.743,18.966,18.966,0,0,1-2.969,5.444,17.372,17.372,0,0,1-4.4,3.959,20.705,20.705,0,0,1-5.548,2.423,23.836,23.836,0,0,1-6.357.833,22.333,22.333,0,0,1-8.362-1.511,18.855,18.855,0,0,1-6.486-4.245,19.244,19.244,0,0,1-4.22-6.566,24.538,24.538,0,0,1-.026-16.879,18.455,18.455,0,0,1,4.22-6.538,19.16,19.16,0,0,1,6.591-4.22,23.364,23.364,0,0,1,8.6-1.511,21.305,21.305,0,0,1,10.784,2.657,18.39,18.39,0,0,1,7.346,8.231l-9.69,4.012a9.878,9.878,0,0,0-3.516-4.638,8.839,8.839,0,0,0-4.924-1.406,9.888,9.888,0,0,0-4.168.86,9.042,9.042,0,0,0-3.2,2.448,11.775,11.775,0,0,0-2.084,3.829,15.593,15.593,0,0,0-.755,5,15.806,15.806,0,0,0,.651,4.637,10.427,10.427,0,0,0,1.954,3.7,8.808,8.808,0,0,0,3.229,2.422,10.9,10.9,0,0,0,4.481.86,12.364,12.364,0,0,0,2.918-.339,7.7,7.7,0,0,0,2.527-1.094,6.2,6.2,0,0,0,1.849-1.954,7.812,7.812,0,0,0,.99-2.917h-8.388Z" fill="#ffebeb"/>
        <path id="Path_418" data-name="Path 418" d="M281.646,138.609v30.634h12.243v8.649H271.434V138.609Z" fill="#ffebeb"/>
        <rect id="Rectangle_129" data-name="Rectangle 129" width="10.212" height="39.283" transform="translate(309.571 138.609)" fill="#ffebeb"/>
        <path id="Path_419" data-name="Path 419" d="M336.662,177.892l6.668-39.283h10.108l7.866,20.943,7.816-20.943h10.106l6.669,39.283H375.736l-3.386-22.61-9.274,22.61h-4.064l-8.8-22.61-3.387,22.61Z" fill="#ffebeb"/>
        <path id="Path_420" data-name="Path 420" d="M412.986,177.892H402.774V138.609h16.255q6.617,0,10.133,3.438t3.517,9.691q0,6.252-3.517,9.69t-10.133,3.44h-6.043Zm0-21.257h3.386q5.626,0,5.627-4.9t-5.627-4.9h-3.386Z" fill="#ffebeb"/>
        <path id="Path_421" data-name="Path 421" d="M470.086,148.664a12.66,12.66,0,0,0-3.334-2.005,8.859,8.859,0,0,0-3.23-.651,5.236,5.236,0,0,0-3.23.938,2.921,2.921,0,0,0-1.251,2.449,2.432,2.432,0,0,0,.625,1.718,5.405,5.405,0,0,0,1.642,1.172,13.923,13.923,0,0,0,2.292.86q1.276.366,2.527.782a15.778,15.778,0,0,1,7.32,4.454,10.994,10.994,0,0,1,2.318,7.267,14.163,14.163,0,0,1-1.016,5.472,11.4,11.4,0,0,1-2.97,4.193,13.683,13.683,0,0,1-4.793,2.71,20,20,0,0,1-6.435.963,23.657,23.657,0,0,1-13.806-4.428l4.377-8.231a17.739,17.739,0,0,0,4.533,3.02,10.858,10.858,0,0,0,4.428.991,5.284,5.284,0,0,0,3.726-1.147,3.488,3.488,0,0,0,1.224-2.6,3.535,3.535,0,0,0-.312-1.536,3.345,3.345,0,0,0-1.043-1.2,8.354,8.354,0,0,0-1.9-1.016q-1.173-.47-2.84-1.043-1.98-.622-3.882-1.38a12.2,12.2,0,0,1-3.386-2,9.326,9.326,0,0,1-2.4-3.153,11.138,11.138,0,0,1-.912-4.819,13.916,13.916,0,0,1,.964-5.288,11.743,11.743,0,0,1,2.709-4.064,12.055,12.055,0,0,1,4.271-2.63,16.14,16.14,0,0,1,5.654-.938,24.764,24.764,0,0,1,6.1.807,26.894,26.894,0,0,1,6.1,2.371Z" fill="#ffebeb"/>
        <path id="Path_422" data-name="Path 422" d="M514.943,147.258H502.8v6.564h11.461v8.65H502.8v6.772h12.139v8.648H492.592V138.61h22.351Z" fill="#ffebeb"/>
        <path id="Path_423" data-name="Path 423" d="M185.753,194.613h-55.53a8.6,8.6,0,0,1-8.6-8.6v-55.53a8.6,8.6,0,0,1,8.6-8.6h55.53a8.6,8.6,0,0,1,8.6,8.6v55.53a8.6,8.6,0,0,1-8.6,8.6" fill="#fcdc00"/>
      </g>
      <g id="Group_257" data-name="Group 257">
        <g id="Group_256" data-name="Group 256" clip-path="url(#clip-path)">
          <path id="Path_424" data-name="Path 424" d="M156.953,227.4a20.488,20.488,0,0,1-9.655-2.122,15.024,15.024,0,0,1-6.206-5.941,17.809,17.809,0,0,1-2.175-8.964,26.521,26.521,0,0,1,2.758-12.307,34.052,34.052,0,0,1,8.541-10.238,8.541,8.541,0,0,1-4.3-2.891,7.351,7.351,0,0,1-1.22-4.27,12.1,12.1,0,0,1,2.706-7.427,43.277,43.277,0,0,1,6.206-6.577,10.62,10.62,0,0,1,7-3.024,5.325,5.325,0,0,1,3.289,1.035,3.462,3.462,0,0,1,1.379,2.944,4.737,4.737,0,0,1-.5,2.1,3.8,3.8,0,0,1-1.459,1.618l-.636-.053a5.384,5.384,0,0,0-2.228-1.432,7.433,7.433,0,0,0-2.334-.424,8.126,8.126,0,0,0-3.66.742,5.5,5.5,0,0,0-2.228,1.883,4.112,4.112,0,0,0-.743,2.254,4.486,4.486,0,0,0,1.936,3.74,8.773,8.773,0,0,0,5.384,1.459q.742,0,1.539-.079a3.839,3.839,0,0,0,1.326-.345l1.432-.743q1.855-1.007,3.793-2.2t3.739-2.52l.9.637a17.356,17.356,0,0,1-2.015,3.341,10.833,10.833,0,0,1-3.714,3.342q-1.113.585-2.838,1.592t-4.058,2.546a52.946,52.946,0,0,0-7.373,5.516,20.988,20.988,0,0,0-4.853,6.287,15.443,15.443,0,0,0-1.406,6.55,12.328,12.328,0,0,0,.716,4.111,10.049,10.049,0,0,0,2.387,3.74,11.717,11.717,0,0,0,4.509,2.706,21.591,21.591,0,0,0,7.134,1.008,30.585,30.585,0,0,0,6.26-.69,27.2,27.2,0,0,0,6.577-2.334,24.964,24.964,0,0,0,6.233-4.509,27.335,27.335,0,0,0,5.172-7.214l1.75.583a66.809,66.809,0,0,1-3.447,7.48,55.788,55.788,0,0,1-4.589,7.187,36.4,36.4,0,0,1-5.782,6.1,26.87,26.87,0,0,1-7,4.244,21.418,21.418,0,0,1-8.248,1.565m-2.122-67.845q-1.38-1.326-2.2-2.069t-1.379-1.22q-.557-.477-1.3-1.008v-.53a15.9,15.9,0,0,1,1.061-1.432q.688-.849,1.512-1.724t1.511-1.566a8.259,8.259,0,0,1,1.008-.9h.531a23.591,23.591,0,0,1,3.368,2.493,3.253,3.253,0,0,1,1.193,2.387,4.142,4.142,0,0,1-1.511,2.812,24.843,24.843,0,0,1-3.369,2.758Z" fill="#0c0b0b"/>
          <path id="Path_425" data-name="Path 425" d="M168.85,127.378s-1.26,6.709-3.548,9.21c-.369.311-1.494,1.086-3.025-.62a21.212,21.212,0,0,1-2.812-4.557s-4.5,3.432-8.008,3.471-4.072-2.5-4.421-3.122c-.214,1.609-1.125,6.283,2.113,7.136a18.508,18.508,0,0,0,4.441-.33,14.375,14.375,0,0,0,5.778-2.618c.31.7,2.307,5.178,4.285,5.721s3.355-3.18,3.665-3.762,1.881-4.373,1.532-10.529" fill="#fff"/>
        </g>
      </g>
    </g>
  </g>
</svg>
