<svg xmlns="http://www.w3.org/2000/svg" xmlns:xlink="http://www.w3.org/1999/xlink" viewBox="0 0 165.72 156.85"><defs><style>.cls-1{fill:url(#linear-gradient);}.cls-2{fill:url(#linear-gradient-2);}.cls-3{fill:url(#linear-gradient-3);}</style><linearGradient id="linear-gradient" x1="58.9" y1="37.52" x2="84.71" y2="62.08" gradientUnits="userSpaceOnUse"><stop offset="0" stop-color="#7237bd"/><stop offset="1" stop-color="#fd0988"/></linearGradient><linearGradient id="linear-gradient-2" x1="110.63" y1="97.19" x2="131.23" y2="116.79" xlink:href="#linear-gradient"/><linearGradient id="linear-gradient-3" x1="32.12" y1="115.22" x2="48.93" y2="131.21" gradientUnits="userSpaceOnUse"><stop offset="0" stop-color="#fcdc00"/><stop offset="0.1" stop-color="#fbc519"/><stop offset="0.32" stop-color="#fa954e"/><stop offset="0.53" stop-color="#f96e79"/><stop offset="0.72" stop-color="#f95397"/><stop offset="0.88" stop-color="#f842a9"/><stop offset="0.99" stop-color="#f83cb0"/><stop offset="1" stop-color="#f83cb0"/></linearGradient></defs><g id="Layer_2" data-name="Layer 2"><g id="HOME_PAGE" data-name="HOME PAGE"><g id="METEORS"><path class="cls-1" d="M10.32,88.67,134,0,19.09,99.78A7.09,7.09,0,1,1,9.8,89.08C10,88.94,10.14,88.8,10.32,88.67Z"/><path class="cls-2" d="M76.91,132.72l88.81-62.44L85.79,143.74a7.09,7.09,0,1,1-9.6-10.44C76.41,133.1,76.68,132.89,76.91,132.72Z"/><path class="cls-3" d="M2.36,146.56l76.9-55.44L9.53,155.35A5.68,5.68,0,0,1,1.83,147C2,146.84,2.19,146.69,2.36,146.56Z"/></g></g></g></svg>