<svg xmlns="http://www.w3.org/2000/svg" width="22.793" height="18.62" viewBox="0 0 22.793 18.62">
  <path id="Path_412" data-name="Path 412" d="M206.993,628.309c0-.018,0-.036.005-.054h.018c0,.019,0,.037,0,.056h-.027m2.075-16.584a4.674,4.674,0,0,0-3.542,5.432c.012.066.022.132.035.215a12.737,12.737,0,0,1-2.748-.423,13.418,13.418,0,0,1-6.96-4.481,4.522,4.522,0,0,0-.62,2.206,4.722,4.722,0,0,0,2.058,4.05,4.153,4.153,0,0,1-1.072-.151,5.272,5.272,0,0,1-1.028-.413,4.586,4.586,0,0,0,.547,2.233,4.736,4.736,0,0,0,3.192,2.416.3.3,0,0,1-.094.041,4.615,4.615,0,0,1-1.854.076c-.037-.006-.077-.005-.13-.009a4.6,4.6,0,0,0,.5,1.06,4.713,4.713,0,0,0,.729.882,4.78,4.78,0,0,0,.93.687,4.633,4.633,0,0,0,1.056.434,6.2,6.2,0,0,0,1.138.185,8.622,8.622,0,0,1-1.97,1.2,9.666,9.666,0,0,1-4.9.78c.034.022.068.046.1.067a13.315,13.315,0,0,0,1.62.856,13,13,0,0,0,4.721,1.123,14.148,14.148,0,0,0,2.188-.054,14.37,14.37,0,0,0,1.807-.3,12.528,12.528,0,0,0,6.477-3.818,13.779,13.779,0,0,0,3.166-5.876,12.965,12.965,0,0,0,.4-2.381,10.693,10.693,0,0,0,.026-1.4.232.232,0,0,1,.1-.229,9.343,9.343,0,0,0,2.126-2.185.214.214,0,0,0,.058-.113,8.94,8.94,0,0,1-2.609.688.4.4,0,0,1,.1-.08A4.674,4.674,0,0,0,216.5,612.1c.014-.037.024-.074.043-.136l-.135.073a9.54,9.54,0,0,1-2.723,1.028.184.184,0,0,1-.189-.063,4.6,4.6,0,0,0-3.275-1.406,5.27,5.27,0,0,0-1.149.133" transform="translate(-194.339 -611.592)" fill="#fff"/>
</svg>
