<svg xmlns="http://www.w3.org/2000/svg" xmlns:xlink="http://www.w3.org/1999/xlink" viewBox="0 0 226.35 161.71"><defs><style>.cls-1{fill:none;stroke-miterlimit:10;stroke-width:1.42px;stroke:url(#linear-gradient);}</style><linearGradient id="linear-gradient" y1="80.85" x2="226.35" y2="80.85" gradientUnits="userSpaceOnUse"><stop offset="0" stop-color="#7237bd"/><stop offset="1" stop-color="#fd0988"/></linearGradient></defs><g id="Layer_2" data-name="Layer 2"><g id="TEAM"><path class="cls-1" d="M214.63.19c.37,29.16-1.52,76.25-15.75,101.67a18.61,18.61,0,0,1-12.38,7.53c-7.92.91-15.41-3.2-21.53-7.8C150.42,90.45,138.32,76.46,127.2,62l1.23.05a251.33,251.33,0,0,1-27.49,26.72c-19.19,15.76-43.77,31.92-69.77,27.05C21.5,113.9,13,108,7,100.23,5,97.81,3.28,95,1.34,92.61l1.75-.74c.31,4.14.55,8.25.92,12.35,1.54,15.62,4.22,33.62,15.08,45.66A28.31,28.31,0,0,0,40.45,159a40.16,40.16,0,0,0,6-.83c10-2.17,19.75-5.65,29.41-9.2C99,140.63,119.78,125.81,136,107.32l.75-.86.67.92C149,123.16,165.59,144,183,153.2c5.59,2.81,12,4.42,17.75,1.13,12-7,16.71-27.22,19.65-40,.53-2.45,1.26-5,1.76-7.49,2.81-15.11,3.14-30.62,2.37-46A310.66,310.66,0,0,0,214.63.19c8.1,29.67,12.67,60.75,10.45,91.53a125.57,125.57,0,0,1-2.3,17.25c-1.13,4.34-2,8.78-3.07,13.15-3.87,15.68-12.8,42.1-33.81,34a39.2,39.2,0,0,1-5.34-2.47c-9.63-5.42-17.6-13.24-25.11-21.22a263.61,263.61,0,0,1-19.52-24l1.41.06a152.93,152.93,0,0,1-49.25,37.59c-3.76,1.81-7.67,3.23-11.56,4.71-7.77,2.91-15.6,5.65-23.61,7.85-5.08,1.28-10.3,2.76-15.62,2.24C19.67,159.35,10.42,144.72,6.14,129,2.46,116,1.82,102.35.86,88.93l2,2.35c2.08,2.56,3.69,5.19,5.73,7.7,15.58,20.42,40.66,18.58,61.69,8.18A157.07,157.07,0,0,0,99.82,87.4a254.13,254.13,0,0,0,28.07-27.12c10.43,14.08,33.7,42,50.19,47.11A17.32,17.32,0,0,0,198,101.27a72.54,72.54,0,0,0,5.32-11.61c4.39-12.17,6.66-25,8.34-37.79A405.8,405.8,0,0,0,214.63.19Z"/></g></g></svg>