<svg xmlns="http://www.w3.org/2000/svg" width="226.344" height="161.676" viewBox="0 0 226.344 161.676">
  <path id="Path_40" data-name="Path 40" d="M1757.683,8716.456c.368,29.163-1.52,76.256-15.753,101.67a18.561,18.561,0,0,1-12.372,7.531c-7.928.915-15.415-3.2-21.532-7.8-14.553-11.14-26.648-25.123-37.768-39.607l1.223.048a251.712,251.712,0,0,1-27.485,26.72c-19.192,15.764-43.767,31.924-69.767,27.048-9.67-1.9-18.187-7.848-24.156-15.568-2-2.421-3.735-5.248-5.682-7.62l1.757-.743c.309,4.146.543,8.253.916,12.355,1.544,15.624,4.222,33.623,15.085,45.66a28.316,28.316,0,0,0,21.357,9.094,40.433,40.433,0,0,0,5.975-.837c10.044-2.165,19.755-5.646,29.411-9.2,23.19-8.312,43.945-23.132,60.137-41.619l.746-.861.665.919c11.644,15.779,28.2,36.646,45.572,45.817,5.593,2.808,11.974,4.42,17.755,1.133,11.982-6.969,16.711-27.219,19.646-39.981.53-2.449,1.265-5.011,1.762-7.489,2.811-15.112,3.142-30.623,2.372-45.958a310.362,310.362,0,0,0-9.864-60.716c8.1,29.675,12.675,60.751,10.45,91.536a124.172,124.172,0,0,1-2.3,17.247c-1.128,4.344-1.964,8.78-3.063,13.146-3.872,15.687-12.8,42.107-33.81,33.976a39.8,39.8,0,0,1-5.341-2.474c-9.632-5.42-17.6-13.232-25.11-21.216a264.55,264.55,0,0,1-19.524-23.964l1.412.058a152.928,152.928,0,0,1-49.252,37.6c-3.755,1.8-7.671,3.227-11.554,4.709-7.774,2.9-15.6,5.644-23.616,7.843-5.08,1.289-10.3,2.762-15.613,2.245-17.632-1.536-26.881-16.172-31.168-31.885-3.682-13.035-4.321-26.655-5.276-40.074l1.984,2.348c2.085,2.56,3.693,5.192,5.738,7.7,15.574,20.421,40.657,18.581,61.686,8.174a156.185,156.185,0,0,0,29.55-19.76,253.461,253.461,0,0,0,28.068-27.113c10.429,14.073,33.7,42.015,50.193,47.107a17.308,17.308,0,0,0,19.937-6.116,72.162,72.162,0,0,0,5.327-11.615c4.384-12.168,6.656-25,8.337-37.792a406.586,406.586,0,0,0,2.947-51.68Z" transform="translate(-1543.055 -8716.27)" fill="none" stroke="#707070" stroke-miterlimit="10" stroke-width="1.417"/>
</svg>
