<?xml version="1.0" encoding="UTF-8"?>
<svg id="Layer_2" data-name="Layer 2" xmlns="http://www.w3.org/2000/svg" viewBox="0 0 181.02 181.22">
  <defs>
    <style>
      .cls-1, .cls-2 {
        fill: #fbfbfb;
      }

      .cls-3 {
        fill: #171726;
      }

      .cls-4 {
        fill: #1f1c2f;
      }

      .cls-5 {
        fill: #878787;
      }

      .cls-5, .cls-2, .cls-6 {
        fill-rule: evenodd;
      }
    </style>
  </defs>
  <g id="SEM">
    <g>
      <g>
        <path class="cls-4" d="M181.02,21.4V90.61H0V21.4C0,9.58,9.59,0,21.41,0H159.62c11.82,0,21.4,9.58,21.4,21.4Z"/>
        <path class="cls-3" d="M0,159.82V90.61H181.02v69.21c0,11.82-9.59,21.4-21.41,21.4H21.4c-11.82,0-21.4-9.58-21.4-21.4Z"/>
      </g>
      <g>
        <path class="cls-5" d="M149.94,103.66h-23.35c0,1.41,.94,4.01,6.87,4.66-4.35,3.99-29.72,25.47-42.86,25.47s-38.46-21.48-42.8-25.47c3.17-.35,4.88-1.27,5.81-2.22,.93-.95,1.06-1.94,1.06-2.44H31.08v-31.2h25.37c-.08-1.35-.67-2.56-1.6-3.43-.93-.87-2.17-1.4-3.54-1.4v-11.28c23.31-.82,34.26-8.42,39.28-12.27,2.51,1.92,6.5,4.79,12.76,7.27,6.27,2.48,14.83,4.59,26.48,5v11.28c-1.37,0-2.62,.53-3.54,1.4s-1.52,2.08-1.6,3.43h25.24v31.2Z"/>
        <path class="cls-6" d="M115.55,82.7c-.15-.17-.37-.21-.68-.21h-.56v10.98h.56c.31,0,.53-.04,.68-.21,.15-.17,.22-.47,.22-.98v-8.59c0-.52-.07-.82-.22-.98Z"/>
        <polygon class="cls-6" points="97.45 82.89 97.29 82.89 96.74 89.11 97.92 89.11 97.45 82.89"/>
        <path class="cls-6" d="M90.55,82.7c-.15-.17-.37-.21-.67-.21h-.57v10.98h.57c.3,0,.53-.04,.67-.21,.15-.17,.22-.47,.22-.98v-8.59c0-.52-.07-.82-.22-.98Z"/>
        <path class="cls-6" d="M58.66,82.17h-.94v4.71h.83c.41,0,.67-.18,.82-.43,.15-.25,.19-.58,.19-.87v-2.41c0-.61-.36-.99-.9-.99Z"/>
        <polygon class="cls-6" points="50.87 82.89 50.71 82.89 50.16 89.11 51.33 89.11 50.87 82.89"/>
        <path class="cls-6" d="M115.55,82.7c-.15-.17-.37-.21-.68-.21h-.56v10.98h.56c.31,0,.53-.04,.68-.21,.15-.17,.22-.47,.22-.98v-8.59c0-.52-.07-.82-.22-.98Z"/>
        <polygon class="cls-6" points="97.45 82.89 97.29 82.89 96.74 89.11 97.92 89.11 97.45 82.89"/>
        <path class="cls-6" d="M90.55,82.7c-.15-.17-.37-.21-.67-.21h-.57v10.98h.57c.3,0,.53-.04,.67-.21,.15-.17,.22-.47,.22-.98v-8.59c0-.52-.07-.82-.22-.98Z"/>
        <path class="cls-6" d="M58.66,82.17h-.94v4.71h.83c.41,0,.67-.18,.82-.43,.15-.25,.19-.58,.19-.87v-2.41c0-.61-.36-.99-.9-.99Z"/>
        <polygon class="cls-6" points="50.87 82.89 50.71 82.89 50.16 89.11 51.33 89.11 50.87 82.89"/>
        <g>
          <rect x="36.36" y="77.81" width="108.48" height="20.6"/>
          <polygon class="cls-6" points="46.48 96 44.09 96 44.09 89.11 42.2 89.11 42.2 96 39.81 96 39.81 79.96 42.2 79.96 42.2 86.37 44.09 86.37 44.09 79.96 46.48 79.96 46.48 96"/>
          <polygon class="cls-6" points="52.04 96 51.62 91.83 49.87 91.83 49.38 96 47.22 96 49.04 79.96 52.63 79.96 54.45 96 52.04 96"/>
          <path class="cls-6" d="M62.04,84.98c0,1.19-.21,2.13-1.08,2.81,.13,.14,1.05,.76,1.08,1.84v6.37h-2.39v-5.37c0-.48-.1-.8-.4-1-.29-.2-.78-.28-1.54-.28v6.64h-2.38v-16.04h3.94c.96,0,1.65,.17,2.1,.6,.46,.43,.67,1.12,.67,2.15v2.28Z"/>
          <polygon class="cls-6" points="68.23 96 63.42 96 63.42 79.96 65.81 79.96 65.81 93.46 68.23 93.46 68.23 96"/>
          <polygon class="cls-6" points="74.02 96 69.03 96 69.03 79.96 73.97 79.96 73.97 82.47 71.42 82.47 71.42 86.38 73.86 86.38 73.86 88.92 71.42 88.92 71.42 93.46 74.02 93.46 74.02 96"/>
          <polygon class="cls-6" points="79.56 96 77.17 96 77.17 90.01 74.71 79.96 77.17 79.96 78.45 85.56 79.78 79.96 82.01 79.96 79.56 89.89 79.56 96"/>
          <rect x="81.27" y="86.91" width="4.37" height="2.02"/>
          <path class="cls-6" d="M93.17,93.09c0,1.53-.99,2.9-2.84,2.9h-3.4v-16.04h2.88c1.18,0,2.02,.2,2.57,.76,.54,.56,.79,1.46,.79,2.87v9.51Z"/>
          <polygon class="cls-6" points="98.62 96 98.2 91.83 96.45 91.83 95.97 96 93.8 96 95.63 79.96 99.21 79.96 101.03 96 98.62 96"/>
          <polygon class="cls-6" points="105.19 96 102.52 96 100.28 79.96 102.72 79.96 103.88 89.61 105.04 79.96 107.44 79.96 105.19 96"/>
          <rect x="108.11" y="79.96" width="2.39" height="16.04"/>
          <path class="cls-6" d="M118.16,93.09c0,1.53-.99,2.9-2.84,2.9h-3.4v-16.04h2.88c1.19,0,2.02,.2,2.57,.76,.54,.56,.79,1.46,.79,2.87v9.51Z"/>
          <path class="cls-6" d="M125.93,85.4h-2.39v-2.24c0-.41-.12-.65-.3-.8-.18-.15-.42-.19-.66-.19-.5,0-.95,.18-.95,.99v1.78c0,.57,1.07,1.37,2.13,2.23,1.06,.85,2.13,1.77,2.13,2.58v3.86c0,1.05-.46,1.72-1.11,2.14-.65,.41-1.48,.57-2.23,.57-1.46,0-3.29-.61-3.29-2.7v-3.49h2.39v2.85c0,.41,.1,.65,.27,.8,.17,.15,.4,.19,.65,.19,.47,0,.93-.18,.93-.99v-1.69c0-1.13-1.07-1.85-2.13-2.61-1.07-.77-2.13-1.57-2.13-2.88v-3.44c0-1.05,.47-1.72,1.11-2.14,.65-.41,1.47-.57,2.21-.57,1.49,0,3.36,.61,3.36,2.7v3.05Z"/>
          <path class="cls-6" d="M133.69,93.61c0,2.1-1.92,2.7-3.39,2.7s-3.35-.61-3.35-2.7v-11.26c0-1.05,.47-1.72,1.12-2.14,.65-.41,1.49-.57,2.23-.57,1.46,0,3.39,.61,3.39,2.7v11.26Z"/>
          <polygon class="cls-6" points="141.89 96 138.96 96 137.07 86.87 137.07 96 134.66 96 134.66 79.96 137.9 79.96 139.46 88.12 139.46 79.96 141.89 79.96 141.89 96"/>
        </g>
        <path class="cls-6" d="M114.87,82.49h-.56v10.98h.56c.31,0,.53-.04,.68-.21,.15-.17,.22-.47,.22-.98v-8.59c0-.52-.07-.82-.22-.98-.15-.17-.37-.21-.68-.21Z"/>
        <polygon class="cls-6" points="97.29 82.89 96.74 89.11 97.92 89.11 97.45 82.89 97.29 82.89"/>
        <path class="cls-6" d="M89.88,82.49h-.57v10.98h.57c.3,0,.53-.04,.67-.21,.15-.17,.22-.47,.22-.98v-8.59c0-.52-.07-.82-.22-.98-.15-.17-.37-.21-.67-.21Z"/>
        <path class="cls-6" d="M58.66,82.17h-.94v4.71h.83c.41,0,.67-.18,.82-.43,.15-.25,.19-.58,.19-.87v-2.41c0-.61-.36-.99-.9-.99Z"/>
        <polygon class="cls-6" points="50.71 82.89 50.16 89.11 51.33 89.11 50.87 82.89 50.71 82.89"/>
        <path class="cls-6" d="M114.04,64.29l-3.28-.67v2.82h3.26c.53,0,.62-.47,.62-.97s0-1.06-.59-1.18Z"/>
        <path class="cls-6" d="M102.79,62.02c-.09-.22-.25-.4-.54-.54l-2.23-.88c-.1-.04-.2-.06-.3-.06-.31,0-.58,.22-.58,.71v7.51c0,.25,.06,.48,.2,.64s.35,.27,.66,.27h2.02c.32,0,.54-.08,.68-.23,.14-.15,.2-.36,.2-.62v-5.98c0-.32-.01-.59-.1-.81Z"/>
        <path class="cls-6" d="M81.9,60.53c-.1,0-.2,.02-.3,.06l-2.23,.88c-.29,.15-.46,.32-.54,.54-.09,.22-.1,.48-.1,.81v5.98c0,.26,.06,.48,.2,.62,.14,.15,.36,.23,.68,.23h2.02c.31,0,.52-.1,.66-.27,.14-.16,.2-.39,.2-.64v-7.51c0-.49-.27-.71-.58-.71Z"/>
        <g>
          <rect x="36.36" y="77.81" width="108.48" height="20.6"/>
          <polygon class="cls-6" points="46.48 96 44.09 96 44.09 89.11 42.2 89.11 42.2 96 39.81 96 39.81 79.96 42.2 79.96 42.2 86.37 44.09 86.37 44.09 79.96 46.48 79.96 46.48 96"/>
          <polygon class="cls-6" points="52.04 96 51.62 91.83 49.87 91.83 49.38 96 47.22 96 49.04 79.96 52.63 79.96 54.45 96 52.04 96"/>
          <path class="cls-6" d="M62.04,84.98c0,1.19-.21,2.13-1.08,2.81,.13,.14,1.05,.76,1.08,1.84v6.37h-2.39v-5.37c0-.48-.1-.8-.4-1-.29-.2-.78-.28-1.54-.28v6.64h-2.38v-16.04h3.94c.96,0,1.65,.17,2.1,.6,.46,.43,.67,1.12,.67,2.15v2.28Z"/>
          <polygon class="cls-6" points="68.23 96 63.42 96 63.42 79.96 65.81 79.96 65.81 93.46 68.23 93.46 68.23 96"/>
          <polygon class="cls-6" points="74.02 96 69.03 96 69.03 79.96 73.97 79.96 73.97 82.47 71.42 82.47 71.42 86.38 73.86 86.38 73.86 88.92 71.42 88.92 71.42 93.46 74.02 93.46 74.02 96"/>
          <polygon class="cls-6" points="79.56 96 77.17 96 77.17 90.01 74.71 79.96 77.17 79.96 78.45 85.56 79.78 79.96 82.01 79.96 79.56 89.89 79.56 96"/>
          <rect x="81.27" y="86.91" width="4.37" height="2.02"/>
          <path class="cls-6" d="M93.17,93.09c0,1.53-.99,2.9-2.84,2.9h-3.4v-16.04h2.88c1.18,0,2.02,.2,2.57,.76,.54,.56,.79,1.46,.79,2.87v9.51Z"/>
          <polygon class="cls-6" points="98.62 96 98.2 91.83 96.45 91.83 95.97 96 93.8 96 95.63 79.96 99.21 79.96 101.03 96 98.62 96"/>
          <polygon class="cls-6" points="105.19 96 102.52 96 100.28 79.96 102.72 79.96 103.88 89.61 105.04 79.96 107.44 79.96 105.19 96"/>
          <rect x="108.11" y="79.96" width="2.39" height="16.04"/>
          <path class="cls-6" d="M118.16,93.09c0,1.53-.99,2.9-2.84,2.9h-3.4v-16.04h2.88c1.19,0,2.02,.2,2.57,.76,.54,.56,.79,1.46,.79,2.87v9.51Z"/>
          <path class="cls-6" d="M125.93,85.4h-2.39v-2.24c0-.41-.12-.65-.3-.8-.18-.15-.42-.19-.66-.19-.5,0-.95,.18-.95,.99v1.78c0,.57,1.07,1.37,2.13,2.23,1.06,.85,2.13,1.77,2.13,2.58v3.86c0,1.05-.46,1.72-1.11,2.14-.65,.41-1.48,.57-2.23,.57-1.46,0-3.29-.61-3.29-2.7v-3.49h2.39v2.85c0,.41,.1,.65,.27,.8,.17,.15,.4,.19,.65,.19,.47,0,.93-.18,.93-.99v-1.69c0-1.13-1.07-1.85-2.13-2.61-1.07-.77-2.13-1.57-2.13-2.88v-3.44c0-1.05,.47-1.72,1.11-2.14,.65-.41,1.47-.57,2.21-.57,1.49,0,3.36,.61,3.36,2.7v3.05Z"/>
          <path class="cls-6" d="M133.69,93.61c0,2.1-1.92,2.7-3.39,2.7s-3.35-.61-3.35-2.7v-11.26c0-1.05,.47-1.72,1.12-2.14,.65-.41,1.49-.57,2.23-.57,1.46,0,3.39,.61,3.39,2.7v11.26Z"/>
          <polygon class="cls-6" points="141.89 96 138.96 96 137.07 86.87 137.07 96 134.66 96 134.66 79.96 137.9 79.96 139.46 88.12 139.46 79.96 141.89 79.96 141.89 96"/>
        </g>
        <path class="cls-6" d="M114.87,82.49h-.56v10.98h.56c.31,0,.53-.04,.68-.21,.15-.17,.22-.47,.22-.98v-8.59c0-.52-.07-.82-.22-.98-.15-.17-.37-.21-.68-.21Z"/>
        <polygon class="cls-6" points="97.29 82.89 96.74 89.11 97.92 89.11 97.45 82.89 97.29 82.89"/>
        <path class="cls-6" d="M89.88,82.49h-.57v10.98h.57c.3,0,.53-.04,.67-.21,.15-.17,.22-.47,.22-.98v-8.59c0-.52-.07-.82-.22-.98-.15-.17-.37-.21-.67-.21Z"/>
        <path class="cls-6" d="M58.66,82.17h-.94v4.71h.83c.41,0,.67-.18,.82-.43,.15-.25,.19-.58,.19-.87v-2.41c0-.61-.36-.99-.9-.99Z"/>
        <polygon class="cls-6" points="50.71 82.89 50.16 89.11 51.33 89.11 50.87 82.89 50.71 82.89"/>
        <path class="cls-6" d="M81.9,60.53c-.1,0-.2,.02-.3,.06l-2.23,.88c-.29,.15-.46,.32-.54,.54-.09,.22-.1,.48-.1,.81v5.98c0,.26,.06,.48,.2,.62,.14,.15,.36,.23,.68,.23h2.02c.31,0,.52-.1,.66-.27,.14-.16,.2-.39,.2-.64v-7.51c0-.49-.27-.71-.58-.71Z"/>
        <path class="cls-6" d="M102.79,62.02c-.09-.22-.25-.4-.54-.54l-2.23-.88c-.1-.04-.2-.06-.3-.06-.31,0-.58,.22-.58,.71v7.51c0,.25,.06,.48,.2,.64s.35,.27,.66,.27h2.02c.32,0,.54-.08,.68-.23,.14-.15,.2-.36,.2-.62v-5.98c0-.32-.01-.59-.1-.81Z"/>
        <path class="cls-6" d="M114.04,64.29l-3.28-.67v2.82h3.26c.53,0,.62-.47,.62-.97s0-1.06-.59-1.18Z"/>
        <path class="cls-6" d="M149.94,72.47h-25.24c.08-1.35,.67-2.56,1.6-3.43s2.17-1.4,3.54-1.4v-11.28c-11.65-.41-20.21-2.51-26.48-5-6.26-2.49-10.25-5.35-12.76-7.27-5.02,3.85-15.96,11.45-39.28,12.27v11.28c1.37,0,2.61,.53,3.54,1.4,.92,.87,1.52,2.08,1.6,3.43H31.08v31.2h23.59c0,.5-.13,1.49-1.06,2.44-.93,.95-2.64,1.86-5.81,2.22,4.34,3.99,29.66,25.47,42.8,25.47s38.52-21.48,42.86-25.47c-5.93-.64-6.87-3.25-6.87-4.66h23.35v-31.2Z"/>
        <g>
          <path class="cls-2" d="M117.38,69.6v2.87h-2.76v-2.25c0-.35-.21-.61-.47-.78-.26-.17-.57-.25-.76-.25h-2.64v3.28h-2.76v-12.11l6.63,1.38c.47,.1,1.16,.31,1.73,.72,.57,.41,1.03,1.02,1.03,1.92v1.97c0,.35-.02,.68-.16,.98-.13,.3-.37,.57-.81,.78,.41,.23,.97,1.03,.97,1.5Z"/>
          <path class="cls-2" d="M105.65,62.24v7.61c0,.93-.57,2.62-2.9,2.62h-3.61c-.6,0-1.29-.16-1.83-.59-.54-.43-.93-1.14-.93-2.22v-10.8c0-1.02,.83-1.75,1.89-1.75,.29,0,.59,.05,.9,.16l4.81,1.85c1.14,.46,1.67,1.44,1.67,3.11Z"/>
          <polygon class="cls-2" points="85.58 59.01 85.58 55.96 90.6 53.23 95.85 56.1 95.85 59.15 92.21 57.19 92.21 72.47 89.22 72.47 89.22 57.01 85.58 59.01"/>
          <path class="cls-2" d="M85.23,58.86v10.8c0,1.09-.39,1.79-.93,2.22-.54,.43-1.23,.59-1.83,.59h-3.61c-2.33,0-2.9-1.69-2.9-2.62v-7.61c0-1.67,.53-2.65,1.67-3.11l4.81-1.85c.31-.11,.61-.16,.9-.16,1.07,0,1.89,.73,1.89,1.75Z"/>
          <polygon class="cls-2" points="69.42 72.47 67.16 67.63 67.16 72.47 64.4 72.47 64.4 62.29 67.16 61.79 69.33 66.43 71.74 60.83 74.32 60.15 74.32 72.47 71.56 72.47 71.56 67.46 69.42 72.47"/>
        </g>
        <g>
          <path class="cls-2" d="M66.91,111.01c.16,.1,6.35,4.93,6.35,4.93v2.94s-2.18-1.63-4.39-3.27c-2.21-1.65-4.45-3.31-4.58-3.39-.32-.21-.74-.94-.84-1.47-.1-.52,0-4.72,0-5.19s.52-1.89,1.26-1.89h6.77v2.78h-4.04c-.06,0-.12,0-.17,0-.52,0-.83,.22-.83,.74v3.1c0,.21,.26,.63,.47,.73Z"/>
          <path class="cls-2" d="M73.1,103.66h2.83l1.52,4.72,2.47-4.72h2.68l-3.83,8.29v9.92c0,.06-.05,.09-.14,.09-.54,0-2.55-1.14-2.59-1.45-.1-.37,0-8.66,0-8.66l-2.94-8.19Z"/>
          <path class="cls-2" d="M86.33,121.66c.16,.31,3.62,1.94,3.62,1.94v3.25s-1.39-.59-2.85-1.24c-1.46-.66-2.98-1.38-3.24-1.64-.58-.57-.63-1.2-.63-1.47v-16.48c0-.5,.5-1.09,1.05-1.55,.56-.46,1.18-.8,1.41-.8h4.09v2.99c0,.05-.59,.08-1.25,.08s-1.4-.02-1.69-.08c-.31-.05-.73,.36-.73,1.84v12.17c0,.26,0,.73,.21,1Z"/>
          <path class="cls-2" d="M98.14,120.87v2.84s-1.15,.51-2.4,1.07c-1.24,.56-2.59,1.16-2.95,1.34-.42,.21-.89-.16-.89-.79v-21.67h3.15v18.47l3.1-1.26Z"/>
          <path class="cls-2" d="M104.91,110.91v2.41h-2.94v5.83l3.57-1.68v2.57l-4.72,2.36c-.16,.07-.32,.1-.48,.1-.44,0-.83-.24-.83-.63v-17.16c0-.34,.15-.6,.35-.78,.21-.18,.47-.27,.7-.27h5.51v2.99h-4.09v4.25h2.94Z"/>
          <path class="cls-2" d="M113.98,111.11s-4.62,.1-5.46,0c-.79-.1-1.1-.26-1.1-.84,0-.52-.05-3.99,0-4.99,.1-.99,1.68-1.51,2.42-1.62,.68-.05,6.93,0,6.93,0v2.72h-6.67c-.12,0-.18,.51-.18,1.04,0,.59,.07,1.22,.18,1.22h5.99c.67,0,.74,.13,.74,.38,0,.06,0,.13,0,.2v3.36c0,.18-.13,.38-.29,.56-.16,.18-.34,.33-.45,.44-.16,.16-8.92,5.46-8.92,5.46v-2.36s1.75-1.1,3.5-2.24c1.75-1.14,3.51-2.33,3.53-2.48,.1-.47-.21-.84-.21-.84Z"/>
        </g>
        <g>
          <path class="cls-2" d="M53.89,65.7v-7.04c10.55-.55,18.43-2.4,24.32-4.61,5.89-2.21,9.78-4.76,12.38-6.71,5.56,3.94,15.57,10.22,36.66,11.32v7.04c-1.45,.52-2.68,1.41-3.57,2.57-.89,1.16-1.43,2.6-1.48,4.2h-2.54c.04-1.81,.56-3.47,1.43-4.88,.88-1.41,2.1-2.59,3.57-3.46v-3.19c-8.51-.6-15.55-2.22-21.2-4.2-5.65-1.98-9.92-4.32-12.88-6.36-5.17,3.8-15.57,8.89-34.11,10.56v3.19c1.47,.87,2.69,2.04,3.57,3.46,.88,1.42,1.39,3.07,1.43,4.88h-2.53c-.05-1.6-.6-3.04-1.49-4.2-.89-1.16-2.13-2.05-3.57-2.57Z"/>
          <path class="cls-2" d="M127.59,109.38c-6.93,7.04-27.85,21.71-37,21.71s-30.01-14.67-36.93-21.71c3.58-1.59,4.17-3.89,4.4-5.71h2.88c-.09,.85-.22,1.96-.62,3.05-.41,1.1-1.08,2.19-2.25,3.01,2.7,2.58,22.91,18.78,32.53,18.78s29.9-16.2,32.6-18.78c-2.35-1.64-2.7-4.36-2.88-6.06h2.88c.12,.91,.32,1.94,.94,2.95,.62,1,1.66,1.97,3.46,2.77Z"/>
          <rect class="cls-1" x="33.72" y="75.47" width="113.7" height="25.58"/>
        </g>
        <rect x="36.36" y="77.81" width="108.48" height="20.6"/>
        <g>
          <polygon class="cls-2" points="46.48 96 44.09 96 44.09 89.11 42.2 89.11 42.2 96 39.81 96 39.81 79.96 42.2 79.96 42.2 86.37 44.09 86.37 44.09 79.96 46.48 79.96 46.48 96"/>
          <polygon class="cls-2" points="52.04 96 51.62 91.83 49.87 91.83 49.38 96 47.22 96 49.04 79.96 52.63 79.96 54.45 96 52.04 96"/>
          <path class="cls-2" d="M62.04,84.98c0,1.19-.21,2.13-1.08,2.81,.13,.14,1.05,.76,1.08,1.84v6.37h-2.39v-5.37c0-.48-.1-.8-.4-1-.29-.2-.78-.28-1.54-.28v6.64h-2.38v-16.04h3.94c.96,0,1.65,.17,2.1,.6,.46,.43,.67,1.12,.67,2.15v2.28Z"/>
          <polygon class="cls-2" points="68.23 96 63.42 96 63.42 79.96 65.81 79.96 65.81 93.46 68.23 93.46 68.23 96"/>
          <polygon class="cls-2" points="74.02 96 69.03 96 69.03 79.96 73.97 79.96 73.97 82.47 71.42 82.47 71.42 86.38 73.86 86.38 73.86 88.92 71.42 88.92 71.42 93.46 74.02 93.46 74.02 96"/>
          <polygon class="cls-2" points="79.56 96 77.17 96 77.17 90.01 74.71 79.96 77.17 79.96 78.45 85.56 79.78 79.96 82.01 79.96 79.56 89.89 79.56 96"/>
          <rect class="cls-1" x="81.27" y="86.91" width="4.37" height="2.02"/>
          <path class="cls-2" d="M93.17,93.09c0,1.53-.99,2.9-2.84,2.9h-3.4v-16.04h2.88c1.18,0,2.02,.2,2.57,.76,.54,.56,.79,1.46,.79,2.87v9.51Z"/>
          <polygon class="cls-2" points="98.62 96 98.2 91.83 96.45 91.83 95.97 96 93.8 96 95.63 79.96 99.21 79.96 101.03 96 98.62 96"/>
          <polygon class="cls-2" points="105.19 96 102.52 96 100.28 79.96 102.72 79.96 103.88 89.61 105.04 79.96 107.44 79.96 105.19 96"/>
          <rect class="cls-1" x="108.11" y="79.96" width="2.39" height="16.04"/>
          <path class="cls-2" d="M118.16,93.09c0,1.53-.99,2.9-2.84,2.9h-3.4v-16.04h2.88c1.19,0,2.02,.2,2.57,.76,.54,.56,.79,1.46,.79,2.87v9.51Z"/>
          <path class="cls-2" d="M125.93,85.4h-2.39v-2.24c0-.41-.12-.65-.3-.8-.18-.15-.42-.19-.66-.19-.5,0-.95,.18-.95,.99v1.78c0,.57,1.07,1.37,2.13,2.23,1.06,.85,2.13,1.77,2.13,2.58v3.86c0,1.05-.46,1.72-1.11,2.14-.65,.41-1.48,.57-2.23,.57-1.46,0-3.29-.61-3.29-2.7v-3.49h2.39v2.85c0,.41,.1,.65,.27,.8,.17,.15,.4,.19,.65,.19,.47,0,.93-.18,.93-.99v-1.69c0-1.13-1.07-1.85-2.13-2.61-1.07-.77-2.13-1.57-2.13-2.88v-3.44c0-1.05,.47-1.72,1.11-2.14,.65-.41,1.47-.57,2.21-.57,1.49,0,3.36,.61,3.36,2.7v3.05Z"/>
          <path class="cls-2" d="M133.69,93.61c0,2.1-1.92,2.7-3.39,2.7s-3.35-.61-3.35-2.7v-11.26c0-1.05,.47-1.72,1.12-2.14,.65-.41,1.49-.57,2.23-.57,1.46,0,3.39,.61,3.39,2.7v11.26Z"/>
          <polygon class="cls-2" points="141.89 96 138.96 96 137.07 86.87 137.07 96 134.66 96 134.66 79.96 137.9 79.96 139.46 88.12 139.46 79.96 141.89 79.96 141.89 96"/>
        </g>
        <path class="cls-6" d="M114.04,64.29l-3.28-.67v2.82h3.26c.53,0,.62-.47,.62-.97s0-1.06-.59-1.18Z"/>
        <path class="cls-6" d="M102.24,61.47l-2.23-.88c-.1-.04-.2-.06-.3-.06-.31,0-.58,.22-.58,.71v7.51c0,.25,.06,.48,.2,.64s.35,.27,.66,.27h2.02c.32,0,.54-.08,.68-.23,.14-.15,.2-.36,.2-.62v-5.98c0-.32-.01-.59-.1-.81-.09-.22-.25-.4-.54-.54Z"/>
        <path class="cls-6" d="M81.9,60.53c-.1,0-.2,.02-.3,.06l-2.23,.88c-.29,.15-.46,.32-.54,.54-.09,.22-.1,.48-.1,.81v5.98c0,.26,.06,.48,.2,.62,.14,.15,.36,.23,.68,.23h2.02c.31,0,.52-.1,.66-.27,.14-.16,.2-.39,.2-.64v-7.51c0-.49-.27-.71-.58-.71Z"/>
        <g>
          <path class="cls-6" d="M130.32,82.23c-.25,0-.49,.05-.67,.19-.18,.15-.31,.39-.31,.8v9.42c0,.81,.48,.99,.98,.99,.25,0,.49-.05,.67-.19s.3-.39,.3-.8v-9.42c0-.81-.48-.99-.98-.99Z"/>
          <path class="cls-6" d="M114.87,82.49h-.56v10.98h.56c.31,0,.53-.04,.68-.21,.15-.17,.22-.47,.22-.98v-8.59c0-.52-.07-.82-.22-.98-.15-.17-.37-.21-.68-.21Z"/>
          <polygon class="cls-6" points="97.29 82.89 96.74 89.11 97.92 89.11 97.45 82.89 97.29 82.89"/>
          <path class="cls-6" d="M89.88,82.49h-.57v10.98h.57c.3,0,.53-.04,.67-.21,.15-.17,.22-.47,.22-.98v-8.59c0-.52-.07-.82-.22-.98-.15-.17-.37-.21-.67-.21Z"/>
          <path class="cls-6" d="M58.66,82.17h-.94v4.71h.83c.41,0,.67-.18,.82-.43,.15-.25,.19-.58,.19-.87v-2.41c0-.61-.36-.99-.9-.99Z"/>
          <polygon class="cls-6" points="50.71 82.89 50.16 89.11 51.33 89.11 50.87 82.89 50.71 82.89"/>
        </g>
      </g>
    </g>
  </g>
</svg>