<?xml version="1.0" encoding="UTF-8"?>
<svg id="Layer_2" data-name="Layer 2" xmlns="http://www.w3.org/2000/svg" viewBox="0 0 181.02 181.22">
  <defs>
    <style>
      .cls-1 {
        fill: #fff;
      }

      .cls-2 {
        fill: #171726;
      }

      .cls-3 {
        fill: #1f1c2f;
      }
    </style>
  </defs>
  <g id="SEM">
    <g>
      <g>
        <path class="cls-3" d="M181.02,21.4V90.61H0V21.4C0,9.58,9.59,0,21.41,0H159.62c11.82,0,21.4,9.58,21.4,21.4Z"/>
        <path class="cls-2" d="M0,159.82V90.61H181.02v69.21c0,11.82-9.59,21.4-21.41,21.4H21.4c-11.82,0-21.4-9.58-21.4-21.4Z"/>
      </g>
      <g>
        <path class="cls-1" d="M70.48,87.57v9.44h-2.7v-14.23c.12,0,.24,0,.36,0,.94,0,1.89,0,2.83-.01,.25,0,.35,.07,.43,.3,1.22,3.36,2.46,6.71,3.69,10.06,.04,.11,.09,.23,.16,.4,.36-.94,.71-1.83,1.05-2.72,.98-2.58,1.95-5.15,2.91-7.74,.09-.25,.21-.32,.46-.31,1.02,.02,2.04,0,3.08,0v14.24h-2.69v-9.49s-.03,0-.04-.01c-.04,.09-.08,.17-.11,.26-1.12,2.97-2.24,5.94-3.34,8.92-.1,.27-.22,.36-.51,.35-.57-.03-1.14-.02-1.7,0-.2,0-.3-.06-.37-.25-1.11-3-2.23-5.99-3.35-8.99-.03-.08-.06-.16-.09-.24h-.08Z"/>
        <path class="cls-1" d="M101.65,91.69v5.33h-2.91v-14.22c.08,0,.14-.02,.21-.02,1.83,0,3.66-.01,5.49,.01,.94,.01,1.88,.14,2.78,.47,2.1,.76,2.77,2.46,2.67,4.3-.09,1.59-.83,2.75-2.29,3.47,1.02,2,2.02,3.97,3.06,6-.49,0-.92,0-1.35,0-.53,0-1.07,0-1.6,0-.24,0-.36-.07-.47-.29-.79-1.6-1.6-3.18-2.4-4.78-.12-.23-.25-.31-.52-.31-.87,.03-1.74,0-2.66,0Zm0-6.46v4.01c.58,0,1.15,0,1.71,0,.34,0,.68,.01,1.02-.02,.38-.03,.77-.07,1.14-.16,.87-.2,1.36-.87,1.37-1.82,0-.95-.49-1.59-1.38-1.81-1.26-.31-2.55-.16-3.86-.2Z"/>
        <path class="cls-1" d="M142.17,94.61c.7-.65,1.37-1.29,2.07-1.94,.58,.81,1.3,1.43,2.21,1.82,1.13,.48,2.3,.53,3.47,.27,1.02-.22,1.61-1.05,1.45-1.95-.1-.56-.41-.99-.94-1.16-.73-.23-1.49-.4-2.24-.55-1.1-.22-2.21-.39-3.26-.82-1.4-.56-2.28-1.53-2.41-3.05-.14-1.59,.46-2.87,1.8-3.76,1.01-.67,2.15-.93,3.35-1,1.54-.09,3.04,.06,4.44,.78,1.07,.55,1.73,1.44,2.14,2.58-.83,.37-1.66,.74-2.5,1.11-.04-.07-.09-.13-.12-.19-.56-1.07-1.37-1.76-2.63-1.83-.89-.05-1.77-.08-2.61,.3-.61,.28-.91,.74-.87,1.36,.04,.65,.37,1.14,1.01,1.3,1.14,.29,2.31,.49,3.45,.76,.75,.18,1.51,.37,2.2,.68,2.58,1.15,2.7,3.65,1.87,5.36-.48,1-1.27,1.71-2.29,2.08-2.64,.97-5.25,.91-7.75-.48-.73-.41-1.33-.99-1.84-1.69Z"/>
        <path class="cls-1" d="M95.89,82.82v2.53h-7.35v3.09h6.83v2.57h-6.84v3.49h7.47v2.53h-10.42v-14.21h10.3Z"/>
        <path class="cls-1" d="M141.34,97.03c-1.03,0-2.03,0-3.03-.01-.08,0-.2-.15-.24-.26-.34-.9-.68-1.8-1-2.71-.07-.2-.16-.28-.38-.28-1.69,0-3.38,0-5.08,0-.22,0-.32,.07-.39,.27-.33,.92-.67,1.83-1.02,2.74-.04,.1-.17,.23-.26,.24-.94,.02-1.88,.01-2.89,.01,1.89-4.77,3.76-9.51,5.64-14.26,.95,0,1.89,0,2.83,.01,.09,0,.22,.16,.27,.27,.9,2.24,1.78,4.49,2.67,6.73,.9,2.27,1.8,4.53,2.7,6.8,.05,.13,.1,.27,.16,.44Zm-7.22-11.02c-.66,1.81-1.28,3.53-1.93,5.3h3.9c-.65-1.75-1.3-3.49-1.97-5.3Z"/>
        <path class="cls-1" d="M125.99,97.03c-1.02,0-2,0-2.99-.01-.09,0-.22-.14-.26-.24-.34-.89-.67-1.78-.99-2.68-.08-.23-.19-.33-.45-.33-1.68,.01-3.36,0-5.04,0-.2,0-.3,.06-.37,.26-.33,.92-.68,1.83-1,2.75-.07,.21-.17,.27-.39,.27-.91-.01-1.82,0-2.78,0,.05-.14,.08-.24,.12-.34,1.8-4.53,3.61-9.06,5.4-13.59,.1-.25,.2-.35,.48-.34,.79,.02,1.59,0,2.38,.02,.11,0,.28,.11,.31,.21,1.85,4.63,3.69,9.27,5.53,13.9,.01,.03,.01,.06,.03,.14Zm-5.23-5.71c-.66-1.76-1.3-3.48-1.94-5.19-.03,0-.05,.01-.08,.02-.62,1.72-1.24,3.43-1.88,5.18h3.89Z"/>
        <path class="cls-1" d="M29.97,79.37h2.87v21.08h-2.87v-21.08Z"/>
        <path class="cls-1" d="M58.38,79.41h2.89v21.04h-2.89v-21.04Z"/>
        <path class="cls-1" d="M56.12,74.21v2.9h-21.01v-2.9h21.01Z"/>
        <path class="cls-1" d="M35.11,105.6v-2.88h21v2.88h-21Z"/>
        <path class="cls-1" d="M44.19,97.01v-14.21h2.9v14.21h-2.9Z"/>
        <path class="cls-1" d="M54.24,97.03h-2.87v-14.22h2.87v14.22Z"/>
        <path class="cls-1" d="M39.9,82.8v14.22h-2.86v-14.22h2.86Z"/>
      </g>
    </g>
  </g>
</svg>