<?xml version="1.0" encoding="UTF-8"?>
<svg id="Layer_2" data-name="Layer 2" xmlns="http://www.w3.org/2000/svg" viewBox="0 0 181.02 181.22">
  <defs>
    <style>
      .cls-1 {
        fill: #fff;
      }

      .cls-2 {
        fill: #bcbcbc;
      }

      .cls-3 {
        fill: #171726;
      }

      .cls-4 {
        fill: #1f1c2f;
      }
    </style>
  </defs>
  <g id="SEM">
    <g>
      <g>
        <path class="cls-4" d="M181.02,21.4V90.61H0V21.4C0,9.58,9.59,0,21.41,0H159.62c11.82,0,21.4,9.58,21.4,21.4Z"/>
        <path class="cls-3" d="M0,159.82V90.61H181.02v69.21c0,11.82-9.59,21.4-21.41,21.4H21.4c-11.82,0-21.4-9.58-21.4-21.4Z"/>
      </g>
      <g>
        <g>
          <path class="cls-2" d="M28.82,66.68v33.16h0c.04,8.14,6.65,14.72,14.8,14.72s14.76-6.58,14.8-14.72h0v-33.16H28.82Zm13.23,30.4l2.54,4.42h-1.31l-9.63-16.77c-4.13-7.19-.85-9.1,2.05-10.79,1.67-.97,3.25-1.89,3.32-3.75l.03-.94,.47,.82s1.62,3.6,1.49,6.49c-.16,3.69-1.79,5.17-3.1,6.35-1.59,1.43-2.64,2.38-.21,6.61l1.08,1.89c-.26-2.29,1.36-3.35,2.84-4.32,1.24-.81,2.41-1.58,2.46-2.99l.03-.93,.47,.81s1.22,2.7,1.13,4.89c-.13,3.03-1.73,4.05-2.9,4.8-1.21,.77-1.94,1.24-.77,3.42Z"/>
          <path class="cls-1" d="M56.41,73.27c1.92-3.09,2.49-7.05,2.49-7.19-3.73,6.08-15.57,3.73-15.57,16.31v18.84h.78v-4.55c.19-5.3,5.45-2.77,9.61-9.47,1.43-2.31,1.86-5.27,1.86-5.37-2.78,4.53-11.47,3.56-11.47,11.62v-5.34c0-9.01,6.63-5.72,12.3-14.84Z"/>
        </g>
        <g>
          <g>
            <path class="cls-1" d="M64.57,90.49s.56-.14,.84-.14c.68,0,1.2,.35,1.2,.94,0,1.06-.02,4.06-.02,5.34,0,2.48,1.08,3.84,2.83,3.84s2.82-1.35,2.82-3.84c0-2.24,0-4.36-.17-6.15,0,0,.46-.14,.69-.14,.58,0,.59,.35,.59,.94,0,1.32-.12,3.87-.12,5.15,0,3.14-1.26,4.95-4.19,4.95-2.5,0-4.29-1.4-4.29-4.86,0-5.68-.18-5.91-.18-6.04Z"/>
            <path class="cls-1" d="M75.83,97.43c0-.76-.03-1.55-.06-2.28-.08-1.48-.3-1.61-.3-1.61,.26-.08,.5-.14,.75-.14,.7,0,1.19,.36,1.19,.84,0,.2-.06,.38-.06,.38l.06,.02c.35-.79,1.57-1.31,2.66-1.31,2.01,0,2.22,1.08,2.22,2.19s-.06,2.12-.06,3.43c0,.69,.01,1.6,.76,1.6,.3,0,.58-.21,.58-.21l.06,.05s-.38,.94-1.69,.94c-.67,0-1.37-.32-1.37-1.23,0-1.31,.05-2.22,.05-3.78,0-1.05-.03-2.06-1.34-2.06-.82,0-1.83,.75-1.83,2.18s.06,2.41,.06,3.85c0,.82-.43,1.03-.96,1.03-.32,0-.72-.08-1.08-.15,.11-.05,.36-1,.36-3.73Z"/>
            <path class="cls-1" d="M84.89,97.48c0-3.47-.35-3.94-.37-3.94,.26-.08,.5-.14,.75-.14,.69,0,1.29,.36,1.29,.97,0,1.61-.08,3.44-.08,4.57,0,.69,.01,1.6,.76,1.6,.3,0,.58-.21,.58-.21l.06,.05s-.38,.94-1.69,.94c-.67,0-1.37-.32-1.37-1.23s.06-1.75,.06-2.6Zm-.24-6.39c0-.56,.47-1.04,1.02-1.04s1.04,.47,1.04,1.04-.47,1.02-1.04,1.02-1.02-.47-1.02-1.02Z"/>
            <path class="cls-1" d="M89.23,95.73c0-1.29-.11-1.36-.7-1.54v-.64c.65,0,2.1-1.28,2.3-1.78l.35,.12-.3,1.66h1.25c.62,0,.82-.15,.82-.15,.02,.09,.02,.33,.02,.41,0,.64-.3,.78-.85,.78-.17,0-1.23-.03-1.23-.03,0,0-.05,1.8-.05,2.95,0,1.51,.14,2.79,1.31,2.79,.75,0,1.61-.72,1.61-.72l.08,.06s-.5,1.75-2.36,1.75-2.3-1.25-2.3-2.95c0-.99,.06-2.13,.06-2.71Z"/>
            <path class="cls-1" d="M97.88,93.32c2.01,0,2.8,1.14,2.8,2.18,0,1.52-1.6,2.07-2.94,2.07-.88,0-1.68-.43-1.68-.43l-.06,.03c0,1.83,.85,3.08,2.42,3.08,1.25,0,2.39-.87,2.39-.87l.08,.08s-.52,1.93-3.08,1.93c-2.04,0-3.55-1.6-3.55-3.84,0-2.1,1.39-4.23,3.61-4.23Zm-.44,3.49c.69,0,1.43-.38,1.43-1.32,0-.72-.32-1.46-1.19-1.46-1.08,0-1.66,1.84-1.66,2.42,0,.12,.78,.37,1.42,.37Z"/>
            <path class="cls-1" d="M106.43,93.38c.29,0,.56,.03,.82,.08,0-.79-.03-1.52-.06-2.12-.08-1.4-.27-1.7-.27-1.7l.05-.06c1.02,.02,1.96,.18,1.96,1.13,0,1.46-.08,2.92-.08,4.75,0,1.35,.03,2.74,.08,4.08,.02,.52,.15,1,.69,1,.3,0,.58-.21,.58-.21l.06,.05s-.38,.94-1.69,.94c-.62,0-1.28-.24-1.29-1.1l-.06-.03s-.62,1.2-2.37,1.2-2.88-1.43-2.88-3.5c0-2.6,1.48-4.51,4.48-4.51Zm.79,4.54c.02-.5,.05-1.34,.05-1.86v-1.42c0-.47-.5-.55-1.05-.55-1.61,0-2.44,1.71-2.44,3.41,0,1.05,.29,2.91,1.69,2.91,1.33,0,1.72-1.45,1.75-2.5Z"/>
            <path class="cls-1" d="M115.29,96.95c0-.91-.06-4.11-.09-4.84-.08-1.48-.15-1.6-.15-1.6h2.8c2.33,0,3.36-.15,3.36-.15-.09,.75-.14,1.26-1.23,1.26-1.74,0-2.89-.24-2.89-.24,0,.64-.01,2.3-.03,3.84h2.34c.62,0,.9-.15,.9-.15-.03,.72-.12,1.13-.91,1.13s-2.34-.09-2.34-.09v1.43c0,.85,.06,1.78,.06,2.76,0,.82-.46,1.03-.99,1.03-.32,0-.64-.09-1.02-.15,0,0,.2-.43,.2-4.22Z"/>
            <path class="cls-1" d="M125.81,93.32c2.56,0,3.87,1.78,3.87,3.62,0,2.27-1.4,4.45-4.02,4.45s-3.87-1.87-3.87-3.85c0-2.18,1.39-4.22,4.02-4.22Zm0,7.37c1.35,0,2.01-1.74,2.01-3.47,0-1.6-.72-3.2-2.18-3.2-1.36,0-1.99,1.63-1.99,3.26,0,1.72,.72,3.41,2.16,3.41Z"/>
            <path class="cls-1" d="M134.79,93.32c2.56,0,3.87,1.78,3.87,3.62,0,2.27-1.4,4.45-4.02,4.45s-3.87-1.87-3.87-3.85c0-2.18,1.39-4.22,4.02-4.22Zm0,7.37c1.35,0,2.01-1.74,2.01-3.47,0-1.6-.72-3.2-2.18-3.2-1.35,0-1.99,1.63-1.99,3.26,0,1.72,.72,3.41,2.16,3.41Z"/>
            <path class="cls-1" d="M144.28,93.38c.29,0,.56,.03,.82,.08,0-.79-.03-1.52-.06-2.12-.08-1.4-.27-1.7-.27-1.7l.05-.06c1.02,.02,1.96,.18,1.96,1.13,0,1.46-.08,2.92-.08,4.75,0,1.35,.03,2.74,.08,4.08,.01,.52,.15,1,.68,1,.3,0,.58-.21,.58-.21l.06,.05s-.38,.94-1.69,.94c-.62,0-1.28-.24-1.29-1.1l-.06-.03s-.62,1.2-2.38,1.2-2.88-1.43-2.88-3.5c0-2.6,1.48-4.51,4.48-4.51Zm.79,4.54c.02-.5,.05-1.34,.05-1.86v-1.42c0-.47-.5-.55-1.05-.55-1.61,0-2.44,1.71-2.44,3.41,0,1.05,.29,2.91,1.69,2.91,1.32,0,1.72-1.45,1.75-2.5Z"/>
            <path class="cls-1" d="M148.96,99.47h.08s.88,1.1,2.37,1.1c.99,0,1.34-.52,1.34-1.05,0-1.57-3.96-1.34-3.96-3.93,0-1.46,1.4-2.27,2.82-2.27,.61,0,2.3,.23,2.3,.85,0,.32-.27,.81-.55,1.1h-.08s-.75-1.28-1.9-1.28c-.68,0-1.19,.49-1.19,1.16,0,1.55,3.96,1.17,3.96,3.9,0,1.54-1.49,2.34-2.91,2.34-1,0-2.59-.43-2.59-1.08,0-.24,.18-.62,.3-.84Z"/>
          </g>
          <g>
            <path class="cls-1" d="M70.86,79.56c0,1.01-.3,1.83-.88,2.47-.58,.62-1.37,.94-2.33,.94s-1.68-.3-2.25-.89c-.55-.61-.83-1.41-.83-2.41s.28-1.87,.85-2.51c.56-.64,1.37-.97,2.39-.97,1.9,0,3.05,1.25,3.05,3.38Zm-3.35-5.26c0,.49-.4,.89-.92,.89-.48,0-.91-.37-.91-.91,0-.49,.43-.89,.91-.89s.92,.39,.92,.91Zm1.75,5.26c0-1.58-.51-2.36-1.52-2.36-1.07,0-1.61,.79-1.61,2.36s.52,2.39,1.55,2.39,1.58-.8,1.58-2.39Zm.61-5.26c0,.49-.39,.89-.91,.89-.49,0-.92-.37-.92-.91,0-.49,.43-.89,.92-.89s.91,.39,.91,.91Z"/>
            <path class="cls-1" d="M78.93,82.96h-6.65l.39-1.34h3.76l.04-.31v-1.56c0-.73-.15-1.29-.43-1.72-.27-.37-.61-.57-1.04-.57-.13,0-.3,.03-.46,.1,0-.15-.03-.43-.07-.83,.04,0,.21-.01,.46-.06,.91,0,1.64,.31,2.19,.95,.55,.62,.83,1.41,.85,2.38v1.61h0s.97,.01,.97,.01v1.34Z"/>
            <path class="cls-1" d="M87.87,82.96h-9.28v-1.34h6.42c-.36-.82-.85-1.67-1.49-2.51-.82-1.12-1.55-1.67-2.16-1.67-.45,0-.67,.28-.67,.83,0,.27,.07,.59,.21,1l-1.55,.18c.16-1.95,1.17-3.12,2.48-3.12,1.01,0,2.04,.65,3.06,1.96,.79,1.03,1.41,2.14,1.84,3.33h1.12v1.34Z"/>
            <path class="cls-1" d="M93.23,82.96h-1.12c-.6,0-1.09-.15-1.46-.45-.4,.3-.88,.45-1.43,.45h-1.77v-1.34h1.37c.73,0,1.1-.39,1.1-1.17v-1.44l-.31-1.93,1.77-.4v3.78c0,.79,.36,1.17,1.07,1.17h.77v1.34Zm-3.88-8.67c0,.49-.39,.89-.91,.89-.49,0-.89-.37-.89-.91,0-.49,.4-.89,.89-.89,.52,0,.91,.39,.91,.91Zm2.38,0c0,.49-.39,.89-.91,.89-.49,0-.89-.37-.89-.91,0-.49,.4-.89,.89-.89,.52,0,.91,.39,.91,.91Z"/>
            <path class="cls-1" d="M102.5,82.96h-1.07c-.55,0-1.03-.15-1.41-.46-.73,.86-1.61,1.29-2.63,1.29-.83,0-1.47-.37-1.9-1.1-.33,.18-.7,.27-1.12,.27h-1.55v-1.34h1.15c.67,0,1.01-.33,1.03-.98,.07-2.13,1.46-3.42,3.72-3.42,.73,0,1.44,.12,2.16,.34l-.18,1.55v1.34c0,.79,.36,1.17,1.09,1.17h.73v1.34Zm-3.29-1.06v-2.72l-.12-.83c-.22-.07-.46-.1-.71-.1-1.23,0-1.86,.77-1.86,2.33,0,1.25,.54,1.99,1.25,1.99,.54,0,1.01-.22,1.44-.67Z"/>
            <path class="cls-1" d="M107.09,80.75c0,1.38-.85,2.22-2.22,2.22h-2.78v-1.34h2.42c.73,0,1.09-.4,1.09-1.22v-4.73l-.25-1.96,1.74-.42v7.45Z"/>
            <path class="cls-1" d="M110.6,73.36l-.16,1.98v7.63h-1.47v-7.61l-.22-1.84,1.86-.15Z"/>
            <path class="cls-1" d="M120.79,82.96c-.79,0-1.41-.25-1.89-.76-.52,.28-1.16,.42-1.92,.43-1.59,0-2.56-1.13-2.56-2.91,0-.97,.31-1.74,.95-2.32,.64-.59,1.49-.89,2.53-.89h.48l-.09-.67c.64-.16,1.23-.3,1.78-.4v4.98c0,.8,.36,1.2,1.09,1.2h.94v1.34h-1.31Zm-3.29-9.03c0,.46-.37,.89-.89,.89s-.91-.4-.91-.92c0-.48,.39-.91,.91-.91,.49,0,.89,.39,.89,.94Zm1.12,3.54c-.28,.01-.55,.03-.8,.03-.51,.01-.95,.19-1.32,.57-.37,.37-.55,.83-.55,1.38,.01,1.29,.48,1.95,1.38,1.95,.45,0,.88-.06,1.29-.18v-3.75Zm1.26-3.54c0,.46-.37,.89-.89,.89s-.92-.4-.92-.92c0-.48,.4-.91,.92-.91,.48,0,.89,.39,.89,.94Z"/>
            <path class="cls-1" d="M123.37,85.36c0,.46-.4,.89-.92,.89-.48,0-.91-.37-.91-.91,0-.49,.43-.89,.91-.89s.92,.39,.92,.91Zm2.78-4.55c0,1.32-.85,2.16-2.2,2.16h-2.27v-1.34h1.92c.73,0,1.09-.39,1.09-1.17v-1.47l-.25-1.9,1.72-.39v4.12Zm-.42,4.55c0,.46-.39,.89-.91,.89-.49,0-.92-.37-.92-.91,0-.49,.43-.89,.92-.89s.91,.39,.91,.91Z"/>
            <path class="cls-1" d="M134.39,82.96h-6.65l.39-1.34h3.76l.04-.31v-1.56c0-.73-.15-1.29-.43-1.72-.27-.37-.61-.57-1.04-.57-.13,0-.3,.03-.46,.1,0-.15-.03-.43-.07-.83,.04,0,.21-.01,.46-.06,.91,0,1.64,.31,2.19,.95,.55,.62,.83,1.41,.85,2.38v1.61h0s.97,.01,.97,.01v1.34Zm-2.97-8.67c0,.49-.37,.89-.89,.89s-.92-.37-.92-.89,.4-.91,.92-.91c.48,0,.89,.39,.89,.91Z"/>
            <path class="cls-1" d="M142.11,82.96h-8.06v-1.34h2.66c-.39-.51-.58-1.13-.58-1.89,0-.92,.28-1.68,.83-2.26,.55-.59,1.26-.88,2.13-.86,.82,0,1.7,.36,2.62,1.06l-.56,.67c-.55-.37-1.12-.56-1.73-.56-1.2,0-1.81,.7-1.81,2.08,0,.56,.16,1.01,.51,1.34,.3,.28,.67,.43,1.1,.43h.77l1.93-.21,.19,1.55Zm-2.33-8.67c0,.49-.39,.89-.91,.89-.49,0-.92-.37-.92-.89s.43-.91,.92-.91,.91,.39,.91,.91Z"/>
            <path class="cls-1" d="M146,73.82h-3.06v-.55h.54c0-.82,.43-1.41,1.19-1.41,.31,0,.61,.1,.89,.3-.04,.12-.1,.27-.18,.46-.22-.19-.4-.3-.54-.28-.42,0-.62,.31-.62,.94h.73l.55-.06,.51,.61Zm4.18,6.93c0,.62-.19,1.14-.57,1.55-.39,.45-.92,.67-1.61,.67h-4.22l.64-1.34h3.11l-2.77-4.71-1.44-1.72h1.96l3.42,5.9v-5.31l-.36-1.99,1.83-.4v7.36Z"/>
            <path class="cls-1" d="M153.69,73.36l-.16,1.98v7.63h-1.47v-7.61l-.22-1.84,1.86-.15Z"/>
          </g>
        </g>
      </g>
    </g>
  </g>
</svg>