<?xml version="1.0" encoding="UTF-8"?>
<svg id="Layer_2" data-name="Layer 2" xmlns="http://www.w3.org/2000/svg" viewBox="0 0 181.02 181.22">
  <defs>
    <style>
      .cls-1 {
        fill: #fff;
      }

      .cls-2 {
        fill: #171726;
      }

      .cls-3 {
        fill: #1f1c2f;
      }
    </style>
  </defs>
  <g id="SEM">
    <g>
      <g>
        <path class="cls-3" d="M181.02,21.4V90.61H0V21.4C0,9.58,9.59,0,21.41,0H159.62c11.82,0,21.4,9.58,21.4,21.4Z"/>
        <path class="cls-2" d="M0,159.82V90.61H181.02v69.21c0,11.82-9.59,21.4-21.41,21.4H21.4c-11.82,0-21.4-9.58-21.4-21.4Z"/>
      </g>
      <g>
        <path class="cls-1" d="M62.34,115.68v-4.97c0-.64-.27-1.35-1.45-1.35-.46-.02-.91,.07-1.32,.26v6.1h-1.12v-6.61c.8-.36,1.67-.53,2.54-.51,1.93,0,2.49,1.07,2.49,2.03v5h-1.14v.05Z"/>
        <path class="cls-1" d="M67.5,115.8c-1.89,0-2.71-1.56-2.71-3.59s.83-3.62,2.7-3.62,2.71,1.53,2.71,3.6-.82,3.61-2.7,3.61Zm0-6.47c-1.32,0-1.58,1.48-1.58,2.88s.28,2.8,1.58,2.8,1.57-1.41,1.57-2.8-.24-2.87-1.57-2.87h0Z"/>
        <path class="cls-1" d="M74.14,115.68h-1.02l-2.3-6.93h1.21l1.45,4.96c.08,.28,.14,.56,.18,.85h0c.03-.29,.08-.57,.17-.85l1.49-4.96h1.05l-2.24,6.93Z"/>
        <path class="cls-1" d="M79.7,115.8c-1.89,0-2.71-1.56-2.71-3.59s.83-3.62,2.7-3.62,2.71,1.53,2.71,3.6-.82,3.61-2.7,3.61Zm0-6.47c-1.32,0-1.58,1.48-1.58,2.88s.28,2.8,1.58,2.8,1.57-1.41,1.57-2.8-.24-2.87-1.57-2.87h0Z"/>
        <path class="cls-1" d="M88.29,115.8c-1.45,0-2.54-1.4-2.54-3.59s1.02-3.6,2.57-3.6c.52-.03,1.03,.13,1.44,.44l-.19,.44c-.33-.25-.73-.38-1.14-.36-1.44,0-1.97,1.31-1.97,3.05s.66,3.1,1.93,3.1c.42,0,.83-.12,1.17-.37l.2,.47c-.43,.3-.94,.45-1.46,.42Z"/>
        <path class="cls-1" d="M91.48,107.27c-.26,0-.46-.21-.46-.46s.21-.46,.46-.46,.46,.21,.46,.46-.21,.46-.46,.46h0Zm-.35,8.41v-6.93h.69v6.93h-.69Z"/>
        <path class="cls-1" d="M97.55,115.68v-5.05c0-.72-.28-1.53-1.66-1.53-.52-.02-1.05,.07-1.53,.28v6.3h-.72v-6.59c.72-.36,1.53-.54,2.34-.51,1.79,0,2.25,1.13,2.25,1.98v5.09h-.69v.02Z"/>
        <path class="cls-1" d="M100.35,112.51c.1,1.84,.95,2.75,2.33,2.75,.58,.02,1.15-.13,1.66-.41l.22,.51c-.58,.31-1.23,.46-1.89,.45-1.67,0-2.97-1.02-2.97-3.61,0-2.44,1.17-3.56,2.62-3.56s2.48,.94,2.48,3.24l-4.46,.64Zm1.94-3.38c-1.1,0-1.97,.85-1.97,2.96l3.78-.58c.02-1.73-.68-2.38-1.81-2.38Z"/>
        <path class="cls-1" d="M114.06,115.68v-5.05c.09-.75-.45-1.44-1.2-1.53-.11-.01-.22-.01-.32,0-.65-.01-1.27,.26-1.68,.76v5.81h-.69v-5.12c0-.87-.59-1.46-1.76-1.46-.5-.03-1,.07-1.45,.28v6.3h-.7v-6.58c.67-.37,1.43-.55,2.2-.51,.8-.08,1.59,.26,2.09,.9,.53-.59,1.29-.91,2.09-.9,1.66,0,2.14,1.14,2.14,1.98v5.09h-.69v.02Z"/>
        <path class="cls-1" d="M118.56,115.8c-1.7,0-2.43-.81-2.43-1.98,0-1.85,1.7-2.42,3.87-2.63v-.48c0-1.25-.73-1.59-1.68-1.59-.57,0-1.12,.16-1.61,.45l-.18-.46c.57-.32,1.22-.5,1.88-.51,1.15,0,2.26,.51,2.26,2.11v4.58c-.64,.35-1.37,.53-2.11,.52Zm1.44-4.21c-2.03,.27-3.19,.67-3.19,2.22,0,1.1,.69,1.56,1.84,1.56,.47,0,.93-.09,1.35-.28v-3.5h0Z"/>
        <path class="cls-1" d="M123.61,115.78c-.59,.02-1.17-.14-1.66-.46l.21-.51c.41,.29,.91,.44,1.41,.41,.78,.06,1.46-.51,1.52-1.29,0-.04,0-.08,0-.13,0-.83-.45-1.19-1.29-1.49-1.39-.51-1.65-1.24-1.65-1.94,.02-1.01,.86-1.8,1.86-1.78,.02,0,.04,0,.06,0,.52,0,1.03,.16,1.45,.46l-.21,.45c-.35-.26-.77-.41-1.21-.41-.68-.05-1.28,.46-1.33,1.14,0,.05,0,.1,0,.15,0,.77,.55,1.12,1.29,1.39,1.36,.51,1.7,1.24,1.7,2.03-.06,1.14-1.02,2.02-2.16,1.97Z"/>
        <path class="cls-1" d="M39.87,100.23c-.14,2.26,2.66,1.75,3.84,1.05,1.32-.8,2.34-2.02,2.89-3.46,.42-1.4,.63-2.86,.63-4.32,.08-2.15,.08-6.34,.05-8.49,1.49,1.92,2.35,5.7,2.35,5.7,.05,.17,.09,.33,.14,.51,.56,1.96,1.86,3.74,4.12,3.23,3.59-.8,3.73-5.56,4.32-8.43,.23-1.17,.53-2.33,.92-3.46,.27-.78,.59-1.53,.95-2.27,.3-.61,.64-1.2,1.02-1.76,2.16-3.2,5.48-5.85,9.37-6.32,2.86-.34,5.65,0,8.02,1.73,.6,.44,1.15,.94,1.64,1.49,.73,.85,1.28,1.84,1.61,2.91-.82-.02-1.64-.11-2.45-.25-2.71-.46-4.31-1.9-6.53-3.29-2.3-1.41-5.56,1.26-7.23,2.71,0,0-3.96,3.72-4.31,9.32-.26,3.45,.67,6.88,2.65,9.72,1.43,1.96,3.36,3.5,5.59,4.45,1.8,.74,3.72,1.13,5.67,1.15,6.53,0,14.24-5.91,14.54-18.52,0,0,1.56-.61,3.05-1.38-.17,.98-.29,2.03-.39,3-.36,3.39-.79,7.33-.95,10.73-.15,1.44-.1,2.89,.15,4.31,.07,.35,.22,.67,.44,.95,.43,.46,1.05,.7,1.68,.64,0,0,2.87,.35,8.36-8.14,1.2-1.85,2.85-4.14,4.15-5.91,.37-.51,.72-1.02,1.1-1.53,.51-.65,.98-1.29,1.48-1.93,1.16-1.48,2.35-2.94,3.62-4.34,.23-.25,.46-.51,.7-.75h0l.08-.08c.47-.47,.97-.94,1.46-1.39s1.02-.87,1.53-1.3c.24-.19,.48-.38,.72-.56l.46-.32c.51-.37,1.07-.7,1.63-1.02,.27-.16,.55-.32,.83-.47l.43-.22c1.07-.5,2.19-.9,3.33-1.22,2.55-.67,5.22-.73,7.8-.15,5.22,1.15,8.73,6.73,8.08,12.04-.51,3.72-2.69,7.01-5.92,8.94-2.85,1.63-7.82,2.21-10.13-1.53-2.3-3.73,.98-8.17,.98-8.17,.36-.55,.75-1.09,1.14-1.61,.98-1.31,2.27-2.89,1.48-4.63-1.02-2.25-3.94-.35-5.09,.66-.81,.72-1.56,1.52-2.24,2.37-.77,.96-1.44,2.01-1.98,3.11-.94,1.89-1.5,3.94-1.65,6.04-.08,1.18-.04,2.36,.12,3.52,.31,2.5,1.43,4.83,3.19,6.64,1.93,1.9,4.72,2.37,7.31,2.19,3.08-.28,6.04-1.31,8.62-3.01,3.07-1.95,5.75-4.47,7.87-7.43,.59-.84,1.12-1.71,1.58-2.62,1.49-2.86,2.3-6.02,2.38-9.24,0-4.92-2.13-10.17-6.41-12.92-3.62-2.32-7.89-2.83-12.1-2.35-1.15,.13-2.28,.34-3.4,.63-12.21,3.05-22.17,16.1-25.28,20.59-.25,.35-.38,.55-.68,.51-.23-.09-.36-.33-.31-.57,.33-5.58,2.9-11.18,2.9-11.18,.09-.23,.13-.31,.23-.51l.07-.15c.21-.45,.43-.89,.65-1.33,.51-1.05,.85-2.17,1.02-3.32,.18-1.38-.34-2.73-1.99-2.61-2.54,.19-3.84,2.91-5.19,4.94-1.7,2.54-4.74,5.09-7.34,5.84-3.42-13.38-15.39-12.89-15.39-12.89-15.77,0-20.26,17.66-20.26,17.66-1.79-5.44-4.77-10.4-8.73-14.53-.72-.81-1.83-1.13-2.87-.84-1.53,.45-2.81,1.76-3.65,3.1-.93,1.5-1.56,2.7-.82,4.51,0,0,3.35,7.26,2.36,25.85Zm42.8-13.54c-.17,1.5-.62,2.96-1.33,4.3-.19,.34-.42,.66-.67,.95-.8,.88-1.85,1.51-3.01,1.79-.33,.08-.66,.13-.99,.15-.72,.05-1.45-.03-2.14-.25-1.14-.38-2.19-1.02-3.05-1.86-.77-.72-1.42-1.57-1.92-2.5-.44-.87-.77-1.8-.98-2.75-.24-1.02-.32-2.08-.23-3.12v-.12c3.72,3.05,9.54,3.19,14.36,2.46,0,.32-.01,.64-.05,.95Z"/>
        <path class="cls-1" d="M146.59,65.36v2.03h-.46v-2.03h-.65v-.37h1.77l-.05,.36h-.62Z"/>
        <path class="cls-1" d="M149.4,67.4l-.08-1.2v-.74h0l-.44,1.68h-.44l-.46-1.68h0c.02,.26,.02,.52,0,.78l-.11,1.15h-.44l.19-2.38h.58l.43,1.66h0l.45-1.68h.59l.17,2.4h-.44Z"/>
      </g>
    </g>
  </g>
</svg>