<?xml version="1.0" encoding="UTF-8"?>
<svg id="Layer_2" data-name="Layer 2" xmlns="http://www.w3.org/2000/svg" viewBox="0 0 181.02 181.22">
  <defs>
    <style>
      .cls-1 {
        fill: none;
        stroke: #fff;
        stroke-miterlimit: 10;
        stroke-width: 2.33px;
      }

      .cls-2 {
        fill: #fff;
      }

      .cls-3 {
        fill: #171726;
      }

      .cls-4 {
        fill: #1f1c2f;
      }
    </style>
  </defs>
  <g id="AUGMENTED_REALITY" data-name="AUGMENTED REALITY">
    <g>
      <g>
        <path class="cls-4" d="M181.02,21.4V90.61H0V21.4C0,9.58,9.59,0,21.41,0H159.62c11.82,0,21.4,9.58,21.4,21.4Z"/>
        <path class="cls-3" d="M0,159.82V90.61H181.02v69.21c0,11.82-9.59,21.4-21.41,21.4H21.4c-11.82,0-21.4-9.58-21.4-21.4Z"/>
      </g>
      <rect class="cls-1" x="20.55" y="20.55" width="140.11" height="140.11" rx="16.5" ry="16.5"/>
      <path class="cls-2" d="M92.19,54.41c-9.6-.47-18.96,3.05-25.88,9.72-7.1,6.8-11.12,16.2-11.13,26.03v34.7H125.86v-35.15c.03-18.88-14.81-34.43-33.67-35.3Zm-17.81,36.86v27.52h-13.06v-25.19c0-13.12,8.8-20.78,19.62-20.78h.59c.21,0,.41,0,.61,.02h.11c.79,.05,1.58,.15,2.36,.3,.34,.07,.68,.14,1,.22l.34,.09,.64,.2c.33,.1,.65,.21,.97,.32,.9,.32,1.78,.71,2.63,1.16,.41,.22,.81,.46,1.19,.72-2.09-.46-4.26-.38-6.31,.22-6.41,2.3-10.69,8.38-10.7,15.19Zm26.19,27.52h-20.11v-27.52c-.02-5.54,4.45-10.04,9.99-10.06,4.71-.02,8.79,3.24,9.82,7.83,.2,1.12,.3,2.26,.3,3.4v26.35Zm19.2,0h-13.12v-26.35c.02-14.17-11.45-25.68-25.62-25.7-1.8,0-3.6,.18-5.36,.56-2.24,.5-4.39,1.36-6.36,2.55-.1,.08-.25,.06-.33-.04-.08-.1-.06-.25,.04-.33,1.89-1.71,3.94-3.23,6.11-4.55,2.23-1.41,4.63-2.51,7.16-3.26,.31-.1,.63-.19,.95-.27,1.7-.46,3.44-.74,5.19-.85,16.08-1.18,30.07,10.91,31.24,26.99,.05,.73,.08,1.46,.08,2.19l.02,29.08Z"/>
    </g>
  </g>
</svg>