<?xml version="1.0" encoding="UTF-8"?>
<svg id="Layer_2" data-name="Layer 2" xmlns="http://www.w3.org/2000/svg" viewBox="0 0 181.02 181.22">
  <defs>
    <style>
      .cls-1 {
        fill: #fff;
      }

      .cls-2 {
        fill: #171726;
      }

      .cls-3 {
        fill: #1f1c2f;
      }
    </style>
  </defs>
  <g id="ADVERTISING">
    <g>
      <g>
        <path class="cls-3" d="M181.02,21.4V90.61H0V21.4C0,9.58,9.59,0,21.41,0H159.62c11.82,0,21.4,9.58,21.4,21.4Z"/>
        <path class="cls-2" d="M0,159.82V90.61H181.02v69.21c0,11.82-9.59,21.4-21.41,21.4H21.4c-11.82,0-21.4-9.58-21.4-21.4Z"/>
      </g>
      <g>
        <path class="cls-1" d="M90.39,35.13c6.88,.05,13.72,.5,20.53,1.45,6.97,.97,13.84,2.43,20.43,4.97,1.1,.42,2.19,.88,3.23,1.44,3.21,1.72,5.05,4.46,5.3,8.05,.21,3.03,.11,6.09-.01,9.12-.18,4.7-.7,9.38-1.39,14.04-3.15,21.16-11.52,39.92-25.81,55.94-4.26,4.77-8.81,9.24-13.63,13.44-.93,.81-1.94,1.54-2.99,2.18-3.71,2.26-7.43,2.19-11.14-.04-1.91-1.15-3.52-2.68-5.16-4.16-6.28-5.71-12.12-11.83-17.23-18.62-9.7-12.91-15.87-27.37-18.96-43.18-1.74-8.94-2.61-17.96-2.53-27.07,.04-4.82,2.17-8.33,6.64-10.31,4.5-1.99,9.22-3.34,14.02-4.37,6.09-1.31,12.25-2.11,18.46-2.46,3.41-.19,6.82-.28,10.23-.42Zm0,2.91c-2.71,.09-5.42,.15-8.13,.28-6.96,.34-13.85,1.17-20.66,2.68-4.38,.97-8.68,2.22-12.79,4.06-2.37,1.06-4.07,2.72-4.6,5.36-.15,.76-.3,1.54-.28,2.3,.11,3.72,.18,7.45,.43,11.17,.45,6.8,1.51,13.52,3.11,20.15,3.21,13.33,8.79,25.55,16.96,36.59,5.65,7.63,12.23,14.39,19.36,20.63,.98,.86,2.06,1.62,3.19,2.27,2.24,1.29,4.59,1.39,6.87,.13,1.22-.67,2.39-1.47,3.44-2.39,4.49-3.9,8.73-8.06,12.71-12.48,14.01-15.5,22.36-33.67,25.49-54.28,.64-4.24,1.06-8.53,1.4-12.81,.25-3.1,.28-6.23,.25-9.35-.02-2.37-.75-4.53-2.75-6.02-.78-.58-1.64-1.07-2.53-1.45-4.91-2.1-10.04-3.44-15.26-4.44-8.65-1.66-17.4-2.33-26.2-2.4Z"/>
        <path class="cls-1" d="M91.84,105.04c-.82,.03-1.15,.35-1.11,1.18,.02,.42,.11,.84,.17,1.26,.06,.45-.08,.77-.56,.86-.5,.1-.56,.38-.42,.81,.13,.4,.25,.81,.32,1.23,.09,.5-.14,.85-.63,.93-.93,.16-1.86,.31-2.79,.41-.25,.03-.51-.13-.77-.2,.08-.23,.19-.46,.23-.69,.04-.24,0-.5,0-.75l-.21-.04c-.14,.22-.25,.47-.42,.66-.12,.14-.33,.3-.48,.28-.14-.02-.31-.24-.36-.41-.17-.52-.07-1.03,.26-1.47,.32-.43,.72-.79,1.02-1.24,.66-.99,1.29-2,1.92-3.02,.09-.15,.12-.33,.21-.59-.73,.1-1.22,.4-1.44,.99-.44,1.2-1.15,2.15-2.16,2.94-.47,.37-.85,.93-1.11,1.49-.56,1.2-1.04,2.44-1.5,3.68-.65,1.77-1.62,1.92-3.29,2.07-.5,.05-.38-.39-.39-.68,0-.33,.14-.71-.21-.83-.37,.25-.64,.49-.95,.64-.35,.17-.58-.02-.61-.39-.13-1.57,.05-3.04,1.41-4.09,.8-.62,1.61-1.23,2.44-1.81,.73-.51,1.09-1.11,1.12-2.06,.07-1.99-.22-3.95-.35-5.92,0-.14-.18-.32-.31-.37-.1-.04-.32,.08-.39,.19-1.06,1.81-2.14,3.62-3.14,5.46-.19,.35-.09,.87-.12,1.31-.08,1.39-.58,2.57-1.8,3.31-.66,.4-.78,.95-.74,1.63,.04,.74,.06,1.47,.07,2.21,0,.46-.12,.86-.51,1.17-.48,.39-.47,.97-.48,1.53-.02,1.32-.03,1.36-1.32,1.51-.73,.08-1.46,.07-2.17,.11-.22-.64,.33-1.41-.37-1.83l-.26,.03c0,.41,.03,.83-.01,1.24-.02,.19-.19,.35-.29,.53-.14-.13-.32-.23-.4-.39-.63-1.2-.25-2.63,.93-3.75,.19-.18,.36-.46,.41-.72,.27-1.34,1.14-2.26,2.15-3.06,.37-.29,.49-.55,.4-1.02-.1-.52-.12-1.07-.09-1.6,.03-.47,.04-1.02,.29-1.38,1.03-1.46,1.07-3.03,.81-4.71-.15-.97-.09-1.98-.06-2.97,0-.35,.15-.73,.32-1.05,.61-1.1,.79-2.23,.61-3.5-.25-1.75,.07-3.48,.88-5.05,.62-1.19,1.34-2.34,2.12-3.43,.75-1.05,.91-2.15,.81-3.4-.08-1.04-.07-2.13,.19-3.12,.19-.71,.78-1.37,1.32-1.92,1.28-1.27,2.84-2.17,4.45-2.95,1.29-.63,2.44-1.37,3.42-2.46,.67-.75,1.6-1.29,2.48-1.83,.87-.53,1.77-.2,2.66,.11,1.79,.62,3.59,1.23,5.4,1.78,.79,.24,1.62,.36,2.44,.46,1.04,.13,1.41-.3,1.21-1.32-.32-1.7-.95-2.3-2.66-2.66-2.43-.51-4.88-.34-7.34-.3-2.03,.03-4.06,.09-6.08,0-.9-.04-1.82-.32-2.67-.64-1.74-.66-2.04-2.63-.5-3.82,2.1-1.62,4.47-2.29,7.09-2.15,2.04,.11,4.03,.49,5.94,1.21,.39,.15,.77,.37,1.06,.66,.4,.39,.23,.86-.31,.99-.72,.17-1.42,.17-2.07-.28-.17-.12-.4-.21-.61-.23-.38-.04-.79,.07-1.15-.03-.35-.09-.64-.37-.98-.57-.24,.4-.18,.74,.25,.9,.37,.14,.78,.18,1.17,.24,.16,.03,.39-.07,.48,0,.21,.17,.4,.4,.51,.64,.03,.07-.27,.39-.44,.41-1.71,.21-3.44,.35-5.09-.26-.71-.26-1.38-.69-2-1.13-.46-.32-.89-.47-1.38-.22-.46,.23-.92,.48-1.33,.78-.45,.32-.41,.68,.12,.82,.96,.25,1.94,.41,2.92,.58,3.27,.56,6.55,.2,9.83,.12,1.22-.03,2.49,.06,3.67,.36,2.6,.65,4.26,3.38,3.7,5.86-.1,.42-.31,.82-.5,1.33,.91,1.26,1.87,2.61,2.84,3.95,.33,.46,.68,.92,1,1.39,.68,.99,.92,2.11,.77,3.27-.22,1.72,.03,3.37,.35,5.05,.21,1.07,.2,2.19,.3,3.35h-1.58c-.18-.78-.3-1.58-.56-2.33-.45-1.36-.52-2.71-.16-4.08,.35-1.35,.23-2.69-.49-3.85-1.16-1.86-2.44-3.64-3.68-5.45-.06-.08-.16-.16-.26-.19-.51-.16-2.09,.48-2.44,1.01,.15,.04,.3,.05,.41,.12,.3,.2,.74,.37,.84,.65,.35,.98,.64,2,.83,3.02,.13,.71-.2,.96-.92,.97-1,.02-1.79-.42-2.39-1.17-1.15-1.42-2.26-2.87-3.41-4.29-.61-.76-1.26-1.5-1.91-2.23-.1-.11-.29-.14-.44-.21-.03,.2-.11,.42-.07,.6,.04,.16,.21,.3,.33,.44,2.3,2.82,4.54,5.68,5.97,9.08,.38,.9,.72,1.81,1.01,2.74,.09,.29-.05,.66-.08,.99-.28-.21-.63-.37-.82-.64-.24-.34-.32-.78-.51-1.15-.23-.45-.49-.89-.77-1.38-.61,1.16-.93,1.29-2.21,1-.2-.05-.49-.06-.61,.04-.13,.11-.18,.41-.12,.59,.04,.13,.29,.25,.46,.26,.51,.05,1.03-.02,1.53,.08,.53,.1,.76,.52,.75,1.09-.65-.12-1.29-.25-1.9-.36-.28,.83-.24,.9,.47,.94,.41,.02,.81,.03,1.22,.03,1.25,.02,1.63,.3,2.03,1.53,.71,0,1.44,.04,2.17,0,2.17-.15,3.92,.66,5.36,2.25,.1,.11,.27,.24,.39,.22,.74-.11,1.28,.29,1.79,.72,.54,.47,1.04,1,1.56,1.49,1.27,1.19,2.81,1.35,4.44,1.13,.18-.03,.34-.21,.53-.27,.17-.05,.36-.03,.54-.04,0,.19,.09,.42,.01,.55-.14,.25-.35,.48-.57,.67-1.51,1.26-3.21,1.68-5.11,1.07-1.07-.34-2.01-.91-2.82-1.7-.44-.43-.91-.78-1.56-.89-.17-.03-.39-.32-.41-.51-.06-.51-.02-1.03-.02-1.56-1.46-.34-2.67-1.56-4.48-1.03,.42,.29,.77,.49,1.08,.75,.26,.22,.47,.49,.71,.75-.34,.05-.69,.17-1.01,.13-.79-.11-1.56-.27-2.02-1.07-.11-.19-.51-.21-.88-.34,.07,.88-.52,.82-1.03,.91-.2,.03-.53,.2-.53,.3,0,.25,.1,.64,.28,.73,.54,.27,1.12,.49,1.7,.6,.85,.17,1.71,.28,2.58,.31,.54,.02,1.08-.16,1.62-.23,.18-.02,.37,.04,.56,.07-.05,.17-.06,.36-.16,.49-.67,.85-1.55,1.36-2.61,1.52-2.45,.36-4.67-.1-6.5-1.86-.95-.92-1.37-2.02-1.09-3.36,.12-.57,.4-.97,.95-1.1,.75-.18,1.52-.29,2.28-.43,.14-.03,.29-.03,.44-.04,.07-.47-.17-.65-.58-.7-.94-.12-1.85,.07-2.69,.46-.5,.23-.92,.21-1.42,.01-.41-.16-.88-.2-1.32-.22-.1,0-.32,.28-.31,.42,.02,.44,.04,.9,.2,1.31,.17,.45,.43,.89,.74,1.24,.5,.56,1.12,1.02,1.63,1.58,.77,.85,.76,1.7,.15,2.67-.85,1.36-1.62,2.78-1.95,4.37-.11,.55-.02,1.14-.02,1.71,.08,.02,.16,.05,.24,.07,.16-.18,.35-.34,.47-.54,.26-.46,.46-.96,.73-1.43,.19-.33,.45-.6,.9-.46,.45,.14,.61,.49,.51,.91-.13,.55-.3,1.1-.51,1.63-.23,.6-.54,1.17-.78,1.77-.41,1.02-.31,2.02,.14,3.01,.04,.08,.09,.16,.14,.24,.03,.04,.08,.06,.16,.12,.3-.44,.29-1.3,1.17-.93,.37,.15,.8,.43,.64,.83-.11,.3-.58,.46-.95,.73,.11,.26,.41,.54,.84,.48,.89-.12,1.78-.27,2.65-.5,.52-.13,.78-.62,.89-1.12,.14-.63,.3-1.27,.32-1.91,.04-1.8,.9-3.18,2.17-4.33,.8-.73,1.69-1.37,2.58-1.99,.46-.32,.74-.69,.84-1.23,.11-.64,.2-1.28,.36-1.9,.23-.89,.63-1.02,1.39-.53,1.1,.71,1.65,1.8,1.88,3.02,.23,1.27,.33,2.56,.45,3.84,.2,2.16,.37,4.33,.57,6.5,.02,.25,.09,.52,.22,.74,.38,.67,.32,1.34,.12,2.03-.25,.86-.7,1.1-1.59,.81,0-.66-.03-.7-.62-.91-.06,.36-.12,.71-.18,1.06-1.29-.02-2.12-1.04-1.84-2.28,.06-.29,.16-.57,.27-.84,.23-.55,.45-1.07,.11-1.68-.13-.24-.02-.61,0-.92,.02-.29,.07-.59,.11-.88,.17-1-.04-1.86-.73-2.66-.57-.66-.99-1.46-1.52-2.26-1.26,.82-2.53,1.64-2.97,3.17-.35,1.23-.57,2.51-.76,3.78-.24,1.6-.84,2.34-2.46,2.46-1.17,.08-2.36,0-3.52-.13-1.02-.11-1.72-.74-2.02-1.73-.25-.84-.45-1.7-.68-2.56Zm-.71-2.33c-.48-.89-.89-1.64-1.3-2.4-.37-.68-.8-1.33-1.09-2.04-.41-1.03-.21-2,.56-2.82,.49-.52,1-1.04,1.5-1.56,.65-.67,.68-1.11,.23-1.93-.32-.58-.56-1.19-.84-1.79-.21-.45-.4-.92-.67-1.33-.36-.54-.72-.57-1.34-.41-.79,.2-1.08,.79-1.36,1.46-.39,.96-1.16,1.39-2.17,1.17-.47-.1-.93-.34-1.34-.6-.77-.5-1.29-.4-1.69,.43-.1,.22-.19,.44-.28,.66-.51,1.26-1.38,1.42-2.29,.41-.23-.26-.43-.31-.68-.03-.42,.46-.71,.96-.74,1.62-.02,.51-.15,1.02-.3,1.5-.44,1.39-.97,2.75-1.35,4.15-.23,.88-.29,1.81-.34,2.72-.01,.26,.3,.53,.46,.79,.23-.16,.51-.28,.67-.49,.64-.88,1.26-1.78,1.86-2.68,.27-.41,.45-.88,.75-1.28,.16-.21,.45-.44,.7-.45,1.25-.07,2.5-.12,3.75-.08,.47,.01,.97,.23,1.39,.47,.21,.11,.4,.49,.38,.72-.02,.18-.35,.41-.59,.47-.4,.11-.84,.15-1.26,.15-.44,0-.64,.18-.58,.59,.12,.87,.26,1.74,.44,2.61,.02,.11,.29,.24,.44,.24,1.05-.02,2.1-.07,3.15-.11,1.23-.05,2.46-.11,3.91-.18Zm2.08-23.99c.02,.06,.04,.13,.05,.19-.19,.08-.38,.21-.58,.22-.38,.02-.77-.01-1.16-.03-.48-.03-.71,.18-.72,.68-.02,.5,.18,.71,.68,.66,.31-.03,.65,.04,.93-.06,.6-.22,.92,.06,1.24,.5,.38,.52,.78,1.04,1.24,1.47,.62,.57,1.3,.34,1.48-.48,.07-.33,.07-.7,0-1.03-.33-1.52-1.63-2.66-3.18-2.82-.14-.01-.3,.13-.45,.2,.07,.12,.13,.26,.22,.37,.05,.06,.15,.09,.23,.13Zm-10.71,5.27c0,.13-.03,.28-.02,.42,.03,.59,0,1.09-.43,1.62-.64,.81-.15,1.96,.86,2.08,.86,.1,1.75,.02,2.74,.02-.18-.28-.27-.58-.48-.71-1.13-.73-1.68-1.83-2.02-3.06-.1-.37-.25-.5-.64-.37Zm25.5,17.15c-.04-.46-.06-.92-.11-1.38-.08-.77-.16-1.54-.28-2.3-.02-.15-.18-.34-.32-.39-.08-.03-.29,.13-.38,.25-.2,.27-.36,.56-.52,.85-.23,.44-.6,.9-.32,1.39,.39,.68,.86,1.32,1.38,1.9,.25,.28,.58,.06,.55-.32Zm-33.25,7.61c.71-.12,1.38-.95,1.28-1.63-.03-.19-.19-.4-.36-.51-.1-.06-.35,.03-.49,.12-.53,.35-.71,1.17-.44,2.02Zm10.58-3.03c-.03-.33-.2-.54-.6-.52-.45,.03-1.14,.77-1.06,1.25,.03,.19,.32,.45,.53,.48,.46,.08,1.14-.68,1.13-1.21Zm3.86-41.37c.52,.16,1,.32,1.49,.45,.28,.07,.55,.07,.61-.33,.05-.37,.02-.65-.45-.67-.22,0-.44-.06-.65-.1-.49-.1-.83,.05-1,.65Z"/>
        <path class="cls-1" d="M70.95,54.16v-5.69s-.07-.01-.11-.02c-.71,2.22-1.42,4.44-2.17,6.81-.83-2.32-1.62-4.5-2.4-6.68-.03,0-.07,0-.1,.01,0,1.48,0,2.96,0,4.44,0,.46,.03,.93-.01,1.38-.01,.15-.2,.37-.34,.41-.47,.13-.96,.2-1.48,.3-.01-.23-.02-.39-.02-.55,0-3.49,0-6.98-.01-10.46,0-.45,.15-.62,.57-.66,.44-.05,.87-.14,1.36-.23,.76,2.05,1.53,4.1,2.34,6.27,.11-.28,.18-.46,.24-.64,.63-1.96,1.27-3.93,1.89-5.9,.1-.33,.24-.49,.59-.53,.47-.05,.94-.15,1.46-.23,.02,.2,.04,.36,.04,.51,0,3.54,0,7.09,.01,10.63,0,.43-.12,.59-.54,.62-.4,.03-.8,.12-1.3,.2Z"/>
        <path class="cls-1" d="M126.54,53.14v-6.96c.58,.19,1.11,.36,1.64,.56,.1,.04,.19,.22,.19,.33,0,3.86,0,7.71,0,11.67-.69-.2-1.33-.36-1.94-.58-.14-.05-.24-.3-.31-.48-.87-2.35-1.74-4.7-2.61-7.05-.07-.18-.15-.36-.31-.53v7.08c-.6-.17-1.12-.3-1.63-.47-.09-.03-.18-.22-.18-.34-.01-3.77-.02-7.53-.02-11.3,0-.05,.03-.1,.06-.19,.61,.14,1.22,.26,1.81,.45,.16,.05,.32,.28,.39,.46,.86,2.26,1.71,4.52,2.56,6.78,.08,.2,.16,.4,.24,.6,.03,0,.07-.01,.1-.02Z"/>
        <path class="cls-1" d="M74.69,53.8c-.02-.27-.03-.43-.04-.59,0-3.6,0-7.2-.03-10.79,0-.45,.08-.66,.58-.69,.7-.04,1.39-.19,2.08-.28,2.8-.36,4.46,1.69,3.52,4.36-.14,.4-.35,.77-.53,1.16,1.28,1.67,1.37,3.64,.2,5.1-.48,.6-1.08,1.03-1.83,1.16-1.29,.22-2.59,.38-3.96,.57Zm1.81-2.07c.5-.07,.95-.16,1.41-.18,.8-.05,1.23-.51,1.46-1.22,.47-1.45-.19-2.29-1.68-2.13-.29,.03-.59,.05-.87,.12-.12,.03-.3,.19-.3,.29-.02,1.03-.01,2.05-.01,3.12Zm.04-5.19c.49-.06,.91-.09,1.33-.16,1.08-.17,1.79-1.76,1.16-2.65-.16-.23-.48-.47-.75-.49-.5-.05-1.02,.04-1.53,.11-.08,.01-.2,.21-.2,.32-.02,.93,0,1.87,0,2.87Z"/>
        <path class="cls-1" d="M91.43,53.34v-12.23c1.63,.12,3.26-.22,4.83,.35,1.18,.43,1.85,1.31,2.02,2.55,.21,1.49-.12,2.8-1.38,3.73-.34,.25-.42,.44-.27,.84,.57,1.57,1.11,3.16,1.68,4.81-.61,0-1.16,.03-1.7-.02-.13-.01-.31-.23-.36-.38-.48-1.32-.97-2.63-1.37-3.97-.17-.58-.45-.78-1.01-.69-.19,.03-.4,0-.65,0v5h-1.78Zm1.81-10.42v3.6c.59,0,1.16,0,1.72,0,.83,0,1.43-.56,1.54-1.42,.14-1.05-.22-1.79-1.07-1.96-.69-.15-1.41-.15-2.2-.22Z"/>
        <path class="cls-1" d="M110.23,54.66c-.66-.1-1.22-.18-1.82-.28v-12.13c.59,.09,1.19,.17,1.81,.27v5.28c1.07,.21,2.11,.41,3.21,.62v-5.4c.62,.1,1.18,.18,1.76,.27v12.13c-.59-.1-1.16-.19-1.8-.29,0-.41,0-.81,0-1.21,0-1.09,0-2.18,0-3.26,0-.31-.06-.46-.41-.51-.9-.14-1.8-.32-2.76-.5v5.01Z"/>
        <path class="cls-1" d="M90.07,47.19c-.22,1.19-.36,2.41-.7,3.56-.2,.68-.64,1.34-1.13,1.87-1.24,1.36-3.31,1.24-4.47-.19-.8-1-1.15-2.17-1.26-3.43-.17-1.89-.17-3.77,.6-5.55,.21-.48,.5-.96,.84-1.35,1.39-1.59,3.63-1.44,4.83,.3,.64,.94,.95,1.99,1.06,3.11,.05,.55,.07,1.1,.1,1.66,.04,0,.08,.02,.12,.03Zm-5.94,.16c.14,1.7,.32,2.65,.82,3.51,.67,1.16,1.77,1.21,2.37,.01,.37-.74,.6-1.59,.7-2.41,.18-1.43,.2-2.88-.36-4.25-.26-.65-.56-1.36-1.42-1.36-.88,0-1.27,.69-1.46,1.38-.3,1.02-.43,2.08-.64,3.12Z"/>
        <path class="cls-1" d="M104.81,49.47h-1.38v-1.79h3.16c.02,1.39,.1,2.78-.35,4.11-.4,1.19-1.28,1.89-2.53,2.02-1.39,.14-2.55-.36-3.21-1.6-.37-.7-.6-1.51-.71-2.3-.24-1.69-.18-3.38,.16-5.06,.06-.29,.15-.57,.25-.85,.66-1.74,1.97-2.48,3.74-2.12,1.51,.31,2.47,1.64,2.43,3.42h-1.75c-.08-.28-.14-.57-.23-.85-.27-.79-1.04-1.11-1.71-.64-.35,.25-.71,.65-.82,1.05-.5,1.9-.52,3.83-.08,5.75,.16,.71,.55,1.25,1.34,1.37,.68,.1,1.23-.19,1.42-.85,.14-.5,.18-1.04,.28-1.66Z"/>
        <path class="cls-1" d="M62.91,55.46c-.64,.16-1.19,.3-1.77,.44-.23-.97-.45-1.88-.66-2.77-.06,0-.08-.02-.1-.01-.65,.14-1.46,.1-1.89,.49-.4,.36-.47,1.17-.53,1.79-.1,1.16-.65,1.75-1.8,1.8-.14,0-.28,.06-.52,.12,.2-.93,.39-1.8,.58-2.67,.69-3.06,1.38-6.11,2.05-9.18,.09-.39,.25-.56,.63-.61,.47-.06,.94-.18,1.48-.29,.84,3.62,1.67,7.22,2.52,10.89Zm-3.41-6.6s-.06,0-.09,0c-.2,.88-.39,1.75-.61,2.72,.49-.12,.87-.21,1.26-.3-.2-.85-.38-1.64-.56-2.42Z"/>
        <path class="cls-1" d="M49.12,59.6c0-.26,0-.44,0-.62,0-3.56,.01-7.12,0-10.67,0-.43,.1-.64,.55-.7,.43-.06,.85-.2,1.34-.32v9.68c1.27-.47,2.46-.92,3.73-1.39,0,.62,.01,1.17,0,1.71,0,.11-.11,.29-.21,.33-1.77,.66-3.55,1.31-5.39,1.99Z"/>
        <path class="cls-1" d="M117.39,43.71c.66,.14,1.23,.25,1.8,.37v12.21c-.54-.12-1.05-.19-1.54-.36-.14-.05-.26-.36-.26-.55-.02-3.29-.01-6.57-.01-9.86v-1.82Z"/>
        <path class="cls-1" d="M132.13,59.9c-.5-.13-1-.24-1.48-.42-.13-.05-.24-.33-.24-.5-.02-1.75-.02-3.5-.02-5.25,0-2.04,0-4.09,0-6.24,.59,.18,1.12,.33,1.65,.51,.08,.03,.15,.2,.15,.31,.01,3.8,.01,7.59,.01,11.39,0,.05-.04,.1-.07,.2Z"/>
        <path class="cls-1" d="M95.95,96.82c.16,.16,.27,.23,.29,.31,.21,.73,.6,1.32,1.19,1.8,.12,.1,.18,.38,.13,.53-.03,.11-.28,.22-.44,.22-1.13,.06-1.85-.87-1.52-1.96,.09-.29,.21-.56,.35-.91Z"/>
      </g>
    </g>
  </g>
</svg>