<?xml version="1.0" encoding="UTF-8"?>
<svg id="Layer_2" data-name="Layer 2" xmlns="http://www.w3.org/2000/svg" xmlns:xlink="http://www.w3.org/1999/xlink" viewBox="0 0 181.02 181.22">
  <defs>
    <style>
      .cls-1 {
        clip-path: url(#clippath);
      }

      .cls-2 {
        fill: #fff;
      }

      .cls-3 {
        fill: #171726;
      }

      .cls-4 {
        fill: #1f1c2f;
      }

      .cls-5 {
        clip-path: url(#clippath-1);
      }

      .cls-6 {
        clip-path: url(#clippath-4);
      }

      .cls-7 {
        clip-path: url(#clippath-3);
      }

      .cls-8 {
        clip-path: url(#clippath-2);
      }

      .cls-9 {
        clip-path: url(#clippath-7);
      }

      .cls-10 {
        clip-path: url(#clippath-8);
      }

      .cls-11 {
        clip-path: url(#clippath-6);
      }

      .cls-12 {
        clip-path: url(#clippath-5);
      }

      .cls-13 {
        clip-path: url(#clippath-9);
      }

      .cls-14 {
        clip-path: url(#clippath-20);
      }

      .cls-15 {
        clip-path: url(#clippath-21);
      }

      .cls-16 {
        clip-path: url(#clippath-24);
      }

      .cls-17 {
        clip-path: url(#clippath-23);
      }

      .cls-18 {
        clip-path: url(#clippath-22);
      }

      .cls-19 {
        clip-path: url(#clippath-25);
      }

      .cls-20 {
        clip-path: url(#clippath-40);
      }

      .cls-21 {
        clip-path: url(#clippath-27);
      }

      .cls-22 {
        clip-path: url(#clippath-28);
      }

      .cls-23 {
        clip-path: url(#clippath-26);
      }

      .cls-24 {
        clip-path: url(#clippath-29);
      }

      .cls-25 {
        clip-path: url(#clippath-34);
      }

      .cls-26 {
        clip-path: url(#clippath-35);
      }

      .cls-27 {
        clip-path: url(#clippath-36);
      }

      .cls-28 {
        clip-path: url(#clippath-37);
      }

      .cls-29 {
        clip-path: url(#clippath-39);
      }

      .cls-30 {
        clip-path: url(#clippath-33);
      }

      .cls-31 {
        clip-path: url(#clippath-32);
      }

      .cls-32 {
        clip-path: url(#clippath-30);
      }

      .cls-33 {
        clip-path: url(#clippath-38);
      }

      .cls-34 {
        clip-path: url(#clippath-31);
      }

      .cls-35 {
        clip-path: url(#clippath-14);
      }

      .cls-36 {
        clip-path: url(#clippath-13);
      }

      .cls-37 {
        clip-path: url(#clippath-12);
      }

      .cls-38 {
        clip-path: url(#clippath-10);
      }

      .cls-39 {
        clip-path: url(#clippath-15);
      }

      .cls-40 {
        clip-path: url(#clippath-17);
      }

      .cls-41 {
        clip-path: url(#clippath-16);
      }

      .cls-42 {
        clip-path: url(#clippath-19);
      }

      .cls-43 {
        clip-path: url(#clippath-11);
      }

      .cls-44 {
        clip-path: url(#clippath-18);
      }
    </style>
    <clipPath id="clippath">
      <path class="cls-2" d="M75.42,63.99l-1.41-2.77-2.14-1.48-3.37-.07-1.68,1.94-.61,2.38,.95,2.96,2.02,1.85,1.41,1.17,4.61,2.19,.63-3.98-.41-4.18Zm-.41,7.6l-1.77-3.2-.7,2.23-.19-.12,.63-2.21-3.59-.95,.19,1.41-.22-.15-.17-1.38-2.02-.96-.06-.17,2.06,.89-.42-2.55-1.7,1.54-.03-.18,1.67-1.6-.39-2.38-1.04-.32,.15-.17,.87,.24-.17-.97,.15-.19,.19,1.21,1.75,.51-1.49-2.26,2.91,1.34-.81-1.26h.27l.72,1.08,.69-.62,.17,.12-.78,.68,.97,1.7,2.09,.63,.12,.32-.68,1.34,1.24,2.02,.05,.44-1.34-2.14-.92,2.82,2.06,.7-.46,2.57Z"/>
    </clipPath>
    <clipPath id="clippath-1">
      <polygon class="cls-2" points="68.52 61.83 70.29 62.37 68.84 63.97 68.52 61.83"/>
    </clipPath>
    <clipPath id="clippath-2">
      <polygon class="cls-2" points="70.8 62.22 72.65 62.8 71.73 61.4 70.8 62.22"/>
    </clipPath>
    <clipPath id="clippath-3">
      <polygon class="cls-2" points="70.59 62.44 72.89 63.1 74.16 65.33 73.04 68.1 70.59 62.44"/>
    </clipPath>
    <clipPath id="clippath-4">
      <path class="cls-2" d="M64.74,73.24l-.4-1.44-1.7-3.01-2.01-1.15-1.89,.08-1.57,.96-.6,2.51,.83,1.81,1.86,1.46,2.64,.88,3.32,.19-.47-2.28Zm-2.1,.29l-2.04,.32,1.05,1.18-.29-.1-1.09-1.1-1.28,.16-.11-.11-.1-1.51-1.07-.99-.63,.44-.02-.16,.57-.4-.66-.65,.03-.16,.66,.61-.39-1.76,1.34,.95-.06-1.34-.81-.32,.11-.1,.7,.27,.05-.68,.16-.1-.08,.82,1.67,.63,1.39-.92,.13,.13-1.36,.89,1.89,.81-.42-1.68,.55,.23,1.13,2.04-1.09-.47,.24,2.78,.95-2.09,.1,.16-.24,.81,.81,1.13-1.57,.23,1.94,1.8-1.98-.15-.21-1.62Z"/>
    </clipPath>
    <clipPath id="clippath-5">
      <polygon class="cls-2" points="58.82 70.46 60.23 69.57 58.7 68.99 58.82 70.46"/>
    </clipPath>
    <clipPath id="clippath-6">
      <path class="cls-2" d="M57.85,71.27c-.11,.02,.95,.92,.95,.92l-.1-1.5-.86,.58Z"/>
    </clipPath>
    <clipPath id="clippath-7">
      <polygon class="cls-2" points="58.87 70.59 58.93 72.37 60.44 73.71 62.65 73.42 58.87 70.59"/>
    </clipPath>
    <clipPath id="clippath-8">
      <path class="cls-2" d="M55.22,76.8l-1.25-1.94-1.54-1.23-1.58-.28-1.99,.9-.47,1.4,.24,1.54,1.37,1.41,2.78,.83h3.19l-.75-2.62Zm-1.37,2.4l-.07-1.35-2.42,.23,.48,.84-.22-.07-.4-.74-1.29,.06-.16-.12,1.37-.1-.93-1.2-.55,1.17-.12-.11,.57-1.15-.85-1.19-.61,.11,.06-.18,.46-.06-.28-.44,.05-.21,.4,.61,1.11-.19-1.4-.75,1.94-.07-.68-.42,.13-.07,.64,.36,.18-.48,.15,.02-.18,.53,.98,.64,1.25-.19,.16,.11,.08,1,1.07,.64,.17,.27-1.17-.66,.08,1.69,1.34-.11,.1,1.27-1.4-1.02,.11,1.32h-.17Z"/>
    </clipPath>
    <clipPath id="clippath-9">
      <polygon class="cls-2" points="51.31 77.94 53.72 77.75 50.58 77.08 51.31 77.94"/>
    </clipPath>
    <clipPath id="clippath-10">
      <polygon class="cls-2" points="49.4 75.41 50.17 76.51 50.68 75.2 49.4 75.41"/>
    </clipPath>
    <clipPath id="clippath-11">
      <polygon class="cls-2" points="50.83 75.09 52.01 74.91 51.19 74.35 50.83 75.09"/>
    </clipPath>
    <clipPath id="clippath-12">
      <polygon class="cls-2" points="50.88 75.21 51.77 77.28 53.68 75.99 50.88 75.21"/>
    </clipPath>
    <clipPath id="clippath-13">
      <polygon class="cls-2" points="52.39 74.97 53.55 75.67 53.48 74.85 52.39 74.97"/>
    </clipPath>
    <clipPath id="clippath-14">
      <path class="cls-2" d="M106.28,68.19l.63,3.98,4.61-2.19,1.41-1.17,2.02-1.84,.95-2.96-.61-2.38-1.67-1.94-3.37,.07-2.14,1.48-1.41,2.77-.41,4.18Zm.37,.85l2.06-.7-.92-2.82-1.33,2.14,.05-.44,1.24-2.02-.68-1.33,.12-.32,2.09-.63,.97-1.7-.78-.68,.17-.12,.69,.62,.72-1.08h.27l-.81,1.26,2.91-1.33-1.49,2.26,1.75-.51,.19-1.21,.15,.19-.17,.97,.87-.24,.15,.17-1.04,.32-.39,2.38,1.68,1.6-.03,.18-1.7-1.54-.42,2.55,2.07-.89-.06,.17-2.02,.96-.17,1.38-.22,.15,.19-1.41-3.59,.95,.63,2.21-.19,.12-.7-2.23-1.77,3.21-.46-2.57Z"/>
    </clipPath>
    <clipPath id="clippath-15">
      <polygon class="cls-2" points="113.59 61.85 111.81 62.38 113.27 63.99 113.59 61.85"/>
    </clipPath>
    <clipPath id="clippath-16">
      <polygon class="cls-2" points="109.46 62.82 111.3 62.24 110.38 61.41 109.46 62.82"/>
    </clipPath>
    <clipPath id="clippath-17">
      <polygon class="cls-2" points="111.52 62.46 109.21 63.11 107.95 65.35 109.07 68.11 111.52 62.46"/>
    </clipPath>
    <clipPath id="clippath-18">
      <path class="cls-2" d="M116.9,75.54l3.32-.19,2.64-.87,1.86-1.46,.82-1.81-.6-2.51-1.57-.95-1.89-.08-2.01,1.15-1.7,3.01-.4,1.44-.47,2.28Zm2.36-.37l-1.98,.15,1.94-1.8-1.57-.23,.81-1.13-.24-.81,.1-.16,.95,2.09,.24-2.78-1.09,.47,1.13-2.04,.55-.23-.42,1.68,1.89-.81-1.36-.89,.13-.13,1.39,.92,1.67-.63-.08-.83,.16,.1,.05,.68,.7-.28,.11,.1-.81,.32-.06,1.34,1.34-.95-.39,1.77,.66-.62,.03,.16-.66,.65,.57,.4-.02,.16-.63-.44-1.07,.99-.1,1.51-.11,.11-1.28-.16-1.09,1.1-.29,.1,1.05-1.18-2.04-.32-.21,1.62Z"/>
    </clipPath>
    <clipPath id="clippath-19">
      <polygon class="cls-2" points="121.88 69.59 123.29 70.48 123.4 69 121.88 69.59"/>
    </clipPath>
    <clipPath id="clippath-20">
      <polygon class="cls-2" points="123.24 70.61 123.18 72.39 121.67 73.73 119.45 73.44 123.24 70.61"/>
    </clipPath>
    <clipPath id="clippath-21">
      <path class="cls-2" d="M126.14,79.44h3.19l2.78-.82,1.37-1.41,.24-1.54-.47-1.4-1.99-.9-1.58,.28-1.54,1.23-1.25,1.94-.75,2.62Zm1.96-.23l.11-1.32-1.4,1.02,.1-1.27,1.34,.11,.08-1.69-1.17,.66,.17-.27,1.07-.64,.08-1,.16-.11,1.25,.19,.98-.64-.18-.53,.15-.02,.18,.49,.64-.37,.13,.07-.68,.42,1.94,.07-1.4,.75,1.1,.19,.4-.61,.05,.21-.28,.44,.46,.06,.06,.18-.61-.11-.85,1.19,.57,1.15-.12,.11-.55-1.17-.93,1.2,1.37,.1-.16,.12-1.29-.06-.4,.74-.22,.07,.48-.84-2.42-.23-.07,1.35h-.17Z"/>
    </clipPath>
    <clipPath id="clippath-22">
      <polygon class="cls-2" points="128.38 77.76 130.8 77.96 131.53 77.1 128.38 77.76"/>
    </clipPath>
    <clipPath id="clippath-23">
      <polygon class="cls-2" points="131.94 76.53 132.71 75.42 131.43 75.21 131.94 76.53"/>
    </clipPath>
    <clipPath id="clippath-24">
      <polygon class="cls-2" points="130.09 74.92 131.27 75.11 130.92 74.37 130.09 74.92"/>
    </clipPath>
    <clipPath id="clippath-25">
      <polygon class="cls-2" points="131.22 75.23 130.34 77.29 128.42 76.01 131.22 75.23"/>
    </clipPath>
    <clipPath id="clippath-26">
      <polygon class="cls-2" points="128.55 75.69 129.72 74.98 128.62 74.86 128.55 75.69"/>
    </clipPath>
    <clipPath id="clippath-27">
      <path class="cls-2" d="M92.36,53.61c-.61,0-1.21,.03-1.82,.08-.52,.04-1.04,.09-1.55,.19-1.48,.29-2.9,.78-4.19,1.58-.97,.6-1.74,1.38-2.27,2.39-.72,1.37-.82,2.84-.57,4.33,.24,1.46,1.02,2.64,2.16,3.55,1.19,.95,2.59,1.52,4.07,1.88,.66,.16,1.34,.25,2.02,.34,.6,.08,1.2,.16,1.8,.16,.63,0,1.27-.04,1.88-.17,1.46-.31,2.92-.68,4.35-1.03,.43-1.5,.85-2.92,1.26-4.34-.02-.01-.05-.02-.07-.03-.19,.37-.37,.75-.59,1.1-.72,1.18-1.7,2.08-2.92,2.72-1.17,.61-2.45,.85-3.76,.9-.52,.02-1.04-.07-1.55-.16-1.78-.3-3.09-1.27-3.92-2.87-.37-.72-.61-1.48-.76-2.28-.14-.7-.15-1.39-.04-2.08,.15-.94,.46-1.83,.94-2.65,.62-1.07,1.49-1.88,2.64-2.33,1.52-.59,3.09-.54,4.66-.21,.82,.18,1.59,.49,2.3,.94,.95,.61,1.76,1.35,2.34,2.33,.24,.4,.45,.83,.72,1.32-.02-.16-.01-.23-.03-.3-.37-1.31-.74-2.63-1.13-3.93-.03-.11-.17-.22-.28-.25-.98-.28-1.97-.57-2.96-.81-.89-.22-1.8-.36-2.72-.36Z"/>
    </clipPath>
    <clipPath id="clippath-28">
      <path class="cls-2" d="M57.1,84.95s19.06-3.62,34.47-3.62,34.51,3.62,34.51,3.62l-34.42-8.03-34.57,8.03Z"/>
    </clipPath>
    <clipPath id="clippath-29">
      <path class="cls-2" d="M23.99,101.05c0,5.75,7.03,6.73,9.57,6.73s4.57-.75,5.52-.98c.94-.23,1.09,1.17,1.09,1.17l.9-5.85s-1.79,4.96-7.45,4.96-5.94-5.56-5.94-6.03,.24-6.22,5.89-6.22,7.31,5.19,7.31,5.19l-.61-5.54c-.38,1.19-1.51,.68-1.51,.68,0,0-2.59-.98-5.19-.98s-9.57,1.12-9.57,6.88"/>
    </clipPath>
    <clipPath id="clippath-30">
      <path class="cls-2" d="M55.4,94.47c1.65,0,1.84,1.8,1.84,1.8v4.11h-8.82v-4.35c0-1.12,1.89-1.57,1.89-1.57h-7.12c1.75,0,1.79,1.71,1.79,1.71v9.77c0,1.26-1.84,1.5-1.84,1.5h7.03c-1.7,0-1.79-1.59-1.79-1.59v-4.82h8.82v4.91c0,.98-1.79,1.5-1.79,1.5h7.02c-1.6,0-1.79-1.55-1.79-1.55v-9.63c0-1.12,1.79-1.8,1.79-1.8h-7.02Z"/>
    </clipPath>
    <clipPath id="clippath-31">
      <path class="cls-2" d="M71.48,96.42l3.11,6.27h-6.18l3.07-6.27Zm0-1.94s-4.53,9.14-5.47,10.87c-.94,1.73-2.78,2.1-2.78,2.1h5.94c-3.07,0-2.26-1.96-2.26-1.96l1.18-2.15h6.88s.61,1.35,1.04,2.34c.42,.98-1.93,1.78-1.93,1.78h8.44c-1.37,0-2.55-1.73-2.55-1.73l-5.75-11.25h-2.73Z"/>
    </clipPath>
    <clipPath id="clippath-32">
      <path class="cls-2" d="M94.86,94.47s1.89,.12,1.98,1.61v7.3s.09,3.65-5.09,3.65-4.91-3.6-4.91-3.6v-7.25s0-1.71,1.84-1.71h-7.12s1.89,.63,1.89,1.71v6.69s-.09,5.05,7.21,5.05,6.93-4.49,6.93-4.49v-7.25s.14-1.71,1.94-1.71h-4.67Z"/>
    </clipPath>
    <clipPath id="clippath-33">
      <path class="cls-2" d="M117.12,94.47l-5.66,9.33-5.61-9.33h-5.19c1.89,.35,1.89,1.47,1.89,1.47v9.92c-.05,1.35-2.12,1.59-2.12,1.59h4.76c-1.65,0-1.79-1.64-1.79-1.64v-9.03l6.55,11.13,6.6-11.18v9.12c0,1.26-1.74,1.59-1.74,1.59h7.16c-1.93,0-1.93-1.59-1.93-1.59v-9.82c0-1.22,1.84-1.57,1.84-1.57h-4.76Z"/>
    </clipPath>
    <clipPath id="clippath-34">
      <path class="cls-2" d="M124.15,94.47c1.51,0,1.79,1.66,1.79,1.66v9.77c0,1.12-1.98,1.55-1.98,1.55h14.1l.9-4.16c-.75,3.46-4.72,3.51-4.72,3.51h-4.81v-5.75h3.58c1.51,0,2.07,2.52,2.07,2.52v-5.75c0,2.38-2.07,2.62-2.07,2.62h-3.53v-5.33h4.43c2.78,.23,4.24,3.65,4.24,3.65l-1.04-4.28h-12.97Z"/>
    </clipPath>
    <clipPath id="clippath-35">
      <path class="cls-2" d="M140.75,94.47l-.75,4.98c1.41-4.35,3.3-4.35,3.3-4.35h3.63v10.85c0,1.03-1.98,1.5-1.98,1.5h7.36c-1.93,0-1.98-1.59-1.98-1.59v-10.76h3.77c1.65,.23,3.25,4.39,3.25,4.39l-.85-5.03h-15.75Z"/>
    </clipPath>
    <clipPath id="clippath-36">
      <path class="cls-2" d="M76.09,112.4h2.17c.64,0,.96,.37,.96,.9,0,.57-.28,1.01-1.11,1.01h-2.02v-1.92Zm-.84-.72v5.6h.84v-2.25h2.13c1.19,0,1.84-.7,1.84-1.75s-.65-1.61-1.89-1.61h-2.91Z"/>
    </clipPath>
    <clipPath id="clippath-37">
      <path class="cls-2" d="M83.77,112.45l1.08,2.48h-2.15l1.06-2.48Zm-.44-.77l-2.56,5.61h.9l.72-1.63h2.77l.72,1.63h.96l-2.56-5.61h-.96Z"/>
    </clipPath>
    <clipPath id="clippath-38">
      <path class="cls-2" d="M89.55,112.4h2.37c.67,0,1,.36,1,.9,0,.39-.2,.89-1.02,.89h-2.34v-1.78Zm-.84-.72v5.6h.84v-2.38h2.19c.7,0,1.04,.31,1.09,1.31,.04,.67,.04,.91,.17,1.07h.89c-.19-.22-.22-.48-.27-1.52-.03-.66-.32-1.12-.82-1.19v-.02c.62-.2,.95-.7,.95-1.38s-.41-1.49-1.55-1.49h-3.5Z"/>
    </clipPath>
    <clipPath id="clippath-39">
      <rect class="cls-2" x="96.43" y="111.68" width=".84" height="5.61"/>
    </clipPath>
    <clipPath id="clippath-40">
      <path class="cls-2" d="M99.91,113.24c0,1.09,1.01,1.36,1.68,1.47l1.28,.21c.65,.11,1.05,.32,1.05,.83,0,.61-.63,.95-1.53,.95s-1.8-.26-1.82-1.26h-.84c0,1.55,1.32,1.99,2.6,1.99,1.14,0,2.43-.41,2.43-1.84,0-1.15-1.26-1.36-1.7-1.44l-1.39-.24c-.7-.12-.93-.39-.93-.74,0-.66,.69-.92,1.31-.92,1.35,0,1.61,.6,1.68,1.04h.84c-.08-1.35-1.27-1.76-2.41-1.76-1.45,0-2.26,.68-2.26,1.7"/>
    </clipPath>
  </defs>
  <g id="ADVERTISING">
    <g>
      <g>
        <path class="cls-4" d="M181.02,21.4V90.61H0V21.4C0,9.58,9.59,0,21.41,0H159.62c11.82,0,21.4,9.58,21.4,21.4Z"/>
        <path class="cls-3" d="M0,159.82V90.61H181.02v69.21c0,11.82-9.59,21.4-21.41,21.4H21.4c-11.82,0-21.4-9.58-21.4-21.4Z"/>
      </g>
      <g>
        <g>
          <path class="cls-2" d="M75.42,63.99l-1.41-2.77-2.14-1.48-3.37-.07-1.68,1.94-.61,2.38,.95,2.96,2.02,1.85,1.41,1.17,4.61,2.19,.63-3.98-.41-4.18Zm-.41,7.6l-1.77-3.2-.7,2.23-.19-.12,.63-2.21-3.59-.95,.19,1.41-.22-.15-.17-1.38-2.02-.96-.06-.17,2.06,.89-.42-2.55-1.7,1.54-.03-.18,1.67-1.6-.39-2.38-1.04-.32,.15-.17,.87,.24-.17-.97,.15-.19,.19,1.21,1.75,.51-1.49-2.26,2.91,1.34-.81-1.26h.27l.72,1.08,.69-.62,.17,.12-.78,.68,.97,1.7,2.09,.63,.12,.32-.68,1.34,1.24,2.02,.05,.44-1.34-2.14-.92,2.82,2.06,.7-.46,2.57Z"/>
          <g class="cls-1">
            <rect class="cls-2" x="63.21" y="58.11" width="15.63" height="15.61" transform="translate(-25.78 70.03) rotate(-45.3)"/>
          </g>
        </g>
        <g>
          <polygon class="cls-2" points="68.52 61.83 70.29 62.37 68.84 63.97 68.52 61.83"/>
          <g class="cls-5">
            <rect class="cls-2" x="68.03" y="61.52" width="2.77" height="2.76" transform="translate(-24.12 67.99) rotate(-45.3)"/>
          </g>
        </g>
        <g>
          <polygon class="cls-2" points="70.8 62.22 72.65 62.8 71.73 61.4 70.8 62.22"/>
          <g class="cls-8">
            <rect class="cls-2" x="70.58" y="60.95" width="2.3" height="2.3" transform="translate(-22.87 69.4) rotate(-45.3)"/>
          </g>
        </g>
        <g>
          <polygon class="cls-2" points="70.59 62.44 72.89 63.1 74.16 65.33 73.04 68.1 70.59 62.44"/>
          <g class="cls-7">
            <rect class="cls-2" x="69.1" y="62.01" width="6.53" height="6.52" transform="translate(-24.93 70.8) rotate(-45.3)"/>
          </g>
        </g>
        <g>
          <path class="cls-2" d="M64.74,73.24l-.4-1.44-1.7-3.01-2.01-1.15-1.89,.08-1.57,.96-.6,2.51,.83,1.81,1.86,1.46,2.64,.88,3.32,.19-.47-2.28Zm-2.1,.29l-2.04,.32,1.05,1.18-.29-.1-1.09-1.1-1.28,.16-.11-.11-.1-1.51-1.07-.99-.63,.44-.02-.16,.57-.4-.66-.65,.03-.16,.66,.61-.39-1.76,1.34,.95-.06-1.34-.81-.32,.11-.1,.7,.27,.05-.68,.16-.1-.08,.82,1.67,.63,1.39-.92,.13,.13-1.36,.89,1.89,.81-.42-1.68,.55,.23,1.13,2.04-1.09-.47,.24,2.78,.95-2.09,.1,.16-.24,.81,.81,1.13-1.57,.23,1.94,1.8-1.98-.15-.21-1.62Z"/>
          <g class="cls-6">
            <rect class="cls-2" x="55.05" y="65.74" width="11.68" height="11.69" transform="translate(-32.82 64.51) rotate(-45.3)"/>
          </g>
        </g>
        <g>
          <polygon class="cls-2" points="58.82 70.46 60.23 69.57 58.7 68.99 58.82 70.46"/>
          <g class="cls-12">
            <rect class="cls-2" x="58.41" y="68.66" width="2.12" height="2.12" transform="translate(-31.92 62.95) rotate(-45.3)"/>
          </g>
        </g>
        <g>
          <path class="cls-2" d="M57.85,71.27c-.11,.02,.95,.92,.95,.92l-.1-1.5-.86,.58Z"/>
          <g class="cls-11">
            <rect class="cls-2" x="57.36" y="70.53" width="1.82" height="1.82" transform="translate(-33.5 62.61) rotate(-45.3)"/>
          </g>
        </g>
        <g>
          <polygon class="cls-2" points="58.87 70.59 58.93 72.37 60.44 73.71 62.65 73.42 58.87 70.59"/>
          <g class="cls-9">
            <rect class="cls-2" x="58.32" y="69.71" width="4.88" height="4.89" transform="translate(-33.26 64.59) rotate(-45.3)"/>
          </g>
        </g>
        <g>
          <path class="cls-2" d="M55.22,76.8l-1.25-1.94-1.54-1.23-1.58-.28-1.99,.9-.47,1.4,.24,1.54,1.37,1.41,2.78,.83h3.19l-.75-2.62Zm-1.37,2.4l-.07-1.35-2.42,.23,.48,.84-.22-.07-.4-.74-1.29,.06-.16-.12,1.37-.1-.93-1.2-.55,1.17-.12-.11,.57-1.15-.85-1.19-.61,.11,.06-.18,.46-.06-.28-.44,.05-.21,.4,.61,1.11-.19-1.4-.75,1.94-.07-.68-.42,.13-.07,.64,.36,.18-.48,.15,.02-.18,.53,.98,.64,1.25-.19,.16,.11,.08,1,1.07,.64,.17,.27-1.17-.66,.08,1.69,1.34-.11,.1,1.27-1.4-1.02,.11,1.32h-.17Z"/>
          <g class="cls-10">
            <rect class="cls-2" x="47.35" y="71.56" width="9.65" height="9.66" transform="translate(-38.82 59.74) rotate(-45.3)"/>
          </g>
        </g>
        <g>
          <polygon class="cls-2" points="51.31 77.94 53.72 77.75 50.58 77.08 51.31 77.94"/>
          <g class="cls-13">
            <rect class="cls-2" x="50.74" y="76.09" width="2.82" height="2.84" transform="translate(-39.63 60.06) rotate(-45.3)"/>
          </g>
        </g>
        <g>
          <polygon class="cls-2" points="49.4 75.41 50.17 76.51 50.68 75.2 49.4 75.41"/>
          <g class="cls-38">
            <rect class="cls-2" x="49.13" y="74.94" width="1.83" height="1.83" transform="translate(-39.07 58.07) rotate(-45.3)"/>
          </g>
        </g>
        <g>
          <polygon class="cls-2" points="50.83 75.09 52.01 74.91 51.19 74.35 50.83 75.09"/>
          <g class="cls-43">
            <rect class="cls-2" x="50.75" y="74.04" width="1.36" height="1.36" transform="translate(-37.86 58.71) rotate(-45.3)"/>
          </g>
        </g>
        <g>
          <polygon class="cls-2" points="50.88 75.21 51.77 77.28 53.68 75.99 50.88 75.21"/>
          <g class="cls-37">
            <rect class="cls-2" x="50.57" y="74.52" width="3.44" height="3.44" transform="translate(-38.69 59.78) rotate(-45.3)"/>
          </g>
        </g>
        <g>
          <polygon class="cls-2" points="52.39 74.97 53.55 75.67 53.48 74.85 52.39 74.97"/>
          <g class="cls-36">
            <rect class="cls-2" x="52.27" y="74.56" width="1.41" height="1.41" transform="translate(-37.78 59.97) rotate(-45.3)"/>
          </g>
        </g>
        <g>
          <path class="cls-2" d="M106.28,68.19l.63,3.98,4.61-2.19,1.41-1.17,2.02-1.84,.95-2.96-.61-2.38-1.67-1.94-3.37,.07-2.14,1.48-1.41,2.77-.41,4.18Zm.37,.85l2.06-.7-.92-2.82-1.33,2.14,.05-.44,1.24-2.02-.68-1.33,.12-.32,2.09-.63,.97-1.7-.78-.68,.17-.12,.69,.62,.72-1.08h.27l-.81,1.26,2.91-1.33-1.49,2.26,1.75-.51,.19-1.21,.15,.19-.17,.97,.87-.24,.15,.17-1.04,.32-.39,2.38,1.68,1.6-.03,.18-1.7-1.54-.42,2.55,2.07-.89-.06,.17-2.02,.96-.17,1.38-.22,.15,.19-1.41-3.59,.95,.63,2.21-.19,.12-.7-2.23-1.77,3.21-.46-2.57Z"/>
          <g class="cls-35">
            <rect class="cls-2" x="103.27" y="58.12" width="15.63" height="15.61" transform="translate(-13.91 98.51) rotate(-45.3)"/>
          </g>
        </g>
        <g>
          <polygon class="cls-2" points="113.59 61.85 111.81 62.38 113.27 63.99 113.59 61.85"/>
          <g class="cls-39">
            <rect class="cls-2" x="111.32" y="61.54" width="2.77" height="2.76" transform="translate(-11.3 98.77) rotate(-45.3)"/>
          </g>
        </g>
        <g>
          <polygon class="cls-2" points="109.46 62.82 111.3 62.24 110.38 61.41 109.46 62.82"/>
          <g class="cls-41">
            <rect class="cls-2" x="109.23" y="60.97" width="2.3" height="2.3" transform="translate(-11.41 96.88) rotate(-45.3)"/>
          </g>
        </g>
        <g>
          <polygon class="cls-2" points="111.52 62.46 109.21 63.11 107.95 65.35 109.07 68.11 111.52 62.46"/>
          <g class="cls-40">
            <rect class="cls-2" x="106.47" y="62.03" width="6.53" height="6.52" transform="translate(-13.86 97.36) rotate(-45.3)"/>
          </g>
        </g>
        <g>
          <path class="cls-2" d="M116.9,75.54l3.32-.19,2.64-.87,1.86-1.46,.82-1.81-.6-2.51-1.57-.95-1.89-.08-2.01,1.15-1.7,3.01-.4,1.44-.47,2.28Zm2.36-.37l-1.98,.15,1.94-1.8-1.57-.23,.81-1.13-.24-.81,.1-.16,.95,2.09,.24-2.78-1.09,.47,1.13-2.04,.55-.23-.42,1.68,1.89-.81-1.36-.89,.13-.13,1.39,.92,1.67-.63-.08-.83,.16,.1,.05,.68,.7-.28,.11,.1-.81,.32-.06,1.34,1.34-.95-.39,1.77,.66-.62,.03,.16-.66,.65,.57,.4-.02,.16-.63-.44-1.07,.99-.1,1.51-.11,.11-1.28-.16-1.09,1.1-.29,.1,1.05-1.18-2.04-.32-.21,1.62Z"/>
          <g class="cls-44">
            <rect class="cls-2" x="115.38" y="65.76" width="11.68" height="11.69" transform="translate(-14.94 107.4) rotate(-45.3)"/>
          </g>
        </g>
        <g>
          <polygon class="cls-2" points="121.88 69.59 123.29 70.48 123.4 69 121.88 69.59"/>
          <g class="cls-42">
            <rect class="cls-2" x="121.58" y="68.68" width="2.12" height="2.12" transform="translate(-13.2 107.86) rotate(-45.3)"/>
          </g>
        </g>
        <g>
          <polygon class="cls-2" points="123.24 70.61 123.18 72.39 121.67 73.73 119.45 73.44 123.24 70.61"/>
          <g class="cls-14">
            <rect class="cls-2" x="118.9" y="69.72" width="4.88" height="4.89" transform="translate(-15.31 107.66) rotate(-45.3)"/>
          </g>
        </g>
        <g>
          <path class="cls-2" d="M126.14,79.44h3.19l2.78-.82,1.37-1.41,.24-1.54-.47-1.4-1.99-.9-1.58,.28-1.54,1.23-1.25,1.94-.75,2.62Zm1.96-.23l.11-1.32-1.4,1.02,.1-1.27,1.34,.11,.08-1.69-1.17,.66,.17-.27,1.07-.64,.08-1,.16-.11,1.25,.19,.98-.64-.18-.53,.15-.02,.18,.49,.64-.37,.13,.07-.68,.42,1.94,.07-1.4,.75,1.1,.19,.4-.61,.05,.21-.28,.44,.46,.06,.06,.18-.61-.11-.85,1.19,.57,1.15-.12,.11-.55-1.17-.93,1.2,1.37,.1-.16,.12-1.29-.06-.4,.74-.22,.07,.48-.84-2.42-.23-.07,1.35h-.17Z"/>
          <g class="cls-15">
            <rect class="cls-2" x="125.1" y="71.57" width="9.65" height="9.66" transform="translate(-15.77 115.02) rotate(-45.3)"/>
          </g>
        </g>
        <g>
          <polygon class="cls-2" points="128.38 77.76 130.8 77.96 131.53 77.1 128.38 77.76"/>
          <g class="cls-18">
            <rect class="cls-2" x="128.54" y="76.11" width="2.83" height="2.84" transform="translate(-16.56 115.37) rotate(-45.3)"/>
          </g>
        </g>
        <g>
          <polygon class="cls-2" points="131.94 76.53 132.71 75.42 131.43 75.21 131.94 76.53"/>
          <g class="cls-17">
            <rect class="cls-2" x="131.15" y="74.96" width="1.83" height="1.83" transform="translate(-14.76 116.38) rotate(-45.3)"/>
          </g>
        </g>
        <g>
          <polygon class="cls-2" points="130.09 74.92 131.27 75.11 130.92 74.37 130.09 74.92"/>
          <g class="cls-16">
            <rect class="cls-2" x="130.01" y="74.06" width="1.35" height="1.36" transform="translate(-14.36 115.06) rotate(-45.3)"/>
          </g>
        </g>
        <g>
          <polygon class="cls-2" points="131.22 75.23 130.34 77.29 128.42 76.01 131.22 75.23"/>
          <g class="cls-19">
            <rect class="cls-2" x="128.11" y="74.54" width="3.44" height="3.44" transform="translate(-15.7 114.9) rotate(-45.3)"/>
          </g>
        </g>
        <g>
          <polygon class="cls-2" points="128.55 75.69 129.72 74.98 128.62 74.86 128.55 75.69"/>
          <g class="cls-23">
            <rect class="cls-2" x="128.43" y="74.57" width="1.41" height="1.41" transform="translate(-15.2 114.12) rotate(-45.3)"/>
          </g>
        </g>
        <g>
          <path class="cls-2" d="M92.36,53.61c-.61,0-1.21,.03-1.82,.08-.52,.04-1.04,.09-1.55,.19-1.48,.29-2.9,.78-4.19,1.58-.97,.6-1.74,1.38-2.27,2.39-.72,1.37-.82,2.84-.57,4.33,.24,1.46,1.02,2.64,2.16,3.55,1.19,.95,2.59,1.52,4.07,1.88,.66,.16,1.34,.25,2.02,.34,.6,.08,1.2,.16,1.8,.16,.63,0,1.27-.04,1.88-.17,1.46-.31,2.92-.68,4.35-1.03,.43-1.5,.85-2.92,1.26-4.34-.02-.01-.05-.02-.07-.03-.19,.37-.37,.75-.59,1.1-.72,1.18-1.7,2.08-2.92,2.72-1.17,.61-2.45,.85-3.76,.9-.52,.02-1.04-.07-1.55-.16-1.78-.3-3.09-1.27-3.92-2.87-.37-.72-.61-1.48-.76-2.28-.14-.7-.15-1.39-.04-2.08,.15-.94,.46-1.83,.94-2.65,.62-1.07,1.49-1.88,2.64-2.33,1.52-.59,3.09-.54,4.66-.21,.82,.18,1.59,.49,2.3,.94,.95,.61,1.76,1.35,2.34,2.33,.24,.4,.45,.83,.72,1.32-.02-.16-.01-.23-.03-.3-.37-1.31-.74-2.63-1.13-3.93-.03-.11-.17-.22-.28-.25-.98-.28-1.97-.57-2.96-.81-.89-.22-1.8-.36-2.72-.36Z"/>
          <g class="cls-21">
            <rect class="cls-2" x="79.2" y="49.44" width="22.82" height="22.84" transform="translate(-16.39 82.45) rotate(-45.3)"/>
          </g>
        </g>
        <g>
          <path class="cls-2" d="M57.1,84.95s19.06-3.62,34.47-3.62,34.51,3.62,34.51,3.62l-34.42-8.03-34.57,8.03Z"/>
          <g class="cls-22">
            <rect class="cls-2" x="64.47" y="53.6" width="54.23" height="54.68" transform="translate(-30.37 89.11) rotate(-45.3)"/>
          </g>
        </g>
        <g>
          <path class="cls-2" d="M23.99,101.05c0,5.75,7.03,6.73,9.57,6.73s4.57-.75,5.52-.98c.94-.23,1.09,1.17,1.09,1.17l.9-5.85s-1.79,4.96-7.45,4.96-5.94-5.56-5.94-6.03,.24-6.22,5.89-6.22,7.31,5.19,7.31,5.19l-.61-5.54c-.38,1.19-1.51,.68-1.51,.68,0,0-2.59-.98-5.19-.98s-9.57,1.12-9.57,6.88"/>
          <g class="cls-24">
            <rect class="cls-2" x="21.62" y="90.15" width="21.81" height="21.84" transform="translate(-62.19 53.1) rotate(-45.3)"/>
          </g>
        </g>
        <g>
          <path class="cls-2" d="M55.4,94.47c1.65,0,1.84,1.8,1.84,1.8v4.11h-8.82v-4.35c0-1.12,1.89-1.57,1.89-1.57h-7.12c1.75,0,1.79,1.71,1.79,1.71v9.77c0,1.26-1.84,1.5-1.84,1.5h7.03c-1.7,0-1.79-1.59-1.79-1.59v-4.82h8.82v4.91c0,.98-1.79,1.5-1.79,1.5h7.02c-1.6,0-1.79-1.55-1.79-1.55v-9.63c0-1.12,1.79-1.8,1.79-1.8h-7.02Z"/>
          <g class="cls-32">
            <rect class="cls-2" x="41.38" y="89.54" width="22.79" height="22.84" transform="translate(-56.11 67.46) rotate(-45.3)"/>
          </g>
        </g>
        <g>
          <path class="cls-2" d="M71.48,96.42l3.11,6.27h-6.18l3.07-6.27Zm0-1.94s-4.53,9.14-5.47,10.87c-.94,1.73-2.78,2.1-2.78,2.1h5.94c-3.07,0-2.26-1.96-2.26-1.96l1.18-2.15h6.88s.61,1.35,1.04,2.34c.42,.98-1.93,1.78-1.93,1.78h8.44c-1.37,0-2.55-1.73-2.55-1.73l-5.75-11.25h-2.73Z"/>
          <g class="cls-34">
            <rect class="cls-2" x="61.47" y="89.54" width="22.79" height="22.84" transform="translate(-50.15 81.74) rotate(-45.3)"/>
          </g>
        </g>
        <g>
          <path class="cls-2" d="M94.86,94.47s1.89,.12,1.98,1.61v7.3s.09,3.65-5.09,3.65-4.91-3.6-4.91-3.6v-7.25s0-1.71,1.84-1.71h-7.12s1.89,.63,1.89,1.71v6.69s-.09,5.05,7.21,5.05,6.93-4.49,6.93-4.49v-7.25s.14-1.71,1.94-1.71h-4.67Z"/>
          <g class="cls-31">
            <rect class="cls-2" x="79.45" y="90.08" width="22.2" height="22.23" transform="translate(-45.07 94.38) rotate(-45.3)"/>
          </g>
        </g>
        <g>
          <path class="cls-2" d="M117.12,94.47l-5.66,9.33-5.61-9.33h-5.19c1.89,.35,1.89,1.47,1.89,1.47v9.92c-.05,1.35-2.12,1.59-2.12,1.59h4.76c-1.65,0-1.79-1.64-1.79-1.64v-9.03l6.55,11.13,6.6-11.18v9.12c0,1.26-1.74,1.59-1.74,1.59h7.16c-1.93,0-1.93-1.59-1.93-1.59v-9.82c0-1.22,1.84-1.57,1.84-1.57h-4.76Z"/>
          <g class="cls-30">
            <rect class="cls-2" x="98.85" y="88.81" width="24.72" height="24.78" transform="translate(-38.95 109.06) rotate(-45.3)"/>
          </g>
        </g>
        <g>
          <path class="cls-2" d="M124.15,94.47c1.51,0,1.79,1.66,1.79,1.66v9.77c0,1.12-1.98,1.55-1.98,1.55h14.1l.9-4.16c-.75,3.46-4.72,3.51-4.72,3.51h-4.81v-5.75h3.58c1.51,0,2.07,2.52,2.07,2.52v-5.75c0,2.38-2.07,2.62-2.07,2.62h-3.53v-5.33h4.43c2.78,.23,4.24,3.65,4.24,3.65l-1.04-4.28h-12.97Z"/>
          <g class="cls-25">
            <rect class="cls-2" x="121.57" y="91.07" width="19.77" height="19.79" transform="translate(-32.77 123.38) rotate(-45.3)"/>
          </g>
        </g>
        <g>
          <path class="cls-2" d="M140.75,94.47l-.75,4.98c1.41-4.35,3.3-4.35,3.3-4.35h3.63v10.85c0,1.03-1.98,1.5-1.98,1.5h7.36c-1.93,0-1.98-1.59-1.98-1.59v-10.76h3.77c1.65,.23,3.25,4.39,3.25,4.39l-.85-5.03h-15.75Z"/>
          <g class="cls-26">
            <rect class="cls-2" x="137.95" y="90.23" width="21.43" height="21.46" transform="translate(-27.67 135.62) rotate(-45.3)"/>
          </g>
        </g>
        <g>
          <path class="cls-2" d="M76.09,112.4h2.17c.64,0,.96,.37,.96,.9,0,.57-.28,1.01-1.11,1.01h-2.02v-1.92Zm-.84-.72v5.6h.84v-2.25h2.13c1.19,0,1.84-.7,1.84-1.75s-.65-1.61-1.89-1.61h-2.91Z"/>
          <g class="cls-27">
            <rect class="cls-2" x="73.97" y="110.81" width="7.36" height="7.36" transform="translate(-58.34 89.15) rotate(-45.3)"/>
          </g>
        </g>
        <g>
          <path class="cls-2" d="M83.77,112.45l1.08,2.48h-2.15l1.06-2.48Zm-.44-.77l-2.56,5.61h.9l.72-1.63h2.77l.72,1.63h.96l-2.56-5.61h-.96Z"/>
          <g class="cls-28">
            <rect class="cls-2" x="79.67" y="110.35" width="8.26" height="8.26" transform="translate(-56.52 93.52) rotate(-45.3)"/>
          </g>
        </g>
        <g>
          <path class="cls-2" d="M89.55,112.4h2.37c.67,0,1,.36,1,.9,0,.39-.2,.89-1.02,.89h-2.34v-1.78Zm-.84-.72v5.6h.84v-2.38h2.19c.7,0,1.04,.31,1.09,1.31,.04,.67,.04,.91,.17,1.07h.89c-.19-.22-.22-.48-.27-1.52-.03-.66-.32-1.12-.82-1.19v-.02c.62-.2,.95-.7,.95-1.38s-.41-1.49-1.55-1.49h-3.5Z"/>
          <g class="cls-33">
            <rect class="cls-2" x="87.49" y="110.67" width="7.63" height="7.63" transform="translate(-54.29 98.86) rotate(-45.3)"/>
          </g>
        </g>
        <g>
          <rect class="cls-2" x="96.43" y="111.68" width=".84" height="5.61"/>
          <g class="cls-29">
            <rect class="cls-2" x="94.56" y="112.21" width="4.58" height="4.54" transform="translate(-52.65 102.8) rotate(-45.3)"/>
          </g>
        </g>
        <g>
          <path class="cls-2" d="M99.91,113.24c0,1.09,1.01,1.36,1.68,1.47l1.28,.21c.65,.11,1.05,.32,1.05,.83,0,.61-.63,.95-1.53,.95s-1.8-.26-1.82-1.26h-.84c0,1.55,1.32,1.99,2.6,1.99,1.14,0,2.43-.41,2.43-1.84,0-1.15-1.26-1.36-1.7-1.44l-1.39-.24c-.7-.12-.93-.39-.93-.74,0-.66,.69-.92,1.31-.92,1.35,0,1.61,.6,1.68,1.04h.84c-.08-1.35-1.27-1.76-2.41-1.76-1.45,0-2.26,.68-2.26,1.7"/>
          <g class="cls-20">
            <rect class="cls-2" x="98.39" y="110.63" width="7.72" height="7.72" transform="translate(-51.05 106.63) rotate(-45.3)"/>
          </g>
        </g>
      </g>
    </g>
  </g>
</svg>