<?xml version="1.0" encoding="UTF-8"?>
<svg id="Layer_2" data-name="Layer 2" xmlns="http://www.w3.org/2000/svg" viewBox="0 0 181.02 181.22">
  <defs>
    <style>
      .cls-1 {
        fill: #fff;
      }

      .cls-2 {
        fill: #171726;
      }

      .cls-3 {
        fill: #1f1c2f;
      }
    </style>
  </defs>
  <g id="ADVERTISING">
    <g>
      <g>
        <path class="cls-3" d="M181.02,21.4V90.61H0V21.4C0,9.58,9.59,0,21.41,0H159.62c11.82,0,21.4,9.58,21.4,21.4Z"/>
        <path class="cls-2" d="M0,159.82V90.61H181.02v69.21c0,11.82-9.59,21.4-21.41,21.4H21.4c-11.82,0-21.4-9.58-21.4-21.4Z"/>
      </g>
      <path class="cls-1" d="M100.7,99.51c0,.23,.06,.35,.21,.35,.1,0,.19-.04,.29-.1l37.33-24.28c.66-.43,1.26-.66,2.15-.66h8.22c1.26,0,2.11,.85,2.11,2.11v15.67c0,1.88-.41,2.98-2.11,3.99l-9.95,5.98c-.12,.08-.25,.12-.33,.12-.12,0-.23-.08-.23-.43v-18.29c0-.21-.06-.35-.21-.35-.1,0-.19,.04-.29,.1l-27.3,17.74c-.77,.5-1.39,.64-2.09,.64h-18.11c-1.26,0-2.11-.85-2.11-2.11v-22.56c0-.17-.08-.31-.21-.31-.1,0-.19,.04-.29,.1l-18,10.82c-.19,.1-.23,.21-.23,.29s.02,.14,.17,.27l12.85,12.85c.17,.17,.29,.31,.29,.43,0,.14-.19,.23-.41,.23h-11.63c-.91,0-1.61-.14-2.11-.64l-7.8-7.8c-.08-.08-.14-.12-.23-.12-.06,0-.17,.04-.25,.08l-13.04,7.84c-.79,.48-1.32,.62-2.11,.62h-12c-1.26,0-2.11-.85-2.11-2.11v-15.38c0-1.9,.41-2.98,2.11-3.99l10.02-6.02c.1-.06,.19-.08,.27-.08,.14,0,.23,.17,.23,.5v20.57c0,.21,.06,.31,.21,.31,.08,0,.19-.06,.29-.12l33.84-20.34c.81-.48,1.3-.62,2.24-.62h18.21c1.26,0,2.11,.85,2.11,2.11l.02,22.6h0Z"/>
    </g>
  </g>
</svg>