<?xml version="1.0" encoding="UTF-8"?>
<svg id="Layer_2" data-name="Layer 2" xmlns="http://www.w3.org/2000/svg" viewBox="0 0 181.02 181.22">
  <defs>
    <style>
      .cls-1 {
        fill: #fff;
      }

      .cls-2 {
        fill: #171726;
      }

      .cls-3 {
        fill: #1f1c2f;
      }
    </style>
  </defs>
  <g id="ADVERTISING">
    <g>
      <g>
        <path class="cls-3" d="M181.02,21.4V90.61H0V21.4C0,9.58,9.59,0,21.41,0H159.62c11.82,0,21.4,9.58,21.4,21.4Z"/>
        <path class="cls-2" d="M0,159.82V90.61H181.02v69.21c0,11.82-9.59,21.4-21.41,21.4H21.4c-11.82,0-21.4-9.58-21.4-21.4Z"/>
      </g>
      <g>
        <path d="M52.97,39.75H125.98V124.78H52.97V39.75Zm13.04,1.26c.36,.25,.59,.39,.81,.55,2.21,1.56,2.83,4.09,1.56,6.39-.57,1.04-2.04,1.71-3.25,1.49-1.56-.28-2.42-1.08-2.64-2.48-.17-1.07,.18-2.03,.7-2.93,.22-.39,.37-.72,.05-1.13-.33-.42-.73-.41-1.18-.3-2.34,.61-3.27,3.08-1.91,5.14,1.2,1.81,2.9,3.04,4.99,3.47,3.15,.65,6.34,1.21,9.53,1.56,2.6,.29,5.23,.18,7.85,.32,1.85,.1,3.69,.3,5.53,.52,1.35,.16,2.56,.68,3.5,1.73,.85,.95,1.01,1.98,.5,3.14-.62,1.42-1.84,1.9-3.23,2.12-2.09,.34-4.15,.04-6.15-.48-3.71-.97-7.38-2.08-11.06-3.13-.66-.19-1.32-.38-1.97-.57,2.16,2.76,4.62,5.23,6.16,8.58,.39-.44,.65-.83,1-1.11,.76-.61,1.51-1.28,2.37-1.73,2.35-1.23,5.04-.58,6.69,1.49,1.42,1.78,1.89,3.84,1.9,6.05,.02,3.21-.69,6.28-1.89,9.23-1.25,3.07-2.61,6.09-3.92,9.13-.13,.31-.23,.63-.35,.95,.05,.05,.1,.09,.14,.14,.22-.13,.47-.23,.65-.41,2.45-2.37,5.01-4.63,7.29-7.15,4.14-4.56,7.2-9.72,8.05-15.99,.41-3,.06-5.74-2.03-8.08-.73-.81-1.46-1.63-2.19-2.44-.42-.47-.38-.73,.19-.99,.35-.16,.74-.28,1.12-.35,2.56-.5,5.15-.92,7.69-1.49,4.98-1.11,9.76-2.74,14.11-5.54,.71-.46,1.74-.47,2.63-.55,.53-.05,1.03,.27,1.2,.85,.16,.53,.03,1.02-.39,1.43-1.13,1.14-2.47,1.96-3.98,2.45-2.11,.68-4.26,1.24-6.39,1.87-.67,.2-1.33,.45-1.99,.68,.05,.15,.05,.2,.07,.23,2.64,3.68,3.06,7.78,2.28,12.11-.61,3.4-2.36,6.2-4.5,8.81-2.8,3.43-6.23,6.17-9.75,8.8-3.25,2.43-6.54,4.82-9.71,7.35-3.33,2.66-6.15,5.8-8.33,9.5-1.69,2.87-2.24,5.92-1.81,9.18,.63,4.82,5.53,8.82,10.27,8.14,3.26-.47,6.34-3.42,6.7-6.7,.1-.9,.11-1.8,.16-2.8,1.93,.73,3.2,2.06,3.9,3.82,.64,1.63,.6,3.39,.11,5.09-.84,2.93-2.91,4.79-5.51,6.15-.21,.11-.43,.21-.65,.32,.02,.03,.03,.07,.05,.1h33.78V41h-58.76Z"/>
        <path class="cls-1" d="M119.68,138.91c.57-1.98,1.1-3.82,1.64-5.67-.08-.05-.16-.11-.24-.16-.25,.19-.55,.35-.76,.59-1.11,1.29-1.98,2.72-2.34,4.4-.15,.69-.48,.96-1.16,.85-.3-.05-.6-.03-.99-.05,.3-1.02,.58-1.97,.87-2.92,.23-.75,.47-1.5,.68-2.25,.27-.95,.24-1-.76-1.44,1.13-.19,2.12-.35,3.23-.53-.33,1.12-.62,2.09-.9,3.05,.04,.02,.08,.04,.12,.06,.15-.2,.28-.41,.44-.6,.49-.61,.94-1.27,1.49-1.81,.3-.3,.76-.52,1.19-.6,.75-.14,1.12,.23,1.07,.99-.02,.41-.16,.81-.25,1.21-.06,.27-.13,.53-.08,.85,.32-.43,.62-.88,.98-1.28,.5-.54,1.02-1.07,1.6-1.53,.45-.36,1.03-.45,1.53-.08,.46,.33,.49,.84,.33,1.37-.36,1.16-.73,2.32-1.09,3.49-.07,.21-.16,.41-.19,.62-.02,.15,.05,.31,.07,.47,.15-.06,.33-.09,.44-.19,.22-.2,.4-.44,.63-.7-.04,1.07-1.68,2.23-2.6,1.88-.48-.18-.67-.57-.53-1.05,.26-.96,.56-1.92,.85-2.88,.12-.42,.28-.83,.37-1.25,.04-.18-.03-.39-.05-.58-.2,.06-.45,.07-.58,.19-1.04,.98-1.97,2.04-2.46,3.42-.18,.51-.37,1.03-.49,1.56-.1,.44-.32,.62-.77,.59-.39-.03-.78,0-1.28,0Z"/>
        <path class="cls-1" d="M65.91,138.79c.29-1,.58-1.99,.88-2.99,.57-1.92,1.14-3.84,1.69-5.77,.24-.84,.16-.96-.68-1.37,.99-.17,1.98-.34,3.08-.53-.69,2.36-1.33,4.56-1.97,6.77,.04,.02,.07,.05,.11,.07,.14-.17,.27-.34,.41-.51,.53-.64,1.03-1.31,1.61-1.89,.31-.31,.74-.57,1.16-.71,.89-.3,1.49,.17,1.42,1.1-.05,.55-.23,1.1-.4,1.64-.29,.94-.61,1.86-.9,2.8-.05,.16,.02,.36,.03,.54,.18-.08,.4-.12,.55-.24,.21-.18,.38-.42,.59-.61-.26,1.03-1.31,1.88-2.22,1.88-.76,0-1.15-.45-.94-1.19,.34-1.21,.76-2.41,1.11-3.62,.09-.31,.05-.66,.07-.99-.34,.15-.75,.22-.99,.46-1.14,1.12-1.97,2.43-2.4,3.98-.39,1.4-.67,1.54-2.19,1.16Z"/>
        <path class="cls-1" d="M105.89,131.96c.35,.04,.59,.07,.86,.1,.05,.46,.02,.84-.59,.77-.47-.06-.59,.24-.69,.59-.52,1.75-1.02,3.51-1.6,5.24-.26,.77-.65,1.52-1.09,2.22-.61,.96-1.55,1.45-2.69,1.49-.23,0-.48-.04-.7-.11-.48-.14-.7-.48-.53-.95,.19-.51,.67-.55,1.11-.41,.46,.15,.46,.52,.26,.91-.02,.04-.01,.08-.04,.27,.25-.1,.51-.12,.61-.26,.26-.36,.53-.76,.66-1.18,.72-2.4,1.39-4.8,2.08-7.21,.05-.16,.06-.33,.09-.54-.29-.04-.54-.07-.83-.11-.02-.43,.02-.72,.55-.85,.35-.09,.66-.44,.91-.74,.52-.64,.91-1.39,1.47-1.99,.75-.8,1.75-1.13,2.86-.94,.27,.05,.52,.18,.83,.29,.14-.07,.32-.2,.52-.27,.54-.18,1.01-.06,1.31,.44,.26,.45,.24,.93-.13,1.32-.4,.42-.91,.44-1.37,.16-.29-.17-.49-.3-.87-.2-.53,.14-.82-.34-.66-.94,.04-.17,.02-.36,.03-.54-.2,.04-.51,0-.6,.12-.48,.66-.94,1.34-1.34,2.05-.19,.35-.24,.78-.38,1.25Z"/>
        <path class="cls-1" d="M58.97,131.9c-.53,1.82-1.04,3.48-1.5,5.16-.09,.32,0,.68,0,1.02,.28-.21,.58-.4,.85-.63,.09-.07,.1-.22,.22-.27-.19,1.11-1.26,1.96-2.28,1.94-.62-.02-.87-.27-.81-.91,.04-.4,.16-.8,.15-1.27-.13,.17-.24,.35-.38,.51-.44,.48-.83,1.03-1.35,1.41-.88,.64-1.82,.26-2.04-.8-.1-.5-.12-1.05-.02-1.55,.3-1.56,1.02-2.91,2.25-3.95,.13-.11,.27-.22,.42-.31,1.1-.72,1.79-.58,2.48,.55,.23-1.3,1.2-.7,2.02-.9Zm-5.35,5.04c.07,.16,.18,.51,.38,.77,.06,.08,.5,0,.63-.14,1.21-1.24,1.94-2.72,1.91-4.48,0-.29-.26-.8-.45-.82-.28-.04-.72,.19-.9,.44-.87,1.2-1.38,2.55-1.57,4.23Z"/>
        <path class="cls-1" d="M90.39,132.89c.26-1.34,1.18-.82,1.99-.96-.08,.36-.13,.63-.21,.89-.43,1.48-.88,2.96-1.3,4.45-.07,.24,.02,.52,.03,.78,.25-.14,.51-.26,.74-.43,.15-.11,.25-.28,.43-.47-.17,1.1-1.54,2.15-2.55,1.96-.5-.09-.74-.45-.64-1.02,.04-.21,.11-.42,.16-.63,.04-.18,.08-.36,.04-.58-.27,.36-.52,.74-.81,1.09-.22,.27-.46,.53-.73,.75-1.02,.82-2.09,.43-2.33-.85-.38-2.01,1.39-5.18,3.32-5.92,.92-.35,1.38-.15,1.86,.95Zm-.3,.3c-.11-.22-.25-.63-.51-.92-.08-.09-.65,.1-.8,.3-1,1.31-1.6,2.78-1.66,4.44,0,.24,.17,.64,.34,.68,.23,.06,.61-.07,.78-.26,1.05-1.14,1.63-2.5,1.85-4.25Z"/>
        <path class="cls-1" d="M44.73,132.48c.68-.21,1.35-.46,2.05-.6,.16-.03,.54,.31,.58,.52,.19,.96,.32,1.93,.42,2.9,.09,.86,.11,1.72,.16,2.58,.07,.03,.14,.06,.22,.08,.67-1.13,1.38-2.24,2.01-3.39,.22-.41,.08-.85-.35-1.14-.42-.28-.67-.63-.38-1.16,.24-.43,.61-.56,1.06-.45,.55,.13,.81,.54,.73,1.08-.07,.49-.18,1-.41,1.42-1.34,2.46-2.9,4.78-4.87,6.78-.5,.51-1.18,.9-1.84,1.18-.27,.11-.82-.11-1.07-.35-.19-.19-.23-.7-.13-1,.23-.66,.93-.73,1.49-.21,.26,.25,.48,.63,.93,.39,.44-.23,.77-.53,.75-1.11-.07-2-.09-4.01-.18-6.01-.04-.88-.33-1.17-1.13-1.51Z"/>
        <path class="cls-1" d="M113.15,128.66c.99-.17,1.97-.33,3.08-.52-.46,1.51-.87,2.87-1.28,4.24-.52,1.71-1.04,3.41-1.53,5.13-.06,.2,.03,.44,.05,.66,.22-.09,.47-.14,.65-.29,.24-.19,.42-.45,.75-.82-.38,1.11-1.43,2.01-2.25,2.05-.96,.05-1.39-.46-1.13-1.39,.41-1.44,.86-2.88,1.29-4.31,.35-1.15,.7-2.29,1.04-3.44,.24-.81,.17-.92-.66-1.31Z"/>
        <path class="cls-1" d="M91.75,142.05c.43,.02,.55-.4,.67-.82,.6-2.14,1.21-4.27,1.81-6.41,.12-.44,.26-.87,.38-1.32,.22-.81,.15-.93-.68-1.29,1-.16,1.99-.31,3.12-.49-.33,1.11-.61,2.07-.91,3.02-.52,1.66-1.02,3.33-1.6,4.97-.46,1.27-1.17,2.38-2.66,2.6-.37,.06-.79,.01-1.14-.11-.42-.15-.57-.53-.37-.97,.17-.39,.85-.64,1.1-.35,.2,.24,.18,.67,.28,1.16Z"/>
        <path class="cls-1" d="M59.93,136.7c.11,.27,.17,.58,.33,.82,.3,.41,.6,.85,1,1.15,.46,.34,1.01,.3,1.42-.15,.4-.44,.31-.95,.01-1.39-.34-.5-.77-.94-1.15-1.42-.46-.57-1.01-1.09-1.02-1.91,0-1.02,.62-1.83,1.64-1.94,.49-.06,1,0,1.5,.04,.5,.03,1,.08,1.58,.13-.09,.6-.19,1.31-.29,2.03-.04,0-.09,.01-.13,.02-.07-.21-.08-.47-.21-.63-.34-.43-.67-.94-1.12-1.19-.27-.15-.91,0-1.13,.25-.17,.19-.08,.8,.1,1.1,.32,.53,.81,.96,1.22,1.45,.88,1.05,1.03,2.06,.45,2.99-.55,.88-1.72,1.27-2.96,1.02-.52-.1-1.06-.11-1.69-.17,.03-.2,.07-.59,.13-.98,.05-.39,.11-.77,.17-1.16,.05-.01,.11-.02,.16-.03Z"/>
        <path class="cls-1" d="M133.94,131.98c-.09,.61-.19,1.33-.29,2.05l-.14,.02c-.07-.2-.13-.41-.2-.61-.23-.66-.63-1.19-1.35-1.27-.31-.03-.79,.11-.94,.34-.15,.23-.1,.75,.07,1,.44,.64,1.02,1.19,1.5,1.81,1.13,1.45,.5,3.32-1.29,3.71-.57,.12-1.2-.05-1.81-.07-.41-.02-.82,0-1.34,0,.1-.69,.2-1.46,.31-2.23,.05-.01,.11-.02,.16-.04,.1,.24,.19,.49,.29,.73,.23,.62,.57,1.19,1.25,1.32,.37,.07,.94,0,1.17-.23,.23-.24,.27-.81,.16-1.18-.11-.39-.47-.72-.74-1.06-.39-.5-.85-.95-1.2-1.47-.86-1.28-.08-2.86,1.46-2.97,.47-.04,.95,.05,1.43,.07,.48,.03,.95,.05,1.49,.07Z"/>
        <path class="cls-1" d="M79.53,132.28c1.05-.19,1.97-.36,3.04-.55-.4,1.31-.76,2.45-1.11,3.6l.14,.06c.1-.19,.2-.38,.3-.57,.47-.83,.92-1.68,1.43-2.49,.26-.41,.69-.66,1.18-.48,.52,.2,.44,.7,.38,1.13-.04,.29-.13,.6-.29,.85-.27,.44-.64,.46-.93,.03-.37-.55-.7-.32-.89,.06-.61,1.22-1.23,2.45-1.7,3.72-.52,1.39-.54,1.47-2.17,1.17,.23-.83,.46-1.66,.69-2.48,.25-.88,.51-1.75,.74-2.64,.25-.96,.2-1.04-.82-1.43Z"/>
        <path class="cls-1" d="M110.88,131.73c-.6,1.9-1.15,3.61-1.66,5.34-.09,.31-.02,.67-.03,1.01,.28-.2,.57-.39,.83-.62,.15-.13,.25-.31,.48-.6-.34,1.3-1.51,2.29-2.48,2.25-.66-.03-1.04-.39-.95-1.04,.08-.58,.27-1.14,.44-1.7,.28-.94,.6-1.86,.89-2.8,.25-.83,.18-.96-.62-1.37,.98-.15,1.96-.3,3.1-.48Z"/>
        <path class="cls-1" d="M97.45,129.32c-.01,.63-.5,1.08-1.15,1.05-.63-.02-1.04-.46-1.03-1.09,0-.61,.47-1.06,1.07-1.07,.62,0,1.12,.49,1.1,1.11Z"/>
        <path class="cls-1" d="M66.01,41h58.76V123.54h-33.78s-.03-.07-.05-.1c.22-.11,.43-.21,.65-.32,2.6-1.36,4.67-3.22,5.51-6.15,.49-1.7,.53-3.46-.11-5.09-.7-1.76-1.97-3.1-3.9-3.82-.06,1-.06,1.91-.16,2.8-.37,3.28-3.44,6.23-6.7,6.7-4.74,.68-9.64-3.32-10.27-8.14-.42-3.27,.12-6.31,1.81-9.18,2.18-3.7,5-6.84,8.33-9.5,3.17-2.53,6.46-4.91,9.71-7.35,3.52-2.64,6.94-5.38,9.75-8.8,2.14-2.61,3.89-5.42,4.5-8.81,.78-4.33,.36-8.43-2.28-12.11-.02-.03-.03-.08-.07-.23,.66-.23,1.32-.48,1.99-.68,2.13-.63,4.28-1.19,6.39-1.87,1.51-.48,2.85-1.3,3.98-2.45,.41-.42,.54-.9,.39-1.43-.17-.57-.67-.9-1.2-.85-.89,.08-1.93,.1-2.63,.55-4.34,2.79-9.12,4.43-14.11,5.54-2.55,.57-5.13,.99-7.69,1.49-.38,.07-.76,.19-1.12,.35-.58,.26-.61,.52-.19,.99,.73,.81,1.46,1.62,2.19,2.44,2.09,2.34,2.43,5.08,2.03,8.08-.85,6.27-3.9,11.43-8.05,15.99-2.28,2.52-4.85,4.78-7.29,7.15-.18,.17-.43,.27-.65,.41-.05-.05-.1-.09-.14-.14,.12-.32,.22-.64,.35-.95,1.31-3.04,2.67-6.06,3.92-9.13,1.2-2.95,1.91-6.02,1.89-9.23-.02-2.21-.48-4.28-1.9-6.05-1.65-2.07-4.34-2.72-6.69-1.49-.86,.45-1.61,1.11-2.37,1.73-.35,.28-.61,.67-1,1.11-1.54-3.35-4-5.82-6.16-8.58,.66,.19,1.32,.39,1.97,.57,3.68,1.05,7.35,2.16,11.06,3.13,2,.52,4.07,.83,6.15,.48,1.39-.23,2.61-.7,3.23-2.12,.51-1.17,.35-2.19-.5-3.14-.94-1.05-2.15-1.57-3.5-1.73-1.84-.22-3.68-.42-5.53-.52-2.61-.14-5.25-.03-7.85-.32-3.2-.35-6.38-.91-9.53-1.56-2.09-.43-3.78-1.66-4.99-3.47-1.36-2.05-.43-4.53,1.91-5.14,.45-.12,.85-.12,1.18,.3,.32,.41,.17,.74-.05,1.13-.51,.9-.87,1.86-.7,2.93,.22,1.4,1.08,2.2,2.64,2.48,1.22,.22,2.68-.45,3.25-1.49,1.27-2.3,.65-4.83-1.56-6.39-.22-.16-.45-.31-.81-.55Z"/>
      </g>
    </g>
  </g>
</svg>