<?xml version="1.0" encoding="UTF-8"?>
<svg id="Layer_2" data-name="Layer 2" xmlns="http://www.w3.org/2000/svg" viewBox="0 0 181.02 181.22">
  <defs>
    <style>
      .cls-1 {
        fill: #fff;
      }

      .cls-2 {
        fill: #171726;
      }

      .cls-3 {
        fill: #1f1c2f;
      }

      .cls-4 {
        fill: #231f20;
      }
    </style>
  </defs>
  <g id="ADVERTISING">
    <g>
      <g>
        <path class="cls-3" d="M181.02,21.4V90.61H0V21.4C0,9.58,9.59,0,21.41,0H159.62c11.82,0,21.4,9.58,21.4,21.4Z"/>
        <path class="cls-2" d="M0,159.82V90.61H181.02v69.21c0,11.82-9.59,21.4-21.41,21.4H21.4c-11.82,0-21.4-9.58-21.4-21.4Z"/>
      </g>
      <g>
        <path class="cls-1" d="M57.95,107.11c12.48,0,22.78-10.05,22.81-22.73,.02-12.67-10.18-22.82-22.74-22.86-12.57-.04-22.87,10.12-22.88,22.79-.01,12.71,10.36,22.81,22.81,22.79Z"/>
        <path class="cls-1" d="M132.89,87.54c0,.15,0,.26,0,.37,0,1.5,0,3,0,4.51,0,.06,0,.12,0,.18,0,.11-.04,.19-.15,.22-.17,.05-.34,.12-.51,.17-1.09,.3-2.19,.48-3.31,.56-1.42,.1-2.82,.03-4.2-.33-2.15-.56-3.61-1.89-4.35-3.99-.37-1.04-.57-2.11-.63-3.21-.06-.96-.07-1.93-.06-2.89,.02-1.1,.14-2.2,.41-3.28,.22-.88,.54-1.73,1.03-2.5,.97-1.51,2.4-2.33,4.12-2.71,1.17-.26,2.35-.28,3.53-.22,.49,.03,.99,.1,1.48,.19,1.78,.34,3.23,1.24,4.38,2.63,.07,.08,.14,.16,.23,.25,1.42-1.31,2.81-2.6,4.2-3.89-.02-.06-.02-.08-.04-.09-.04-.07-.09-.13-.14-.19-1.18-1.55-2.71-2.64-4.5-3.38-1.98-.81-4.05-1.12-6.17-1.18-.91-.03-1.81,.02-2.71,.1-1.13,.1-2.24,.29-3.33,.61-3.81,1.11-6.48,3.48-7.92,7.2-.71,1.85-1.05,3.77-1.15,5.73-.09,1.65-.06,3.3,.15,4.94,.18,1.41,.48,2.78,.98,4.11,1.23,3.28,3.46,5.57,6.76,6.8,1.82,.68,3.71,.96,5.63,1.03,1.54,.06,3.08-.01,4.61-.22,1.49-.2,2.96-.51,4.39-.97,1.17-.38,2.29-.85,3.33-1.52,.18-.11,.26-.24,.25-.46-.01-.54,0-1.07,0-1.61,0-4.01,0-8.02,0-12.03,0-.13-.02-.27-.02-.4h-11.84c-.06,.38-.05,5.22,.02,5.46h5.56Z"/>
        <path class="cls-1" d="M91.16,69.23v29.6c.31,.07,20.72,.06,20.95,0,.07-.34,.05-5.46-.03-5.72h-14.13v-14.33c0-1.59,0-3.18,0-4.78,0-1.59,0-3.18,0-4.78h-6.8Z"/>
        <path class="cls-1" d="M127.98,108.62c-.36-.44-.79-.71-1.27-.89-.92-.34-1.87-.36-2.82-.17-1.4,.29-2.32,1.14-2.71,2.52-.12,.43-.18,.88-.22,1.32-.08,.81,0,1.61,.22,2.39,.35,1.24,1.14,2.05,2.4,2.36,.72,.18,1.46,.17,2.19,.11,.66-.05,1.32-.18,1.94-.42,.27-.1,.27-.1,.27-.39,0-1.16,0-2.33,0-3.49,0-.09-.02-.19-.03-.28h-3.21c-.04,.33-.05,.64,0,.98,.13,0,.24,0,.34,0,.43,0,.86,0,1.28,0,.31,0,.32,.01,.32,.32,0,.6,0,1.19,0,1.79,0,.09-.02,.17-.03,.27-.13,.03-.25,.06-.36,.09-.49,.11-.98,.13-1.48,.12-1.2-.02-2.07-.68-2.38-1.84-.27-1.04-.25-2.09,.06-3.12,.19-.64,.55-1.17,1.15-1.5,.31-.17,.64-.26,.99-.3,.88-.09,1.68,.08,2.36,.68,.05,.04,.1,.09,.17,.15,.26-.23,.51-.46,.78-.7Z"/>
        <path class="cls-1" d="M104.07,107.36c-.08-.03-.13-.06-.19-.07-.63-.17-1.28-.21-1.92-.07-.9,.2-1.41,.77-1.52,1.69-.04,.33-.03,.65-.05,.98,0,.1-.02,.21-.03,.35h-.8v.93c.29,.01,.55,.02,.83,.04,0,.18,.02,.31,.02,.45,0,1.38,0,2.77,0,4.15,0,.12,.02,.25,.03,.36h1.22c0-.14,.03-.27,.03-.39,0-1.38,0-2.77,0-4.15,0-.14,.02-.27,.03-.42,.69-.05,1.35,.02,2.02-.04v-.91c-.12,0-.21-.02-.31-.02-.5,0-.99,0-1.49,0-.24,0-.26-.03-.26-.26,0-.3,0-.6,.04-.89,.08-.66,.43-.97,1.1-.96,.32,0,.65,.06,1,.09,.1-.26,.2-.54,.25-.85Z"/>
        <path class="cls-1" d="M91.17,107.62c-.06,.43-.04,8.31,.02,8.54h5.04c.02-.35,.03-.68,0-1.03-.65,0-1.27,0-1.89,0-.61,0-1.23,.03-1.86-.03,0-.85,0-1.68,0-2.5s0-1.67,0-2.51c0-.82,0-1.64,0-2.47h-1.3Z"/>
        <path class="cls-1" d="M116.61,110.48c-.12-.05-.19-.08-.26-.1-.84-.27-1.71-.35-2.59-.24-.4,.05-.77,.18-1.11,.39-.87,.55-.96,2.09,.07,2.63,.16,.08,.32,.17,.49,.22,.47,.16,.94,.31,1.41,.48,.22,.08,.44,.19,.62,.34,.27,.22,.28,.6,.06,.86-.13,.15-.3,.23-.49,.26-.75,.15-1.48,.04-2.2-.2-.1-.03-.2-.07-.32-.12-.13,.32-.26,.6-.38,.9,.08,.04,.12,.07,.17,.08,1.02,.36,2.06,.44,3.11,.23,.93-.19,1.56-.75,1.49-1.83-.03-.51-.24-.9-.68-1.16-.25-.14-.52-.25-.79-.35-.45-.17-.92-.31-1.37-.49-.16-.06-.32-.16-.45-.28-.24-.21-.25-.55-.03-.77,.09-.1,.22-.18,.35-.22,.33-.11,.68-.14,1.03-.1,.48,.04,.94,.14,1.38,.33,.03,.01,.07,0,.13,.02,.12-.29,.24-.57,.37-.88Z"/>
        <path class="cls-1" d="M98.42,116.17c.07-.33,.06-5.68,0-5.91h-1.21c-.01,.07-.02,.12-.02,.17,0,1.85,0,3.7,0,5.54,0,.06,.03,.13,.04,.2h1.19Z"/>
        <path class="cls-1" d="M110.49,107.26c0,1-.17,1.91-.66,2.76,.28,.18,.53,.33,.77,.49,.7-.7,1.27-2.53,1.01-3.25h-1.12Z"/>
        <path class="cls-1" d="M98.44,107.7h-1.25v1.12h1.25v-1.12Z"/>
        <path class="cls-1" d="M57.95,107.11c-12.45,.01-22.82-10.08-22.81-22.79,.01-12.67,10.31-22.83,22.88-22.79,12.57,.04,22.77,10.19,22.74,22.86-.03,12.68-10.33,22.74-22.81,22.73Zm.91-41.9c-3.08-.16-5.99,.4-8.76,1.66-3.83,1.75-6.79,4.46-8.86,8.14-4.05,7.21-2.97,16.45,2.89,22.54,5.82,6.06,15.02,7.64,22.52,3.78,7.76-3.99,10.79-11.66,10.41-17.84h-13.65c0,.58-.01,1.14,.01,1.73h9.44c.4,0,.8,0,1.19,0,.38,0,.77-.01,1.15,.01,0,.18,.01,.32,0,.46-.05,.42-.09,.85-.15,1.27-.41,2.72-1.4,5.22-3.04,7.44-3.19,4.33-7.48,6.74-12.85,7.18-1.72,.14-3.42-.01-5.1-.4-3.26-.76-6.05-2.36-8.42-4.73-4.17-4.18-5.82-9.99-4.67-15.63,1.16-5.68,5.21-10.47,10.61-12.59,1.39-.54,2.82-.92,4.3-1.07,.87-.09,1.75-.09,2.62-.13,.11,0,.23,0,.35-.01v-1.78Zm.06,27.28v-13.65c0-.76,0-1.51,0-2.27,0-.75,0-1.5,0-2.29-.65,0-1.26-.03-1.87,.02,0,.08-.02,.13-.02,.18,0,6.57,0,13.13,0,19.7,0,.03,0,.06,.02,.09,0,0,.01,.02,.02,.02,0,0,.01,.01,.02,.02,.44,.05,6.13,.03,6.38-.03,0-.58,.01-1.17,0-1.79h-4.53Zm-8.23-12.72c1.5,0,2.74-1.24,2.74-2.74,0-1.49-1.23-2.74-2.73-2.75-1.53,0-2.8,1.24-2.79,2.75,.01,1.51,1.25,2.73,2.78,2.73Z"/>
        <path class="cls-1" d="M132.89,87.54h-5.56c-.07-.24-.08-5.08-.02-5.46h11.84c0,.13,.02,.27,.02,.4,0,4.01,0,8.02,0,12.03,0,.54,0,1.07,0,1.61,0,.22-.08,.34-.25,.46-1.04,.66-2.16,1.14-3.33,1.52-1.43,.46-2.9,.77-4.39,.97-1.53,.21-3.07,.28-4.61,.22-1.93-.07-3.82-.36-5.63-1.03-3.3-1.23-5.52-3.52-6.76-6.8-.5-1.33-.8-2.7-.98-4.11-.21-1.64-.24-3.29-.15-4.94,.1-1.96,.44-3.89,1.15-5.73,1.44-3.72,4.11-6.09,7.92-7.2,1.09-.32,2.2-.51,3.33-.61,.9-.08,1.81-.13,2.71-.1,2.12,.06,4.19,.37,6.17,1.18,1.79,.74,3.32,1.83,4.5,3.38,.05,.06,.09,.13,.14,.19,.01,.02,.01,.04,.04,.09-1.39,1.28-2.78,2.58-4.2,3.89-.09-.1-.16-.17-.23-.25-1.15-1.4-2.6-2.3-4.38-2.63-.49-.09-.98-.17-1.48-.19-1.18-.06-2.37-.04-3.53,.22-1.72,.38-3.15,1.2-4.12,2.71-.49,.77-.81,1.61-1.03,2.5-.27,1.08-.39,2.17-.41,3.28-.01,.96,0,1.93,.06,2.89,.07,1.09,.27,2.17,.63,3.21,.74,2.11,2.2,3.44,4.35,3.99,1.38,.36,2.78,.43,4.2,.33,1.12-.08,2.23-.26,3.31-.56,.17-.05,.34-.11,.51-.17,.11-.03,.16-.11,.15-.22,0-.06,0-.12,0-.18,0-1.5,0-3,0-4.51,0-.11,0-.21,0-.37Z"/>
        <path class="cls-1" d="M91.16,69.23h6.8c0,1.6,0,3.19,0,4.78,0,1.59,0,3.18,0,4.78v14.33h14.13c.08,.26,.1,5.38,.03,5.72-.23,.07-20.65,.07-20.95,0v-29.6Z"/>
        <path class="cls-1" d="M127.98,108.62c-.27,.24-.52,.47-.78,.7-.07-.06-.12-.1-.17-.15-.68-.6-1.49-.77-2.36-.68-.35,.04-.68,.13-.99,.3-.6,.33-.96,.86-1.15,1.5-.31,1.03-.33,2.08-.06,3.12,.31,1.16,1.18,1.82,2.38,1.84,.5,0,.99-.02,1.48-.12,.12-.03,.23-.06,.36-.09,0-.1,.03-.18,.03-.27,0-.6,0-1.19,0-1.79,0-.3-.01-.31-.32-.32-.43,0-.86,0-1.28,0-.11,0-.21,0-.34,0-.06-.34-.05-.65,0-.98h3.21c0,.09,.03,.19,.03,.28,0,1.16,0,2.33,0,3.49,0,.28,0,.29-.27,.39-.63,.24-1.28,.37-1.94,.42-.73,.06-1.47,.07-2.19-.11-1.26-.32-2.05-1.12-2.4-2.36-.22-.78-.3-1.58-.22-2.39,.04-.44,.1-.89,.22-1.32,.39-1.38,1.31-2.23,2.71-2.52,.95-.2,1.9-.18,2.82,.17,.48,.18,.91,.45,1.27,.89Z"/>
        <path class="cls-1" d="M147.88,116.16h-1.04c-.05-.11-.1-.22-.16-.35-.08,.04-.15,.07-.22,.11-.76,.44-1.56,.49-2.39,.28-.65-.16-1.09-.6-1.34-1.21-.29-.71-.33-1.45-.26-2.2,.04-.41,.11-.81,.27-1.19,.39-.91,1.1-1.38,2.07-1.48,.54-.06,1.07-.04,1.58,.17,.02,0,.06,0,.12,0,.04-.5,.01-.99,.02-1.48,0-.49,0-.97,0-1.49,.43-.05,.83-.1,1.26-.16,0,.16,.02,.29,.02,.41,0,2.1,0,4.2,0,6.3,0,.56,.05,1.11,.07,1.67,0,.2,0,.4,0,.63Zm-1.36-3.04c0-.53,0-1.05,0-1.58,0-.2-.07-.32-.26-.38-.18-.05-.36-.12-.54-.14-.96-.11-1.59,.32-1.83,1.15-.16,.56-.17,1.14-.09,1.71,.04,.25,.12,.5,.22,.74,.17,.39,.48,.64,.89,.72,.47,.09,.93,.04,1.35-.22,.18-.11,.27-.24,.26-.46-.01-.52,0-1.03,0-1.55Z"/>
        <path class="cls-1" d="M134.87,113.19c-.06,.41-.08,.83-.18,1.23-.22,.94-.81,1.53-1.75,1.76-.73,.17-1.46,.19-2.18,0-.75-.19-1.24-.66-1.48-1.38-.23-.69-.27-1.4-.2-2.12,.03-.28,.07-.55,.15-.82,.24-.85,.8-1.4,1.66-1.63,.72-.19,1.46-.21,2.18-.04,.79,.19,1.31,.69,1.55,1.46,.16,.5,.2,1.01,.24,1.54Zm-4.52,.05c.03,.46,.05,.92,.22,1.36,.12,.31,.31,.56,.61,.7,.92,.44,2-.07,2.23-1.05,.13-.54,.16-1.08,.09-1.63-.04-.29-.1-.59-.2-.87-.15-.43-.48-.67-.93-.75-.14-.02-.28-.02-.42-.02-.75,.01-1.25,.38-1.43,1.11-.09,.37-.12,.76-.17,1.14Z"/>
        <path class="cls-1" d="M141.54,113.22c-.05,.38-.08,.77-.16,1.15-.21,.98-.81,1.59-1.79,1.82-.68,.16-1.36,.17-2.04,.03-.83-.17-1.39-.68-1.62-1.5-.26-.93-.28-1.87-.04-2.8,.24-.95,.87-1.52,1.82-1.73,.66-.15,1.32-.16,1.98,0,.78,.18,1.31,.63,1.58,1.39,.19,.53,.24,1.08,.27,1.65Zm-1.34,.15c0-.55-.01-1.03-.17-1.49-.16-.47-.46-.79-.96-.88-.15-.03-.32-.03-.48-.02-.71,.02-1.18,.37-1.39,1.05-.15,.48-.18,.98-.14,1.48,.02,.34,.07,.69,.16,1.03,.15,.51,.51,.83,1.05,.88,.96,.08,1.63-.27,1.82-1.26,.06-.28,.08-.57,.1-.79Z"/>
        <path class="cls-1" d="M109.54,113.5h-3.89c-.23,.97,.42,1.82,1.42,1.88,.64,.04,1.25-.07,1.83-.32,.1-.04,.2-.08,.34-.14,.09,.28,.18,.53,.27,.8-.36,.22-.73,.33-1.1,.42-.78,.2-1.57,.24-2.36,.06-.88-.2-1.43-.76-1.64-1.62-.21-.85-.22-1.71-.03-2.57,.26-1.15,1.05-1.8,2.23-1.9,.47-.04,.93-.03,1.39,.08,.67,.15,1.14,.55,1.37,1.2,.24,.66,.26,1.34,.22,2.03,0,.02-.02,.03-.05,.08Zm-1.32-.89c.12-.5-.13-1.28-.5-1.5-.42-.24-1.17-.21-1.59,.09-.37,.27-.6,.93-.47,1.4h2.56Z"/>
        <path class="cls-1" d="M104.07,107.36c-.05,.31-.15,.59-.25,.85-.35-.03-.68-.09-1-.09-.67,0-1.02,.3-1.1,.96-.04,.29-.04,.59-.04,.89,0,.23,.03,.25,.26,.26,.5,0,.99,0,1.49,0,.1,0,.19,.01,.31,.02v.91c-.66,.06-1.33-.01-2.02,.04-.01,.15-.03,.29-.03,.42,0,1.38,0,2.77,0,4.15,0,.13-.02,.25-.03,.39h-1.22c-.01-.12-.03-.24-.03-.36,0-1.38,0-2.77,0-4.15,0-.14-.01-.27-.02-.45-.28-.01-.54-.02-.83-.04v-.93h.8c.01-.14,.02-.24,.03-.35,.02-.33,.02-.66,.05-.98,.1-.92,.61-1.49,1.52-1.69,.64-.14,1.28-.1,1.92,.07,.06,.01,.11,.04,.19,.07Z"/>
        <path class="cls-1" d="M91.17,107.62h1.3c.01,.83,0,1.65,0,2.47,0,.84,0,1.67,0,2.51s0,1.65,0,2.5c.64,.06,1.25,.02,1.86,.03,.62,0,1.23,0,1.89,0,.04,.35,.02,.68,0,1.03h-5.04c-.06-.22-.08-8.1-.02-8.54Z"/>
        <path class="cls-1" d="M116.61,110.48c-.13,.31-.25,.59-.37,.88-.05,0-.09,0-.13-.02-.44-.19-.91-.28-1.38-.33-.35-.03-.7,0-1.03,.1-.13,.04-.25,.12-.35,.22-.22,.22-.21,.56,.03,.77,.13,.12,.29,.21,.45,.28,.45,.17,.92,.32,1.37,.49,.27,.1,.54,.21,.79,.35,.44,.25,.65,.65,.68,1.16,.06,1.08-.56,1.65-1.49,1.83-1.05,.21-2.09,.12-3.11-.23-.05-.02-.09-.04-.17-.08,.12-.29,.25-.58,.38-.9,.12,.05,.22,.08,.32,.12,.72,.25,1.45,.35,2.2,.2,.19-.04,.36-.11,.49-.26,.22-.25,.2-.63-.06-.86-.18-.15-.4-.26-.62-.34-.46-.17-.94-.32-1.41-.48-.17-.06-.33-.14-.49-.22-1.03-.54-.94-2.08-.07-2.63,.34-.22,.72-.35,1.11-.39,.88-.11,1.74-.03,2.59,.24,.07,.02,.15,.06,.26,.1Z"/>
        <path class="cls-1" d="M98.42,116.17h-1.19c-.02-.07-.04-.13-.04-.2,0-1.85,0-3.7,0-5.54,0-.05,.01-.1,.02-.17h1.21c.07,.23,.08,5.58,0,5.91Z"/>
        <path class="cls-1" d="M110.49,107.26h1.12c.26,.71-.31,2.55-1.01,3.25-.25-.15-.49-.31-.77-.49,.49-.85,.66-1.76,.66-2.76Z"/>
        <path class="cls-1" d="M98.44,107.7v1.12h-1.25v-1.12h1.25Z"/>
        <path class="cls-4" d="M58.87,65.22v1.78c-.12,0-.24,0-.35,.01-.87,.04-1.75,.04-2.62,.13-1.48,.15-2.91,.53-4.3,1.07-5.39,2.12-9.44,6.91-10.61,12.59-1.15,5.64,.49,11.45,4.67,15.63,2.37,2.37,5.16,3.97,8.42,4.73,1.68,.39,3.38,.54,5.1,.4,5.38-.44,9.66-2.85,12.85-7.18,1.63-2.21,2.63-4.71,3.04-7.44,.06-.42,.11-.85,.15-1.27,.01-.14,0-.28,0-.46-.38-.03-.77,0-1.15-.01-.4,0-.8,0-1.19,0h-9.44c-.02-.58,0-1.14-.01-1.73h13.65c.38,6.18-2.65,13.85-10.41,17.84-7.5,3.86-16.7,2.28-22.52-3.78-5.86-6.09-6.95-15.33-2.89-22.54,2.06-3.67,5.02-6.39,8.86-8.14,2.77-1.26,5.68-1.82,8.76-1.66Z"/>
        <path class="cls-4" d="M58.92,92.5h4.53c.02,.62,.01,1.21,0,1.79-.25,.06-5.93,.08-6.38,.03,0,0-.01-.01-.02-.02,0,0-.02-.01-.02-.02,0-.03-.02-.06-.02-.09,0-6.57,0-13.13,0-19.7,0-.05,.01-.1,.02-.18,.61-.04,1.22-.02,1.87-.02,.01,.78,0,1.54,0,2.29,0,.76,0,1.51,0,2.27v13.65Z"/>
        <path class="cls-4" d="M50.69,79.78c-1.53,0-2.77-1.22-2.78-2.73-.01-1.51,1.26-2.76,2.79-2.75,1.5,0,2.74,1.25,2.73,2.75,0,1.5-1.25,2.74-2.74,2.74Z"/>
      </g>
    </g>
  </g>
</svg>