<svg xmlns="http://www.w3.org/2000/svg" width="79.175" height="56.399" viewBox="0 0 79.175 56.399">
  <g id="Group_201" data-name="Group 201" transform="translate(-1035.164 -4734.032)">
    <g id="Group_200" data-name="Group 200">
      <path id="Path_318" data-name="Path 318" d="M1102.047,4742.779a1.24,1.24,0,1,0,1.239,1.24A1.24,1.24,0,0,0,1102.047,4742.779Z" fill="#fff"/>
      <path id="Path_319" data-name="Path 319" d="M1093.5,4742.779a1.24,1.24,0,1,0,1.24,1.24A1.24,1.24,0,0,0,1093.5,4742.779Z" fill="#fff"/>
      <circle id="Ellipse_11" data-name="Ellipse 11" cx="1.24" cy="1.24" r="1.24" transform="translate(1096.536 4742.779)" fill="#fff"/>
      <path id="Path_320" data-name="Path 320" d="M1108.567,4734.032h-67.631a5.772,5.772,0,0,0-5.772,5.772v44.855a5.772,5.772,0,0,0,5.772,5.772h67.631a5.772,5.772,0,0,0,5.772-5.772V4739.8A5.772,5.772,0,0,0,1108.567,4734.032Zm-40.414,40.414H1041.2v-4.732h26.955Zm6.6-10.863H1041.2v-4.732h33.554Zm33.553,20.227H1081.18v-32.08h27.125Zm-2.366-37.425h-62.375a2.366,2.366,0,1,1,0-4.732h62.375a2.366,2.366,0,1,1,0,4.732Z" fill="#fff"/>
    </g>
  </g>
</svg>
