<svg xmlns="http://www.w3.org/2000/svg" width="66.745" height="67.169" viewBox="0 0 66.745 67.169">
  <g id="Group_212" data-name="Group 212" transform="translate(-1376.21 -4724.761)">
    <rect id="Rectangle_110" data-name="Rectangle 110" width="15.947" height="8.325" rx="1.105" transform="translate(1401.609 4782.105)" fill="none" stroke="#fff" stroke-linecap="round" stroke-linejoin="round" stroke-width="2.999"/>
    <rect id="Rectangle_111" data-name="Rectangle 111" width="20.754" height="5.267" rx="2.634" transform="translate(1399.205 4776.838)" fill="none" stroke="#fff" stroke-linecap="round" stroke-linejoin="round" stroke-width="2.999"/>
    <path id="Path_327" data-name="Path 327" d="M1401.839,4776.838l-4.8-13.494,12.547-22.4,12.547,22.63-4.8,13.26Z" fill="none" stroke="#fff" stroke-linecap="round" stroke-linejoin="round" stroke-width="2.999"/>
    <g id="Group_209" data-name="Group 209">
      <path id="Path_328" data-name="Path 328" d="M1409.582,4762.264a1.5,1.5,0,0,1-1.5-1.5v-19.816a1.5,1.5,0,1,1,3,0v19.816A1.5,1.5,0,0,1,1409.582,4762.264Z" fill="#fff"/>
    </g>
    <g id="Group_210" data-name="Group 210">
      <circle id="Ellipse_12" data-name="Ellipse 12" cx="3.968" cy="3.968" r="3.968" transform="translate(1405.614 4760.226)" fill="#fff"/>
    </g>
    <g id="Group_211" data-name="Group 211">
      <rect id="Rectangle_112" data-name="Rectangle 112" width="5.416" height="5.416" transform="translate(1377.71 4754.449)" fill="none" stroke="#fff" stroke-linecap="round" stroke-linejoin="round" stroke-width="2.999"/>
      <rect id="Rectangle_113" data-name="Rectangle 113" width="5.416" height="5.416" transform="translate(1436.04 4754.449)" fill="none" stroke="#fff" stroke-linecap="round" stroke-linejoin="round" stroke-width="2.999"/>
      <rect id="Rectangle_114" data-name="Rectangle 114" width="5.416" height="5.416" transform="translate(1406.875 4726.26)" fill="none" stroke="#fff" stroke-linecap="round" stroke-linejoin="round" stroke-width="2.999"/>
      <path id="Path_329" data-name="Path 329" d="M1380.2,4757.91c0-16.033,13.35-29.03,29.383-29.03s29.382,13,29.382,29.03" fill="none" stroke="#fff" stroke-linecap="round" stroke-linejoin="round" stroke-width="2.999"/>
      <path id="Path_330" data-name="Path 330" d="M1381.432,4728.968h56.3" fill="none" stroke="#fff" stroke-linecap="round" stroke-linejoin="round" stroke-width="2.999"/>
      <circle id="Ellipse_13" data-name="Ellipse 13" cx="4.06" cy="4.06" r="4.06" transform="translate(1378.048 4724.908)" fill="#fff"/>
      <circle id="Ellipse_14" data-name="Ellipse 14" cx="4.06" cy="4.06" r="4.06" transform="translate(1433.673 4724.908)" fill="#fff"/>
    </g>
  </g>
</svg>
