<svg xmlns="http://www.w3.org/2000/svg" width="80.055" height="79.897" viewBox="0 0 80.055 79.897">
  <g id="esxsfu" transform="translate(-662.272 -4710.533)">
    <g id="Group_195" data-name="Group 195">
      <g id="Group_194" data-name="Group 194">
        <path id="Path_304" data-name="Path 304" d="M702.335,4776.692c2.084,0,4.168-.011,6.252,0,1.234.009,1.982.658,2,1.677s-.726,1.718-1.955,1.722q-6.371.026-12.74-.005a1.668,1.668,0,0,1-1.874-1.676c-.011-1.035.723-1.706,1.95-1.717C698.088,4776.679,700.212,4776.692,702.335,4776.692Z" fill="#fff"/>
        <path id="Path_305" data-name="Path 305" d="M702.21,4785.258c-2.045,0-4.09.012-6.136,0-1.309-.009-2.069-.669-2.059-1.741.011-1.022.738-1.674,2-1.68q6.313-.027,12.626,0c1.232.006,1.961.707,1.942,1.737s-.755,1.669-2,1.679C706.458,4785.268,704.334,4785.256,702.21,4785.258Z" fill="#fff"/>
        <path id="Path_306" data-name="Path 306" d="M722.769,4731.777c-.42-.346-1.1-.641-1.273-1.121a2.137,2.137,0,0,1,.161-1.83c2.15-2.3,4.387-4.519,6.664-6.694a1.728,1.728,0,0,1,2.408,2.443c-2.178,2.274-4.425,4.482-6.676,6.684A4.391,4.391,0,0,1,722.769,4731.777Z" fill="#fff"/>
        <path id="Path_307" data-name="Path 307" d="M675.155,4721.525a9.264,9.264,0,0,1,1.529.96c2,1.952,3.968,3.937,5.932,5.925.92.931.988,1.935.232,2.7a1.818,1.818,0,0,1-2.711-.2c-2.016-1.991-4.01-4.006-6.014-6.009a1.616,1.616,0,0,1-.447-2.121A6.788,6.788,0,0,1,675.155,4721.525Z" fill="#fff"/>
        <path id="Path_308" data-name="Path 308" d="M683.6,4771.162a9.068,9.068,0,0,1-.947,1.538q-2.967,3.045-6.005,6.02a1.8,1.8,0,0,1-2.628.209,1.771,1.771,0,0,1,.14-2.705c1.986-2.021,4-4.012,6-6.021a1.688,1.688,0,0,1,2.127-.5A6.6,6.6,0,0,1,683.6,4771.162Z" fill="#fff"/>
        <path id="Path_309" data-name="Path 309" d="M722.875,4769.3a7.625,7.625,0,0,1,1.466.848q3.129,3.053,6.186,6.174a1.72,1.72,0,0,1,.114,2.531,1.758,1.758,0,0,1-2.622-.074c-2.079-2.04-4.173-4.07-6.148-6.208a2.474,2.474,0,0,1-.4-2C721.6,4770.081,722.356,4769.746,722.875,4769.3Z" fill="#fff"/>
        <path id="Path_310" data-name="Path 310" d="M704.057,4716.85c0,1.416.024,2.834-.007,4.25a1.766,1.766,0,1,1-3.514.019q-.042-4.31,0-8.62a1.766,1.766,0,1,1,3.511-.018C704.084,4713.936,704.057,4715.393,704.057,4716.85Z" fill="#fff"/>
        <path id="Path_311" data-name="Path 311" d="M735.992,4752.346c-1.412,0-2.825.02-4.237-.006a1.779,1.779,0,1,1-.117-3.548c3.015-.044,6.032-.017,9.047.056a1.643,1.643,0,0,1,1.641,1.788,1.692,1.692,0,0,1-1.754,1.694c-1.525.048-3.053.012-4.58.012Z" fill="#fff"/>
        <path id="Path_312" data-name="Path 312" d="M668.491,4752.348c-1.417,0-2.833.02-4.249-.006a1.759,1.759,0,0,1-1.97-1.733,1.8,1.8,0,0,1,1.9-1.834c2.872-.022,5.744-.024,8.614.049,1.474.038,2.24.995,1.914,2.195a1.725,1.725,0,0,1-1.853,1.328C671.4,4752.353,669.944,4752.349,668.491,4752.348Z" fill="#fff"/>
        <path id="Path_313" data-name="Path 313" d="M695.81,4787.019h12.914a3.158,3.158,0,0,1-3.139,3.359q-3.3.108-6.607,0A3.261,3.261,0,0,1,695.81,4787.019Z" fill="#fff"/>
        <path id="Path_314" data-name="Path 314" d="M719.981,4748.212a17.828,17.828,0,1,0-32.237,12.617c.787,1.13,1.616,2.233,2.444,3.335a17.25,17.25,0,0,1,3.745,9.165,1.592,1.592,0,0,0,1.861,1.643c2.167-.018,4.334-.005,6.5-.005v.005c2.128,0,4.256.009,6.383,0,1.437-.008,1.851-.335,1.984-1.752a17.312,17.312,0,0,1,3.461-8.665c1.111-1.529,2.267-3.031,3.292-4.616A16.6,16.6,0,0,0,719.981,4748.212Zm-18.013-8.7c-6.313.541-10.368,4.607-10.808,10.834-.067.943-.35,1.635-1.435,1.615-.952-.017-1.417-.743-1.367-2.071a13.969,13.969,0,0,1,13.508-13.244c1.132-.033,1.86.486,1.839,1.362C703.679,4739.11,702.95,4739.432,701.968,4739.516Z" fill="#fff"/>
      </g>
    </g>
  </g>
</svg>
