<svg xmlns="http://www.w3.org/2000/svg" width="55.663" height="55.663" viewBox="0 0 55.663 55.663">
  <path id="Path_303" data-name="Path 303" d="M358.16,4923.091a27.832,27.832,0,1,0,27.831,27.832A27.832,27.832,0,0,0,358.16,4923.091Zm16.13,25.573-6.931,6.756,1.636,9.54a1.563,1.563,0,0,1-2.268,1.647l-8.567-4.5-8.568,4.5a1.562,1.562,0,0,1-2.267-1.647l1.636-9.54-6.931-6.756A1.562,1.562,0,0,1,342.9,4946l9.579-1.393,4.284-8.68a1.563,1.563,0,0,1,2.8,0l4.284,8.68,9.579,1.393A1.562,1.562,0,0,1,374.29,4948.664Z" transform="translate(-330.328 -4923.091)" fill="#fff"/>
</svg>
