<svg xmlns="http://www.w3.org/2000/svg" width="66.311" height="50.615" viewBox="0 0 66.311 50.615">
  <path id="Path_321" data-name="Path 321" d="M1096.715,4929.943h-.069V4926.7a1.766,1.766,0,0,0-1.764-1.764h-7.536a1.766,1.766,0,0,0-1.764,1.764v3.241H1083.3a6.724,6.724,0,0,0-6.687-6.29h-16.595a6.725,6.725,0,0,0-6.687,6.29h-13.41a4.775,4.775,0,0,0-4.761,4.761v34.8a4.774,4.774,0,0,0,4.761,4.76h56.79a4.774,4.774,0,0,0,4.76-4.76v-34.8A4.775,4.775,0,0,0,1096.715,4929.943Zm-8.928-2.8h6.654v2.8h-6.654Zm-37.854,12.732a.6.6,0,0,1-.6.6h-7.661a.6.6,0,0,1-.6-.6v-4.055a.6.6,0,0,1,.6-.6h7.661a.6.6,0,0,1,.6.6Zm18.434,29.111a17,17,0,1,1,17-17A17.018,17.018,0,0,1,1068.367,4968.986Z" transform="translate(-1035.164 -4923.653)" fill="#fff"/>
</svg>
