<svg xmlns="http://www.w3.org/2000/svg" width="66.311" height="50.615" viewBox="0 0 66.311 50.615">
  <g id="Group_203" data-name="Group 203" transform="translate(-1035.164 -4923.653)">
    <path id="Path_321" data-name="Path 321" d="M1096.715,4929.943h-.069V4926.7a1.766,1.766,0,0,0-1.764-1.764h-7.536a1.766,1.766,0,0,0-1.764,1.764v3.241H1083.3a6.724,6.724,0,0,0-6.687-6.29h-16.595a6.725,6.725,0,0,0-6.687,6.29h-13.41a4.775,4.775,0,0,0-4.761,4.761v34.8a4.774,4.774,0,0,0,4.761,4.76h56.79a4.774,4.774,0,0,0,4.76-4.76v-34.8A4.775,4.775,0,0,0,1096.715,4929.943Zm-8.928-2.8h6.654v2.8h-6.654Zm-37.854,12.732a.6.6,0,0,1-.6.6h-7.661a.6.6,0,0,1-.6-.6v-4.055a.6.6,0,0,1,.6-.6h7.661a.6.6,0,0,1,.6.6Zm18.434,29.111a17,17,0,1,1,17-17A17.018,17.018,0,0,1,1068.367,4968.986Z" fill="#fff"/>
    <path id="Path_322" data-name="Path 322" d="M1068.367,4938.2a13.785,13.785,0,1,0,13.786,13.785A13.8,13.8,0,0,0,1068.367,4938.2Zm0,20.434a6.649,6.649,0,1,1,6.649-6.649A6.657,6.657,0,0,1,1068.367,4958.636Z" fill="#fff"/>
  </g>
</svg>
