<svg xmlns="http://www.w3.org/2000/svg" width="47.219" height="55.101" viewBox="0 0 47.219 55.101">
  <g id="Group_207" data-name="Group 207" transform="translate(-1391.377 -4923.653)">
    <path id="Path_323" data-name="Path 323" d="M1430.382,4927.58a20.155,20.155,0,1,0,4.294,28.18A20.162,20.162,0,0,0,1430.382,4927.58Zm-.758,24.467a13.885,13.885,0,0,1-14.711,5.2,13.9,13.9,0,0,1-8.257-6.07,13.893,13.893,0,1,1,22.968.866Z" fill="#fff"/>
    <path id="Path_324" data-name="Path 324" d="M1414.913,4957.251l-3.9,5.3-10.39,14.122a5.123,5.123,0,1,1-8.248-6.079l10.381-14.113,3.9-5.3a13.9,13.9,0,0,0,8.257,6.07Z" fill="#fff"/>
    <g id="Group_206" data-name="Group 206">
      <path id="Path_325" data-name="Path 325" d="M1411.5,4950.073l4.131-6.907,3.785,4.483,5.417-10.067" fill="none" stroke="#fff" stroke-linecap="round" stroke-linejoin="round" stroke-width="2.318"/>
      <path id="Path_326" data-name="Path 326" d="M1420.25,4939.511l4.581-1.929.9,4.418" fill="none" stroke="#fff" stroke-linecap="round" stroke-linejoin="round" stroke-width="2.318"/>
    </g>
  </g>
</svg>
