<?xml version="1.0" encoding="UTF-8"?>
<svg id="Layer_2" data-name="Layer 2" xmlns="http://www.w3.org/2000/svg" viewBox="0 0 181.02 181.22">
  <defs>
    <style>
      .cls-1 {
        fill: none;
        stroke: #fff;
        stroke-miterlimit: 10;
        stroke-width: 2.33px;
      }

      .cls-2 {
        fill: #ea5c5c;
      }

      .cls-3 {
        fill: #fff;
      }

      .cls-4 {
        fill: #171726;
      }

      .cls-5 {
        fill: #1f1c2f;
      }
    </style>
  </defs>
  <g id="INFLUENCER_MGNT" data-name="INFLUENCER MGNT">
    <g>
      <g>
        <path class="cls-5" d="M181.02,21.4V90.61H0V21.4C0,9.58,9.59,0,21.41,0H159.62c11.82,0,21.4,9.58,21.4,21.4Z"/>
        <path class="cls-4" d="M0,159.82V90.61H181.02v69.21c0,11.82-9.59,21.4-21.41,21.4H21.4c-11.82,0-21.4-9.58-21.4-21.4Z"/>
      </g>
      <rect class="cls-1" x="20.55" y="20.55" width="140.11" height="140.11" rx="16.5" ry="16.5"/>
      <g>
        <g>
          <path class="cls-3" d="M142.99,82.52c-.82,0-1.48-.67-1.48-1.48s.67-1.48,1.48-1.48,1.48,.67,1.48,1.48-.67,1.48-1.48,1.48Zm0-2.81c-.73,0-1.33,.59-1.33,1.32s.59,1.33,1.33,1.33,1.32-.59,1.32-1.33-.59-1.32-1.32-1.32Z"/>
          <path class="cls-3" d="M142.55,80.4c.09-.02,.21-.03,.33-.03,.18,0,.3,.03,.38,.11,.07,.06,.11,.15,.11,.25,0,.17-.11,.29-.25,.34h0c.1,.04,.16,.14,.19,.27,.04,.18,.07,.31,.1,.36h-.18s-.05-.15-.09-.32c-.04-.18-.11-.25-.27-.26h-.16v.57h-.17v-1.31h0Zm.17,.6h.17c.18,0,.3-.1,.3-.25,0-.17-.12-.25-.31-.25-.08,0-.14,0-.17,.02v.48Z"/>
        </g>
        <g>
          <path class="cls-3" d="M86.83,92.28c.12-.18,.2-.4,.23-.66,.03-.26,.05-.52,.05-.77,0-.42-.05-.81-.15-1.16-.1-.35-.23-.52-.4-.52-.09,0-.16,.03-.2,.08s-.11,.15-.18,.28c-.43,.79-.87,1.51-1.34,2.16-.46,.65-.98,1.21-1.54,1.67-.56,.46-1.2,.82-1.9,1.07s-1.52,.37-2.45,.37c-.87,0-1.64-.21-2.31-.64-.68-.43-1.12-1.09-1.33-1.98,.49,.17,.98,.3,1.47,.39,.49,.09,.98,.14,1.47,.14,.73,0,1.42-.09,2.08-.27,.66-.18,1.24-.45,1.74-.82,.5-.36,.9-.81,1.2-1.34,.3-.53,.44-1.14,.45-1.82,0-.65-.14-1.24-.43-1.77-.29-.52-.68-.97-1.17-1.35-.49-.37-1.07-.66-1.73-.87-.66-.21-1.37-.31-2.13-.31-1.02,0-1.98,.18-2.89,.53-.91,.36-1.7,.85-2.37,1.47-.67,.62-1.2,1.35-1.6,2.19-.4,.83-.59,1.72-.59,2.66,0,.68,.14,1.42,.43,2.22,.29,.8,.75,1.54,1.39,2.22,.64,.68,1.48,1.26,2.52,1.72,1.04,.46,2.31,.7,3.82,.7,1.11,0,2.1-.21,2.97-.62,.87-.42,1.64-.92,2.29-1.51,.65-.59,1.2-1.21,1.63-1.84,.43-.64,.76-1.18,.99-1.62h0Zm-11.32-3.03c.18-.4,.41-.75,.7-1.05,.28-.3,.6-.53,.95-.71,.35-.17,.71-.26,1.09-.26,.26,0,.51,.03,.75,.08,.24,.05,.46,.15,.64,.29,.18,.14,.33,.31,.44,.52,.11,.21,.17,.48,.17,.8,0,.33-.11,.62-.34,.85-.23,.24-.52,.42-.87,.57-.35,.14-.73,.25-1.15,.31-.42,.06-.82,.09-1.22,.09-.3,0-.59-.02-.85-.05-.27-.03-.48-.08-.65-.16,.05-.46,.16-.88,.34-1.29h0Z"/>
          <path class="cls-3" d="M114.2,86.2c-.68-.62-1.47-1.11-2.38-1.47-.91-.36-1.89-.54-2.94-.54-.78,0-1.52,.12-2.23,.35-.71,.24-1.37,.56-1.98,.99-.03-.29-.05-.51-.07-.66-.02-.09-.02-.17-.02-.23-.05-.14-.14-.24-.3-.32-.15-.08-.31-.13-.48-.16-.2-.05-.42-.07-.66-.07-.23,.02-.43,.05-.61,.09-.17,.03-.32,.08-.46,.16-.14,.08-.22,.17-.25,.3-.02,.02-.06,.35-.14,1.01-.08,.66-.16,1.63-.24,2.9-.08,1.28-.16,2.85-.23,4.73,0,.1,0,.21,0,.31-.31,.36-.62,.65-.92,.89-.4,.31-.76,.47-1.09,.47-.74,0-1.5-.3-2.28-.89-.77-.59-1.55-1.34-2.32-2.23,.7-.68,1.37-1.36,2.02-2.03,.65-.67,1.22-1.27,1.72-1.82,.5-.55,.9-1.01,1.21-1.4,.3-.39,.46-.64,.46-.76-.02-.23-.11-.47-.3-.72-.18-.25-.4-.48-.65-.68-.25-.21-.52-.38-.82-.51-.3-.14-.58-.21-.85-.21h-.09c-.11,.01-.32,.16-.65,.43-.33,.27-.73,.63-1.2,1.08-.47,.45-.99,.97-1.55,1.56-.56,.59-1.14,1.21-1.73,1.87-.45-.64-.88-1.25-1.29-1.85-.4-.59-.77-1.12-1.09-1.58-.33-.46-.61-.83-.84-1.11-.24-.27-.42-.41-.56-.41-.26,0-.56,.07-.91,.22-.35,.14-.68,.32-.99,.53-.31,.21-.58,.44-.8,.69-.22,.25-.33,.49-.33,.72,0,.12,.11,.36,.32,.73,.21,.36,.51,.81,.89,1.32,.38,.52,.82,1.09,1.33,1.71,.51,.62,1.06,1.26,1.65,1.92-.56,.64-1.09,1.24-1.58,1.82-.49,.58-.93,1.1-1.3,1.56-.37,.46-.67,.85-.89,1.15-.22,.3-.33,.49-.33,.57,.01,.15,.09,.32,.23,.5,.14,.18,.3,.36,.49,.52,.19,.17,.4,.31,.63,.42,.23,.11,.43,.17,.62,.17h.05c.08-.02,.25-.13,.54-.34,.28-.21,.63-.5,1.05-.86,.42-.36,.89-.79,1.43-1.27,.53-.49,1.09-1.01,1.67-1.57,.56,.52,1.12,1,1.68,1.45,.56,.45,1.11,.84,1.64,1.17,.53,.33,1.04,.6,1.52,.79,.49,.19,.93,.29,1.34,.29,.59,0,1.14-.11,1.64-.32,.43-.18,.82-.42,1.19-.69-.01,.92-.02,1.87-.02,2.88,0,.53,.01,1.08,.03,1.64,.02,.56,.03,1.13,.03,1.71,.01,1.09,.04,2.2,.09,3.31,.04,1.12,.1,2.14,.17,3.06,.07,.93,.14,1.71,.21,2.35,.07,.64,.14,1.03,.2,1.18,.08,.08,.2,.16,.39,.26,.18,.1,.37,.19,.58,.29,.2,.09,.41,.17,.61,.23,.2,.06,.36,.09,.47,.09h.05c.18,0,.36-.03,.55-.09,.18-.06,.34-.13,.48-.22,.14-.08,.25-.17,.35-.25,.1-.08,.16-.16,.17-.22,.05-.12,.08-.5,.1-1.13,.02-.63,.04-1.47,.04-2.52v-2.32c-.03-1.43-.07-3.03-.12-4.81-.05-1.78-.11-3.57-.19-5.38,.53,.29,1.1,.52,1.69,.69,.59,.17,1.21,.25,1.85,.25,1.05,0,2.03-.18,2.95-.53,.91-.36,1.71-.84,2.39-1.47,.68-.62,1.21-1.35,1.61-2.19,.4-.83,.6-1.72,.6-2.67,0-.94-.2-1.83-.59-2.67-.4-.84-.93-1.57-1.61-2.19h0Zm-2.45,6.31c-.17,.46-.39,.85-.67,1.2-.28,.34-.61,.61-.99,.82-.38,.2-.79,.31-1.23,.31-.65,0-1.22-.1-1.69-.31-.47-.21-.86-.48-1.16-.82-.3-.34-.53-.74-.68-1.2-.15-.46-.23-.94-.23-1.46,0-.53,.08-1.03,.23-1.48,.15-.46,.38-.85,.69-1.2,.3-.34,.69-.61,1.16-.81,.47-.2,1.03-.3,1.69-.29,.44,0,.85,.1,1.23,.3,.38,.2,.71,.47,.99,.81,.28,.34,.5,.74,.67,1.2,.17,.46,.25,.95,.25,1.48,0,.52-.08,1-.25,1.46h0Z"/>
          <path class="cls-3" d="M118.8,79.79c.24,.27,.52,.48,.84,.64,.33,.16,.68,.25,1.06,.26h.09c.38,0,.74-.07,1.07-.23,.33-.15,.63-.36,.88-.63,.25-.27,.45-.58,.6-.93,.15-.36,.24-.74,.25-1.15v-.14c0-.41-.07-.8-.2-1.16-.14-.36-.32-.68-.56-.96-.24-.27-.52-.49-.84-.65-.33-.16-.68-.25-1.06-.26h-.14c-.36,0-.71,.07-1.04,.22-.33,.14-.62,.35-.87,.61-.25,.27-.45,.58-.59,.93-.14,.36-.23,.75-.24,1.17v.14c0,.43,.06,.82,.19,1.18,.13,.36,.31,.68,.55,.95Z"/>
          <path class="cls-3" d="M147.71,89.74c-.1-.35-.23-.52-.4-.52-.11,0-.18,.03-.22,.08-.04,.05-.1,.15-.17,.28-.36,.68-.75,1.35-1.15,1.99-.4,.65-.81,1.22-1.22,1.73-.41,.51-.81,.92-1.21,1.23-.4,.31-.76,.47-1.09,.47-.33,0-.58-.16-.74-.47-.16-.31-.27-.72-.34-1.22-.07-.5-.1-1.07-.1-1.72,0-.65,0-1.31-.03-1.98-.02-.68-.07-1.34-.15-1.98-.07-.65-.22-1.22-.42-1.72-.2-.5-.5-.91-.89-1.22-.39-.31-.89-.47-1.51-.47-.81,0-1.56,.22-2.26,.67-.7,.45-1.35,1.02-1.94,1.71-.59,.69-1.13,1.45-1.6,2.27-.47,.82-.87,1.6-1.21,2.35,.05-.7,.09-1.39,.13-2.06,.04-.68,.06-1.29,.06-1.86,0-.17,0-.39-.02-.68-.01-.29-.03-.58-.06-.88-.02-.3-.05-.56-.07-.79-.02-.23-.05-.36-.08-.41-.08-.05-.26-.11-.55-.19-.29-.08-.62-.13-1-.13h-.09c-.11,0-.26,.01-.47,.03-.21,.02-.41,.06-.63,.1s-.41,.09-.58,.14c-.18,.05-.3,.09-.38,.14-.06,.08-.12,.3-.18,.68s-.12,.81-.16,1.29c-.05,.48-.08,.96-.12,1.44-.03,.48-.05,.85-.05,1.13,0,.89,.02,1.72,.06,2.5-.39,.6-.78,1.15-1.17,1.63-.41,.51-.81,.92-1.21,1.23-.4,.31-.75,.47-1.07,.47-.24,0-.44-.1-.6-.31-.16-.2-.28-.49-.37-.84-.09-.36-.15-.77-.18-1.24-.03-.47-.04-.96-.04-1.48,0-.36,0-.78,.02-1.24,.02-.46,.03-.93,.05-1.41,.01-.48,.03-.94,.05-1.39,.02-.45,.02-.84,.02-1.17,0-.59-.03-.95-.09-1.07-.12-.24-.35-.41-.68-.49-.33-.08-.76-.13-1.28-.13-.53,0-.94,.05-1.23,.15-.29,.1-.5,.25-.64,.47-.06,.09-.11,.37-.16,.83-.05,.46-.08,.98-.12,1.56-.03,.58-.05,1.14-.07,1.69-.02,.55-.02,.96-.02,1.23,0,1.11,.08,2.14,.25,3.09,.17,.95,.43,1.77,.78,2.47,.36,.7,.82,1.25,1.38,1.64,.56,.4,1.25,.59,2.05,.59,.59,0,1.14-.1,1.65-.32,.51-.21,.98-.49,1.4-.83,.43-.34,.81-.72,1.16-1.15,.15-.19,.29-.37,.43-.55,.01,.09,.02,.19,.04,.28,.11,.74,.2,1.32,.29,1.72,.09,.4,.14,.61,.16,.63,.05,.06,.14,.11,.28,.14,.14,.03,.3,.05,.47,.07,.18,.02,.39,.02,.62,.02,.23,0,.44,0,.64-.02,.17-.01,.33-.04,.48-.07s.24-.08,.27-.14l.05-.05c.05-.12,.16-.43,.34-.93,.18-.5,.42-1.09,.71-1.78,.29-.68,.62-1.41,.98-2.17,.36-.77,.75-1.47,1.14-2.12s.8-1.18,1.21-1.61c.41-.42,.81-.64,1.19-.64,.4,0,.65,.24,.76,.71,.11,.47,.18,1.06,.22,1.77,.03,.71,.06,1.47,.1,2.29,.04,.82,.19,1.58,.45,2.29,.27,.71,.69,1.3,1.26,1.77,.58,.47,1.41,.71,2.51,.71,.59,0,1.14-.11,1.64-.32,.5-.21,.96-.49,1.39-.83,.43-.34,.81-.72,1.15-1.15,.34-.42,.65-.85,.91-1.26,.27-.42,.49-.81,.68-1.17,.19-.36,.34-.65,.45-.87,.12-.18,.2-.4,.23-.66,.03-.26,.05-.52,.05-.77,0-.42-.05-.81-.15-1.16h0Z"/>
        </g>
        <path class="cls-2" d="M33.98,87.53c0-9.3,7.83-16.77,17.26-16.18,8.04,.5,14.59,7.02,15.13,15.06,.6,8.93-6.04,16.45-14.63,17.26-.61,.06-.99,.69-.75,1.26,.48,1.12,1.01,2.06,1.53,2.77,.35,.48-.08,1.14-.66,1.01-6.82-1.59-17.31-9.07-17.85-20.26-.02-.3-.03-.6-.03-.91Zm16.21-3.09c-1.95,0-3.53,1.58-3.53,3.53s1.58,3.53,3.53,3.53,3.53-1.58,3.53-3.53-1.58-3.53-3.53-3.53Z"/>
        <g>
          <path class="cls-3" d="M72.98,102.41h-1.48v1.29h1.73v.38h-2.22v-3.6h2.19v.38h-1.7v1.16h1.48v.38h0Z"/>
          <path class="cls-3" d="M75.02,102.39l.57-.99h.57l-.87,1.32,.89,1.35h-.56l-.59-1.01-.59,1.01h-.56l.89-1.35-.87-1.32h.56l.56,.99h0Z"/>
          <path class="cls-3" d="M79.32,102.84c0,.39-.09,.7-.28,.93-.18,.24-.44,.35-.76,.35-.16,0-.31-.03-.43-.08-.12-.05-.23-.14-.32-.25v1.31h-.49v-3.7h.37l.08,.35c.09-.13,.2-.23,.33-.29,.13-.07,.28-.1,.45-.1,.33,0,.59,.13,.77,.39,.18,.26,.28,.61,.28,1.04v.05h0Zm-.49-.05c0-.3-.06-.55-.18-.75-.12-.2-.3-.29-.53-.29-.14,0-.26,.03-.36,.1s-.18,.15-.24,.26v1.29c.06,.11,.14,.2,.24,.26,.1,.06,.22,.09,.36,.09,.23,0,.4-.08,.52-.25,.12-.17,.18-.39,.18-.65v-.05h0Z"/>
          <path class="cls-3" d="M81.4,104.13c-.38,0-.68-.12-.9-.37-.22-.25-.32-.57-.32-.97v-.11c0-.38,.11-.7,.33-.95,.22-.25,.49-.38,.81-.38,.36,0,.63,.11,.8,.33,.18,.22,.27,.52,.27,.89v.26h-1.72c0,.28,.06,.5,.18,.67,.12,.17,.3,.25,.54,.25,.16,0,.31-.02,.43-.07,.12-.05,.23-.11,.32-.19l.19,.32c-.1,.09-.22,.17-.38,.23-.16,.06-.35,.09-.57,.09h0Zm-.08-2.39c-.17,0-.31,.07-.42,.2-.11,.13-.18,.3-.2,.5h0s1.2,.01,1.2,.01v-.04c0-.19-.05-.35-.14-.48-.1-.13-.24-.19-.44-.19h0Z"/>
          <path class="cls-3" d="M84.58,101.83h-.25c-.13-.01-.24,.02-.32,.08-.09,.06-.16,.15-.2,.26v1.91h-.49v-2.67h.43l.05,.39c.08-.14,.17-.25,.28-.32,.11-.08,.24-.12,.38-.12,.04,0,.07,0,.1,0s.06,.01,.08,.02l-.07,.45h0Z"/>
          <path class="cls-3" d="M85.99,100.72h-.49v-.5h.49v.5Zm0,3.36h-.49v-2.67h.49v2.67Z"/>
          <path class="cls-3" d="M88.23,104.13c-.38,0-.68-.12-.9-.37-.22-.25-.32-.57-.32-.97v-.11c0-.38,.11-.7,.33-.95,.22-.25,.49-.38,.81-.38,.36,0,.63,.11,.8,.33,.18,.22,.27,.52,.27,.89v.26h-1.72c0,.28,.06,.5,.18,.67,.12,.17,.3,.25,.54,.25,.16,0,.31-.02,.43-.07,.12-.05,.23-.11,.32-.19l.19,.32c-.1,.09-.22,.17-.38,.23-.16,.06-.35,.09-.57,.09h0Zm-.08-2.39c-.17,0-.31,.07-.42,.2-.11,.13-.18,.3-.2,.5h0s1.2,.01,1.2,.01v-.04c0-.19-.05-.35-.14-.48-.1-.13-.24-.19-.44-.19h0Z"/>
          <path class="cls-3" d="M90.58,101.4l.03,.4c.09-.14,.2-.25,.34-.33,.13-.08,.29-.12,.46-.12,.29,0,.51,.08,.67,.25s.24,.43,.24,.78v1.69h-.49v-1.68c0-.23-.05-.4-.14-.5-.09-.1-.23-.15-.43-.15-.15,0-.28,.03-.38,.09-.1,.06-.19,.14-.25,.25v1.98h-.49v-2.67h.43Z"/>
          <path class="cls-3" d="M94.46,103.75c.15,0,.28-.05,.39-.15s.17-.22,.17-.37h.45c0,.25-.09,.45-.3,.63-.2,.18-.44,.27-.71,.27-.37,0-.66-.13-.87-.38-.2-.26-.31-.57-.31-.95v-.1c0-.38,.1-.69,.31-.95,.21-.26,.49-.38,.87-.38,.3,0,.54,.09,.73,.28,.19,.18,.28,.41,.28,.68h0s-.44,.01-.44,.01c0-.16-.05-.3-.16-.42s-.24-.17-.4-.17c-.24,0-.41,.09-.52,.28-.11,.19-.16,.41-.16,.67v.1c0,.27,.05,.49,.16,.68,.11,.18,.28,.28,.52,.28h0Z"/>
          <path class="cls-3" d="M97.53,104.13c-.38,0-.68-.12-.9-.37-.22-.25-.32-.57-.32-.97v-.11c0-.38,.11-.7,.33-.95,.22-.25,.49-.38,.81-.38,.36,0,.63,.11,.8,.33,.18,.22,.27,.52,.27,.89v.26h-1.72c0,.28,.06,.5,.18,.67,.12,.17,.3,.25,.54,.25,.16,0,.31-.02,.43-.07,.12-.05,.23-.11,.32-.19l.19,.32c-.1,.09-.22,.17-.38,.23-.16,.06-.35,.09-.57,.09h0Zm-.08-2.39c-.17,0-.31,.07-.42,.2-.11,.13-.18,.3-.2,.5h0s1.2,.01,1.2,.01v-.04c0-.19-.05-.35-.14-.48-.1-.13-.24-.19-.44-.19h0Z"/>
        </g>
        <g>
          <path class="cls-3" d="M108.91,104.08h-.49v-3.6h.49v3.6Z"/>
          <path class="cls-3" d="M110.55,101.4l.03,.4c.09-.14,.2-.25,.34-.33,.13-.08,.29-.12,.46-.12,.29,0,.51,.08,.67,.25s.24,.43,.24,.78v1.69h-.49v-1.68c0-.23-.05-.4-.14-.5-.09-.1-.23-.15-.43-.15-.15,0-.28,.03-.38,.09-.1,.06-.19,.14-.25,.25v1.98h-.49v-2.67h.43Z"/>
          <path class="cls-3" d="M113.57,104.08v-2.31h-.42v-.36h.42v-.34c0-.29,.07-.51,.22-.66s.36-.23,.62-.23c.06,0,.11,0,.17,.01,.06,0,.12,.02,.19,.04l-.06,.37s-.07-.01-.11-.02c-.04,0-.09,0-.13,0-.14,0-.25,.04-.32,.13s-.1,.21-.1,.37v.34h.48v.36h-.48v2.31h-.49Z"/>
          <path class="cls-3" d="M115.94,104.08h-.49v-3.85h.49v3.85Z"/>
          <path class="cls-3" d="M118.77,103.68c-.08,.14-.19,.25-.32,.33-.13,.08-.28,.12-.46,.12-.29,0-.52-.09-.68-.28-.16-.19-.24-.48-.24-.87v-1.58h.49v1.58c0,.29,.04,.48,.13,.59,.08,.11,.21,.16,.39,.16s.32-.03,.43-.1c.11-.07,.2-.17,.26-.3v-1.93h.49v2.67h-.44l-.03-.4h0Z"/>
          <path class="cls-3" d="M121.43,104.13c-.38,0-.68-.12-.9-.37-.22-.25-.32-.57-.32-.97v-.11c0-.38,.11-.7,.33-.95,.22-.25,.49-.38,.81-.38,.36,0,.63,.11,.8,.33,.18,.22,.27,.52,.27,.89v.26h-1.72c0,.28,.06,.5,.18,.67,.12,.17,.3,.25,.54,.25,.16,0,.31-.02,.43-.07,.12-.05,.23-.11,.32-.19l.19,.32c-.1,.09-.22,.17-.38,.23-.16,.06-.35,.09-.57,.09h0Zm-.08-2.39c-.17,0-.31,.07-.42,.2-.11,.13-.18,.3-.2,.5h0s1.2,.01,1.2,.01v-.04c0-.19-.05-.35-.14-.48-.1-.13-.24-.19-.44-.19h0Z"/>
          <path class="cls-3" d="M123.78,101.4l.03,.4c.09-.14,.2-.25,.34-.33,.13-.08,.29-.12,.46-.12,.29,0,.51,.08,.67,.25s.24,.43,.24,.78v1.69h-.49v-1.68c0-.23-.05-.4-.14-.5-.09-.1-.23-.15-.43-.15-.15,0-.28,.03-.38,.09-.1,.06-.19,.14-.25,.25v1.98h-.49v-2.67h.43Z"/>
          <path class="cls-3" d="M127.66,103.75c.15,0,.28-.05,.39-.15s.17-.22,.17-.37h.45c0,.25-.09,.45-.3,.63-.2,.18-.44,.27-.71,.27-.37,0-.66-.13-.87-.38-.2-.26-.31-.57-.31-.95v-.1c0-.38,.1-.69,.31-.95,.21-.26,.49-.38,.87-.38,.3,0,.54,.09,.73,.28,.19,.18,.28,.41,.28,.68h0s-.44,.01-.44,.01c0-.16-.05-.3-.16-.42-.11-.11-.24-.17-.4-.17-.24,0-.41,.09-.52,.28-.11,.19-.16,.41-.16,.67v.1c0,.27,.05,.49,.16,.68s.28,.28,.52,.28h0Z"/>
          <path class="cls-3" d="M130.73,104.13c-.38,0-.68-.12-.9-.37-.22-.25-.32-.57-.32-.97v-.11c0-.38,.11-.7,.33-.95,.22-.25,.49-.38,.81-.38,.36,0,.63,.11,.8,.33,.18,.22,.27,.52,.27,.89v.26h-1.72c0,.28,.06,.5,.18,.67,.12,.17,.3,.25,.54,.25,.16,0,.31-.02,.43-.07,.12-.05,.23-.11,.32-.19l.19,.32c-.1,.09-.22,.17-.38,.23-.16,.06-.35,.09-.57,.09h0Zm-.08-2.39c-.17,0-.31,.07-.42,.2-.11,.13-.18,.3-.2,.5h0s1.2,.01,1.2,.01v-.04c0-.19-.05-.35-.14-.48-.1-.13-.24-.19-.44-.19Z"/>
          <path class="cls-3" d="M133.92,101.83h-.25c-.13-.01-.24,.02-.32,.08-.09,.06-.16,.15-.2,.26v1.91h-.49v-2.67h.43l.05,.39c.08-.14,.17-.25,.28-.32,.11-.08,.24-.12,.38-.12,.04,0,.07,0,.1,0s.06,.01,.08,.02l-.07,.45h0Z"/>
          <path class="cls-3" d="M136.36,103.36c0-.11-.04-.19-.12-.26-.08-.07-.24-.13-.46-.18-.31-.07-.56-.16-.72-.28-.17-.12-.25-.29-.25-.49,0-.22,.09-.4,.28-.56,.19-.15,.43-.23,.72-.23s.55,.08,.74,.25c.19,.17,.28,.36,.27,.58h0s-.46,.01-.46,.01c0-.11-.05-.22-.15-.31-.1-.09-.23-.14-.38-.14-.17,0-.3,.04-.38,.12-.08,.08-.13,.17-.13,.28s.04,.19,.11,.24c.07,.06,.22,.11,.45,.16,.33,.07,.58,.17,.75,.29,.17,.13,.25,.29,.25,.5,0,.24-.1,.43-.29,.58-.19,.15-.44,.22-.75,.22-.34,0-.61-.09-.8-.26-.2-.17-.29-.37-.28-.6v-.02h.47c0,.17,.07,.3,.19,.38,.12,.08,.26,.12,.42,.12,.17,0,.31-.04,.41-.11,.1-.07,.15-.17,.15-.28h0Z"/>
        </g>
      </g>
    </g>
  </g>
</svg>