<?xml version="1.0" encoding="UTF-8"?>
<svg id="Layer_2" data-name="Layer 2" xmlns="http://www.w3.org/2000/svg" xmlns:xlink="http://www.w3.org/1999/xlink" viewBox="0 0 181.02 181.22">
  <defs>
    <style>
      .cls-1 {
        clip-path: url(#clippath);
      }

      .cls-2 {
        fill: #fff;
      }

      .cls-3 {
        fill: #171726;
      }

      .cls-4 {
        fill: #1f1c2f;
      }

      .cls-5 {
        clip-path: url(#clippath-1);
      }

      .cls-6 {
        clip-path: url(#clippath-4);
      }

      .cls-7 {
        clip-path: url(#clippath-3);
      }

      .cls-8 {
        clip-path: url(#clippath-2);
      }

      .cls-9 {
        clip-path: url(#clippath-7);
      }

      .cls-10 {
        clip-path: url(#clippath-8);
      }

      .cls-11 {
        clip-path: url(#clippath-6);
      }

      .cls-12 {
        clip-path: url(#clippath-5);
      }

      .cls-13 {
        clip-path: url(#clippath-9);
      }

      .cls-14 {
        clip-path: url(#clippath-20);
      }

      .cls-15 {
        clip-path: url(#clippath-21);
      }

      .cls-16 {
        clip-path: url(#clippath-24);
      }

      .cls-17 {
        clip-path: url(#clippath-23);
      }

      .cls-18 {
        clip-path: url(#clippath-22);
      }

      .cls-19 {
        clip-path: url(#clippath-25);
      }

      .cls-20 {
        clip-path: url(#clippath-40);
      }

      .cls-21 {
        clip-path: url(#clippath-27);
      }

      .cls-22 {
        clip-path: url(#clippath-28);
      }

      .cls-23 {
        clip-path: url(#clippath-26);
      }

      .cls-24 {
        clip-path: url(#clippath-29);
      }

      .cls-25 {
        clip-path: url(#clippath-34);
      }

      .cls-26 {
        clip-path: url(#clippath-35);
      }

      .cls-27 {
        clip-path: url(#clippath-36);
      }

      .cls-28 {
        clip-path: url(#clippath-37);
      }

      .cls-29 {
        clip-path: url(#clippath-39);
      }

      .cls-30 {
        clip-path: url(#clippath-33);
      }

      .cls-31 {
        clip-path: url(#clippath-32);
      }

      .cls-32 {
        clip-path: url(#clippath-30);
      }

      .cls-33 {
        clip-path: url(#clippath-38);
      }

      .cls-34 {
        clip-path: url(#clippath-31);
      }

      .cls-35 {
        clip-path: url(#clippath-14);
      }

      .cls-36 {
        clip-path: url(#clippath-13);
      }

      .cls-37 {
        clip-path: url(#clippath-12);
      }

      .cls-38 {
        clip-path: url(#clippath-10);
      }

      .cls-39 {
        clip-path: url(#clippath-15);
      }

      .cls-40 {
        clip-path: url(#clippath-17);
      }

      .cls-41 {
        clip-path: url(#clippath-16);
      }

      .cls-42 {
        clip-path: url(#clippath-19);
      }

      .cls-43 {
        clip-path: url(#clippath-11);
      }

      .cls-44 {
        clip-path: url(#clippath-18);
      }
    </style>
    <clipPath id="clippath">
      <path class="cls-2" d="M77.45,67.61l-1.21-2.37-1.83-1.27-2.89-.06-1.44,1.66-.52,2.04,.81,2.54,1.73,1.58,1.21,1,3.95,1.87,.54-3.41-.35-3.58Zm-.35,6.51l-1.52-2.74-.6,1.91-.17-.1,.54-1.89-3.08-.81,.17,1.21-.19-.12-.15-1.19-1.73-.82-.05-.15,1.77,.76-.36-2.18-1.45,1.32-.02-.16,1.43-1.37-.33-2.04-.89-.27,.12-.15,.75,.21-.15-.83,.12-.17,.17,1.04,1.5,.44-1.28-1.93,2.5,1.14-.7-1.08h.23l.61,.93,.59-.53,.15,.1-.66,.58,.83,1.46,1.79,.54,.1,.27-.58,1.14,1.06,1.73,.04,.37-1.14-1.83-.79,2.41,1.77,.6-.39,2.2Z"/>
    </clipPath>
    <clipPath id="clippath-1">
      <polygon class="cls-2" points="71.54 65.76 73.06 66.22 71.81 67.59 71.54 65.76"/>
    </clipPath>
    <clipPath id="clippath-2">
      <polygon class="cls-2" points="73.5 66.09 75.08 66.59 74.29 65.38 73.5 66.09"/>
    </clipPath>
    <clipPath id="clippath-3">
      <polygon class="cls-2" points="73.31 66.28 75.28 66.84 76.37 68.75 75.41 71.12 73.31 66.28"/>
    </clipPath>
    <clipPath id="clippath-4">
      <path class="cls-2" d="M68.3,75.53l-.35-1.23-1.46-2.58-1.72-.98-1.62,.07-1.34,.82-.51,2.15,.71,1.55,1.59,1.25,2.26,.75,2.84,.17-.4-1.96Zm-1.8,.25l-1.75,.28,.9,1.01-.25-.08-.93-.94-1.09,.14-.1-.1-.08-1.29-.91-.84-.54,.37v-.14s.47-.35,.47-.35l-.57-.55,.03-.14,.57,.53-.33-1.51,1.15,.82-.06-1.15-.69-.28,.1-.08,.6,.24,.04-.58,.14-.08-.07,.71,1.43,.54,1.19-.79,.11,.11-1.16,.76,1.62,.69-.36-1.44,.47,.19,.97,1.75-.93-.4,.21,2.39,.82-1.79,.08,.14-.21,.69,.69,.97-1.34,.19,1.66,1.54-1.69-.12-.18-1.39Z"/>
    </clipPath>
    <clipPath id="clippath-5">
      <polygon class="cls-2" points="63.23 73.15 64.44 72.39 63.13 71.89 63.23 73.15"/>
    </clipPath>
    <clipPath id="clippath-6">
      <path class="cls-2" d="M62.4,73.84c-.1,.01,.82,.79,.82,.79l-.08-1.29-.73,.5Z"/>
    </clipPath>
    <clipPath id="clippath-7">
      <polygon class="cls-2" points="63.27 73.26 63.33 74.79 64.62 75.94 66.51 75.69 63.27 73.26"/>
    </clipPath>
    <clipPath id="clippath-8">
      <path class="cls-2" d="M60.14,78.58l-1.07-1.66-1.32-1.05-1.35-.24-1.7,.77-.41,1.2,.21,1.32,1.17,1.21,2.38,.71h2.73l-.64-2.25Zm-1.18,2.06l-.06-1.15-2.07,.2,.41,.72-.19-.06-.34-.64-1.11,.06-.14-.1,1.18-.08-.8-1.03-.47,1-.1-.09,.49-.99-.73-1.02-.52,.09,.05-.16,.39-.05-.24-.37,.04-.18,.34,.52,.95-.17-1.2-.64,1.66-.06-.58-.36,.11-.06,.55,.31,.16-.42,.12,.02-.16,.46,.84,.55,1.07-.16,.14,.09,.07,.86,.92,.55,.15,.23-1-.56,.07,1.45,1.14-.09,.08,1.09-1.2-.87,.09,1.13h-.15Z"/>
    </clipPath>
    <clipPath id="clippath-9">
      <polygon class="cls-2" points="56.79 79.56 58.86 79.39 56.17 78.82 56.79 79.56"/>
    </clipPath>
    <clipPath id="clippath-10">
      <polygon class="cls-2" points="55.16 77.39 55.82 78.33 56.26 77.21 55.16 77.39"/>
    </clipPath>
    <clipPath id="clippath-11">
      <polygon class="cls-2" points="56.39 77.11 57.4 76.96 56.69 76.48 56.39 77.11"/>
    </clipPath>
    <clipPath id="clippath-12">
      <polygon class="cls-2" points="56.43 77.22 57.19 78.99 58.83 77.88 56.43 77.22"/>
    </clipPath>
    <clipPath id="clippath-13">
      <polygon class="cls-2" points="57.72 77.01 58.72 77.61 58.66 76.91 57.72 77.01"/>
    </clipPath>
    <clipPath id="clippath-14">
      <path class="cls-2" d="M103.88,71.2l.54,3.41,3.95-1.87,1.21-1,1.73-1.58,.81-2.54-.52-2.04-1.43-1.66-2.89,.06-1.83,1.27-1.21,2.37-.35,3.58Zm.31,.73l1.77-.6-.79-2.41-1.14,1.83,.04-.37,1.06-1.73-.58-1.14,.1-.27,1.79-.54,.83-1.46-.66-.58,.15-.1,.59,.53,.61-.93h.23l-.7,1.08,2.49-1.14-1.28,1.93,1.5-.44,.17-1.04,.12,.17-.15,.83,.75-.21,.12,.15-.89,.27-.33,2.04,1.44,1.37-.02,.15-1.46-1.32-.36,2.18,1.77-.76-.05,.15-1.73,.82-.15,1.18-.19,.12,.17-1.21-3.08,.81,.54,1.89-.17,.1-.6-1.91-1.52,2.75-.39-2.21Z"/>
    </clipPath>
    <clipPath id="clippath-15">
      <polygon class="cls-2" points="110.14 65.77 108.62 66.23 109.87 67.6 110.14 65.77"/>
    </clipPath>
    <clipPath id="clippath-16">
      <polygon class="cls-2" points="106.6 66.61 108.19 66.11 107.4 65.4 106.6 66.61"/>
    </clipPath>
    <clipPath id="clippath-17">
      <polygon class="cls-2" points="108.37 66.29 106.4 66.85 105.32 68.77 106.27 71.14 108.37 66.29"/>
    </clipPath>
    <clipPath id="clippath-18">
      <path class="cls-2" d="M112.98,77.5l2.84-.17,2.26-.75,1.59-1.25,.71-1.55-.51-2.15-1.35-.82-1.62-.07-1.72,.98-1.46,2.58-.35,1.23-.4,1.95Zm2.02-.32l-1.69,.12,1.66-1.54-1.34-.19,.69-.97-.21-.69,.08-.14,.82,1.79,.21-2.38-.93,.4,.97-1.75,.47-.19-.36,1.44,1.62-.69-1.16-.76,.11-.11,1.19,.79,1.43-.54-.07-.71,.14,.08,.04,.58,.6-.24,.1,.08-.69,.28-.06,1.15,1.15-.82-.33,1.51,.57-.53,.03,.14-.57,.56,.49,.35v.14s-.55-.37-.55-.37l-.92,.85-.08,1.29-.1,.1-1.09-.14-.93,.94-.25,.08,.9-1.01-1.75-.28-.18,1.39Z"/>
    </clipPath>
    <clipPath id="clippath-19">
      <polygon class="cls-2" points="117.25 72.4 118.45 73.16 118.55 71.9 117.25 72.4"/>
    </clipPath>
    <clipPath id="clippath-20">
      <polygon class="cls-2" points="118.41 73.27 118.36 74.8 117.07 75.95 115.17 75.7 118.41 73.27"/>
    </clipPath>
    <clipPath id="clippath-21">
      <path class="cls-2" d="M120.89,80.84h2.73l2.38-.71,1.18-1.21,.21-1.32-.41-1.2-1.71-.77-1.35,.24-1.32,1.05-1.07,1.66-.65,2.25Zm1.68-.2l.09-1.13-1.2,.87,.08-1.09,1.14,.09,.07-1.45-1,.56,.15-.23,.91-.55,.07-.86,.14-.09,1.07,.16,.84-.55-.16-.46,.12-.02,.16,.42,.55-.31,.11,.06-.58,.36,1.66,.06-1.2,.64,.95,.17,.34-.52,.04,.18-.24,.37,.39,.05,.05,.16-.52-.09-.73,1.02,.49,.99-.1,.09-.47-1-.8,1.03,1.17,.08-.13,.1-1.11-.06-.34,.64-.19,.06,.41-.72-2.07-.2-.06,1.16h-.15Z"/>
    </clipPath>
    <clipPath id="clippath-22">
      <polygon class="cls-2" points="122.82 79.41 124.89 79.57 125.51 78.83 122.82 79.41"/>
    </clipPath>
    <clipPath id="clippath-23">
      <polygon class="cls-2" points="125.86 78.34 126.52 77.4 125.43 77.22 125.86 78.34"/>
    </clipPath>
    <clipPath id="clippath-24">
      <polygon class="cls-2" points="124.28 76.97 125.29 77.13 124.99 76.49 124.28 76.97"/>
    </clipPath>
    <clipPath id="clippath-25">
      <polygon class="cls-2" points="125.25 77.23 124.49 79 122.85 77.9 125.25 77.23"/>
    </clipPath>
    <clipPath id="clippath-26">
      <polygon class="cls-2" points="122.96 77.63 123.96 77.02 123.02 76.92 122.96 77.63"/>
    </clipPath>
    <clipPath id="clippath-27">
      <path class="cls-2" d="M91.96,58.72c-.52,0-1.04,.03-1.56,.07-.44,.03-.89,.08-1.33,.16-1.27,.25-2.48,.67-3.59,1.36-.83,.51-1.49,1.18-1.95,2.04-.62,1.18-.7,2.44-.49,3.71,.21,1.25,.88,2.26,1.85,3.04,1.02,.82,2.22,1.31,3.48,1.61,.57,.14,1.15,.21,1.73,.29,.51,.07,1.03,.14,1.55,.13,.54,0,1.09-.03,1.61-.15,1.25-.26,2.5-.59,3.73-.88,.37-1.28,.73-2.5,1.08-3.72-.02,0-.04-.02-.06-.03-.17,.32-.32,.64-.5,.94-.62,1.01-1.46,1.79-2.5,2.33-1,.52-2.1,.73-3.22,.78-.44,.02-.89-.06-1.33-.14-1.53-.26-2.65-1.09-3.36-2.46-.32-.62-.52-1.27-.65-1.96-.12-.6-.13-1.19-.03-1.78,.13-.8,.39-1.57,.8-2.27,.53-.92,1.27-1.61,2.26-1.99,1.3-.51,2.65-.46,3.99-.18,.7,.15,1.36,.42,1.97,.81,.81,.52,1.51,1.16,2,1.99,.21,.35,.39,.71,.62,1.13-.01-.13-.01-.2-.03-.26-.32-1.12-.63-2.25-.97-3.37-.03-.09-.14-.19-.24-.22-.84-.24-1.68-.49-2.53-.69-.76-.19-1.54-.31-2.33-.31Z"/>
    </clipPath>
    <clipPath id="clippath-28">
      <path class="cls-2" d="M61.75,85.56s16.33-3.1,29.53-3.1,29.56,3.1,29.56,3.1l-29.48-6.88-29.61,6.88Z"/>
    </clipPath>
    <clipPath id="clippath-29">
      <path class="cls-2" d="M33.4,99.35c0,4.93,6.02,5.77,8.2,5.77s3.92-.64,4.73-.84c.81-.2,.93,1,.93,1l.77-5.01s-1.54,4.24-6.38,4.24-5.09-4.76-5.09-5.16,.2-5.33,5.05-5.33,6.26,4.45,6.26,4.45l-.53-4.75c-.32,1.02-1.29,.58-1.29,.58,0,0-2.22-.84-4.44-.84s-8.2,.96-8.2,5.89"/>
    </clipPath>
    <clipPath id="clippath-30">
      <path class="cls-2" d="M60.3,93.72c1.41,0,1.57,1.54,1.57,1.54v3.52h-7.55v-3.72c0-.96,1.62-1.34,1.62-1.34h-6.1c1.5,0,1.53,1.46,1.53,1.46v8.37c0,1.08-1.57,1.28-1.57,1.28h6.02c-1.45,0-1.54-1.36-1.54-1.36v-4.13h7.55v4.21c0,.84-1.53,1.28-1.53,1.28h6.02c-1.37,0-1.53-1.32-1.53-1.32v-8.25c0-.96,1.53-1.54,1.53-1.54h-6.02Z"/>
    </clipPath>
    <clipPath id="clippath-31">
      <path class="cls-2" d="M74.07,95.38l2.66,5.37h-5.29l2.63-5.37Zm0-1.66s-3.88,7.83-4.69,9.32c-.81,1.48-2.38,1.8-2.38,1.8h5.09c-2.63,0-1.94-1.68-1.94-1.68l1.01-1.84h5.9s.53,1.16,.89,2c.36,.84-1.66,1.52-1.66,1.52h7.23c-1.17,0-2.18-1.48-2.18-1.48l-4.93-9.64h-2.34Z"/>
    </clipPath>
    <clipPath id="clippath-32">
      <path class="cls-2" d="M94.1,93.72s1.62,.1,1.7,1.38v6.25s.08,3.12-4.36,3.12-4.2-3.09-4.2-3.09v-6.21s0-1.46,1.58-1.46h-6.1s1.62,.54,1.62,1.46v5.73s-.08,4.33,6.18,4.33,5.94-3.85,5.94-3.85v-6.21s.12-1.46,1.66-1.46h-4Z"/>
    </clipPath>
    <clipPath id="clippath-33">
      <path class="cls-2" d="M113.17,93.72l-4.85,7.99-4.8-7.99h-4.44c1.62,.3,1.62,1.26,1.62,1.26v8.49c-.04,1.16-1.82,1.36-1.82,1.36h4.08c-1.41,0-1.53-1.4-1.53-1.4v-7.73l5.61,9.54,5.66-9.57v7.81c0,1.08-1.49,1.36-1.49,1.36h6.14c-1.66,0-1.66-1.36-1.66-1.36v-8.41c0-1.04,1.58-1.34,1.58-1.34h-4.08Z"/>
    </clipPath>
    <clipPath id="clippath-34">
      <path class="cls-2" d="M119.19,93.72c1.29,0,1.53,1.42,1.53,1.42v8.37c0,.96-1.7,1.32-1.7,1.32h12.08l.77-3.57c-.65,2.96-4.04,3-4.04,3h-4.12v-4.93h3.07c1.29,0,1.78,2.16,1.78,2.16v-4.93c0,2.04-1.78,2.24-1.78,2.24h-3.03v-4.57h3.8c2.38,.2,3.63,3.12,3.63,3.12l-.89-3.67h-11.11Z"/>
    </clipPath>
    <clipPath id="clippath-35">
      <path class="cls-2" d="M133.41,93.72l-.65,4.27c1.21-3.72,2.83-3.72,2.83-3.72h3.11v9.29c0,.88-1.7,1.28-1.7,1.28h6.3c-1.65,0-1.7-1.36-1.7-1.36v-9.21h3.23c1.41,.2,2.79,3.76,2.79,3.76l-.73-4.31h-13.49Z"/>
    </clipPath>
    <clipPath id="clippath-36">
      <path class="cls-2" d="M78.02,109.08h1.86c.55,0,.82,.32,.82,.78,0,.48-.24,.87-.95,.87h-1.73v-1.64Zm-.72-.62v4.8h.72v-1.92h1.83c1.02,0,1.57-.6,1.57-1.5s-.56-1.38-1.62-1.38h-2.5Z"/>
    </clipPath>
    <clipPath id="clippath-37">
      <path class="cls-2" d="M84.6,109.12l.93,2.12h-1.84l.91-2.12Zm-.38-.66l-2.19,4.8h.77l.62-1.4h2.37l.62,1.4h.82l-2.19-4.8h-.82Z"/>
    </clipPath>
    <clipPath id="clippath-38">
      <path class="cls-2" d="M89.56,109.08h2.03c.58,0,.85,.31,.85,.77,0,.34-.17,.76-.87,.76h-2.01v-1.53Zm-.72-.62v4.8h.72v-2.04h1.88c.6,0,.89,.26,.94,1.12,.03,.58,.03,.78,.15,.91h.76c-.16-.19-.19-.41-.23-1.3-.03-.57-.28-.96-.71-1.02h0c.53-.18,.81-.61,.81-1.2s-.35-1.28-1.32-1.28h-3Z"/>
    </clipPath>
    <clipPath id="clippath-39">
      <rect class="cls-2" x="95.44" y="108.46" width=".72" height="4.8"/>
    </clipPath>
    <clipPath id="clippath-40">
      <path class="cls-2" d="M98.43,109.8c0,.93,.86,1.16,1.44,1.26l1.1,.18c.55,.1,.9,.28,.9,.71,0,.52-.54,.81-1.31,.81s-1.54-.22-1.56-1.08h-.72c0,1.32,1.13,1.7,2.22,1.7,.98,0,2.08-.35,2.08-1.57,0-.98-1.08-1.16-1.46-1.23l-1.19-.2c-.6-.1-.79-.34-.79-.63,0-.57,.6-.79,1.12-.79,1.16,0,1.38,.51,1.44,.89h.72c-.07-1.16-1.09-1.51-2.06-1.51-1.24,0-1.94,.59-1.94,1.46"/>
    </clipPath>
  </defs>
  <g id="COMMUNITY_MGNT" data-name="COMMUNITY MGNT">
    <g>
      <g>
        <path class="cls-4" d="M181.02,21.4V90.61H0V21.4C0,9.58,9.59,0,21.41,0H159.62c11.82,0,21.4,9.58,21.4,21.4Z"/>
        <path class="cls-3" d="M0,159.82V90.61H181.02v69.21c0,11.82-9.59,21.4-21.41,21.4H21.4c-11.82,0-21.4-9.58-21.4-21.4Z"/>
      </g>
      <g>
        <g>
          <path class="cls-2" d="M77.45,67.61l-1.21-2.37-1.83-1.27-2.89-.06-1.44,1.66-.52,2.04,.81,2.54,1.73,1.58,1.21,1,3.95,1.87,.54-3.41-.35-3.58Zm-.35,6.51l-1.52-2.74-.6,1.91-.17-.1,.54-1.89-3.08-.81,.17,1.21-.19-.12-.15-1.19-1.73-.82-.05-.15,1.77,.76-.36-2.18-1.45,1.32-.02-.16,1.43-1.37-.33-2.04-.89-.27,.12-.15,.75,.21-.15-.83,.12-.17,.17,1.04,1.5,.44-1.28-1.93,2.5,1.14-.7-1.08h.23l.61,.93,.59-.53,.15,.1-.66,.58,.83,1.46,1.79,.54,.1,.27-.58,1.14,1.06,1.73,.04,.37-1.14-1.83-.79,2.41,1.77,.6-.39,2.2Z"/>
          <g class="cls-1">
            <rect class="cls-2" x="66.99" y="62.57" width="13.39" height="13.37" transform="translate(-27.37 72.91) rotate(-45.3)"/>
          </g>
        </g>
        <g>
          <polygon class="cls-2" points="71.54 65.76 73.06 66.22 71.81 67.59 71.54 65.76"/>
          <g class="cls-5">
            <rect class="cls-2" x="71.12" y="65.49" width="2.37" height="2.37" transform="translate(-25.95 71.17) rotate(-45.3)"/>
          </g>
        </g>
        <g>
          <polygon class="cls-2" points="73.5 66.09 75.08 66.59 74.29 65.38 73.5 66.09"/>
          <g class="cls-8">
            <rect class="cls-2" x="73.3" y="65" width="1.97" height="1.97" transform="translate(-24.87 72.37) rotate(-45.3)"/>
          </g>
        </g>
        <g>
          <polygon class="cls-2" points="73.31 66.28 75.28 66.84 76.37 68.75 75.41 71.12 73.31 66.28"/>
          <g class="cls-7">
            <rect class="cls-2" x="72.04" y="65.91" width="5.6" height="5.58" transform="translate(-26.64 73.57) rotate(-45.3)"/>
          </g>
        </g>
        <g>
          <path class="cls-2" d="M68.3,75.53l-.35-1.23-1.46-2.58-1.72-.98-1.62,.07-1.34,.82-.51,2.15,.71,1.55,1.59,1.25,2.26,.75,2.84,.17-.4-1.96Zm-1.8,.25l-1.75,.28,.9,1.01-.25-.08-.93-.94-1.09,.14-.1-.1-.08-1.29-.91-.84-.54,.37v-.14s.47-.35,.47-.35l-.57-.55,.03-.14,.57,.53-.33-1.51,1.15,.82-.06-1.15-.69-.28,.1-.08,.6,.24,.04-.58,.14-.08-.07,.71,1.43,.54,1.19-.79,.11,.11-1.16,.76,1.62,.69-.36-1.44,.47,.19,.97,1.75-.93-.4,.21,2.39,.82-1.79,.08,.14-.21,.69,.69,.97-1.34,.19,1.66,1.54-1.69-.12-.18-1.39Z"/>
          <g class="cls-6">
            <rect class="cls-2" x="60" y="69.11" width="10.01" height="10.01" transform="translate(-33.4 68.19) rotate(-45.3)"/>
          </g>
        </g>
        <g>
          <polygon class="cls-2" points="63.23 73.15 64.44 72.39 63.13 71.89 63.23 73.15"/>
          <g class="cls-12">
            <rect class="cls-2" x="62.88" y="71.61" width="1.81" height="1.82" transform="translate(-32.63 66.85) rotate(-45.3)"/>
          </g>
        </g>
        <g>
          <path class="cls-2" d="M62.4,73.84c-.1,.01,.82,.79,.82,.79l-.08-1.29-.73,.5Z"/>
          <g class="cls-11">
            <rect class="cls-2" x="61.98" y="73.21" width="1.56" height="1.56" transform="translate(-33.98 66.55) rotate(-45.3)"/>
          </g>
        </g>
        <g>
          <polygon class="cls-2" points="63.27 73.26 63.33 74.79 64.62 75.94 66.51 75.69 63.27 73.26"/>
          <g class="cls-9">
            <rect class="cls-2" x="62.8" y="72.5" width="4.18" height="4.19" transform="translate(-33.78 68.25) rotate(-45.3)"/>
          </g>
        </g>
        <g>
          <path class="cls-2" d="M60.14,78.58l-1.07-1.66-1.32-1.05-1.35-.24-1.7,.77-.41,1.2,.21,1.32,1.17,1.21,2.38,.71h2.73l-.64-2.25Zm-1.18,2.06l-.06-1.15-2.07,.2,.41,.72-.19-.06-.34-.64-1.11,.06-.14-.1,1.18-.08-.8-1.03-.47,1-.1-.09,.49-.99-.73-1.02-.52,.09,.05-.16,.39-.05-.24-.37,.04-.18,.34,.52,.95-.17-1.2-.64,1.66-.06-.58-.36,.11-.06,.55,.31,.16-.42,.12,.02-.16,.46,.84,.55,1.07-.16,.14,.09,.07,.86,.92,.55,.15,.23-1-.56,.07,1.45,1.14-.09,.08,1.09-1.2-.87,.09,1.13h-.15Z"/>
          <g class="cls-10">
            <rect class="cls-2" x="53.41" y="74.09" width="8.27" height="8.28" transform="translate(-38.54 64.1) rotate(-45.3)"/>
          </g>
        </g>
        <g>
          <polygon class="cls-2" points="56.79 79.56 58.86 79.39 56.17 78.82 56.79 79.56"/>
          <g class="cls-13">
            <rect class="cls-2" x="56.31" y="77.97" width="2.42" height="2.43" transform="translate(-39.23 64.37) rotate(-45.3)"/>
          </g>
        </g>
        <g>
          <polygon class="cls-2" points="55.16 77.39 55.82 78.33 56.26 77.21 55.16 77.39"/>
          <g class="cls-38">
            <rect class="cls-2" x="54.93" y="76.99" width="1.57" height="1.57" transform="translate(-38.75 62.66) rotate(-45.3)"/>
          </g>
        </g>
        <g>
          <polygon class="cls-2" points="56.39 77.11 57.4 76.96 56.69 76.48 56.39 77.11"/>
          <g class="cls-43">
            <rect class="cls-2" x="56.31" y="76.21" width="1.16" height="1.16" transform="translate(-37.71 63.22) rotate(-45.3)"/>
          </g>
        </g>
        <g>
          <polygon class="cls-2" points="56.43 77.22 57.19 78.99 58.83 77.88 56.43 77.22"/>
          <g class="cls-37">
            <rect class="cls-2" x="56.16" y="76.63" width="2.94" height="2.95" transform="translate(-38.42 64.13) rotate(-45.3)"/>
          </g>
        </g>
        <g>
          <polygon class="cls-2" points="57.72 77.01 58.72 77.61 58.66 76.91 57.72 77.01"/>
          <g class="cls-36">
            <rect class="cls-2" x="57.62" y="76.66" width="1.2" height="1.21" transform="translate(-37.65 64.3) rotate(-45.3)"/>
          </g>
        </g>
        <g>
          <path class="cls-2" d="M103.88,71.2l.54,3.41,3.95-1.87,1.21-1,1.73-1.58,.81-2.54-.52-2.04-1.43-1.66-2.89,.06-1.83,1.27-1.21,2.37-.35,3.58Zm.31,.73l1.77-.6-.79-2.41-1.14,1.83,.04-.37,1.06-1.73-.58-1.14,.1-.27,1.79-.54,.83-1.46-.66-.58,.15-.1,.59,.53,.61-.93h.23l-.7,1.08,2.49-1.14-1.28,1.93,1.5-.44,.17-1.04,.12,.17-.15,.83,.75-.21,.12,.15-.89,.27-.33,2.04,1.44,1.37-.02,.15-1.46-1.32-.36,2.18,1.77-.76-.05,.15-1.73,.82-.15,1.18-.19,.12,.17-1.21-3.08,.81,.54,1.89-.17,.1-.6-1.91-1.52,2.75-.39-2.21Z"/>
          <g class="cls-35">
            <rect class="cls-2" x="101.3" y="62.58" width="13.39" height="13.37" transform="translate(-17.2 97.31) rotate(-45.3)"/>
          </g>
        </g>
        <g>
          <polygon class="cls-2" points="110.14 65.77 108.62 66.23 109.87 67.6 110.14 65.77"/>
          <g class="cls-39">
            <rect class="cls-2" x="108.2" y="65.5" width="2.37" height="2.37" transform="translate(-14.96 97.53) rotate(-45.3)"/>
          </g>
        </g>
        <g>
          <polygon class="cls-2" points="106.6 66.61 108.19 66.11 107.4 65.4 106.6 66.61"/>
          <g class="cls-41">
            <rect class="cls-2" x="106.41" y="65.02" width="1.97" height="1.97" transform="translate(-15.06 95.91) rotate(-45.3)"/>
          </g>
        </g>
        <g>
          <polygon class="cls-2" points="108.37 66.29 106.4 66.85 105.32 68.77 106.27 71.14 108.37 66.29"/>
          <g class="cls-40">
            <rect class="cls-2" x="104.05" y="65.93" width="5.59" height="5.58" transform="translate(-17.15 96.33) rotate(-45.3)"/>
          </g>
        </g>
        <g>
          <path class="cls-2" d="M112.98,77.5l2.84-.17,2.26-.75,1.59-1.25,.71-1.55-.51-2.15-1.35-.82-1.62-.07-1.72,.98-1.46,2.58-.35,1.23-.4,1.95Zm2.02-.32l-1.69,.12,1.66-1.54-1.34-.19,.69-.97-.21-.69,.08-.14,.82,1.79,.21-2.38-.93,.4,.97-1.75,.47-.19-.36,1.44,1.62-.69-1.16-.76,.11-.11,1.19,.79,1.43-.54-.07-.71,.14,.08,.04,.58,.6-.24,.1,.08-.69,.28-.06,1.15,1.15-.82-.33,1.51,.57-.53,.03,.14-.57,.56,.49,.35v.14s-.55-.37-.55-.37l-.92,.85-.08,1.29-.1,.1-1.09-.14-.93,.94-.25,.08,.9-1.01-1.75-.28-.18,1.39Z"/>
          <g class="cls-44">
            <rect class="cls-2" x="111.67" y="69.12" width="10.01" height="10.01" transform="translate(-18.08 104.92) rotate(-45.3)"/>
          </g>
        </g>
        <g>
          <polygon class="cls-2" points="117.25 72.4 118.45 73.16 118.55 71.9 117.25 72.4"/>
          <g class="cls-42">
            <rect class="cls-2" x="116.99" y="71.63" width="1.81" height="1.81" transform="translate(-16.59 105.32) rotate(-45.3)"/>
          </g>
        </g>
        <g>
          <polygon class="cls-2" points="118.41 73.27 118.36 74.8 117.07 75.95 115.17 75.7 118.41 73.27"/>
          <g class="cls-14">
            <rect class="cls-2" x="114.7" y="72.52" width="4.18" height="4.19" transform="translate(-18.39 105.14) rotate(-45.3)"/>
          </g>
        </g>
        <g>
          <path class="cls-2" d="M120.89,80.84h2.73l2.38-.71,1.18-1.21,.21-1.32-.41-1.2-1.71-.77-1.35,.24-1.32,1.05-1.07,1.66-.65,2.25Zm1.68-.2l.09-1.13-1.2,.87,.08-1.09,1.14,.09,.07-1.45-1,.56,.15-.23,.91-.55,.07-.86,.14-.09,1.07,.16,.84-.55-.16-.46,.12-.02,.16,.42,.55-.31,.11,.06-.58,.36,1.66,.06-1.2,.64,.95,.17,.34-.52,.04,.18-.24,.37,.39,.05,.05,.16-.52-.09-.73,1.02,.49,.99-.1,.09-.47-1-.8,1.03,1.17,.08-.13,.1-1.11-.06-.34,.64-.19,.06,.41-.72-2.07-.2-.06,1.16h-.15Z"/>
          <g class="cls-15">
            <rect class="cls-2" x="120.01" y="74.1" width="8.27" height="8.28" transform="translate(-18.79 111.45) rotate(-45.3)"/>
          </g>
        </g>
        <g>
          <polygon class="cls-2" points="122.82 79.41 124.89 79.57 125.51 78.83 122.82 79.41"/>
          <g class="cls-18">
            <rect class="cls-2" x="122.95" y="77.99" width="2.42" height="2.43" transform="translate(-19.47 111.75) rotate(-45.3)"/>
          </g>
        </g>
        <g>
          <polygon class="cls-2" points="125.86 78.34 126.52 77.4 125.43 77.22 125.86 78.34"/>
          <g class="cls-17">
            <rect class="cls-2" x="125.19" y="77" width="1.57" height="1.57" transform="translate(-17.92 112.61) rotate(-45.3)"/>
          </g>
        </g>
        <g>
          <polygon class="cls-2" points="124.28 76.97 125.29 77.13 124.99 76.49 124.28 76.97"/>
          <g class="cls-16">
            <rect class="cls-2" x="124.21" y="76.23" width="1.16" height="1.16" transform="translate(-17.58 111.48) rotate(-45.3)"/>
          </g>
        </g>
        <g>
          <polygon class="cls-2" points="125.25 77.23 124.49 79 122.85 77.9 125.25 77.23"/>
          <g class="cls-19">
            <rect class="cls-2" x="122.58" y="76.64" width="2.94" height="2.95" transform="translate(-18.73 111.35) rotate(-45.3)"/>
          </g>
        </g>
        <g>
          <polygon class="cls-2" points="122.96 77.63 123.96 77.02 123.02 76.92 122.96 77.63"/>
          <g class="cls-23">
            <rect class="cls-2" x="122.86" y="76.67" width="1.21" height="1.21" transform="translate(-18.31 110.68) rotate(-45.3)"/>
          </g>
        </g>
        <g>
          <path class="cls-2" d="M91.96,58.72c-.52,0-1.04,.03-1.56,.07-.44,.03-.89,.08-1.33,.16-1.27,.25-2.48,.67-3.59,1.36-.83,.51-1.49,1.18-1.95,2.04-.62,1.18-.7,2.44-.49,3.71,.21,1.25,.88,2.26,1.85,3.04,1.02,.82,2.22,1.31,3.48,1.61,.57,.14,1.15,.21,1.73,.29,.51,.07,1.03,.14,1.55,.13,.54,0,1.09-.03,1.61-.15,1.25-.26,2.5-.59,3.73-.88,.37-1.28,.73-2.5,1.08-3.72-.02,0-.04-.02-.06-.03-.17,.32-.32,.64-.5,.94-.62,1.01-1.46,1.79-2.5,2.33-1,.52-2.1,.73-3.22,.78-.44,.02-.89-.06-1.33-.14-1.53-.26-2.65-1.09-3.36-2.46-.32-.62-.52-1.27-.65-1.96-.12-.6-.13-1.19-.03-1.78,.13-.8,.39-1.57,.8-2.27,.53-.92,1.27-1.61,2.26-1.99,1.3-.51,2.65-.46,3.99-.18,.7,.15,1.36,.42,1.97,.81,.81,.52,1.51,1.16,2,1.99,.21,.35,.39,.71,.62,1.13-.01-.13-.01-.2-.03-.26-.32-1.12-.63-2.25-.97-3.37-.03-.09-.14-.19-.24-.22-.84-.24-1.68-.49-2.53-.69-.76-.19-1.54-.31-2.33-.31Z"/>
          <g class="cls-21">
            <rect class="cls-2" x="80.69" y="55.14" width="19.54" height="19.57" transform="translate(-19.32 83.55) rotate(-45.3)"/>
          </g>
        </g>
        <g>
          <path class="cls-2" d="M61.75,85.56s16.33-3.1,29.53-3.1,29.56,3.1,29.56,3.1l-29.48-6.88-29.61,6.88Z"/>
          <g class="cls-22">
            <rect class="cls-2" x="68.07" y="58.71" width="46.45" height="46.84" transform="translate(-31.3 89.25) rotate(-45.3)"/>
          </g>
        </g>
        <g>
          <path class="cls-2" d="M33.4,99.35c0,4.93,6.02,5.77,8.2,5.77s3.92-.64,4.73-.84c.81-.2,.93,1,.93,1l.77-5.01s-1.54,4.24-6.38,4.24-5.09-4.76-5.09-5.16,.2-5.33,5.05-5.33,6.26,4.45,6.26,4.45l-.53-4.75c-.32,1.02-1.29,.58-1.29,.58,0,0-2.22-.84-4.44-.84s-8.2,.96-8.2,5.89"/>
          <g class="cls-24">
            <rect class="cls-2" x="31.37" y="90.01" width="18.69" height="18.71" transform="translate(-58.56 58.41) rotate(-45.3)"/>
          </g>
        </g>
        <g>
          <path class="cls-2" d="M60.3,93.72c1.41,0,1.57,1.54,1.57,1.54v3.52h-7.55v-3.72c0-.96,1.62-1.34,1.62-1.34h-6.1c1.5,0,1.53,1.46,1.53,1.46v8.37c0,1.08-1.57,1.28-1.57,1.28h6.02c-1.45,0-1.54-1.36-1.54-1.36v-4.13h7.55v4.21c0,.84-1.53,1.28-1.53,1.28h6.02c-1.37,0-1.53-1.32-1.53-1.32v-8.25c0-.96,1.53-1.54,1.53-1.54h-6.02Z"/>
          <g class="cls-32">
            <rect class="cls-2" x="48.29" y="89.5" width="19.52" height="19.56" transform="translate(-53.35 70.71) rotate(-45.3)"/>
          </g>
        </g>
        <g>
          <path class="cls-2" d="M74.07,95.38l2.66,5.37h-5.29l2.63-5.37Zm0-1.66s-3.88,7.83-4.69,9.32c-.81,1.48-2.38,1.8-2.38,1.8h5.09c-2.63,0-1.94-1.68-1.94-1.68l1.01-1.84h5.9s.53,1.16,.89,2c.36,.84-1.66,1.52-1.66,1.52h7.23c-1.17,0-2.18-1.48-2.18-1.48l-4.93-9.64h-2.34Z"/>
          <g class="cls-34">
            <rect class="cls-2" x="65.5" y="89.5" width="19.52" height="19.56" transform="translate(-48.24 82.94) rotate(-45.3)"/>
          </g>
        </g>
        <g>
          <path class="cls-2" d="M94.1,93.72s1.62,.1,1.7,1.38v6.25s.08,3.12-4.36,3.12-4.2-3.09-4.2-3.09v-6.21s0-1.46,1.58-1.46h-6.1s1.62,.54,1.62,1.46v5.73s-.08,4.33,6.18,4.33,5.94-3.85,5.94-3.85v-6.21s.12-1.46,1.66-1.46h-4Z"/>
          <g class="cls-31">
            <rect class="cls-2" x="80.9" y="89.96" width="19.01" height="19.04" transform="translate(-43.89 93.77) rotate(-45.3)"/>
          </g>
        </g>
        <g>
          <path class="cls-2" d="M113.17,93.72l-4.85,7.99-4.8-7.99h-4.44c1.62,.3,1.62,1.26,1.62,1.26v8.49c-.04,1.16-1.82,1.36-1.82,1.36h4.08c-1.41,0-1.53-1.4-1.53-1.4v-7.73l5.61,9.54,5.66-9.57v7.81c0,1.08-1.49,1.36-1.49,1.36h6.14c-1.66,0-1.66-1.36-1.66-1.36v-8.41c0-1.04,1.58-1.34,1.58-1.34h-4.08Z"/>
          <g class="cls-30">
            <rect class="cls-2" x="97.52" y="88.87" width="21.17" height="21.22" transform="translate(-38.65 106.34) rotate(-45.3)"/>
          </g>
        </g>
        <g>
          <path class="cls-2" d="M119.19,93.72c1.29,0,1.53,1.42,1.53,1.42v8.37c0,.96-1.7,1.32-1.7,1.32h12.08l.77-3.57c-.65,2.96-4.04,3-4.04,3h-4.12v-4.93h3.07c1.29,0,1.78,2.16,1.78,2.16v-4.93c0,2.04-1.78,2.24-1.78,2.24h-3.03v-4.57h3.8c2.38,.2,3.63,3.12,3.63,3.12l-.89-3.67h-11.11Z"/>
          <g class="cls-25">
            <rect class="cls-2" x="116.98" y="90.8" width="16.94" height="16.95" transform="translate(-33.36 118.62) rotate(-45.3)"/>
          </g>
        </g>
        <g>
          <path class="cls-2" d="M133.41,93.72l-.65,4.27c1.21-3.72,2.83-3.72,2.83-3.72h3.11v9.29c0,.88-1.7,1.28-1.7,1.28h6.3c-1.65,0-1.7-1.36-1.7-1.36v-9.21h3.23c1.41,.2,2.79,3.76,2.79,3.76l-.73-4.31h-13.49Z"/>
          <g class="cls-26">
            <rect class="cls-2" x="131.01" y="90.08" width="18.36" height="18.39" transform="translate(-28.98 129.1) rotate(-45.3)"/>
          </g>
        </g>
        <g>
          <path class="cls-2" d="M78.02,109.08h1.86c.55,0,.82,.32,.82,.78,0,.48-.24,.87-.95,.87h-1.73v-1.64Zm-.72-.62v4.8h.72v-1.92h1.83c1.02,0,1.57-.6,1.57-1.5s-.56-1.38-1.62-1.38h-2.5Z"/>
          <g class="cls-27">
            <rect class="cls-2" x="76.21" y="107.71" width="6.31" height="6.3" transform="translate(-55.26 89.29) rotate(-45.3)"/>
          </g>
        </g>
        <g>
          <path class="cls-2" d="M84.6,109.12l.93,2.12h-1.84l.91-2.12Zm-.38-.66l-2.19,4.8h.77l.62-1.4h2.37l.62,1.4h.82l-2.19-4.8h-.82Z"/>
          <g class="cls-28">
            <rect class="cls-2" x="81.09" y="107.32" width="7.07" height="7.07" transform="translate(-53.7 93.04) rotate(-45.3)"/>
          </g>
        </g>
        <g>
          <path class="cls-2" d="M89.56,109.08h2.03c.58,0,.85,.31,.85,.77,0,.34-.17,.76-.87,.76h-2.01v-1.53Zm-.72-.62v4.8h.72v-2.04h1.88c.6,0,.89,.26,.94,1.12,.03,.58,.03,.78,.15,.91h.76c-.16-.19-.19-.41-.23-1.3-.03-.57-.28-.96-.71-1.02h0c.53-.18,.81-.61,.81-1.2s-.35-1.28-1.32-1.28h-3Z"/>
          <g class="cls-33">
            <rect class="cls-2" x="87.79" y="107.59" width="6.54" height="6.53" transform="translate(-51.79 97.61) rotate(-45.3)"/>
          </g>
        </g>
        <g>
          <rect class="cls-2" x="95.44" y="108.46" width=".72" height="4.8"/>
          <g class="cls-29">
            <rect class="cls-2" x="93.84" y="108.92" width="3.92" height="3.89" transform="translate(-50.38 100.98) rotate(-45.3)"/>
          </g>
        </g>
        <g>
          <path class="cls-2" d="M98.43,109.8c0,.93,.86,1.16,1.44,1.26l1.1,.18c.55,.1,.9,.28,.9,.71,0,.52-.54,.81-1.31,.81s-1.54-.22-1.56-1.08h-.72c0,1.32,1.13,1.7,2.22,1.7,.98,0,2.08-.35,2.08-1.57,0-.98-1.08-1.16-1.46-1.23l-1.19-.2c-.6-.1-.79-.34-.79-.63,0-.57,.6-.79,1.12-.79,1.16,0,1.38,.51,1.44,.89h.72c-.07-1.16-1.09-1.51-2.06-1.51-1.24,0-1.94,.59-1.94,1.46"/>
          <g class="cls-20">
            <rect class="cls-2" x="97.12" y="107.56" width="6.61" height="6.61" transform="translate(-49.01 104.27) rotate(-45.3)"/>
          </g>
        </g>
      </g>
    </g>
  </g>
</svg>