<?xml version="1.0" encoding="UTF-8"?>
<svg id="Layer_2" data-name="Layer 2" xmlns="http://www.w3.org/2000/svg" viewBox="0 0 181.02 181.22">
  <defs>
    <style>
      .cls-1 {
        fill: #fff;
      }

      .cls-2 {
        fill: #171726;
      }

      .cls-3 {
        fill: #1f1c2f;
      }
    </style>
  </defs>
  <g id="COMMUNITY_MGNT" data-name="COMMUNITY MGNT">
    <g>
      <g>
        <path class="cls-3" d="M181.02,21.4V90.61H0V21.4C0,9.58,9.59,0,21.41,0H159.62c11.82,0,21.4,9.58,21.4,21.4Z"/>
        <path class="cls-2" d="M0,159.82V90.61H181.02v69.21c0,11.82-9.59,21.4-21.41,21.4H21.4c-11.82,0-21.4-9.58-21.4-21.4Z"/>
      </g>
      <g>
        <path class="cls-1" d="M93.12,64.25c.34,.04,.69,.09,1.03,.13,1.89,.27,3.73,.76,5.56,1.31,2.53,.76,5.05,1.55,7.58,2.32,.84,.25,1.69,.49,2.58,.48,.8,0,1.6-.03,2.4-.05,1.35-.04,2.7-.08,4.06-.14,2.56-.1,5.12-.2,7.69-.31,3.83-.16,7.65-.32,11.48-.49,3.49-.15,6.98-.31,10.48-.47,3.61-.17,7.21-.34,10.82-.51,1.42-.07,2.84-.14,4.26-.21,.1,0,.21,0,.34,0-.82,1.26-1.8,2.3-3.31,2.62-.9,.19-1.81,.32-2.73,.43-2,.23-4,.43-6,.62-2,.19-4.01,.37-6.01,.55-1.88,.17-3.76,.34-5.64,.5-1.89,.17-3.78,.33-5.67,.5-2.06,.18-4.13,.37-6.19,.56-1.87,.18-3.74,.35-5.61,.55-1.98,.21-3.96,.47-5.9,.92-2.14,.5-3.76,1.67-4.88,3.55-.75,1.27-1.48,2.55-2.26,3.81-2.75,4.49-6.5,7.95-11.03,10.59-1.08,.63-2.19,1.18-3.3,1.76-.09,.05-.24,.05-.33,.01-3.47-1.66-6.68-3.71-9.48-6.36-2.18-2.06-3.98-4.43-5.48-7.02-.48-.83-.98-1.65-1.44-2.48-1.24-2.25-3.16-3.53-5.67-4.01-1.93-.38-3.88-.63-5.84-.83-1.92-.2-3.85-.38-5.77-.56-1.85-.17-3.69-.33-5.54-.5-1.92-.17-3.83-.34-5.75-.51-1.66-.15-3.33-.29-4.99-.44-1.85-.17-3.69-.33-5.54-.51-1.52-.14-3.04-.28-4.56-.44-1.55-.17-3.11-.35-4.65-.57-1.44-.2-2.57-.94-3.41-2.13-.14-.19-.28-.38-.45-.62,.13,0,.22,0,.31,0,3.07,.15,6.14,.29,9.21,.44,2.58,.12,5.16,.23,7.74,.35,2.56,.12,5.12,.24,7.69,.35,3.63,.16,7.27,.32,10.9,.47,3.29,.14,6.58,.26,9.87,.38,1.94,.07,3.88,.13,5.82,.17,.82,.02,1.6-.19,2.38-.43,2.52-.76,5.03-1.54,7.55-2.3,1.78-.54,3.58-1.03,5.42-1.33,.39-.06,.78-.09,1.18-.14,.07,0,.15-.03,.22-.05,.3,0,.6,0,.9,0Zm-15.1,8.26c.02,.14,.02,.28,.06,.42,.85,3.38,2.2,6.54,4.27,9.35,2.7,3.68,6.22,6.44,10.19,8.65,.08,.04,.22,.03,.3,0,2.79-1.54,5.34-3.42,7.61-5.66,2.07-2.04,3.71-4.37,4.93-7.01,.76-1.65,1.41-3.34,1.87-5.11,.23-.89,0-1.64-.71-2.19-.5-.38-1.06-.7-1.63-.94-3.3-1.35-6.7-2.35-10.17-3.13-1.12-.25-2.24-.38-3.39-.14-3.59,.74-7.09,1.79-10.51,3.11-.76,.29-1.52,.61-2.12,1.19-.41,.4-.68,.87-.68,1.46Z"/>
        <path class="cls-1" d="M68.49,112.41c-.43-.11-.87-.19-1.29-.35-1.91-.74-3.07-2.58-2.99-4.73,.08-2.47,1.74-4.32,4.18-4.66,1.89-.27,3.83,.65,4.71,2.26-.31,.23-.62,.46-.93,.69-.23-.27-.43-.56-.68-.79-1.07-1-2.34-1.21-3.7-.76-1.31,.43-1.98,1.45-2.21,2.77-.12,.7-.07,1.39,.17,2.05,.56,1.57,2.06,2.48,3.74,2.29,.86-.1,1.65-.35,2.3-.93,.09-.08,.16-.23,.16-.35,.02-.53,0-1.07,0-1.63h-1.87v-1.16h3.14c0,.09,.02,.18,.02,.27,0,1.02,0,2.04,0,3.06,0,.13-.07,.29-.17,.38-.91,.85-1.98,1.38-3.22,1.55-.04,0-.08,.03-.11,.05h-1.27Z"/>
        <path class="cls-1" d="M91.38,112.41c-.95-1.01-1.89-2.03-2.84-3.04-1.15-1.22-2.3-2.45-3.45-3.67-.03-.03-.06-.05-.14-.11v6.65h-1.27v-9.41c.23-.07,.36,.02,.51,.18,1.63,1.7,3.26,3.4,4.9,5.09,.43,.44,.92,.84,1.34,1.21v-6.49h1.31v.31c0,2.99,0,5.98,0,8.97,0,.11,0,.21,0,.32h-.37Z"/>
        <path class="cls-1" d="M104.73,112.41c-.14-.04-.29-.07-.43-.11-1.24-.32-2-1.14-2.46-2.31,.33-.2,.66-.38,.98-.57,.17,.28,.31,.56,.49,.81,.62,.85,1.76,1.19,2.76,.84,.66-.23,1.05-.75,1.07-1.45,.02-.62-.3-1.11-.96-1.37-.47-.18-.97-.3-1.46-.44-.58-.16-1.14-.38-1.58-.79-1.16-1.08-.97-3,.39-3.89,1.38-.9,3.45-.56,4.46,.73,.14,.18,.25,.38,.38,.59-.34,.23-.65,.43-.95,.63-.23-.26-.43-.52-.67-.73-.6-.5-1.29-.61-2.03-.41-.6,.17-.95,.61-1,1.19-.04,.56,.26,1.03,.84,1.27,.39,.15,.81,.23,1.21,.37,.44,.15,.89,.28,1.3,.49,.94,.48,1.44,1.26,1.41,2.34-.03,1.06-.51,1.87-1.45,2.37-.38,.2-.82,.29-1.23,.43h-1.06Z"/>
        <path class="cls-1" d="M117.39,112.41c-.13-.04-.27-.07-.4-.11-1.14-.28-2.09-1.17-2.45-2.32,.32-.19,.64-.38,.98-.58,.1,.19,.19,.38,.29,.55,.61,1.02,1.76,1.47,2.88,1.13,.86-.26,1.31-1.08,1.07-1.92-.14-.47-.48-.76-.92-.91-.47-.17-.96-.28-1.43-.43-.39-.13-.79-.26-1.14-.46-1.77-1.01-1.44-3.3-.13-4.19,1.42-.96,3.62-.59,4.6,.81,.1,.15,.18,.31,.28,.48-.33,.22-.64,.42-.96,.64-.09-.12-.16-.23-.25-.34-.6-.75-1.37-1.03-2.31-.84-.63,.13-1.06,.6-1.11,1.18-.05,.6,.26,1.1,.9,1.34,.44,.16,.91,.26,1.36,.4,.7,.2,1.35,.49,1.87,1.02,1.01,1.05,.87,3.28-.85,4.15-.37,.19-.78,.28-1.18,.41h-1.11Z"/>
        <path class="cls-1" d="M117.28,80.29c6.56-.14,13.08-.28,19.6-.42,0,.02,0,.04,.01,.05-.4,.13-.8,.28-1.21,.4-3.68,1.16-7.39,2.17-11.17,2.94-1.39,.28-2.8,.41-4.21,.45-2.57,.08-5.13,0-7.69-.14-.98-.05-1.86,.22-2.53,1-.11,.12-.19,.27-.32,.45,2.14,.16,4.22,.31,6.31,.46-4.53,1.4-9.12,2.55-13.83,3.35,.55-.48,1.08-.92,1.59-1.39,1.89-1.74,3.4-3.79,4.75-5.96,.78-1.25,1.56-2.5,2.39-3.72,.63-.92,1.43-1.69,2.43-2.22,.8-.42,1.67-.62,2.54-.75,2.24-.35,4.48-.68,6.73-.95,2.33-.28,4.66-.5,7-.73,2.37-.24,4.74-.47,7.11-.7,2.6-.26,5.21-.52,7.81-.77,2.19-.21,4.39-.4,6.59-.6,1.87-.17,3.74-.34,5.62-.51,.13-.01,.25-.01,.41,.03-.44,.41-.88,.82-1.33,1.22-1.4,1.26-2.88,2.42-4.57,3.28-2.03,1.03-4.2,1.67-6.44,1.98-2.47,.33-4.96,.57-7.44,.76-3.13,.24-6.28,.4-9.41,.57-2.69,.15-5.39,.25-8.08,.38-.74,.04-1.44,.21-2.04,.68-.28,.21-.48,.48-.6,.86Z"/>
        <path class="cls-1" d="M83.08,88.82c-4.68-.77-9.26-1.92-13.79-3.32,1.04-.08,2.08-.15,3.12-.23,1.04-.08,2.08-.15,3.16-.23-.38-.7-.94-1.11-1.66-1.33-.73-.22-1.47-.11-2.2-.07-2.91,.13-5.83,.26-8.74-.06-1.5-.16-3-.49-4.48-.83-3.31-.75-6.56-1.67-9.78-2.74-.08-.03-.16-.06-.24-.14,6.52,.14,13.04,.28,19.6,.41-.11-.37-.32-.64-.61-.86-.6-.46-1.31-.64-2.05-.67-1.99-.1-3.98-.17-5.97-.28-2.79-.14-5.58-.29-8.37-.46-2.22-.14-4.43-.3-6.65-.49-2.31-.2-4.61-.49-6.86-1.1-2.73-.75-5.14-2.06-7.27-3.91-.73-.63-1.44-1.28-2.23-1.98,.2,0,.31,0,.42,0,2.83,.25,5.65,.51,8.48,.77,2.51,.23,5.02,.46,7.53,.71,2.35,.23,4.7,.48,7.05,.71,1.88,.19,3.76,.36,5.64,.55,2.25,.23,4.49,.45,6.73,.73,1.91,.24,3.81,.54,5.7,.85,1.35,.22,2.6,.66,3.61,1.64,.71,.69,1.31,1.47,1.84,2.3,.89,1.4,1.74,2.82,2.66,4.21,1.46,2.22,3.22,4.16,5.32,5.82Z"/>
        <path class="cls-1" d="M77.27,111.09h3.61v1.14h-4.9v-9.41h4.9v1.12h-3.62v2.96h3.34v1.14h-3.34v3.04Z"/>
        <path class="cls-1" d="M99.86,103.96h-3.61v2.95h3.34v1.14h-3.34v3.03h3.61v1.15h-4.91v-9.41h4.91v1.13Z"/>
        <path class="cls-1" d="M112.24,112.24h-1.27v-9.41h1.27v9.41Z"/>
        <path class="cls-1" d="M91.94,76.86c-.16,0-.3,.02-.44,0-.11-.02-.25-.08-.32-.16-.5-.6-.98-1.22-1.46-1.83-.07-.09-.14-.17-.26-.31v2.29h-.6v-.28c0-.87,0-1.74,0-2.61,0-.23-.02-.42-.27-.49,0-.18,.09-.22,.25-.24,.41-.05,.7,.08,.95,.43,.43,.62,.93,1.19,1.4,1.78,.04,.05,.09,.1,.18,.19v-2.38h.58v3.61Z"/>
        <path class="cls-1" d="M84.56,73.46c-.05,.19-.1,.36-.16,.56-.36-.25-.73-.42-1.16-.39-.3,.02-.56,.13-.77,.35-.51,.53-.51,1.61,.02,2.12,.33,.33,.74,.43,1.19,.29,.06-.02,.15-.05,.16-.08,.02-.21,.02-.42,.04-.62,.03-.25-.07-.4-.31-.46-.06-.01-.11-.05-.23-.11,.12-.08,.19-.18,.27-.18,.32-.02,.65,0,.99,0,.01,.08,.03,.15,.03,.21,0,.33,0,.67,0,1,0,.52,0,.52-.49,.67-.47,.14-.95,.19-1.43,.09-1.02-.21-1.6-1.11-1.42-2.18,.17-1.02,.96-1.63,2.03-1.58,.53,.03,.91,.12,1.26,.32Z"/>
        <path class="cls-1" d="M101.27,76.77c.02-.2,.04-.39,.06-.58,.28,.08,.55,.17,.82,.22,.2,.03,.42,.03,.62-.03,.34-.09,.42-.46,.15-.7-.14-.12-.31-.2-.47-.29-.27-.15-.56-.28-.82-.46-.31-.21-.46-.53-.4-.91,.06-.4,.32-.63,.69-.75,.63-.21,1.24-.13,1.88,.07-.04,.18-.07,.35-.1,.5-.33-.08-.64-.15-.94-.22-.03,0-.07-.01-.1-.01-.29-.01-.56,.11-.6,.29-.06,.28,.13,.44,.34,.56,.29,.16,.61,.28,.88,.47,.21,.15,.44,.35,.55,.58,.3,.62-.13,1.25-.91,1.39-.41,.07-1.18,.02-1.63-.13Z"/>
        <path class="cls-1" d="M85.52,76.85c0-.98,0-1.94,0-2.9,0-.23-.03-.42-.29-.5,0-.03-.01-.05-.02-.08,.09-.05,.17-.14,.26-.14,.75-.01,1.49,0,2.24,0,.33,0,.2,.28,.31,.46h-1.68v1.05h1.43v.46h-1.43v1.17h1.66v.47h-2.48Z"/>
        <path class="cls-1" d="M93.8,74.75h1.42v.46h-1.43v1.18h1.66v.46h-2.48v-.92c0-.69,0-1.37,0-2.06,0-.12-.11-.23-.16-.34-.03-.06-.09-.13-.08-.16,.03-.06,.11-.12,.17-.12,.77,0,1.55-.01,2.32,0,.28,0,.16,.28,.27,.45h-1.68v1.07Z"/>
        <path class="cls-1" d="M96.06,76.79c.02-.23,.04-.42,.06-.57,.4,.07,.78,.16,1.16,.2,.25,.03,.48-.05,.57-.32,.07-.21-.05-.42-.35-.58-.17-.09-.35-.16-.52-.26-.21-.12-.44-.23-.62-.39-.57-.52-.4-1.35,.33-1.6,.62-.22,1.24-.14,1.88,.06-.03,.17-.05,.33-.08,.5-.32-.08-.63-.16-.94-.22-.1-.02-.21,0-.31,0-.19,.02-.38,.09-.39,.29,0,.15,.09,.35,.2,.44,.18,.15,.41,.22,.62,.35,.25,.16,.52,.3,.74,.5,.47,.45,.37,1.16-.19,1.5-.51,.31-1.06,.25-1.61,.19-.17-.02-.34-.06-.54-.1Z"/>
        <path class="cls-1" d="M99.55,76.84c0-.96,0-1.9,0-2.84,0-.25-.02-.46-.31-.54,0-.03-.01-.05-.02-.08,.1-.05,.19-.13,.29-.14,.27-.02,.54,0,.82,0v3.61h-.79Z"/>
      </g>
    </g>
  </g>
</svg>