<?xml version="1.0" encoding="UTF-8"?>
<svg id="Layer_2" data-name="Layer 2" xmlns="http://www.w3.org/2000/svg" xmlns:xlink="http://www.w3.org/1999/xlink" viewBox="0 0 181.02 181.22">
  <defs>
    <style>
      .cls-1, .cls-2 {
        fill: none;
      }

      .cls-2 {
        stroke: #fff;
        stroke-miterlimit: 10;
        stroke-width: 2.33px;
      }

      .cls-3 {
        clip-path: url(#clippath);
      }

      .cls-4 {
        fill: #fff;
      }

      .cls-5 {
        fill: #d80b2a;
      }

      .cls-6 {
        fill: #171726;
      }

      .cls-7 {
        fill: #1f1c2f;
      }
    </style>
    <clipPath id="clippath">
      <rect class="cls-1" x="40.54" y="76.94" width="99.94" height="25.33"/>
    </clipPath>
  </defs>
  <g id="PHOTOGRAPHY">
    <g>
      <g>
        <path class="cls-7" d="M181.02,21.4V90.61H0V21.4C0,9.58,9.59,0,21.41,0H159.62c11.82,0,21.4,9.58,21.4,21.4Z"/>
        <path class="cls-6" d="M0,159.82V90.61H181.02v69.21c0,11.82-9.59,21.4-21.41,21.4H21.4c-11.82,0-21.4-9.58-21.4-21.4Z"/>
      </g>
      <rect class="cls-2" x="20.55" y="20.55" width="140.11" height="140.11" rx="16.5" ry="16.5"/>
      <g class="cls-3">
        <g>
          <path class="cls-4" d="M45.2,97.1h-4.66l7.7-17.51,11.43,14.04,1.55,3.46h-4.59l-5.72-13.2-5.71,13.2Z"/>
          <path class="cls-5" d="M46.09,76.94h5.06s1.21,.11,1.81,1.27c.6,1.17,6.72,15.42,6.72,15.42l-13.59-16.69Z"/>
          <path class="cls-4" d="M65.57,102.18h-3.31v-14.51s-.04-3.47,4.21-3.61h4.99c1.12,.04,3.92,.23,4.26,3.64v6.07s.04,3.69-4.56,3.62h-5.32l1.2-3.05h4.39s.87-.01,.93-.86v-5.48s.04-.87-.95-.92h-4.77s-1.05-.08-1.07,1.01v14.07Z"/>
          <path class="cls-4" d="M77.42,84.05h3.38v9.42s-.02,.88,.93,.87h4.67s.86,.06,.94-.87v-9.42h3.36v9.71s.02,3.32-3.75,3.61h-5.59s-3.72,.07-3.93-3.67v-9.66Z"/>
          <path class="cls-4" d="M103.26,84.05h3.38v9.42s-.02,.88,.93,.87h4.67s.86,.06,.94-.87v-9.42h3.36v9.71s.02,3.32-3.75,3.61h-5.59s-3.72,.07-3.93-3.67v-9.66Z"/>
          <path class="cls-4" d="M92.24,84.05h2.53s-.15-1.96,2.1-2.19h1.09v2.19h3.21v3.09h-3.24v6.32s0,.93,.98,.88h2.22l1.04,3.04h-3.59s-3.34,.12-3.83-3.47v-6.77h-2.51v-3.09h0Z"/>
          <path class="cls-4" d="M118.85,97.39h3.31v-9.37s0-.95,1.14-.92h2.22v-3.04h-2.6c-.15,0-3.92,0-4.07,3.67v9.67Z"/>
          <path class="cls-4" d="M138.54,94.45h-7.41s-.88,.05-.95-.83v-5.62s.06-.72,.84-.75h5.13s.94-.05,1.01,.8v.42s-.08,.82-.96,.82h-4.58l-1.12,3.09h5.75s3.79,.1,4.22-3.29v-1.42s0-3.39-4.2-3.52h-5.16s-4.1-.11-4.28,3.78v5.28s-.48,4.16,4.19,4.28h8.45l-.93-3.04Z"/>
        </g>
      </g>
    </g>
  </g>
</svg>