<?xml version="1.0" encoding="UTF-8"?>
<svg id="Layer_2" data-name="Layer 2" xmlns="http://www.w3.org/2000/svg" viewBox="0 0 181.02 181.22">
  <defs>
    <style>
      .cls-1 {
        fill: none;
        stroke: #fff;
        stroke-miterlimit: 10;
        stroke-width: 2.33px;
      }

      .cls-2 {
        fill: #171726;
      }

      .cls-3 {
        fill: #1f1c2f;
      }

      .cls-4 {
        fill: #0c3b5d;
      }

      .cls-5 {
        fill: #485daa;
      }

      .cls-6 {
        fill: #4ac7eb;
      }
    </style>
  </defs>
  <g id="COMMUNITY_MGNT" data-name="COMMUNITY MGNT">
    <g>
      <g>
        <path class="cls-3" d="M181.02,21.4V90.61H0V21.4C0,9.58,9.59,0,21.41,0H159.62c11.82,0,21.4,9.58,21.4,21.4Z"/>
        <path class="cls-2" d="M0,159.82V90.61H181.02v69.21c0,11.82-9.59,21.4-21.41,21.4H21.4c-11.82,0-21.4-9.58-21.4-21.4Z"/>
      </g>
      <rect class="cls-1" x="20.55" y="20.55" width="140.11" height="140.11" rx="16.5" ry="16.5"/>
      <g>
        <path class="cls-6" d="M70.67,73.03c-9.7,.03-17.55,7.88-17.58,17.58h0c.03,9.69,7.88,17.55,17.58,17.58h3.63v-35.16h-3.63Z"/>
        <path class="cls-5" d="M113.08,73.03h-3.62v35.16h3.63c9.7-.03,17.55-7.88,17.58-17.58h0c-.03-9.7-7.89-17.56-17.59-17.58Z"/>
        <path class="cls-6" d="M109.46,69.41c-.03-9.7-7.88-17.55-17.58-17.58h0c-9.7,.03-17.55,7.88-17.58,17.58v3.63h35.16v-3.63Z"/>
        <path class="cls-5" d="M74.84,116.04c1.96,7.82,8.97,13.32,17.04,13.35h0c9.7-.02,17.56-7.88,17.59-17.58v-3.63h-26.77l-7.85,7.85Z"/>
        <path class="cls-4" d="M74.3,73.03v38.78c0,1.42,.19,2.84,.54,4.22l7.85-7.85h26.77v-35.16h-35.16Z"/>
      </g>
    </g>
  </g>
</svg>