<?xml version="1.0" encoding="UTF-8"?>
<svg id="Layer_2" data-name="Layer 2" xmlns="http://www.w3.org/2000/svg" viewBox="0 0 181.02 181.22">
  <defs>
    <style>
      .cls-1 {
        fill: none;
        stroke: #fff;
        stroke-miterlimit: 10;
        stroke-width: 2.33px;
      }

      .cls-2 {
        fill: #171726;
      }

      .cls-3 {
        fill: #1f1c2f;
      }

      .cls-4 {
        fill: #0ca750;
      }

      .cls-5 {
        fill: #59cb59;
      }

      .cls-6 {
        fill: #2bb656;
      }

      .cls-7 {
        fill: #75dd66;
      }
    </style>
  </defs>
  <g id="COMMUNITY_MGNT" data-name="COMMUNITY MGNT">
    <g>
      <g>
        <path class="cls-3" d="M181.02,21.4V90.61H0V21.4C0,9.58,9.59,0,21.41,0H159.62c11.82,0,21.4,9.58,21.4,21.4Z"/>
        <path class="cls-2" d="M0,159.82V90.61H181.02v69.21c0,11.82-9.59,21.4-21.41,21.4H21.4c-11.82,0-21.4-9.58-21.4-21.4Z"/>
      </g>
      <rect class="cls-1" x="20.55" y="20.55" width="140.11" height="140.11" rx="16.5" ry="16.5"/>
      <g>
        <path class="cls-5" d="M88.16,55.15c-13.77,0-24.94,11.16-24.94,24.94v45.93c0,1.52,1.82,2.24,2.79,1.15l13.53-13.53h17.17c13.77,0,24.94-11.16,24.94-24.94V55.15h-33.49Z"/>
        <path class="cls-4" d="M79.61,113.69h-12.44l7.77,4.67,4.67-4.67Z"/>
        <path class="cls-6" d="M121.71,55.15h-33.55v33.55l33.55-33.55Z"/>
        <path class="cls-4" d="M88.16,55.15c-13.77,0-24.94,11.16-24.94,24.94v33.55l24.94-24.94V55.15Z"/>
        <path class="cls-7" d="M121.71,55.15l-33.55,33.55h33.55V55.15Z"/>
      </g>
    </g>
  </g>
</svg>