<?xml version="1.0" encoding="UTF-8"?>
<svg id="Layer_2" data-name="Layer 2" xmlns="http://www.w3.org/2000/svg" viewBox="0 0 181.02 181.22">
  <defs>
    <style>
      .cls-1 {
        fill: #fff;
      }

      .cls-2 {
        fill: #171726;
      }

      .cls-3 {
        fill: #1f1c2f;
      }
    </style>
  </defs>
  <g id="COMMUNITY_MGNT" data-name="COMMUNITY MGNT">
    <g>
      <g>
        <path class="cls-3" d="M181.02,21.4V90.61H0V21.4C0,9.58,9.59,0,21.41,0H159.62c11.82,0,21.4,9.58,21.4,21.4Z"/>
        <path class="cls-2" d="M0,159.82V90.61H181.02v69.21c0,11.82-9.59,21.4-21.41,21.4H21.4c-11.82,0-21.4-9.58-21.4-21.4Z"/>
      </g>
      <g>
        <path class="cls-1" d="M32.57,81.26c-1.96,0-3.55-1.59-3.55-3.56s1.57-3.63,3.8-4.01c2.24-.39,6.86,.46,6.86,.46h.01s.84,4.64,.46,6.88c-.39,2.24-2.05,3.8-4.01,3.8s-3.55-1.59-3.56-3.55c0,0-.01,0-.02,0,0,0,0-.01,0-.02m8.58-.23c-.39-2.24,.46-6.86,.46-6.86h.01s4.62-.86,6.86-.47c2.24,.39,3.8,2.05,3.8,4.01s-1.59,3.55-3.55,3.56c0,0,0,.01,0,.02,0,0-.01,0-.02,0,0,1.96-1.59,3.55-3.56,3.55s-3.63-1.57-4.01-3.8m-5.01-19.47c1.96,0,3.63,1.57,4.01,3.8,.39,2.24-.46,6.86-.46,6.86h-.01s-4.62,.86-6.86,.47c-2.24-.39-3.8-2.05-3.8-4.01s1.59-3.55,3.55-3.56c0,0,0-.01,0-.02,0,0,.01,0,.02,0,0-1.96,1.59-3.55,3.56-3.55m5.48,10.68h-.01s-.84-4.64-.46-6.88c.39-2.24,2.05-3.8,4.01-3.8s3.55,1.59,3.56,3.55c0,0,.01,0,.02,0,0,0,0,.01,0,.02,1.96,0,3.55,1.59,3.55,3.56s-1.57,3.63-3.8,4.01c-.42,.07-.92,.1-1.45,.1-2.35,0-5.41-.56-5.41-.56m-11.2-14.04c-2.92,0-5.28,2.36-5.28,5.28v8.76c0,16.21,15.51,22.04,15.51,22.04,0,0,15.51-5.82,15.51-22.04v-8.76c0-2.92-2.36-5.28-5.28-5.28H30.42Z"/>
        <path class="cls-1" d="M67.04,89.63l-1.28-4.17c-.04-.12-.09-.2-.14-.24-.05-.03-.1-.05-.16-.05h-.15l-1.46,4.45h3.19Zm-7.16,3.11h.94l2.59-7.65h-1.41l-.37-1.24c0-.1,.04-.17,.12-.22,.08-.04,.23-.07,.45-.07h3.83c.41,0,.74,.09,.99,.28,.25,.18,.41,.42,.5,.7l2.64,8.2h.94l.37,1.24c0,.1-.04,.17-.12,.22-.08,.04-.23,.07-.45,.07h-3.8c-.23,0-.38-.02-.45-.07-.08-.04-.12-.12-.12-.22l.37-1.24h1.11l-.52-1.66h-4.12l-.54,1.66h1.11l.37,1.24c0,.1-.04,.17-.12,.22-.08,.04-.23,.07-.45,.07h-3.66c-.22,0-.38-.02-.45-.07-.08-.04-.12-.12-.12-.22l.37-1.24Z"/>
        <path class="cls-1" d="M72.57,92.74h1.11v-7.65h-1.11l-.37-1.24c0-.1,.04-.17,.12-.22,.08-.04,.23-.07,.45-.07h3.46c.32,0,.59,.04,.78,.11,.2,.07,.35,.26,.46,.55l1.98,5.28h.07l2-5.28c.12-.28,.28-.46,.47-.54,.19-.08,.45-.12,.77-.12h3.48c.22,0,.38,.02,.45,.07,.08,.05,.12,.12,.12,.22l-.37,1.24h-1.11v7.65h1.11l.37,1.24c0,.1-.04,.17-.12,.22-.08,.04-.23,.07-.45,.07h-3.97c-.22,0-.38-.02-.45-.07-.08-.04-.12-.12-.12-.22l.37-1.24h1.11v-7.43h-.07c-.07,0-.12,.02-.14,.06-.03,.04-.05,.09-.08,.14l-2.54,6.4c-.03,.09-.08,.16-.13,.21-.06,.05-.15,.08-.29,.08h-.93c-.15,0-.24-.03-.29-.08-.05-.05-.09-.12-.13-.21l-2.64-6.47c-.02-.06-.05-.1-.08-.14-.03-.04-.07-.06-.14-.06h-.07v7.5h1.11l.37,1.24c0,.1-.04,.17-.12,.22-.08,.04-.23,.07-.45,.07h-3.81c-.22,0-.38-.02-.45-.07-.08-.04-.12-.12-.12-.22l.37-1.24Z"/>
        <path class="cls-1" d="M88.47,92.74h1.11v-7.65h-1.11l-.37-1.24c0-.1,.04-.17,.12-.22,.08-.04,.23-.07,.45-.07h7.36c.22,0,.38,.02,.45,.07,.08,.05,.12,.12,.12,.22v2.29c0,.22-.02,.38-.07,.45-.04,.08-.12,.12-.22,.12h-1.13l-.47-1.61h-2.99v2.97h3.75c.22,0,.38,.02,.45,.07,.08,.04,.12,.12,.12,.22l-.4,1.29h-3.92v3.09h3.6l.47-1.61h1.13c.1,0,.17,.04,.22,.12,.04,.08,.07,.23,.07,.45v2.28c0,.1-.04,.17-.12,.22-.08,.04-.23,.07-.45,.07h-7.97c-.22,0-.38-.02-.45-.07-.08-.04-.12-.12-.12-.22l.37-1.24Z"/>
        <path class="cls-1" d="M104.12,88.56c.62,0,1.13-.14,1.54-.42,.41-.28,.61-.7,.61-1.26,0-.5-.18-.93-.53-1.27-.35-.34-.91-.51-1.66-.51h-1.88v3.46h1.92Zm-5.18,4.18h1.11v-7.65h-1.11l-.37-1.24c0-.1,.04-.17,.12-.22,.08-.04,.23-.07,.45-.07h4.89c1.42,0,2.5,.24,3.22,.72,.72,.48,1.08,1.33,1.08,2.54,0,.2-.03,.42-.09,.66-.06,.24-.16,.48-.3,.71-.14,.23-.32,.45-.54,.66-.22,.21-.48,.4-.8,.55,.08,.06,.17,.15,.26,.29,.09,.13,.19,.29,.28,.45,.09,.17,.17,.33,.24,.49,.07,.16,.13,.28,.18,.37l.79,1.73h1.24l.37,1.24c0,.1-.04,.17-.12,.22-.08,.04-.23,.07-.45,.07h-2.24c-.22,0-.36-.03-.42-.08-.06-.05-.11-.12-.15-.21l-1.29-2.87c-.12-.26-.24-.46-.34-.62-.1-.16-.21-.28-.34-.36-.12-.08-.27-.14-.43-.16-.16-.02-.37-.03-.61-.03h-1.38v2.81h1.11l.37,1.24c0,.1-.04,.17-.12,.22-.08,.04-.23,.07-.45,.07h-3.97c-.22,0-.38-.02-.45-.07-.08-.04-.12-.12-.12-.22l.37-1.24Z"/>
        <path class="cls-1" d="M111.06,92.74h1.11v-7.65h-1.11l-.37-1.24c0-.1,.04-.17,.12-.22,.08-.04,.23-.07,.45-.07h3.97c.22,0,.38,.02,.45,.07,.08,.05,.12,.12,.12,.22l-.37,1.24h-1.11v7.65h1.11l.37,1.24c0,.1-.04,.17-.12,.22-.08,.04-.23,.07-.45,.07h-3.97c-.22,0-.38-.02-.45-.07-.08-.04-.12-.12-.12-.22l.37-1.24Z"/>
        <path class="cls-1" d="M126.42,92.88c-.16,.19-.35,.38-.58,.57-.23,.19-.5,.36-.82,.51-.32,.15-.69,.27-1.11,.37-.42,.1-.89,.14-1.42,.14-.87,0-1.64-.14-2.29-.41-.66-.27-1.21-.66-1.66-1.15-.45-.49-.78-1.08-1.01-1.76-.22-.68-.34-1.42-.34-2.23,0-.69,.1-1.37,.3-2.03,.2-.66,.52-1.25,.96-1.77,.44-.52,1-.94,1.7-1.26,.69-.32,1.53-.48,2.52-.48,.73,0,1.38,.09,1.94,.27,.57,.18,1.06,.42,1.49,.72v2.42c0,.22-.02,.38-.07,.45-.05,.08-.12,.12-.22,.12h-1.13l-.62-2.1c-.22-.09-.46-.15-.72-.19-.26-.04-.49-.06-.69-.06-.59,0-1.09,.12-1.5,.37-.4,.25-.73,.56-.97,.94-.25,.38-.42,.8-.52,1.26-.1,.46-.15,.91-.15,1.34s.06,.88,.17,1.33c.11,.45,.29,.85,.55,1.22,.25,.36,.58,.66,.97,.9,.4,.24,.88,.35,1.45,.35,.38,0,.73-.05,1.03-.15,.31-.1,.59-.23,.84-.39,.25-.16,.47-.32,.67-.5,.19-.18,.36-.35,.52-.5,0-.01,.01-.02,.03-.03,.02-.02,.06-.03,.1-.03,.08,0,.13,.04,.15,.12l.42,1.65Z"/>
        <path class="cls-1" d="M134.48,89.63l-1.28-4.17c-.04-.12-.09-.2-.14-.24-.05-.03-.1-.05-.16-.05h-.15l-1.46,4.45h3.19Zm-7.16,3.11h.94l2.59-7.65h-1.41l-.37-1.24c0-.1,.04-.17,.12-.22,.08-.04,.23-.07,.45-.07h3.83c.41,0,.74,.09,.99,.28,.25,.18,.41,.42,.5,.7l2.64,8.2h.94l.37,1.24c0,.1-.04,.17-.12,.22-.08,.04-.23,.07-.45,.07h-3.8c-.23,0-.38-.02-.45-.07-.08-.04-.12-.12-.12-.22l.37-1.24h1.11l-.52-1.66h-4.12l-.54,1.66h1.11l.37,1.24c0,.1-.04,.17-.12,.22-.08,.04-.23,.07-.45,.07h-3.66c-.22,0-.38-.02-.45-.07-.08-.04-.12-.12-.12-.22l.37-1.24Z"/>
        <path class="cls-1" d="M140.01,92.74h1.11v-7.65h-1.11l-.37-1.24c0-.1,.04-.17,.12-.22,.08-.04,.23-.07,.45-.07h3.24c.32,0,.58,.04,.76,.13,.18,.08,.34,.26,.48,.53l3.66,7.39h.07v-6.52h-1.11l-.37-1.24c0-.1,.04-.17,.12-.22,.08-.04,.23-.07,.45-.07h3.78c.22,0,.38,.02,.45,.07,.08,.05,.12,.12,.12,.22l-.37,1.24h-1.11v8.89c-.03,.09-.1,.16-.19,.21-.1,.05-.26,.08-.48,.08h-1.45c-.22,0-.39-.03-.5-.08-.11-.05-.19-.12-.24-.21l-4.15-8.27c-.02-.06-.05-.1-.08-.14-.03-.04-.07-.06-.12-.06h-.07v7.23h1.13l.37,1.24c0,.1-.04,.17-.12,.22-.08,.04-.23,.07-.45,.07h-3.83c-.22,0-.38-.02-.45-.07-.08-.04-.12-.12-.12-.22l.37-1.24Z"/>
        <path class="cls-1" d="M59.88,107.92h1.11v-7.65h-1.11l-.37-1.24c0-.1,.04-.17,.12-.22,.08-.04,.23-.07,.45-.07h3.97c.22,0,.38,.02,.45,.07,.08,.05,.12,.12,.12,.22l-.37,1.24h-1.11v2.94h4.4v-2.94h-1.11l-.37-1.24c0-.1,.04-.17,.12-.22,.08-.04,.23-.07,.45-.07h3.97c.22,0,.37,.02,.45,.07,.08,.05,.12,.12,.12,.22l-.37,1.24h-1.11v7.65h1.11l.37,1.24c0,.1-.04,.17-.12,.22-.08,.04-.23,.07-.45,.07h-3.97c-.22,0-.38-.02-.45-.07-.08-.04-.12-.12-.12-.22l.37-1.24h1.11v-3.11h-4.4v3.11h1.11l.37,1.24c0,.1-.04,.17-.12,.22-.08,.04-.23,.07-.45,.07h-3.97c-.22,0-.38-.02-.45-.07-.08-.04-.12-.12-.12-.22l.37-1.24Z"/>
        <path class="cls-1" d="M77.66,108.02c.59,0,1.09-.12,1.49-.37,.4-.25,.72-.56,.96-.94,.24-.38,.41-.8,.51-1.26,.1-.46,.15-.91,.15-1.34s-.05-.89-.15-1.34c-.1-.46-.27-.88-.51-1.26-.24-.38-.56-.7-.96-.94-.4-.25-.89-.37-1.49-.37s-1.09,.12-1.49,.37c-.4,.25-.72,.56-.96,.94-.24,.38-.41,.8-.51,1.26-.1,.46-.15,.91-.15,1.34s.05,.88,.15,1.34c.1,.46,.27,.88,.51,1.26,.24,.38,.56,.69,.96,.94,.4,.25,.89,.37,1.49,.37m0,1.63c-.99,0-1.82-.16-2.51-.48-.69-.32-1.25-.74-1.69-1.26-.44-.52-.76-1.11-.96-1.77-.2-.66-.3-1.34-.3-2.03s.1-1.37,.3-2.03c.2-.66,.52-1.25,.96-1.77,.44-.52,1-.94,1.69-1.26,.69-.32,1.53-.48,2.51-.48s1.82,.16,2.51,.48c.69,.32,1.25,.74,1.69,1.26,.44,.52,.76,1.11,.96,1.77s.3,1.34,.3,2.03-.1,1.37-.3,2.03-.52,1.25-.96,1.77c-.44,.52-1,.94-1.69,1.26-.69,.32-1.53,.48-2.51,.48"/>
        <path class="cls-1" d="M84.79,106.58c0-.22,.02-.38,.07-.45,.04-.08,.12-.12,.22-.12h1.16l.44,1.46c.16,.17,.38,.33,.66,.48,.29,.15,.67,.23,1.15,.23,.55,0,1.01-.11,1.39-.34,.38-.23,.56-.58,.56-1.05,0-.29-.09-.54-.26-.75-.17-.21-.39-.38-.65-.53-.26-.15-.54-.27-.85-.37s-.6-.19-.86-.27c-.43-.12-.83-.27-1.2-.44-.38-.17-.7-.38-.98-.62-.28-.25-.5-.54-.66-.89-.16-.35-.24-.76-.24-1.23,0-.5,.09-.95,.28-1.35,.18-.39,.44-.72,.77-.98,.33-.26,.73-.46,1.19-.6,.46-.13,.98-.2,1.55-.2,.84,0,1.56,.12,2.15,.34,.59,.23,1.1,.51,1.51,.85v1.77c0,.22-.02,.38-.07,.45-.05,.08-.12,.12-.22,.12h-1.14l-.44-1.39c-.23-.22-.47-.39-.73-.5-.26-.11-.59-.17-.97-.17-.16,0-.34,.02-.55,.05-.21,.03-.4,.1-.59,.19-.18,.1-.34,.23-.46,.41-.12,.18-.18,.41-.18,.71,0,.32,.1,.59,.31,.8,.21,.21,.46,.38,.76,.53,.3,.15,.62,.26,.95,.35,.33,.09,.62,.17,.86,.25,.39,.12,.76,.27,1.12,.44,.35,.17,.66,.37,.93,.61,.27,.24,.48,.53,.64,.86,.16,.33,.24,.72,.24,1.17,0,.63-.11,1.15-.34,1.56-.23,.41-.53,.75-.91,1-.38,.25-.81,.43-1.31,.54-.5,.11-1.02,.16-1.56,.16-.87,0-1.64-.12-2.29-.35-.65-.23-1.14-.48-1.46-.75v-1.98Z"/>
        <path class="cls-1" d="M98.65,104.22c.35,0,.68-.03,1.01-.1,.32-.07,.61-.18,.86-.33,.25-.15,.44-.36,.59-.61,.15-.26,.22-.57,.22-.94s-.06-.68-.18-.94c-.12-.26-.3-.46-.53-.61-.23-.15-.5-.26-.82-.33-.31-.07-.66-.1-1.04-.1h-1.16v3.97h1.06Zm-4.32,3.7h1.11v-7.65h-1.11l-.37-1.24c0-.1,.04-.17,.12-.22,.08-.04,.23-.07,.45-.07h4.17c.74,0,1.4,.05,1.98,.15,.58,.1,1.08,.29,1.49,.55,.41,.27,.72,.63,.94,1.08,.22,.45,.33,1.03,.33,1.74,0,.63-.12,1.16-.36,1.6-.24,.44-.58,.8-1.01,1.08-.43,.28-.95,.48-1.56,.61-.61,.12-1.28,.18-2.02,.18h-.91v2.18h1.11l.37,1.24c0,.1-.04,.17-.12,.22-.08,.04-.23,.07-.45,.07h-3.97c-.22,0-.38-.02-.45-.07-.08-.04-.12-.12-.12-.22l.37-1.24Z"/>
        <path class="cls-1" d="M104.8,107.92h1.11v-7.65h-1.11l-.37-1.24c0-.1,.04-.17,.12-.22,.08-.04,.23-.07,.45-.07h3.97c.22,0,.38,.02,.45,.07,.08,.05,.12,.12,.12,.22l-.37,1.24h-1.11v7.65h1.11l.37,1.24c0,.1-.04,.17-.12,.22-.08,.04-.23,.07-.45,.07h-3.97c-.22,0-.38-.02-.45-.07-.08-.04-.12-.12-.12-.22l.37-1.24Z"/>
        <path class="cls-1" d="M113.17,107.92h1.11v-7.65h-1.83l-.65,2.2h-1.06c-.1,0-.17-.04-.22-.12-.04-.08-.07-.23-.07-.45v-2.87c0-.1,.04-.17,.12-.22,.08-.04,.23-.07,.45-.07h8.67c.22,0,.38,.02,.45,.07,.08,.05,.12,.12,.12,.22v2.87c0,.22-.02,.38-.07,.45-.04,.08-.12,.12-.22,.12h-1.06l-.66-2.2h-1.83v7.65h1.11l.37,1.24c0,.1-.04,.17-.12,.22-.08,.04-.23,.07-.45,.07h-3.97c-.22,0-.38-.02-.45-.07-.08-.04-.12-.12-.12-.22l.37-1.24Z"/>
        <path class="cls-1" d="M127.81,104.81l-1.28-4.17c-.04-.12-.09-.2-.14-.24-.05-.03-.1-.05-.16-.05h-.15l-1.46,4.45h3.19Zm-7.16,3.11h.94l2.59-7.65h-1.41l-.37-1.24c0-.1,.04-.17,.12-.22,.08-.04,.23-.07,.45-.07h3.83c.41,0,.74,.09,.99,.28,.25,.18,.41,.42,.5,.7l2.64,8.2h.94l.37,1.24c0,.1-.04,.17-.12,.22-.08,.04-.23,.07-.45,.07h-3.8c-.23,0-.38-.02-.45-.07-.08-.04-.12-.12-.12-.22l.37-1.24h1.11l-.52-1.66h-4.12l-.54,1.66h1.11l.37,1.24c0,.1-.04,.17-.12,.22-.08,.04-.23,.07-.45,.07h-3.66c-.22,0-.38-.02-.45-.07-.08-.04-.12-.12-.12-.22l.37-1.24Z"/>
        <path class="cls-1" d="M133.34,107.92h1.11v-7.65h-1.11l-.37-1.24c0-.1,.04-.17,.12-.22,.08-.04,.23-.07,.45-.07h3.97c.22,0,.38,.02,.45,.07,.08,.05,.12,.12,.12,.22l-.37,1.24h-1.11v7.65h2.96l.66-2.2h1.06c.1,0,.17,.04,.22,.12,.05,.08,.07,.23,.07,.45v2.87c0,.1-.04,.17-.12,.22-.08,.04-.23,.07-.45,.07h-7.45c-.22,0-.38-.02-.45-.07-.08-.04-.12-.12-.12-.22l.37-1.24Z"/>
        <rect class="cls-1" x="64.89" y="103.22" width=".4" height=".4"/>
        <rect class="cls-1" x="64.89" y="103.61" width=".4" height=".4"/>
        <rect class="cls-1" x="64.89" y="104.01" width=".4" height=".4"/>
        <rect class="cls-1" x="64.89" y="104.41" width=".4" height=".4"/>
      </g>
    </g>
  </g>
</svg>