<svg xmlns="http://www.w3.org/2000/svg" xmlns:xlink="http://www.w3.org/1999/xlink" viewBox="0 0 119.87 85.39"><defs><style>.cls-1{fill:#fff;}.cls-2{fill:url(#linear-gradient);}</style><linearGradient id="linear-gradient" x1="74.39" y1="51.08" x2="106.01" y2="51.08" gradientUnits="userSpaceOnUse"><stop offset="0" stop-color="#fcdc00"/><stop offset="0.1" stop-color="#fbc519"/><stop offset="0.32" stop-color="#fa954e"/><stop offset="0.53" stop-color="#f96e79"/><stop offset="0.72" stop-color="#f95397"/><stop offset="0.88" stop-color="#f842a9"/><stop offset="0.99" stop-color="#f83cb0"/><stop offset="1" stop-color="#f83cb0"/></linearGradient></defs><g id="Layer_2" data-name="Layer 2"><g id="SERVICES"><g id="ADVERTISING"><path class="cls-1" d="M101.26,13.24a1.88,1.88,0,1,0,1.87,1.88A1.88,1.88,0,0,0,101.26,13.24Z"/><path class="cls-1" d="M88.32,13.24a1.88,1.88,0,1,0,1.88,1.88A1.88,1.88,0,0,0,88.32,13.24Z"/><circle class="cls-1" cx="94.79" cy="15.12" r="1.88"/><path class="cls-1" d="M111.13,0H8.74A8.74,8.74,0,0,0,0,8.74V76.65a8.74,8.74,0,0,0,8.74,8.74H111.13a8.74,8.74,0,0,0,8.74-8.74V8.74A8.74,8.74,0,0,0,111.13,0ZM49.94,61.19H9.14V54h40.8Zm10-16.45H9.14V37.58H59.93Zm50.8,30.62H69.67V26.79h41.06ZM107.15,18.7H12.72a3.58,3.58,0,0,1,0-7.16h94.43a3.58,3.58,0,0,1,0,7.16Z"/><rect class="cls-2" x="74.39" y="31.24" width="31.62" height="39.68" rx="2.12"/></g></g></g></svg>