<svg xmlns="http://www.w3.org/2000/svg" xmlns:xlink="http://www.w3.org/1999/xlink" viewBox="0 0 106.92 119.77"><defs><style>.cls-1{fill:#fff;}.cls-2{fill:url(#linear-gradient);}</style><linearGradient id="linear-gradient" x1="47.79" y1="72.59" x2="106.92" y2="72.59" gradientUnits="userSpaceOnUse"><stop offset="0" stop-color="#fcdc00"/><stop offset="0.1" stop-color="#fbc519"/><stop offset="0.32" stop-color="#fa954e"/><stop offset="0.53" stop-color="#f96e79"/><stop offset="0.72" stop-color="#f95397"/><stop offset="0.88" stop-color="#f842a9"/><stop offset="0.99" stop-color="#f83cb0"/><stop offset="1" stop-color="#f83cb0"/></linearGradient></defs><g id="Layer_2" data-name="Layer 2"><g id="SERVICES"><g id="AUGMENTED_REALITY" data-name="AUGMENTED REALITY"><path class="cls-1" d="M53.46,58.9a5.73,5.73,0,0,1-2.39-.53L3.29,36.22A5.67,5.67,0,0,1,3,26.06L51.22.65a5.71,5.71,0,0,1,5.33,0l47.38,25.41a5.67,5.67,0,0,1-.3,10.14L55.84,58.37A5.65,5.65,0,0,1,53.46,58.9Zm-35-28.15L53.46,47l35.1-16.26L53.84,12.09Z"/><path class="cls-1" d="M53.46,119.77a5.7,5.7,0,0,1-2.69-.67L3,93.37a5.69,5.69,0,0,1-3-5V31.08a5.68,5.68,0,0,1,8.06-5.15L55.84,48.08a5.67,5.67,0,0,1,3.29,5.14V114.1a5.66,5.66,0,0,1-5.67,5.67ZM11.34,85l36.45,19.62V56.85L11.34,40Z"/><path class="cls-2" d="M53.46,119.77a5.66,5.66,0,0,1-5.67-5.67V53.22a5.68,5.68,0,0,1,3.28-5.14L98.86,25.93a5.68,5.68,0,0,1,8.06,5.15V88.86a5.66,5.66,0,0,1-3,5L56.11,119.12A5.64,5.64,0,0,1,53.46,119.77Zm5.67-62.92v47.84L95.58,85.44V40Z"/></g></g></g></svg>