<svg xmlns="http://www.w3.org/2000/svg" xmlns:xlink="http://www.w3.org/1999/xlink" viewBox="0 0 119.11 119.87"><defs><style>.cls-1{fill:#fff;}.cls-2{fill:url(#linear-gradient);}.cls-3{fill:url(#linear-gradient-2);}.cls-4{fill:url(#linear-gradient-3);}.cls-5{fill:url(#linear-gradient-4);}.cls-6{fill:url(#linear-gradient-5);}</style><linearGradient id="linear-gradient" y1="57.81" x2="15.02" y2="57.81" gradientUnits="userSpaceOnUse"><stop offset="0" stop-color="#fcdc00"/><stop offset="0.1" stop-color="#fbc519"/><stop offset="0.32" stop-color="#fa954e"/><stop offset="0.53" stop-color="#f96e79"/><stop offset="0.72" stop-color="#f95397"/><stop offset="0.88" stop-color="#f842a9"/><stop offset="0.99" stop-color="#f83cb0"/><stop offset="1" stop-color="#f83cb0"/></linearGradient><linearGradient id="linear-gradient-2" x1="104.1" y1="57.81" x2="119.11" y2="57.81" xlink:href="#linear-gradient"/><linearGradient id="linear-gradient-3" x1="52.05" y1="7.51" x2="67.06" y2="7.51" xlink:href="#linear-gradient"/><linearGradient id="linear-gradient-4" x1="3.28" y1="7.51" x2="17.77" y2="7.51" xlink:href="#linear-gradient"/><linearGradient id="linear-gradient-5" x1="102.55" y1="7.51" x2="117.04" y2="7.51" xlink:href="#linear-gradient"/></defs><g id="Layer_2" data-name="Layer 2"><g id="SERVICES"><g id="BRANDING"><path class="cls-1" d="M71.81,119.87H47.3a4.65,4.65,0,0,1-4.65-4.65V104.31a4.65,4.65,0,0,1,4.65-4.65H71.81a4.66,4.66,0,0,1,4.65,4.65v10.91A4.66,4.66,0,0,1,71.81,119.87ZM48,114.52H71.11V105H48Z"/><path class="cls-1" d="M73.37,105H45.74a7.38,7.38,0,1,1,0-14.75H73.37a7.38,7.38,0,1,1,0,14.75Zm-27.63-9.4a2,2,0,1,0,0,4H73.37a2,2,0,1,0,0-4Z"/><path class="cls-1" d="M73.37,95.61H45.74a2.66,2.66,0,0,1-2.52-1.78L34.64,69.75a2.65,2.65,0,0,1,.19-2.2l22.39-40a2.67,2.67,0,0,1,2.33-1.37h0a2.66,2.66,0,0,1,2.33,1.38L84.29,68a2.65,2.65,0,0,1,.17,2.2L75.89,93.85A2.67,2.67,0,0,1,73.37,95.61ZM47.62,90.26H71.5L79,69.51,59.54,34.38,40.09,69.1Z"/><path class="cls-1" d="M59.56,66.93a2.68,2.68,0,0,1-2.68-2.68V28.89a2.68,2.68,0,1,1,5.35,0V64.25A2.68,2.68,0,0,1,59.56,66.93Z"/><circle class="cls-1" cx="59.55" cy="70.37" r="7.08"/><path class="cls-1" d="M112,61.83a2.67,2.67,0,0,1-2.67-2.67,47.88,47.88,0,0,0-3.95-19.11A49.39,49.39,0,0,0,94.63,24.43,50.18,50.18,0,0,0,78.79,13.89a49.83,49.83,0,0,0-38.46,0A50.11,50.11,0,0,0,24.48,24.43,49.36,49.36,0,0,0,13.75,40.05,47.71,47.71,0,0,0,9.8,59.16a2.68,2.68,0,0,1-5.36,0A53.21,53.21,0,0,1,8.83,37.93a54.75,54.75,0,0,1,11.9-17.31A55.51,55.51,0,0,1,38.26,9,55.12,55.12,0,0,1,80.85,9,55.51,55.51,0,0,1,98.38,20.62a54.59,54.59,0,0,1,11.9,17.31,53.21,53.21,0,0,1,4.39,21.23A2.68,2.68,0,0,1,112,61.83Z"/><path class="cls-1" d="M109.79,10.18H9.32a2.68,2.68,0,1,1,0-5.35H109.79a2.68,2.68,0,1,1,0,5.35Z"/><path class="cls-2" d="M12.34,65.32H2.68A2.68,2.68,0,0,1,0,62.64V53A2.68,2.68,0,0,1,2.68,50.3h9.66A2.68,2.68,0,0,1,15,53v9.66A2.68,2.68,0,0,1,12.34,65.32Z"/><path class="cls-3" d="M116.44,65.32h-9.67a2.67,2.67,0,0,1-2.67-2.68V53a2.67,2.67,0,0,1,2.67-2.68h9.67A2.68,2.68,0,0,1,119.11,53v9.66A2.68,2.68,0,0,1,116.44,65.32Z"/><path class="cls-4" d="M64.39,15H54.72a2.68,2.68,0,0,1-2.67-2.68V2.68A2.68,2.68,0,0,1,54.72,0h9.67a2.67,2.67,0,0,1,2.67,2.68v9.66A2.67,2.67,0,0,1,64.39,15Z"/><circle class="cls-5" cx="10.53" cy="7.51" r="7.24"/><circle class="cls-6" cx="109.79" cy="7.51" r="7.24"/></g></g></g></svg>