<svg xmlns="http://www.w3.org/2000/svg" xmlns:xlink="http://www.w3.org/1999/xlink" viewBox="0 0 119.87 96.63"><defs><style>.cls-1{fill:url(#linear-gradient);}.cls-2{fill:#fff;}.cls-3{fill:url(#linear-gradient-2);}.cls-4{fill:url(#linear-gradient-3);}</style><linearGradient id="linear-gradient" x1="44.31" y1="45.35" x2="75.55" y2="45.35" gradientUnits="userSpaceOnUse"><stop offset="0" stop-color="#fcdc00"/><stop offset="0.1" stop-color="#fbc519"/><stop offset="0.32" stop-color="#fa954e"/><stop offset="0.53" stop-color="#f96e79"/><stop offset="0.72" stop-color="#f95397"/><stop offset="0.88" stop-color="#f842a9"/><stop offset="0.99" stop-color="#f83cb0"/><stop offset="1" stop-color="#f83cb0"/></linearGradient><linearGradient id="linear-gradient-2" x1="9.85" y1="50.78" x2="36.86" y2="50.78" xlink:href="#linear-gradient"/><linearGradient id="linear-gradient-3" x1="80.88" y1="50.78" x2="107.9" y2="50.78" xlink:href="#linear-gradient"/></defs><g id="Layer_2" data-name="Layer 2"><g id="SERVICES"><g id="COMMUNITY_MANAGEMENT" data-name="COMMUNITY MANAGEMENT"><circle class="cls-1" cx="59.93" cy="45.35" r="15.62"/><path class="cls-2" d="M46.62,70.57H73.25A14.81,14.81,0,0,1,88.06,85.38V96.63a0,0,0,0,1,0,0H31.81a0,0,0,0,1,0,0V85.38A14.81,14.81,0,0,1,46.62,70.57Z"/><circle class="cls-3" cx="23.35" cy="50.78" r="13.51"/><path class="cls-2" d="M34,69.81a20,20,0,0,0-7.44,15.57v7H0V82.62A12.81,12.81,0,0,1,12.81,69.81Z"/><circle class="cls-4" cx="94.39" cy="50.78" r="13.51"/><path class="cls-2" d="M119.87,82.62v9.73H93.28v-7a20,20,0,0,0-7.44-15.57h21.22A12.8,12.8,0,0,1,119.87,82.62Z"/><path class="cls-2" d="M62.27,2.61a3.47,3.47,0,0,0-.1-.71A2.41,2.41,0,0,0,60,0a2.8,2.8,0,0,0-.87,0C58,.3,57.58,1.31,57.58,2.47c0,3.77,0,7.54,0,11.32,0,1.68,1,2.75,2.36,2.74s2.31-1,2.32-2.76C62.29,10.05,62.31,6.33,62.27,2.61Z"/><path class="cls-2" d="M86.16,8.22a3.1,3.1,0,0,0,.32-.63,2.41,2.41,0,0,0-.71-2.76A2.81,2.81,0,0,0,85,4.37c-1.11-.46-2,.16-2.66,1.12-2.11,3.12-4.24,6.23-6.33,9.37-.94,1.41-.74,2.82.42,3.6s2.48.45,3.47-1C82,14.4,84.12,11.33,86.16,8.22Z"/><path class="cls-2" d="M33.7,8.22a3.69,3.69,0,0,1-.31-.63,2.41,2.41,0,0,1,.71-2.76,2.81,2.81,0,0,1,.75-.46c1.11-.46,2,.16,2.66,1.12,2.11,3.12,4.24,6.23,6.33,9.37.94,1.41.74,2.82-.42,3.6s-2.48.45-3.47-1C37.85,14.4,35.75,11.33,33.7,8.22Z"/><path class="cls-2" d="M13.11,23.39a2.93,2.93,0,0,1-.52-.48,2.43,2.43,0,0,1-.3-2.84,3.12,3.12,0,0,1,.54-.69c.88-.81,1.94-.55,2.88.12,3.07,2.19,6.16,4.36,9.22,6.57,1.37,1,1.68,2.38.86,3.51s-2.17,1.3-3.6.29C19.15,27.73,16.11,25.59,13.11,23.39Z"/><path class="cls-2" d="M106.76,23.39a2.93,2.93,0,0,0,.52-.48,2.45,2.45,0,0,0,.3-2.84,3.12,3.12,0,0,0-.54-.69c-.88-.81-1.94-.55-2.88.12-3.07,2.19-6.16,4.36-9.22,6.57-1.37,1-1.68,2.38-.86,3.51s2.17,1.3,3.6.29C100.72,27.73,103.76,25.59,106.76,23.39Z"/></g></g></g></svg>