<svg xmlns="http://www.w3.org/2000/svg" xmlns:xlink="http://www.w3.org/1999/xlink" viewBox="0 0 120.11 119.87"><defs><style>.cls-1{fill:#fff;}.cls-2{fill:url(#linear-gradient);}</style><linearGradient id="linear-gradient" x1="33.29" y1="65" x2="86.86" y2="65" gradientUnits="userSpaceOnUse"><stop offset="0" stop-color="#fcdc00"/><stop offset="0.1" stop-color="#fbc519"/><stop offset="0.32" stop-color="#fa954e"/><stop offset="0.53" stop-color="#f96e79"/><stop offset="0.72" stop-color="#f95397"/><stop offset="0.88" stop-color="#f842a9"/><stop offset="0.99" stop-color="#f83cb0"/><stop offset="1" stop-color="#f83cb0"/></linearGradient></defs><g id="Layer_2" data-name="Layer 2"><g id="SERVICES"><g id="DIGITAL_STRATEGY" data-name="DIGITAL STRATEGY"><path class="cls-1" d="M60.11,99.26c3.12,0,6.25,0,9.38,0,1.85,0,3,1,3,2.52s-1.09,2.58-2.93,2.58q-9.55,0-19.11,0a2.5,2.5,0,0,1-2.82-2.51c0-1.55,1.09-2.56,2.93-2.58C53.74,99.24,56.92,99.26,60.11,99.26Z"/><path class="cls-1" d="M59.92,112.11c-3.07,0-6.14,0-9.21,0-2,0-3.1-1-3.08-2.61s1.1-2.51,3-2.52q9.48,0,18.94,0c1.85,0,3,1.06,2.92,2.61s-1.13,2.5-3,2.52C66.29,112.12,63.11,112.11,59.92,112.11Z"/><path class="cls-1" d="M92.21,31.39a2.72,2.72,0,0,1-2.7-.4,2.07,2.07,0,0,1-.66-.8,3.21,3.21,0,0,1,.25-2.75c3.22-3.44,6.58-6.78,10-10a2.33,2.33,0,0,1,3.38.17,2.34,2.34,0,0,1,.24,3.5c-3.27,3.41-6.64,6.72-10,10A1.45,1.45,0,0,1,92.21,31.39Z"/><path class="cls-1" d="M17.78,17.65A2.74,2.74,0,0,1,21,17.44a3.91,3.91,0,0,1,.63.49c3,2.93,6,5.91,8.9,8.89,1.38,1.4,1.48,2.9.35,4.05s-2.71,1-4.07-.3c-3-3-6-6-9-9-.92-.92-1.41-2-.67-3.18A3.5,3.5,0,0,1,17.78,17.65Z"/><path class="cls-1" d="M30.78,89.41a2.72,2.72,0,0,1,.27,3.25,3.19,3.19,0,0,1-.47.61c-3,3-6,6-9,9-1.29,1.27-2.84,1.35-3.94.31s-1.14-2.68.21-4.06c3-3,6-6,9-9,.92-.92,2-1.41,3.19-.74A3.35,3.35,0,0,1,30.78,89.41Z"/><path class="cls-1" d="M89.19,89.48a2.83,2.83,0,0,1,3.69-.24,1.21,1.21,0,0,1,.24.21q4.69,4.58,9.28,9.26a2.58,2.58,0,0,1,.17,3.8,2.63,2.63,0,0,1-3.93-.12c-3.12-3.06-6.26-6.1-9.22-9.31a3.66,3.66,0,0,1-.6-3A1.39,1.39,0,0,1,89.19,89.48Z"/><path class="cls-1" d="M62.69,9.48c0,2.12,0,4.25,0,6.37,0,1.83-1.06,2.93-2.62,2.94a2.64,2.64,0,0,1-2.65-2.91q-.06-6.47,0-12.93A2.67,2.67,0,0,1,60,0c1.53,0,2.6,1.11,2.65,2.92C62.73,5.11,62.69,7.29,62.69,9.48Z"/><path class="cls-1" d="M110.6,62.73c-2.12,0-4.24,0-6.35,0a2.67,2.67,0,1,1-.18-5.32c4.52-.07,9.05,0,13.57.08a2.48,2.48,0,0,1,2.47,2.69,2.55,2.55,0,0,1-2.64,2.54c-2.28.07-4.58,0-6.87,0Z"/><path class="cls-1" d="M9.33,62.73c-2.12,0-4.25,0-6.37,0-1.83,0-2.94-1-3-2.61a2.71,2.71,0,0,1,2.86-2.75c4.3,0,8.61,0,12.92.08,2.21,0,3.36,1.49,2.87,3.29a2.58,2.58,0,0,1-2.78,2Q12.6,62.75,9.33,62.73Z"/><path class="cls-1" d="M50.32,114.75H69.69a4.74,4.74,0,0,1-4.71,5c-3.3.11-6.61.1-9.91,0C52.32,119.69,50.5,117.69,50.32,114.75Z"/><path class="cls-2" d="M86.58,56.53A26.75,26.75,0,1,0,38.22,75.46c1.18,1.69,2.42,3.35,3.66,5C45,84.56,47.12,89,47.5,94.21c.13,1.77,1.09,2.48,2.79,2.47,3.25,0,6.5,0,9.76,0h0c3.19,0,6.38,0,9.57,0,2.16,0,2.78-.5,3-2.63a26,26,0,0,1,5.19-13c1.67-2.29,3.4-4.55,4.94-6.92A24.92,24.92,0,0,0,86.58,56.53Zm-27-13.05c-9.48.81-15.56,6.91-16.22,16.26-.1,1.41-.52,2.45-2.15,2.42-1.43,0-2.13-1.12-2-3.11A21,21,0,0,1,59.4,39.18c1.7,0,2.79.73,2.76,2C62.12,42.87,61,43.36,59.56,43.48Z"/></g></g></g></svg>