<svg xmlns="http://www.w3.org/2000/svg" xmlns:xlink="http://www.w3.org/1999/xlink" viewBox="0 0 105.78 105.78"><defs><style>.cls-1{fill:url(#linear-gradient);}.cls-2{fill:#fff;}</style><linearGradient id="linear-gradient" x1="38.75" y1="52.89" x2="67.03" y2="52.89" gradientUnits="userSpaceOnUse"><stop offset="0" stop-color="#fcdc00"/><stop offset="0.1" stop-color="#fbc519"/><stop offset="0.32" stop-color="#fa954e"/><stop offset="0.53" stop-color="#f96e79"/><stop offset="0.72" stop-color="#f95397"/><stop offset="0.88" stop-color="#f842a9"/><stop offset="0.99" stop-color="#f83cb0"/><stop offset="1" stop-color="#f83cb0"/></linearGradient></defs><g id="Layer_2" data-name="Layer 2"><g id="SERVICES"><g id="INFLUENCER_MANAGEMENT" data-name="INFLUENCER MANAGEMENT"><path class="cls-1" d="M60,56.51l6.69-5.79a1,1,0,0,0,.3-1.09,1,1,0,0,0-.88-.7l-8.82-.76L53.83,40A1,1,0,0,0,52,40l-3.44,8.15-8.82.76a1,1,0,0,0-.89.7,1,1,0,0,0,.31,1.09l6.69,5.79-2,8.62a1,1,0,0,0,1,1.26,1,1,0,0,0,.53-.15l7.58-4.57,7.58,4.57a1,1,0,0,0,.53.15h0a1,1,0,0,0,1-1,1.55,1.55,0,0,0,0-.31Z"/><path id="INFLUENCER_MANAGEMENT-2" data-name="INFLUENCER MANAGEMENT" class="cls-2" d="M52.89,0a52.89,52.89,0,1,0,52.89,52.89A52.89,52.89,0,0,0,52.89,0ZM83.54,48.6,70.37,61.44l3.11,18.13a3,3,0,0,1-4.31,3.13L52.89,74.14,36.61,82.7a3,3,0,0,1-4.31-3.13l3.11-18.13L22.24,48.6a3,3,0,0,1,1.64-5.07l18.21-2.64,8.14-16.5a3,3,0,0,1,5.32,0l8.14,16.5L81.9,43.53A3,3,0,0,1,83.54,48.6Z"/></g></g></g></svg>