<svg xmlns="http://www.w3.org/2000/svg" xmlns:xlink="http://www.w3.org/1999/xlink" viewBox="0 0 119.87 91.5"><defs><style>.cls-1{fill:#fff;}.cls-2{fill:url(#linear-gradient);}</style><linearGradient id="linear-gradient" x1="37.49" y1="51.22" x2="82.55" y2="51.22" gradientUnits="userSpaceOnUse"><stop offset="0" stop-color="#fcdc00"/><stop offset="0.1" stop-color="#fbc519"/><stop offset="0.32" stop-color="#fa954e"/><stop offset="0.53" stop-color="#f96e79"/><stop offset="0.72" stop-color="#f95397"/><stop offset="0.88" stop-color="#f842a9"/><stop offset="0.99" stop-color="#f83cb0"/><stop offset="1" stop-color="#f83cb0"/></linearGradient></defs><g id="Layer_2" data-name="Layer 2"><g id="SERVICES"><g id="PHOTOGRAPHY"><path class="cls-1" d="M111.26,11.37h-.12V5.51A3.19,3.19,0,0,0,108,2.32H94.33a3.19,3.19,0,0,0-3.19,3.19v5.86H87A12.15,12.15,0,0,0,74.93,0h-30A12.15,12.15,0,0,0,32.85,11.37H8.61A8.63,8.63,0,0,0,0,20V82.89A8.64,8.64,0,0,0,8.61,91.5H111.26a8.64,8.64,0,0,0,8.61-8.61V20A8.63,8.63,0,0,0,111.26,11.37ZM95.13,6.31h12v5.06h-12Zm-68.43,23a1.09,1.09,0,0,1-1.09,1.09H11.77a1.09,1.09,0,0,1-1.09-1.09V22a1.09,1.09,0,0,1,1.09-1.08H25.61A1.09,1.09,0,0,1,26.7,22ZM60,82A30.73,30.73,0,1,1,90.75,51.22,30.77,30.77,0,0,1,60,82Z"/><path class="cls-2" d="M60,28.69A22.53,22.53,0,1,0,82.55,51.22,22.55,22.55,0,0,0,60,28.69Z"/></g></g></g></svg>