<svg xmlns="http://www.w3.org/2000/svg" xmlns:xlink="http://www.w3.org/1999/xlink" viewBox="0 0 119.87 114.41"><defs><style>.cls-1{fill:#fff;}.cls-2{fill:url(#linear-gradient);}</style><linearGradient id="linear-gradient" x1="31.98" y1="28.08" x2="90.82" y2="28.08" gradientUnits="userSpaceOnUse"><stop offset="0" stop-color="#fcdc00"/><stop offset="0.1" stop-color="#fbc519"/><stop offset="0.32" stop-color="#fa954e"/><stop offset="0.53" stop-color="#f96e79"/><stop offset="0.72" stop-color="#f95397"/><stop offset="0.88" stop-color="#f842a9"/><stop offset="0.99" stop-color="#f83cb0"/><stop offset="1" stop-color="#f83cb0"/></linearGradient></defs><g id="Layer_2" data-name="Layer 2"><g id="SERVICES"><g id="REPUTATION_MANAGEMENT" data-name="REPUTATION MANAGEMENT"><path class="cls-1" d="M108.83,73.12a8.46,8.46,0,0,0-11.71-2.34L86.93,77.6a2.1,2.1,0,0,0,2.32,3.49l10.19-6.83a4.27,4.27,0,0,1,4.73,7.1L73.45,101.87a4.32,4.32,0,0,1-2.91.68L41,94.08l-.23,0a8.36,8.36,0,0,0-6.21,1.28l-1.76,1.17L21.36,79.4l13.69-9.18a9.1,9.1,0,0,1,6.71-1.38L73.63,79.06h0a4.26,4.26,0,0,1,2.82,5.23,4.1,4.1,0,0,1-2,2.46,4.32,4.32,0,0,1-3.27.31H71.1L55.54,82.92a2.1,2.1,0,0,0-1.08,4L70,91.09h0a8.44,8.44,0,0,0,6.35-.64,8.28,8.28,0,0,0,4.09-5,8.45,8.45,0,0,0-5.55-10.42h0L43.09,64.87a1.65,1.65,0,0,0-.36-.11,13.23,13.23,0,0,0-10,2L19,75.92,17.83,74.1a2.11,2.11,0,0,0-2.91-.58l-14,9.33a2.09,2.09,0,0,0-.58,2.9l11.42,17.13a2.1,2.1,0,0,0,3.49-2.32L5,85.17l10.5-7,16.16,24.25-10.5,7-.51-.76A2.09,2.09,0,1,0,17.17,111l1.67,2.49a2.09,2.09,0,0,0,2.9.59l14-9.33a2.09,2.09,0,0,0,.58-2.9L35.07,100l1.76-1.18a4.3,4.3,0,0,1,3.06-.66l29.64,8.49h0l.12,0,.1,0h0a8.47,8.47,0,0,0,3.81-.28,8.34,8.34,0,0,0,2.17-1l30.72-20.51A8.45,8.45,0,0,0,108.83,73.12Z"/><path class="cls-2" d="M76.17,35.62,90.09,23.56a2.12,2.12,0,0,0-1.21-3.72L70.53,18.26l-7.17-17a2.14,2.14,0,0,0-2-1.3,2.11,2.11,0,0,0-1.95,1.3l-7.17,17L33.92,19.84a2.13,2.13,0,0,0-1.21,3.72L46.64,35.62,42.46,53.56a2.13,2.13,0,0,0,2.07,2.61,2.08,2.08,0,0,0,1.1-.31L61.4,46.35l15.78,9.51a2,2,0,0,0,1.09.31h0A2.12,2.12,0,0,0,80.4,54a1.87,1.87,0,0,0-.1-.62Z"/><path class="cls-1" d="M111.44,46.62l8-6.94a1.22,1.22,0,0,0,.36-1.3,1.24,1.24,0,0,0-1.06-.84l-10.56-.9-4.12-9.76a1.22,1.22,0,0,0-2.25,0L97.7,36.64l-10.56.9a1.24,1.24,0,0,0-1.06.84,1.22,1.22,0,0,0,.36,1.3l8,6.94-2.4,10.32a1.24,1.24,0,0,0,.47,1.27,1.28,1.28,0,0,0,.72.23,1.27,1.27,0,0,0,.63-.17L103,52.79,112,58.27a1.27,1.27,0,0,0,.63.17h0a1.22,1.22,0,0,0,1.22-1.22,1.36,1.36,0,0,0-.05-.36Z"/><path class="cls-1" d="M28.35,46.62l8-6.94a1.22,1.22,0,0,0,.36-1.3,1.24,1.24,0,0,0-1.06-.84l-10.55-.9L21,26.88a1.22,1.22,0,0,0-1.12-.75,1.24,1.24,0,0,0-1.13.75l-4.12,9.76-10.56.9A1.24,1.24,0,0,0,3,38.38a1.22,1.22,0,0,0,.36,1.3l8,6.94L9,56.94a1.24,1.24,0,0,0,.47,1.27,1.28,1.28,0,0,0,.72.23,1.27,1.27,0,0,0,.63-.17l9.08-5.48,9.07,5.48a1.29,1.29,0,0,0,.63.17h0a1.22,1.22,0,0,0,1.22-1.22,1,1,0,0,0-.05-.36Z"/></g></g></g></svg>