<svg xmlns="http://www.w3.org/2000/svg" xmlns:xlink="http://www.w3.org/1999/xlink" viewBox="0 0 119.87 97.56"><defs><style>.cls-1{fill:#fff;}.cls-2{fill:url(#linear-gradient);}.cls-3{fill:url(#linear-gradient-2);}.cls-4{fill:url(#linear-gradient-3);}</style><linearGradient id="linear-gradient" x1="95.45" y1="25.78" x2="116.33" y2="25.78" gradientUnits="userSpaceOnUse"><stop offset="0" stop-color="#fcdc00"/><stop offset="0.1" stop-color="#fbc519"/><stop offset="0.32" stop-color="#fa954e"/><stop offset="0.53" stop-color="#f96e79"/><stop offset="0.72" stop-color="#f95397"/><stop offset="0.88" stop-color="#f842a9"/><stop offset="0.99" stop-color="#f83cb0"/><stop offset="1" stop-color="#f83cb0"/></linearGradient><linearGradient id="linear-gradient-2" x1="84.89" y1="9.99" x2="99.18" y2="9.99" xlink:href="#linear-gradient"/><linearGradient id="linear-gradient-3" x1="97.91" y1="46.68" x2="119.87" y2="46.68" xlink:href="#linear-gradient"/></defs><g id="Layer_2" data-name="Layer 2"><g id="SERVICES"><g id="SEM"><path class="cls-1" d="M5.13,60.06h9.14a0,0,0,0,1,0,0V81.22a0,0,0,0,1,0,0H5.13a1.79,1.79,0,0,1-1.79-1.79V61.85A1.79,1.79,0,0,1,5.13,60.06Z" transform="translate(-28.79 10.19) rotate(-24.77)"/><path class="cls-1" d="M11,45.1H56.61a0,0,0,0,1,0,0V73.93a0,0,0,0,1,0,0H11a1.79,1.79,0,0,1-1.79-1.79V46.89A1.79,1.79,0,0,1,11,45.1Z" transform="translate(-21.91 19.27) rotate(-24.77)"/><path class="cls-1" d="M86.59,67.38,39.42,70,29.17,47.78,61.75,13.56a2.55,2.55,0,0,1,4.16.69L88.76,63.77A2.55,2.55,0,0,1,86.59,67.38Z"/><circle class="cls-1" cx="77.33" cy="39.01" r="8.38"/><path class="cls-1" d="M20.17,80.06l19.08,16.7a3,3,0,0,0,3.34.52L54.1,92a3.15,3.15,0,0,0,.65-5.31L36.61,72.48Z"/><path class="cls-2" d="M100.38,31.82a4.84,4.84,0,0,1-.91.28A3.25,3.25,0,0,1,96,30.55a3.6,3.6,0,0,1-.45-1.08c-.36-1.57.65-2.63,2-3.27,4.59-2.12,9.17-4.27,13.78-6.35,2.06-.94,3.89-.37,4.66,1.33s.06,3.39-2.06,4.38C109.45,27.67,104.93,29.78,100.38,31.82Z"/><path class="cls-3" d="M91.06,18.16a4.14,4.14,0,0,1-.58.76,3.25,3.25,0,0,1-3.74.77,4.21,4.21,0,0,1-1-.62c-1.2-1.08-1-2.52-.22-3.87,2.52-4.38,5-8.78,7.55-13.15C94.21.09,96-.5,97.64.44s2,2.72.87,4.75C96.05,9.53,93.59,13.87,91.06,18.16Z"/><path class="cls-4" d="M115.73,51.16a5,5,0,0,0,1,.05,3.26,3.26,0,0,0,3-2.35,4,4,0,0,0,.17-1.16c0-1.62-1.27-2.39-2.8-2.68-5-.93-9.93-1.89-14.9-2.79-2.23-.4-3.87.6-4.2,2.43s.77,3.3,3.06,3.75C105.93,49.36,110.82,50.29,115.73,51.16Z"/></g></g></g></svg>