<svg xmlns="http://www.w3.org/2000/svg" xmlns:xlink="http://www.w3.org/1999/xlink" viewBox="0 0 102.72 119.87"><defs><style>.cls-1{fill:#fff;}.cls-2{fill:url(#linear-gradient);}</style><linearGradient id="linear-gradient" x1="15" y1="43.86" x2="102.72" y2="43.86" gradientUnits="userSpaceOnUse"><stop offset="0" stop-color="#fcdc00"/><stop offset="0.1" stop-color="#fbc519"/><stop offset="0.32" stop-color="#fa954e"/><stop offset="0.53" stop-color="#f96e79"/><stop offset="0.72" stop-color="#f95397"/><stop offset="0.88" stop-color="#f842a9"/><stop offset="0.99" stop-color="#f83cb0"/><stop offset="1" stop-color="#f83cb0"/></linearGradient></defs><g id="Layer_2" data-name="Layer 2"><g id="SERVICES"><g id="SEO"><path class="cls-1" d="M51.2,73.09,42.72,84.62,20.11,115.34A11.14,11.14,0,1,1,2.17,102.12l22.58-30.7,8.49-11.54a30.18,30.18,0,0,0,18,13.21Z"/><path class="cls-2" d="M84.85,8.54a43.84,43.84,0,1,0,9.34,61.31A43.86,43.86,0,0,0,84.85,8.54ZM83.2,61.77a30.2,30.2,0,0,1-32,11.32,30.18,30.18,0,0,1-18-13.21,30.22,30.22,0,1,1,50,1.89Z"/><path class="cls-1" d="M43.77,58.84a1.36,1.36,0,0,1-1.17-2.07l9-15a1.37,1.37,0,0,1,2.23-.18l6.93,8.21L71.57,29.65A1.37,1.37,0,1,1,74,31L62.2,52.85a1.35,1.35,0,0,1-1.07.71A1.34,1.34,0,0,1,60,53.08L53,44.8,45,58.18A1.36,1.36,0,0,1,43.77,58.84Z"/><path class="cls-1" d="M74.74,41.28a1.38,1.38,0,0,1-1.34-1.09l-1.63-8-8.43,3.55a1.37,1.37,0,0,1-1.06-2.53l10-4.19a1.37,1.37,0,0,1,1.17.05,1.35,1.35,0,0,1,.7.94l2,9.61A1.37,1.37,0,0,1,75,41.25,1.33,1.33,0,0,1,74.74,41.28Z"/></g></g></g></svg>