<svg xmlns="http://www.w3.org/2000/svg" xmlns:xlink="http://www.w3.org/1999/xlink" viewBox="0 0 127.59 118.56"><defs><style>.cls-1{fill:#fff;}.cls-2{fill:url(#linear-gradient);}</style><linearGradient id="linear-gradient" x1="43.18" y1="81.37" x2="65.54" y2="81.37" gradientUnits="userSpaceOnUse"><stop offset="0" stop-color="#fcdc00"/><stop offset="0.1" stop-color="#fbc519"/><stop offset="0.32" stop-color="#fa954e"/><stop offset="0.53" stop-color="#f96e79"/><stop offset="0.72" stop-color="#f95397"/><stop offset="0.88" stop-color="#f842a9"/><stop offset="0.99" stop-color="#f83cb0"/><stop offset="1" stop-color="#f83cb0"/></linearGradient></defs><g id="Layer_2" data-name="Layer 2"><g id="SERVICES"><g id="VIDEO_PRODUCTION" data-name="VIDEO PRODUCTION"><path class="cls-1" d="M30,0A22.28,22.28,0,1,0,52.25,22.28,22.29,22.29,0,0,0,30,0Zm0,32.74A10.46,10.46,0,1,1,40.43,22.28,10.46,10.46,0,0,1,30,32.74Z"/><path class="cls-1" d="M74.53,0A22.28,22.28,0,1,0,96.81,22.28,22.28,22.28,0,0,0,74.53,0Zm0,32.74A10.46,10.46,0,1,1,85,22.28,10.46,10.46,0,0,1,74.53,32.74Z"/><path class="cls-1" d="M101.17,44.45H3.31A3.31,3.31,0,0,0,0,47.76v67.49a3.31,3.31,0,0,0,3.31,3.31h97.86a3.31,3.31,0,0,0,3.31-3.31V47.76A3.31,3.31,0,0,0,101.17,44.45ZM52.24,107.06A25.56,25.56,0,1,1,77.8,81.5,25.56,25.56,0,0,1,52.24,107.06Z"/><path class="cls-2" d="M43.18,68.59V94.14a1.63,1.63,0,0,0,2.53,1.36L64.8,82.9a1.63,1.63,0,0,0,0-2.71l-19.09-13A1.64,1.64,0,0,0,43.18,68.59Z"/><path class="cls-1" d="M101.18,105.82l23.31,6.48a2.45,2.45,0,0,0,3.1-2.36V53.07a2.45,2.45,0,0,0-3.1-2.36l-23.31,6.48Z"/></g></g></g></svg>