<?xml version="1.0" encoding="UTF-8"?>
<svg id="Layer_2" data-name="Layer 2" xmlns="http://www.w3.org/2000/svg" viewBox="0 0 181.02 181.22">
  <defs>
    <style>
      .cls-1 {
        fill: none;
        stroke: #fff;
        stroke-miterlimit: 10;
        stroke-width: 2.33px;
      }

      .cls-2 {
        fill: #fff;
      }

      .cls-3 {
        fill: #171726;
      }

      .cls-4 {
        fill: #1f1c2f;
      }
    </style>
  </defs>
  <g id="DIGITAL_STRATEGY" data-name="DIGITAL STRATEGY">
    <g>
      <g>
        <path class="cls-4" d="M181.02,21.4V90.61H0V21.4C0,9.58,9.59,0,21.41,0H159.62c11.82,0,21.4,9.58,21.4,21.4Z"/>
        <path class="cls-3" d="M0,159.82V90.61H181.02v69.21c0,11.82-9.59,21.4-21.41,21.4H21.4c-11.82,0-21.4-9.58-21.4-21.4Z"/>
      </g>
      <rect class="cls-1" x="20.55" y="20.55" width="140.11" height="140.11" rx="16.5" ry="16.5"/>
      <g>
        <g>
          <path class="cls-2" d="M103.23,87.2c-.4,0-.77-.16-1.04-.45-.54-.57-.51-1.48,.06-2.01l19.72-18.57c.27-.25,.61-.39,.98-.39,.39,0,.77,.16,1.04,.45,.26,.28,.4,.64,.39,1.02-.01,.38-.17,.73-.45,1l-19.72,18.57c-.27,.25-.61,.39-.98,.39Z"/>
          <path class="cls-2" d="M96.04,88.32c-.26,0-.52-.07-.74-.21l-17.05-10.41c-.67-.41-.88-1.29-.47-1.96,.26-.43,.72-.68,1.22-.68,.26,0,.52,.07,.74,.21l17.05,10.41c.67,.41,.88,1.29,.47,1.96-.26,.43-.72,.68-1.22,.68Z"/>
          <path class="cls-2" d="M55.92,95.16c-.37,0-.72-.14-.99-.4-.56-.55-.58-1.45-.03-2.02l16.34-16.83c.27-.28,.63-.43,1.02-.43s.72,.14,.99,.4c.27,.26,.43,.62,.43,1,0,.38-.14,.74-.4,1.01l-16.34,16.83c-.27,.28-.63,.43-1.02,.43Z"/>
          <path class="cls-2" d="M52.68,102.29c-1.5-.07-2.88-.71-3.89-1.82-1.01-1.11-1.53-2.54-1.46-4.04,.07-1.5,.71-2.88,1.82-3.89,1.04-.95,2.38-1.47,3.79-1.47,1.75,.07,3.14,.72,4.15,1.83,1.01,1.11,1.53,2.54,1.46,4.04-.07,1.5-.72,2.88-1.82,3.89-1.04,.95-2.38,1.47-3.78,1.47h-.26Zm.25-8.38c-.69,0-1.35,.26-1.86,.73-.55,.5-.86,1.18-.9,1.92-.03,.74,.23,1.45,.72,1.99,.5,.55,1.18,.86,1.92,.9h0c1.61,0,2.81-1.16,2.88-2.64,.03-.74-.22-1.45-.72-1.99-.5-.55-1.18-.86-1.92-.9l-.13-.17v.16Z"/>
          <path class="cls-2" d="M74.97,79.56c-1.5-.07-2.88-.71-3.89-1.82-1.01-1.11-1.53-2.54-1.46-4.04,.07-1.5,.71-2.88,1.82-3.89,1.04-.95,2.38-1.47,3.79-1.47,1.75,.07,3.14,.72,4.15,1.83,1.01,1.11,1.53,2.54,1.46,4.04-.13,3.01-2.6,5.36-5.61,5.36h-.26Zm.25-8.38c-.69,0-1.35,.26-1.86,.72-.55,.5-.86,1.18-.9,1.92-.03,.74,.22,1.45,.72,1.99,.5,.55,1.18,.86,1.92,.9h0c1.6,0,2.81-1.16,2.88-2.64,.03-.74-.22-1.44-.72-1.99-.5-.55-1.18-.86-1.92-.9l-.13-.17v.16Z"/>
          <path class="cls-2" d="M99.88,94.72c-1.5-.07-2.88-.71-3.89-1.82-1.01-1.11-1.53-2.54-1.46-4.04,.07-1.5,.71-2.88,1.82-3.89,1.04-.95,2.38-1.47,3.79-1.47,1.75,.07,3.14,.72,4.15,1.83,1.01,1.11,1.53,2.54,1.46,4.04-.07,1.5-.71,2.88-1.82,3.89-1.04,.95-2.38,1.47-3.78,1.47h-.26Zm.25-8.38c-.69,0-1.35,.26-1.86,.73-.55,.5-.86,1.18-.9,1.92-.03,.74,.22,1.44,.72,1.99,.5,.55,1.18,.86,1.92,.9h.01c.81,0,1.47-.26,1.98-.72,.55-.5,.86-1.18,.9-1.92,.03-.74-.22-1.44-.72-1.99-.5-.55-1.18-.86-1.92-.9l-.13-.17v.16Z"/>
          <path class="cls-2" d="M125.83,69.48c-1.5-.07-2.88-.71-3.89-1.82-1.01-1.11-1.53-2.54-1.46-4.04,.07-1.5,.72-2.88,1.82-3.89,1.04-.95,2.38-1.47,3.79-1.47,1.75,.07,3.14,.72,4.15,1.83,1.01,1.11,1.53,2.54,1.46,4.04-.07,1.5-.72,2.88-1.82,3.89-1.04,.95-2.38,1.47-3.78,1.47h-.26Zm.25-8.38c-.69,0-1.35,.26-1.86,.73-.55,.5-.86,1.18-.9,1.92-.03,.74,.22,1.45,.72,1.99,.5,.55,1.18,.86,1.92,.9h.01c.81,0,1.47-.26,1.98-.72,.55-.5,.86-1.18,.9-1.92,.03-.74-.23-1.45-.72-1.99-.5-.55-1.18-.86-1.92-.9l-.13-.17v.16Z"/>
        </g>
        <g>
          <path class="cls-2" d="M87.3,109.53c-14.95,0-27.11-12.16-27.11-27.11s12.16-27.11,27.11-27.11,27.11,12.16,27.11,27.11-12.16,27.11-27.11,27.11Zm0-51.38c-13.38,0-24.26,10.88-24.26,24.26s10.88,24.26,24.26,24.26,24.26-10.88,24.26-24.26-10.88-24.26-24.26-24.26Z"/>
          <path class="cls-2" d="M124.08,124.51c-1.4,0-2.72-.55-3.71-1.54l-18.85-18.85c-.56-.56-.56-1.46,0-2.01,.27-.27,.63-.42,1.01-.42s.74,.15,1.01,.42l18.85,18.85c.46,.46,1.07,.71,1.71,.71s1.25-.25,1.71-.71c.48-.48,.74-1.09,.74-1.74s-.25-1.25-.71-1.71l-18.03-18.03c-.56-.56-.56-1.46,0-2.01,.27-.27,.63-.42,1.01-.42s.74,.15,1.01,.42l18.03,18.03c1,1,1.54,2.32,1.54,3.73s-.55,2.73-1.54,3.72c-1.01,1.01-2.35,1.57-3.77,1.57Z"/>
        </g>
      </g>
    </g>
  </g>
</svg>