<?xml version="1.0" encoding="UTF-8"?>
<svg id="Layer_2" data-name="Layer 2" xmlns="http://www.w3.org/2000/svg" viewBox="0 0 181.02 181.22">
  <defs>
    <style>
      .cls-1 {
        fill: none;
        stroke: #fff;
        stroke-miterlimit: 10;
        stroke-width: 2.33px;
      }

      .cls-2 {
        fill: #fff;
      }

      .cls-3 {
        fill: #171726;
      }

      .cls-4 {
        fill: #1f1c2f;
      }
    </style>
  </defs>
  <g id="DIGITAL_STRATEGY" data-name="DIGITAL STRATEGY">
    <g>
      <g>
        <path class="cls-4" d="M181.02,21.4V90.61H0V21.4C0,9.58,9.59,0,21.41,0H159.62c11.82,0,21.4,9.58,21.4,21.4Z"/>
        <path class="cls-3" d="M0,159.82V90.61H181.02v69.21c0,11.82-9.59,21.4-21.41,21.4H21.4c-11.82,0-21.4-9.58-21.4-21.4Z"/>
      </g>
      <rect class="cls-1" x="20.55" y="20.55" width="140.11" height="140.11" rx="16.5" ry="16.5"/>
      <g>
        <g>
          <path class="cls-2" d="M90.61,81.03c-4.43,0-8.03-3.6-8.03-8.03s3.6-8.03,8.03-8.03,8.02,3.6,8.02,8.03-3.6,8.03-8.02,8.03Zm0-13.05c-2.77,0-5.02,2.25-5.02,5.02s2.25,5.02,5.02,5.02,5.02-2.25,5.02-5.02-2.25-5.02-5.02-5.02Z"/>
          <path class="cls-2" d="M84.74,120.56c-1.74,0-3.37-.78-4.47-2.14-.67,1.05-1.91,1.69-3.24,1.81-.18,.02-.36,.03-.53,.03-1.9,0-3.64-.97-4.66-2.58-.57-.9-.87-1.91-.87-2.94v-9.69c0-.83,.67-1.5,1.5-1.5s1.5,.67,1.5,1.5v9.69c0,.46,.14,.91,.4,1.33,.47,.74,1.26,1.18,2.12,1.18,1.51-.13,2.5-1.31,2.5-2.68,0-.83,.67-1.5,1.5-1.5s1.5,.67,1.5,1.5c0,1.76,1.23,2.99,2.74,2.99h11.73c1.51,0,2.73-1.23,2.73-2.73,0-1.07,.67-1.75,1.5-1.75,.83,0,1.5,.67,1.51,1.5,0,1.37,1,2.54,2.26,2.66h.04c1.08,0,1.85-.44,2.32-1.16,.27-.42,.41-.87,.41-1.34v-13.39c0-.83,.67-1.5,1.5-1.5s1.5,.67,1.5,1.5v13.39c0,1.03-.3,2.05-.87,2.95-1.02,1.61-2.76,2.57-4.65,2.57-.18,0-.35,0-.53-.03-1.33-.13-2.58-.77-3.51-1.81-.84,1.36-2.47,2.14-4.21,2.14h-11.73Z"/>
          <path class="cls-2" d="M104.24,88.89c-.82,0-1.5-.67-1.5-1.49-.04-.21-1.14-1.11-2.42-1.11h-19.43c-1.24,0-2.34,.89-2.38,1.12,0,.79-.67,1.46-1.5,1.46s-1.5-.68-1.5-1.51c0-2.3,2.9-4.08,5.39-4.08h19.43c2.51,0,5.42,1.8,5.42,4.11,0,.83-.67,1.5-1.5,1.5Z"/>
          <path class="cls-2" d="M80.51,115.67c-.83,0-1.5-.67-1.5-1.5v-16.13c0-.83,.67-1.5,1.5-1.5s1.5,.67,1.5,1.5v16.13c0,.83-.67,1.5-1.5,1.5Z"/>
          <path class="cls-2" d="M100.71,115.57c-.83,0-1.5-.67-1.5-1.5v-15.09c0-.83,.67-1.5,1.5-1.5s1.5,.67,1.5,1.5v15.09c0,.83-.67,1.5-1.5,1.5Z"/>
        </g>
        <g>
          <path class="cls-2" d="M56.76,91.15c-4.07,0-7.38-3.31-7.38-7.38s3.31-7.38,7.38-7.38,7.38,3.31,7.38,7.38-3.31,7.38-7.38,7.38Zm0-11.76c-2.41,0-4.37,1.96-4.37,4.38s1.96,4.37,4.37,4.37,4.37-1.96,4.37-4.37-1.96-4.38-4.37-4.38Z"/>
          <path class="cls-2" d="M45.29,120.56c-3.17,0-5.74-2.58-5.74-5.74v-13.48c0-.96,.17-1.92,.5-2.84,1.2-3.36,4.4-5.62,7.96-5.62h17.51c3.56,0,6.76,2.26,7.96,5.62,.33,.93,.5,1.88,.5,2.84v13.48c0,3.17-2.58,5.74-5.74,5.74h-22.95Zm2.72-24.67c-2.29,0-4.36,1.46-5.13,3.62-.21,.6-.32,1.22-.32,1.83v13.48c0,1.51,1.23,2.73,2.73,2.73h22.95c1.51,0,2.73-1.23,2.73-2.73v-13.48c0-.62-.11-1.23-.32-1.83-.78-2.17-2.84-3.62-5.13-3.62h-17.51Z"/>
          <path class="cls-2" d="M48.01,120.23c-.83,0-1.5-.67-1.5-1.5v-13.48c0-.83,.67-1.5,1.5-1.5s1.5,.67,1.5,1.5v13.48c0,.83-.67,1.5-1.5,1.5Z"/>
          <path class="cls-2" d="M65.52,120.24c-.83,0-1.5-.67-1.5-1.5v-13.49c0-.83,.67-1.5,1.5-1.5s1.5,.67,1.5,1.5v13.49c0,.83-.67,1.5-1.5,1.5Z"/>
        </g>
        <g>
          <path class="cls-2" d="M124.45,91.15c-4.07,0-7.38-3.31-7.38-7.38s3.31-7.38,7.38-7.38,7.38,3.31,7.38,7.38-3.31,7.38-7.38,7.38Zm0-11.76c-2.41,0-4.37,1.96-4.37,4.38s1.96,4.37,4.37,4.37,4.38-1.96,4.38-4.37-1.96-4.38-4.38-4.38Z"/>
          <path class="cls-2" d="M112.98,120.56c-3.17,0-5.74-2.58-5.74-5.74v-13.19c0-.83,.67-1.5,1.5-1.5s1.5,.67,1.5,1.5v13.19c0,1.51,1.23,2.73,2.73,2.73h22.95c1.51,0,2.73-1.23,2.73-2.73v-13.48c0-.62-.11-1.23-.32-1.83-.78-2.17-2.84-3.62-5.13-3.62h-17.51c-.74,0-1.45,.14-2.11,.43-.19,.08-.39,.12-.59,.12-.6,0-1.15-.36-1.38-.92-.16-.37-.16-.78,0-1.15,.15-.37,.44-.66,.81-.82,1.04-.44,2.15-.66,3.29-.66h17.51c3.56,0,6.76,2.26,7.96,5.62,.33,.92,.5,1.88,.5,2.84v13.48c0,3.17-2.58,5.74-5.74,5.74h-22.95Z"/>
          <path class="cls-2" d="M115.7,120.23c-.83,0-1.5-.67-1.5-1.5v-10.92c0-.83,.67-1.5,1.5-1.5s1.5,.67,1.5,1.5v10.92c0,.83-.67,1.5-1.5,1.5Z"/>
          <path class="cls-2" d="M133.21,120.24c-.83,0-1.5-.67-1.5-1.5v-13.49c0-.83,.67-1.5,1.5-1.5s1.5,.67,1.5,1.5v13.49c0,.83-.67,1.5-1.5,1.5Z"/>
        </g>
        <g>
          <path class="cls-2" d="M90.74,102.04c-13.22,0-23.98-10.76-23.98-23.98s10.76-23.98,23.98-23.98,23.98,10.76,23.98,23.98-10.76,23.98-23.98,23.98Zm0-44.95c-11.56,0-20.97,9.41-20.97,20.97s9.41,20.97,20.97,20.97,20.97-9.41,20.97-20.97-9.41-20.97-20.97-20.97Z"/>
          <path class="cls-2" d="M122.93,115.14c-1.3,0-2.53-.51-3.45-1.43l-16.52-16.51c-.32-.32-.48-.77-.43-1.23,.05-.46,.3-.86,.69-1.1,1.7-1.09,3.13-2.5,4.24-4.19,.35-.53,.75-.78,1.21-.82h.04c.53,0,.91,.16,1.18,.43l16.51,16.52c1.91,1.9,1.91,5.01,0,6.91-.92,.92-2.15,1.43-3.46,1.43Zm-13.93-21.48c-.82,1.03-1.77,1.96-2.81,2.78l15.42,15.14c.34,.34,.82,.53,1.33,.53s.99-.19,1.33-.53c.35-.35,.55-.83,.55-1.33s-.2-.97-.55-1.33l-15.26-15.26Z"/>
        </g>
      </g>
    </g>
  </g>
</svg>