<?xml version="1.0" encoding="UTF-8"?>
<svg id="Layer_2" data-name="Layer 2" xmlns="http://www.w3.org/2000/svg" viewBox="0 0 181.02 181.22">
  <defs>
    <style>
      .cls-1 {
        fill: none;
        stroke: #fff;
        stroke-miterlimit: 10;
        stroke-width: 2.33px;
      }

      .cls-2 {
        fill: #fff;
      }

      .cls-3 {
        fill: #171726;
      }

      .cls-4 {
        fill: #1f1c2f;
      }
    </style>
  </defs>
  <g id="DIGITAL_STRATEGY" data-name="DIGITAL STRATEGY">
    <g>
      <g>
        <path class="cls-4" d="M181.02,21.4V90.61H0V21.4C0,9.58,9.59,0,21.41,0H159.62c11.82,0,21.4,9.58,21.4,21.4Z"/>
        <path class="cls-3" d="M0,159.82V90.61H181.02v69.21c0,11.82-9.59,21.4-21.41,21.4H21.4c-11.82,0-21.4-9.58-21.4-21.4Z"/>
      </g>
      <rect class="cls-1" x="20.6" y="20.55" width="140.11" height="140.11" rx="16.5" ry="16.5"/>
      <g>
        <path class="cls-2" d="M58.01,129.57c-.9,0-1.62-.73-1.62-1.63V54.35c0-.9,.73-1.63,1.62-1.63h58.41c.9,0,1.63,.73,1.63,1.63v23.6c0,.9-.73,1.63-1.63,1.63s-1.62-.73-1.62-1.63v-22.16l-55.34,.19,.19,70.53,55.34-.19-.19-24.77c0-.9,.73-1.62,1.62-1.62s1.63,.73,1.63,1.62v26.39c0,.9-.73,1.63-1.63,1.63H58.01Z"/>
        <g>
          <path class="cls-2" d="M72.98,98.74c-.9,0-1.63-.73-1.63-1.63s.73-1.62,1.63-1.62h28.47c.9,0,1.62,.73,1.62,1.62s-.73,1.63-1.62,1.63h-28.47Z"/>
          <path class="cls-2" d="M72.98,85.32c-.9,0-1.63-.73-1.63-1.63s.73-1.62,1.63-1.62h28.47c.9,0,1.62,.73,1.62,1.62s-.73,1.63-1.62,1.63h-28.47Z"/>
          <path class="cls-2" d="M72.98,71.55c-.9,0-1.63-.73-1.63-1.63s.73-1.62,1.63-1.62h28.47c.9,0,1.62,.73,1.62,1.62s-.73,1.63-1.62,1.63h-28.47Z"/>
          <path class="cls-2" d="M72.98,112.32c-.9,0-1.63-.73-1.63-1.63s.73-1.63,1.63-1.63h28.47c.9,0,1.62,.73,1.62,1.63s-.73,1.63-1.62,1.63h-28.47Z"/>
        </g>
        <g>
          <path class="cls-2" d="M105.02,109.11c-.43,.09-.86,0-1.22-.24-.49-.32-.77-.89-.73-1.49l1.01-12.56c.02-.27,.11-.54,.26-.76l20.25-30.73c.24-.36,.6-.61,1.03-.7s.86,0,1.22,.24l10.14,6.68c.36,.23,.61,.61,.7,1.03s0,.87-.24,1.22l-20.25,30.72c-.15,.23-.36,.42-.6,.54l-11.14,5.88c-.14,.07-.28,.13-.43,.16Zm2.24-13.57l-.74,9.5,8.23-4.67,19.19-29.15-7.53-4.74-19.16,29.06Z"/>
          <path class="cls-2" d="M116.17,103.23c-.43,.09-.86,0-1.22-.24l-10.14-6.68c-.36-.24-.61-.6-.7-1.03s0-.86,.24-1.22c.24-.36,.6-.61,1.03-.7s.86,0,1.22,.24l10.14,6.68c.36,.24,.61,.6,.7,1.03,.09,.43,0,.86-.23,1.22-.24,.36-.6,.61-1.03,.7Z"/>
          <path class="cls-2" d="M136.42,72.5c-.43,.09-.86,0-1.22-.24l-10.14-6.68c-.36-.23-.61-.61-.7-1.03s0-.87,.24-1.22l5.01-7.6c.24-.36,.6-.61,1.03-.7s.86,0,1.22,.24l10.14,6.68c.36,.23,.61,.61,.7,1.03s0,.87-.24,1.22l-5.01,7.6c-.24,.36-.6,.61-1.03,.7Zm-8.32-8.58l7.69,4.84,3.17-5.15-7.53-4.74-3.33,5.05Z"/>
        </g>
      </g>
    </g>
  </g>
</svg>