<?xml version="1.0" encoding="UTF-8"?>
<svg id="Layer_2" data-name="Layer 2" xmlns="http://www.w3.org/2000/svg" viewBox="0 0 181.02 181.22">
  <defs>
    <style>
      .cls-1 {
        fill: none;
        stroke: #fff;
        stroke-miterlimit: 10;
        stroke-width: 2.33px;
      }

      .cls-2 {
        fill: #fff;
      }

      .cls-3 {
        fill: #171726;
      }

      .cls-4 {
        fill: #1f1c2f;
      }
    </style>
  </defs>
  <g id="DIGITAL_STRATEGY" data-name="DIGITAL STRATEGY">
    <g>
      <g>
        <path class="cls-4" d="M181.02,21.4V90.61H0V21.4C0,9.58,9.59,0,21.41,0H159.62c11.82,0,21.4,9.58,21.4,21.4Z"/>
        <path class="cls-3" d="M0,159.82V90.61H181.02v69.21c0,11.82-9.59,21.4-21.41,21.4H21.4c-11.82,0-21.4-9.58-21.4-21.4Z"/>
      </g>
      <rect class="cls-1" x="20.55" y="20.55" width="140.11" height="140.11" rx="16.5" ry="16.5"/>
      <g>
        <path class="cls-2" d="M136.08,101.65h-27.96c-1.5,0-2.72-1.22-2.72-2.72v-18.16c0-1.5,1.22-2.72,2.72-2.72h27.96c1.5,0,2.72,1.22,2.72,2.72v18.16c0,1.5-1.22,2.72-2.72,2.72Zm-27.96-21.72c-.46,0-.84,.38-.84,.84v18.16c0,.46,.38,.84,.84,.84h27.96c.46,0,.84-.38,.84-.84v-18.16c0-.46-.38-.84-.84-.84h-27.96Z"/>
        <path class="cls-2" d="M136.34,72.9h-27.96c-1.5,0-2.72-1.22-2.72-2.72v-18.16c0-1.5,1.22-2.72,2.72-2.72h27.96c1.5,0,2.72,1.22,2.72,2.72v18.16c0,1.5-1.22,2.72-2.72,2.72Zm-27.96-21.72c-.46,0-.84,.38-.84,.84v18.16c0,.46,.38,.84,.84,.84h27.96c.46,0,.84-.38,.84-.84v-18.16c0-.46-.38-.84-.84-.84h-27.96Z"/>
        <path class="cls-2" d="M136.34,130.4h-27.96c-1.5,0-2.72-1.22-2.72-2.72v-18.16c0-1.5,1.22-2.72,2.72-2.72h27.96c1.5,0,2.72,1.22,2.72,2.72v18.16c0,1.5-1.22,2.72-2.72,2.72Zm-27.96-21.72c-.46,0-.84,.38-.84,.84v18.16c0,.46,.38,.84,.84,.84h27.96c.46,0,.84-.38,.84-.84v-18.16c0-.46-.38-.84-.84-.84h-27.96Z"/>
        <path class="cls-2" d="M119.52,68.01c-.16,0-.33-.04-.48-.11-.37-.18-.59-.55-.59-.96v-11.69c0-.41,.23-.78,.59-.96,.37-.18,.79-.14,1.12,.1l7.79,5.84c.27,.2,.43,.52,.43,.86,0,.34-.16,.66-.43,.86l-7.79,5.84c-.19,.14-.41,.22-.64,.22Zm.81-11.13v8.43l5.62-4.22-5.62-4.22Z"/>
        <path class="cls-2" d="M112.52,117.39c-2.09,0-3.79-1.7-3.79-3.79s1.7-3.79,3.79-3.79,3.79,1.7,3.79,3.79-1.7,3.79-3.79,3.79Zm0-5.7c-1.05,0-1.91,.86-1.91,1.91s.86,1.91,1.91,1.91,1.91-.86,1.91-1.91-.86-1.91-1.91-1.91Z"/>
        <path class="cls-2" d="M121.67,96.23c-.15,0-.29-.03-.43-.09l-6.48-2.63h-2.39c-.63,0-1.15-.52-1.15-1.15v-5.3c0-.63,.52-1.15,1.15-1.15h2.39l6.48-2.63h0c.36-.14,.76-.1,1.08,.11,.32,.21,.51,.57,.51,.96v10.74c0,.38-.19,.74-.51,.96-.19,.13-.42,.2-.64,.2Zm-6.08-4.42l5.35,2.18v-8.56l-5.35,2.18c-.12,.1-.26,.18-.42,.21-.17,.04-.34,.03-.49-.03h-1.56v3.84h1.56c.16-.05,.33-.06,.5-.03,.16,.03,.3,.11,.42,.21Zm.22,.29s0,0,0,0c0,0,0,0,0,0Zm-.38-.35h0s0,0,0,0Zm-1.06-4.12s0,0,0,0c0,0,0,0,0,0Zm1.44-.31s0,0,0,0c0,0,0,0,0,0Z"/>
        <path class="cls-2" d="M125.98,92.47c-.23,0-.45-.08-.63-.24-.39-.35-.42-.95-.07-1.33,.25-.28,.39-.64,.39-1.01s-.14-.73-.39-1.01c-.35-.39-.32-.98,.07-1.33,.39-.35,.98-.32,1.33,.07,.57,.63,.88,1.44,.88,2.28s-.31,1.65-.88,2.28c-.19,.21-.44,.31-.7,.31Z"/>
        <path class="cls-2" d="M128.72,95.77c-.29,0-.57-.13-.75-.38-.31-.42-.23-1.01,.19-1.32,1.33-1,2.1-2.52,2.1-4.18s-.76-3.18-2.1-4.18c-.42-.31-.5-.9-.19-1.32,.31-.42,.9-.5,1.32-.19,1.79,1.34,2.85,3.47,2.85,5.69s-1.07,4.35-2.85,5.69c-.17,.13-.37,.19-.56,.19Z"/>
        <path class="cls-2" d="M112.53,129.92l-1.61-.98,6.59-10.87c.13-.22,.34-.37,.59-.43,.25-.06,.51-.01,.72,.12l5.37,3.42,5.45-8.14c.16-.23,.41-.38,.68-.41,.28-.03,.56,.07,.76,.26l7.69,7.48-1.31,1.35-6.88-6.7-5.34,7.97c-.29,.43-.86,.55-1.29,.27l-5.33-3.4-6.09,10.04Z"/>
        <path class="cls-2" d="M66.11,67.05h-1.88v-6.01c0-.52,.42-.94,.94-.94h41.91v1.88h-40.96v5.07Z"/>
        <path class="cls-2" d="M107.07,119.57h-41.91c-.52,0-.94-.42-.94-.94v-6.1h1.88v5.15h40.96v1.88Z"/>
        <rect class="cls-2" x="84.55" y="89.06" width="22.52" height="1.88"/>
        <path class="cls-2" d="M67.7,114.47h-5.42c-1.23,0-2.22-1-2.22-2.22v-3.11c-.79-.2-1.58-.46-2.34-.76l-1.83,2.51c-.72,.99-2.11,1.21-3.11,.49l-4.39-3.19c-.99-.72-1.21-2.11-.49-3.11l1.83-2.52c-.52-.63-1.01-1.3-1.45-1.99l-2.96,.96c-1.17,.38-2.42-.26-2.8-1.43l-1.68-5.16c-.38-1.17,.26-2.42,1.43-2.8l2.96-.96c-.03-.41-.04-.82-.04-1.23s.01-.82,.04-1.23l-2.96-.96c-1.17-.38-1.81-1.64-1.43-2.8l1.68-5.16c.18-.56,.58-1.02,1.11-1.29,.53-.27,1.13-.32,1.7-.13l2.96,.96c.44-.69,.92-1.35,1.45-1.99l-1.83-2.52c-.35-.48-.49-1.07-.4-1.65,.09-.59,.41-1.1,.89-1.45l4.39-3.19c.99-.72,2.39-.5,3.11,.49l1.83,2.51c.76-.3,1.54-.56,2.34-.76v-3.11c0-1.23,1-2.22,2.22-2.22h5.42c1.23,0,2.22,1,2.22,2.22v3.11c.79,.2,1.58,.46,2.34,.76l1.83-2.51c.35-.48,.86-.79,1.45-.89,.59-.09,1.18,.05,1.65,.4l4.39,3.19c.99,.72,1.21,2.11,.49,3.11l-1.83,2.52c.52,.63,1.01,1.3,1.45,1.99l2.96-.96c.56-.18,1.17-.14,1.7,.13,.53,.27,.92,.73,1.11,1.29l1.68,5.16c.38,1.17-.26,2.42-1.43,2.8l-2.96,.96c.03,.41,.04,.82,.04,1.23s-.01,.82-.04,1.23l2.96,.96h0c1.17,.38,1.81,1.64,1.43,2.8l-1.68,5.16c-.38,1.17-1.64,1.81-2.8,1.43l-2.96-.96c-.44,.69-.92,1.35-1.45,1.99l1.83,2.52c.72,.99,.5,2.39-.49,3.11l-4.39,3.19c-.48,.35-1.07,.49-1.65,.4-.59-.09-1.1-.41-1.45-.89l-1.83-2.51c-.76,.3-1.54,.56-2.34,.76v3.11c0,1.23-1,2.22-2.22,2.22Zm-10.31-8.19c.13,0,.26,.03,.38,.08,1.1,.48,2.25,.86,3.42,1.11,.43,.09,.74,.48,.74,.92v3.85c0,.18,.16,.34,.34,.34h5.42c.18,0,.34-.16,.34-.34v-3.85c0-.44,.31-.83,.74-.92,1.17-.25,2.33-.63,3.42-1.11,.41-.18,.88-.05,1.14,.31l2.26,3.11c.07,.1,.17,.13,.22,.13,.05,0,.15,.01,.25-.06l4.39-3.19c.15-.11,.18-.32,.07-.47l-2.27-3.12c-.26-.36-.24-.85,.06-1.18,.8-.9,1.51-1.88,2.12-2.91,.22-.38,.68-.56,1.1-.42l3.66,1.19c.17,.06,.37-.04,.43-.22l1.68-5.16c.06-.17-.04-.37-.22-.43l-3.66-1.19c-.42-.14-.69-.55-.65-.99,.06-.6,.09-1.2,.09-1.8s-.03-1.2-.09-1.8c-.04-.44,.23-.85,.65-.99l3.66-1.19c.17-.06,.27-.25,.22-.43l-1.68-5.16c-.04-.11-.12-.17-.17-.2-.05-.02-.14-.06-.26-.02l-3.66,1.19c-.42,.14-.88-.04-1.1-.42-.6-1.03-1.32-2.01-2.12-2.91-.3-.33-.32-.82-.06-1.18l2.27-3.12c.11-.15,.07-.37-.08-.47l-4.39-3.19c-.1-.07-.2-.07-.25-.06-.05,0-.15,.04-.22,.13l-2.26,3.11c-.26,.36-.74,.49-1.14,.31-1.1-.48-2.25-.86-3.42-1.11-.43-.09-.74-.48-.74-.92v-3.85c0-.18-.16-.34-.34-.34h-5.42c-.18,0-.34,.16-.34,.34v3.85c0,.44-.31,.83-.74,.92-1.17,.25-2.33,.63-3.42,1.11-.41,.18-.88,.05-1.14-.31l-2.26-3.11c-.11-.15-.32-.18-.47-.08l-4.39,3.19c-.1,.07-.13,.17-.13,.22,0,.05-.01,.15,.06,.25l2.27,3.12c.26,.36,.24,.85-.06,1.18-.8,.9-1.51,1.88-2.12,2.91-.22,.38-.68,.56-1.1,.42l-3.66-1.19c-.11-.04-.21,0-.26,.02-.05,.02-.13,.08-.17,.2l-1.68,5.16c-.06,.17,.04,.37,.22,.43l3.66,1.19c.42,.14,.69,.55,.65,.99-.06,.6-.09,1.2-.09,1.8s.03,1.2,.09,1.8c.04,.44-.23,.85-.65,.99l-3.66,1.19c-.17,.06-.27,.25-.22,.43l1.68,5.16c.06,.17,.25,.27,.43,.22l3.66-1.19c.42-.14,.88,.04,1.1,.42,.6,1.04,1.32,2.01,2.12,2.91,.3,.33,.32,.82,.06,1.18l-2.27,3.12c-.11,.15-.07,.37,.08,.47l4.39,3.19c.15,.11,.37,.07,.47-.08l2.26-3.11c.18-.25,.47-.39,.76-.39Zm7.6-6.67c-5.32,0-9.64-4.33-9.64-9.64s4.33-9.64,9.64-9.64,9.64,4.33,9.64,9.64-4.33,9.64-9.64,9.64Zm0-17.4c-4.28,0-7.76,3.48-7.76,7.76s3.48,7.76,7.76,7.76,7.76-3.48,7.76-7.76-3.48-7.76-7.76-7.76Z"/>
      </g>
    </g>
  </g>
</svg>