<?xml version="1.0" encoding="UTF-8"?>
<svg id="Layer_2" data-name="Layer 2" xmlns="http://www.w3.org/2000/svg" xmlns:xlink="http://www.w3.org/1999/xlink" viewBox="0 0 181.02 181.22">
  <defs>
    <style>
      .cls-1 {
        clip-path: url(#clippath);
      }

      .cls-2 {
        fill: #fff;
      }

      .cls-3 {
        fill: #171726;
      }

      .cls-4 {
        fill: #1f1c2f;
      }
    </style>
    <clipPath id="clippath">
      <path class="cls-2" d="M58.65,121.11c-.55-.39-.82-.96-.82-1.69,0-.92,.45-1.8,1.19-2.34,0,0,0,0,.01,0l.1-.07c.82-.6,1.38-1.49,1.59-2.51,.21,1.02,.76,1.9,1.6,2.52,.02,.01,.04,.03,.06,.04l.03,.02s.04,.03,.06,.05c.73,.55,1.14,1.39,1.14,2.3,0,1.57-1.25,2.06-2.16,2.2-.3,.05-.56,.06-.73,.06h0c-.84,0-1.56-.19-2.07-.56m-7.53-.96c-.8-.26-1.42-.66-1.8-1.17-.4-.54-.49-1.17-.26-1.87,.28-.88,.98-1.57,1.86-1.86,0,0,.01,0,.02,0l.12-.04c.97-.32,1.77-.99,2.28-1.89-.12,1.04,.14,2.05,.74,2.89,.01,.02,.03,.04,.04,.06l.02,.03s.03,.04,.04,.07c.52,.75,.66,1.67,.38,2.53-.31,.96-.97,1.33-1.65,1.44-.16,.03-.31,.04-.47,.04-.56,0-1.07-.14-1.33-.22m17.06,.11c-.64-.2-1.08-.66-1.31-1.36-.29-.88-.13-1.85,.41-2.59,0,0,0,0,.01-.01l.08-.1c.6-.82,.85-1.84,.73-2.88,.51,.91,1.32,1.58,2.3,1.9,.02,0,.05,.01,.07,.02h.03s.05,.03,.08,.04c.86,.3,1.51,.97,1.8,1.83,.65,1.99-1.41,2.83-2.05,3.04-.25,.08-.5,.14-.74,.18-.2,.03-.39,.05-.58,.05-.29,0-.57-.04-.82-.12m-11.6-3.47c-.88-.14-1.51-.33-1.94-.89-.02-.02-.04-.06-.07-.09-.53-.74-.74-1.66-.59-2.6,.29-1.84,1.92-3.12,3.61-2.85,1.69,.27,2.83,1.99,2.55,3.83-.15,.94-.64,1.76-1.37,2.29,0,0,0,0-.01,0h0s-.1,.07-.1,.07t0,0c-.23,.15-.47,.24-.73,.28-.13,.02-.28,.03-.42,.03-.28,0-.58-.03-.92-.09m6.17-.25s-.06-.04-.09-.06c-.73-.54-1.22-1.35-1.37-2.29-.29-1.84,.86-3.56,2.56-3.83,1.69-.27,3.31,1.01,3.6,2.86,.15,.94-.06,1.87-.59,2.6,0,0,0,0-.01,.01l-.07,.1s0,0,0,0c-.41,.52-1.04,.72-1.91,.85-.34,.05-.64,.09-.92,.09-.45,0-.84-.09-1.2-.33m-18.21-5.57c.79-.13,1.53-.49,2.14-1.05-.43,.95-.5,1.99-.18,2.98,0,.02,.01,.05,.02,.07v.03s.02,.05,.03,.08c.26,.87,.11,1.8-.43,2.53-1.23,1.69-3.12,.53-3.67,.13-.69-.49-1.15-1.07-1.35-1.67-.21-.64-.1-1.26,.33-1.86,.54-.75,1.42-1.19,2.34-1.19h.14c.21,0,.41-.01,.61-.05m30.77,4.64c-.55-.75-.7-1.72-.41-2.59,0,0,0,0,0-.02l.04-.12c.31-.97,.24-2.01-.19-2.96,.77,.7,1.74,1.09,2.77,1.09,.02,0,.05,0,.07,0h.03s.05,0,.08,0c.91,.02,1.74,.45,2.27,1.19,1.23,1.69-.46,3.13-1.01,3.53-.55,.4-1.11,.65-1.63,.73-.12,.02-.25,.03-.37,.03h0c-.67,0-1.23-.3-1.65-.89m-26.62-1.39c-.79-.4-1.33-.78-1.57-1.44-.01-.03-.02-.06-.03-.1-.27-.87-.19-1.81,.24-2.65,.85-1.66,2.79-2.38,4.32-1.6,1.53,.78,2.08,2.77,1.24,4.43-.43,.85-1.15,1.47-2.01,1.75h-.01s0,0,0,0l-.12,.04s0,0,0,0c-.07,.02-.13,.03-.2,.04-.09,.01-.18,.02-.27,.02-.48,0-.98-.19-1.57-.49m21.98,.42s-.06-.02-.1-.03c-.87-.29-1.58-.91-2.01-1.75-.84-1.66-.28-3.65,1.25-4.43,1.53-.78,3.46-.06,4.31,1.6,.43,.85,.52,1.8,.24,2.66,0,0,0,0,0,.01h0l-.04,.12h0c-.23,.63-.77,1.01-1.55,1.41-.46,.24-.87,.41-1.26,.47-.1,.02-.21,.03-.32,.03-.17,0-.34-.02-.51-.07m-12.98-4.94c-.14-.02-.27-.09-.37-.2l-.68-.69c-.25-.25-.36-.67-.29-1.11,.07-.43,.31-.8,.62-.96l.87-.45c.28-.15,.58-.1,.8,.13l.68,.7c.22,.23,.34,.61,.3,1l-.02,.1c-.07,.43-.31,.8-.62,.96l-.87,.45c-.07,.04-.15,.06-.22,.07-.03,0-.07,0-.1,0s-.07,0-.1,0m5.63-.07l-.86-.45c-.31-.16-.55-.53-.61-.96-.07-.43,.05-.85,.3-1.11l.68-.69c.22-.22,.52-.27,.8-.12l.86,.45c.29,.15,.51,.47,.59,.85l.02,.11c.07,.43-.04,.86-.29,1.11l-.68,.69c-.11,.11-.24,.18-.38,.2-.03,0-.06,0-.09,0-.11,0-.22-.03-.32-.08m-4.69,.4l.62-.32c.48-.25,.83-.78,.93-1.39,0-.03,0-.07,.01-.11l.52-3.26s0-.05,.01-.07c0,.02,0,.04,0,.06l.52,3.36c.1,.61,.45,1.15,.93,1.4l.63,.33c-1.07,.5-1.84,1.52-2.09,2.72-.25-1.21-1.03-2.22-2.1-2.73m-17.23-5.38c-.7,.77-1.09,1.74-1.09,2.77,0,.02,0,.05,0,.07v.03s0,.05,0,.08c-.02,.91-.45,1.74-1.18,2.27-.33,.24-.65,.37-.95,.42-1.26,.2-2.25-.99-2.57-1.43-.5-.68-.76-1.38-.77-2.01,0-.67,.29-1.23,.88-1.66,.75-.55,1.72-.7,2.6-.41,0,0,0,0,.01,0l.12,.04c.4,.13,.81,.19,1.22,.19,.59,0,1.18-.13,1.74-.38m40.93,5.24c-.75-.54-1.19-1.42-1.19-2.34h0s0-.14,0-.14c0-1.02-.39-1.99-1.1-2.76,.95,.43,1.99,.5,2.98,.19,.02,0,.04-.02,.07-.02h.03s.05-.02,.08-.03c.87-.26,1.79-.1,2.53,.43,1.69,1.23,.53,3.12,.13,3.67-.49,.68-1.07,1.15-1.67,1.35-.11,.04-.22,.06-.33,.08-.1,.01-.19,.02-.29,.02-.42,0-.83-.15-1.23-.43m-30.39-2.05c-.12-.06-.22-.17-.29-.31l-.43-.87c-.16-.31-.13-.75,.07-1.14,.2-.39,.54-.67,.89-.72l.96-.16c.31-.05,.58,.09,.72,.37l.43,.87c.14,.29,.13,.68-.02,1.04l-.05,.1c-.2,.39-.54,.66-.89,.72l-.96,.15h0s-.08,.01-.12,.01c-.11,0-.21-.02-.3-.07m17.13,.06l-.96-.16c-.35-.06-.69-.34-.88-.72-.19-.39-.22-.83-.06-1.14l.44-.87c.14-.28,.41-.42,.72-.37l.96,.16c.32,.05,.63,.29,.83,.63l.05,.1c.2,.39,.22,.83,.06,1.14l-.44,.87c-.07,.14-.17,.24-.3,.31-.06,.03-.12,.05-.19,.06-.03,0-.07,0-.11,0-.04,0-.09,0-.13-.01m-16.34,.53l.69-.11c.53-.09,1.03-.48,1.32-1.03,.01-.03,.03-.07,.04-.1l1.51-2.94s.02-.05,.03-.07c0,.02,0,.04-.01,.06l-.54,3.36c-.1,.61,.07,1.23,.45,1.61l.5,.51c-1.17,.15-2.22,.88-2.83,1.94,.13-1.23-.29-2.43-1.15-3.24m12,1.3l.49-.5c.38-.38,.55-.99,.46-1.6,0-.04-.02-.07-.02-.1l-.5-3.26s-.01-.05-.02-.07c0,.02,.02,.04,.02,.05l1.53,3.04c.28,.55,.78,.96,1.31,1.04l.71,.12c-.86,.81-1.28,2.01-1.15,3.24-.61-1.07-1.66-1.8-2.84-1.95m-22.75-.37c-.63-.63-1.03-1.16-1.05-1.86,0-.02,0-.04,0-.05h0v-.05c0-.91,.38-1.78,1.05-2.45,1.32-1.32,3.39-1.4,4.6-.18,1.21,1.21,1.12,3.27-.19,4.59-.55,.55-1.23,.89-1.94,1.01-.17,.03-.34,.04-.51,.04,0,0,0,0,0,0h0s-.12,0-.12,0h0c-.67-.03-1.19-.42-1.81-1.04m33.07,0c-1.32-1.32-1.4-3.38-.18-4.6,1.21-1.21,3.28-1.12,4.6,.19,.67,.67,1.05,1.55,1.05,2.45,0,0,0,.01,0,.01h0v.12s0,0,0,0c-.03,.67-.42,1.19-1.04,1.82-.56,.56-1.04,.93-1.63,1.03-.07,.01-.15,.02-.23,.02-.02,0-.04,0-.05,0h-.05c-.91,0-1.78-.38-2.45-1.05m-18.17-5.01c.07-.43,.31-.8,.62-.96l.87-.45c.28-.15,.58-.1,.8,.13l.68,.69c.25,.25,.36,.68,.29,1.11l-.31,1.95s-.06-.07-.09-.1l-.68-.69c-.2-.21-.45-.34-.71-.38-.26-.04-.53,0-.78,.13l-.87,.45s-.09,.05-.13,.08l.32-1.96Zm4.43,.51c-.07-.43,.05-.86,.29-1.11l.69-.69c.22-.23,.52-.27,.8-.13l.86,.45c.31,.16,.55,.53,.62,.97l.3,1.95s-.08-.05-.12-.07l-.86-.45c-.26-.13-.53-.18-.79-.14-.25,.04-.5,.17-.7,.37l-.69,.69s-.07,.07-.1,.12l-.3-1.96Zm-12.54,.34c.39-.06,.78-.26,1.09-.57,.03-.03,.05-.05,.07-.08l2.34-2.33s.03-.04,.05-.06c0,.02-.02,.03-.03,.05l-1.56,3.03c-.28,.55-.31,1.19-.07,1.67l.32,.64c-1.16-.22-2.38,.15-3.29,.97,.5-1.13,.48-2.4-.09-3.44l.69,.11c.07,.01,.15,.02,.22,.02,.08,0,.17,0,.25-.02m21.98,1.74c.24-.48,.22-1.12-.06-1.67-.02-.03-.04-.06-.05-.09l-1.49-2.95s-.03-.04-.04-.06c.02,.01,.03,.03,.04,.04l2.4,2.42c.44,.44,1.04,.66,1.57,.59l.71-.1c-.57,1.03-.59,2.31-.09,3.43-.92-.83-2.14-1.2-3.3-.97l.31-.63Zm-10.49-3.59l-.67-.69c.48-.13,.88-.45,1.12-.87,.25,.43,.66,.75,1.13,.88l-.66,.67c-.25,.25-.41,.62-.46,1.02-.05-.39-.21-.75-.46-1m-7.44-.86c.2-.39,.54-.67,.89-.72l.96-.16c.31-.05,.58,.09,.72,.37l.43,.87c.16,.31,.13,.75-.07,1.14l-.9,1.76s-.03-.09-.05-.13l-.43-.87c-.13-.26-.32-.46-.56-.58-.23-.12-.5-.16-.79-.11l-.96,.16s-.1,.02-.15,.04l.91-1.77Zm12.86,1.49c-.2-.39-.22-.83-.06-1.14l.44-.87c.14-.28,.41-.42,.72-.37l.96,.16c.35,.06,.69,.34,.88,.73l.89,1.77s-.09-.03-.14-.03l-.96-.16c-.29-.05-.56,0-.79,.11-.23,.12-.43,.31-.55,.57l-.44,.87s-.04,.09-.06,.14l-.9-1.77Zm6.29,.23c-.31-.31-.47-.72-.41-1.07l.15-.96c.05-.31,.26-.53,.57-.57l.96-.14c.32-.05,.69,.08,.98,.34l.07,.08c.31,.31,.47,.72,.41,1.07l-.15,.96c-.02,.15-.09,.29-.19,.38-.1,.1-.22,.16-.37,.18,0,0,0,0-.01,0l-.96,.14s-.09,0-.13,0c-.31,0-.66-.16-.93-.42m-23.59,.41l-.96-.15c-.16-.03-.29-.09-.39-.19-.1-.1-.16-.23-.18-.38l-.14-.96c-.05-.35,.11-.75,.42-1.06,.31-.31,.72-.47,1.07-.41l.96,.15c.31,.05,.52,.27,.57,.58l.14,.96c.04,.32-.09,.69-.34,.98l-.08,.07c-.22,.22-.5,.37-.77,.41-.05,0-.11,.01-.16,.01-.05,0-.09,0-.14-.01m7.91-2.91c.36-.06,.7-.22,.97-.46,.1,.49,.39,.91,.81,1.18l-.84,.43c-.32,.16-.59,.46-.76,.82,.07-.39,.03-.78-.12-1.09l-.43-.86s.05,0,.07,0c.1,0,.2,0,.29-.02m7.93,1.16l-.85-.45c.41-.27,.7-.7,.8-1.18,.37,.33,.85,.51,1.35,.49l-.42,.84c-.16,.32-.2,.72-.13,1.11-.17-.35-.43-.65-.74-.81m3.61-1.68l-.95-.16c.3-.38,.45-.88,.39-1.37,.45,.2,.97,.22,1.43,.04l-.14,.93c-.06,.36,.03,.75,.22,1.1-.27-.29-.61-.48-.96-.54m-13.69-1.53c-.05,.49,.09,.99,.4,1.38l-.93,.15c-.36,.06-.7,.26-.97,.55,.19-.35,.27-.73,.22-1.08l-.14-.95c.21,.08,.43,.12,.65,.12,.26,0,.53-.06,.77-.16m4.73,2.55c-.75-.12-1.25-.82-1.14-1.56,.12-.75,.82-1.26,1.57-1.14,.74,.12,1.25,.82,1.14,1.56-.1,.6-.57,1.05-1.14,1.14-.07,.01-.14,.02-.21,.02s-.14,0-.21-.02m2.11-1.14c-.12-.74,.39-1.45,1.14-1.56,.74-.12,1.45,.39,1.56,1.14,.12,.75-.39,1.45-1.14,1.57-.07,.01-.14,.02-.21,.02-.66,0-1.24-.48-1.35-1.16m-10.54,1.99l-.14-.96c-.04-.29-.17-.53-.35-.72-.18-.18-.43-.31-.71-.35l-.96-.15s-.1-.01-.15-.01l1.41-1.4c.31-.31,.72-.47,1.07-.41l.96,.15c.31,.05,.53,.26,.57,.57l.14,.96c.05,.35-.11,.76-.42,1.07l-1.4,1.39s0-.09-.01-.14m19.11-1.27c-.31-.31-.46-.72-.41-1.07l.15-.96c.05-.31,.26-.52,.57-.57l.96-.14c.35-.05,.76,.11,1.07,.42l1.39,1.4s-.09,0-.14,.01l-.96,.14c-.29,.04-.53,.17-.72,.35-.18,.18-.31,.43-.35,.71l-.15,.96s-.01,.1-.01,.15l-1.4-1.41Zm-24.12-1c.21-.03,.42-.1,.62-.2,.03-.02,.06-.04,.09-.05l2.95-1.49s.04-.02,.06-.04c-.01,.01-.03,.03-.04,.04l-2.41,2.4c-.44,.44-.66,1.04-.59,1.57l.1,.71c-1.03-.57-2.31-.59-3.43-.09,.83-.91,1.2-2.14,.97-3.3l.62,.31c.22,.11,.48,.16,.74,.16,.1,0,.21,0,.31-.03m29.86,2.25c.08-.53-.14-1.13-.57-1.57-.03-.02-.05-.05-.08-.07l-2.33-2.34s-.04-.03-.06-.05c.02,0,.03,.02,.05,.03l3.03,1.55c.55,.28,1.19,.31,1.67,.07l.64-.32c-.22,1.16,.15,2.38,.97,3.29-1.13-.5-2.41-.48-3.44,.09l.11-.69Zm-19.91-1.96c-.67-.34-.94-1.17-.6-1.84,.34-.67,1.17-.94,1.84-.6,.67,.34,.94,1.17,.6,1.84-.21,.4-.59,.66-1.01,.73-.07,.01-.14,.02-.21,.02-.21,0-.42-.05-.62-.15m8.82-.6c-.34-.67-.07-1.5,.6-1.84,.67-.34,1.5-.07,1.84,.6,.34,.67,.07,1.5-.6,1.84-.13,.07-.27,.11-.41,.13-.07,.01-.14,.02-.21,.02-.5,0-.98-.27-1.22-.75m-25.56,3.78s-.01,0-.01,0h0s-.12-.04-.12-.04c0,0,0,0,0,0-.63-.23-1-.76-1.41-1.55-.4-.79-.62-1.42-.42-2.09,.01-.03,.02-.07,.03-.1,.29-.87,.91-1.58,1.76-2.01,1.66-.84,3.65-.28,4.43,1.25,.78,1.53,.06,3.46-1.6,4.31-.35,.18-.72,.3-1.09,.36-.18,.03-.36,.04-.54,.04-.35,0-.69-.05-1.02-.16m41.49-.24c-1.66-.85-2.38-2.79-1.6-4.32,.78-1.53,2.77-2.08,4.43-1.24,.85,.43,1.47,1.15,1.75,2.01,0,0,0,.01,0,.01h0l.04,.12s0,0,0,0c.18,.65-.03,1.26-.43,2.05-.4,.79-.78,1.33-1.44,1.57-.03,.01-.06,.02-.1,.03-.16,.05-.33,.09-.49,.12-.18,.03-.36,.04-.53,.04-.55,0-1.11-.13-1.63-.4m-19.58-4.55c-.21-.03-.4-.13-.55-.28-.19-.19-.3-.44-.3-.71,0-.55,.45-1.01,1.01-1.01,.27,0,.52,.1,.71,.3,.19,.19,.29,.44,.29,.71,0,.5-.37,.92-.85,.99-.05,.01-.1,.01-.16,.01h-.02s-.1,0-.14-.01m2.13-.48c-.24-.12-.42-.33-.5-.59-.17-.53,.12-1.09,.65-1.27,.25-.08,.53-.06,.77,.06,.24,.12,.42,.33,.5,.59,.17,.53-.12,1.1-.65,1.27-.05,.02-.1,.03-.16,.04-.05,0-.1,.01-.16,.01-.16,0-.31-.04-.46-.11m-4.71,.06c-.05-.02-.1-.04-.15-.06-.19-.09-.34-.25-.44-.44-.12-.24-.14-.51-.06-.77,.17-.53,.74-.82,1.27-.65,.26,.08,.46,.26,.59,.5,.12,.24,.14,.51,.06,.77-.12,.37-.44,.63-.8,.68-.05,0-.1,.01-.16,.01-.1,0-.21-.02-.31-.05m17.65,1.02c-.39-.2-.67-.54-.72-.89l-.15-.96c-.05-.31,.09-.58,.37-.72l.87-.43c.29-.14,.68-.13,1.04,.02l.09,.05c.39,.2,.67,.54,.72,.89l.16,.96c.03,.16,0,.3-.06,.42-.06,.12-.17,.22-.31,.29l-.87,.43c-.09,.04-.18,.07-.28,.09-.06,0-.12,.01-.19,.01-.22,0-.45-.06-.67-.17m-30.96,.06l-.87-.44c-.14-.07-.24-.17-.31-.3-.06-.12-.08-.27-.06-.42l.16-.96c.06-.34,.34-.68,.72-.88,.39-.2,.83-.22,1.14-.06l.87,.44c.28,.14,.42,.41,.37,.72l-.16,.96c-.05,.32-.29,.63-.63,.83l-.1,.05c-.15,.08-.31,.13-.46,.15-.07,.01-.15,.02-.22,.02-.17,0-.33-.03-.47-.1m5.49-2.38l.16-.95c.38,.31,.88,.45,1.37,.39-.2,.45-.22,.97-.04,1.43l-.93-.14c-.36-.06-.75,.03-1.1,.22,.29-.27,.48-.61,.54-.96m20.1-.57c.32-.05,.62-.18,.88-.39l.15,.93c.06,.36,.26,.7,.55,.97-.34-.19-.73-.27-1.08-.22l-.95,.14c.17-.46,.15-.97-.05-1.42,.07,0,.14,.01,.2,.01,.1,0,.2,0,.29-.02m14.32,.8c.62-.1,1.22-.34,1.74-.72,.02-.02,.04-.03,.06-.04l.03-.02s.04-.03,.07-.04c.75-.52,1.68-.65,2.54-.38,1.99,.64,1.46,2.8,1.25,3.45-.26,.8-.66,1.42-1.17,1.8-.54,.4-1.17,.48-1.86,.26-.88-.28-1.57-.98-1.86-1.86,0,0,0-.01,0-.02l-.04-.12c-.32-.97-.99-1.77-1.9-2.28,.16,.02,.33,.03,.49,.03,.22,0,.44-.02,.66-.05m-53.4,2.24c-.26-.8-.3-1.54-.11-2.14,.2-.64,.66-1.08,1.35-1.31,.88-.29,1.85-.13,2.59,.41,0,0,0,0,.01,.01l.1,.08c.82,.59,1.84,.85,2.88,.73-.91,.52-1.58,1.32-1.9,2.3,0,.02-.01,.05-.02,.07v.03s-.03,.05-.04,.08c-.3,.86-.97,1.51-1.83,1.8-.14,.05-.27,.08-.4,.1-.12,.02-.23,.03-.33,.03h0c-1.47,0-2.12-1.62-2.3-2.18m21.24-1.3c-.53-.53-.53-1.4,0-1.93,.53-.53,1.4-.53,1.93,0,.53,.53,.53,1.4,0,1.93-.21,.21-.48,.34-.75,.38-.07,.01-.14,.02-.22,.02-.35,0-.7-.13-.96-.4m14.66,0c-.53-.53-.53-1.4,0-1.94,.53-.53,1.4-.53,1.94,0,.53,.53,.53,1.4,0,1.93-.21,.21-.48,.34-.75,.38-.07,.01-.14,.02-.22,.02-.35,0-.7-.13-.97-.4m-1.91-.95c-.27-.04-.5-.18-.66-.4-.33-.45-.23-1.08,.22-1.41,.22-.16,.48-.22,.75-.18,.27,.04,.5,.18,.66,.4,.33,.45,.22,1.08-.22,1.41-.04,.03-.09,.06-.14,.08-.09,.05-.19,.08-.3,.1-.05,0-.1,.01-.16,.01s-.11,0-.16-.01m-9.67-.18s-.09-.07-.12-.1c-.15-.15-.25-.34-.28-.55-.04-.27,.02-.53,.18-.75,.33-.45,.96-.55,1.41-.22,.22,.16,.36,.39,.4,.66,.04,.27-.02,.53-.18,.75-.16,.22-.4,.36-.66,.4-.05,0-.11,.01-.16,.01-.2,0-.41-.06-.59-.19m-8.4,1.5l.16-.96c.05-.29,0-.56-.11-.79-.12-.23-.31-.43-.57-.55l-.87-.44s-.09-.04-.14-.06l1.77-.9c.39-.2,.83-.22,1.14-.06l.87,.44c.28,.14,.42,.41,.37,.72l-.16,.96c-.06,.35-.34,.69-.73,.88l-1.77,.89s.03-.09,.03-.13m25.48-.77c-.39-.2-.67-.54-.72-.89l-.15-.96c-.05-.31,.09-.58,.37-.72l.87-.43c.32-.16,.75-.13,1.14,.07l1.76,.9s-.09,.03-.13,.05l-.87,.43c-.26,.13-.46,.32-.58,.55-.12,.23-.16,.5-.11,.79l.16,.96c0,.05,.02,.1,.04,.15l-1.77-.91Zm6.74-3.38l.51-.5c.15,1.17,.88,2.22,1.94,2.83-1.23-.13-2.44,.29-3.24,1.15l-.11-.69c-.09-.53-.48-1.03-1.03-1.32-.03-.02-.07-.03-.1-.05l-2.94-1.51s-.04-.02-.07-.03c.02,0,.04,.01,.06,.01l3.36,.54c.11,.02,.23,.03,.34,.03,.49,0,.96-.17,1.27-.47m-37.73-.51l.5,.49c.38,.38,.99,.55,1.61,.46,.03,0,.07-.01,.1-.02l3.26-.51s.05-.01,.07-.02c-.02,0-.04,.02-.05,.02l-3.04,1.54c-.55,.28-.96,.78-1.04,1.31l-.12,.71c-.81-.86-2.01-1.28-3.24-1.15,1.07-.61,1.8-1.66,1.95-2.84m24.88,1.43c-.45-.33-.55-.96-.22-1.41,.16-.22,.39-.36,.66-.4,.27-.04,.53,.02,.75,.18,.45,.33,.55,.96,.22,1.41-.03,.04-.07,.08-.1,.12-.15,.15-.34,.25-.55,.28-.05,0-.11,.01-.16,.01-.21,0-.42-.07-.59-.19m-12.93-.23s-.06-.09-.08-.14c-.1-.19-.13-.4-.1-.61,.04-.27,.18-.5,.4-.66,.45-.33,1.08-.23,1.41,.22,.16,.22,.22,.48,.18,.75-.04,.27-.18,.5-.4,.66-.13,.1-.28,.15-.43,.18-.05,0-.1,.01-.16,.01-.31,0-.62-.14-.82-.42m-3.29,.12c-.34-.67-.07-1.5,.6-1.84,.67-.34,1.5-.07,1.84,.6,.34,.67,.07,1.5-.6,1.84-.13,.07-.27,.11-.41,.13-.07,.01-.14,.02-.21,.02-.5,0-.98-.27-1.22-.75m19.08,.6c-.67-.34-.94-1.17-.6-1.84,.34-.67,1.17-.94,1.84-.6,.67,.34,.94,1.17,.6,1.84-.21,.4-.59,.66-1,.73-.07,.01-.14,.02-.21,.02-.21,0-.42-.05-.62-.15m-20.87-2.42l.44-.85c.27,.41,.7,.69,1.18,.79-.33,.37-.51,.86-.49,1.35l-.84-.42c-.32-.16-.72-.2-1.11-.13,.36-.17,.65-.43,.81-.74m22.87-.06c.49-.1,.91-.39,1.19-.81l.43,.84c.16,.32,.46,.58,.82,.76-.39-.07-.77-.04-1.09,.12l-.86,.43c.02-.49-.16-.97-.49-1.34m-3.47-.06c-.53-.17-.82-.74-.65-1.27,.08-.26,.26-.46,.5-.59,.24-.12,.51-.14,.77-.06,.53,.17,.82,.74,.65,1.27-.02,.05-.04,.1-.06,.15-.1,.19-.25,.34-.44,.44-.1,.05-.2,.08-.3,.1-.05,0-.1,.01-.15,.01-.11,0-.21-.02-.31-.05m-15.59-.65c-.02-.05-.03-.1-.04-.16-.03-.21,0-.42,.1-.61,.12-.24,.33-.42,.59-.5,.53-.17,1.09,.12,1.27,.65,.08,.26,.06,.53-.06,.77-.12,.24-.33,.42-.59,.5-.05,.02-.1,.03-.15,.04-.05,0-.1,.01-.16,.01-.42,0-.82-.27-.96-.7m25.52,1.64c-.43-.07-.8-.31-.96-.62l-.45-.86c-.15-.28-.1-.58,.13-.8l.69-.68c.23-.22,.61-.33,1-.3l.11,.02c.43,.07,.8,.31,.96,.62l.44,.86c.07,.14,.1,.28,.07,.42-.02,.14-.09,.27-.2,.37l-.69,.68c-.16,.15-.37,.25-.62,.29-.08,.01-.16,.02-.24,.02s-.16,0-.25-.02m-35.3-.3l-.69-.69c-.11-.11-.18-.24-.2-.38-.02-.14,0-.28,.08-.42l.45-.86c.16-.31,.53-.55,.96-.61,.43-.07,.85,.04,1.11,.29l.69,.68c.22,.22,.27,.52,.12,.8l-.45,.86c-.15,.29-.47,.51-.85,.6l-.11,.02c-.08,.01-.16,.02-.25,.02-.34,0-.66-.11-.86-.31m2.59-.04l.45-.86c.13-.26,.18-.53,.14-.79-.04-.26-.16-.5-.37-.7l-.69-.68s-.07-.07-.12-.1l1.96-.3c.43-.07,.86,.05,1.11,.3l.69,.68c.22,.22,.27,.52,.12,.8l-.45,.86c-.16,.31-.53,.55-.96,.62h0l-1.95,.3s.05-.08,.07-.12m29.35-.2c-.43-.07-.8-.31-.96-.62l-.44-.87c-.15-.28-.1-.58,.13-.8l.69-.68c.25-.25,.68-.36,1.11-.29l1.95,.31s-.07,.06-.1,.09l-.69,.68c-.21,.2-.33,.45-.38,.71-.04,.26,0,.53,.13,.78l.45,.87s.05,.09,.08,.13l-1.96-.32Zm-38.94,2.31s0,0-.01,0h0s-.1-.07-.1-.07c0,0,0,0,0,0-.53-.41-.72-1.04-.86-1.91-.14-.88-.15-1.54,.24-2.12,.02-.03,.04-.06,.06-.09,.54-.73,1.35-1.22,2.29-1.37,1.84-.29,3.56,.86,3.83,2.56,.27,1.69-1.01,3.31-2.85,3.6h0c-.19,.03-.39,.04-.58,.04-.73,0-1.43-.22-2.01-.64m47.82,.59c-1.84-.3-3.12-1.92-2.85-3.61,.27-1.69,1.99-2.83,3.83-2.55,.94,.15,1.76,.64,2.29,1.37,0,0,0,0,.01,.01h0l.07,.1s0,0,0,0c.37,.56,.36,1.21,.22,2.08-.14,.88-.33,1.51-.89,1.94-.02,.02-.05,.04-.08,.06-.43,.31-.93,.51-1.46,.6-.18,.03-.37,.04-.56,.04s-.39-.02-.58-.04m-34.2-4.9c-.12-.74,.39-1.45,1.14-1.56,.74-.12,1.45,.39,1.56,1.14,.12,.74-.39,1.45-1.14,1.56-.07,.01-.14,.02-.21,.02-.66,0-1.24-.48-1.35-1.15m21.62,1.14c-.74-.12-1.26-.82-1.14-1.56,.12-.75,.82-1.26,1.57-1.14,.74,.12,1.26,.82,1.14,1.56-.09,.6-.57,1.05-1.14,1.14-.07,.01-.14,.02-.21,.02s-.14,0-.22-.02m-3.18-2.97c0-.27,.1-.52,.3-.71,.19-.19,.44-.29,.71-.3,.56,0,1.01,.45,1.01,1.01,0,.05,0,.11-.01,.16-.03,.21-.13,.4-.28,.55-.15,.15-.34,.25-.55,.28-.05,0-.1,.01-.16,.01-.55,0-1.01-.45-1.01-1.01m-15.71,0c0-.05,0-.11,.01-.16,.03-.21,.13-.4,.28-.55,.19-.19,.44-.29,.71-.29,.56,0,1.01,.45,1.01,1,0,.27-.1,.52-.29,.71-.15,.15-.34,.25-.55,.28-.05,0-.1,.01-.16,.01h0c-.55,0-1-.45-1-1.01m-3.86,.47c-.26-.25-.62-.41-1.02-.46,.02,0,.04,0,.06,0,.37-.06,.7-.21,.94-.45l.69-.67c.13,.47,.45,.88,.88,1.12-.43,.25-.75,.66-.88,1.13l-.67-.66Zm23.89-.47c.43-.25,.75-.66,.88-1.13l.67,.66c.26,.25,.62,.41,1.02,.46-.39,.05-.75,.21-1,.46l-.69,.67c-.13-.47-.45-.88-.87-1.12m7.93,1.47c-.24-.48-.78-.83-1.38-.93-.04,0-.07,0-.11-.01l-3.26-.53s-.05,0-.07,0c.02,0,.04,0,.06,0l3.36-.52s0,0,0,0c.61-.09,1.14-.45,1.39-.92l.33-.64c.5,1.07,1.52,1.84,2.72,2.09-1.21,.25-2.23,1.03-2.73,2.1l-.32-.62Zm-41.25-1.47c1.2-.25,2.23-1.03,2.73-2.1l.32,.62c.24,.48,.78,.83,1.38,.93,.04,0,.07,0,.11,.01l3.26,.53s.05,0,.07,0c-.02,0-.04,0-.06,0l-3.36,.52c-.61,.09-1.15,.45-1.4,.93l-.33,.63c-.5-1.07-1.52-1.84-2.72-2.09m48.62,1.7s0,0,0-.01l-.07-.11c-.6-.82-1.49-1.38-2.51-1.59,1.02-.21,1.91-.76,2.52-1.6,.01-.02,.03-.04,.04-.06l.02-.03s.03-.04,.05-.06c.55-.72,1.39-1.14,2.3-1.14,2.09,0,2.26,2.21,2.26,2.89,0,.84-.19,1.56-.56,2.07-.32,.44-.75,.71-1.29,.79-.13,.02-.26,.03-.4,.03h0c-.92,0-1.8-.45-2.34-1.19m-57.54-1.7c0-.84,.19-1.56,.56-2.07,.39-.55,.96-.82,1.69-.82,.92,0,1.8,.45,2.34,1.19,0,0,0,0,0,.01l.07,.1c.6,.82,1.49,1.38,2.51,1.59-1.02,.21-1.91,.76-2.52,1.6-.01,.02-.03,.04-.04,.06l-.02,.03s-.03,.04-.05,.06c-.46,.6-1.12,.99-1.84,1.11-.15,.03-.3,.04-.45,.04h0c-2.09,0-2.25-2.21-2.26-2.89m20.61-.27c-.75-.12-1.26-.82-1.14-1.56,.12-.74,.82-1.26,1.56-1.14,.75,.12,1.26,.82,1.14,1.56-.09,.6-.57,1.05-1.14,1.14-.07,.01-.14,.02-.21,.02s-.14,0-.21-.02m19.35-1.14c-.12-.75,.39-1.45,1.14-1.56,.75-.12,1.45,.39,1.56,1.14,.12,.75-.39,1.45-1.14,1.56-.07,.01-.14,.02-.22,.02-.66,0-1.24-.48-1.35-1.15m-2.38-.7c-.08-.25-.06-.53,.06-.77,.12-.24,.33-.42,.59-.5,.53-.17,1.1,.12,1.27,.65,.02,.05,.03,.11,.04,.16,.03,.21,0,.42-.1,.61-.12,.24-.33,.42-.59,.5-.05,.02-.1,.03-.15,.04-.05,0-.1,.01-.16,.01-.42,0-.82-.27-.96-.7m-14.29,.64c-.53-.17-.82-.74-.65-1.27,.02-.05,.04-.1,.06-.15,.1-.19,.25-.34,.44-.44,.24-.12,.51-.14,.77-.06,.53,.17,.82,.74,.65,1.27-.08,.26-.26,.46-.5,.58-.1,.05-.2,.08-.3,.1-.05,0-.1,.01-.16,.01-.1,0-.21-.02-.31-.05m20.91,.58l-.69-.69c-.22-.22-.27-.52-.12-.8l.45-.86c.16-.31,.53-.55,.97-.62l1.95-.3s-.05,.07-.07,.12l-.45,.86c-.13,.26-.18,.53-.14,.79,.04,.26,.16,.5,.37,.7l.69,.69s.08,.07,.12,.1l-1.96,.31c-.08,.01-.16,.02-.24,.02-.34,0-.66-.11-.86-.31m-27.39,.3l-1.95-.32s.07-.06,.11-.09l.69-.68c.21-.2,.34-.45,.37-.71,.04-.26,0-.53-.13-.78l-.45-.86s-.05-.09-.08-.13l1.96,.31c.43,.07,.8,.31,.96,.62l.45,.87c.15,.28,.1,.58-.13,.8l-.69,.68c-.15,.15-.37,.25-.62,.29-.08,.01-.16,.02-.24,.02-.08,0-.17,0-.25-.02m30.76-.83l-.69-.69c-.23-.22-.27-.52-.13-.8l.45-.86c.15-.28,.47-.51,.86-.59l.11-.02c.43-.07,.86,.04,1.11,.29l.69,.69c.11,.11,.18,.24,.2,.38,.02,.14,0,.28-.08,.42l-.45,.86c-.16,.31-.53,.55-.96,.61-.08,.01-.16,.02-.24,.02-.34,0-.66-.11-.86-.31m-34.01,.3l-.11-.02c-.43-.07-.8-.31-.96-.62l-.45-.87c-.07-.14-.1-.28-.07-.42,.02-.14,.09-.27,.2-.38l.69-.68c.25-.25,.67-.36,1.1-.29,.43,.07,.8,.31,.96,.62l.45,.86c.15,.28,.1,.58-.13,.8l-.7,.68c-.15,.15-.37,.25-.61,.29-.08,.01-.16,.02-.24,.02-.05,0-.09,0-.14,0m5.1-3.12c.15-.02,.3-.07,.44-.14l.86-.43c-.02,.49,.16,.97,.49,1.34-.49,.1-.91,.39-1.18,.81l-.43-.84c-.17-.32-.46-.58-.82-.76,.13,.02,.25,.03,.37,.03,.1,0,.19,0,.28-.02m23.03,.78c.33-.37,.51-.86,.49-1.35l.84,.42c.32,.16,.72,.2,1.11,.13-.36,.17-.65,.43-.81,.74l-.45,.85c-.27-.41-.7-.69-1.18-.79m-5.08-.57c-.16-.22-.22-.48-.18-.75,.04-.26,.18-.5,.4-.66,.45-.33,1.08-.22,1.41,.22,.03,.04,.06,.09,.08,.14,.09,.19,.13,.4,.09,.61-.04,.27-.18,.5-.4,.66-.13,.1-.28,.16-.43,.18-.05,0-.11,.01-.16,.01-.31,0-.62-.14-.81-.41m-12.49,.22c-.45-.33-.55-.96-.22-1.41,.03-.04,.07-.09,.1-.12,.15-.15,.34-.25,.55-.28,.27-.04,.53,.02,.75,.18,.45,.33,.55,.96,.22,1.41-.16,.22-.39,.36-.66,.4h0c-.05,0-.11,.01-.16,.01-.21,0-.42-.07-.59-.19m-2.92,.31c-.67-.34-.94-1.17-.6-1.84,.34-.67,1.17-.94,1.84-.6,.67,.34,.94,1.17,.6,1.84-.21,.41-.59,.66-1.01,.73-.07,.01-.14,.02-.21,.02-.21,0-.42-.05-.62-.15m17.88-.6c-.34-.67-.07-1.5,.6-1.84,.67-.34,1.5-.07,1.84,.6,.34,.67,.07,1.5-.6,1.84-.13,.07-.27,.11-.41,.13-.07,.01-.14,.02-.21,.02-.5,0-.98-.27-1.22-.75m-31.61,3.51c-.94-.15-1.76-.64-2.29-1.37,0,0,0,0,0-.01h0s-.07-.1-.07-.1c0,0,0,0,0,0-.37-.56-.36-1.21-.22-2.08,.14-.88,.33-1.51,.89-1.94,.03-.02,.05-.04,.09-.06,.74-.53,1.66-.74,2.6-.59,1.84,.29,3.12,1.92,2.86,3.61-.21,1.34-1.33,2.33-2.7,2.55-.18,.03-.37,.04-.56,.04s-.38-.01-.57-.04m43.34-2.56c-.27-1.69,1.01-3.31,2.85-3.6,.94-.15,1.87,.06,2.6,.59,0,0,0,0,.01,0h0l.1,.07s0,0,0,0c.52,.41,.72,1.04,.86,1.91,.14,.88,.15,1.54-.24,2.12-.02,.03-.04,.06-.06,.09-.54,.73-1.35,1.22-2.28,1.36,0,0,0,0,0,0-.19,.03-.38,.04-.57,.04-1.61,0-3.02-1.08-3.26-2.6m-21.95-2.91c.07-.01,.15-.03,.22-.05,.42-.14,.73-.45,.88-.82,.02,.03,.04,.06,.07,.09,.22,.22,.49,.36,.79,.41,.07,.01,.15,.02,.23,.02,.44,0,.83-.2,1.09-.51,.02,.04,.02,.07,.04,.1,.14,.28,.36,.5,.63,.63,.07,.03,.14,.06,.21,.09,.42,.13,.85,.06,1.2-.15,0,.04,0,.08,0,.11,.05,.31,.19,.58,.4,.8,.05,.05,.11,.1,.18,.15,.36,.26,.79,.33,1.19,.23,0,.04-.02,.07-.03,.11-.05,.31,0,.61,.14,.88,.03,.07,.07,.13,.12,.2,.26,.35,.65,.55,1.06,.58-.02,.03-.04,.06-.06,.1-.14,.28-.19,.58-.14,.88,.01,.07,.03,.15,.06,.22,.13,.42,.45,.73,.82,.88-.03,.03-.06,.04-.09,.07-.22,.22-.36,.49-.41,.79-.01,.07-.02,.15-.02,.23,0,.44,.2,.83,.51,1.09-.04,.02-.07,.03-.11,.04-.27,.14-.49,.36-.63,.63-.03,.07-.06,.14-.09,.21-.13,.42-.06,.85,.15,1.2-.04,0-.08,0-.11,0-.3,.05-.58,.19-.79,.4-.06,.06-.1,.11-.15,.18-.26,.35-.32,.79-.23,1.19-.04-.01-.07-.02-.11-.03-.3-.05-.61,0-.88,.14-.07,.03-.13,.07-.2,.12-.35,.26-.55,.65-.58,1.06-.03-.02-.06-.04-.09-.06-.28-.14-.58-.19-.88-.14-.07,.01-.15,.03-.22,.05-.42,.13-.73,.45-.88,.82-.02-.03-.04-.06-.07-.09-.22-.22-.49-.36-.79-.41-.07-.01-.15-.02-.23-.02-.44,0-.83,.2-1.09,.51-.01-.04-.02-.07-.04-.11-.14-.28-.36-.49-.63-.63-.07-.03-.14-.06-.21-.09-.42-.13-.85-.06-1.2,.15,0-.04,0-.07,0-.11-.05-.3-.19-.58-.4-.8-.05-.05-.11-.1-.18-.15-.35-.26-.79-.33-1.18-.23,0-.04,.02-.07,.03-.11,.05-.3,0-.61-.14-.88-.03-.07-.07-.13-.12-.2-.26-.35-.65-.55-1.06-.58,.02-.03,.04-.06,.06-.09,.14-.28,.19-.58,.14-.88-.01-.07-.03-.15-.05-.22-.14-.42-.45-.73-.82-.88,.03-.02,.06-.05,.09-.07,.22-.22,.36-.49,.41-.79,.01-.07,.02-.15,.02-.23,0-.44-.2-.83-.51-1.09,.04-.01,.07-.02,.11-.04,.27-.14,.49-.36,.63-.63,.03-.07,.06-.14,.09-.21,.13-.42,.06-.85-.15-1.2,.04,0,.07,0,.11,0,.31-.05,.58-.19,.8-.4,.06-.06,.1-.11,.15-.18,.26-.36,.32-.79,.23-1.18,.04,0,.07,.02,.11,.03,.3,.05,.61,0,.88-.14,.07-.03,.13-.07,.2-.12,.36-.26,.55-.65,.58-1.06,.03,.02,.06,.04,.1,.06,.21,.1,.43,.16,.66,.16,.07,0,.15,0,.22-.02m6.23,.5c-.22-.16-.36-.39-.4-.66-.04-.27,.02-.53,.18-.75,.33-.45,.96-.55,1.41-.22,.05,.03,.09,.07,.12,.1,.15,.15,.25,.34,.28,.55,.04,.27-.02,.53-.18,.75-.16,.22-.4,.36-.66,.4-.05,0-.1,.01-.16,.01-.21,0-.41-.06-.59-.19m-8.8,.18c-.26-.04-.5-.18-.66-.4-.33-.45-.23-1.08,.22-1.41,.05-.03,.09-.06,.14-.09,.19-.1,.4-.13,.61-.1,.27,.04,.5,.19,.66,.4,.33,.45,.23,1.08-.22,1.41-.13,.09-.28,.16-.43,.18-.05,0-.1,.01-.16,.01s-.1,0-.16-.01m18.4,.92l3.04-1.54c.55-.28,.95-.78,1.04-1.31l.12-.71c.81,.86,2.01,1.28,3.24,1.15-1.07,.61-1.8,1.66-1.95,2.83l-.5-.49c-.38-.38-.99-.55-1.61-.46-.03,0-.07,.02-.1,.02l-3.26,.51s-.05,.01-.07,.02c.02,0,.04-.02,.06-.02m-33.61-2.43c.83-.13,1.59-.52,2.16-1.13l.11,.69c.09,.53,.48,1.03,1.03,1.32,.03,.01,.07,.03,.1,.04l2.94,1.51s.05,.02,.07,.03c-.02,0-.04,0-.06-.01l-3.36-.54c-.61-.1-1.23,.07-1.61,.45l-.51,.5c-.15-1.17-.88-2.22-1.94-2.83,.15,.02,.29,.02,.44,.02,.22,0,.43-.02,.64-.05m9.42-.23c-.06-.36-.26-.7-.55-.97,.34,.19,.73,.27,1.08,.22l.95-.14c-.17,.46-.15,.97,.05,1.42-.49-.05-.99,.09-1.38,.4l-.15-.93Zm21.68-.98c-.29,.27-.48,.61-.54,.96l-.16,.95c-.38-.3-.88-.45-1.37-.39,.2-.45,.22-.97,.04-1.43l.93,.14c.07,.01,.14,.02,.22,.02,.29,0,.6-.09,.88-.24m-8.99,1.57c-.26-.08-.46-.26-.59-.5-.12-.24-.14-.51-.06-.77,.17-.53,.74-.82,1.27-.64,.05,.02,.1,.04,.15,.06,.19,.09,.34,.25,.44,.44,.12,.24,.14,.51,.06,.77-.12,.37-.44,.63-.8,.69-.05,0-.1,.01-.16,.01-.1,0-.21-.02-.31-.05m-5-.06c-.24-.12-.42-.33-.5-.59-.17-.53,.12-1.1,.65-1.27,.05-.02,.1-.03,.16-.04,.21-.03,.42,0,.61,.1,.24,.12,.42,.33,.5,.58,.17,.53-.12,1.1-.65,1.27-.05,.02-.1,.03-.16,.04-.05,0-.1,.01-.16,.01-.16,0-.31-.04-.46-.11m-5.42,.21c-.53-.53-.54-1.4,0-1.93,.53-.53,1.4-.53,1.93,0,.53,.53,.53,1.4,0,1.93-.21,.21-.48,.34-.75,.38-.07,.01-.14,.02-.22,.02-.35,0-.7-.13-.97-.4m14.66,0c-.53-.53-.53-1.4,0-1.93,.54-.53,1.4-.53,1.94,0,.53,.53,.53,1.4,0,1.93-.21,.21-.48,.34-.75,.38-.07,.01-.14,.02-.21,.02-.35,0-.7-.13-.97-.4m5.85,1.46l-.87-.44c-.28-.14-.42-.41-.37-.72l.16-.96c.06-.35,.34-.69,.73-.88l1.77-.89s-.03,.09-.03,.13l-.16,.96c-.05,.28,0,.56,.11,.79,.12,.23,.31,.42,.57,.55l.87,.44s.09,.04,.14,.06l-1.77,.9c-.15,.07-.3,.12-.46,.15-.07,.01-.14,.02-.21,.02-.17,0-.33-.03-.47-.1m-25.59-.06l-1.76-.9s.09-.03,.13-.05l.87-.43c.26-.13,.46-.32,.58-.56,.12-.23,.16-.5,.11-.78l-.15-.96s-.02-.1-.04-.15l1.77,.91c.39,.2,.67,.54,.72,.89l.16,.96c.05,.31-.09,.58-.37,.72l-.87,.43c-.09,.04-.18,.07-.28,.09-.06,0-.12,.01-.19,.01-.22,0-.46-.06-.68-.17m12.67-2.18c-.19-.19-.29-.44-.29-.71,0-.56,.45-1.01,1.01-1.01,.05,0,.11,0,.16,.01,.21,.03,.4,.13,.55,.28,.19,.19,.3,.44,.3,.71,0,.5-.37,.92-.85,.99-.05,0-.1,.01-.16,.01-.27,0-.52-.1-.71-.3m15.97,.7l-.87-.44c-.28-.14-.42-.41-.37-.72l.16-.96c.05-.32,.29-.63,.63-.83l.09-.05c.39-.2,.83-.22,1.15-.06l.87,.44c.14,.07,.24,.17,.31,.3,.06,.12,.08,.27,.06,.42l-.16,.96c-.06,.35-.34,.69-.72,.88-.15,.07-.3,.12-.46,.15-.07,.01-.15,.02-.21,.02-.17,0-.33-.04-.47-.1m-31.57-.02l-.1-.05c-.39-.2-.66-.54-.72-.89l-.16-.96c-.03-.15,0-.3,.06-.42,.06-.12,.17-.22,.31-.29l.87-.43c.31-.16,.75-.13,1.14,.07,.39,.2,.67,.54,.72,.89l.16,.96c.05,.31-.09,.58-.37,.72l-.87,.43c-.09,.04-.18,.07-.28,.09-.06,0-.12,.01-.18,.01-.19,0-.39-.04-.58-.12m20.4-1.56c-.67-.34-.94-1.17-.6-1.84,.34-.67,1.17-.94,1.84-.6,.67,.34,.94,1.17,.6,1.84-.21,.4-.59,.66-1.01,.73-.07,.01-.14,.02-.21,.02-.21,0-.42-.05-.62-.15m-10.01-.6c-.34-.67-.07-1.5,.6-1.84,.67-.34,1.5-.08,1.84,.6,.34,.67,.07,1.5-.6,1.84-.13,.07-.27,.11-.4,.13-.07,.01-.14,.02-.21,.02-.5,0-.98-.27-1.22-.75m-1.93-1.39c.05-.36-.03-.74-.22-1.1,.27,.29,.61,.48,.96,.54l.95,.16c-.3,.38-.44,.88-.39,1.37-.45-.2-.97-.22-1.43-.04l.14-.93Zm14.02-.4l.93-.15c.36-.06,.7-.26,.97-.55-.19,.35-.27,.73-.22,1.08l.14,.95c-.46-.17-.97-.15-1.42,.05,.05-.49-.09-.99-.4-1.38m-9.14,.39c-.12-.75,.39-1.45,1.14-1.56,.74-.12,1.45,.39,1.56,1.14,.12,.74-.39,1.45-1.14,1.56-.07,.01-.14,.02-.21,.02-.66,0-1.24-.48-1.35-1.15m4.38,1.14c-.75-.12-1.26-.82-1.14-1.56,.12-.75,.82-1.26,1.56-1.14,.75,.12,1.25,.82,1.14,1.56-.09,.6-.57,1.05-1.14,1.14-.07,.01-.14,.02-.21,.02s-.14,0-.21-.02m23.2-.79s.01-.05,.02-.07v-.03s.03-.05,.04-.08c.3-.86,.97-1.51,1.83-1.8,1.99-.65,2.83,1.41,3.04,2.05,.26,.8,.3,1.54,.11,2.14-.2,.64-.66,1.08-1.35,1.31-.15,.05-.29,.08-.44,.11-.75,.12-1.53-.06-2.15-.52,0,0,0,0-.01-.01l-.1-.08c-.83-.6-1.84-.85-2.88-.73,.9-.51,1.58-1.32,1.9-2.3m-52.9,3.53c-1.99-.64-1.46-2.8-1.25-3.45,.26-.8,.66-1.42,1.17-1.8,.54-.4,1.17-.49,1.86-.26,.88,.28,1.57,.98,1.86,1.86,0,0,0,.01,0,.02l.04,.12c.32,.97,.99,1.77,1.89,2.28-1.03-.12-2.05,.14-2.89,.74-.02,.01-.04,.03-.06,.04l-.03,.02s-.04,.03-.07,.04c-.37,.25-.78,.42-1.2,.48-.15,.02-.3,.03-.45,.03-.3,0-.6-.05-.89-.14m17.1-2.7l-1.39-1.4s.09,0,.14,0l.96-.14s.01,0,.02,0c.28-.05,.52-.17,.7-.35,.19-.18,.31-.43,.35-.71l.15-.96c0-.05,.01-.1,.01-.15l1.4,1.41c.31,.31,.47,.72,.41,1.07l-.15,.96c-.05,.31-.26,.52-.58,.57l-.96,.14s-.09,.01-.13,.01c-.32,0-.66-.16-.93-.43m21.29,.41l-.96-.15c-.31-.05-.52-.26-.57-.57l-.14-.96c-.05-.35,.11-.76,.42-1.06l1.4-1.39s0,.09,.01,.14l.14,.96c.04,.29,.17,.53,.35,.72,.18,.18,.43,.31,.71,.35l.96,.15s.1,0,.15,.01l-1.41,1.4c-.22,.22-.5,.37-.77,.41-.05,0-.11,.01-.16,.01-.05,0-.09,0-.14,0m-14.48-3.52c.16-.32,.2-.72,.13-1.11,.17,.35,.43,.65,.74,.81l.85,.45c-.41,.27-.7,.7-.8,1.18-.37-.33-.86-.51-1.35-.48l.42-.84Zm7.02,.14l.84-.43c.32-.16,.58-.46,.76-.82-.07,.39-.04,.78,.12,1.09l.43,.86c-.49-.02-.97,.15-1.34,.48-.1-.49-.39-.91-.81-1.18m-17.12-1.3l-.11,.69c-.08,.53,.14,1.13,.57,1.57,.03,.03,.05,.05,.08,.07l2.33,2.34s.04,.03,.06,.05c-.02,0-.03-.02-.05-.03l-3.03-1.56c-.55-.28-1.19-.31-1.67-.07l-.64,.32c.22-1.16-.15-2.38-.97-3.29,.53,.24,1.1,.36,1.66,.36,.62,0,1.24-.15,1.78-.45m26.07,4.68l2.41-2.4c.44-.44,.66-1.04,.59-1.57l-.1-.71c1.03,.57,2.31,.59,3.43,.09-.82,.91-1.2,2.14-.97,3.3l-.62-.31c-.48-.24-1.12-.22-1.67,.06-.03,.02-.06,.04-.09,.05l-2.95,1.49s-.04,.03-.06,.04c.02-.01,.03-.03,.04-.04m-12.72-3.62l.66-.67c.25-.26,.41-.62,.46-1.02,.05,.39,.21,.75,.46,1l.67,.69c-.47,.13-.88,.45-1.12,.88-.25-.43-.66-.75-1.13-.88m-21.12,4.21c-.85-.43-1.47-1.15-1.76-2.01,0,0,0-.01,0-.02h0s-.04-.12-.04-.12c0,0,0,0,0,0-.18-.64,.03-1.26,.43-2.05,.41-.79,.78-1.33,1.44-1.57,.03-.01,.06-.02,.1-.03,.87-.28,1.81-.19,2.66,.24,1.66,.85,2.38,2.79,1.6,4.32-.45,.88-1.3,1.44-2.26,1.59-.18,.03-.36,.04-.54,.04-.54,0-1.1-.13-1.63-.39m40.07-1.25c-.78-1.53-.06-3.46,1.6-4.31,.85-.43,1.8-.52,2.66-.24,0,0,0,0,.01,0h0s.12,.04,.12,.04c0,0,0,0,0,0,.63,.23,1,.76,1.4,1.55,.41,.79,.62,1.42,.42,2.09-.01,.03-.02,.06-.03,.1-.29,.87-.91,1.58-1.75,2.01-.35,.18-.71,.29-1.08,.35-.18,.03-.37,.04-.55,.04-1.17,0-2.27-.59-2.81-1.64m-5.3-1.76l-.96-.15c-.31-.05-.53-.26-.57-.57l-.14-.96c-.05-.32,.08-.69,.34-.98l.07-.07c.31-.31,.72-.47,1.07-.41l.96,.15c.15,.02,.29,.09,.38,.19,.1,.1,.16,.23,.18,.38l.14,.96c.05,.35-.11,.75-.42,1.06-.22,.22-.5,.37-.77,.41-.06,0-.11,.01-.16,.01-.04,0-.09,0-.14-.01m-26.03-.34l-.07-.08c-.31-.31-.47-.72-.41-1.07l.15-.96c.03-.16,.09-.29,.19-.38,.1-.1,.23-.16,.39-.18l.96-.14c.35-.05,.75,.11,1.06,.42,.31,.31,.47,.72,.41,1.07l-.15,.96c-.05,.31-.26,.52-.57,.57,0,0,0,0,0,0l-.96,.14s-.09,.01-.13,.01c-.28,0-.6-.13-.85-.35m6.24-2.25c.12-.02,.25-.06,.36-.12,.23-.12,.43-.31,.55-.57l.44-.87s.04-.09,.06-.14l.9,1.77c.2,.39,.22,.83,.06,1.14l-.44,.87c-.14,.28-.41,.42-.72,.36l-.96-.16c-.35-.06-.69-.34-.88-.73l-.89-1.77s.09,.03,.14,.03l.96,.16c.08,.01,.16,.02,.23,.02,.07,0,.13,0,.2-.02m12.59,2.08l-.43-.87c-.16-.31-.13-.75,.07-1.14l.9-1.76s.03,.09,.05,.13l.43,.87c.13,.26,.32,.46,.56,.57,.23,.12,.5,.16,.79,.11l.96-.15c.05,0,.1-.02,.15-.04l-.91,1.77c-.2,.39-.54,.67-.89,.72l-.96,.16h0s-.08,.01-.12,.01c-.26,0-.47-.14-.59-.38m-7.71-3.67c.26-.04,.5-.16,.7-.37l.68-.69s.07-.08,.1-.12l.3,1.96c.07,.43-.05,.86-.29,1.11l-.68,.69c-.11,.11-.24,.18-.38,.2-.14,.02-.28,0-.42-.08l-.86-.45c-.31-.16-.55-.53-.62-.97l-.3-1.96s.08,.05,.12,.07l.86,.45c.2,.1,.4,.15,.6,.15,.06,0,.12,0,.19-.01m3.93,2.58l-.68-.69c-.25-.25-.36-.68-.29-1.11l.31-1.95s.06,.07,.09,.1l.68,.69c.2,.21,.45,.33,.71,.37,.26,.04,.53,0,.78-.13l.86-.45s.09-.05,.13-.08l-.32,1.96c-.07,.43-.31,.8-.62,.96l-.86,.45c-.07,.04-.15,.06-.22,.07-.03,0-.07,0-.1,0-.17,0-.34-.07-.48-.21m5.33-1.95l-.43-.87c-.14-.29-.13-.68,.02-1.04l.05-.1c.2-.39,.54-.67,.89-.72l.96-.16c.16-.03,.3,0,.42,.06,.12,.06,.22,.17,.29,.31l.43,.87c.16,.31,.13,.75-.07,1.14-.2,.39-.54,.67-.89,.72l-.96,.16s0,0,0,0c-.04,0-.08,0-.12,0-.26,0-.48-.14-.6-.38m-14.48,.37l-.96-.16c-.32-.05-.63-.29-.83-.63l-.05-.1c-.2-.39-.22-.83-.06-1.14l.44-.87c.07-.14,.17-.24,.3-.31,.12-.06,.27-.08,.42-.06l.96,.16c.35,.06,.69,.33,.88,.72,.2,.39,.22,.83,.06,1.14l-.44,.87c-.1,.21-.28,.34-.49,.37-.03,0-.07,0-.11,0-.04,0-.08,0-.13-.01m-5.41-3.89c.91,.83,2.14,1.2,3.3,.97l-.31,.63c-.24,.48-.22,1.12,.06,1.67,.02,.03,.04,.06,.05,.09l1.49,2.95s.03,.04,.04,.06c-.01-.01-.03-.03-.04-.04l-2.4-2.41c-.44-.44-1.04-.66-1.57-.59l-.71,.1c.57-1.03,.59-2.31,.09-3.43m23.99,.99c.74-.12,1.46-.46,2.05-.99-.5,1.13-.48,2.41,.09,3.44l-.69-.11c-.53-.08-1.13,.14-1.57,.57-.03,.03-.05,.05-.07,.08l-2.34,2.33s-.03,.04-.05,.06c0-.02,.02-.03,.03-.05l1.55-3.03c.28-.55,.31-1.19,.07-1.67l-.32-.64c.22,.04,.45,.06,.67,.06,.19,0,.39-.02,.58-.05m-8.88,1.11l-.68-.7c-.23-.23-.34-.6-.3-1l.02-.1c.07-.43,.31-.8,.62-.96l.86-.45c.14-.07,.28-.1,.42-.07,.14,.02,.27,.09,.38,.2l.68,.69c.25,.25,.36,.67,.29,1.1-.07,.43-.31,.8-.62,.96l-.87,.45c-.07,.04-.15,.06-.22,.07-.03,0-.07,0-.1,0-.17,0-.34-.07-.48-.21m-4.99,.13l-.86-.45c-.28-.15-.51-.47-.59-.85l-.02-.11c-.07-.43,.05-.86,.3-1.11l.68-.69c.11-.11,.24-.18,.38-.2,.14-.02,.28,0,.42,.08l.86,.45c.31,.16,.55,.53,.61,.96,.07,.43-.05,.86-.3,1.11l-.68,.69c-.11,.11-.24,.18-.38,.2-.03,0-.07,0-.1,0-.11,0-.22-.03-.33-.08m23.32-1.12s0-.05,0-.07v-.03s0-.05,0-.08c.02-.91,.45-1.74,1.19-2.27,1.69-1.23,3.13,.46,3.53,1.01,.5,.68,.76,1.38,.77,2.01,0,.67-.29,1.23-.88,1.66-.75,.54-1.72,.7-2.6,.41,0,0,0,0-.01,0l-.12-.04c-.97-.31-2.01-.24-2.96,.19,.7-.77,1.09-1.74,1.1-2.77m-45.42,2.22c-1.69-1.23-.53-3.12-.13-3.67,.49-.68,1.07-1.15,1.67-1.35,.64-.21,1.26-.1,1.86,.33,.75,.54,1.19,1.42,1.19,2.34v.14c0,1.02,.39,1.99,1.09,2.76-.95-.43-1.99-.5-2.98-.18-.02,0-.04,.01-.07,.02h-.03s-.05,.02-.08,.03c-.13,.04-.26,.07-.39,.09-.15,.02-.31,.03-.46,.03-.6,0-1.18-.19-1.68-.55m6.26,.26c-.67-.67-1.05-1.55-1.05-2.45v-.02h0v-.13s0,0,0,0c.03-.67,.42-1.19,1.04-1.81,.63-.63,1.16-1.03,1.86-1.05h.1c.91,0,1.78,.38,2.45,1.05,1.32,1.32,1.4,3.39,.18,4.6-.57,.57-1.34,.86-2.12,.86-.87,0-1.78-.35-2.47-1.05m32.88,.19c-1.21-1.21-1.13-3.28,.19-4.6,.67-.67,1.55-1.04,2.45-1.05h.02s.12,0,.12,0h0c.67,.03,1.19,.42,1.81,1.04,.63,.63,1.03,1.16,1.05,1.86v.05h0s0,.03,0,.05c0,.91-.38,1.78-1.05,2.45-.56,.55-1.25,.89-1.95,1-.17,.03-.35,.04-.52,.04-.79,0-1.55-.28-2.13-.86m-18.58,.52l-1.54-3.04c-.28-.55-.78-.95-1.31-1.04l-.71-.12c.86-.81,1.28-2.01,1.15-3.24,.61,1.07,1.66,1.8,2.84,1.94l-.49,.5c-.38,.38-.55,1-.46,1.61,0,.04,.02,.07,.02,.11l.5,3.26s.01,.05,.02,.07c0-.02-.02-.03-.02-.05m8.86,0l.54-3.36c.1-.61-.07-1.23-.45-1.62l-.5-.51s.07-.01,.11-.02c1.12-.18,2.13-.9,2.72-1.93-.13,1.23,.29,2.43,1.15,3.24l-.69,.11c-.53,.09-1.03,.48-1.32,1.03-.02,.03-.03,.07-.04,.1l-1.51,2.94s-.02,.04-.03,.07c0-.02,0-.04,.01-.06m-4.43-.7l-.52-3.36c-.09-.61-.45-1.15-.92-1.4l-.63-.33c1.07-.5,1.84-1.52,2.09-2.72,.25,1.21,1.03,2.23,2.1,2.73l-.62,.32c-.48,.24-.83,.77-.93,1.38,0,.04,0,.07-.01,.11l-.53,3.26s0,.05,0,.07c0-.02,0-.04,0-.06m-13.38-5.09c-.43-.85-.52-1.8-.24-2.66,0,0,0-.01,0-.01h0l.04-.12s0,0,0,0c.23-.63,.76-1,1.55-1.41,.79-.4,1.42-.62,2.09-.42,.03,0,.07,.02,.1,.03,.87,.29,1.58,.91,2.01,1.75,.84,1.66,.28,3.65-1.25,4.43-.42,.21-.87,.31-1.31,.31-1.19,0-2.38-.71-3-1.92m23.37-4.63s0,0,0,0c.64-.18,1.26,.03,2.05,.43,.79,.4,1.33,.78,1.57,1.44,0,.01,.01,.03,.02,.05h0s.01,.03,.02,.05c.28,.87,.19,1.81-.24,2.66-.85,1.66-2.79,2.38-4.32,1.6-1.53-.78-2.08-2.77-1.24-4.43,.43-.85,1.15-1.47,2.01-1.75h.02s0,0,0,0l.12-.04Zm4.24,1.75s-.02-.05-.02-.07v-.03s-.02-.05-.03-.08c-.26-.87-.11-1.8,.43-2.53,1.23-1.69,3.12-.53,3.66-.13,.69,.49,1.15,1.07,1.35,1.67,.21,.64,.1,1.26-.33,1.85-.54,.75-1.42,1.19-2.34,1.19,0,0-.01,0-.02,0h-.13c-1.02,0-1.99,.39-2.76,1.09,.43-.95,.5-1.99,.19-2.98m-31.22,1.88c-.91-.02-1.74-.45-2.27-1.19-1.23-1.69,.46-3.13,1.01-3.52,.68-.5,1.38-.76,2-.77,.67,0,1.23,.3,1.66,.89,.55,.75,.69,1.72,.41,2.6,0,0,0,0,0,.01l-.04,.12c-.31,.97-.24,2.01,.19,2.96-.77-.7-1.74-1.09-2.77-1.1-.02,0-.04,0-.07,0h-.03s-.05,0-.08,0m10.26-2.19c-.15-.94,.06-1.87,.59-2.6,0,0,0,0,0-.01h0l.07-.1s0,0,0,0c.41-.53,1.04-.72,1.91-.86,.88-.14,1.54-.15,2.12,.24,.03,.02,.06,.04,.09,.06,.73,.54,1.22,1.35,1.37,2.29,.29,1.84-.86,3.56-2.56,3.83-.15,.02-.3,.04-.45,.04-1.52,0-2.89-1.21-3.16-2.89m8.8-3.34s0,0,0,0c.56-.37,1.21-.36,2.08-.22,.88,.14,1.51,.33,1.94,.89,.02,.03,.04,.06,.06,.08,.53,.74,.74,1.67,.59,2.6-.29,1.84-1.91,3.12-3.61,2.85-1.69-.27-2.83-1.99-2.55-3.83,.15-.94,.64-1.76,1.37-2.29,0,0,0,0,.01-.01h0s.1-.07,.1-.07Zm4.58,.35s-.03-.04-.04-.06l-.02-.03s-.03-.04-.04-.07c-.52-.75-.66-1.67-.38-2.53,.64-1.99,2.8-1.46,3.45-1.26,.8,.26,1.42,.66,1.8,1.17,.4,.54,.49,1.17,.26,1.87-.28,.88-.98,1.57-1.86,1.86,0,0,0,0-.02,0l-.12,.04c-.97,.32-1.77,.99-2.28,1.89,.12-1.04-.14-2.05-.74-2.89m-16.31,.99s-.05-.01-.07-.02h-.03s-.05-.03-.08-.04c-.86-.3-1.51-.97-1.79-1.83-.65-1.99,1.41-2.83,2.05-3.04,.8-.26,1.54-.3,2.14-.11,.64,.2,1.08,.66,1.31,1.35,.29,.88,.13,1.85-.41,2.6,0,0,0,0-.01,.01l-.08,.1c-.59,.83-.85,1.84-.73,2.88-.52-.91-1.32-1.58-2.3-1.9m8.08-1.78s-.04-.03-.06-.04l-.03-.02s-.04-.03-.06-.05c-.73-.55-1.14-1.39-1.14-2.3,0-2.09,2.21-2.26,2.89-2.26,.84,0,1.56,.19,2.07,.56,.55,.39,.82,.96,.82,1.69,0,.93-.45,1.8-1.19,2.34,0,0,0,0-.01,0l-.1,.08c-.82,.6-1.38,1.49-1.59,2.51-.21-1.02-.76-1.91-1.6-2.52m1.6-5.29c-.3,0-.58,.02-.84,.06h-.05c-1.64,.28-2.63,1.3-2.62,2.83,0,.69,.2,1.36,.57,1.92-.44-.03-.89,.02-1.3,.09-.41,.06-.84,.15-1.25,.32,.18-.65,.17-1.35-.05-2.01-.29-.89-.88-1.49-1.71-1.76-.72-.23-1.6-.19-2.53,.11-2.06,.67-3,2.14-2.45,3.83,.22,.66,.61,1.23,1.14,1.65-.43,.1-.84,.29-1.21,.48-.37,.19-.76,.4-1.09,.69-.03-.68-.26-1.34-.67-1.9-.55-.75-1.3-1.15-2.17-1.14-.76,0-1.58,.31-2.37,.89-1.75,1.28-2.2,2.97-1.15,4.4,.41,.56,.96,.98,1.59,1.22-.38,.23-.71,.54-1,.84-.29,.29-.6,.62-.83,.99-.24-.63-.66-1.19-1.22-1.6-.75-.55-1.59-.69-2.42-.42-.72,.24-1.41,.78-1.98,1.58-1.27,1.76-1.17,3.5,.27,4.54,.56,.41,1.22,.63,1.89,.67-.29,.34-.51,.73-.7,1.11-.19,.37-.37,.77-.48,1.2-.43-.53-1-.93-1.66-1.14-.88-.29-1.73-.16-2.43,.35-.61,.45-1.09,1.18-1.4,2.11-.67,2.07-.03,3.69,1.66,4.24,.66,.21,1.35,.23,2,.05-.17,.41-.26,.85-.32,1.27-.07,.41-.12,.85-.09,1.29-.57-.37-1.24-.58-1.93-.58-.93,0-1.69,.38-2.2,1.09-.44,.62-.68,1.46-.68,2.44,0,2.17,1.11,3.52,2.89,3.52,.7,0,1.36-.2,1.92-.57-.04,.44,.02,.89,.08,1.3,.07,.41,.15,.84,.32,1.26-.65-.18-1.36-.17-2.01,.05-.89,.29-1.5,.88-1.76,1.71-.23,.72-.19,1.6,.11,2.53,.67,2.07,2.14,3.01,3.83,2.46,.66-.22,1.23-.61,1.65-1.14,.1,.43,.29,.84,.48,1.21,.19,.37,.4,.76,.69,1.09-.68,.03-1.34,.26-1.9,.67-.75,.55-1.15,1.3-1.14,2.17,0,.76,.31,1.58,.89,2.37,1.28,1.75,2.97,2.19,4.4,1.15,.57-.41,.98-.96,1.22-1.59,.23,.38,.54,.71,.84,1,.29,.29,.62,.6,1,.83-.63,.24-1.19,.66-1.6,1.22-.55,.75-.69,1.59-.42,2.42,.24,.72,.78,1.41,1.57,1.98,1.76,1.27,3.5,1.17,4.54-.27,.41-.56,.63-1.22,.66-1.89,.34,.29,.73,.51,1.11,.7,.37,.19,.77,.37,1.2,.48-.53,.43-.93,1-1.14,1.66-.29,.89-.17,1.73,.35,2.43,.45,.61,1.18,1.09,2.11,1.4,2.07,.67,3.69,.03,4.24-1.66,.21-.66,.22-1.36,.05-2,.41,.17,.85,.26,1.27,.32,.41,.06,.85,.12,1.29,.09-.37,.57-.58,1.24-.58,1.93,0,.93,.38,1.69,1.09,2.2,.62,.44,1.46,.68,2.43,.68h0c2.17,0,3.52-1.11,3.52-2.89,0-.7-.2-1.36-.57-1.92,.45,.03,.89-.02,1.3-.09,.41-.07,.85-.15,1.26-.32-.18,.65-.17,1.35,.05,2.01,.29,.88,.88,1.49,1.71,1.76,.72,.23,1.6,.19,2.53-.11,2.07-.67,3-2.14,2.45-3.83-.22-.66-.61-1.23-1.14-1.65,.43-.1,.84-.29,1.21-.48,.37-.19,.76-.4,1.1-.69,.03,.68,.26,1.34,.67,1.9,.55,.75,1.3,1.15,2.17,1.14,.76,0,1.58-.31,2.37-.89,1.75-1.28,2.2-2.97,1.15-4.4-.41-.57-.96-.98-1.59-1.22,.38-.23,.71-.54,1-.84,.29-.29,.6-.62,.83-1,.24,.63,.66,1.19,1.22,1.6,.75,.55,1.59,.69,2.42,.42,.72-.24,1.41-.78,1.98-1.58,1.27-1.76,1.17-3.5-.27-4.54-.56-.41-1.22-.63-1.89-.66,.29-.34,.51-.73,.7-1.11,.19-.37,.38-.77,.48-1.2,.43,.53,1,.93,1.66,1.14,.88,.29,1.73,.16,2.43-.35,.61-.45,1.09-1.18,1.4-2.11,.67-2.07,.03-3.69-1.66-4.24-.66-.21-1.36-.23-2-.05,.17-.41,.26-.85,.32-1.27,.06-.41,.12-.85,.08-1.29,.57,.37,1.24,.58,1.93,.58,.93,0,1.69-.38,2.2-1.09,.44-.62,.68-1.46,.67-2.44,0-.3-.02-.58-.06-.84v-.05c-.28-1.64-1.3-2.63-2.83-2.62-.7,0-1.36,.2-1.92,.57,.03-.45-.02-.89-.09-1.3-.06-.41-.15-.85-.32-1.26,.66,.18,1.35,.17,2.01-.05,.89-.29,1.49-.88,1.76-1.71,.23-.73,.19-1.6-.11-2.53-.67-2.07-2.14-3-3.83-2.45-.66,.22-1.23,.61-1.65,1.14-.1-.43-.29-.84-.48-1.21-.19-.37-.4-.76-.69-1.1,.68-.03,1.34-.26,1.9-.67,.75-.55,1.15-1.3,1.14-2.17,0-.76-.31-1.58-.89-2.37-1.28-1.75-2.97-2.2-4.4-1.15-.56,.41-.98,.96-1.22,1.59-.23-.38-.54-.71-.84-1-.29-.29-.62-.6-1-.83,.63-.24,1.19-.66,1.6-1.22,.55-.75,.69-1.59,.42-2.42-.24-.72-.78-1.41-1.58-1.98-1.76-1.27-3.5-1.17-4.54,.27-.41,.57-.63,1.22-.67,1.89-.34-.29-.73-.51-1.11-.7-.37-.19-.77-.38-1.2-.48,.53-.43,.93-1,1.14-1.66,.29-.89,.16-1.73-.35-2.43-.45-.61-1.18-1.09-2.11-1.4-2.07-.67-3.69-.03-4.24,1.66-.21,.66-.22,1.35-.05,2-.41-.17-.85-.26-1.27-.32-.41-.06-.85-.12-1.29-.08,.37-.57,.58-1.24,.58-1.93,0-.93-.38-1.69-1.09-2.2-.62-.44-1.46-.68-2.43-.68h0Z"/>
    </clipPath>
  </defs>
  <g id="PHOTOGRAPHY">
    <g>
      <g>
        <path class="cls-4" d="M181.02,21.4V90.61H0V21.4C0,9.58,9.59,0,21.41,0H159.62c11.82,0,21.4,9.58,21.4,21.4Z"/>
        <path class="cls-3" d="M0,159.82V90.61H181.02v69.21c0,11.82-9.59,21.4-21.41,21.4H21.4c-11.82,0-21.4-9.58-21.4-21.4Z"/>
      </g>
      <g>
        <g>
          <polygon class="cls-2" points="101.28 63.76 109.61 63.76 109.61 65.48 103.37 65.48 103.37 68.69 109 68.69 109.26 70.42 103.37 70.42 103.37 73.89 109.79 73.89 109.79 75.61 101.28 75.61 101.28 63.76"/>
          <polygon class="cls-2" points="115.64 70.99 112.38 75.61 110.08 75.61 114.46 69.48 110.45 63.88 112.71 63.62 115.82 67.98 118.73 63.76 121.01 63.76 117.04 69.46 121.47 75.48 119.18 75.75 115.64 70.99"/>
          <path class="cls-2" d="M131.8,67.68c0,2.34-1.64,3.94-4.57,3.94h-2.98v3.99h-2.09v-11.86h5.07c2.93,0,4.57,1.6,4.57,3.92m-2.14,0c0-1.45-1.05-2.2-2.51-2.2h-2.89v4.41h2.89c1.47,0,2.51-.77,2.51-2.22"/>
          <path class="cls-2" d="M132.36,69.69c0-3.38,2.3-6.1,6.33-6.1s6.31,2.72,6.31,6.1-2.3,6.1-6.31,6.1-6.33-2.7-6.33-6.1m2.13,0c0,2.58,1.55,4.38,4.18,4.38s4.18-1.8,4.18-4.38-1.53-4.38-4.18-4.38-4.18,1.8-4.18,4.38"/>
          <path class="cls-2" d="M101.28,91.59h4.04c3.77,0,6.07,2.44,6.07,5.93s-2.3,5.93-6.07,5.93h-4.04v-11.85Zm9.41,5.93c0-3.22-2.11-5.27-5.39-5.27h-3.33v10.53h3.33c3.28,0,5.39-2.02,5.39-5.27"/>
          <path class="cls-2" d="M113.9,91.5v7.57c0,2.16,1.43,3.89,4.18,3.89s4.18-1.73,4.18-3.89v-7.39l.7-.17v7.58c0,2.41-1.53,4.53-4.88,4.53s-4.88-2.3-4.88-4.53v-7.41l.7-.17Z"/>
          <path class="cls-2" d="M134.02,94.64c0,1.38-.75,2.37-1.88,2.72,1.48,.28,2.23,1.32,2.23,2.89,0,2.2-1.38,3.19-3.92,3.19h-4.97v-11.86h4.46c2.55,0,4.08,.87,4.08,3.05m-.7,.02c0-2.18-1.67-2.41-3.56-2.41h-3.59v4.78h3.59c1.88,0,3.56-.17,3.56-2.37m-7.15,8.12h4.1c1.9,0,3.4-.33,3.4-2.53s-1.5-2.56-3.4-2.56h-4.1v5.09Z"/>
          <path class="cls-2" d="M144.09,100.3h-6.94l-1.36,3.14h-.73l5.2-11.85,.7-.18,5.26,11.94-.7,.17-1.43-3.22Zm-.28-.66l-3.21-7.27-3.16,7.27h6.36Z"/>
          <polygon class="cls-2" points="147.77 103.44 147.77 91.67 148.47 91.5 148.47 103.01 148.47 103.44 147.77 103.44"/>
          <path class="cls-2" d="M101.98,105.41v7.57c0,2.16,1.43,3.89,4.18,3.89s4.18-1.73,4.18-3.89v-7.39l.7-.17v7.58c0,2.41-1.53,4.53-4.88,4.53s-4.88-2.3-4.88-4.53v-7.41l.7-.17Z"/>
          <path class="cls-2" d="M121.12,114.22h-6.94l-1.36,3.14h-.73l5.2-11.85,.7-.18,5.26,11.94-.7,.17-1.43-3.22Zm-.28-.66l-3.21-7.27-3.16,7.27h6.36Z"/>
          <polygon class="cls-2" points="124.79 105.5 132.81 105.5 132.81 106.16 125.49 106.16 125.49 110.94 132.29 110.94 132.47 111.6 125.49 111.6 125.49 116.69 132.99 116.69 132.99 117.35 124.79 117.35 124.79 105.5"/>
          <path class="cls-2" d="M105.24,77.5c2.32,0,4.34,1.03,4.34,3.4,0,3.76-6.28,4.41-6.28,6.9h6.24l.26,1.72h-8.8v-1.08c0-4.5,6.45-4.58,6.45-7.44,0-1.36-1.15-1.86-2.44-1.86-1.2,0-2.26,.51-3.4,1.17l-.31-1.66c1.26-.7,2.51-1.15,3.94-1.15"/>
          <path class="cls-2" d="M110.45,83.6c0-3.38,1.73-6.1,5.27-6.1s5.28,2.72,5.28,6.1-1.74,6.1-5.28,6.1-5.27-2.7-5.27-6.1m2.14,0c0,2.67,.98,4.46,3.14,4.46s3.14-1.8,3.14-4.46-.98-4.46-3.14-4.46-3.14,1.8-3.14,4.46"/>
          <path class="cls-2" d="M125.9,77.5c2.32,0,4.34,1.03,4.34,3.4,0,3.76-6.27,4.41-6.27,6.9h6.24l.26,1.72h-8.8v-1.08c0-4.5,6.45-4.58,6.45-7.44,0-1.36-1.15-1.86-2.44-1.86-1.2,0-2.26,.51-3.4,1.17l-.31-1.66c1.25-.7,2.51-1.15,3.94-1.15"/>
          <path class="cls-2" d="M131.11,83.6c0-3.38,1.73-6.1,5.27-6.1s5.28,2.72,5.28,6.1-1.74,6.1-5.28,6.1-5.27-2.7-5.27-6.1m2.14,0c0,2.67,.98,4.46,3.14,4.46s3.14-1.8,3.14-4.46-.98-4.46-3.14-4.46-3.14,1.8-3.14,4.46"/>
        </g>
        <g>
          <path class="cls-2" d="M58.65,121.11c-.55-.39-.82-.96-.82-1.69,0-.92,.45-1.8,1.19-2.34,0,0,0,0,.01,0l.1-.07c.82-.6,1.38-1.49,1.59-2.51,.21,1.02,.76,1.9,1.6,2.52,.02,.01,.04,.03,.06,.04l.03,.02s.04,.03,.06,.05c.73,.55,1.14,1.39,1.14,2.3,0,1.57-1.25,2.06-2.16,2.2-.3,.05-.56,.06-.73,.06h0c-.84,0-1.56-.19-2.07-.56m-7.53-.96c-.8-.26-1.42-.66-1.8-1.17-.4-.54-.49-1.17-.26-1.87,.28-.88,.98-1.57,1.86-1.86,0,0,.01,0,.02,0l.12-.04c.97-.32,1.77-.99,2.28-1.89-.12,1.04,.14,2.05,.74,2.89,.01,.02,.03,.04,.04,.06l.02,.03s.03,.04,.04,.07c.52,.75,.66,1.67,.38,2.53-.31,.96-.97,1.33-1.65,1.44-.16,.03-.31,.04-.47,.04-.56,0-1.07-.14-1.33-.22m17.06,.11c-.64-.2-1.08-.66-1.31-1.36-.29-.88-.13-1.85,.41-2.59,0,0,0,0,.01-.01l.08-.1c.6-.82,.85-1.84,.73-2.88,.51,.91,1.32,1.58,2.3,1.9,.02,0,.05,.01,.07,.02h.03s.05,.03,.08,.04c.86,.3,1.51,.97,1.8,1.83,.65,1.99-1.41,2.83-2.05,3.04-.25,.08-.5,.14-.74,.18-.2,.03-.39,.05-.58,.05-.29,0-.57-.04-.82-.12m-11.6-3.47c-.88-.14-1.51-.33-1.94-.89-.02-.02-.04-.06-.07-.09-.53-.74-.74-1.66-.59-2.6,.29-1.84,1.92-3.12,3.61-2.85,1.69,.27,2.83,1.99,2.55,3.83-.15,.94-.64,1.76-1.37,2.29,0,0,0,0-.01,0h0s-.1,.07-.1,.07t0,0c-.23,.15-.47,.24-.73,.28-.13,.02-.28,.03-.42,.03-.28,0-.58-.03-.92-.09m6.17-.25s-.06-.04-.09-.06c-.73-.54-1.22-1.35-1.37-2.29-.29-1.84,.86-3.56,2.56-3.83,1.69-.27,3.31,1.01,3.6,2.86,.15,.94-.06,1.87-.59,2.6,0,0,0,0-.01,.01l-.07,.1s0,0,0,0c-.41,.52-1.04,.72-1.91,.85-.34,.05-.64,.09-.92,.09-.45,0-.84-.09-1.2-.33m-18.21-5.57c.79-.13,1.53-.49,2.14-1.05-.43,.95-.5,1.99-.18,2.98,0,.02,.01,.05,.02,.07v.03s.02,.05,.03,.08c.26,.87,.11,1.8-.43,2.53-1.23,1.69-3.12,.53-3.67,.13-.69-.49-1.15-1.07-1.35-1.67-.21-.64-.1-1.26,.33-1.86,.54-.75,1.42-1.19,2.34-1.19h.14c.21,0,.41-.01,.61-.05m30.77,4.64c-.55-.75-.7-1.72-.41-2.59,0,0,0,0,0-.02l.04-.12c.31-.97,.24-2.01-.19-2.96,.77,.7,1.74,1.09,2.77,1.09,.02,0,.05,0,.07,0h.03s.05,0,.08,0c.91,.02,1.74,.45,2.27,1.19,1.23,1.69-.46,3.13-1.01,3.53-.55,.4-1.11,.65-1.63,.73-.12,.02-.25,.03-.37,.03h0c-.67,0-1.23-.3-1.65-.89m-26.62-1.39c-.79-.4-1.33-.78-1.57-1.44-.01-.03-.02-.06-.03-.1-.27-.87-.19-1.81,.24-2.65,.85-1.66,2.79-2.38,4.32-1.6,1.53,.78,2.08,2.77,1.24,4.43-.43,.85-1.15,1.47-2.01,1.75h-.01s0,0,0,0l-.12,.04s0,0,0,0c-.07,.02-.13,.03-.2,.04-.09,.01-.18,.02-.27,.02-.48,0-.98-.19-1.57-.49m21.98,.42s-.06-.02-.1-.03c-.87-.29-1.58-.91-2.01-1.75-.84-1.66-.28-3.65,1.25-4.43,1.53-.78,3.46-.06,4.31,1.6,.43,.85,.52,1.8,.24,2.66,0,0,0,0,0,.01h0l-.04,.12h0c-.23,.63-.77,1.01-1.55,1.41-.46,.24-.87,.41-1.26,.47-.1,.02-.21,.03-.32,.03-.17,0-.34-.02-.51-.07m-12.98-4.94c-.14-.02-.27-.09-.37-.2l-.68-.69c-.25-.25-.36-.67-.29-1.11,.07-.43,.31-.8,.62-.96l.87-.45c.28-.15,.58-.1,.8,.13l.68,.7c.22,.23,.34,.61,.3,1l-.02,.1c-.07,.43-.31,.8-.62,.96l-.87,.45c-.07,.04-.15,.06-.22,.07-.03,0-.07,0-.1,0s-.07,0-.1,0m5.63-.07l-.86-.45c-.31-.16-.55-.53-.61-.96-.07-.43,.05-.85,.3-1.11l.68-.69c.22-.22,.52-.27,.8-.12l.86,.45c.29,.15,.51,.47,.59,.85l.02,.11c.07,.43-.04,.86-.29,1.11l-.68,.69c-.11,.11-.24,.18-.38,.2-.03,0-.06,0-.09,0-.11,0-.22-.03-.32-.08m-4.69,.4l.62-.32c.48-.25,.83-.78,.93-1.39,0-.03,0-.07,.01-.11l.52-3.26s0-.05,.01-.07c0,.02,0,.04,0,.06l.52,3.36c.1,.61,.45,1.15,.93,1.4l.63,.33c-1.07,.5-1.84,1.52-2.09,2.72-.25-1.21-1.03-2.22-2.1-2.73m-17.23-5.38c-.7,.77-1.09,1.74-1.09,2.77,0,.02,0,.05,0,.07v.03s0,.05,0,.08c-.02,.91-.45,1.74-1.18,2.27-.33,.24-.65,.37-.95,.42-1.26,.2-2.25-.99-2.57-1.43-.5-.68-.76-1.38-.77-2.01,0-.67,.29-1.23,.88-1.66,.75-.55,1.72-.7,2.6-.41,0,0,0,0,.01,0l.12,.04c.4,.13,.81,.19,1.22,.19,.59,0,1.18-.13,1.74-.38m40.93,5.24c-.75-.54-1.19-1.42-1.19-2.34h0s0-.14,0-.14c0-1.02-.39-1.99-1.1-2.76,.95,.43,1.99,.5,2.98,.19,.02,0,.04-.02,.07-.02h.03s.05-.02,.08-.03c.87-.26,1.79-.1,2.53,.43,1.69,1.23,.53,3.12,.13,3.67-.49,.68-1.07,1.15-1.67,1.35-.11,.04-.22,.06-.33,.08-.1,.01-.19,.02-.29,.02-.42,0-.83-.15-1.23-.43m-30.39-2.05c-.12-.06-.22-.17-.29-.31l-.43-.87c-.16-.31-.13-.75,.07-1.14,.2-.39,.54-.67,.89-.72l.96-.16c.31-.05,.58,.09,.72,.37l.43,.87c.14,.29,.13,.68-.02,1.04l-.05,.1c-.2,.39-.54,.66-.89,.72l-.96,.15h0s-.08,.01-.12,.01c-.11,0-.21-.02-.3-.07m17.13,.06l-.96-.16c-.35-.06-.69-.34-.88-.72-.19-.39-.22-.83-.06-1.14l.44-.87c.14-.28,.41-.42,.72-.37l.96,.16c.32,.05,.63,.29,.83,.63l.05,.1c.2,.39,.22,.83,.06,1.14l-.44,.87c-.07,.14-.17,.24-.3,.31-.06,.03-.12,.05-.19,.06-.03,0-.07,0-.11,0-.04,0-.09,0-.13-.01m-16.34,.53l.69-.11c.53-.09,1.03-.48,1.32-1.03,.01-.03,.03-.07,.04-.1l1.51-2.94s.02-.05,.03-.07c0,.02,0,.04-.01,.06l-.54,3.36c-.1,.61,.07,1.23,.45,1.61l.5,.51c-1.17,.15-2.22,.88-2.83,1.94,.13-1.23-.29-2.43-1.15-3.24m12,1.3l.49-.5c.38-.38,.55-.99,.46-1.6,0-.04-.02-.07-.02-.1l-.5-3.26s-.01-.05-.02-.07c0,.02,.02,.04,.02,.05l1.53,3.04c.28,.55,.78,.96,1.31,1.04l.71,.12c-.86,.81-1.28,2.01-1.15,3.24-.61-1.07-1.66-1.8-2.84-1.95m-22.75-.37c-.63-.63-1.03-1.16-1.05-1.86,0-.02,0-.04,0-.05h0v-.05c0-.91,.38-1.78,1.05-2.45,1.32-1.32,3.39-1.4,4.6-.18,1.21,1.21,1.12,3.27-.19,4.59-.55,.55-1.23,.89-1.94,1.01-.17,.03-.34,.04-.51,.04,0,0,0,0,0,0h0s-.12,0-.12,0h0c-.67-.03-1.19-.42-1.81-1.04m33.07,0c-1.32-1.32-1.4-3.38-.18-4.6,1.21-1.21,3.28-1.12,4.6,.19,.67,.67,1.05,1.55,1.05,2.45,0,0,0,.01,0,.01h0v.12s0,0,0,0c-.03,.67-.42,1.19-1.04,1.82-.56,.56-1.04,.93-1.63,1.03-.07,.01-.15,.02-.23,.02-.02,0-.04,0-.05,0h-.05c-.91,0-1.78-.38-2.45-1.05m-18.17-5.01c.07-.43,.31-.8,.62-.96l.87-.45c.28-.15,.58-.1,.8,.13l.68,.69c.25,.25,.36,.68,.29,1.11l-.31,1.95s-.06-.07-.09-.1l-.68-.69c-.2-.21-.45-.34-.71-.38-.26-.04-.53,0-.78,.13l-.87,.45s-.09,.05-.13,.08l.32-1.96Zm4.43,.51c-.07-.43,.05-.86,.29-1.11l.69-.69c.22-.23,.52-.27,.8-.13l.86,.45c.31,.16,.55,.53,.62,.97l.3,1.95s-.08-.05-.12-.07l-.86-.45c-.26-.13-.53-.18-.79-.14-.25,.04-.5,.17-.7,.37l-.69,.69s-.07,.07-.1,.12l-.3-1.96Zm-12.54,.34c.39-.06,.78-.26,1.09-.57,.03-.03,.05-.05,.07-.08l2.34-2.33s.03-.04,.05-.06c0,.02-.02,.03-.03,.05l-1.56,3.03c-.28,.55-.31,1.19-.07,1.67l.32,.64c-1.16-.22-2.38,.15-3.29,.97,.5-1.13,.48-2.4-.09-3.44l.69,.11c.07,.01,.15,.02,.22,.02,.08,0,.17,0,.25-.02m21.98,1.74c.24-.48,.22-1.12-.06-1.67-.02-.03-.04-.06-.05-.09l-1.49-2.95s-.03-.04-.04-.06c.02,.01,.03,.03,.04,.04l2.4,2.42c.44,.44,1.04,.66,1.57,.59l.71-.1c-.57,1.03-.59,2.31-.09,3.43-.92-.83-2.14-1.2-3.3-.97l.31-.63Zm-10.49-3.59l-.67-.69c.48-.13,.88-.45,1.12-.87,.25,.43,.66,.75,1.13,.88l-.66,.67c-.25,.25-.41,.62-.46,1.02-.05-.39-.21-.75-.46-1m-7.44-.86c.2-.39,.54-.67,.89-.72l.96-.16c.31-.05,.58,.09,.72,.37l.43,.87c.16,.31,.13,.75-.07,1.14l-.9,1.76s-.03-.09-.05-.13l-.43-.87c-.13-.26-.32-.46-.56-.58-.23-.12-.5-.16-.79-.11l-.96,.16s-.1,.02-.15,.04l.91-1.77Zm12.86,1.49c-.2-.39-.22-.83-.06-1.14l.44-.87c.14-.28,.41-.42,.72-.37l.96,.16c.35,.06,.69,.34,.88,.73l.89,1.77s-.09-.03-.14-.03l-.96-.16c-.29-.05-.56,0-.79,.11-.23,.12-.43,.31-.55,.57l-.44,.87s-.04,.09-.06,.14l-.9-1.77Zm6.29,.23c-.31-.31-.47-.72-.41-1.07l.15-.96c.05-.31,.26-.53,.57-.57l.96-.14c.32-.05,.69,.08,.98,.34l.07,.08c.31,.31,.47,.72,.41,1.07l-.15,.96c-.02,.15-.09,.29-.19,.38-.1,.1-.22,.16-.37,.18,0,0,0,0-.01,0l-.96,.14s-.09,0-.13,0c-.31,0-.66-.16-.93-.42m-23.59,.41l-.96-.15c-.16-.03-.29-.09-.39-.19-.1-.1-.16-.23-.18-.38l-.14-.96c-.05-.35,.11-.75,.42-1.06,.31-.31,.72-.47,1.07-.41l.96,.15c.31,.05,.52,.27,.57,.58l.14,.96c.04,.32-.09,.69-.34,.98l-.08,.07c-.22,.22-.5,.37-.77,.41-.05,0-.11,.01-.16,.01-.05,0-.09,0-.14-.01m7.91-2.91c.36-.06,.7-.22,.97-.46,.1,.49,.39,.91,.81,1.18l-.84,.43c-.32,.16-.59,.46-.76,.82,.07-.39,.03-.78-.12-1.09l-.43-.86s.05,0,.07,0c.1,0,.2,0,.29-.02m7.93,1.16l-.85-.45c.41-.27,.7-.7,.8-1.18,.37,.33,.85,.51,1.35,.49l-.42,.84c-.16,.32-.2,.72-.13,1.11-.17-.35-.43-.65-.74-.81m3.61-1.68l-.95-.16c.3-.38,.45-.88,.39-1.37,.45,.2,.97,.22,1.43,.04l-.14,.93c-.06,.36,.03,.75,.22,1.1-.27-.29-.61-.48-.96-.54m-13.69-1.53c-.05,.49,.09,.99,.4,1.38l-.93,.15c-.36,.06-.7,.26-.97,.55,.19-.35,.27-.73,.22-1.08l-.14-.95c.21,.08,.43,.12,.65,.12,.26,0,.53-.06,.77-.16m4.73,2.55c-.75-.12-1.25-.82-1.14-1.56,.12-.75,.82-1.26,1.57-1.14,.74,.12,1.25,.82,1.14,1.56-.1,.6-.57,1.05-1.14,1.14-.07,.01-.14,.02-.21,.02s-.14,0-.21-.02m2.11-1.14c-.12-.74,.39-1.45,1.14-1.56,.74-.12,1.45,.39,1.56,1.14,.12,.75-.39,1.45-1.14,1.57-.07,.01-.14,.02-.21,.02-.66,0-1.24-.48-1.35-1.16m-10.54,1.99l-.14-.96c-.04-.29-.17-.53-.35-.72-.18-.18-.43-.31-.71-.35l-.96-.15s-.1-.01-.15-.01l1.41-1.4c.31-.31,.72-.47,1.07-.41l.96,.15c.31,.05,.53,.26,.57,.57l.14,.96c.05,.35-.11,.76-.42,1.07l-1.4,1.39s0-.09-.01-.14m19.11-1.27c-.31-.31-.46-.72-.41-1.07l.15-.96c.05-.31,.26-.52,.57-.57l.96-.14c.35-.05,.76,.11,1.07,.42l1.39,1.4s-.09,0-.14,.01l-.96,.14c-.29,.04-.53,.17-.72,.35-.18,.18-.31,.43-.35,.71l-.15,.96s-.01,.1-.01,.15l-1.4-1.41Zm-24.12-1c.21-.03,.42-.1,.62-.2,.03-.02,.06-.04,.09-.05l2.95-1.49s.04-.02,.06-.04c-.01,.01-.03,.03-.04,.04l-2.41,2.4c-.44,.44-.66,1.04-.59,1.57l.1,.71c-1.03-.57-2.31-.59-3.43-.09,.83-.91,1.2-2.14,.97-3.3l.62,.31c.22,.11,.48,.16,.74,.16,.1,0,.21,0,.31-.03m29.86,2.25c.08-.53-.14-1.13-.57-1.57-.03-.02-.05-.05-.08-.07l-2.33-2.34s-.04-.03-.06-.05c.02,0,.03,.02,.05,.03l3.03,1.55c.55,.28,1.19,.31,1.67,.07l.64-.32c-.22,1.16,.15,2.38,.97,3.29-1.13-.5-2.41-.48-3.44,.09l.11-.69Zm-19.91-1.96c-.67-.34-.94-1.17-.6-1.84,.34-.67,1.17-.94,1.84-.6,.67,.34,.94,1.17,.6,1.84-.21,.4-.59,.66-1.01,.73-.07,.01-.14,.02-.21,.02-.21,0-.42-.05-.62-.15m8.82-.6c-.34-.67-.07-1.5,.6-1.84,.67-.34,1.5-.07,1.84,.6,.34,.67,.07,1.5-.6,1.84-.13,.07-.27,.11-.41,.13-.07,.01-.14,.02-.21,.02-.5,0-.98-.27-1.22-.75m-25.56,3.78s-.01,0-.01,0h0s-.12-.04-.12-.04c0,0,0,0,0,0-.63-.23-1-.76-1.41-1.55-.4-.79-.62-1.42-.42-2.09,.01-.03,.02-.07,.03-.1,.29-.87,.91-1.58,1.76-2.01,1.66-.84,3.65-.28,4.43,1.25,.78,1.53,.06,3.46-1.6,4.31-.35,.18-.72,.3-1.09,.36-.18,.03-.36,.04-.54,.04-.35,0-.69-.05-1.02-.16m41.49-.24c-1.66-.85-2.38-2.79-1.6-4.32,.78-1.53,2.77-2.08,4.43-1.24,.85,.43,1.47,1.15,1.75,2.01,0,0,0,.01,0,.01h0l.04,.12s0,0,0,0c.18,.65-.03,1.26-.43,2.05-.4,.79-.78,1.33-1.44,1.57-.03,.01-.06,.02-.1,.03-.16,.05-.33,.09-.49,.12-.18,.03-.36,.04-.53,.04-.55,0-1.11-.13-1.63-.4m-19.58-4.55c-.21-.03-.4-.13-.55-.28-.19-.19-.3-.44-.3-.71,0-.55,.45-1.01,1.01-1.01,.27,0,.52,.1,.71,.3,.19,.19,.29,.44,.29,.71,0,.5-.37,.92-.85,.99-.05,.01-.1,.01-.16,.01h-.02s-.1,0-.14-.01m2.13-.48c-.24-.12-.42-.33-.5-.59-.17-.53,.12-1.09,.65-1.27,.25-.08,.53-.06,.77,.06,.24,.12,.42,.33,.5,.59,.17,.53-.12,1.1-.65,1.27-.05,.02-.1,.03-.16,.04-.05,0-.1,.01-.16,.01-.16,0-.31-.04-.46-.11m-4.71,.06c-.05-.02-.1-.04-.15-.06-.19-.09-.34-.25-.44-.44-.12-.24-.14-.51-.06-.77,.17-.53,.74-.82,1.27-.65,.26,.08,.46,.26,.59,.5,.12,.24,.14,.51,.06,.77-.12,.37-.44,.63-.8,.68-.05,0-.1,.01-.16,.01-.1,0-.21-.02-.31-.05m17.65,1.02c-.39-.2-.67-.54-.72-.89l-.15-.96c-.05-.31,.09-.58,.37-.72l.87-.43c.29-.14,.68-.13,1.04,.02l.09,.05c.39,.2,.67,.54,.72,.89l.16,.96c.03,.16,0,.3-.06,.42-.06,.12-.17,.22-.31,.29l-.87,.43c-.09,.04-.18,.07-.28,.09-.06,0-.12,.01-.19,.01-.22,0-.45-.06-.67-.17m-30.96,.06l-.87-.44c-.14-.07-.24-.17-.31-.3-.06-.12-.08-.27-.06-.42l.16-.96c.06-.34,.34-.68,.72-.88,.39-.2,.83-.22,1.14-.06l.87,.44c.28,.14,.42,.41,.37,.72l-.16,.96c-.05,.32-.29,.63-.63,.83l-.1,.05c-.15,.08-.31,.13-.46,.15-.07,.01-.15,.02-.22,.02-.17,0-.33-.03-.47-.1m5.49-2.38l.16-.95c.38,.31,.88,.45,1.37,.39-.2,.45-.22,.97-.04,1.43l-.93-.14c-.36-.06-.75,.03-1.1,.22,.29-.27,.48-.61,.54-.96m20.1-.57c.32-.05,.62-.18,.88-.39l.15,.93c.06,.36,.26,.7,.55,.97-.34-.19-.73-.27-1.08-.22l-.95,.14c.17-.46,.15-.97-.05-1.42,.07,0,.14,.01,.2,.01,.1,0,.2,0,.29-.02m14.32,.8c.62-.1,1.22-.34,1.74-.72,.02-.02,.04-.03,.06-.04l.03-.02s.04-.03,.07-.04c.75-.52,1.68-.65,2.54-.38,1.99,.64,1.46,2.8,1.25,3.45-.26,.8-.66,1.42-1.17,1.8-.54,.4-1.17,.48-1.86,.26-.88-.28-1.57-.98-1.86-1.86,0,0,0-.01,0-.02l-.04-.12c-.32-.97-.99-1.77-1.9-2.28,.16,.02,.33,.03,.49,.03,.22,0,.44-.02,.66-.05m-53.4,2.24c-.26-.8-.3-1.54-.11-2.14,.2-.64,.66-1.08,1.35-1.31,.88-.29,1.85-.13,2.59,.41,0,0,0,0,.01,.01l.1,.08c.82,.59,1.84,.85,2.88,.73-.91,.52-1.58,1.32-1.9,2.3,0,.02-.01,.05-.02,.07v.03s-.03,.05-.04,.08c-.3,.86-.97,1.51-1.83,1.8-.14,.05-.27,.08-.4,.1-.12,.02-.23,.03-.33,.03h0c-1.47,0-2.12-1.62-2.3-2.18m21.24-1.3c-.53-.53-.53-1.4,0-1.93,.53-.53,1.4-.53,1.93,0,.53,.53,.53,1.4,0,1.93-.21,.21-.48,.34-.75,.38-.07,.01-.14,.02-.22,.02-.35,0-.7-.13-.96-.4m14.66,0c-.53-.53-.53-1.4,0-1.94,.53-.53,1.4-.53,1.94,0,.53,.53,.53,1.4,0,1.93-.21,.21-.48,.34-.75,.38-.07,.01-.14,.02-.22,.02-.35,0-.7-.13-.97-.4m-1.91-.95c-.27-.04-.5-.18-.66-.4-.33-.45-.23-1.08,.22-1.41,.22-.16,.48-.22,.75-.18,.27,.04,.5,.18,.66,.4,.33,.45,.22,1.08-.22,1.41-.04,.03-.09,.06-.14,.08-.09,.05-.19,.08-.3,.1-.05,0-.1,.01-.16,.01s-.11,0-.16-.01m-9.67-.18s-.09-.07-.12-.1c-.15-.15-.25-.34-.28-.55-.04-.27,.02-.53,.18-.75,.33-.45,.96-.55,1.41-.22,.22,.16,.36,.39,.4,.66,.04,.27-.02,.53-.18,.75-.16,.22-.4,.36-.66,.4-.05,0-.11,.01-.16,.01-.2,0-.41-.06-.59-.19m-8.4,1.5l.16-.96c.05-.29,0-.56-.11-.79-.12-.23-.31-.43-.57-.55l-.87-.44s-.09-.04-.14-.06l1.77-.9c.39-.2,.83-.22,1.14-.06l.87,.44c.28,.14,.42,.41,.37,.72l-.16,.96c-.06,.35-.34,.69-.73,.88l-1.77,.89s.03-.09,.03-.13m25.48-.77c-.39-.2-.67-.54-.72-.89l-.15-.96c-.05-.31,.09-.58,.37-.72l.87-.43c.32-.16,.75-.13,1.14,.07l1.76,.9s-.09,.03-.13,.05l-.87,.43c-.26,.13-.46,.32-.58,.55-.12,.23-.16,.5-.11,.79l.16,.96c0,.05,.02,.1,.04,.15l-1.77-.91Zm6.74-3.38l.51-.5c.15,1.17,.88,2.22,1.94,2.83-1.23-.13-2.44,.29-3.24,1.15l-.11-.69c-.09-.53-.48-1.03-1.03-1.32-.03-.02-.07-.03-.1-.05l-2.94-1.51s-.04-.02-.07-.03c.02,0,.04,.01,.06,.01l3.36,.54c.11,.02,.23,.03,.34,.03,.49,0,.96-.17,1.27-.47m-37.73-.51l.5,.49c.38,.38,.99,.55,1.61,.46,.03,0,.07-.01,.1-.02l3.26-.51s.05-.01,.07-.02c-.02,0-.04,.02-.05,.02l-3.04,1.54c-.55,.28-.96,.78-1.04,1.31l-.12,.71c-.81-.86-2.01-1.28-3.24-1.15,1.07-.61,1.8-1.66,1.95-2.84m24.88,1.43c-.45-.33-.55-.96-.22-1.41,.16-.22,.39-.36,.66-.4,.27-.04,.53,.02,.75,.18,.45,.33,.55,.96,.22,1.41-.03,.04-.07,.08-.1,.12-.15,.15-.34,.25-.55,.28-.05,0-.11,.01-.16,.01-.21,0-.42-.07-.59-.19m-12.93-.23s-.06-.09-.08-.14c-.1-.19-.13-.4-.1-.61,.04-.27,.18-.5,.4-.66,.45-.33,1.08-.23,1.41,.22,.16,.22,.22,.48,.18,.75-.04,.27-.18,.5-.4,.66-.13,.1-.28,.15-.43,.18-.05,0-.1,.01-.16,.01-.31,0-.62-.14-.82-.42m-3.29,.12c-.34-.67-.07-1.5,.6-1.84,.67-.34,1.5-.07,1.84,.6,.34,.67,.07,1.5-.6,1.84-.13,.07-.27,.11-.41,.13-.07,.01-.14,.02-.21,.02-.5,0-.98-.27-1.22-.75m19.08,.6c-.67-.34-.94-1.17-.6-1.84,.34-.67,1.17-.94,1.84-.6,.67,.34,.94,1.17,.6,1.84-.21,.4-.59,.66-1,.73-.07,.01-.14,.02-.21,.02-.21,0-.42-.05-.62-.15m-20.87-2.42l.44-.85c.27,.41,.7,.69,1.18,.79-.33,.37-.51,.86-.49,1.35l-.84-.42c-.32-.16-.72-.2-1.11-.13,.36-.17,.65-.43,.81-.74m22.87-.06c.49-.1,.91-.39,1.19-.81l.43,.84c.16,.32,.46,.58,.82,.76-.39-.07-.77-.04-1.09,.12l-.86,.43c.02-.49-.16-.97-.49-1.34m-3.47-.06c-.53-.17-.82-.74-.65-1.27,.08-.26,.26-.46,.5-.59,.24-.12,.51-.14,.77-.06,.53,.17,.82,.74,.65,1.27-.02,.05-.04,.1-.06,.15-.1,.19-.25,.34-.44,.44-.1,.05-.2,.08-.3,.1-.05,0-.1,.01-.15,.01-.11,0-.21-.02-.31-.05m-15.59-.65c-.02-.05-.03-.1-.04-.16-.03-.21,0-.42,.1-.61,.12-.24,.33-.42,.59-.5,.53-.17,1.09,.12,1.27,.65,.08,.26,.06,.53-.06,.77-.12,.24-.33,.42-.59,.5-.05,.02-.1,.03-.15,.04-.05,0-.1,.01-.16,.01-.42,0-.82-.27-.96-.7m25.52,1.64c-.43-.07-.8-.31-.96-.62l-.45-.86c-.15-.28-.1-.58,.13-.8l.69-.68c.23-.22,.61-.33,1-.3l.11,.02c.43,.07,.8,.31,.96,.62l.44,.86c.07,.14,.1,.28,.07,.42-.02,.14-.09,.27-.2,.37l-.69,.68c-.16,.15-.37,.25-.62,.29-.08,.01-.16,.02-.24,.02s-.16,0-.25-.02m-35.3-.3l-.69-.69c-.11-.11-.18-.24-.2-.38-.02-.14,0-.28,.08-.42l.45-.86c.16-.31,.53-.55,.96-.61,.43-.07,.85,.04,1.11,.29l.69,.68c.22,.22,.27,.52,.12,.8l-.45,.86c-.15,.29-.47,.51-.85,.6l-.11,.02c-.08,.01-.16,.02-.25,.02-.34,0-.66-.11-.86-.31m2.59-.04l.45-.86c.13-.26,.18-.53,.14-.79-.04-.26-.16-.5-.37-.7l-.69-.68s-.07-.07-.12-.1l1.96-.3c.43-.07,.86,.05,1.11,.3l.69,.68c.22,.22,.27,.52,.12,.8l-.45,.86c-.16,.31-.53,.55-.96,.62h0l-1.95,.3s.05-.08,.07-.12m29.35-.2c-.43-.07-.8-.31-.96-.62l-.44-.87c-.15-.28-.1-.58,.13-.8l.69-.68c.25-.25,.68-.36,1.11-.29l1.95,.31s-.07,.06-.1,.09l-.69,.68c-.21,.2-.33,.45-.38,.71-.04,.26,0,.53,.13,.78l.45,.87s.05,.09,.08,.13l-1.96-.32Zm-38.94,2.31s0,0-.01,0h0s-.1-.07-.1-.07c0,0,0,0,0,0-.53-.41-.72-1.04-.86-1.91-.14-.88-.15-1.54,.24-2.12,.02-.03,.04-.06,.06-.09,.54-.73,1.35-1.22,2.29-1.37,1.84-.29,3.56,.86,3.83,2.56,.27,1.69-1.01,3.31-2.85,3.6h0c-.19,.03-.39,.04-.58,.04-.73,0-1.43-.22-2.01-.64m47.82,.59c-1.84-.3-3.12-1.92-2.85-3.61,.27-1.69,1.99-2.83,3.83-2.55,.94,.15,1.76,.64,2.29,1.37,0,0,0,0,.01,.01h0l.07,.1s0,0,0,0c.37,.56,.36,1.21,.22,2.08-.14,.88-.33,1.51-.89,1.94-.02,.02-.05,.04-.08,.06-.43,.31-.93,.51-1.46,.6-.18,.03-.37,.04-.56,.04s-.39-.02-.58-.04m-34.2-4.9c-.12-.74,.39-1.45,1.14-1.56,.74-.12,1.45,.39,1.56,1.14,.12,.74-.39,1.45-1.14,1.56-.07,.01-.14,.02-.21,.02-.66,0-1.24-.48-1.35-1.15m21.62,1.14c-.74-.12-1.26-.82-1.14-1.56,.12-.75,.82-1.26,1.57-1.14,.74,.12,1.26,.82,1.14,1.56-.09,.6-.57,1.05-1.14,1.14-.07,.01-.14,.02-.21,.02s-.14,0-.22-.02m-3.18-2.97c0-.27,.1-.52,.3-.71,.19-.19,.44-.29,.71-.3,.56,0,1.01,.45,1.01,1.01,0,.05,0,.11-.01,.16-.03,.21-.13,.4-.28,.55-.15,.15-.34,.25-.55,.28-.05,0-.1,.01-.16,.01-.55,0-1.01-.45-1.01-1.01m-15.71,0c0-.05,0-.11,.01-.16,.03-.21,.13-.4,.28-.55,.19-.19,.44-.29,.71-.29,.56,0,1.01,.45,1.01,1,0,.27-.1,.52-.29,.71-.15,.15-.34,.25-.55,.28-.05,0-.1,.01-.16,.01h0c-.55,0-1-.45-1-1.01m-3.86,.47c-.26-.25-.62-.41-1.02-.46,.02,0,.04,0,.06,0,.37-.06,.7-.21,.94-.45l.69-.67c.13,.47,.45,.88,.88,1.12-.43,.25-.75,.66-.88,1.13l-.67-.66Zm23.89-.47c.43-.25,.75-.66,.88-1.13l.67,.66c.26,.25,.62,.41,1.02,.46-.39,.05-.75,.21-1,.46l-.69,.67c-.13-.47-.45-.88-.87-1.12m7.93,1.47c-.24-.48-.78-.83-1.38-.93-.04,0-.07,0-.11-.01l-3.26-.53s-.05,0-.07,0c.02,0,.04,0,.06,0l3.36-.52s0,0,0,0c.61-.09,1.14-.45,1.39-.92l.33-.64c.5,1.07,1.52,1.84,2.72,2.09-1.21,.25-2.23,1.03-2.73,2.1l-.32-.62Zm-41.25-1.47c1.2-.25,2.23-1.03,2.73-2.1l.32,.62c.24,.48,.78,.83,1.38,.93,.04,0,.07,0,.11,.01l3.26,.53s.05,0,.07,0c-.02,0-.04,0-.06,0l-3.36,.52c-.61,.09-1.15,.45-1.4,.93l-.33,.63c-.5-1.07-1.52-1.84-2.72-2.09m48.62,1.7s0,0,0-.01l-.07-.11c-.6-.82-1.49-1.38-2.51-1.59,1.02-.21,1.91-.76,2.52-1.6,.01-.02,.03-.04,.04-.06l.02-.03s.03-.04,.05-.06c.55-.72,1.39-1.14,2.3-1.14,2.09,0,2.26,2.21,2.26,2.89,0,.84-.19,1.56-.56,2.07-.32,.44-.75,.71-1.29,.79-.13,.02-.26,.03-.4,.03h0c-.92,0-1.8-.45-2.34-1.19m-57.54-1.7c0-.84,.19-1.56,.56-2.07,.39-.55,.96-.82,1.69-.82,.92,0,1.8,.45,2.34,1.19,0,0,0,0,0,.01l.07,.1c.6,.82,1.49,1.38,2.51,1.59-1.02,.21-1.91,.76-2.52,1.6-.01,.02-.03,.04-.04,.06l-.02,.03s-.03,.04-.05,.06c-.46,.6-1.12,.99-1.84,1.11-.15,.03-.3,.04-.45,.04h0c-2.09,0-2.25-2.21-2.26-2.89m20.61-.27c-.75-.12-1.26-.82-1.14-1.56,.12-.74,.82-1.26,1.56-1.14,.75,.12,1.26,.82,1.14,1.56-.09,.6-.57,1.05-1.14,1.14-.07,.01-.14,.02-.21,.02s-.14,0-.21-.02m19.35-1.14c-.12-.75,.39-1.45,1.14-1.56,.75-.12,1.45,.39,1.56,1.14,.12,.75-.39,1.45-1.14,1.56-.07,.01-.14,.02-.22,.02-.66,0-1.24-.48-1.35-1.15m-2.38-.7c-.08-.25-.06-.53,.06-.77,.12-.24,.33-.42,.59-.5,.53-.17,1.1,.12,1.27,.65,.02,.05,.03,.11,.04,.16,.03,.21,0,.42-.1,.61-.12,.24-.33,.42-.59,.5-.05,.02-.1,.03-.15,.04-.05,0-.1,.01-.16,.01-.42,0-.82-.27-.96-.7m-14.29,.64c-.53-.17-.82-.74-.65-1.27,.02-.05,.04-.1,.06-.15,.1-.19,.25-.34,.44-.44,.24-.12,.51-.14,.77-.06,.53,.17,.82,.74,.65,1.27-.08,.26-.26,.46-.5,.58-.1,.05-.2,.08-.3,.1-.05,0-.1,.01-.16,.01-.1,0-.21-.02-.31-.05m20.91,.58l-.69-.69c-.22-.22-.27-.52-.12-.8l.45-.86c.16-.31,.53-.55,.97-.62l1.95-.3s-.05,.07-.07,.12l-.45,.86c-.13,.26-.18,.53-.14,.79,.04,.26,.16,.5,.37,.7l.69,.69s.08,.07,.12,.1l-1.96,.31c-.08,.01-.16,.02-.24,.02-.34,0-.66-.11-.86-.31m-27.39,.3l-1.95-.32s.07-.06,.11-.09l.69-.68c.21-.2,.34-.45,.37-.71,.04-.26,0-.53-.13-.78l-.45-.86s-.05-.09-.08-.13l1.96,.31c.43,.07,.8,.31,.96,.62l.45,.87c.15,.28,.1,.58-.13,.8l-.69,.68c-.15,.15-.37,.25-.62,.29-.08,.01-.16,.02-.24,.02-.08,0-.17,0-.25-.02m30.76-.83l-.69-.69c-.23-.22-.27-.52-.13-.8l.45-.86c.15-.28,.47-.51,.86-.59l.11-.02c.43-.07,.86,.04,1.11,.29l.69,.69c.11,.11,.18,.24,.2,.38,.02,.14,0,.28-.08,.42l-.45,.86c-.16,.31-.53,.55-.96,.61-.08,.01-.16,.02-.24,.02-.34,0-.66-.11-.86-.31m-34.01,.3l-.11-.02c-.43-.07-.8-.31-.96-.62l-.45-.87c-.07-.14-.1-.28-.07-.42,.02-.14,.09-.27,.2-.38l.69-.68c.25-.25,.67-.36,1.1-.29,.43,.07,.8,.31,.96,.62l.45,.86c.15,.28,.1,.58-.13,.8l-.7,.68c-.15,.15-.37,.25-.61,.29-.08,.01-.16,.02-.24,.02-.05,0-.09,0-.14,0m5.1-3.12c.15-.02,.3-.07,.44-.14l.86-.43c-.02,.49,.16,.97,.49,1.34-.49,.1-.91,.39-1.18,.81l-.43-.84c-.17-.32-.46-.58-.82-.76,.13,.02,.25,.03,.37,.03,.1,0,.19,0,.28-.02m23.03,.78c.33-.37,.51-.86,.49-1.35l.84,.42c.32,.16,.72,.2,1.11,.13-.36,.17-.65,.43-.81,.74l-.45,.85c-.27-.41-.7-.69-1.18-.79m-5.08-.57c-.16-.22-.22-.48-.18-.75,.04-.26,.18-.5,.4-.66,.45-.33,1.08-.22,1.41,.22,.03,.04,.06,.09,.08,.14,.09,.19,.13,.4,.09,.61-.04,.27-.18,.5-.4,.66-.13,.1-.28,.16-.43,.18-.05,0-.11,.01-.16,.01-.31,0-.62-.14-.81-.41m-12.49,.22c-.45-.33-.55-.96-.22-1.41,.03-.04,.07-.09,.1-.12,.15-.15,.34-.25,.55-.28,.27-.04,.53,.02,.75,.18,.45,.33,.55,.96,.22,1.41-.16,.22-.39,.36-.66,.4h0c-.05,0-.11,.01-.16,.01-.21,0-.42-.07-.59-.19m-2.92,.31c-.67-.34-.94-1.17-.6-1.84,.34-.67,1.17-.94,1.84-.6,.67,.34,.94,1.17,.6,1.84-.21,.41-.59,.66-1.01,.73-.07,.01-.14,.02-.21,.02-.21,0-.42-.05-.62-.15m17.88-.6c-.34-.67-.07-1.5,.6-1.84,.67-.34,1.5-.07,1.84,.6,.34,.67,.07,1.5-.6,1.84-.13,.07-.27,.11-.41,.13-.07,.01-.14,.02-.21,.02-.5,0-.98-.27-1.22-.75m-31.61,3.51c-.94-.15-1.76-.64-2.29-1.37,0,0,0,0,0-.01h0s-.07-.1-.07-.1c0,0,0,0,0,0-.37-.56-.36-1.21-.22-2.08,.14-.88,.33-1.51,.89-1.94,.03-.02,.05-.04,.09-.06,.74-.53,1.66-.74,2.6-.59,1.84,.29,3.12,1.92,2.86,3.61-.21,1.34-1.33,2.33-2.7,2.55-.18,.03-.37,.04-.56,.04s-.38-.01-.57-.04m43.34-2.56c-.27-1.69,1.01-3.31,2.85-3.6,.94-.15,1.87,.06,2.6,.59,0,0,0,0,.01,0h0l.1,.07s0,0,0,0c.52,.41,.72,1.04,.86,1.91,.14,.88,.15,1.54-.24,2.12-.02,.03-.04,.06-.06,.09-.54,.73-1.35,1.22-2.28,1.36,0,0,0,0,0,0-.19,.03-.38,.04-.57,.04-1.61,0-3.02-1.08-3.26-2.6m-21.95-2.91c.07-.01,.15-.03,.22-.05,.42-.14,.73-.45,.88-.82,.02,.03,.04,.06,.07,.09,.22,.22,.49,.36,.79,.41,.07,.01,.15,.02,.23,.02,.44,0,.83-.2,1.09-.51,.02,.04,.02,.07,.04,.1,.14,.28,.36,.5,.63,.63,.07,.03,.14,.06,.21,.09,.42,.13,.85,.06,1.2-.15,0,.04,0,.08,0,.11,.05,.31,.19,.58,.4,.8,.05,.05,.11,.1,.18,.15,.36,.26,.79,.33,1.19,.23,0,.04-.02,.07-.03,.11-.05,.31,0,.61,.14,.88,.03,.07,.07,.13,.12,.2,.26,.35,.65,.55,1.06,.58-.02,.03-.04,.06-.06,.1-.14,.28-.19,.58-.14,.88,.01,.07,.03,.15,.06,.22,.13,.42,.45,.73,.82,.88-.03,.03-.06,.04-.09,.07-.22,.22-.36,.49-.41,.79-.01,.07-.02,.15-.02,.23,0,.44,.2,.83,.51,1.09-.04,.02-.07,.03-.11,.04-.27,.14-.49,.36-.63,.63-.03,.07-.06,.14-.09,.21-.13,.42-.06,.85,.15,1.2-.04,0-.08,0-.11,0-.3,.05-.58,.19-.79,.4-.06,.06-.1,.11-.15,.18-.26,.35-.32,.79-.23,1.19-.04-.01-.07-.02-.11-.03-.3-.05-.61,0-.88,.14-.07,.03-.13,.07-.2,.12-.35,.26-.55,.65-.58,1.06-.03-.02-.06-.04-.09-.06-.28-.14-.58-.19-.88-.14-.07,.01-.15,.03-.22,.05-.42,.13-.73,.45-.88,.82-.02-.03-.04-.06-.07-.09-.22-.22-.49-.36-.79-.41-.07-.01-.15-.02-.23-.02-.44,0-.83,.2-1.09,.51-.01-.04-.02-.07-.04-.11-.14-.28-.36-.49-.63-.63-.07-.03-.14-.06-.21-.09-.42-.13-.85-.06-1.2,.15,0-.04,0-.07,0-.11-.05-.3-.19-.58-.4-.8-.05-.05-.11-.1-.18-.15-.35-.26-.79-.33-1.18-.23,0-.04,.02-.07,.03-.11,.05-.3,0-.61-.14-.88-.03-.07-.07-.13-.12-.2-.26-.35-.65-.55-1.06-.58,.02-.03,.04-.06,.06-.09,.14-.28,.19-.58,.14-.88-.01-.07-.03-.15-.05-.22-.14-.42-.45-.73-.82-.88,.03-.02,.06-.05,.09-.07,.22-.22,.36-.49,.41-.79,.01-.07,.02-.15,.02-.23,0-.44-.2-.83-.51-1.09,.04-.01,.07-.02,.11-.04,.27-.14,.49-.36,.63-.63,.03-.07,.06-.14,.09-.21,.13-.42,.06-.85-.15-1.2,.04,0,.07,0,.11,0,.31-.05,.58-.19,.8-.4,.06-.06,.1-.11,.15-.18,.26-.36,.32-.79,.23-1.18,.04,0,.07,.02,.11,.03,.3,.05,.61,0,.88-.14,.07-.03,.13-.07,.2-.12,.36-.26,.55-.65,.58-1.06,.03,.02,.06,.04,.1,.06,.21,.1,.43,.16,.66,.16,.07,0,.15,0,.22-.02m6.23,.5c-.22-.16-.36-.39-.4-.66-.04-.27,.02-.53,.18-.75,.33-.45,.96-.55,1.41-.22,.05,.03,.09,.07,.12,.1,.15,.15,.25,.34,.28,.55,.04,.27-.02,.53-.18,.75-.16,.22-.4,.36-.66,.4-.05,0-.1,.01-.16,.01-.21,0-.41-.06-.59-.19m-8.8,.18c-.26-.04-.5-.18-.66-.4-.33-.45-.23-1.08,.22-1.41,.05-.03,.09-.06,.14-.09,.19-.1,.4-.13,.61-.1,.27,.04,.5,.19,.66,.4,.33,.45,.23,1.08-.22,1.41-.13,.09-.28,.16-.43,.18-.05,0-.1,.01-.16,.01s-.1,0-.16-.01m18.4,.92l3.04-1.54c.55-.28,.95-.78,1.04-1.31l.12-.71c.81,.86,2.01,1.28,3.24,1.15-1.07,.61-1.8,1.66-1.95,2.83l-.5-.49c-.38-.38-.99-.55-1.61-.46-.03,0-.07,.02-.1,.02l-3.26,.51s-.05,.01-.07,.02c.02,0,.04-.02,.06-.02m-33.61-2.43c.83-.13,1.59-.52,2.16-1.13l.11,.69c.09,.53,.48,1.03,1.03,1.32,.03,.01,.07,.03,.1,.04l2.94,1.51s.05,.02,.07,.03c-.02,0-.04,0-.06-.01l-3.36-.54c-.61-.1-1.23,.07-1.61,.45l-.51,.5c-.15-1.17-.88-2.22-1.94-2.83,.15,.02,.29,.02,.44,.02,.22,0,.43-.02,.64-.05m9.42-.23c-.06-.36-.26-.7-.55-.97,.34,.19,.73,.27,1.08,.22l.95-.14c-.17,.46-.15,.97,.05,1.42-.49-.05-.99,.09-1.38,.4l-.15-.93Zm21.68-.98c-.29,.27-.48,.61-.54,.96l-.16,.95c-.38-.3-.88-.45-1.37-.39,.2-.45,.22-.97,.04-1.43l.93,.14c.07,.01,.14,.02,.22,.02,.29,0,.6-.09,.88-.24m-8.99,1.57c-.26-.08-.46-.26-.59-.5-.12-.24-.14-.51-.06-.77,.17-.53,.74-.82,1.27-.64,.05,.02,.1,.04,.15,.06,.19,.09,.34,.25,.44,.44,.12,.24,.14,.51,.06,.77-.12,.37-.44,.63-.8,.69-.05,0-.1,.01-.16,.01-.1,0-.21-.02-.31-.05m-5-.06c-.24-.12-.42-.33-.5-.59-.17-.53,.12-1.1,.65-1.27,.05-.02,.1-.03,.16-.04,.21-.03,.42,0,.61,.1,.24,.12,.42,.33,.5,.58,.17,.53-.12,1.1-.65,1.27-.05,.02-.1,.03-.16,.04-.05,0-.1,.01-.16,.01-.16,0-.31-.04-.46-.11m-5.42,.21c-.53-.53-.54-1.4,0-1.93,.53-.53,1.4-.53,1.93,0,.53,.53,.53,1.4,0,1.93-.21,.21-.48,.34-.75,.38-.07,.01-.14,.02-.22,.02-.35,0-.7-.13-.97-.4m14.66,0c-.53-.53-.53-1.4,0-1.93,.54-.53,1.4-.53,1.94,0,.53,.53,.53,1.4,0,1.93-.21,.21-.48,.34-.75,.38-.07,.01-.14,.02-.21,.02-.35,0-.7-.13-.97-.4m5.85,1.46l-.87-.44c-.28-.14-.42-.41-.37-.72l.16-.96c.06-.35,.34-.69,.73-.88l1.77-.89s-.03,.09-.03,.13l-.16,.96c-.05,.28,0,.56,.11,.79,.12,.23,.31,.42,.57,.55l.87,.44s.09,.04,.14,.06l-1.77,.9c-.15,.07-.3,.12-.46,.15-.07,.01-.14,.02-.21,.02-.17,0-.33-.03-.47-.1m-25.59-.06l-1.76-.9s.09-.03,.13-.05l.87-.43c.26-.13,.46-.32,.58-.56,.12-.23,.16-.5,.11-.78l-.15-.96s-.02-.1-.04-.15l1.77,.91c.39,.2,.67,.54,.72,.89l.16,.96c.05,.31-.09,.58-.37,.72l-.87,.43c-.09,.04-.18,.07-.28,.09-.06,0-.12,.01-.19,.01-.22,0-.46-.06-.68-.17m12.67-2.18c-.19-.19-.29-.44-.29-.71,0-.56,.45-1.01,1.01-1.01,.05,0,.11,0,.16,.01,.21,.03,.4,.13,.55,.28,.19,.19,.3,.44,.3,.71,0,.5-.37,.92-.85,.99-.05,0-.1,.01-.16,.01-.27,0-.52-.1-.71-.3m15.97,.7l-.87-.44c-.28-.14-.42-.41-.37-.72l.16-.96c.05-.32,.29-.63,.63-.83l.09-.05c.39-.2,.83-.22,1.15-.06l.87,.44c.14,.07,.24,.17,.31,.3,.06,.12,.08,.27,.06,.42l-.16,.96c-.06,.35-.34,.69-.72,.88-.15,.07-.3,.12-.46,.15-.07,.01-.15,.02-.21,.02-.17,0-.33-.04-.47-.1m-31.57-.02l-.1-.05c-.39-.2-.66-.54-.72-.89l-.16-.96c-.03-.15,0-.3,.06-.42,.06-.12,.17-.22,.31-.29l.87-.43c.31-.16,.75-.13,1.14,.07,.39,.2,.67,.54,.72,.89l.16,.96c.05,.31-.09,.58-.37,.72l-.87,.43c-.09,.04-.18,.07-.28,.09-.06,0-.12,.01-.18,.01-.19,0-.39-.04-.58-.12m20.4-1.56c-.67-.34-.94-1.17-.6-1.84,.34-.67,1.17-.94,1.84-.6,.67,.34,.94,1.17,.6,1.84-.21,.4-.59,.66-1.01,.73-.07,.01-.14,.02-.21,.02-.21,0-.42-.05-.62-.15m-10.01-.6c-.34-.67-.07-1.5,.6-1.84,.67-.34,1.5-.08,1.84,.6,.34,.67,.07,1.5-.6,1.84-.13,.07-.27,.11-.4,.13-.07,.01-.14,.02-.21,.02-.5,0-.98-.27-1.22-.75m-1.93-1.39c.05-.36-.03-.74-.22-1.1,.27,.29,.61,.48,.96,.54l.95,.16c-.3,.38-.44,.88-.39,1.37-.45-.2-.97-.22-1.43-.04l.14-.93Zm14.02-.4l.93-.15c.36-.06,.7-.26,.97-.55-.19,.35-.27,.73-.22,1.08l.14,.95c-.46-.17-.97-.15-1.42,.05,.05-.49-.09-.99-.4-1.38m-9.14,.39c-.12-.75,.39-1.45,1.14-1.56,.74-.12,1.45,.39,1.56,1.14,.12,.74-.39,1.45-1.14,1.56-.07,.01-.14,.02-.21,.02-.66,0-1.24-.48-1.35-1.15m4.38,1.14c-.75-.12-1.26-.82-1.14-1.56,.12-.75,.82-1.26,1.56-1.14,.75,.12,1.25,.82,1.14,1.56-.09,.6-.57,1.05-1.14,1.14-.07,.01-.14,.02-.21,.02s-.14,0-.21-.02m23.2-.79s.01-.05,.02-.07v-.03s.03-.05,.04-.08c.3-.86,.97-1.51,1.83-1.8,1.99-.65,2.83,1.41,3.04,2.05,.26,.8,.3,1.54,.11,2.14-.2,.64-.66,1.08-1.35,1.31-.15,.05-.29,.08-.44,.11-.75,.12-1.53-.06-2.15-.52,0,0,0,0-.01-.01l-.1-.08c-.83-.6-1.84-.85-2.88-.73,.9-.51,1.58-1.32,1.9-2.3m-52.9,3.53c-1.99-.64-1.46-2.8-1.25-3.45,.26-.8,.66-1.42,1.17-1.8,.54-.4,1.17-.49,1.86-.26,.88,.28,1.57,.98,1.86,1.86,0,0,0,.01,0,.02l.04,.12c.32,.97,.99,1.77,1.89,2.28-1.03-.12-2.05,.14-2.89,.74-.02,.01-.04,.03-.06,.04l-.03,.02s-.04,.03-.07,.04c-.37,.25-.78,.42-1.2,.48-.15,.02-.3,.03-.45,.03-.3,0-.6-.05-.89-.14m17.1-2.7l-1.39-1.4s.09,0,.14,0l.96-.14s.01,0,.02,0c.28-.05,.52-.17,.7-.35,.19-.18,.31-.43,.35-.71l.15-.96c0-.05,.01-.1,.01-.15l1.4,1.41c.31,.31,.47,.72,.41,1.07l-.15,.96c-.05,.31-.26,.52-.58,.57l-.96,.14s-.09,.01-.13,.01c-.32,0-.66-.16-.93-.43m21.29,.41l-.96-.15c-.31-.05-.52-.26-.57-.57l-.14-.96c-.05-.35,.11-.76,.42-1.06l1.4-1.39s0,.09,.01,.14l.14,.96c.04,.29,.17,.53,.35,.72,.18,.18,.43,.31,.71,.35l.96,.15s.1,0,.15,.01l-1.41,1.4c-.22,.22-.5,.37-.77,.41-.05,0-.11,.01-.16,.01-.05,0-.09,0-.14,0m-14.48-3.52c.16-.32,.2-.72,.13-1.11,.17,.35,.43,.65,.74,.81l.85,.45c-.41,.27-.7,.7-.8,1.18-.37-.33-.86-.51-1.35-.48l.42-.84Zm7.02,.14l.84-.43c.32-.16,.58-.46,.76-.82-.07,.39-.04,.78,.12,1.09l.43,.86c-.49-.02-.97,.15-1.34,.48-.1-.49-.39-.91-.81-1.18m-17.12-1.3l-.11,.69c-.08,.53,.14,1.13,.57,1.57,.03,.03,.05,.05,.08,.07l2.33,2.34s.04,.03,.06,.05c-.02,0-.03-.02-.05-.03l-3.03-1.56c-.55-.28-1.19-.31-1.67-.07l-.64,.32c.22-1.16-.15-2.38-.97-3.29,.53,.24,1.1,.36,1.66,.36,.62,0,1.24-.15,1.78-.45m26.07,4.68l2.41-2.4c.44-.44,.66-1.04,.59-1.57l-.1-.71c1.03,.57,2.31,.59,3.43,.09-.82,.91-1.2,2.14-.97,3.3l-.62-.31c-.48-.24-1.12-.22-1.67,.06-.03,.02-.06,.04-.09,.05l-2.95,1.49s-.04,.03-.06,.04c.02-.01,.03-.03,.04-.04m-12.72-3.62l.66-.67c.25-.26,.41-.62,.46-1.02,.05,.39,.21,.75,.46,1l.67,.69c-.47,.13-.88,.45-1.12,.88-.25-.43-.66-.75-1.13-.88m-21.12,4.21c-.85-.43-1.47-1.15-1.76-2.01,0,0,0-.01,0-.02h0s-.04-.12-.04-.12c0,0,0,0,0,0-.18-.64,.03-1.26,.43-2.05,.41-.79,.78-1.33,1.44-1.57,.03-.01,.06-.02,.1-.03,.87-.28,1.81-.19,2.66,.24,1.66,.85,2.38,2.79,1.6,4.32-.45,.88-1.3,1.44-2.26,1.59-.18,.03-.36,.04-.54,.04-.54,0-1.1-.13-1.63-.39m40.07-1.25c-.78-1.53-.06-3.46,1.6-4.31,.85-.43,1.8-.52,2.66-.24,0,0,0,0,.01,0h0s.12,.04,.12,.04c0,0,0,0,0,0,.63,.23,1,.76,1.4,1.55,.41,.79,.62,1.42,.42,2.09-.01,.03-.02,.06-.03,.1-.29,.87-.91,1.58-1.75,2.01-.35,.18-.71,.29-1.08,.35-.18,.03-.37,.04-.55,.04-1.17,0-2.27-.59-2.81-1.64m-5.3-1.76l-.96-.15c-.31-.05-.53-.26-.57-.57l-.14-.96c-.05-.32,.08-.69,.34-.98l.07-.07c.31-.31,.72-.47,1.07-.41l.96,.15c.15,.02,.29,.09,.38,.19,.1,.1,.16,.23,.18,.38l.14,.96c.05,.35-.11,.75-.42,1.06-.22,.22-.5,.37-.77,.41-.06,0-.11,.01-.16,.01-.04,0-.09,0-.14-.01m-26.03-.34l-.07-.08c-.31-.31-.47-.72-.41-1.07l.15-.96c.03-.16,.09-.29,.19-.38,.1-.1,.23-.16,.39-.18l.96-.14c.35-.05,.75,.11,1.06,.42,.31,.31,.47,.72,.41,1.07l-.15,.96c-.05,.31-.26,.52-.57,.57,0,0,0,0,0,0l-.96,.14s-.09,.01-.13,.01c-.28,0-.6-.13-.85-.35m6.24-2.25c.12-.02,.25-.06,.36-.12,.23-.12,.43-.31,.55-.57l.44-.87s.04-.09,.06-.14l.9,1.77c.2,.39,.22,.83,.06,1.14l-.44,.87c-.14,.28-.41,.42-.72,.36l-.96-.16c-.35-.06-.69-.34-.88-.73l-.89-1.77s.09,.03,.14,.03l.96,.16c.08,.01,.16,.02,.23,.02,.07,0,.13,0,.2-.02m12.59,2.08l-.43-.87c-.16-.31-.13-.75,.07-1.14l.9-1.76s.03,.09,.05,.13l.43,.87c.13,.26,.32,.46,.56,.57,.23,.12,.5,.16,.79,.11l.96-.15c.05,0,.1-.02,.15-.04l-.91,1.77c-.2,.39-.54,.67-.89,.72l-.96,.16h0s-.08,.01-.12,.01c-.26,0-.47-.14-.59-.38m-7.71-3.67c.26-.04,.5-.16,.7-.37l.68-.69s.07-.08,.1-.12l.3,1.96c.07,.43-.05,.86-.29,1.11l-.68,.69c-.11,.11-.24,.18-.38,.2-.14,.02-.28,0-.42-.08l-.86-.45c-.31-.16-.55-.53-.62-.97l-.3-1.96s.08,.05,.12,.07l.86,.45c.2,.1,.4,.15,.6,.15,.06,0,.12,0,.19-.01m3.93,2.58l-.68-.69c-.25-.25-.36-.68-.29-1.11l.31-1.95s.06,.07,.09,.1l.68,.69c.2,.21,.45,.33,.71,.37,.26,.04,.53,0,.78-.13l.86-.45s.09-.05,.13-.08l-.32,1.96c-.07,.43-.31,.8-.62,.96l-.86,.45c-.07,.04-.15,.06-.22,.07-.03,0-.07,0-.1,0-.17,0-.34-.07-.48-.21m5.33-1.95l-.43-.87c-.14-.29-.13-.68,.02-1.04l.05-.1c.2-.39,.54-.67,.89-.72l.96-.16c.16-.03,.3,0,.42,.06,.12,.06,.22,.17,.29,.31l.43,.87c.16,.31,.13,.75-.07,1.14-.2,.39-.54,.67-.89,.72l-.96,.16s0,0,0,0c-.04,0-.08,0-.12,0-.26,0-.48-.14-.6-.38m-14.48,.37l-.96-.16c-.32-.05-.63-.29-.83-.63l-.05-.1c-.2-.39-.22-.83-.06-1.14l.44-.87c.07-.14,.17-.24,.3-.31,.12-.06,.27-.08,.42-.06l.96,.16c.35,.06,.69,.33,.88,.72,.2,.39,.22,.83,.06,1.14l-.44,.87c-.1,.21-.28,.34-.49,.37-.03,0-.07,0-.11,0-.04,0-.08,0-.13-.01m-5.41-3.89c.91,.83,2.14,1.2,3.3,.97l-.31,.63c-.24,.48-.22,1.12,.06,1.67,.02,.03,.04,.06,.05,.09l1.49,2.95s.03,.04,.04,.06c-.01-.01-.03-.03-.04-.04l-2.4-2.41c-.44-.44-1.04-.66-1.57-.59l-.71,.1c.57-1.03,.59-2.31,.09-3.43m23.99,.99c.74-.12,1.46-.46,2.05-.99-.5,1.13-.48,2.41,.09,3.44l-.69-.11c-.53-.08-1.13,.14-1.57,.57-.03,.03-.05,.05-.07,.08l-2.34,2.33s-.03,.04-.05,.06c0-.02,.02-.03,.03-.05l1.55-3.03c.28-.55,.31-1.19,.07-1.67l-.32-.64c.22,.04,.45,.06,.67,.06,.19,0,.39-.02,.58-.05m-8.88,1.11l-.68-.7c-.23-.23-.34-.6-.3-1l.02-.1c.07-.43,.31-.8,.62-.96l.86-.45c.14-.07,.28-.1,.42-.07,.14,.02,.27,.09,.38,.2l.68,.69c.25,.25,.36,.67,.29,1.1-.07,.43-.31,.8-.62,.96l-.87,.45c-.07,.04-.15,.06-.22,.07-.03,0-.07,0-.1,0-.17,0-.34-.07-.48-.21m-4.99,.13l-.86-.45c-.28-.15-.51-.47-.59-.85l-.02-.11c-.07-.43,.05-.86,.3-1.11l.68-.69c.11-.11,.24-.18,.38-.2,.14-.02,.28,0,.42,.08l.86,.45c.31,.16,.55,.53,.61,.96,.07,.43-.05,.86-.3,1.11l-.68,.69c-.11,.11-.24,.18-.38,.2-.03,0-.07,0-.1,0-.11,0-.22-.03-.33-.08m23.32-1.12s0-.05,0-.07v-.03s0-.05,0-.08c.02-.91,.45-1.74,1.19-2.27,1.69-1.23,3.13,.46,3.53,1.01,.5,.68,.76,1.38,.77,2.01,0,.67-.29,1.23-.88,1.66-.75,.54-1.72,.7-2.6,.41,0,0,0,0-.01,0l-.12-.04c-.97-.31-2.01-.24-2.96,.19,.7-.77,1.09-1.74,1.1-2.77m-45.42,2.22c-1.69-1.23-.53-3.12-.13-3.67,.49-.68,1.07-1.15,1.67-1.35,.64-.21,1.26-.1,1.86,.33,.75,.54,1.19,1.42,1.19,2.34v.14c0,1.02,.39,1.99,1.09,2.76-.95-.43-1.99-.5-2.98-.18-.02,0-.04,.01-.07,.02h-.03s-.05,.02-.08,.03c-.13,.04-.26,.07-.39,.09-.15,.02-.31,.03-.46,.03-.6,0-1.18-.19-1.68-.55m6.26,.26c-.67-.67-1.05-1.55-1.05-2.45v-.02h0v-.13s0,0,0,0c.03-.67,.42-1.19,1.04-1.81,.63-.63,1.16-1.03,1.86-1.05h.1c.91,0,1.78,.38,2.45,1.05,1.32,1.32,1.4,3.39,.18,4.6-.57,.57-1.34,.86-2.12,.86-.87,0-1.78-.35-2.47-1.05m32.88,.19c-1.21-1.21-1.13-3.28,.19-4.6,.67-.67,1.55-1.04,2.45-1.05h.02s.12,0,.12,0h0c.67,.03,1.19,.42,1.81,1.04,.63,.63,1.03,1.16,1.05,1.86v.05h0s0,.03,0,.05c0,.91-.38,1.78-1.05,2.45-.56,.55-1.25,.89-1.95,1-.17,.03-.35,.04-.52,.04-.79,0-1.55-.28-2.13-.86m-18.58,.52l-1.54-3.04c-.28-.55-.78-.95-1.31-1.04l-.71-.12c.86-.81,1.28-2.01,1.15-3.24,.61,1.07,1.66,1.8,2.84,1.94l-.49,.5c-.38,.38-.55,1-.46,1.61,0,.04,.02,.07,.02,.11l.5,3.26s.01,.05,.02,.07c0-.02-.02-.03-.02-.05m8.86,0l.54-3.36c.1-.61-.07-1.23-.45-1.62l-.5-.51s.07-.01,.11-.02c1.12-.18,2.13-.9,2.72-1.93-.13,1.23,.29,2.43,1.15,3.24l-.69,.11c-.53,.09-1.03,.48-1.32,1.03-.02,.03-.03,.07-.04,.1l-1.51,2.94s-.02,.04-.03,.07c0-.02,0-.04,.01-.06m-4.43-.7l-.52-3.36c-.09-.61-.45-1.15-.92-1.4l-.63-.33c1.07-.5,1.84-1.52,2.09-2.72,.25,1.21,1.03,2.23,2.1,2.73l-.62,.32c-.48,.24-.83,.77-.93,1.38,0,.04,0,.07-.01,.11l-.53,3.26s0,.05,0,.07c0-.02,0-.04,0-.06m-13.38-5.09c-.43-.85-.52-1.8-.24-2.66,0,0,0-.01,0-.01h0l.04-.12s0,0,0,0c.23-.63,.76-1,1.55-1.41,.79-.4,1.42-.62,2.09-.42,.03,0,.07,.02,.1,.03,.87,.29,1.58,.91,2.01,1.75,.84,1.66,.28,3.65-1.25,4.43-.42,.21-.87,.31-1.31,.31-1.19,0-2.38-.71-3-1.92m23.37-4.63s0,0,0,0c.64-.18,1.26,.03,2.05,.43,.79,.4,1.33,.78,1.57,1.44,0,.01,.01,.03,.02,.05h0s.01,.03,.02,.05c.28,.87,.19,1.81-.24,2.66-.85,1.66-2.79,2.38-4.32,1.6-1.53-.78-2.08-2.77-1.24-4.43,.43-.85,1.15-1.47,2.01-1.75h.02s0,0,0,0l.12-.04Zm4.24,1.75s-.02-.05-.02-.07v-.03s-.02-.05-.03-.08c-.26-.87-.11-1.8,.43-2.53,1.23-1.69,3.12-.53,3.66-.13,.69,.49,1.15,1.07,1.35,1.67,.21,.64,.1,1.26-.33,1.85-.54,.75-1.42,1.19-2.34,1.19,0,0-.01,0-.02,0h-.13c-1.02,0-1.99,.39-2.76,1.09,.43-.95,.5-1.99,.19-2.98m-31.22,1.88c-.91-.02-1.74-.45-2.27-1.19-1.23-1.69,.46-3.13,1.01-3.52,.68-.5,1.38-.76,2-.77,.67,0,1.23,.3,1.66,.89,.55,.75,.69,1.72,.41,2.6,0,0,0,0,0,.01l-.04,.12c-.31,.97-.24,2.01,.19,2.96-.77-.7-1.74-1.09-2.77-1.1-.02,0-.04,0-.07,0h-.03s-.05,0-.08,0m10.26-2.19c-.15-.94,.06-1.87,.59-2.6,0,0,0,0,0-.01h0l.07-.1s0,0,0,0c.41-.53,1.04-.72,1.91-.86,.88-.14,1.54-.15,2.12,.24,.03,.02,.06,.04,.09,.06,.73,.54,1.22,1.35,1.37,2.29,.29,1.84-.86,3.56-2.56,3.83-.15,.02-.3,.04-.45,.04-1.52,0-2.89-1.21-3.16-2.89m8.8-3.34s0,0,0,0c.56-.37,1.21-.36,2.08-.22,.88,.14,1.51,.33,1.94,.89,.02,.03,.04,.06,.06,.08,.53,.74,.74,1.67,.59,2.6-.29,1.84-1.91,3.12-3.61,2.85-1.69-.27-2.83-1.99-2.55-3.83,.15-.94,.64-1.76,1.37-2.29,0,0,0,0,.01-.01h0s.1-.07,.1-.07Zm4.58,.35s-.03-.04-.04-.06l-.02-.03s-.03-.04-.04-.07c-.52-.75-.66-1.67-.38-2.53,.64-1.99,2.8-1.46,3.45-1.26,.8,.26,1.42,.66,1.8,1.17,.4,.54,.49,1.17,.26,1.87-.28,.88-.98,1.57-1.86,1.86,0,0,0,0-.02,0l-.12,.04c-.97,.32-1.77,.99-2.28,1.89,.12-1.04-.14-2.05-.74-2.89m-16.31,.99s-.05-.01-.07-.02h-.03s-.05-.03-.08-.04c-.86-.3-1.51-.97-1.79-1.83-.65-1.99,1.41-2.83,2.05-3.04,.8-.26,1.54-.3,2.14-.11,.64,.2,1.08,.66,1.31,1.35,.29,.88,.13,1.85-.41,2.6,0,0,0,0-.01,.01l-.08,.1c-.59,.83-.85,1.84-.73,2.88-.52-.91-1.32-1.58-2.3-1.9m8.08-1.78s-.04-.03-.06-.04l-.03-.02s-.04-.03-.06-.05c-.73-.55-1.14-1.39-1.14-2.3,0-2.09,2.21-2.26,2.89-2.26,.84,0,1.56,.19,2.07,.56,.55,.39,.82,.96,.82,1.69,0,.93-.45,1.8-1.19,2.34,0,0,0,0-.01,0l-.1,.08c-.82,.6-1.38,1.49-1.59,2.51-.21-1.02-.76-1.91-1.6-2.52m1.6-5.29c-.3,0-.58,.02-.84,.06h-.05c-1.64,.28-2.63,1.3-2.62,2.83,0,.69,.2,1.36,.57,1.92-.44-.03-.89,.02-1.3,.09-.41,.06-.84,.15-1.25,.32,.18-.65,.17-1.35-.05-2.01-.29-.89-.88-1.49-1.71-1.76-.72-.23-1.6-.19-2.53,.11-2.06,.67-3,2.14-2.45,3.83,.22,.66,.61,1.23,1.14,1.65-.43,.1-.84,.29-1.21,.48-.37,.19-.76,.4-1.09,.69-.03-.68-.26-1.34-.67-1.9-.55-.75-1.3-1.15-2.17-1.14-.76,0-1.58,.31-2.37,.89-1.75,1.28-2.2,2.97-1.15,4.4,.41,.56,.96,.98,1.59,1.22-.38,.23-.71,.54-1,.84-.29,.29-.6,.62-.83,.99-.24-.63-.66-1.19-1.22-1.6-.75-.55-1.59-.69-2.42-.42-.72,.24-1.41,.78-1.98,1.58-1.27,1.76-1.17,3.5,.27,4.54,.56,.41,1.22,.63,1.89,.67-.29,.34-.51,.73-.7,1.11-.19,.37-.37,.77-.48,1.2-.43-.53-1-.93-1.66-1.14-.88-.29-1.73-.16-2.43,.35-.61,.45-1.09,1.18-1.4,2.11-.67,2.07-.03,3.69,1.66,4.24,.66,.21,1.35,.23,2,.05-.17,.41-.26,.85-.32,1.27-.07,.41-.12,.85-.09,1.29-.57-.37-1.24-.58-1.93-.58-.93,0-1.69,.38-2.2,1.09-.44,.62-.68,1.46-.68,2.44,0,2.17,1.11,3.52,2.89,3.52,.7,0,1.36-.2,1.92-.57-.04,.44,.02,.89,.08,1.3,.07,.41,.15,.84,.32,1.26-.65-.18-1.36-.17-2.01,.05-.89,.29-1.5,.88-1.76,1.71-.23,.72-.19,1.6,.11,2.53,.67,2.07,2.14,3.01,3.83,2.46,.66-.22,1.23-.61,1.65-1.14,.1,.43,.29,.84,.48,1.21,.19,.37,.4,.76,.69,1.09-.68,.03-1.34,.26-1.9,.67-.75,.55-1.15,1.3-1.14,2.17,0,.76,.31,1.58,.89,2.37,1.28,1.75,2.97,2.19,4.4,1.15,.57-.41,.98-.96,1.22-1.59,.23,.38,.54,.71,.84,1,.29,.29,.62,.6,1,.83-.63,.24-1.19,.66-1.6,1.22-.55,.75-.69,1.59-.42,2.42,.24,.72,.78,1.41,1.57,1.98,1.76,1.27,3.5,1.17,4.54-.27,.41-.56,.63-1.22,.66-1.89,.34,.29,.73,.51,1.11,.7,.37,.19,.77,.37,1.2,.48-.53,.43-.93,1-1.14,1.66-.29,.89-.17,1.73,.35,2.43,.45,.61,1.18,1.09,2.11,1.4,2.07,.67,3.69,.03,4.24-1.66,.21-.66,.22-1.36,.05-2,.41,.17,.85,.26,1.27,.32,.41,.06,.85,.12,1.29,.09-.37,.57-.58,1.24-.58,1.93,0,.93,.38,1.69,1.09,2.2,.62,.44,1.46,.68,2.43,.68h0c2.17,0,3.52-1.11,3.52-2.89,0-.7-.2-1.36-.57-1.92,.45,.03,.89-.02,1.3-.09,.41-.07,.85-.15,1.26-.32-.18,.65-.17,1.35,.05,2.01,.29,.88,.88,1.49,1.71,1.76,.72,.23,1.6,.19,2.53-.11,2.07-.67,3-2.14,2.45-3.83-.22-.66-.61-1.23-1.14-1.65,.43-.1,.84-.29,1.21-.48,.37-.19,.76-.4,1.1-.69,.03,.68,.26,1.34,.67,1.9,.55,.75,1.3,1.15,2.17,1.14,.76,0,1.58-.31,2.37-.89,1.75-1.28,2.2-2.97,1.15-4.4-.41-.57-.96-.98-1.59-1.22,.38-.23,.71-.54,1-.84,.29-.29,.6-.62,.83-1,.24,.63,.66,1.19,1.22,1.6,.75,.55,1.59,.69,2.42,.42,.72-.24,1.41-.78,1.98-1.58,1.27-1.76,1.17-3.5-.27-4.54-.56-.41-1.22-.63-1.89-.66,.29-.34,.51-.73,.7-1.11,.19-.37,.38-.77,.48-1.2,.43,.53,1,.93,1.66,1.14,.88,.29,1.73,.16,2.43-.35,.61-.45,1.09-1.18,1.4-2.11,.67-2.07,.03-3.69-1.66-4.24-.66-.21-1.36-.23-2-.05,.17-.41,.26-.85,.32-1.27,.06-.41,.12-.85,.08-1.29,.57,.37,1.24,.58,1.93,.58,.93,0,1.69-.38,2.2-1.09,.44-.62,.68-1.46,.67-2.44,0-.3-.02-.58-.06-.84v-.05c-.28-1.64-1.3-2.63-2.83-2.62-.7,0-1.36,.2-1.92,.57,.03-.45-.02-.89-.09-1.3-.06-.41-.15-.85-.32-1.26,.66,.18,1.35,.17,2.01-.05,.89-.29,1.49-.88,1.76-1.71,.23-.73,.19-1.6-.11-2.53-.67-2.07-2.14-3-3.83-2.45-.66,.22-1.23,.61-1.65,1.14-.1-.43-.29-.84-.48-1.21-.19-.37-.4-.76-.69-1.1,.68-.03,1.34-.26,1.9-.67,.75-.55,1.15-1.3,1.14-2.17,0-.76-.31-1.58-.89-2.37-1.28-1.75-2.97-2.2-4.4-1.15-.56,.41-.98,.96-1.22,1.59-.23-.38-.54-.71-.84-1-.29-.29-.62-.6-1-.83,.63-.24,1.19-.66,1.6-1.22,.55-.75,.69-1.59,.42-2.42-.24-.72-.78-1.41-1.58-1.98-1.76-1.27-3.5-1.17-4.54,.27-.41,.57-.63,1.22-.67,1.89-.34-.29-.73-.51-1.11-.7-.37-.19-.77-.38-1.2-.48,.53-.43,.93-1,1.14-1.66,.29-.89,.16-1.73-.35-2.43-.45-.61-1.18-1.09-2.11-1.4-2.07-.67-3.69-.03-4.24,1.66-.21,.66-.22,1.35-.05,2-.41-.17-.85-.26-1.27-.32-.41-.06-.85-.12-1.29-.08,.37-.57,.58-1.24,.58-1.93,0-.93-.38-1.69-1.09-2.2-.62-.44-1.46-.68-2.43-.68h0Z"/>
          <g class="cls-1">
            <rect class="cls-2" x="24.47" y="54.35" width="72.52" height="72.51" transform="translate(-13.42 10.61) rotate(-9)"/>
          </g>
        </g>
        <polygon class="cls-2" points="85.99 64.05 85.06 64.05 85.06 63.74 87.28 63.74 87.23 64.05 86.36 64.05 86.36 66.4 85.99 66.4 85.99 64.05"/>
        <polygon class="cls-2" points="88.91 65.76 87.98 64.36 87.98 66.4 87.65 66.4 87.65 63.74 88.01 63.74 89.04 65.3 90.07 63.74 90.43 63.74 90.43 66.37 90.06 66.43 90.06 64.36 89.13 65.76 88.91 65.76"/>
      </g>
    </g>
  </g>
</svg>