<?xml version="1.0" encoding="UTF-8"?>
<svg id="Layer_2" data-name="Layer 2" xmlns="http://www.w3.org/2000/svg" xmlns:xlink="http://www.w3.org/1999/xlink" viewBox="0 0 181.02 181.22">
  <defs>
    <style>
      .cls-1 {
        clip-path: url(#clippath);
      }

      .cls-2 {
        fill: #fff;
      }

      .cls-3 {
        fill: #171726;
      }

      .cls-4 {
        fill: #1f1c2f;
      }
    </style>
    <clipPath id="clippath">
      <path class="cls-2" d="M58.37,103.58c-3.16,1.17-6.33,2.33-9.48,3.51-.13,.05-.24,.14-.34,.24-1.4,1.54-2.8,3.08-4.2,4.62-.19,.21-.37,.41-.55,.62,.11,0,.19-.02,.27-.05,3.94-1.38,7.88-2.77,11.82-4.16,.11-.04,.23-.14,.28-.24,.46-.84,.91-1.7,1.36-2.54,.35-.67,.71-1.34,1.09-2.06-.13,.04-.18,.05-.24,.07m4.67-.95c-.6,1.22-1.22,2.43-1.83,3.65-.03,.06-.06,.13-.1,.24,2.89-1.12,5.73-2.22,8.57-3.33v-.05c-.15-.01-.29-.03-.43-.04-1.96-.21-3.92-.43-5.88-.64-.02,0-.04,0-.06,0-.12,0-.2,.05-.26,.18m-18.42-1.37c1.17,1.7,2.33,3.41,3.49,5.12,.09,.13,.16,.12,.29,.06,2.37-1.17,4.74-2.34,7.11-3.51,.06-.03,.11-.07,.21-.12-3.74-.55-7.42-1.09-11.13-1.64,.02,.06,.02,.08,.04,.1m-6.47,2.66c1.41,2.77,2.82,5.52,4.24,8.31,1.37-1.93,2.71-3.84,4.07-5.76-1.37-1.89-2.73-3.78-4.1-5.67-1.42,1.05-2.81,2.08-4.2,3.12m-.54-.76c1.3-.94,2.58-1.86,3.89-2.81-1.84-.93-3.66-1.84-5.53-2.78,.56,1.9,1.1,3.73,1.64,5.59m-7.64-6.81c-.01,.44,0,.88-.04,1.31-.02,.21,.04,.37,.16,.54,2.76,3.82,5.52,7.63,8.28,11.45,.72,1,1.45,2,2.17,3,.01,0,.03-.01,.04-.02-.02-.05-.04-.1-.06-.14-.94-1.97-1.88-3.94-2.81-5.9-.22-.46-.39-.95-.69-1.35-1.99-2.66-4-5.29-6.01-7.94-.33-.43-.65-.86-1.02-1.33-.01,.17-.02,.27-.03,.38m18.95,3.66s0,.04,0,.06c2.82,.4,5.64,.81,8.5,1.21-.42-1.88-.83-3.72-1.25-5.59-2.43,1.45-4.84,2.88-7.25,4.32m12.22-.4c1.86,.06,3.69,.11,5.51,.16,0-.02,0-.04,.01-.06-1.9-1.44-3.8-2.87-5.74-4.34,.07,1.45,.14,2.84,.21,4.24m-31.12-5.2c1.97,2.58,3.94,5.17,5.9,7.75,.01,0,.03,0,.04-.01,0-.03-.01-.06-.02-.09-.51-1.65-1.03-3.29-1.55-4.94-.03-.1-.12-.19-.21-.25-.93-.57-1.86-1.13-2.79-1.69-.45-.27-.89-.54-1.34-.8-.01,.01-.02,.02-.03,.03m7.36,2.06c1.78,.88,3.55,1.74,5.31,2.61,0-.01,.02-.02,.03-.03-1.02-1.98-2.04-3.96-3.08-5.98-.76,1.14-1.5,2.26-2.26,3.4m-6.64-3.05c1.81,1.05,3.55,2.05,5.3,3.06,.9-1.33,1.79-2.65,2.71-4.02-2.69,.32-5.31,.64-8.02,.96m-5.15-.97c1.04,1.49,2.07,2.98,3.11,4.48,.02,0,.04,0,.06,0,.02-.54,.04-1.09,.04-1.63,0-.11-.07-.25-.15-.33-.67-.57-1.35-1.14-2.03-1.71-.33-.28-.66-.55-.99-.83-.01,.01-.02,.02-.03,.03m16.05-.39c1.24,2.43,2.46,4.84,3.69,7.26,2.24-1.45,4.45-2.89,6.67-4.33-1.05-2.22-2.09-4.4-3.13-6.6-2.42,1.23-4.81,2.44-7.23,3.67m-16.68-2.4c1.39,1.11,2.76,2.19,4.17,3.32-.15-2.01-.28-3.95-.43-5.93-1.27,.89-2.48,1.74-3.74,2.61m-.39-3.32c-.69,.07-1.37,.15-2.05,.22v.05c.27,.36,.53,.71,.8,1.07,.26,.35,.51,.71,.77,1.07,1.12-.89,2.22-1.77,3.37-2.69-1.01,.1-1.95,.19-2.88,.28m31.47,5.51c1.23-1.95,2.44-3.87,3.68-5.82-2.35-.17-4.65-.33-6.99-.5,1.11,2.12,2.2,4.2,3.32,6.32m6.31-.46c2.09,1.5,4.16,2.98,6.25,4.47,1.51-2.14,3.01-4.26,4.52-6.39-2.34-1.51-4.66-3-7.01-4.52-1.26,2.15-2.51,4.29-3.76,6.43m-31.05-5.08c.08,1.93,.15,3.84,.23,5.77,2.15-.15,4.27-.3,6.41-.46,.2-2.29,.4-4.57,.6-6.89-2.43,.53-4.82,1.05-7.24,1.58m9.85,3.25c2.72-1.56,5.4-3.1,8.12-4.65-2.4-.82-4.74-1.62-7.1-2.44-.34,2.37-.68,4.7-1.02,7.09m38.83-8.52c.69,1.65,1.39,3.3,2.09,4.94,.03,.06,.12,.13,.19,.14,.51,.11,1.03,.21,1.54,.3,.09,.02,.21-.03,.29-.08,.22-.16,.42-.35,.63-.53,.4-.33,.79-.66,1.19-.98v-.05c-1.97-1.26-3.94-2.53-5.91-3.8,0,.04-.01,.05,0,.06m-46.51-2.23c-.09,0-.2,.03-.28,.08-2.81,1.46-5.61,2.93-8.42,4.4-.06,.03-.1,.07-.21,.13,1.87-.06,3.67-.12,5.46-.19,.09,0,.19-.06,.27-.12,.75-.54,1.49-1.09,2.23-1.63,1.17-.86,2.34-1.71,3.53-2.59-.06-.02-.08-.03-.1-.03-.83-.01-1.66-.04-2.49-.05h0m.29,3.96s.02,.03,.02,.04c2.43-.57,4.86-1.13,7.32-1.7-.65-.79-1.29-1.55-1.93-2.32-1.81,1.33-3.61,2.66-5.41,3.98m22.38-8.73c-1.18,.16-2.36,.31-3.54,.46-1.52,.2-3.04,.39-4.57,.58-.17,.02-.26,.09-.33,.24-.31,.63-.64,1.25-.96,1.88-.46,.9-.93,1.81-1.41,2.74,.09,.02,.16,.04,.23,.06,2.59,.5,5.18,1,7.77,1.49,.37,.07,.76,.19,1.11,.13,2.09-.36,4.17-.76,6.26-1.15,.45-.08,.9-.17,1.37-.26-.06-.07-.09-.11-.13-.15-1.77-1.95-3.55-3.89-5.31-5.84-.12-.13-.23-.18-.37-.18-.04,0-.07,0-.11,0m9.28-.69c1.98,1.35,3.95,2.69,5.91,4.03,.01-.01,.02-.03,.03-.04-.86-1.86-1.73-3.72-2.6-5.61-1.11,.54-2.21,1.07-3.33,1.61m-25.53,.76c1.28,.75,2.54,1.49,3.84,2.25-.16-1.75-.32-3.44-.48-5.18-1.14,.99-2.24,1.95-3.36,2.93m36.45-3.5c.87,2.03,1.74,4.06,2.62,6.09,.03,.08,.11,.15,.19,.2,2.02,1.27,4.04,2.54,6.06,3.81,.06,.03,.12,.06,.21,.11-.06-.11-.09-.18-.12-.25-1.13-2.25-2.26-4.5-3.39-6.75-.06-.13-.16-.25-.27-.34-1.12-.91-2.24-1.81-3.36-2.72-.06-.05-.13-.1-.2-.1-.58-.05-1.15-.09-1.75-.14,.01,.04,.01,.07,.02,.09m-21.69-8.86c.81,2.64,1.62,5.28,2.44,7.94,1.3-.35,2.57-.7,3.84-1.04,0-.1,0-.17-.01-.25-.1-.78-.22-1.56-.3-2.35-.02-.22-.11-.35-.29-.47-1.59-1.09-3.19-2.18-4.78-3.28-.28-.19-.56-.39-.85-.58-.02,0-.03,.02-.05,.03"/>
    </clipPath>
  </defs>
  <g id="PHOTOGRAPHY">
    <g>
      <g>
        <path class="cls-4" d="M181.02,21.4V90.61H0V21.4C0,9.58,9.59,0,21.41,0H159.62c11.82,0,21.4,9.58,21.4,21.4Z"/>
        <path class="cls-3" d="M0,159.82V90.61H181.02v69.21c0,11.82-9.59,21.4-21.41,21.4H21.4c-11.82,0-21.4-9.58-21.4-21.4Z"/>
      </g>
      <g>
        <g>
          <path class="cls-2" d="M58.37,103.58c-3.16,1.17-6.33,2.33-9.48,3.51-.13,.05-.24,.14-.34,.24-1.4,1.54-2.8,3.08-4.2,4.62-.19,.21-.37,.41-.55,.62,.11,0,.19-.02,.27-.05,3.94-1.38,7.88-2.77,11.82-4.16,.11-.04,.23-.14,.28-.24,.46-.84,.91-1.7,1.36-2.54,.35-.67,.71-1.34,1.09-2.06-.13,.04-.18,.05-.24,.07m4.67-.95c-.6,1.22-1.22,2.43-1.83,3.65-.03,.06-.06,.13-.1,.24,2.89-1.12,5.73-2.22,8.57-3.33v-.05c-.15-.01-.29-.03-.43-.04-1.96-.21-3.92-.43-5.88-.64-.02,0-.04,0-.06,0-.12,0-.2,.05-.26,.18m-18.42-1.37c1.17,1.7,2.33,3.41,3.49,5.12,.09,.13,.16,.12,.29,.06,2.37-1.17,4.74-2.34,7.11-3.51,.06-.03,.11-.07,.21-.12-3.74-.55-7.42-1.09-11.13-1.64,.02,.06,.02,.08,.04,.1m-6.47,2.66c1.41,2.77,2.82,5.52,4.24,8.31,1.37-1.93,2.71-3.84,4.07-5.76-1.37-1.89-2.73-3.78-4.1-5.67-1.42,1.05-2.81,2.08-4.2,3.12m-.54-.76c1.3-.94,2.58-1.86,3.89-2.81-1.84-.93-3.66-1.84-5.53-2.78,.56,1.9,1.1,3.73,1.64,5.59m-7.64-6.81c-.01,.44,0,.88-.04,1.31-.02,.21,.04,.37,.16,.54,2.76,3.82,5.52,7.63,8.28,11.45,.72,1,1.45,2,2.17,3,.01,0,.03-.01,.04-.02-.02-.05-.04-.1-.06-.14-.94-1.97-1.88-3.94-2.81-5.9-.22-.46-.39-.95-.69-1.35-1.99-2.66-4-5.29-6.01-7.94-.33-.43-.65-.86-1.02-1.33-.01,.17-.02,.27-.03,.38m18.95,3.66s0,.04,0,.06c2.82,.4,5.64,.81,8.5,1.21-.42-1.88-.83-3.72-1.25-5.59-2.43,1.45-4.84,2.88-7.25,4.32m12.22-.4c1.86,.06,3.69,.11,5.51,.16,0-.02,0-.04,.01-.06-1.9-1.44-3.8-2.87-5.74-4.34,.07,1.45,.14,2.84,.21,4.24m-31.12-5.2c1.97,2.58,3.94,5.17,5.9,7.75,.01,0,.03,0,.04-.01,0-.03-.01-.06-.02-.09-.51-1.65-1.03-3.29-1.55-4.94-.03-.1-.12-.19-.21-.25-.93-.57-1.86-1.13-2.79-1.69-.45-.27-.89-.54-1.34-.8-.01,.01-.02,.02-.03,.03m7.36,2.06c1.78,.88,3.55,1.74,5.31,2.61,0-.01,.02-.02,.03-.03-1.02-1.98-2.04-3.96-3.08-5.98-.76,1.14-1.5,2.26-2.26,3.4m-6.64-3.05c1.81,1.05,3.55,2.05,5.3,3.06,.9-1.33,1.79-2.65,2.71-4.02-2.69,.32-5.31,.64-8.02,.96m-5.15-.97c1.04,1.49,2.07,2.98,3.11,4.48,.02,0,.04,0,.06,0,.02-.54,.04-1.09,.04-1.63,0-.11-.07-.25-.15-.33-.67-.57-1.35-1.14-2.03-1.71-.33-.28-.66-.55-.99-.83-.01,.01-.02,.02-.03,.03m16.05-.39c1.24,2.43,2.46,4.84,3.69,7.26,2.24-1.45,4.45-2.89,6.67-4.33-1.05-2.22-2.09-4.4-3.13-6.6-2.42,1.23-4.81,2.44-7.23,3.67m-16.68-2.4c1.39,1.11,2.76,2.19,4.17,3.32-.15-2.01-.28-3.95-.43-5.93-1.27,.89-2.48,1.74-3.74,2.61m-.39-3.32c-.69,.07-1.37,.15-2.05,.22v.05c.27,.36,.53,.71,.8,1.07,.26,.35,.51,.71,.77,1.07,1.12-.89,2.22-1.77,3.37-2.69-1.01,.1-1.95,.19-2.88,.28m31.47,5.51c1.23-1.95,2.44-3.87,3.68-5.82-2.35-.17-4.65-.33-6.99-.5,1.11,2.12,2.2,4.2,3.32,6.32m6.31-.46c2.09,1.5,4.16,2.98,6.25,4.47,1.51-2.14,3.01-4.26,4.52-6.39-2.34-1.51-4.66-3-7.01-4.52-1.26,2.15-2.51,4.29-3.76,6.43m-31.05-5.08c.08,1.93,.15,3.84,.23,5.77,2.15-.15,4.27-.3,6.41-.46,.2-2.29,.4-4.57,.6-6.89-2.43,.53-4.82,1.05-7.24,1.58m9.85,3.25c2.72-1.56,5.4-3.1,8.12-4.65-2.4-.82-4.74-1.62-7.1-2.44-.34,2.37-.68,4.7-1.02,7.09m38.83-8.52c.69,1.65,1.39,3.3,2.09,4.94,.03,.06,.12,.13,.19,.14,.51,.11,1.03,.21,1.54,.3,.09,.02,.21-.03,.29-.08,.22-.16,.42-.35,.63-.53,.4-.33,.79-.66,1.19-.98v-.05c-1.97-1.26-3.94-2.53-5.91-3.8,0,.04-.01,.05,0,.06m-46.51-2.23c-.09,0-.2,.03-.28,.08-2.81,1.46-5.61,2.93-8.42,4.4-.06,.03-.1,.07-.21,.13,1.87-.06,3.67-.12,5.46-.19,.09,0,.19-.06,.27-.12,.75-.54,1.49-1.09,2.23-1.63,1.17-.86,2.34-1.71,3.53-2.59-.06-.02-.08-.03-.1-.03-.83-.01-1.66-.04-2.49-.05h0m.29,3.96s.02,.03,.02,.04c2.43-.57,4.86-1.13,7.32-1.7-.65-.79-1.29-1.55-1.93-2.32-1.81,1.33-3.61,2.66-5.41,3.98m22.38-8.73c-1.18,.16-2.36,.31-3.54,.46-1.52,.2-3.04,.39-4.57,.58-.17,.02-.26,.09-.33,.24-.31,.63-.64,1.25-.96,1.88-.46,.9-.93,1.81-1.41,2.74,.09,.02,.16,.04,.23,.06,2.59,.5,5.18,1,7.77,1.49,.37,.07,.76,.19,1.11,.13,2.09-.36,4.17-.76,6.26-1.15,.45-.08,.9-.17,1.37-.26-.06-.07-.09-.11-.13-.15-1.77-1.95-3.55-3.89-5.31-5.84-.12-.13-.23-.18-.37-.18-.04,0-.07,0-.11,0m9.28-.69c1.98,1.35,3.95,2.69,5.91,4.03,.01-.01,.02-.03,.03-.04-.86-1.86-1.73-3.72-2.6-5.61-1.11,.54-2.21,1.07-3.33,1.61m-25.53,.76c1.28,.75,2.54,1.49,3.84,2.25-.16-1.75-.32-3.44-.48-5.18-1.14,.99-2.24,1.95-3.36,2.93m36.45-3.5c.87,2.03,1.74,4.06,2.62,6.09,.03,.08,.11,.15,.19,.2,2.02,1.27,4.04,2.54,6.06,3.81,.06,.03,.12,.06,.21,.11-.06-.11-.09-.18-.12-.25-1.13-2.25-2.26-4.5-3.39-6.75-.06-.13-.16-.25-.27-.34-1.12-.91-2.24-1.81-3.36-2.72-.06-.05-.13-.1-.2-.1-.58-.05-1.15-.09-1.75-.14,.01,.04,.01,.07,.02,.09m-21.69-8.86c.81,2.64,1.62,5.28,2.44,7.94,1.3-.35,2.57-.7,3.84-1.04,0-.1,0-.17-.01-.25-.1-.78-.22-1.56-.3-2.35-.02-.22-.11-.35-.29-.47-1.59-1.09-3.19-2.18-4.78-3.28-.28-.19-.56-.39-.85-.58-.02,0-.03,.02-.05,.03"/>
          <g class="cls-1">
            <polygon class="cls-2" points="111.15 90.74 49.78 144.02 -2.76 83.65 58.61 30.36 111.15 90.74"/>
          </g>
        </g>
        <path class="cls-2" d="M94.25,77.38c.06,.06,.19,.06,.26,0l.6-.59c.16-.16,.16-.41,0-.59l-.6-.61c-.07-.05-.19-.05-.26,0l-.61,.61c-.16,.17-.16,.43,0,.59l.61,.59Z"/>
        <path class="cls-2" d="M97.74,78.17l-.86,.22c-.11,.02-.21,.12-.21,.26v3.65c0,1.37-1.13,2.51-2.5,2.51s-2.51-1.14-2.51-2.49v-1.9c0-.12-.08-.19-.21-.16l-.85,.22c-.12,.02-.21,.12-.21,.24v1.59c0,1.01,.39,1.94,1.1,2.65,.71,.7,1.66,.99,2.67,.99,2.06,0,3.76-1.59,3.76-3.65v-3.96c0-.14-.09-.19-.19-.17"/>
        <path class="cls-2" d="M112.98,84.61c-.07-.06-.19-.06-.26,0l-.6,.61c-.16,.16-.16,.42,0,.57l.6,.6c.07,.07,.19,.07,.26,0l.61-.6c.16-.16,.16-.42,0-.57l-.61-.61Z"/>
        <path class="cls-2" d="M117.69,77.94c-.12,0-.29,0-.47-.03-.58-.06-.76-.16-.8-.19l-.31-.33c-.76-.85-1.63-1.83-3.2-1.97-.42-.05-1.09-.05-1.79,.16-.67,.21-1.28,.59-1.76,1.13-.09,.08-.07,.21,.01,.29l.67,.52c.09,.07,.21,.07,.29-.01,.78-.83,1.86-.9,2.45-.83,1.09,.1,1.69,.77,2.4,1.56l.1,.14-.98,2.9c-.09,.26-.29,.43-.52,.43h-11.81c-.52,0-.92-.43-.92-.95v-6.81c0-.13-.09-.19-.21-.16l-.87,.29c-.1,.02-.19,.21-.19,.33v5.83c0,1.21,.97,2.72,2.18,2.72h11.81c1.13,0,1.58-1.09,1.76-1.68,.16-.46,.47-1.49,.7-2.25,.21,.07,.45,.11,.76,.15,.26,.02,.51,.04,.67,.04,.11,.02,.21-.09,.21-.19v-.83c0-.12-.1-.21-.21-.23"/>
        <path class="cls-2" d="M149.91,75.84c-.12,0-.27,.05-.35,.14l-.34,.33c-.09,.08-.14,.24-.14,.36v4.58c0,.24-.19,.43-.42,.43h-8.83c-.77,0-1.54-.05-2.32-.5,1.11-1.28,1.63-3.13,1.13-4.98l-.08-.33-.35-.11c-1.21-.29-2.44-.21-3.26,.16-.01-.5-.01-1.04,.02-1.58,.01-.12-.07-.22-.19-.22l-.5-.07c-.12-.01-.24,.09-.24,.23-.06,.74-.06,1.42-.05,2.07-.38,.23-.75,.52-1.05,.83-.7,.69-1.2,1.58-1.46,2.51-.16,.65-.21,1.32-.12,1.99h-9.21c-.54,0-.92-.43-.92-.95v-4.48c0-.12-.09-.17-.19-.12l-.88,.34c-.1,.04-.19,.17-.19,.29v6.09c0,.64-.23,1.11-.66,1.45-.26,.19-.57,.31-.95,.4-.11,.01-.16,.12-.11,.22l.49,.78c.07,.1,.19,.14,.29,.1,.4-.14,.73-.29,1.03-.5,.77-.59,1.18-1.42,1.18-2.46v-.26c.24,.21,.53,.33,.88,.33h10.08c1.32,0,3.03,0,4.38-.88,.87,.59,1.96,.88,3.29,.88h8.8c.44,0,.85-.17,1.14-.47l1.77,.43c.14,.01,.29,.03,.43,.01,.82-.1,1.46-.79,1.46-1.66v-1.66c0-2.01-1.56-3.65-3.55-3.75m-17.52,5.85c-.17-1.3,.47-2.66,1.41-3.6l.34-.31c.22,1.38,.71,2.53,1.43,3.37-.97,.46-2.2,.54-3.18,.54m2.71-4.48c.86-.42,1.69-.44,2.42-.31,.21,1.28-.14,2.54-.95,3.51-.7-.77-1.21-1.84-1.47-3.2m17.12,4.05c0,.24-.19,.43-.42,.43l-1.5-.1c.01-.09,.03-.21,.03-.33v-4.29c1.09,.27,1.88,1.45,1.88,2.63v1.66Z"/>
        <path class="cls-2" d="M78.86,92.18c.29,0,.54-.1,.73-.29,.19-.19,.29-.43,.29-.72,0-.15-.03-.28-.08-.4-.05-.12-.13-.23-.22-.33-.09-.09-.2-.17-.32-.22-.24-.1-.56-.1-.8,0-.12,.05-.23,.12-.32,.22-.09,.09-.17,.2-.22,.33-.05,.12-.08,.26-.08,.4,0,.28,.1,.52,.29,.72,.19,.19,.44,.29,.73,.29"/>
        <path class="cls-2" d="M83.71,99.1h-5.32c-.41,0-.75-.05-1.01-.15-.25-.1-.46-.24-.6-.4-.14-.17-.24-.36-.29-.58-.05-.22-.08-.47-.08-.72,0-.35,.04-.69,.11-1.01,.08-.33,.17-.62,.28-.86l.03-.06-.06-.03c-.28-.14-.53-.27-.75-.39-.23-.12-.49-.26-.78-.41l-.07-.04-.03,.07c-.17,.35-.31,.76-.43,1.23-.12,.47-.18,.97-.18,1.47,0,.45,.07,.91,.2,1.36,.13,.45,.36,.86,.67,1.22,.31,.36,.72,.65,1.23,.87,.5,.22,1.13,.33,1.87,.33h6.17c.27,0,.49-.09,.67-.27,.18-.18,.27-.4,.27-.67v-6.94h-1.89v6Z"/>
        <path class="cls-2" d="M81.53,92.18c.14,0,.28-.03,.41-.08,.12-.05,.24-.12,.33-.21,.09-.09,.17-.2,.22-.32,.05-.12,.08-.25,.08-.39,0-.29-.1-.54-.3-.73-.2-.2-.45-.3-.74-.3-.14,0-.27,.03-.4,.08-.13,.05-.24,.13-.33,.22-.09,.09-.16,.2-.21,.33-.05,.12-.08,.26-.08,.4,0,.28,.1,.52,.29,.72,.19,.19,.44,.29,.72,.29"/>
        <rect class="cls-2" x="87.82" y="89.26" width="1.88" height="11.69"/>
        <path class="cls-2" d="M96.71,95.62h0c-.01-.29-.02-.54-.03-.75,0-.2,0-.43,0-.67v-.08s-1.9,0-1.9,0v.08c0,.21,0,.43,0,.66,0,.23,.02,.47,.03,.71,.01,.33,.02,.67,.03,1.01,0,.35,.01,.7,.01,1.05,0,.49-.01,.99-.04,1.49-.03,.5-.09,.98-.17,1.44-.09,.46-.22,.9-.38,1.3-.16,.4-.38,.75-.65,1.05-.27,.3-.61,.54-1,.72-.39,.18-.87,.28-1.43,.31h-.07v1.89h.08c.82-.02,1.53-.17,2.13-.43,.6-.26,1.11-.62,1.54-1.05,.42-.44,.77-.95,1.03-1.52,.26-.57,.46-1.19,.6-1.82,.11-.55,.19-1.1,.22-1.66,.04-.56,.06-1.1,.06-1.63,0-.37,0-.74-.02-1.09l-.04-1.02Z"/>
        <path class="cls-2" d="M122.94,93.09h0c-.08-.08-.18-.15-.3-.2-.12-.05-.24-.07-.36-.07-.5-.01-1.01-.02-1.52-.03l-1.51-.02c-.54-.02-1.04,.09-1.51,.31-.47,.22-.88,.52-1.22,.89-.34,.36-.62,.78-.82,1.23-.2,.46-.3,.91-.3,1.36v2.54h-15.17v-9.83h-1.89v10.68s0,.06,0,.1c0,.26,.09,.49,.28,.67,.19,.18,.41,.27,.67,.27h23.01c.3,0,.53-.1,.69-.3,.16-.2,.24-.44,.24-.73v-6.21c0-.12-.02-.24-.07-.36-.05-.11-.12-.21-.2-.29m-1.62,1.58v4.43h-4.04v-2.55c0-.24,.06-.47,.16-.7,.11-.23,.26-.43,.44-.61,.18-.18,.39-.32,.62-.44,.23-.11,.46-.16,.7-.16h.07s.13,0,.3,0h.33c.14,0,.29,0,.45,0h.51c.15,.01,.3,.01,.45,.01"/>
        <path class="cls-2" d="M129.51,104.72c-.06-.08-.09-.16-.09-.25,0-.1,.03-.19,.1-.28,.06-.08,.17-.12,.32-.12h1.15s0-.94,0-.94h-1.15c-.2,0-.39,.04-.55,.11-.16,.07-.3,.18-.4,.3-.1,.12-.19,.27-.24,.43-.05,.16-.08,.32-.08,.49,0,.08,0,.16,.01,.24,0,.05,.02,.09,.03,.14h-.34v.95h2.81v-.95h-1.28c-.13-.01-.23-.05-.29-.13"/>
        <path class="cls-2" d="M131.19,96.84c-.03,.52-.16,.99-.38,1.38-.2,.36-.47,.68-.8,.98-.02-.26-.04-.51-.06-.75-.03-.28-.06-.56-.1-.82-.1-.71-.26-1.43-.47-2.15-.21-.72-.47-1.45-.78-2.15-.31-.7-.69-1.39-1.12-2.04-.43-.65-.93-1.27-1.48-1.83l-.05-.05-1.34,1.33,.05,.05c.61,.62,1.13,1.3,1.57,2.02,.43,.72,.79,1.48,1.07,2.26,.28,.78,.49,1.59,.62,2.4,.13,.8,.21,1.61,.22,2.41l-.13,.08c-.3,.07-.63,.14-.98,.21-.35,.07-.73,.13-1.13,.18h-.08s.01,.09,.01,.09c.05,.29,.1,.57,.13,.83,.04,.26,.08,.55,.14,.86v.07s.09-.01,.09-.01c.67-.11,1.3-.22,1.89-.34,.59-.11,1.13-.25,1.61-.42,.49-.16,.93-.36,1.32-.59,.39-.23,.74-.53,1.02-.88,.28-.35,.51-.78,.69-1.26,.17-.48,.29-1.07,.35-1.75v-7.69h-1.89v7.58Z"/>
        <rect class="cls-2" x="135.29" y="89.26" width="1.88" height="11.69"/>
        <path class="cls-2" d="M154.01,93.09h0c-.08-.08-.19-.15-.3-.2s-.24-.07-.36-.07c-.5-.01-1.01-.02-1.52-.03l-1.52-.02c-.53-.01-1.03,.09-1.5,.32-.46,.23-.87,.52-1.22,.89-.34,.36-.62,.78-.82,1.23-.2,.46-.31,.91-.32,1.35v2.59c-.41,.07-.79,.19-1.14,.34-.37,.16-.69,.39-.97,.66-.27,.28-.49,.61-.64,1.01-.15,.39-.23,.85-.23,1.36v3.29h1.9v-3.29c0-.35,.04-.63,.13-.84,.09-.2,.21-.35,.37-.45,.16-.1,.37-.17,.6-.21,.24-.03,.52-.05,.82-.05h6.05c.26,0,.48-.09,.67-.27,.18-.18,.27-.41,.27-.67v-6.3c0-.12-.03-.24-.08-.36-.05-.11-.12-.21-.2-.29m-3.72,1.55h.07s.14,0,.29,0c.15,0,.37,0,.66,.01,.27,0,.63,0,1.08,.01v4.44h-4.04v-2.5c0-.26,.06-.52,.16-.75,.11-.24,.26-.45,.44-.63,.18-.18,.39-.32,.62-.43,.23-.11,.47-.16,.72-.16"/>
        <rect class="cls-2" x="156.34" y="89.26" width="1.89" height="11.69"/>
        <path class="cls-2" d="M156.94,87.2c-.13-.01-.23-.05-.28-.12-.06-.08-.09-.16-.09-.25,0-.1,.03-.19,.1-.28,.06-.08,.17-.12,.32-.12h1.15s0-.94,0-.94h-1.15c-.21,0-.39,.04-.55,.11-.16,.08-.3,.18-.4,.3-.11,.13-.19,.27-.24,.43-.05,.16-.08,.32-.08,.49,0,.08,0,.16,.01,.24,0,.05,.02,.09,.03,.14h-.34v.95h2.81v-.95h-1.28Z"/>
        <path class="cls-2" d="M70.11,110.1c0,1.59-.83,2.49-2.04,2.49s-2.04-.87-2.04-2.48,.83-2.51,2.04-2.51,2.04,.88,2.04,2.5m-3.37,0c0,1.39,.54,1.94,1.33,1.94s1.33-.55,1.33-1.95-.5-1.96-1.33-1.96-1.33,.57-1.33,1.96"/>
        <polygon class="cls-2" points="73.56 108.25 72.22 108.25 72.22 112.51 71.55 112.51 71.55 108.25 70.18 108.25 70.18 107.69 73.63 107.69 73.56 108.25"/>
        <polygon class="cls-2" points="76.82 110.25 74.78 110.25 74.78 112.51 74.12 112.51 74.12 107.69 74.78 107.69 74.78 109.7 76.82 109.7 76.82 107.69 77.48 107.69 77.48 112.51 76.82 112.51 76.82 110.25"/>
        <polygon class="cls-2" points="81.14 108.22 79.27 108.22 79.27 109.79 80.89 109.79 80.89 110.33 79.27 110.33 79.27 111.98 81.27 111.98 81.27 112.51 78.6 112.51 78.6 107.69 81.22 107.69 81.14 108.22"/>
        <path class="cls-2" d="M83.49,110.47h-.75v2.04h-.67v-4.82h1.27c1.2,0,1.83,.46,1.83,1.37,0,.68-.35,1.09-1.05,1.3l1.3,2.16h-.79l-1.16-2.04Zm-.08-.51c.67,0,1.06-.25,1.06-.9,0-.6-.34-.85-1.13-.85h-.6v1.75h.67Z"/>
        <path class="cls-2" d="M91.37,110.1c0,1.59-.83,2.49-2.04,2.49s-2.04-.87-2.04-2.48,.83-2.51,2.04-2.51,2.04,.88,2.04,2.5m-3.37,0c0,1.39,.55,1.94,1.33,1.94s1.33-.55,1.33-1.95-.5-1.96-1.33-1.96-1.33,.57-1.33,1.96"/>
        <polygon class="cls-2" points="94.67 108.22 92.85 108.22 92.85 109.87 94.42 109.87 94.42 110.39 92.85 110.39 92.85 112.51 92.18 112.51 92.18 107.69 94.75 107.69 94.67 108.22"/>
        <polygon class="cls-2" points="99.7 108.25 98.36 108.25 98.36 112.51 97.7 112.51 97.7 108.25 96.32 108.25 96.32 107.69 99.77 107.69 99.7 108.25"/>
        <polygon class="cls-2" points="102.96 110.25 100.93 110.25 100.93 112.51 100.26 112.51 100.26 107.69 100.93 107.69 100.93 109.7 102.96 109.7 102.96 107.69 103.63 107.69 103.63 112.51 102.96 112.51 102.96 110.25"/>
        <polygon class="cls-2" points="107.28 108.22 105.41 108.22 105.41 109.79 107.04 109.79 107.04 110.33 105.41 110.33 105.41 111.98 107.42 111.98 107.42 112.51 104.75 112.51 104.75 107.69 107.36 107.69 107.28 108.22"/>
        <path class="cls-2" d="M113.18,112.51h-.89l-1.96-4.09c.04,.4,.09,.99,.09,1.88v2.21h-.62v-4.82h.87l1.98,4.1c-.01-.11-.09-.88-.09-1.47v-2.63h.62v4.82Z"/>
        <path class="cls-2" d="M116.51,111.3h-1.83l-.37,1.21h-.67l1.55-4.82h.84l1.54,4.82h-.7l-.36-1.21Zm-.16-.54l-.75-2.52-.76,2.52h1.51Z"/>
        <polygon class="cls-2" points="120.47 108.25 119.13 108.25 119.13 112.51 118.46 112.51 118.46 108.25 117.09 108.25 117.09 107.69 120.54 107.69 120.47 108.25"/>
        <rect class="cls-2" x="121.03" y="107.69" width=".67" height="4.82"/>
        <path class="cls-2" d="M126.58,110.1c0,1.59-.83,2.49-2.04,2.49s-2.04-.87-2.04-2.48,.83-2.51,2.04-2.51,2.04,.88,2.04,2.5m-3.37,0c0,1.39,.55,1.94,1.33,1.94s1.33-.55,1.33-1.95-.5-1.96-1.33-1.96-1.33,.57-1.33,1.96"/>
        <path class="cls-2" d="M130.77,112.51h-.89l-1.96-4.09c.03,.4,.09,.99,.09,1.88v2.21h-.62v-4.82h.87l1.98,4.1c-.01-.11-.09-.88-.09-1.47v-2.63h.62v4.82Z"/>
        <polygon class="cls-2" points="135.96 108.22 134.14 108.22 134.14 109.87 135.71 109.87 135.71 110.39 134.14 110.39 134.14 112.51 133.47 112.51 133.47 107.69 136.03 107.69 135.96 108.22"/>
        <polygon class="cls-2" points="139.17 108.22 137.3 108.22 137.3 109.79 138.92 109.79 138.92 110.33 137.3 110.33 137.3 111.98 139.3 111.98 139.3 112.51 136.63 112.51 136.63 107.69 139.24 107.69 139.17 108.22"/>
        <path class="cls-2" d="M142.79,108.16l-.36,.41c-.37-.29-.7-.42-1.1-.42-.48,0-.87,.22-.87,.69,0,.41,.19,.6,1.06,.87,.77,.24,1.43,.54,1.43,1.46,0,.84-.64,1.43-1.72,1.43-.69,0-1.24-.23-1.64-.62l.37-.41c.36,.3,.74,.49,1.26,.49,.57,0,1.04-.28,1.04-.86,0-.47-.22-.68-1.04-.93-.94-.29-1.43-.64-1.43-1.39s.63-1.26,1.52-1.26c.67,0,1.09,.2,1.49,.56"/>
        <polygon class="cls-2" points="146.35 108.25 145.01 108.25 145.01 112.51 144.35 112.51 144.35 108.25 142.97 108.25 142.97 107.69 146.42 107.69 146.35 108.25"/>
        <rect class="cls-2" x="146.91" y="107.69" width=".67" height="4.82"/>
        <polygon class="cls-2" points="150.31 112.51 149.6 112.51 148.04 107.69 148.76 107.69 149.97 111.79 151.18 107.69 151.85 107.69 150.31 112.51"/>
        <path class="cls-2" d="M154.21,111.3h-1.83l-.36,1.21h-.67l1.55-4.82h.84l1.54,4.82h-.7l-.36-1.21Zm-.16-.54l-.75-2.52-.76,2.52h1.51Z"/>
        <polygon class="cls-2" points="156.4 111.93 158.39 111.93 158.31 112.51 155.74 112.51 155.74 107.69 156.4 107.69 156.4 111.93"/>
        <polygon class="cls-2" points="61.19 107.67 62.01 107.67 63.31 110.97 63.33 110.97 64.62 107.67 65.44 107.67 65.44 112.5 64.89 112.5 64.89 108.39 64.88 108.39 63.5 111.96 63.13 111.96 61.75 108.39 61.74 108.39 61.74 112.5 61.19 112.5 61.19 107.67"/>
      </g>
    </g>
  </g>
</svg>