<?xml version="1.0" encoding="UTF-8"?>
<svg id="Layer_2" data-name="Layer 2" xmlns="http://www.w3.org/2000/svg" viewBox="0 0 181.02 181.22">
  <defs>
    <style>
      .cls-1 {
        fill: #171726;
      }

      .cls-2 {
        fill: #1f1c2f;
      }

      .cls-3 {
        fill: #fff;
        fill-rule: evenodd;
      }
    </style>
  </defs>
  <g id="PHOTOGRAPHY">
    <g>
      <g>
        <path class="cls-2" d="M181.02,21.4V90.61H0V21.4C0,9.58,9.59,0,21.41,0H159.62c11.82,0,21.4,9.58,21.4,21.4Z"/>
        <path class="cls-1" d="M0,159.82V90.61H181.02v69.21c0,11.82-9.59,21.4-21.41,21.4H21.4c-11.82,0-21.4-9.58-21.4-21.4Z"/>
      </g>
      <path class="cls-3" d="M24.34,84.4h4.44c3.14,.03,5.71,2.8,5.71,6.18s-2.57,6.17-5.71,6.2h-4.44v-12.38h0Zm1.94,1.5v9.42h1.99c2.87-.08,4.29-2.31,4.29-4.68s-1.45-4.29-3.78-4.68l-2.5-.05h0Zm15.67-1.79c3.77,0,6.84,2.92,6.84,6.48s-3.07,6.47-6.84,6.47-6.83-2.91-6.83-6.47,3.07-6.48,6.83-6.48h0Zm.03,1.57c2.73,0,4.96,2.2,4.96,4.9s-2.23,4.89-4.96,4.89-4.97-2.2-4.97-4.89,2.24-4.9,4.97-4.9h0Zm7.34-1.26h1.83v10.92h3.5v1.42h-5.32v-12.34h0Zm11.26-.38c1.42,0,2.74,.42,3.84,1.13v2.25c-.91-1.09-2.28-1.8-3.82-1.8-2.73,0-4.96,2.23-4.96,4.96s2.23,4.94,4.96,4.94c1.54,0,2.91-.71,3.82-1.8v2.28c-1.09,.72-2.42,1.15-3.84,1.15-3.77,0-6.84-2.95-6.84-6.55s3.07-6.55,6.84-6.55h0Zm6.33,11.26h4.42v1.46h-6.35v-12.34h6.35v1.39h-4.42v3.67h4.42v1.5h-4.42v4.31h0Zm11.39,.68c-.19,.18-.41,.34-.68,.46-.26,.14-.52,.23-.81,.27-.07,.01-.14,.03-.2,.03-.07,.01-.14,.01-.2,.01-.19,0-.38-.03-.57-.07-.18-.05-.35-.14-.52-.26-.18-.14-.31-.31-.42-.53-.12-.2-.19-.42-.22-.66v-.08s-.01-.07-.01-.1,0-.04,.01-.07v-.11s.01-.01,.01-.03v-.1c.08-.38,.26-.68,.53-.93,.26-.25,.55-.46,.85-.64-.16-.19-.31-.4-.45-.6-.14-.19-.2-.42-.2-.66v-.11s.01-.05,.01-.1c.01,0,.01-.01,.01-.03h0s.01-.05,.01-.07,.01-.03,.01-.04c.07-.3,.22-.53,.46-.7,.23-.15,.49-.25,.76-.26h.18c.33,.03,.64,.15,.91,.37,.27,.2,.41,.51,.41,.9,0,.37-.12,.67-.34,.89-.22,.23-.48,.44-.75,.63l1.31,1.58c.12-.15,.26-.3,.38-.45,.11-.15,.23-.31,.33-.48l.45,.46c-.08,.15-.18,.3-.29,.42-.1,.12-.2,.26-.31,.38-.03,.03-.05,.05-.08,.08-.03,.03-.05,.05-.08,.08l.96,1.16h-.85l-.61-.7h0Zm-1.65,.18c.23-.03,.45-.1,.64-.22,.19-.12,.37-.26,.55-.41,.01,0,.03-.01,.04-.03,.01,0,.03-.01,.04-.03l-1.49-1.77s-.01,.01-.03,.03c-.01,0-.03,.01-.04,.03-.03,.01-.04,.03-.07,.04-.01,0-.03,.01-.04,.03-.12,.08-.23,.16-.34,.25-.11,.08-.2,.19-.29,.3-.03,.05-.07,.11-.1,.18-.03,.05-.05,.12-.07,.19-.01,.05-.03,.11-.04,.16-.01,.05-.01,.11-.01,.16,0,.29,.11,.55,.33,.78,.2,.22,.48,.34,.81,.34,0,0,.01,0,.01-.01h.05s.01-.01,.03-.01h.01Zm-.55-4.33h0v.04s-.01,.03-.01,.04v.03c0,.15,.04,.29,.12,.41,.08,.14,.18,.26,.29,.37,.03,.04,.07,.08,.1,.12,.03,.04,.07,.07,.1,.11,.03-.01,.04-.03,.07-.04,.01-.01,.04-.03,.07-.03,.16-.1,.3-.2,.44-.33,.14-.12,.22-.27,.25-.46v-.08s.01-.03,.01-.04v-.03c0-.19-.07-.36-.2-.46-.14-.12-.29-.19-.45-.2h-.12c-.14,0-.27,.05-.4,.14-.14,.1-.22,.23-.25,.42h0Zm13.63-7.85c2.46,0,4.63,1.26,5.84,3.13l-1.6,.82c-.89-1.41-2.46-2.33-4.23-2.33-2.76-.01-5,2.23-5,4.98s2.24,4.98,5,4.98c2.32,0,4.15-1.16,4.29-3.58h-3.99v-1.46h3.89s1.98,0,2.1,0c0,.01,0-3.8,0,.07s-2.1,6.61-6.31,6.61-6.89-2.98-6.89-6.61,3.1-6.61,6.89-6.61h0Zm5.27,12.78l5.11-12.38h1.22l5.15,12.38h-2.01l-1.42-3.5h-4.68l-1.39,3.5h-1.97Zm4.07-5.07l1.65-4.4,1.68,4.4h-3.33Zm25.34,5.07l5.11-12.38h1.22l5.15,12.38h-2.01l-1.42-3.5h-4.68l-1.39,3.5h-1.97Zm4.08-5.07l1.64-4.4,1.68,4.4h-3.32Zm20.44,5.07l5.11-12.38h1.22l5.15,12.38h-2.01l-1.42-3.5h-4.68l-1.39,3.5h-1.97Zm4.07-5.07l1.65-4.4,1.68,4.4h-3.33Zm-42.1-5.87c1.22,.14,1.67,.66,1.67,1.87,.01,1.22-.82,1.86-1.88,1.86h-1.61v-3.74h1.83Zm.1,5.24h.1c.9,0,2.51,.2,2.51,2.21,0,1.61-1.41,2.08-2.74,2.06h.33s-2.12,.01-2.12,.01v-4.29h1.93Zm-2.38,5.71h3.19c2.18,0,3.75-1.43,3.75-3.5,0-1.58-.98-2.8-2.38-3.28,.79-.51,1.24-1.41,1.24-2.55,0-1.87-1.26-3.02-3.11-3.06-1.01-.01-2.03,0-3.06,0h-1.12v12.38h1.47Zm11.66-10.94c1.22,.14,1.67,.66,1.68,1.87,.01,1.22-.82,1.86-1.88,1.86h-1.61v-3.74h1.82Zm.11,5.24h.1c.89,0,2.51,.2,2.51,2.21,0,1.61-1.42,2.08-2.74,2.06h.31s-2.1,.01-2.1,.01v-4.29h1.93Zm-2.38,5.71h3.19c2.17,0,3.75-1.43,3.75-3.5,0-1.58-1-2.8-2.39-3.28,.81-.51,1.24-1.41,1.24-2.55,0-1.87-1.26-3.02-3.1-3.06-1.02-.01-2.05,0-3.07,0h-1.11v12.38h1.47Zm18.69-12.34h1.17l8.67,9.16v-9.16h1.68v12.34h-1.28l-8.49-9.07v9.07h-1.75v-12.34h0Z"/>
    </g>
  </g>
</svg>