<?xml version="1.0" encoding="UTF-8"?>
<svg id="Layer_2" data-name="Layer 2" xmlns="http://www.w3.org/2000/svg" viewBox="0 0 181.02 181.22">
  <defs>
    <style>
      .cls-1 {
        fill: #fff;
      }

      .cls-2 {
        fill: #171726;
      }

      .cls-3 {
        fill: #1f1c2f;
      }
    </style>
  </defs>
  <g id="PHOTOGRAPHY">
    <g>
      <g>
        <path class="cls-3" d="M181.02,21.4V90.61H0V21.4C0,9.58,9.59,0,21.41,0H159.62c11.82,0,21.4,9.58,21.4,21.4Z"/>
        <path class="cls-2" d="M0,159.82V90.61H181.02v69.21c0,11.82-9.59,21.4-21.41,21.4H21.4c-11.82,0-21.4-9.58-21.4-21.4Z"/>
      </g>
      <g>
        <path class="cls-1" d="M68.57,87.14v9.94h-2.84v-14.97c.13,0,.25,0,.38,0,.99,0,1.98,0,2.98-.01,.26,0,.37,.08,.46,.32,1.29,3.53,2.59,7.06,3.88,10.58,.04,.12,.1,.24,.17,.43,.38-.99,.75-1.92,1.1-2.86,1.03-2.71,2.05-5.42,3.07-8.14,.1-.26,.22-.33,.49-.33,1.07,.02,2.15,0,3.24,0v14.98h-2.83v-9.98s-.03,0-.05-.01c-.04,.09-.08,.18-.12,.27-1.17,3.13-2.35,6.25-3.52,9.38-.1,.28-.23,.38-.54,.37-.6-.03-1.19-.02-1.79,0-.21,0-.31-.07-.39-.27-1.17-3.15-2.35-6.31-3.52-9.46-.03-.08-.06-.17-.09-.25h-.08Z"/>
        <path class="cls-1" d="M101.38,91.48v5.61h-3.06v-14.96c.08,0,.15-.02,.22-.02,1.92,0,3.85-.01,5.77,.01,.99,.01,1.98,.15,2.92,.49,2.21,.8,2.92,2.59,2.81,4.52-.1,1.68-.87,2.9-2.41,3.65,1.07,2.1,2.13,4.18,3.22,6.32-.52,0-.97,0-1.42,0-.56,0-1.12,0-1.69,0-.25,0-.38-.07-.49-.3-.83-1.68-1.69-3.35-2.52-5.02-.12-.25-.26-.33-.55-.32-.92,.03-1.84,.01-2.8,.01Zm0-6.79v4.21c.61,0,1.21,0,1.8,0,.36,0,.72,.01,1.07-.02,.4-.03,.81-.07,1.2-.16,.92-.21,1.43-.92,1.44-1.92,0-1-.51-1.67-1.45-1.9-1.33-.33-2.68-.17-4.07-.21Z"/>
        <path class="cls-1" d="M144,94.55c.73-.69,1.45-1.36,2.18-2.04,.61,.85,1.37,1.5,2.33,1.91,1.19,.51,2.42,.56,3.66,.29,1.07-.23,1.69-1.1,1.52-2.05-.1-.59-.43-1.04-.99-1.22-.77-.24-1.56-.42-2.36-.58-1.16-.23-2.32-.42-3.43-.86-1.47-.59-2.4-1.6-2.53-3.21-.14-1.67,.49-3.02,1.89-3.96,1.06-.71,2.27-.98,3.53-1.05,1.62-.1,3.2,.07,4.67,.82,1.13,.58,1.82,1.51,2.25,2.71-.88,.39-1.75,.78-2.63,1.17-.05-.07-.09-.13-.13-.21-.59-1.12-1.44-1.85-2.77-1.92-.94-.05-1.86-.09-2.75,.32-.65,.29-.96,.78-.92,1.43,.04,.68,.39,1.2,1.06,1.37,1.2,.3,2.43,.51,3.63,.8,.78,.19,1.58,.38,2.32,.71,2.72,1.21,2.84,3.84,1.97,5.64-.51,1.05-1.33,1.8-2.41,2.19-2.78,1.02-5.52,.95-8.16-.5-.77-.43-1.4-1.04-1.93-1.78Z"/>
        <path class="cls-1" d="M95.31,82.14v2.66h-7.74v3.25h7.19v2.7h-7.19v3.68h7.86v2.66h-10.96v-14.95h10.83Z"/>
        <path class="cls-1" d="M143.13,97.1c-1.09,0-2.14,0-3.19-.01-.09,0-.21-.16-.25-.27-.36-.95-.71-1.9-1.05-2.86-.08-.22-.17-.29-.4-.29-1.78,0-3.56,0-5.34,0-.23,0-.33,.07-.41,.29-.34,.97-.7,1.93-1.07,2.89-.04,.11-.18,.25-.27,.25-.99,.02-1.98,.01-3.04,.01,1.99-5.02,3.96-10,5.94-15,1,0,1.99,0,2.98,.01,.1,0,.24,.17,.28,.29,.94,2.36,1.87,4.72,2.81,7.09,.95,2.38,1.9,4.77,2.84,7.15,.06,.14,.11,.29,.17,.46Zm-7.59-11.59c-.69,1.9-1.35,3.72-2.03,5.57h4.1c-.69-1.85-1.37-3.67-2.07-5.57Z"/>
        <path class="cls-1" d="M126.98,97.1c-1.07,0-2.11,0-3.15-.01-.09,0-.23-.14-.27-.25-.36-.94-.7-1.88-1.04-2.82-.09-.24-.2-.35-.48-.35-1.77,.01-3.54,0-5.3,0-.21,0-.31,.07-.38,.27-.34,.97-.71,1.92-1.05,2.89-.08,.22-.18,.29-.41,.28-.95-.01-1.91,0-2.93,0,.05-.14,.09-.25,.13-.35,1.9-4.77,3.79-9.53,5.68-14.3,.1-.26,.21-.37,.51-.36,.84,.02,1.67,0,2.51,.02,.11,0,.29,.11,.33,.22,1.95,4.87,3.89,9.75,5.82,14.63,.01,.03,.01,.07,.03,.14Zm-5.5-6.01c-.69-1.85-1.37-3.66-2.04-5.47-.03,0-.05,.01-.08,.02-.65,1.81-1.31,3.61-1.97,5.45h4.1Z"/>
        <path class="cls-1" d="M25.95,78.52h3.02v22.18h-3.02v-22.18Z"/>
        <path class="cls-1" d="M55.85,78.55h3.04v22.14h-3.04v-22.14Z"/>
        <path class="cls-1" d="M53.47,73.09v3.05H31.37v-3.05h22.1Z"/>
        <path class="cls-1" d="M31.37,106.12v-3.03h22.09v3.03H31.37Z"/>
        <path class="cls-1" d="M40.91,97.07v-14.95h3.05v14.95h-3.05Z"/>
        <path class="cls-1" d="M51.49,97.1h-3.02v-14.97h3.02v14.97Z"/>
        <path class="cls-1" d="M36.4,82.13v14.96h-3.01v-14.96h3.01Z"/>
      </g>
    </g>
  </g>
</svg>