<?xml version="1.0" encoding="UTF-8"?>
<svg id="Layer_2" data-name="Layer 2" xmlns="http://www.w3.org/2000/svg" viewBox="0 0 181.02 181.22">
  <defs>
    <style>
      .cls-1 {
        fill: #fff;
      }

      .cls-2 {
        fill: #171726;
      }

      .cls-3 {
        fill: #1f1c2f;
      }

      .cls-4 {
        fill: #231f20;
      }
    </style>
  </defs>
  <g id="PHOTOGRAPHY">
    <g>
      <g>
        <path class="cls-3" d="M181.02,21.4V90.61H0V21.4C0,9.58,9.59,0,21.41,0H159.62c11.82,0,21.4,9.58,21.4,21.4Z"/>
        <path class="cls-2" d="M0,159.82V90.61H181.02v69.21c0,11.82-9.59,21.4-21.41,21.4H21.4c-11.82,0-21.4-9.58-21.4-21.4Z"/>
      </g>
      <g>
        <path class="cls-1" d="M59.27,108.25c12.45,0,22.73-10.02,22.75-22.67,.02-12.63-10.15-22.77-22.69-22.8-12.54-.04-22.81,10.1-22.82,22.74-.01,12.68,10.33,22.75,22.76,22.74Z"/>
        <path class="cls-1" d="M134.02,88.72c0,.15,0,.26,0,.37,0,1.5,0,3,0,4.5,0,.06,0,.12,0,.18,0,.11-.04,.19-.15,.22-.17,.05-.34,.12-.51,.17-1.08,.3-2.18,.48-3.31,.56-1.42,.1-2.82,.03-4.19-.33-2.15-.56-3.6-1.88-4.34-3.98-.37-1.04-.56-2.11-.63-3.2-.06-.96-.07-1.92-.06-2.88,.02-1.1,.14-2.2,.41-3.27,.22-.88,.53-1.72,1.03-2.49,.97-1.51,2.39-2.33,4.11-2.7,1.16-.26,2.34-.28,3.52-.22,.49,.03,.99,.1,1.47,.19,1.78,.34,3.22,1.23,4.37,2.63,.07,.08,.14,.16,.23,.25,1.41-1.31,2.81-2.6,4.19-3.88-.02-.06-.02-.08-.04-.09-.04-.07-.09-.13-.14-.19-1.18-1.55-2.7-2.64-4.49-3.37-1.97-.81-4.04-1.11-6.16-1.18-.9-.03-1.8,.02-2.71,.1-1.13,.1-2.24,.29-3.33,.61-3.8,1.11-6.47,3.47-7.9,7.18-.71,1.84-1.05,3.76-1.15,5.72-.09,1.65-.06,3.29,.15,4.93,.18,1.4,.47,2.77,.97,4.1,1.23,3.27,3.45,5.55,6.74,6.78,1.81,.68,3.7,.96,5.62,1.03,1.54,.06,3.07-.01,4.6-.22,1.49-.2,2.95-.5,4.37-.97,1.16-.38,2.28-.85,3.32-1.51,.18-.11,.26-.24,.25-.46-.01-.54,0-1.07,0-1.61,0-4,0-8,0-12,0-.13-.02-.27-.02-.4h-11.81c-.06,.38-.05,5.21,.02,5.45h5.55Z"/>
        <path class="cls-1" d="M92.4,70.46v29.53c.31,.07,20.67,.06,20.9,0,.07-.34,.05-5.45-.03-5.7h-14.09v-14.29c0-1.59,0-3.18,0-4.76,0-1.59,0-3.17,0-4.77h-6.78Z"/>
        <path class="cls-1" d="M129.12,109.75c-.36-.44-.79-.71-1.27-.88-.92-.34-1.87-.36-2.81-.17-1.4,.29-2.31,1.13-2.7,2.51-.12,.43-.17,.87-.22,1.32-.08,.81,0,1.61,.22,2.39,.35,1.24,1.14,2.04,2.4,2.36,.72,.18,1.46,.17,2.19,.11,.66-.05,1.31-.18,1.94-.42,.26-.1,.27-.1,.27-.39,0-1.16,0-2.32,0-3.48,0-.09-.02-.19-.03-.28h-3.2c-.04,.33-.05,.63,0,.98,.13,0,.24,0,.34,0,.43,0,.85,0,1.28,0,.31,0,.32,.01,.32,.32,0,.6,0,1.19,0,1.79,0,.09-.02,.17-.03,.27-.13,.03-.25,.06-.36,.09-.49,.11-.98,.13-1.48,.12-1.2-.02-2.07-.68-2.37-1.83-.27-1.04-.25-2.08,.06-3.11,.19-.64,.55-1.16,1.15-1.5,.31-.17,.64-.26,.99-.3,.87-.09,1.68,.08,2.36,.68,.05,.04,.1,.09,.17,.15,.26-.23,.51-.46,.78-.7Z"/>
        <path class="cls-1" d="M105.27,108.49c-.08-.03-.13-.05-.19-.07-.63-.17-1.27-.21-1.91-.07-.9,.19-1.41,.76-1.51,1.68-.04,.32-.03,.65-.05,.98,0,.1-.02,.21-.03,.35h-.8v.92c.29,.01,.55,.02,.83,.03,0,.18,.02,.31,.02,.45,0,1.38,0,2.76,0,4.14,0,.12,.02,.25,.03,.36h1.22c0-.14,.03-.27,.03-.39,0-1.38,0-2.76,0-4.14,0-.14,.02-.27,.03-.42,.69-.05,1.35,.02,2.01-.04v-.9c-.12,0-.21-.02-.31-.02-.5,0-.99,0-1.49,0-.24,0-.26-.03-.26-.25,0-.3,0-.6,.04-.89,.08-.66,.43-.97,1.09-.96,.32,0,.64,.06,1,.09,.1-.26,.2-.54,.25-.85Z"/>
        <path class="cls-1" d="M92.41,108.75c-.06,.43-.04,8.29,.02,8.51h5.03c.02-.35,.03-.68,0-1.03-.65,0-1.27,0-1.88,0-.61,0-1.22,.03-1.86-.03,0-.85,0-1.67,0-2.5s0-1.67,0-2.5c0-.82,0-1.64,0-2.46h-1.29Z"/>
        <path class="cls-1" d="M117.78,111.6c-.12-.05-.19-.08-.26-.1-.84-.27-1.71-.35-2.58-.24-.39,.05-.77,.18-1.11,.39-.87,.55-.96,2.08,.07,2.62,.16,.08,.32,.17,.48,.22,.47,.16,.94,.3,1.4,.48,.22,.08,.44,.19,.62,.34,.27,.22,.28,.6,.06,.85-.13,.15-.3,.22-.49,.26-.75,.14-1.48,.04-2.19-.2-.1-.03-.2-.07-.32-.12-.13,.31-.25,.6-.38,.89,.08,.04,.12,.07,.17,.08,1.01,.36,2.05,.44,3.1,.23,.93-.19,1.55-.75,1.49-1.83-.03-.5-.24-.9-.67-1.15-.25-.14-.52-.25-.78-.35-.45-.17-.92-.31-1.37-.49-.16-.06-.32-.16-.45-.28-.24-.21-.25-.55-.03-.77,.09-.1,.22-.17,.35-.22,.33-.11,.68-.14,1.03-.1,.48,.04,.94,.13,1.38,.33,.03,.01,.07,0,.13,.02,.12-.29,.24-.57,.37-.88Z"/>
        <path class="cls-1" d="M99.63,117.28c.07-.33,.06-5.67,0-5.89h-1.2c-.01,.07-.02,.12-.02,.17,0,1.84,0,3.69,0,5.53,0,.06,.03,.13,.04,.2h1.19Z"/>
        <path class="cls-1" d="M111.67,108.39c0,.99-.17,1.91-.66,2.75,.28,.18,.53,.33,.77,.49,.7-.7,1.26-2.53,1-3.24h-1.12Z"/>
        <path class="cls-1" d="M99.66,108.83h-1.25v1.11h1.25v-1.11Z"/>
        <path class="cls-1" d="M59.27,108.25c-12.42,.01-22.77-10.06-22.76-22.74,.01-12.64,10.28-22.77,22.82-22.74,12.54,.04,22.71,10.17,22.69,22.8-.02,12.65-10.31,22.68-22.75,22.67Zm.91-41.79c-3.07-.16-5.97,.4-8.74,1.66-3.82,1.74-6.78,4.45-8.84,8.12-4.04,7.2-2.96,16.41,2.88,22.48,5.81,6.04,14.98,7.62,22.46,3.77,7.74-3.98,10.76-11.63,10.39-17.79h-13.62c0,.58-.01,1.14,.01,1.72h9.41c.4,0,.79,0,1.19,0,.38,0,.76-.01,1.15,.01,0,.18,.01,.32,0,.46-.05,.42-.09,.85-.15,1.27-.41,2.72-1.4,5.21-3.03,7.42-3.18,4.32-7.46,6.72-12.82,7.16-1.71,.14-3.41-.01-5.08-.4-3.25-.76-6.04-2.36-8.4-4.72-4.16-4.17-5.81-9.96-4.66-15.59,1.16-5.67,5.2-10.45,10.58-12.56,1.38-.54,2.81-.91,4.29-1.07,.87-.09,1.74-.09,2.61-.13,.11,0,.23,0,.35-.01v-1.78Zm.06,27.22v-13.61c0-.75,0-1.51,0-2.26,0-.75,0-1.5,0-2.28-.65,0-1.26-.03-1.87,.02,0,.08-.02,.13-.02,.18,0,6.55,0,13.1,0,19.65,0,.03,0,.06,.02,.09,0,0,.01,.02,.02,.02,0,0,.01,.01,.02,.02,.44,.05,6.11,.03,6.36-.03,0-.58,.01-1.17,0-1.79h-4.52Zm-8.21-12.69c1.49,0,2.73-1.23,2.74-2.73,0-1.49-1.23-2.73-2.73-2.74-1.53,0-2.8,1.24-2.78,2.74,.01,1.51,1.25,2.72,2.77,2.72Z"/>
        <path class="cls-1" d="M134.02,88.72h-5.55c-.07-.24-.08-5.07-.02-5.45h11.81c0,.13,.02,.27,.02,.4,0,4,0,8,0,12,0,.54,0,1.07,0,1.61,0,.22-.08,.34-.25,.46-1.04,.66-2.16,1.13-3.32,1.51-1.43,.46-2.89,.77-4.37,.97-1.53,.21-3.06,.28-4.6,.22-1.92-.07-3.81-.36-5.62-1.03-3.29-1.22-5.51-3.51-6.74-6.78-.5-1.32-.79-2.7-.97-4.1-.21-1.64-.24-3.29-.15-4.93,.1-1.96,.44-3.88,1.15-5.72,1.44-3.71,4.1-6.07,7.9-7.18,1.09-.32,2.2-.51,3.33-.61,.9-.08,1.8-.13,2.71-.1,2.11,.06,4.18,.37,6.16,1.18,1.79,.74,3.31,1.83,4.49,3.37,.05,.06,.09,.13,.14,.19,.01,.02,.01,.04,.04,.09-1.38,1.28-2.78,2.57-4.19,3.88-.09-.1-.16-.17-.23-.25-1.14-1.39-2.59-2.29-4.37-2.63-.49-.09-.98-.17-1.47-.19-1.18-.06-2.36-.04-3.52,.22-1.72,.38-3.14,1.19-4.11,2.7-.49,.77-.81,1.61-1.03,2.49-.26,1.07-.39,2.17-.41,3.27-.01,.96,0,1.93,.06,2.88,.07,1.09,.26,2.16,.63,3.2,.74,2.1,2.19,3.43,4.34,3.98,1.38,.36,2.78,.43,4.19,.33,1.12-.08,2.22-.26,3.31-.56,.17-.05,.34-.11,.51-.17,.11-.03,.16-.11,.15-.22,0-.06,0-.12,0-.18,0-1.5,0-3,0-4.5,0-.11,0-.21,0-.37Z"/>
        <path class="cls-1" d="M92.4,70.46h6.78c0,1.6,0,3.18,0,4.77,0,1.59,0,3.18,0,4.76v14.29h14.09c.08,.25,.1,5.37,.03,5.7-.23,.07-20.59,.07-20.9,0v-29.53Z"/>
        <path class="cls-1" d="M129.12,109.75c-.27,.24-.52,.47-.78,.7-.07-.06-.12-.1-.17-.15-.68-.6-1.48-.76-2.36-.68-.35,.04-.68,.13-.99,.3-.6,.33-.96,.86-1.15,1.5-.3,1.03-.33,2.07-.06,3.11,.3,1.16,1.17,1.81,2.37,1.83,.5,0,.99-.02,1.48-.12,.12-.03,.23-.06,.36-.09,0-.1,.03-.18,.03-.27,0-.6,0-1.19,0-1.79,0-.3-.01-.31-.32-.32-.43,0-.85,0-1.28,0-.11,0-.21,0-.34,0-.06-.34-.05-.65,0-.98h3.2c0,.09,.03,.19,.03,.28,0,1.16,0,2.32,0,3.48,0,.28,0,.29-.27,.39-.62,.24-1.28,.37-1.94,.42-.73,.06-1.47,.07-2.19-.11-1.26-.32-2.05-1.12-2.4-2.36-.22-.78-.29-1.58-.22-2.39,.04-.44,.1-.89,.22-1.32,.39-1.38,1.3-2.22,2.7-2.51,.95-.2,1.89-.18,2.81,.17,.48,.18,.9,.45,1.27,.88Z"/>
        <path class="cls-1" d="M148.97,117.27h-1.04c-.05-.11-.1-.22-.16-.35-.08,.04-.15,.07-.22,.11-.76,.44-1.56,.49-2.39,.28-.65-.16-1.09-.6-1.34-1.21-.29-.71-.33-1.45-.26-2.19,.04-.41,.11-.8,.27-1.18,.39-.91,1.09-1.37,2.06-1.48,.54-.06,1.07-.04,1.58,.17,.02,0,.06,0,.12,0,.04-.49,.01-.99,.02-1.48,0-.48,0-.97,0-1.49,.43-.05,.83-.1,1.26-.16,0,.16,.02,.29,.02,.41,0,2.09,0,4.19,0,6.28,0,.55,.05,1.11,.07,1.66,0,.2,0,.39,0,.63Zm-1.35-3.03c0-.53,0-1.05,0-1.58,0-.2-.07-.32-.26-.37-.18-.05-.36-.12-.54-.14-.96-.11-1.59,.32-1.82,1.15-.16,.56-.17,1.14-.09,1.71,.04,.25,.11,.5,.22,.74,.17,.39,.48,.64,.89,.72,.47,.09,.92,.04,1.34-.22,.18-.11,.26-.24,.26-.46-.01-.52,0-1.03,0-1.55Z"/>
        <path class="cls-1" d="M136,114.31c-.06,.41-.08,.83-.18,1.23-.22,.94-.81,1.53-1.74,1.75-.72,.17-1.45,.19-2.18,0-.74-.19-1.23-.65-1.47-1.38-.23-.69-.27-1.4-.2-2.12,.03-.27,.07-.55,.15-.82,.24-.85,.8-1.4,1.65-1.63,.72-.19,1.45-.21,2.18-.04,.79,.19,1.3,.69,1.55,1.46,.16,.5,.2,1.01,.24,1.53Zm-4.51,.05c.03,.46,.05,.92,.22,1.35,.12,.31,.31,.56,.61,.7,.91,.44,1.99-.07,2.22-1.05,.13-.53,.16-1.08,.09-1.63-.04-.29-.1-.59-.2-.86-.15-.43-.48-.67-.93-.74-.14-.02-.28-.02-.42-.02-.75,.01-1.25,.38-1.43,1.11-.09,.37-.12,.76-.17,1.14Z"/>
        <path class="cls-1" d="M142.65,114.34c-.05,.38-.08,.77-.16,1.14-.21,.97-.81,1.59-1.79,1.82-.68,.16-1.36,.17-2.04,.03-.83-.17-1.38-.68-1.61-1.49-.26-.92-.28-1.86-.04-2.79,.24-.95,.87-1.52,1.81-1.73,.65-.15,1.32-.16,1.98,0,.78,.17,1.31,.63,1.58,1.39,.19,.53,.24,1.08,.27,1.65Zm-1.34,.15c0-.55-.01-1.02-.17-1.48-.16-.47-.46-.78-.96-.87-.15-.03-.32-.03-.47-.02-.71,.02-1.18,.37-1.39,1.04-.15,.48-.17,.98-.14,1.47,.02,.34,.07,.69,.16,1.02,.15,.51,.51,.83,1.05,.88,.95,.08,1.62-.27,1.81-1.25,.05-.28,.07-.57,.1-.78Z"/>
        <path class="cls-1" d="M110.73,114.61h-3.88c-.23,.97,.42,1.81,1.42,1.87,.63,.04,1.24-.07,1.83-.32,.1-.04,.2-.08,.34-.14,.09,.27,.18,.53,.27,.8-.36,.22-.72,.33-1.1,.42-.78,.2-1.56,.24-2.35,.06-.88-.2-1.42-.76-1.64-1.62-.21-.85-.22-1.71-.03-2.56,.26-1.15,1.05-1.79,2.22-1.89,.47-.04,.93-.03,1.39,.08,.67,.15,1.14,.55,1.37,1.2,.23,.66,.26,1.34,.22,2.02,0,.02-.02,.03-.05,.08Zm-1.31-.88c.12-.5-.13-1.28-.5-1.49-.42-.24-1.17-.21-1.58,.09-.37,.27-.59,.92-.47,1.4h2.56Z"/>
        <path class="cls-1" d="M105.27,108.49c-.05,.31-.15,.59-.25,.85-.35-.03-.67-.09-1-.09-.67,0-1.01,.3-1.09,.96-.04,.29-.04,.59-.04,.89,0,.23,.03,.25,.26,.25,.5,0,.99,0,1.49,0,.1,0,.19,.01,.31,.02v.9c-.66,.06-1.32-.01-2.01,.04-.01,.15-.03,.28-.03,.42,0,1.38,0,2.76,0,4.14,0,.13-.02,.25-.03,.39h-1.22c-.01-.12-.03-.24-.03-.36,0-1.38,0-2.76,0-4.14,0-.14-.01-.27-.02-.45-.28-.01-.54-.02-.83-.03v-.92h.8c.01-.14,.02-.24,.03-.35,.02-.33,.02-.65,.05-.98,.1-.92,.61-1.49,1.51-1.68,.64-.14,1.28-.1,1.91,.07,.06,.01,.11,.04,.19,.07Z"/>
        <path class="cls-1" d="M92.41,108.75h1.29c.01,.83,0,1.65,0,2.46,0,.83,0,1.67,0,2.5s0,1.64,0,2.5c.64,.06,1.25,.02,1.86,.03,.61,0,1.23,0,1.88,0,.04,.35,.02,.68,0,1.03h-5.03c-.06-.22-.08-8.08-.02-8.51Z"/>
        <path class="cls-1" d="M117.78,111.6c-.13,.31-.25,.59-.37,.88-.05,0-.09,0-.13-.02-.44-.19-.9-.28-1.38-.33-.35-.03-.7,0-1.03,.1-.13,.04-.25,.12-.35,.22-.22,.22-.21,.56,.03,.77,.13,.12,.29,.21,.45,.28,.45,.17,.92,.32,1.37,.49,.27,.1,.54,.21,.78,.35,.44,.25,.64,.65,.67,1.15,.06,1.08-.56,1.64-1.49,1.83-1.05,.21-2.09,.12-3.1-.23-.05-.02-.09-.04-.17-.08,.12-.29,.24-.58,.38-.89,.12,.05,.22,.08,.32,.12,.71,.25,1.44,.35,2.19,.2,.19-.04,.36-.11,.49-.26,.22-.25,.2-.63-.06-.85-.18-.15-.4-.26-.62-.34-.46-.17-.94-.31-1.4-.48-.17-.06-.33-.14-.48-.22-1.02-.54-.94-2.07-.07-2.62,.34-.22,.72-.34,1.11-.39,.88-.11,1.74-.03,2.58,.24,.07,.02,.15,.06,.26,.1Z"/>
        <path class="cls-1" d="M99.63,117.28h-1.19c-.02-.07-.04-.13-.04-.2,0-1.84,0-3.69,0-5.53,0-.05,.01-.1,.02-.17h1.2c.07,.23,.08,5.56,0,5.89Z"/>
        <path class="cls-1" d="M111.67,108.39h1.12c.26,.71-.31,2.54-1,3.24-.24-.15-.49-.31-.77-.49,.49-.85,.66-1.76,.66-2.75Z"/>
        <path class="cls-1" d="M99.66,108.83v1.11h-1.25v-1.11h1.25Z"/>
        <path class="cls-4" d="M60.18,66.45v1.78c-.12,0-.24,0-.35,.01-.87,.04-1.75,.04-2.61,.13-1.48,.15-2.9,.53-4.29,1.07-5.38,2.11-9.42,6.89-10.58,12.56-1.15,5.63,.49,11.43,4.66,15.59,2.36,2.36,5.14,3.96,8.4,4.72,1.67,.39,3.37,.54,5.08,.4,5.36-.44,9.64-2.84,12.82-7.16,1.63-2.21,2.62-4.7,3.03-7.42,.06-.42,.11-.85,.15-1.27,.01-.14,0-.28,0-.46-.38-.03-.76,0-1.15-.01-.4,0-.79,0-1.19,0h-9.41c-.02-.58,0-1.14-.01-1.72h13.62c.38,6.16-2.65,13.81-10.39,17.79-7.48,3.85-16.65,2.27-22.46-3.77-5.85-6.08-6.93-15.29-2.88-22.48,2.06-3.66,5.01-6.37,8.84-8.12,2.76-1.26,5.66-1.82,8.74-1.66Z"/>
        <path class="cls-4" d="M60.24,93.67h4.52c.02,.62,.01,1.21,0,1.79-.25,.06-5.92,.08-6.36,.03,0,0-.01-.01-.02-.02,0,0-.02-.01-.02-.02,0-.03-.02-.06-.02-.09,0-6.55,0-13.1,0-19.65,0-.05,.01-.1,.02-.18,.61-.04,1.22-.02,1.87-.02,.01,.78,0,1.53,0,2.28,0,.75,0,1.51,0,2.26v13.61Z"/>
        <path class="cls-4" d="M52.02,80.98c-1.52,0-2.76-1.22-2.77-2.72-.01-1.51,1.26-2.75,2.78-2.74,1.5,0,2.73,1.25,2.73,2.74,0,1.49-1.24,2.73-2.74,2.73Z"/>
      </g>
    </g>
  </g>
</svg>