<?xml version="1.0" encoding="UTF-8"?>
<svg id="Layer_2" data-name="Layer 2" xmlns="http://www.w3.org/2000/svg" viewBox="0 0 181.02 181.22">
  <defs>
    <style>
      .cls-1 {
        fill: #fff;
      }

      .cls-2 {
        fill: #171726;
      }

      .cls-3 {
        fill: #1f1c2f;
      }
    </style>
  </defs>
  <g id="REPUTATION_MGNT" data-name="REPUTATION MGNT">
    <g>
      <g>
        <path class="cls-3" d="M181.02,21.4V90.61H0V21.4C0,9.58,9.59,0,21.41,0H159.62c11.82,0,21.4,9.58,21.4,21.4Z"/>
        <path class="cls-2" d="M0,159.82V90.61H181.02v69.21c0,11.82-9.59,21.4-21.41,21.4H21.4c-11.82,0-21.4-9.58-21.4-21.4Z"/>
      </g>
      <g>
        <path class="cls-1" d="M110.07,87.62l-.61,9.59h5.77l.62-9.74c.28-4.43-2.86-4.75-4.92-4.97-.14-.01-1.24-.1-2.75-.1-.39,0-.8,0-1.24,.02-3.59,.12-8.01,.63-8.05,.64l-.1,.02-.91,14.14h5.8l.7-11.48s2.35-.3,3.68-.22c1.32,.08,2.11,.49,2.01,2.03"/>
        <path class="cls-1" d="M45.21,77.03h-.13v.13s-.54,6.91-.54,6.91h-9.06l.45-5.75c.01-1.23-1.03-1.28-1.55-1.28h-4.68v.13s-1.55,19.85-1.55,19.85v.15s.13,0,.13,0h6.18v-.13s.69-8.76,.69-8.76h9.06l-.68,8.74v.15s.14,0,.14,0h6.16v-.13s1.55-19.85,1.55-19.85v-.15s-.13,0-.13,0h-6.03Z"/>
        <polygon class="cls-1" points="53.47 82.51 53.34 82.51 53.33 82.63 52.22 97.14 52.2 97.14 52.35 97.14 58.27 97.14 58.4 97.14 58.41 97.14 59.52 82.65 59.53 82.51 59.38 82.51 53.47 82.51"/>
        <path class="cls-1" d="M58.58,77.03h-4.8v.15s-.28,3.55-.28,3.55v.14s.14,0,.14,0h6.04v-.13s.16-2.06,.18-2.43c.05-.86-.29-1.28-1.28-1.28"/>
        <path class="cls-1" d="M72.14,88.45l-2.21-.93c-1.55-.62-2.72-1.08-2.52-1.72,.11-.36,.82-.6,2.95-.6,1.91,0,4.04,.23,6.5,.69l.14,.03v-.14s.29-2.77,.29-2.77v-.12s-.11-.02-.11-.02c-.96-.19-3.54-.62-6.72-.69-.22,0-.44,0-.65,0-1.22,0-2.37,.07-3.41,.22-1.97,.27-5.31,1.14-5.48,3.89-.17,2.82,3.2,4.05,5.26,4.91l1.7,.68c1.95,.78,2.87,1.07,2.83,1.64-.04,.55-.78,.68-2.53,.68-.22,0-.45,0-.69,0-2.22-.05-5.34-.51-6.51-.71l-.15-.03v.14s-.19,3-.19,3v.12s.12,.02,.12,.02c.02,0,2.34,.37,7.29,.51,.29,0,.58,.01,.87,.01,3.6,0,8-.56,8.48-3.56,.44-2.75-2.45-3.98-5.27-5.24"/>
        <path class="cls-1" d="M96.69,91c1.24-7.05-5.01-8.42-6.47-8.64-.54-.07-1.12-.12-1.75-.13h-.07c-6.22,.11-8.66,3.3-9.62,5.64-.07,.18-.3,.81-.41,1.56-.01,.1-.02,.2-.03,.31,0,.05-.01,.1-.01,.14-.14,2.16,.46,5.79,5.68,7.04,.29,.07,.58,.13,.9,.18,1.08,.16,1.92,.34,4,.34,3.54,0,5.82-.52,6.79-.8,.1-.65,.31-1.99,.48-3.02-.48,.11-3.37,.72-6.51,.72-.1,0-.19,0-.29,0-4.38-.15-5.25-2.3-5.26-3.29,0,0,0-.02,0-.04h12.58Zm-12.34-2.76c.27-1.54,1.47-3.1,3.99-3.12,3.68,.03,3.44,3.12,3.44,3.12h-7.43Z"/>
        <path class="cls-1" d="M128.45,88.45l-2.22-.93c-1.55-.62-2.72-1.08-2.51-1.72,.11-.36,.82-.6,2.95-.6,1.91,0,4.04,.23,6.5,.69l.14,.03v-.14s.29-2.77,.29-2.77v-.12s-.12-.02-.12-.02c-.96-.19-3.53-.62-6.71-.69-.22,0-.44,0-.65,0-1.22,0-2.37,.07-3.41,.22-1.97,.27-5.31,1.14-5.48,3.89-.17,2.82,3.2,4.05,5.26,4.91l1.71,.68c1.95,.78,2.87,1.07,2.83,1.64-.04,.55-.78,.68-2.53,.68-.22,0-.45,0-.69,0-2.22-.05-5.35-.51-6.51-.71l-.14-.03v.14s-.2,3-.2,3v.12s.12,.02,.12,.02c.02,0,2.35,.37,7.29,.51,.29,0,.58,.01,.87,.01,3.6,0,7.99-.56,8.47-3.56,.44-2.75-2.45-3.98-5.27-5.24"/>
        <path class="cls-1" d="M153,91c1.24-7.05-5.01-8.42-6.47-8.64-.54-.07-1.12-.12-1.75-.13h-.07c-6.22,.11-8.66,3.3-9.62,5.64-.07,.18-.3,.81-.41,1.56-.01,.1-.02,.2-.03,.31,0,.05,0,.1-.01,.14-.14,2.16,.46,5.79,5.68,7.04,.29,.07,.58,.13,.9,.18,1.07,.16,1.92,.34,4,.34,3.54,0,5.82-.52,6.79-.8,.1-.65,.31-1.99,.48-3.02-.48,.11-3.37,.72-6.51,.72-.1,0-.19,0-.29,0-4.38-.15-5.25-2.3-5.26-3.29,0,0,0-.02,0-.04h12.58Zm-12.34-2.76c.27-1.54,1.46-3.1,3.99-3.12,3.67,.03,3.43,3.12,3.43,3.12h-7.43Z"/>
      </g>
    </g>
  </g>
</svg>