<?xml version="1.0" encoding="UTF-8"?>
<svg id="Layer_2" data-name="Layer 2" xmlns="http://www.w3.org/2000/svg" viewBox="0 0 181.02 181.22">
  <defs>
    <style>
      .cls-1 {
        fill: #fff;
      }

      .cls-2 {
        fill: #171726;
      }

      .cls-3 {
        fill: #1f1c2f;
      }
    </style>
  </defs>
  <g id="SEO">
    <g>
      <g>
        <path class="cls-3" d="M181.02,21.4V90.61H0V21.4C0,9.58,9.59,0,21.41,0H159.62c11.82,0,21.4,9.58,21.4,21.4Z"/>
        <path class="cls-2" d="M0,159.82V90.61H181.02v69.21c0,11.82-9.59,21.4-21.41,21.4H21.4c-11.82,0-21.4-9.58-21.4-21.4Z"/>
      </g>
      <g>
        <path class="cls-1" d="M151.19,79.27h-4.79c-.18,0-.33,.15-.33,.33v4.85c0,4.11,.07,8.13,.03,8.13h-.03s-3.5-4.89-4.96-6.84l-4.72-6.33s0,0,0-.01c-.06-.08-.16-.14-.27-.14h-4.63c-.18,0-.33,.15-.33,.33v22.02c0,.18,.15,.33,.33,.33h4.79c.18,0,.33-.15,.33-.33v-4.69c0-4.96-.07-8.46-.03-8.46h.03s3.08,4.31,5.15,7.16l4.53,6.17c.06,.09,.16,.15,.27,.15h4.63c.18,0,.33-.15,.33-.33v-22.02c0-.18-.14-.33-.33-.33"/>
        <path class="cls-1" d="M116.58,79.25c-6.27,0-11.33,4.78-11.33,11.36s5.06,11.36,11.33,11.36,11.36-4.78,11.36-11.36-5.09-11.36-11.36-11.36m0,17.54c-1.2,0-2.27-.29-3.15-.83-1.7-1.03-2.72-2.95-2.72-5.35s1.01-4.33,2.71-5.35c.88-.53,1.95-.83,3.16-.83,3.56,0,5.9,2.5,5.9,6.18s-2.34,6.18-5.9,6.18"/>
        <path class="cls-1" d="M90.34,79.27h-6.61c-.18,0-.33,.15-.33,.33v4.43c0,.18,.15,.33,.33,.33h6.61c3.24,0,6.06,2.46,6.06,6.35s-2.82,6.16-6.06,6.16h-6.61c-.18,0-.33,.15-.33,.33v4.43c0,.18,.15,.33,.33,.33h6.61c6.48,0,11.73-4.44,11.73-11.24s-5.25-11.44-11.73-11.44"/>
        <path class="cls-1" d="M75.61,81.33s-.02-.02-.03-.03c-.12-.08-.29-.06-.39,.05-.02,.02-.03,.03-.04,.05-.02,.02-.03,.04-.04,.07l-2.2,4.05s-.02,.04-.03,.06c-.05,.11-.03,.25,.07,.35,1.15,1.09,1.81,2.71,1.81,4.67,0,3.66-2.34,6.2-5.91,6.2s-5.89-2.54-5.89-6.2c0-1.89,.62-3.47,1.69-4.56,.09-.09,.12-.23,.07-.34,0-.02-.02-.04-.03-.06l-2.22-4.08s-.02-.04-.03-.06c-.01-.02-.03-.03-.04-.04-.1-.11-.27-.12-.39-.05-.02,.02-.04,.03-.06,.05-2.72,2.02-4.47,5.27-4.47,9.15,0,6.61,5.07,11.39,11.36,11.39s11.39-4.79,11.39-11.39c0-3.94-1.82-7.24-4.62-9.25"/>
        <path class="cls-1" d="M68.8,84.54s.03,0,.04,0c.02,0,.04,0,.06,0,1.44-.02,2.6-1.2,2.6-2.64s-1.18-2.64-2.64-2.64-2.64,1.18-2.64,2.64,1.15,2.61,2.59,2.64"/>
        <path class="cls-1" d="M54.02,79.26h-4.61c-.11,0-.2,.05-.26,.13l-.02,.04-4.14,6.7c-1.65,2.69-1.91,3.27-1.94,3.27h-.03s-.29-.58-1.94-3.27l-4.14-6.7-.02-.04c-.06-.08-.16-.13-.27-.13h-4.61c-.18,0-.33,.15-.33,.33v22.02c0,.18,.15,.33,.33,.33h4.69c.18,0,.33-.15,.33-.33v-5.21c0-5.38-.2-8.04-.16-8.04h.03l6.05,10.04h0s0,.01,0,.01c.03,.02,.07,.02,.09,0,0,0,0,0,0,0l6.05-10.05h.03s-.16,2.66-.16,8.04v5.21c0,.18,.15,.33,.33,.33h4.69c.18,0,.33-.15,.33-.33v-22.02c0-.18-.15-.33-.33-.33"/>
      </g>
    </g>
  </g>
</svg>