<?xml version="1.0" encoding="UTF-8"?>
<svg id="Layer_2" data-name="Layer 2" xmlns="http://www.w3.org/2000/svg" viewBox="0 0 181.02 181.22">
  <defs>
    <style>
      .cls-1 {
        fill: #fff;
      }

      .cls-2 {
        fill: #171726;
      }

      .cls-3 {
        fill: #1f1c2f;
      }
    </style>
  </defs>
  <g id="SEO">
    <g>
      <g>
        <path class="cls-3" d="M181.02,21.4V90.61H0V21.4C0,9.58,9.59,0,21.41,0H159.62c11.82,0,21.4,9.58,21.4,21.4Z"/>
        <path class="cls-2" d="M0,159.82V90.61H181.02v69.21c0,11.82-9.59,21.4-21.41,21.4H21.4c-11.82,0-21.4-9.58-21.4-21.4Z"/>
      </g>
      <g id="Layer_2-2" data-name="Layer 2">
        <g id="Graphic">
          <path class="cls-1" d="M29.75,92.88l.61-.16c.85-.23,1-.23,1-1.85v-11.02c0-1.61-.16-1.61-1.01-1.86l-.6-.15v-.39h8.37v.39l-.55,.12c-.89,.26-1,.3-1,1.86v4.9h4.03v-4.87c0-1.56-.12-1.61-1.01-1.86l-.55-.15v-.39h8.38v.39l-.61,.15c-.85,.23-1.01,.27-1.01,1.86v11.02c0,1.61,.16,1.61,1.01,1.85l.61,.16v.41h-8.37v-.39l.55-.16c.87-.25,1.01-.3,1.01-1.85v-5.32h-4.03v5.29c0,1.55,.14,1.61,1,1.85l.55,.16v.41h-8.38v-.41Z"/>
          <path class="cls-1" d="M55.97,83.94c0-1.02-.05-1.14-.73-1.61l-.73-.52v-.23l5.78-.6,.18,.14v9.52c0,1.21,.05,1.35,.81,1.61l.55,.2v.3l-5.57,.81-.19-.14v-1.69h-.06c-1.23,1.12-2.81,1.76-4.47,1.82-1.77,0-2.94-1.02-2.94-3.06v-6.55c0-1.02,0-1.1-.73-1.61l-.73-.52v-.23l5.78-.6,.19,.14v8.31c0,1.37,.48,1.78,1.3,1.78,.52,0,1.04-.04,1.55-.14l.03-7.13Z"/>
          <path class="cls-1" d="M62.08,87.93c0-5.02,3.11-6.96,6.75-6.96,.5-.01,1.01,.07,1.48,.23v-2.28c0-1.12-.09-1.21-.75-1.61l-.91-.5v-.31l6.09-.52,.19,.14s-.1,1.23-.1,2.76v11.76c0,1.21,0,1.35,.81,1.61l.55,.2v.3l-5.5,.81-.3-.21v-1.44h-.07c-.93,1-2.23,1.58-3.6,1.61-2.65,.03-4.64-1.77-4.64-5.58Zm8.24,3.31v-8.62c-.23-.61-.81-1-1.46-.98-1.27,0-2.19,1.17-2.19,5.16,0,3.56,.69,4.72,2.35,4.72,.45-.02,.88-.11,1.3-.27Z"/>
          <path class="cls-1" d="M76.87,90.69c0-2.19,1.81-2.78,3.74-3.31l2.6-.71v-2.19c0-2.1-.23-2.83-1.16-2.83-.57,0-.86,.11-.91,.94-.11,1.96-.6,2.47-1.96,2.47-1.23,0-1.83-.52-1.83-1.44,0-1.56,1.66-2.61,5.57-2.61,2.92,0,4.84,.85,4.84,3.27v6.25c0,1,.06,1.32,.5,1.55,.32,.14,.67,.22,1.02,.23v.35c-.89,.65-1.98,.98-3.08,.94-1.44,0-2.35-.52-2.69-1.48h-.1c-.76,1-1.97,1.55-3.23,1.48-2.03-.04-3.32-1.1-3.32-2.9Zm6.34,.73v-3.77l-.52,.05c-1.02,.07-1.44,.52-1.44,2.12s.5,2.06,1.12,2.06c.34,.02,.67-.15,.84-.45Z"/>
          <path class="cls-1" d="M98.52,84.28c.22-.48,.36-1,.41-1.52,.01-.47-.34-.88-.81-.94l-.59-.16v-.39h3.93v.39l-.43,.16c-.48,.19-.71,.59-1.4,2.23l-4.33,10.2c-1.03,2.42-1.97,3.69-4.18,3.69-1.27,0-2.42-.71-2.42-1.9,0-.98,.64-1.61,1.78-1.61,.83-.08,1.57,.53,1.65,1.36,0,.05,0,.11,0,.16,.05,.46,.11,.6,.41,.6,.48,0,1.23-.66,1.98-2.53l.1-.23-4.73-10.05c-.73-1.61-1-1.85-1.41-1.98l-.35-.11v-.39h7.81v.39l-.6,.19c-.47,.08-.81,.49-.81,.96,.05,.46,.17,.9,.36,1.32l1.83,4.61h.09l1.67-4.45Z"/>
          <path class="cls-1" d="M102.35,92.88l.41-.11c.91-.25,.95-.32,.95-1.37v-7.51c0-.98,0-1.07-.73-1.61l-.73-.52v-.23l5.65-.6,.18,.14v1.83h.07c.79-1.1,2.02-1.81,3.37-1.94,.96-.08,1.8,.64,1.88,1.6,0,.11,0,.21,0,.32,.12,1.02-.62,1.95-1.64,2.06-.09,.01-.18,.01-.27,.01-.82,.08-1.58-.43-1.82-1.21-.16-.34-.27-.45-.55-.45-.34,0-.67,.11-.94,.31v7.76c0,1.14,.11,1.21,.95,1.37l.51,.09v.48h-7.28v-.41Z"/>
          <path class="cls-1" d="M114.26,92.88l.41-.11c.91-.25,.96-.32,.96-1.37v-7.51c0-1-.07-1.09-.81-1.61l-.73-.52v-.2l5.91-.6,.18,.14c-.06,1.12-.09,1.92-.09,2.92v7.37c0,1.05,.05,1.12,.96,1.37l.41,.11v.43h-7.26l.06-.41Zm3.52-16.82c1.12,.1,1.95,1.09,1.86,2.21-.1,1.12-1.09,1.95-2.21,1.86-1.05-.09-1.86-.97-1.86-2.03,0-1.13,.91-2.04,2.04-2.04,.06,0,.12,0,.18,0Z"/>
          <path class="cls-1" d="M131.65,84.28c.22-.48,.36-1,.41-1.52,0-.47-.34-.87-.81-.94l-.6-.16v-.39h3.95v.39l-.44,.16c-.48,.19-.71,.59-1.4,2.23l-4.33,10.2c-1.03,2.42-1.97,3.69-4.18,3.69-1.27,0-2.42-.71-2.42-1.9,0-.98,.64-1.61,1.78-1.61,.83-.08,1.57,.53,1.65,1.36,0,.05,0,.11,0,.16,.05,.46,.12,.6,.41,.6,.48,0,1.23-.66,1.98-2.53l.1-.23-4.73-10.09c-.73-1.61-1-1.85-1.41-1.98l-.35-.11v-.39h7.81v.39l-.6,.19c-.47,.08-.81,.49-.81,.96,.05,.46,.17,.9,.36,1.32l1.83,4.61h.09l1.66-4.41Z"/>
          <path class="cls-1" d="M134.41,90.69c0-2.19,1.8-2.78,3.74-3.31l2.6-.71v-2.19c0-2.1-.23-2.83-1.16-2.83-.57,0-.87,.11-.91,.94-.11,1.96-.6,2.47-1.96,2.47-1.23,0-1.86-.52-1.86-1.48,0-1.56,1.67-2.61,5.57-2.61,2.92,0,4.84,.85,4.84,3.27v6.25c0,1,.07,1.32,.51,1.55,.32,.14,.67,.22,1.02,.23v.35c-.89,.65-1.98,.98-3.08,.94-1.44,0-2.35-.52-2.69-1.48h-.09c-.76,1-1.97,1.55-3.23,1.48-2.03,0-3.31-1.06-3.31-2.86Zm6.34,.73v-3.77h-.49c-1.02,.07-1.44,.52-1.44,2.12s.5,2.06,1.12,2.06c.32,.02,.63-.13,.81-.4Z"/>
          <path class="cls-1" d="M147.76,89.92v-7.41h-1.26v-.27c2-.77,3.64-2.25,4.61-4.15h1.15v3.23h2.78l-.19,1.23h-2.6v7.44c0,1.35,.25,1.69,1.48,1.69,.5,0,1-.06,1.48-.18v.39c-.94,1.14-2.37,1.78-3.86,1.71-2.56-.03-3.61-1.09-3.61-3.66Z"/>
          <path class="cls-1" d="M42.06,117.64l.6-.15c.81-.23,1-.5,1-2.31v-10.6c0-1.61-.15-1.61-1-1.85l-.61-.16v-.39h6.94l2.86,8.04h.09l2.97-8.01h6.85v.39l-.61,.16c-.81,.23-1.01,.27-1.01,1.85v11.01c0,1.61,.16,1.61,1.01,1.85l.61,.16v.39h-8.51v-.39l.61-.16c.89-.23,1.02-.27,1.02-1.85v-10.79h-.11l-4.68,12.85h-.97l-4.46-12.85h-.09v10.18c0,1.91,.06,2.21,1.1,2.42l.64,.16v.39h-4.24v-.35Z"/>
          <path class="cls-1" d="M62.43,115.45c0-2.19,1.8-2.78,3.73-3.31l2.61-.7v-2.19c0-2.1-.23-2.83-1.16-2.83-.57,0-.87,.11-.91,.94-.12,1.96-.6,2.47-1.97,2.47-1.23,0-1.85-.52-1.85-1.48,0-1.56,1.67-2.61,5.57-2.61,2.92,0,4.84,.81,4.84,3.23v6.25c0,1,.07,1.32,.5,1.55,.33,.14,.68,.22,1.03,.23v.34c-.9,.67-2,1.02-3.12,.98-1.44,0-2.35-.52-2.69-1.48h-.09c-.77,.99-1.97,1.55-3.23,1.48-1.98,0-3.26-1.07-3.26-2.86Zm6.34,.73v-3.82l-.52,.05c-1.02,.07-1.44,.52-1.44,2.12s.5,2.06,1.11,2.06c.34,.03,.66-.13,.85-.41Z"/>
          <path class="cls-1" d="M75.59,117.64l.41-.11c.91-.25,.95-.32,.95-1.37v-7.53c0-.98,0-1.07-.73-1.61l-.73-.52v-.23l5.65-.6,.18,.14v1.83h.07c.79-1.11,2.03-1.81,3.38-1.94,.95-.08,1.79,.63,1.87,1.59,0,.11,0,.22,0,.33,.12,1.02-.62,1.95-1.64,2.06-.09,.01-.18,.01-.27,.01-.82,.08-1.58-.43-1.82-1.21-.16-.34-.27-.45-.55-.45-.34,0-.67,.11-.94,.31v7.76c0,1.15,.11,1.21,.95,1.37l.51,.09v.41h-7.28v-.32Z"/>
          <path class="cls-1" d="M90.17,105.06c-.57-1.48-.81-2.16-1.61-2.35l-.5-.11v-.39h8.87v.39l-.64,.16c-.6,.15-.81,.43-.81,.95,.07,.62,.22,1.23,.46,1.81l2.57,7.55h.07l2.42-7.53c.23-.57,.38-1.16,.44-1.77,0-.6-.27-.81-.92-1l-.68-.16v-.39h4.36v.39l-.57,.18c-.59,.19-.94,.9-1.41,2.26l-4.52,12.99h-2.52l-5.02-12.98Z"/>
          <path class="cls-1" d="M103.72,117.64l.41-.11c.91-.25,.96-.32,.96-1.37v-7.53c0-1-.06-1.09-.81-1.61l-.73-.52v-.2l5.91-.6,.19,.14c-.04,1.19-.04,1.99-.04,2.96v7.37c0,1.05,.05,1.12,.96,1.37l.41,.11v.39h-7.26v-.39Zm3.52-16.82c1.12,.09,1.96,1.08,1.86,2.2-.09,1.12-1.08,1.96-2.2,1.86-1.06-.09-1.87-.97-1.87-2.03,0-1.13,.91-2.04,2.04-2.04,.06,0,.11,0,.17,0Z"/>
          <path class="cls-1" d="M112.03,117.84l-.14-3.94h.44c.51,.96,1.11,1.87,1.8,2.72,.47,.67,1.26,1.05,2.07,1,.84,.09,1.59-.51,1.68-1.35,0-.07,.01-.14,0-.2,0-.94-.48-1.3-2.88-2.22-2.1-.81-3.23-1.89-3.23-3.86,0-2.21,1.61-4.27,5.23-4.27,1.09-.02,2.18,.14,3.23,.46l.16,3.36h-.31c-.47-.76-1.01-1.47-1.61-2.12-.47-.63-1.22-1.01-2.01-1.01-.94,0-1.61,.5-1.61,1.37s.48,1.3,2.42,1.98c2.99,1.07,3.93,2.28,3.93,4.15,0,2.56-1.87,4.38-5.45,4.38-1.26,0-2.51-.15-3.73-.46Z"/>
          <path class="cls-1" d="M122.8,114.67v-7.41h-1.26v-.25c2-.76,3.64-2.25,4.61-4.15h1.14v3.23h2.78l-.18,1.23h-2.61v7.44c0,1.35,.25,1.69,1.48,1.69,.5,0,1-.06,1.48-.18v.39c-.95,1.13-2.38,1.74-3.86,1.65-2.56,0-3.61-1.07-3.61-3.63Z"/>
          <path class="cls-1" d="M130.7,115.45c0-2.19,1.8-2.78,3.74-3.31l2.6-.7v-2.19c0-2.1-.23-2.83-1.16-2.83-.57,0-.87,.11-.91,.94-.11,1.96-.6,2.47-1.97,2.47-1.23,0-1.85-.52-1.85-1.48,0-1.56,1.67-2.61,5.57-2.61,2.92,0,4.84,.81,4.84,3.23v6.25c0,1,.07,1.32,.51,1.55,.32,.14,.67,.22,1.02,.23v.34c-.9,.67-1.99,1.02-3.11,.98-1.44,0-2.35-.52-2.69-1.48h-.09c-.76,1-1.97,1.55-3.23,1.48-2,0-3.27-1.07-3.27-2.86Zm6.34,.73v-3.82l-.52,.05c-1.02,.07-1.44,.52-1.44,2.12s.5,2.06,1.12,2.06c.33,.03,.66-.13,.84-.41Z"/>
          <path class="cls-1" d="M92.49,50.54c-4.94,0-8.95,4.01-8.95,8.95s4.01,8.95,8.95,8.95c4.94,0,8.95-4.01,8.95-8.95s-4.01-8.95-8.95-8.95h0Zm8.07,8.51h-4.6c-.08-.65-.34-1.26-.75-1.77l3.23-3.23c1.27,1.37,2.02,3.13,2.12,4.99Zm-5.98-2.36c-.47-.36-1.03-.59-1.61-.67v-4.6c1.82,.09,3.54,.8,4.9,2.01l-3.29,3.26Zm-2.52-.67c-.59,.08-1.14,.31-1.61,.67l-3.23-3.23c1.36-1.2,3.09-1.91,4.9-2.01l-.06,4.57Zm.44,.81c1.3,0,2.41,.94,2.61,2.23h-5.19c.21-1.27,1.31-2.2,2.59-2.19v-.03Zm-5.96-2.78l3.23,3.23c-.41,.51-.68,1.12-.76,1.77h-4.6c.11-1.86,.86-3.63,2.13-4.99Zm5.96,13.53c-4.3,0-7.84-3.36-8.07-7.65h16.13c-.22,4.29-3.77,7.65-8.07,7.65Z"/>
          <rect class="cls-1" x="89.17" y="61.15" width="6.63" height=".87"/>
          <rect class="cls-1" x="90.66" y="63.23" width="3.64" height=".87"/>
        </g>
      </g>
    </g>
  </g>
</svg>