<?xml version="1.0" encoding="UTF-8"?>
<svg id="Layer_2" data-name="Layer 2" xmlns="http://www.w3.org/2000/svg" viewBox="0 0 181.02 181.22">
  <defs>
    <style>
      .cls-1 {
        fill: #171726;
      }

      .cls-2 {
        fill: #1f1c2f;
      }

      .cls-3 {
        fill: #fff;
        fill-rule: evenodd;
      }
    </style>
  </defs>
  <g id="SEO">
    <g>
      <g>
        <path class="cls-2" d="M181.02,21.4V90.61H0V21.4C0,9.58,9.59,0,21.41,0H159.62c11.82,0,21.4,9.58,21.4,21.4Z"/>
        <path class="cls-1" d="M0,159.82V90.61H181.02v69.21c0,11.82-9.59,21.4-21.41,21.4H21.4c-11.82,0-21.4-9.58-21.4-21.4Z"/>
      </g>
      <g id="design">
        <g id="graphic_logo_marsana-en" data-name="graphic/logo/marsana-en">
          <path id="english" class="cls-3" d="M31.21,95.27l-1.04-2.23c-.52-1.08-1.1-2.72-1.1-2.72h-.12s.09,1.55,.09,3.22v5.04h-6.27v-18.21h6.82l1.87,3.96c1.01,2.13,1.38,3.37,1.38,3.37h.12s.37-1.24,1.38-3.37l1.87-3.96h6.82v18.21h-6.27v-5.04c0-1.67,.09-3.22,.09-3.22h-.12s-.58,1.64-1.1,2.72l-1.04,2.23h-3.36Zm26.84,1h-6.01l-.74,2.43h-6.32l5.98-17.89h8.46l6.01,17.89h-6.57l-.81-2.43Zm-2.11-7.11c-.53-1.94-.9-3.49-.9-3.49h-.12s-.28,1.55-.81,3.49l-.65,2.46h3.13l-.65-2.46Zm21.34,9.53c-.58-.61-.76-1.15-1-2.22l-.3-1.4c-.21-1.06-.67-1.4-1.55-1.4h-1.13v5.01h-6.12v-17.89h8.67c4.11,0,7.18,1.49,7.18,5.77,0,2.98-1.46,4.28-3.62,4.65v.12c1.58,.24,2.37,1.03,2.83,2.64l.67,2.37c.3,1.03,.55,1.67,1.22,2.34h-6.85Zm-3.99-9.72h1.83c.91,0,1.52-.43,1.52-1.49,0-.91-.55-1.43-1.46-1.43h-1.89v2.92Zm16.76,3.64c.41,1.1,1.14,1.56,2.12,1.56,.85,0,1.3-.27,1.3-.82,0-.49-.41-.76-1.42-.92-5.5-.82-7.33-2.68-7.33-5.98,0-4.7,3.7-6.22,7.9-6.22s6.92,1.37,7.68,4.64l-6.23,1.34c-.16-.98-.82-1.28-1.68-1.28-.7,0-1.11,.27-1.11,.76,0,.58,.54,.88,2.05,1.07,4.74,.55,7.05,2.62,7.05,6.28,0,4.33-3.79,5.89-8.44,5.89-3.86,0-6.92-1.28-7.78-4.27l5.88-2.04Zm24.1,3.65h-6.01l-.74,2.43h-6.32l5.98-17.89h8.46l6.01,17.89h-6.57l-.81-2.43Zm-2.11-7.11c-.53-1.94-.9-3.49-.9-3.49h-.12s-.28,1.55-.81,3.49l-.65,2.46h3.13l-.65-2.46Zm20.45-3.1c1.21,1.7,1.92,2.92,1.92,2.92h.12s-.06-1.46-.06-3.16v-5.01h6.34v17.89h-5.26l-3.9-5.25c-1.17-1.61-1.98-2.88-1.98-2.88h-.12s.06,1.4,.06,3.67v4.46h-6.34v-17.89h5.57l3.65,5.25Zm21.03,2.8c-.53-1.98-.9-3.56-.9-3.56h-.12s-.28,1.58-.8,3.56l-.65,2.5h3.13l-.65-2.5Zm2.1,7.23h-6l-.74,2.47h-6.31l5.97-18.21h8.45l6,18.21h-6.56l-.8-2.47Z"/>
        </g>
      </g>
    </g>
  </g>
</svg>