<?xml version="1.0" encoding="UTF-8"?>
<svg id="Layer_2" data-name="Layer 2" xmlns="http://www.w3.org/2000/svg" viewBox="0 0 181.02 181.22">
  <defs>
    <style>
      .cls-1 {
        fill: #fff;
      }

      .cls-2 {
        fill: #171726;
      }

      .cls-3 {
        fill: #1f1c2f;
      }
    </style>
  </defs>
  <g id="SEO">
    <g>
      <g>
        <path class="cls-3" d="M181.02,21.4V90.61H0V21.4C0,9.58,9.59,0,21.41,0H159.62c11.82,0,21.4,9.58,21.4,21.4Z"/>
        <path class="cls-2" d="M0,159.82V90.61H181.02v69.21c0,11.82-9.59,21.4-21.41,21.4H21.4c-11.82,0-21.4-9.58-21.4-21.4Z"/>
      </g>
      <g>
        <path class="cls-1" d="M65.84,113.98v-4.55c0-.59-.25-1.23-1.33-1.23-.42-.02-.83,.06-1.21,.24v5.58h-1.02v-6.04c.73-.33,1.52-.49,2.32-.46,1.76,0,2.28,.98,2.28,1.86v4.57h-1.04v.04Z"/>
        <path class="cls-1" d="M70.56,114.1c-1.73,0-2.48-1.42-2.48-3.28s.76-3.31,2.46-3.31,2.48,1.39,2.48,3.29-.75,3.3-2.46,3.3Zm0-5.91c-1.21,0-1.45,1.35-1.45,2.63s.26,2.56,1.45,2.56,1.43-1.29,1.43-2.56-.22-2.63-1.43-2.63h0Z"/>
        <path class="cls-1" d="M76.63,113.98h-.93l-2.1-6.34h1.11l1.33,4.54c.08,.25,.13,.51,.16,.78h0c.03-.26,.08-.52,.15-.78l1.36-4.54h.96l-2.05,6.34Z"/>
        <path class="cls-1" d="M81.71,114.1c-1.73,0-2.48-1.42-2.48-3.28s.76-3.31,2.47-3.31,2.48,1.39,2.48,3.29-.75,3.3-2.47,3.3Zm0-5.91c-1.21,0-1.45,1.35-1.45,2.63s.26,2.56,1.45,2.56,1.43-1.29,1.43-2.56-.22-2.63-1.43-2.63h0Z"/>
        <path class="cls-1" d="M89.56,114.1c-1.33,0-2.32-1.28-2.32-3.28s.93-3.29,2.35-3.29c.47-.03,.94,.12,1.32,.4l-.18,.4c-.3-.23-.67-.34-1.05-.33-1.32,0-1.8,1.2-1.8,2.79s.6,2.83,1.76,2.83c.38,0,.76-.11,1.07-.34l.19,.43c-.39,.28-.86,.41-1.34,.39Z"/>
        <path class="cls-1" d="M92.47,106.3c-.23,0-.42-.19-.42-.42s.19-.42,.42-.42,.42,.19,.42,.42-.19,.42-.42,.42h0Zm-.32,7.68v-6.34h.63v6.34h-.63Z"/>
        <path class="cls-1" d="M98.02,113.98v-4.61c0-.66-.26-1.39-1.52-1.39-.48-.02-.96,.07-1.39,.26v5.76h-.66v-6.02c.66-.33,1.4-.49,2.14-.46,1.64,0,2.05,1.03,2.05,1.81v4.65h-.62Z"/>
        <path class="cls-1" d="M100.58,111.09c.09,1.68,.87,2.51,2.13,2.51,.53,.01,1.05-.12,1.52-.38l.2,.46c-.53,.28-1.12,.42-1.72,.41-1.53,0-2.71-.93-2.71-3.3,0-2.23,1.07-3.25,2.4-3.25s2.27,.86,2.27,2.96l-4.07,.58Zm1.77-3.09c-1.01,0-1.8,.78-1.8,2.7l3.45-.53c.02-1.58-.62-2.17-1.65-2.17Z"/>
        <path class="cls-1" d="M113.1,113.98v-4.61c.08-.69-.41-1.31-1.1-1.39-.1-.01-.2-.01-.3,0-.59-.01-1.16,.24-1.54,.69v5.31h-.63v-4.68c0-.8-.54-1.34-1.61-1.34-.46-.02-.91,.06-1.33,.26v5.76h-.64v-6.01c.61-.34,1.31-.5,2.01-.46,.73-.07,1.45,.24,1.91,.82,.49-.54,1.18-.84,1.91-.82,1.52,0,1.95,1.05,1.95,1.81v4.65h-.63Z"/>
        <path class="cls-1" d="M117.22,114.1c-1.55,0-2.22-.74-2.22-1.81,0-1.69,1.55-2.21,3.54-2.41v-.44c0-1.14-.67-1.45-1.54-1.45-.52,0-1.02,.15-1.47,.41l-.17-.42c.53-.29,1.11-.45,1.72-.46,1.06,0,2.07,.46,2.07,1.93v4.18c-.59,.32-1.25,.49-1.92,.47Zm1.32-3.84c-1.86,.25-2.91,.61-2.91,2.03,0,1.01,.63,1.42,1.68,1.42,.43,0,.85-.08,1.23-.26v-3.2h0Z"/>
        <path class="cls-1" d="M121.83,114.07c-.54,.02-1.07-.13-1.52-.42l.19-.46c.38,.27,.83,.4,1.29,.38,.71,.06,1.33-.47,1.39-1.18,0-.04,0-.08,0-.12,0-.76-.41-1.08-1.18-1.36-1.27-.46-1.51-1.13-1.51-1.78,.02-.92,.78-1.65,1.7-1.62,.02,0,.04,0,.05,0,.48,0,.94,.14,1.33,.42l-.19,.41c-.32-.24-.71-.37-1.11-.38-.62-.05-1.17,.42-1.22,1.04,0,.04,0,.09,0,.13,0,.71,.51,1.02,1.18,1.27,1.25,.46,1.55,1.13,1.55,1.86-.05,1.04-.93,1.85-1.98,1.8Z"/>
        <path class="cls-1" d="M45.31,99.87c-.13,2.07,2.43,1.6,3.51,.96,1.21-.73,2.14-1.84,2.64-3.16,.38-1.28,.57-2.61,.57-3.95,.07-1.96,.07-5.8,.04-7.76,1.36,1.76,2.15,5.21,2.15,5.21,.04,.15,.08,.3,.13,.46,.51,1.79,1.7,3.42,3.77,2.95,3.28-.73,3.41-5.08,3.95-7.71,.21-1.07,.49-2.13,.84-3.17,.25-.71,.54-1.4,.87-2.07,.27-.56,.58-1.09,.93-1.61,1.98-2.93,5.01-5.35,8.57-5.77,2.62-.31,5.16,0,7.33,1.58,.55,.4,1.05,.86,1.5,1.36,.67,.78,1.17,1.68,1.47,2.66-.75-.02-1.5-.1-2.24-.23-2.47-.42-3.94-1.73-5.97-3.01-2.1-1.29-5.08,1.15-6.61,2.48,0,0-3.62,3.4-3.94,8.52-.24,3.15,.62,6.29,2.42,8.89,1.3,1.8,3.07,3.2,5.11,4.07,1.64,.67,3.4,1.03,5.18,1.05,5.96,0,13.01-5.4,13.29-16.92,0,0,1.43-.55,2.79-1.26-.15,.89-.26,1.86-.36,2.74-.33,3.1-.72,6.7-.87,9.8-.14,1.31-.09,2.64,.13,3.94,.07,.32,.2,.61,.4,.87,.39,.42,.96,.64,1.54,.59,0,0,2.63,.32,7.64-7.44,1.09-1.69,2.61-3.78,3.79-5.4,.33-.46,.66-.93,1.01-1.39,.46-.59,.89-1.18,1.35-1.76,1.06-1.35,2.15-2.69,3.31-3.96,.21-.23,.42-.46,.64-.69h0l.07-.07c.43-.43,.88-.86,1.34-1.27s.93-.8,1.39-1.19c.22-.18,.44-.34,.66-.52l.42-.29c.46-.33,.98-.64,1.49-.93,.25-.15,.5-.29,.76-.43l.4-.2c.98-.45,2-.83,3.04-1.12,2.33-.62,4.77-.66,7.13-.14,4.77,1.05,7.98,6.15,7.38,11.01-.47,3.4-2.46,6.41-5.41,8.17-2.6,1.49-7.15,2.02-9.25-1.39-2.11-3.41,.9-7.47,.9-7.47,.33-.51,.68-.99,1.05-1.47,.89-1.19,2.08-2.64,1.35-4.23-.93-2.06-3.6-.32-4.65,.6-.74,.66-1.43,1.39-2.05,2.17-.71,.88-1.31,1.83-1.81,2.84-.85,1.73-1.37,3.6-1.51,5.52-.08,1.07-.04,2.15,.11,3.22,.29,2.29,1.31,4.42,2.92,6.07,1.76,1.74,4.31,2.17,6.68,2,2.81-.25,5.52-1.2,7.88-2.75,2.81-1.78,5.25-4.08,7.19-6.79,.54-.76,1.02-1.56,1.44-2.4,1.36-2.61,2.1-5.5,2.17-8.45,0-4.5-1.94-9.3-5.86-11.81-3.3-2.12-7.21-2.58-11.06-2.15-1.05,.12-2.09,.31-3.11,.57-11.16,2.79-20.26,14.72-23.1,18.82-.23,.32-.34,.51-.62,.46-.21-.08-.32-.31-.28-.53,.3-5.1,2.65-10.22,2.65-10.22,.08-.21,.12-.28,.21-.46l.06-.13c.19-.41,.4-.81,.59-1.22,.46-.96,.78-1.98,.93-3.03,.17-1.26-.31-2.5-1.82-2.39-2.32,.17-3.5,2.66-4.74,4.51-1.55,2.32-4.33,4.65-6.71,5.34-3.13-12.23-14.06-11.78-14.06-11.78-14.41,0-18.51,16.14-18.51,16.14-1.63-4.97-4.36-9.5-7.98-13.28-.66-.74-1.68-1.04-2.63-.77-1.39,.41-2.57,1.61-3.33,2.83-.85,1.37-1.43,2.46-.75,4.12,0,0,3.06,6.63,2.16,23.62Zm39.11-12.37c-.16,1.37-.57,2.7-1.21,3.93-.17,.31-.38,.6-.61,.86-.73,.81-1.69,1.38-2.75,1.64-.3,.07-.6,.12-.91,.13-.66,.05-1.32-.03-1.95-.23-1.05-.35-2-.93-2.79-1.7-.7-.66-1.29-1.43-1.75-2.28-.4-.8-.7-1.64-.9-2.51-.22-.93-.29-1.9-.21-2.85v-.11c3.4,2.79,8.72,2.92,13.13,2.25,0,.29-.01,.58-.04,.87Z"/>
        <path class="cls-1" d="M142.83,68v1.86h-.42v-1.86h-.59v-.33h1.62l-.04,.33h-.57Z"/>
        <path class="cls-1" d="M145.4,69.86l-.07-1.09v-.67h0l-.4,1.54h-.4l-.42-1.54h0c.01,.24,.01,.47,0,.71l-.1,1.06h-.4l.17-2.18h.53l.4,1.52h0l.41-1.54h.54l.15,2.19h-.4Z"/>
      </g>
    </g>
  </g>
</svg>