<?xml version="1.0" encoding="UTF-8"?>
<svg id="Layer_2" data-name="Layer 2" xmlns="http://www.w3.org/2000/svg" viewBox="0 0 181.02 181.22">
  <defs>
    <style>
      .cls-1 {
        fill: #171726;
      }

      .cls-2 {
        fill: #1f1c2f;
      }

      .cls-3 {
        fill: #fff;
        fill-rule: evenodd;
      }
    </style>
  </defs>
  <g id="VIDEO_PROD" data-name="VIDEO PROD">
    <g>
      <g>
        <path class="cls-2" d="M181.02,21.4V90.61H0V21.4C0,9.58,9.59,0,21.41,0H159.62c11.82,0,21.4,9.58,21.4,21.4Z"/>
        <path class="cls-1" d="M0,159.82V90.61H181.02v69.21c0,11.82-9.59,21.4-21.41,21.4H21.4c-11.82,0-21.4-9.58-21.4-21.4Z"/>
      </g>
      <g>
        <path class="cls-3" d="M149.9,85.28h-5.59c-.94,.06-1.2,.29-1.2,1.43v3.14h6.79v-4.57Zm2.98-2.52v13.7h-2.98v-3.94h-6.79v3.94h-2.98v-10.74c0-1.9,.77-2.96,2.98-2.96h9.77Zm-15.73,2.96v7.41c0,2.36-1.33,3.33-2.98,3.33h-9.39v-13.7h9.39c2.54,0,2.98,1.61,2.98,2.96Zm-3.01,.82c0-.75-.46-1.27-1.26-1.27h-5.12v8.56h5.12c1.17-.06,1.26-.76,1.26-1.31v-5.98Zm-70.07-3.78h2.98v5.4h6.66v-5.4h2.98v13.7h-2.98v-5.59h-6.66v5.59h-2.98v-13.7Zm17.73,0l3.73,5.6,3.69-5.6h3.62l-5.82,8.76v4.94h-2.98v-4.94l-5.86-8.76h3.62Zm27.76,0h9.6c1.37,0,2.69,.19,2.65,2.96v10.74h-2.98v-9.76c0-1.18-.14-1.43-1.07-1.43h-5.23v11.18h-2.98v-13.7Zm49.29,0v13.7h-2.98v-13.7h2.98Zm-64.52,13.7h9.6c1.91,0,2.69-.55,2.65-3.3v-10.4h-2.98v9.78c0,1.17-.14,1.31-1.07,1.31h-5.23v-11.1h-2.98v13.7Z"/>
        <path class="cls-3" d="M43.04,91.64c.26,1.36-.45,2.48-1.04,3.58-.66,1.02-1.74,1.89-3.04,1.76-2.92-.04-5.78-.49-8.43-1.29-.12-.03-.24-.11-.31-.22-.05-.15,.02-.3,.13-.39,2.42-1.96,5.3-2.87,8.14-3.82,1.06-.31,2.19-.63,3.38-.48,.49,.07,.99,.4,1.16,.86Zm9.97-5.8c1.36,1.12,2.58,2.64,2.17,4.48-.68,2.71-3.63,4.16-5.99,5.08-1.28,.43-2.57,.86-3.97,1-.09-.01-.23,.01-.25-.12l.03-.15c1.99-2.24,3.5-4.76,4.83-7.31,.61-1.15,1.18-2.33,1.71-3.49,.08-.09,.15-.13,.24-.16,.49,.04,.84,.43,1.24,.69Zm-19.1-2.89l-.04,.16c-2.88,3.27-4.77,7.07-6.57,10.85-.35,.33-.69-.11-1.01-.25-1.6-1.05-3.04-2.75-2.63-4.76,.67-2.63,3.37-4.03,5.63-4.98,1.34-.5,2.73-.91,4.19-1.14,.15,0,.35-.02,.43,.12Zm14.28,.53c.16,.09,.36,.12,.46,.28,.09,.19-.09,.31-.19,.43-2.27,1.77-4.86,2.76-7.51,3.62-1.35,.33-2.7,.92-4.2,.59-.35-.09-.67-.32-.86-.66-.37-1.03,.13-2.1,.57-3,.58-1.13,1.61-2.45,3.03-2.47,3.06-.02,5.95,.44,8.7,1.2Zm3.79,.09c2.32,1.27,4.95,3.5,4.67,6.48-.32,2.76-2.89,4.68-5.19,5.84-6.71,3.21-16.13,3.31-23.06,.5-2.34-.97-4.97-2.65-5.95-5.17-.76-2.07,.16-4.22,1.71-5.66,3.23-2.93,7.34-3.94,11.58-4.52,4.6-.56,9.43-.07,13.55,1.35,.92,.34,1.83,.71,2.69,1.17Z"/>
      </g>
    </g>
  </g>
</svg>