<?xml version="1.0" encoding="UTF-8"?>
<svg id="Layer_2" data-name="Layer 2" xmlns="http://www.w3.org/2000/svg" viewBox="0 0 27.19 27.9">
  <defs>
    <style>
      .cls-1 {
        fill: #fcdc00;
      }
    </style>
  </defs>
  <g id="CONTENT">
    <path id="SEPARATOR" class="cls-1" d="M13.03,27.9c-2.46-2.36-4.42-4.2-5.88-5.52-1.46-1.32-2.69-2.41-3.68-3.26-.99-.85-2.15-1.75-3.47-2.69v-1.41c.66-1.04,1.6-2.31,2.83-3.82,1.23-1.51,2.57-3.05,4.04-4.6,1.46-1.56,2.81-2.95,4.03-4.18,1.23-1.22,2.13-2.03,2.69-2.41h1.42c3.87,2.46,6.87,4.67,8.99,6.66,2.13,1.98,3.18,4.11,3.18,6.37s-1.34,4.86-4.03,7.51c-2.69,2.64-5.69,5.1-8.99,7.36h-1.13Z"/>
  </g>
</svg>