<?xml version="1.0" encoding="UTF-8"?>
<svg id="Layer_2" data-name="Layer 2" xmlns="http://www.w3.org/2000/svg" viewBox="0 0 217.14 296.37">
  <defs>
    <style>
      .cls-1 {
        fill: #fcdc00;
      }

      .cls-2 {
        fill: #fff;
      }

      .cls-3 {
        fill: #0c0b0b;
      }
    </style>
  </defs>
  <g id="CONTENT">
    <g id="LOGO">
      <path class="cls-1" d="M25.67,0H191.47C205.64,0,217.14,11.5,217.14,25.67V191.47c0,14.17-11.5,25.67-25.67,25.67H25.67C11.5,217.14,0,205.64,0,191.47V25.67C0,11.5,11.5,0,25.67,0Z"/>
      <g>
        <path class="cls-3" d="M111.42,88.7c-2.38-2.22-5.73-4.7-10.06-7.44h-1.58c-.63,.42-1.64,1.32-3.01,2.69-1.37,1.37-2.88,2.93-4.51,4.67-1.64,1.74-3.14,3.46-4.51,5.15-1.37,1.69-2.43,3.12-3.17,4.28v1.58c1.48,1.06,2.77,2.06,3.88,3.01,1.11,.95,2.48,2.17,4.12,3.64,1.64,1.48,3.83,3.54,6.57,6.18h1.27c3.7-2.54,7.05-5.28,10.06-8.24,3.01-2.95,4.51-5.75,4.51-8.39s-1.19-4.91-3.56-7.13Zm34.92,65.73c-3.59,2.64-7.31,5.15-11.17,7.52-3.86,2.37-7.63,4.57-11.32,6.57l-4.28,2.22c-1.06,.53-2.38,.87-3.96,1.03-1.58,.16-3.12,.24-4.59,.24-6.86,0-12.22-1.45-16.08-4.36-3.85-2.9-5.78-6.62-5.78-11.17,0-2.22,.74-4.46,2.22-6.73,1.48-2.27,3.69-4.14,6.65-5.62,2.95-1.48,6.6-2.22,10.93-2.22,2.11,0,4.44,.42,6.97,1.27,2.53,.85,4.75,2.27,6.65,4.28l1.9,.16c1.9-1.16,3.35-2.77,4.36-4.83,1-2.06,1.5-4.14,1.5-6.26,0-3.8-1.37-6.73-4.12-8.79-2.75-2.06-6.02-3.09-9.82-3.09-7.07,0-14.04,3.01-20.91,9.03-7.08,6.12-13.25,12.67-18.53,19.64-5.39,7.08-8.08,14.47-8.08,22.18,0,4.96,1.21,9.21,3.64,12.75,2.43,3.54,6.7,6.41,12.83,8.63-7.75,6.54-14.13,13.3-19.15,20.26h12.51c2.72-3.93,6.25-7.94,10.6-12.03,5.17-4.85,12.51-10.35,22.01-16.47,4.65-3.06,8.68-5.59,12.12-7.6,3.43-2,6.26-3.59,8.47-4.75,4.44-2.43,8.13-5.75,11.09-9.98,3.17-4.44,5.17-7.76,6.02-9.98l-2.69-1.9Z"/>
        <path class="cls-2" d="M141,16.39s-3.76,20.03-10.59,27.5c-1.1,.93-4.46,3.24-9.03-1.85-4.57-5.1-8.39-13.61-8.39-13.61,0,0-13.43,10.25-23.91,10.36-10.48,.12-12.16-7.47-13.2-9.32-.64,4.8-3.36,18.76,6.31,21.31,3.13,.81,13.26-.99,13.26-.99,0,0,8.92-1.45,17.25-7.82,.93,2.08,6.89,15.46,12.79,17.08,5.91,1.62,10.02-9.49,10.94-11.23,.93-1.74,5.62-13.06,4.57-31.44"/>
      </g>
      <g>
        <g>
          <path class="cls-2" d="M18.94,258h13.99c0,1.44-.06,2.74-.18,3.92-.12,1.18-.36,2.27-.72,3.27-.5,1.41-1.19,2.67-2.05,3.76-.86,1.09-1.88,2-3.04,2.73-1.16,.73-2.44,1.29-3.83,1.67-1.39,.38-2.85,.57-4.39,.57-2.11,0-4.03-.35-5.77-1.04-1.74-.69-3.23-1.67-4.48-2.93-1.25-1.26-2.22-2.77-2.91-4.53-.7-1.76-1.04-3.71-1.04-5.84s.34-4.05,1.02-5.81c.68-1.76,1.65-3.27,2.91-4.51,1.26-1.25,2.77-2.22,4.55-2.91s3.75-1.04,5.93-1.04c2.83,0,5.31,.61,7.44,1.83,2.13,1.22,3.82,3.12,5.07,5.68l-6.69,2.77c-.62-1.49-1.43-2.55-2.43-3.2-.99-.65-2.13-.97-3.4-.97-1.06,0-2.01,.2-2.88,.59-.86,.4-1.6,.96-2.21,1.69-.61,.73-1.09,1.61-1.44,2.64-.35,1.03-.52,2.18-.52,3.45,0,1.15,.15,2.22,.45,3.2,.3,.98,.75,1.83,1.35,2.55,.6,.72,1.34,1.28,2.23,1.67,.89,.4,1.92,.59,3.09,.59,.69,0,1.37-.08,2.01-.23,.65-.16,1.23-.41,1.74-.75,.52-.35,.94-.8,1.28-1.35,.34-.55,.56-1.22,.68-2.01h-5.79v-5.46Z"/>
          <path class="cls-2" d="M51.62,246.07v21.14h8.45v5.97h-15.5v-27.11h7.05Z"/>
          <path class="cls-2" d="M77.94,246.07v27.11h-7.05v-27.11h7.05Z"/>
          <path class="cls-2" d="M89.58,273.17l4.6-27.11h6.98l5.43,14.45,5.39-14.45h6.97l4.6,27.11h-7.01l-2.34-15.6-6.4,15.6h-2.8l-6.08-15.6-2.34,15.6h-7.01Z"/>
          <path class="cls-2" d="M142.26,273.17h-7.05v-27.11h11.22c3.04,0,5.38,.79,6.99,2.37,1.62,1.58,2.43,3.81,2.43,6.69s-.81,5.11-2.43,6.69c-1.62,1.58-3.95,2.37-6.99,2.37h-4.17v8.99Zm0-14.67h2.34c2.59,0,3.88-1.13,3.88-3.38s-1.29-3.38-3.88-3.38h-2.34v6.76Z"/>
          <path class="cls-2" d="M181.66,253c-.77-.62-1.53-1.08-2.3-1.38-.77-.3-1.51-.45-2.23-.45-.91,0-1.65,.22-2.23,.65-.58,.43-.86,.99-.86,1.69,0,.48,.14,.87,.43,1.19,.29,.31,.67,.58,1.13,.81,.47,.23,.99,.43,1.58,.59,.59,.17,1.17,.35,1.74,.54,2.3,.77,3.98,1.79,5.05,3.07,1.07,1.28,1.6,2.95,1.6,5.02,0,1.39-.23,2.65-.7,3.78s-1.15,2.09-2.05,2.89c-.9,.8-2,1.43-3.31,1.87-1.31,.44-2.79,.66-4.44,.66-3.43,0-6.6-1.02-9.53-3.06l3.02-5.68c1.05,.93,2.1,1.63,3.13,2.08,1.03,.46,2.05,.68,3.06,.68,1.15,0,2.01-.26,2.57-.79,.56-.53,.84-1.13,.84-1.8,0-.41-.07-.76-.22-1.06-.14-.3-.38-.57-.72-.83-.34-.25-.77-.49-1.31-.7-.54-.22-1.19-.46-1.96-.72-.91-.29-1.8-.61-2.68-.95-.87-.35-1.65-.81-2.34-1.38-.68-.58-1.23-1.3-1.65-2.18-.42-.87-.63-1.98-.63-3.33s.22-2.56,.67-3.65c.44-1.09,1.07-2.02,1.87-2.8,.8-.78,1.79-1.38,2.95-1.82,1.16-.43,2.46-.65,3.9-.65,1.34,0,2.74,.19,4.21,.56,1.46,.37,2.86,.92,4.21,1.64l-2.8,5.5Z"/>
          <path class="cls-2" d="M212.62,252.03h-8.38v4.53h7.91v5.97h-7.91v4.67h8.38v5.97h-15.42v-27.11h15.42v5.97Z"/>
        </g>
        <g>
          <path class="cls-2" d="M4.52,295.8v-9.39h1.97c.94,0,1.69,.09,2.24,.28,.59,.18,1.12,.49,1.6,.93,.97,.88,1.45,2.04,1.45,3.48s-.51,2.61-1.51,3.5c-.51,.45-1.04,.76-1.59,.93-.52,.17-1.25,.26-2.21,.26h-1.95Zm1.42-1.33h.64c.64,0,1.17-.07,1.59-.2,.42-.14,.8-.37,1.14-.68,.7-.64,1.05-1.47,1.05-2.49s-.34-1.86-1.03-2.51c-.62-.57-1.53-.86-2.74-.86h-.64v6.72Z"/>
          <path class="cls-2" d="M17.46,286.41v9.39h-1.42v-9.39h1.42Z"/>
          <path class="cls-2" d="M27.04,290.91h3.88v.31c0,.71-.08,1.33-.25,1.87-.16,.5-.44,.97-.82,1.41-.87,.98-1.98,1.47-3.32,1.47s-2.44-.47-3.37-1.42c-.94-.95-1.4-2.09-1.4-3.43s.48-2.52,1.43-3.46c.95-.95,2.11-1.43,3.48-1.43,.73,0,1.42,.15,2.05,.45,.61,.3,1.21,.79,1.79,1.46l-1.01,.97c-.77-1.03-1.71-1.54-2.81-1.54-.99,0-1.83,.34-2.5,1.03-.67,.67-1.01,1.52-1.01,2.53s.38,1.91,1.12,2.58c.7,.63,1.46,.94,2.28,.94,.7,0,1.32-.24,1.88-.71,.56-.47,.87-1.04,.93-1.7h-2.34v-1.33Z"/>
          <path class="cls-2" d="M36.6,286.41v9.39h-1.42v-9.39h1.42Z"/>
          <path class="cls-2" d="M43.94,287.74v8.05h-1.42v-8.05h-2.16v-1.33h5.73v1.33h-2.15Z"/>
          <path class="cls-2" d="M54.85,293.52h-4.02l-1.05,2.28h-1.53l4.64-9.98,4.48,9.98h-1.55l-.99-2.28Zm-.58-1.33l-1.39-3.19-1.46,3.19h2.85Z"/>
          <path class="cls-2" d="M62.46,286.41v8.05h2.76v1.33h-4.18v-9.39h1.42Z"/>
          <path class="cls-2" d="M77.98,287.74v8.05h-1.42v-8.05h-2.16v-1.33h5.73v1.33h-2.15Z"/>
          <path class="cls-2" d="M87.07,291.8l2.91,4h-1.73l-2.68-3.84h-.26v3.84h-1.42v-9.39h1.66c1.24,0,2.14,.23,2.69,.7,.61,.52,.91,1.2,.91,2.06,0,.66-.19,1.24-.57,1.71-.38,.48-.88,.78-1.51,.92Zm-1.76-1.08h.45c1.34,0,2.01-.51,2.01-1.54,0-.96-.65-1.44-1.96-1.44h-.51v2.98Z"/>
          <path class="cls-2" d="M99.39,293.52h-4.02l-1.05,2.28h-1.53l4.64-9.98,4.48,9.98h-1.55l-.99-2.28Zm-.58-1.33l-1.39-3.19-1.46,3.19h2.85Z"/>
          <path class="cls-2" d="M105.58,295.8v-10.02l6.85,7.16v-6.52h1.42v9.96l-6.85-7.14v6.57h-1.42Z"/>
          <path class="cls-2" d="M123.89,287.81l-1.15,.68c-.22-.37-.42-.62-.61-.73-.2-.13-.46-.19-.78-.19-.39,0-.72,.11-.98,.33-.26,.22-.39,.5-.39,.83,0,.46,.34,.83,1.02,1.11l.94,.38c.76,.31,1.32,.68,1.67,1.13s.53,.99,.53,1.63c0,.86-.29,1.58-.86,2.14-.58,.57-1.3,.85-2.16,.85-.81,0-1.49-.24-2.02-.72-.52-.48-.85-1.16-.98-2.04l1.44-.32c.06,.55,.18,.93,.34,1.14,.29,.41,.72,.61,1.28,.61,.44,0,.81-.15,1.1-.44,.29-.3,.44-.67,.44-1.12,0-.18-.03-.35-.08-.5-.05-.15-.13-.29-.24-.42-.11-.13-.25-.25-.42-.36-.17-.11-.37-.22-.61-.32l-.91-.38c-1.29-.54-1.93-1.34-1.93-2.38,0-.71,.27-1.3,.81-1.77,.54-.48,1.21-.72,2.01-.72,1.08,0,1.93,.53,2.53,1.58Z"/>
          <path class="cls-2" d="M135.27,286.91v1.68c-.82-.69-1.67-1.03-2.54-1.03-.97,0-1.78,.35-2.44,1.04-.67,.69-1,1.53-1,2.53s.33,1.82,1,2.49c.67,.68,1.48,1.02,2.44,1.02,.5,0,.92-.08,1.27-.24,.19-.08,.4-.19,.6-.33s.43-.3,.66-.5v1.71c-.81,.46-1.66,.69-2.55,.69-1.34,0-2.49-.47-3.43-1.4-.94-.94-1.42-2.08-1.42-3.42,0-1.2,.4-2.26,1.19-3.2,.97-1.15,2.23-1.72,3.77-1.72,.84,0,1.66,.23,2.44,.69Z"/>
          <path class="cls-2" d="M144.73,287.74h-3.76v2.26h3.65v1.33h-3.65v3.14h3.76v1.33h-5.18v-9.39h5.18v1.33Z"/>
          <path class="cls-2" d="M149.08,295.8v-10.02l6.85,7.16v-6.52h1.42v9.96l-6.85-7.14v6.57h-1.42Z"/>
          <path class="cls-2" d="M162.08,295.8v-9.39h1.97c.94,0,1.69,.09,2.24,.28,.59,.18,1.12,.49,1.6,.93,.97,.88,1.45,2.04,1.45,3.48s-.51,2.61-1.51,3.5c-.51,.45-1.04,.76-1.59,.93-.52,.17-1.25,.26-2.21,.26h-1.95Zm1.42-1.33h.64c.64,0,1.17-.07,1.59-.2,.42-.14,.8-.37,1.14-.68,.7-.64,1.05-1.47,1.05-2.49s-.34-1.86-1.03-2.51c-.62-.57-1.53-.86-2.74-.86h-.64v6.72Z"/>
          <path class="cls-2" d="M178.79,287.74h-3.76v2.26h3.65v1.33h-3.65v3.14h3.76v1.33h-5.18v-9.39h5.18v1.33Z"/>
          <path class="cls-2" d="M183.14,295.8v-10.02l6.85,7.16v-6.52h1.42v9.96l-6.85-7.14v6.57h-1.42Z"/>
          <path class="cls-2" d="M203.16,286.91v1.68c-.82-.69-1.67-1.03-2.54-1.03-.97,0-1.78,.35-2.44,1.04-.67,.69-1,1.53-1,2.53s.33,1.82,1,2.49c.67,.68,1.48,1.02,2.44,1.02,.5,0,.92-.08,1.27-.24,.19-.08,.4-.19,.6-.33s.43-.3,.66-.5v1.71c-.81,.46-1.66,.69-2.55,.69-1.34,0-2.49-.47-3.43-1.4-.94-.94-1.42-2.08-1.42-3.42,0-1.2,.4-2.26,1.19-3.2,.97-1.15,2.23-1.72,3.77-1.72,.84,0,1.66,.23,2.44,.69Z"/>
          <path class="cls-2" d="M212.62,287.74h-3.76v2.26h3.65v1.33h-3.65v3.14h3.76v1.33h-5.18v-9.39h5.18v1.33Z"/>
        </g>
      </g>
    </g>
  </g>
</svg>