<?xml version="1.0" encoding="UTF-8"?>
<svg id="Layer_2" data-name="Layer 2" xmlns="http://www.w3.org/2000/svg" xmlns:xlink="http://www.w3.org/1999/xlink" viewBox="0 0 257.59 190.76">
  <defs>
    <style>
      .cls-1 {
        fill: none;
      }

      .cls-2 {
        fill: url(#linear-gradient);
      }

      .cls-3 {
        clip-path: url(#clippath);
      }

      .cls-4 {
        fill: #fcdc00;
      }

      .cls-5 {
        fill: #fff;
      }

      .cls-6 {
        fill: #0c0b0b;
      }
    </style>
    <linearGradient id="linear-gradient" x1="11434.85" y1="7883.43" x2="11625.61" y2="7883.43" gradientTransform="translate(-11277.39 30884.86) scale(1 -3.91)" gradientUnits="userSpaceOnUse">
      <stop offset="0" stop-color="#7237bd"/>
      <stop offset="1" stop-color="#fd0988"/>
    </linearGradient>
    <clipPath id="clippath">
      <path class="cls-1" d="M22.27,1.76H166.06c12.29,0,22.26,9.98,22.26,22.26V167.82c0,12.29-9.98,22.26-22.26,22.26H22.26C9.98,190.08,0,180.11,0,167.82V24.02C0,11.73,9.98,1.76,22.27,1.76Z"/>
    </clipPath>
  </defs>
  <g id="VIDEO_PROD" data-name="VIDEO PROD">
    <g>
      <rect class="cls-2" x="157.46" y="90.63" width="190.76" height="9.5" rx="4.75" ry="4.75" transform="translate(157.46 348.22) rotate(-90)"/>
      <g id="LOGO">
        <path class="cls-4" d="M166.06,190.08H22.26c-12.3,0-22.26-9.97-22.26-22.26V24.02C0,11.72,9.97,1.76,22.26,1.76H166.06c12.3,0,22.26,9.97,22.26,22.26V167.81c0,12.3-9.97,22.26-22.26,22.26"/>
        <g class="cls-3">
          <path class="cls-6" d="M91.48,274.98c-9.71,0-18.04-1.83-25-5.49-6.96-3.66-12.32-8.79-16.07-15.38-3.75-6.59-5.63-14.33-5.63-23.21,0-12,2.38-22.62,7.14-31.87,4.76-9.25,12.13-18.09,22.12-26.51-5.31-1.92-9.02-4.42-11.13-7.49-2.11-3.07-3.16-6.75-3.16-11.06,0-6.68,2.34-13.1,7.01-19.23,4.58-6.04,9.93-11.72,16.07-17.03,5.95-5.22,11.99-7.83,18.13-7.83,3.3,0,6.13,.89,8.52,2.68,2.38,1.78,3.57,4.33,3.57,7.62,0,1.83-.44,3.64-1.31,5.42-.87,1.79-2.13,3.18-3.78,4.19l-1.65-.14c-1.65-1.74-3.57-2.98-5.77-3.71-2.2-.73-4.21-1.1-6.04-1.1-3.76,0-6.92,.64-9.48,1.92-2.57,1.28-4.49,2.91-5.77,4.88-1.28,1.97-1.92,3.92-1.92,5.84,0,3.94,1.67,7.17,5.01,9.68,3.34,2.52,7.99,3.78,13.94,3.78,1.28,0,2.61-.07,3.99-.2,1.37-.14,2.52-.43,3.43-.89l3.71-1.92c3.2-1.74,6.48-3.64,9.82-5.7,3.34-2.06,6.57-4.23,9.68-6.53l2.34,1.65c-.73,1.92-2.47,4.81-5.22,8.65-2.57,3.66-5.77,6.55-9.62,8.65-1.92,1.01-4.37,2.38-7.35,4.12-2.98,1.74-6.48,3.94-10.51,6.59-8.24,5.31-14.6,10.07-19.09,14.28-5.95,5.59-10.14,11.01-12.57,16.28-2.43,5.26-3.64,10.92-3.64,16.96,0,3.57,.62,7.12,1.85,10.65,1.24,3.53,3.3,6.75,6.18,9.68,2.88,2.93,6.78,5.26,11.68,7.01,4.9,1.74,11.06,2.61,18.47,2.61,5.13,0,10.53-.6,16.21-1.79,5.68-1.19,11.35-3.21,17.03-6.04,5.68-2.84,11.06-6.73,16.14-11.68,5.08-4.95,9.55-11.17,13.39-18.68l4.53,1.51c-2.47,6.41-5.45,12.87-8.93,19.37-3.48,6.5-7.44,12.7-11.88,18.61-4.44,5.91-9.43,11.17-14.97,15.8-5.54,4.62-11.59,8.29-18.13,10.99-6.55,2.7-13.67,4.05-21.36,4.05m-5.49-175.69c-2.38-2.29-4.28-4.07-5.7-5.36-1.42-1.28-2.61-2.34-3.57-3.16-.96-.82-2.08-1.69-3.36-2.61v-1.37c.64-1.01,1.56-2.24,2.75-3.71,1.19-1.47,2.49-2.95,3.92-4.46,1.42-1.51,2.72-2.86,3.91-4.06,1.19-1.19,2.06-1.97,2.61-2.33h1.38c3.75,2.38,6.66,4.53,8.72,6.46,2.06,1.92,3.09,3.98,3.09,6.18s-1.3,4.72-3.91,7.28c-2.61,2.56-5.52,4.94-8.72,7.14h-1.1Z"/>
          <path class="cls-5" d="M122.29,15.97s-3.26,17.37-9.19,23.85c-.96,.81-3.87,2.81-7.83-1.61-3.97-4.42-7.28-11.8-7.28-11.8,0,0-11.65,8.89-20.74,8.99-9.09,.1-10.54-6.48-11.45-8.08-.55,4.17-2.91,16.27,5.47,18.48,2.71,.7,11.5-.85,11.5-.85,0,0,7.73-1.25,14.96-6.78,.8,1.81,5.97,13.41,11.1,14.81,5.12,1.41,8.69-8.23,9.49-9.74,.8-1.51,4.87-11.32,3.97-27.27"/>
        </g>
      </g>
    </g>
  </g>
</svg>